<?xml version="1.0" encoding="UTF-8"?>
<svg id="Livello_2" data-name="Livello 2" xmlns="http://www.w3.org/2000/svg" viewBox="0 0 1401.61 1515.68">
  <defs>
    <style>
      .cls-1 {
        fill: #49b9e7;
      }

      .cls-2 {
        fill: #dfdfdf;
      }

      .cls-3 {
        fill: #85e2ff;
      }

      .cls-4 {
        fill: #fffcf5;
      }

      .cls-5 {
        fill: #004d7c;
      }

      .cls-6 {
        fill: #94e1f3;
      }

      .cls-7 {
        fill: #700000;
      }

      .cls-8 {
        fill: #d4f9ff;
      }

      .cls-9 {
        fill: #6bc0ce;
      }

      .cls-10 {
        fill: #2c94dd;
      }

      .cls-11 {
        fill: #3c959e;
      }

      .cls-12 {
        fill: #9bd7dd;
      }

      .cls-13 {
        fill: #2e90f9;
      }

      .cls-14 {
        fill: #0c243e;
      }

      .cls-15 {
        fill: #ffc5c5;
      }

      .cls-16 {
        fill: #fff;
      }

      .cls-17 {
        fill: #4c0000;
      }

      .cls-18 {
        fill: #c7f7ff;
      }

      .cls-19 {
        fill: #e5ddcc;
      }

      .cls-20 {
        fill: #f2adad;
      }

      .cls-21 {
        fill: #a89d88;
      }

      .cls-22 {
        fill: #c47070;
      }

      .cls-23 {
        fill: #68effd;
      }
    </style>
  </defs>
  <g id="Layer_1" data-name="Layer 1">
    <g>
      <g>
        <g>
          <path class="cls-6" d="M17.33,1106.62c30.97-48.14,148.35-116.26,252.93-66.72,16.47-45.6,74.11-88.46,124.35-83.82.84-21.53,28.92-66.29,57.22-79.38-32.51-18.58-221.71-282.15-221.71-282.15,0,0-23.56-18.87-55.22,3.3-31.67,22.17-89.5,139.15-121.6,206.66-28.63,60.21-56.37,192.35-35.96,302.11Z"/>
          <path class="cls-9" d="M302.36,693.31c-40.08-53.96-72.24-98.76-72.24-98.76,0,0-23.56-18.87-55.22,3.3-31.67,22.17-89.5,139.15-121.6,206.66-28.63,60.21-56.37,192.35-35.96,302.11,2.25-3.5,4.97-7.11,8.1-10.78,2.88-101.97,20.21-174.78,46.51-248.12,27.02-75.36,73.75-157.83,77.98-153.84,4.22,3.99.75,91.18,32.84,197.06,21.14,69.74,53.31,121.09,74.48,143.4,4.36,1.66,8.7,3.5,13.03,5.55.77-2.13,1.63-4.26,2.58-6.37-9.39-57.87-23.73-112.02-32.34-174.99-9.5-69.45-14.21-107.57-11.43-109.62,2.78-2.05,28.43,67.2,74.14,128,33.55,44.62,63.37,70.55,79.41,78.94,4.03-.2,8.05-.13,12.01.23.16-4.16,1.35-9.18,3.34-14.68-52.12-74.2-86.93-149.2-92.54-214.67-1.27-10.7-2.27-22.06-3.07-33.43Z"/>
          <path class="cls-11" d="M16.78,1109.42l-.49-2.62c-11.71-62.99-6.69-127.2-.41-169.98,7.45-50.79,21.08-100.43,36.46-132.77,57.55-121.05,98.58-190.72,121.95-207.07,16.66-11.66,31.11-11.95,40.3-10.13,9.99,1.97,15.94,6.68,16.19,6.88l.11.09.08.12c1.89,2.63,189.43,263.6,221.38,281.85l1.78,1.02-1.86.86c-12.69,5.87-26.72,19.06-38.47,36.16-10.78,15.68-17.72,31.89-18.13,42.3l-.04,1.11-1.11-.1c-51.64-4.77-107.67,39.95-123.26,83.13l-.39,1.09-1.05-.5c-103.6-49.08-220.55,18.07-251.59,66.33l-1.44,2.24ZM206.05,588.13c-8.25,0-18.8,2.36-30.55,10.58-23.06,16.14-63.86,85.54-121.26,206.25-27.23,57.27-56.27,187.39-36.34,298.9,8.1-11.76,21.02-24.38,36.69-35.79,18.18-13.24,39.36-24.46,61.24-32.43,25.14-9.15,50.42-13.88,75.14-14.04,27.82-.19,54.3,5.49,78.7,16.86,8.32-22.15,26.3-44.02,49.5-60.17,24.35-16.95,50.75-25.22,74.46-23.34.84-10.8,7.82-26.86,18.44-42.31,11.44-16.65,25.05-29.67,37.61-36.05-15.1-10.5-56.02-60.01-121.73-147.28-49.72-66.03-96.22-130.7-98.59-134-.83-.63-6.47-4.67-15.28-6.39-2.34-.46-5.03-.77-8.03-.77Z"/>
        </g>
        <g>
          <path class="cls-1" d="M256.9,589.06c-17.09-10.04-43.36-24.62-67.85-20.4-24.49,4.22-76.29,59.75-120.62,159.19C24.09,827.29,9.42,871.64,2.41,974.59c-6.76,99.23,13.65,153.14,18.3,151.03,4.64-2.11-11.6-64.86,3.8-156.66,20.69-123.31,78.96-254.62,156.09-351.87-19.63,80.83-1.27,222.07,23.43,296.17,24.7,74.1,70.31,141.85,72.85,140.72,2.53-1.13-27.63-67.89-46.76-162.71-25.73-127.52-20.97-223.61-10.89-269.99,3.8,89.3,45.27,188.08,105.5,268.72,44.15,59.12,90.48,91.21,91.69,86.98,1.21-4.22-36.8-42.65-69.31-100.07-32.51-57.43-52.59-108.51-62.07-142.23-8.45-46.1-28.14-145.62-28.14-145.62Z"/>
          <path class="cls-3" d="M192.71,576.55c19.85-5.17,48.14,13.3,67.53,29.47-2.06-10.45-3.34-16.95-3.34-16.95-17.09-10.04-43.36-24.62-67.85-20.4-24.49,4.22-76.29,59.75-120.62,159.19C24.09,827.29,9.42,871.64,2.41,974.59c10.32-92.86,26.89-145.19,71.22-244.63,44.33-99.44,98.53-148.07,119.08-153.42Z"/>
          <g>
            <path class="cls-10" d="M305.53,830.97c31.81,61.65,82.97,123.47,110.39,146.37.27-.03.45-.15.51-.36,1.21-4.22-36.8-42.65-69.31-100.07-32.51-57.43-52.59-108.51-62.07-142.23-2.89-15.76-7.09-37.76-11.37-59.9-12.73-8.48-28.97-18.62-28.97-18.62,0,0,28.46,112.09,60.82,174.8Z"/>
            <path class="cls-10" d="M210.73,850.45c14.64,81.92,37.6,143.11,64.45,202.19.89.98,1.47,1.44,1.7,1.34,2.53-1.13-27.63-67.89-46.76-162.71-25.73-127.52-20.97-223.61-10.89-269.99.02.36.04.72.05,1.08.22-3.35.44-6.52.65-9.31-26.1,32.93-24.39,152.45-9.21,237.39Z"/>
            <path class="cls-10" d="M24.51,968.96c20.56-122.51,78.21-252.91,154.59-349.97,1.26-2.32,2.48-4.46,3.65-6.33-9.87,1.52-34.3,22.27-62.11,65.51-27.82,43.24-68.69,112.13-92.68,220.87-24.91,112.85-16.63,184.2-6.83,226.11,3.1-6.2-11.47-67.69,3.38-156.19Z"/>
          </g>
          <path class="cls-5" d="M20.43,1126.73c-.36,0-.8-.11-1.29-.45-3.62-2.51-9.49-17.95-13.73-42.61-3.75-21.85-7.5-58.51-4.05-109.15,3.6-52.9,9.12-89.09,19.05-124.9,10.21-36.82,24.98-72.69,47.06-122.2,25.67-57.57,51.09-94.6,67.89-115.53,20.76-25.85,40.26-41.98,53.51-44.27,11.06-1.91,23.24-.3,37.25,4.9,11.28,4.19,21.72,9.99,31.32,15.63l.41.24.09.47c.2,1,19.78,99.98,28.14,145.59,5.49,19.48,22.48,72.22,61.96,141.94,20.35,35.95,43,64.61,56.54,81.74,10.23,12.95,13.44,17.14,12.87,19.14-.17.58-.63.98-1.26,1.1-3.4.63-17.1-8.8-32.57-22.41-14.54-12.8-36.7-34.52-59.72-65.33-30.3-40.57-55.9-85.99-74.05-131.35-17.94-44.85-28.42-88.41-31.2-129.61-9.5,52.14-10.86,145.49,12.52,261.39,13.18,65.3,31.92,118.22,40.93,143.65,2.1,5.92,3.75,10.6,4.78,13.81,1.41,4.42,1.65,5.88.44,6.42-.23.1-.61.18-1.09-.03-2.75-1.21-15.49-19.73-29.38-44.36-12.82-22.73-30.82-58.01-43.81-96.97-12.69-38.08-23.31-92.58-28.39-145.79-5.54-57.99-4.16-109.67,3.87-146.35-75.52,96.68-132.58,226.28-152.96,347.69-10.58,63.05-6.26,111.61-3.94,137.69,1.3,14.58,1.58,18.82-.46,19.75-.16.07-.41.15-.72.15ZM198.06,568.97c-2.96,0-5.91.23-8.83.74-12.56,2.17-32.09,18.43-52.23,43.51-16.73,20.83-42.04,57.7-67.61,115.07C24.45,829.08,10.35,873.64,3.47,974.66c-3.51,51.59.44,88.63,4.37,110.62,4.62,25.79,10.45,37.92,12.43,39.24.64-1.64-.02-9.02-.77-17.5-2.33-26.18-6.66-74.92,3.97-138.23,20.69-123.31,79.12-255.03,156.3-352.36l2.99-3.77-1.14,4.67c-18.66,76.82-2.64,217.44,23.41,295.58,12.89,38.67,30.76,73.72,43.48,96.31,12.65,22.46,23.05,37.61,27.05,42.28-.86-3.07-2.97-9.03-5.47-16.09-9.02-25.48-27.8-78.49-41.01-143.94-24.72-122.54-21.83-220.03-10.89-270.42l1.74-8,.35,8.18c3.65,85.69,42.02,183.42,105.29,268.13,22.86,30.61,44.88,52.2,59.32,64.92,16.73,14.73,27.53,21.28,30.37,21.96-.87-2.26-6.23-9.05-12.36-16.8-13.57-17.18-36.28-45.92-56.72-82.01-39.62-69.98-56.68-122.94-62.17-142.46l-.02-.1c-8.05-43.96-26.57-137.69-28.05-145.14-13.02-7.64-35.58-20.76-57.89-20.76Z"/>
        </g>
      </g>
      <g>
        <path class="cls-12" d="M874.93,782.65c1.27,22.68,8.45,39.78,14.36,54.99,5.91,15.2,13.51,39.06,8.23,66.93-21.32-40.75-94.8-148.54-94.8-148.54l35.29-25.78,36.92,52.41Z"/>
        <path class="cls-11" d="M897.99,907.75l-1.41-2.69c-21.05-40.23-94-147.36-94.73-148.43l-.58-.84,36.98-27.02,37.71,53.53.02.3c1.18,21.14,7.56,37.46,13.2,51.87.37.94.73,1.87,1.09,2.8,6.08,15.64,13.56,39.66,8.29,67.51l-.56,2.98ZM804.17,756.28c6.78,9.98,71.14,104.89,92.84,145.08,4.11-26.03-2.94-48.5-8.7-63.33-.36-.92-.72-1.85-1.09-2.79-5.66-14.48-12.08-30.89-13.32-52.21l-36.12-51.28-33.6,24.55Z"/>
      </g>
      <g>
        <g>
          <g>
            <path class="cls-1" d="M924.71,970.17c-34.12-127.06-130.49-258.49-153.29-276.84-23.88,26.31-56.11,55.51-90.87,84.42,18.51,14.76,40.26,35.97,60.54,65.36,48.94,70.93,81.32,198.1,69.7,293.71-13.93,114.64-47.5,190.64-122.24,251.44-71.07,57.82-145.64,43.49-178.91,26.86-11.2-2.2-22.43-6.45-33.94-13.14-36.31-21.11-51.59-38.64-71.15-66.36-9.52-13.5-14.99-29.07-21.75-28.43-6.76.63-4.01,35.05,6.69,62.07,10.7,27.02,31.53,63.34,85.15,103.45,53.63,40.11,134.66,49.83,201.84,35.89,67.17-13.93,155.75-76.01,212.76-183.7,57.01-107.69,64.41-246.97,35.47-354.73Z"/>
            <path class="cls-10" d="M509.63,1415.13c-11.2-2.2-22.43-6.45-33.94-13.14-36.31-21.11-51.59-38.64-71.15-66.36-9.52-13.5-14.99-29.07-21.75-28.43-6.76.63-4.01,35.05,6.69,62.07,10.7,27.02,31.53,63.34,85.15,103.45,53.63,40.11,134.66,49.83,201.84,35.89,67.17-13.93,155.75-76.01,212.76-183.7,57.01-107.69,64.41-246.97,35.47-354.73-21.58-80.36-68.06-162.47-105.08-216.61l-25.94,40.9s45.6,55.46,68.4,129.56c22.8,74.1,35.05,142.79,26.78,228.2-9.05,93.54-48.95,177.78-109.12,236.68-65.29,63.91-163.57,68.42-174.58,46.87-1.67-3.27-2.18-5.83-1.82-8.1-39.56,6.42-73.94-2.66-93.72-12.54Z"/>
            <path class="cls-5" d="M617.1,1515.68c-15.71,0-31.42-1.23-46.79-3.71-37.49-6.04-70.79-19.33-96.3-38.41-24.2-18.1-44.01-37.22-58.88-56.84-11.25-14.83-19.95-30.23-26.62-47.07-9.78-24.7-12.85-54.53-8.5-61.61.88-1.44,1.96-1.83,2.7-1.9,5.2-.48,9.28,6.59,14.45,15.55,2.41,4.17,5.13,8.9,8.25,13.32,20.59,29.18,35.7,45.64,70.82,66.06,11.22,6.52,22.21,10.78,33.61,13.02l.14.03.13.06c9.89,4.94,36.98,16.24,74.76,14.38,37.08-1.83,71.74-15.66,103.02-41.11,72.03-58.6,107.33-131.24,121.85-250.75,11.14-91.64-19.4-220.34-69.52-292.98-17.33-25.12-37.63-47.04-60.33-65.13l-1.01-.81,1-.83c38.51-32.03,69.05-60.4,90.77-84.32l.67-.74.77.62c12.35,9.93,42.89,49.28,72.64,97.92,26.69,43.65,62.41,110.22,81.01,179.46,14.81,55.15,19.83,116.61,14.53,177.76-5.65,65.05-22.97,126.51-50.09,177.74-26.49,50.03-62.05,94.06-102.84,127.33-36,29.37-75.3,49.58-110.64,56.91-19.4,4.02-39.5,6.04-59.59,6.04ZM383.18,1308.22c-.1,0-.19,0-.29.01-.38.04-.75.34-1.1.9-1.89,3.07-2.15,11.96-.69,23.18,1.6,12.26,5.01,25.58,9.35,36.56,9.55,24.13,28.73,61.05,84.81,103,36.06,26.97,88.05,41.7,141.94,41.7,19.66,0,39.56-1.96,59.05-6,59.63-12.37,150.95-67.76,212.04-183.16,52.57-99.31,66.46-238.24,35.39-353.96-18.53-69-54.15-135.38-80.77-178.91-31.87-52.13-60.47-87.39-71.4-96.75-21.55,23.63-51.58,51.53-89.31,82.95,22.45,18.07,42.54,39.86,59.74,64.78,24.12,34.96,44.62,83.95,57.72,137.95,13.4,55.23,17.72,110.8,12.16,156.49-7.3,60.02-19.5,106.49-38.41,146.23-19.53,41.05-47.08,75.69-84.21,105.9-16.75,13.63-34.77,24.09-53.56,31.1-16.37,6.1-33.42,9.63-50.69,10.49-38.11,1.88-65.53-9.48-75.68-14.53-11.59-2.29-22.75-6.63-34.13-13.24-17.47-10.16-30.84-19.96-42.06-30.86-10.94-10.62-19.67-22-29.42-35.81-3.18-4.5-5.93-9.27-8.36-13.48-4.49-7.78-8.38-14.52-12.14-14.52Z"/>
          </g>
          <g>
            <path class="cls-6" d="M688.54,1388.27c74.74-60.8,108.3-136.8,122.24-251.44,11.62-95.61-20.76-222.78-69.7-293.71-20.28-29.39-42.02-50.6-60.54-65.36-101.71,84.59-225.19,166.71-225.19,166.71-5.63,50.25.28,115.7,35.75,172.28,35.47,56.58,87.83,84.87,87.83,84.87,21.53,23.22,47.29,59.54,48.56,105.14,1.27,45.6-20.69,89.94-54.47,101.76-21.96,7.68-42.6,10.69-63.39,6.6,33.27,16.62,107.85,30.96,178.91-26.86Z"/>
            <path class="cls-18" d="M507.57,1117.59c-29.4-46.42-38.06-108.52-35.95-157.92,0,0-9.89-.03-17.62.81-2.74,47.65,5.29,105.52,37.1,156.27,35.47,56.58,87.83,84.87,87.83,84.87,0,0,15.47,8.76,48.68,16.15-38.46-11.5-87.24-48.38-120.04-100.18Z"/>
            <path class="cls-9" d="M573.02,1408.53c-21.96,7.68-42.6,10.69-63.39,6.6,19.78,9.88,54.16,18.96,93.72,12.54,2.03-12.67,33.01-26.95,39.48-86.56,6.58-60.57-16.82-109.47-61.43-136.78,20.99,23.29,44.87,58.57,46.09,102.44,1.27,45.6-20.69,89.94-54.47,101.76Z"/>
            <path class="cls-11" d="M576.54,1430.87c-33.87,0-58.09-10.16-67.38-14.8l-6.97-3.48,7.65,1.5c19.26,3.79,39.23,1.7,62.84-6.56,15.84-5.54,29.97-18.94,39.79-37.71,9.63-18.41,14.59-40.79,13.97-63.03-.99-35.79-17.2-70.89-48.16-104.33-1.54-.85-14.24-8.02-30.62-21.24-16.05-12.96-39.05-34.56-57.45-63.92-16.44-26.23-27.69-56.14-33.43-88.89-4.75-27.08-5.6-56.15-2.47-84.06l.05-.49.41-.27c1.23-.82,124.59-83.06,225.1-166.65l.66-.55.67.54c22.86,18.23,43.3,40.29,60.75,65.59,24.12,34.96,44.62,83.95,57.72,137.95,13.4,55.23,17.72,110.8,12.16,156.49-7.3,60.02-19.5,106.49-38.41,146.23-19.53,41.05-47.08,75.69-84.21,105.9-16.75,13.63-34.77,24.09-53.56,31.1-16.37,6.1-33.42,9.63-50.69,10.48-2.87.14-5.68.21-8.42.21ZM517.09,1417.36c13.02,5.41,36.81,12.73,67.77,11.2,37.08-1.83,71.74-15.66,103.02-41.11l.67.82-.67-.82c72.03-58.6,107.33-131.24,121.85-250.75,11.14-91.64-19.4-220.34-69.52-292.98-17.16-24.87-37.23-46.6-59.66-64.6-97.56,81.05-216.27,160.66-224.21,165.96-4.03,36.52-4.64,106.85,35.65,171.11,18.24,29.1,41.06,50.54,56.98,63.39,17.25,13.92,30.32,21.04,30.45,21.11l.15.08.12.13c31.4,33.86,47.83,69.47,48.84,105.83.63,22.59-4.42,45.35-14.21,64.07-10.07,19.25-24.62,33-40.96,38.72-20.87,7.31-38.98,9.85-56.28,7.84Z"/>
          </g>
        </g>
        <path class="cls-11" d="M578.44,1202.56l.98-1.87c17.7,9.27,47.89,17.01,48.19,17.08,0,0-31.25-5.83-49.17-15.21Z"/>
      </g>
      <g>
        <g>
          <path class="cls-6" d="M815.82,765.43c56.58,2.96,140.33,79.38,189.17,195.93,39.27-54.05,154.69,25.62,178.89,62.21,8.16-37.44,44.17-60.79,104.86-55.88,67.77,5.49,95.01,30.54,104.02,40.68-8.45-37.44-42.79-151.31-121.33-266.79-78.54-115.49-146.94-203.88-212.82-247.51-65.87-43.63-60.8-58.83-108.1-30.12-47.29,28.71-134.7,301.49-134.7,301.49Z"/>
          <path class="cls-9" d="M1392.76,1008.37c-8.45-37.44-42.79-151.31-121.33-266.79-78.54-115.49-146.94-203.88-212.82-247.51-65.87-43.63-60.8-58.83-108.1-30.12-47.29,28.71-134.7,301.49-134.7,301.49,6.46.34,13.27,1.64,20.35,3.84,27.4-36.69,56.04-93.83,67.06-119.82,11.4-26.88,24.7-60.86,30.4-61.93,5.7-1.07,15.86,76.22,32.33,160.44,11.61,59.38,23.54,146.16,29.56,192.18,3.28,6.91,6.45,13.98,9.47,21.21,3.9-5.37,8.56-9.42,13.81-12.33,7.04-58.16,5.85-145.31,4.16-205.61-1.9-67.68-16.47-138.61-12.03-140.51,4.43-1.9,38.18,69.56,68.81,144.03,28.35,68.92,82.54,213.13,95.48,265.78,3.56,3.88,6.49,7.54,8.68,10.85,1.31-6.02,3.35-11.67,6.09-16.9-6.02-71.85-32.5-197.94-50.48-268.13-19-74.19-46.87-141.73-42.43-144.7,4.43-2.96,74.72,62.65,157.07,169.31,51.67,66.92,107.49,180.68,123.81,232.15,7.26,5.12,11.96,9.85,14.82,13.07Z"/>
          <path class="cls-11" d="M1184.38,1026.24l-1.38-2.09c-9.36-14.15-32.17-34.17-56.74-49.82-29.79-18.96-58.38-29.67-80.51-30.16-17.64-.38-31.05,5.6-39.91,17.8l-1.1,1.52-.72-1.73c-22.74-54.26-55.22-104.06-91.45-140.22-33.6-33.53-68.88-53.6-96.8-55.06l-1.37-.07.42-1.3c.22-.68,22.18-69.04,49.64-140.04,16.13-41.71,30.98-76.16,44.13-102.38,16.51-32.93,30.43-53,41.39-59.65,17.18-10.43,28.51-15.86,39.1-14.66,10.02,1.13,19.29,8.07,34.65,19.56,9.11,6.81,20.44,15.29,35.48,25.25,31.22,20.68,64.54,52.41,101.88,97.01,31.54,37.67,66.88,85.59,111.22,150.78,34.04,50.06,63.33,104.85,87.05,162.86,22.57,55.18,32.06,93.78,34.43,104.3l.9,3.99-2.72-3.06c-11.43-12.86-40.06-35.2-103.31-40.33-56.44-4.57-95.23,16.01-103.74,55.05l-.53,2.44ZM1044.15,942.05c.55,0,1.09,0,1.65.02,30.37.67,64.16,19.39,81.59,30.49,24.07,15.32,45.71,34.08,56.01,48.46,4.59-18.16,15.86-32.71,32.7-42.18,18.64-10.49,43.11-14.59,72.73-12.19,59.5,4.82,88.82,24.82,102,38.14-6.08-25.13-37.05-140.23-120.27-262.61-68.42-100.61-141.53-200.19-212.53-247.22-15.08-9.99-26.45-18.49-35.58-25.32-30.79-23.02-35.52-26.56-71.39-4.78-19.14,11.62-48.4,67.28-84.64,160.98-25.36,65.56-46.02,128.88-49.18,138.64,13.9,1,29.26,6.22,45.66,15.52,16.92,9.6,34.13,23.08,51.15,40.07,17.64,17.6,34.33,38.25,49.61,61.36,15.92,24.08,29.91,50.27,41.59,77.85,8.99-11.43,22.06-17.21,38.9-17.21Z"/>
        </g>
        <g>
          <path class="cls-1" d="M791.65,798.63c19.24,8.75,37.26-7.85,33.88-29.81,21.96-32.94,87.22-169.38,110.66-234.78,14.75,50.25,31.76,129.31,47.27,238.57,17.73,124.99,18.58,210.28,22.38,210.7,3.8.42,15.62-81.07,0-270.84-9.3-112.94-21.78-186.36-25.99-209.23-.25-1.35,1.59-1.99,2.23-.78,16.19,30.25,81.91,155.23,123.41,265.92,73.5,196.06,79.24,284.74,82.06,284.74s-.56-116.26-70.22-330.77c-39.85-122.73-61.81-196.77-61.81-196.77,39.97,31.53,128.16,117.33,191.01,198.92,131.74,171,146.3,321.11,152.64,320.47,6.33-.63-3.8-148.84-131.11-340.19-81.85-123.02-146.52-187.23-194.66-224.81-48.14-37.58-95.81-58.91-117.81-55.74-35.19,5.07-70.94,73.89-112.32,131.74-41.38,57.85-67.14,98.39-67.14,98.39l-50.25,101.65,65.77,42.6Z"/>
          <path class="cls-3" d="M854.8,561.06c39.83-58.93,72.66-115.52,98.94-124.99,18.41-6.64,72.21,14.22,119.65,43.92-48.14-37.58-95.81-58.91-117.81-55.74-35.19,5.07-70.94,73.89-112.32,131.74-41.38,57.85-67.14,98.39-67.14,98.39l-50.25,101.65,37.67-76.2s40.16-43.18,91.26-118.76Z"/>
          <g>
            <path class="cls-10" d="M825.53,768.82c21.96-32.94,87.22-169.38,110.66-234.78,14.75,50.25,31.76,129.31,47.27,238.57,17.61,124.12,18.57,209.1,22.3,210.68,1.67-46.45-1.86-140.79-9.4-199.48-7.6-59.14-13.32-124.37-24.72-180.53-11.4-56.16-26.03-94.55-35.47-92.62-10.98,2.24-23.93,41.11-51.09,98.54-15.35,32.44-45.46,97.61-59.82,125.27s-29.49,41.94-45.1,45.56c9.72,7.41,27.02,7.79,28.28,10.53,1.27,2.74-5.91,6.97-16.78,8.07,19.24,8.75,37.26-7.85,33.88-29.81Z"/>
            <path class="cls-10" d="M1067.9,643.82c-27.87-62.92-52.17-105.55-65.87-126.68-15.2-23.44-22.4-15.89-22.4-15.89l.47,1c.5-.57,1.52-.63,1.97.21,16.19,30.25,81.91,155.23,123.41,265.92,73.5,196.06,79.24,284.74,82.06,284.74-5.77-66.15-27.38-152.15-51.23-229-23.38-75.3-40.54-117.39-68.41-180.3Z"/>
            <path class="cls-10" d="M1330.54,835.95c-27.87-54.89-54.47-97.12-84.87-136.09-30.4-38.97-90.36-108.18-138.5-149.98-25.64-22.27-79.17-59.12-91.34-54.91,10.84,5.47,39.69,30.63,39.69,30.63,39.97,31.53,128.16,117.33,191.01,198.92,131.74,171,146.3,321.11,152.64,320.47.2-.02.39-.19.55-.51-2.23-12.86-8.65-47.7-18.02-79.32-11.76-39.69-23.29-74.31-51.15-129.21Z"/>
          </g>
          <path class="cls-5" d="M1187.54,1054.19c-1.48,0-1.71-1.25-3.88-13.24-5.3-29.23-21.42-118.18-79.16-272.19-40.95-109.23-104.77-231.06-123.35-265.79-.03-.05-.06-.11-.17-.07-.12.04-.1.1-.09.16,4.77,25.89,16.85,98.13,26,209.33,8.16,99.06,8.53,165.16,7.4,203.17-1.22,41.35-4.64,65.69-7.39,68.35-.46.45-.94.47-1.18.44-2.18-.24-2.68-3.96-5.38-39.79-2.74-36.34-7.33-97.17-17.93-171.81-17.16-120.92-34.51-194.36-46.33-235.32-24.33,66.54-87.73,198.79-109.44,231.62,1.65,11.45-1.52,21.52-8.73,27.67-2.31,1.97-4.92,3.43-7.76,4.38-13.33,3.58-18.5-2.49-18.5-2.49,9.74,3.12,18.58,1.88,24.89-3.5,6.73-5.74,9.62-15.27,7.95-26.15l-.06-.41.23-.34c21.77-32.67,87.04-168.97,110.54-234.55l1.09-3.05.91,3.11c11.85,40.37,29.68,114.56,47.3,238.72,10.6,74.71,15.2,135.58,17.94,171.95,1.36,17.97,2.46,32.6,3.52,36.9,1.65-4.69,4.99-23.93,6.23-66.03,1.11-37.94.73-103.9-7.4-202.72-9.15-111.11-21.21-183.26-25.98-209.12-.21-1.12.4-2.16,1.47-2.54,1.07-.38,2.2.06,2.73,1.06,18.6,34.76,82.47,156.69,123.46,266.05,57.8,154.19,73.96,243.28,79.26,272.55.52,2.87.99,5.45,1.39,7.48.13-10.18-1.44-37.55-9.24-83.8-8.32-49.33-25.75-131.29-61.56-241.56-39.4-121.34-61.59-196.06-61.81-196.8l-.95-3.19,2.61,2.06c21.6,17.04,54.13,47.23,87.03,80.78,27.69,28.24,68.24,71.69,104.17,118.33,103.71,134.63,134.85,256.13,146.57,301.87,2.11,8.22,3.96,15.46,5.08,17.67.68-2.45,1.05-10.92-1.22-28.03-1.95-14.66-6.34-39.14-16.2-72.47-15.93-53.84-48.71-138.75-114.43-237.53-67.79-101.89-131.39-175.35-194.43-224.56-23.1-18.04-46.79-32.91-68.5-43.02-20.61-9.6-37.84-14.04-48.51-12.5-26.4,3.8-53.95,45.38-83.12,89.4-9.19,13.87-18.7,28.22-28.49,41.91-40.26,56.29-66.05,96.68-67.08,98.29l-50.22,101.6-1.89-.94,50.27-101.7.03-.05c.26-.41,26.25-41.22,67.17-98.43,9.77-13.66,19.27-27.99,28.45-41.85,15-22.64,29.17-44.03,43.09-60.44,15.77-18.59,28.95-28.08,41.49-29.89,23.33-3.36,72.11,19.65,118.61,55.95,63.22,49.36,126.97,122.97,194.89,225.06,65.07,97.8,97.86,182.03,113.91,235.47,18.7,62.27,20.34,99.94,17.87,105.16-.43.91-1.02,1.15-1.44,1.19-2.19.22-3.15-3.27-7.38-19.77-11.69-45.63-42.75-166.83-146.2-301.11-60.47-78.49-146.77-163.27-188.2-196.64,4.66,15.55,26.03,86.34,60.83,193.52,36.12,111.23,53.59,193.73,61.89,243.36,8.9,53.21,10.14,85.75,8.3,88.27-.24.33-.6.52-.98.52Z"/>
        </g>
        <path class="cls-5" d="M1054.8,526.37c-23.03-21.36-38.81-31.31-38.97-31.41,0,0,17.24,8.36,40.41,29.86l-1.44,1.55Z"/>
        <path class="cls-5" d="M794.28,783.69c-5.5,0-14.14-3.66-14.14-3.66,11.42,2.42,32.39,4.11,44.54-11.84l1.68,1.28c-8.56,11.24-21.13,14.23-32.09,14.23Z"/>
      </g>
      <g>
        <g>
          <path class="cls-8" d="M798.36,618.76c5.52-8.18,11.93-17.59,19.13-27.98-9.96-10.1-21.65-14.3-40.91-10.67,0,0-31.67,76.64-75.37,140.35-43.7,63.71-180.47,137.97-260.36,156.06-22.22,62.07,3.81,91.6,14.5,100.32,4.79,9.57,19.99,26.74,34.91,41.94,14.92,15.2,23.93,35.75,15.48,53.2,20.27-5.63,52.64-26.18,79.38-57.43,75.16-21.96,103.8-91,107.6-115.7,4.86,14.57,17.1,21.11,33.15,25.34-3.38-3.1-4.5-15.76-2.25-31.81,2.25-16.05,7.6-28.71,4.5-52.64,11.26,18.58,16.61,47.29,10.7,63.62,21.96-11.82,42.55-40.74,42.23-71.78-.28-27.31-11.26-42.4-16.19-59.82,1.41-6.62,10.56-26.46,14.64-35.75,4.08-9.29,10.56-28.64,9.5-43.21,4.01-8.45,6.54-26.18,6.33-41.59-.12-8.47.6-18.16,2.04-27.2-.27.4-.55.81-.81,1.21.51-2.16,1.22-4.28,1.8-6.46Z"/>
          <path class="cls-12" d="M455.35,976.84c4.79,9.57,19.99,26.74,34.91,41.94,14.92,15.2,23.93,35.75,15.48,53.2,20.27-5.63,52.64-26.18,79.38-57.43,75.16-21.96,103.8-91,107.6-115.7,4.86,14.57,17.1,21.11,33.15,25.34-3.38-3.1-4.5-15.76-2.25-31.81,2.25-16.05,7.6-28.71,4.5-52.64,11.26,18.58,16.61,47.29,10.7,63.62,21.96-11.82,42.55-40.74,42.23-71.78-.28-27.31-11.26-42.4-16.19-59.82,1.41-6.62,10.56-26.46,14.64-35.75,4.08-9.29,10.56-28.64,9.5-43.21,4.01-8.45,6.54-26.18,6.33-41.59-.12-8.47.6-18.16,2.04-27.2-.27.4-.55.81-.81,1.21.51-2.16,1.22-4.28,1.8-6.46,5.52-8.18,11.93-17.59,19.13-27.98-9.96-10.1-21.65-14.3-40.91-10.67,0,0-.38,40.75-29.77,91.71-20.94,55.05-11.64,87.29-4.89,105.81,8.02,22.01,20.8,48.11,11.66,72.64-15.01-33.36-27.71-53.9-42.63-64.56,8.8,30.84-.07,62.49-1.97,72.84-1.9,10.35-3.38,27.89-3.38,27.89-8.23-10.78-4.43-40.13-21.96-64.41,5.07,42.01-10.98,77.69-19.85,95.85-8.87,18.16-20.27,26.6-20.27,26.6-.21-58.04-33.36-82.34-33.36-82.34,5.07,32.51-.91,74.48-18.16,105.99-21.96,40.11-53.62,58.12-53.62,58.12,8.23-37.64-11.19-41.44-11.61-70.16-19,26.39,4.86,39.27-10.77,67.49-15.2-29.7-30.82-29.7-44.97-47.86-15.34-19.68-19.49-38.57-15.48-56.02-7.53,5.35-13.16,20.55-13.16,20.55-6.61-15.43-6.21-45.7-.38-64-.39.09-.79.18-1.18.27-22.22,62.07,3.81,91.6,14.5,100.32Z"/>
          <path class="cls-11" d="M776.38,579.07l-.56.11-.22.53c-.32.77-32.12,77.26-75.26,140.15-20.12,29.33-61.41,63.01-116.27,94.82-50.16,29.09-103.79,51.82-143.46,60.81l-.57.13-.2.55c-9.65,26.95-11.37,50.78-5.11,70.84,5.19,16.62,14.53,26.21,19.76,30.52,6.07,11.91,26.47,33.32,34.99,42.01,13.1,13.34,23.99,34.01,15.29,52l-1.02,2.1,2.25-.62c19.85-5.51,52.16-25.43,79.7-57.52,17.48-5.14,33.64-13.2,48.02-23.95,12.31-9.19,23.34-20.35,32.79-33.17,15.41-20.89,23.7-42.18,26.56-55.68,6.31,13.89,19.86,19.2,32.51,22.53l4.13,1.09-3.15-2.89c-2.75-2.52-4.3-13.94-1.92-30.88.58-4.15,1.39-8.17,2.18-12.06,2.05-10.18,4.17-20.68,2.88-35.7,9.66,18.7,13.32,43.81,8.1,58.23l-.94,2.6,2.43-1.31c11.4-6.14,22-16.46,29.86-29.05,8.6-13.79,13.07-28.89,12.92-43.67-.2-19.08-5.65-32.48-10.46-44.31-2.15-5.3-4.19-10.3-5.69-15.53,1.3-5.62,7.82-20.25,12.16-29.98.88-1.99,1.69-3.79,2.36-5.31,4.04-9.2,10.58-28.63,9.61-43.44,3.88-8.42,6.53-25.91,6.32-41.81-.23-16.46,2.55-35.22,6.9-46.69,0,0-4.51,4.41-6.83,18.51-1.5,9.03-2.3,18.99-2.18,28.21.22,15.77-2.4,33.07-6.23,41.12l-.12.25.02.28c1.04,14.42-5.43,33.63-9.41,42.71-.67,1.52-1.47,3.32-2.35,5.3-4.7,10.56-11.15,25.01-12.35,30.65l-.05.26.07.25c1.54,5.43,3.63,10.57,5.84,16.01,4.97,12.22,10.12,24.86,10.31,43.54.31,30.44-19.2,57.5-39.36,69.53,4.5-16.5-.43-43.48-11.61-61.92l-2.59-4.28.64,4.96c2.27,17.52-.06,29.04-2.3,40.18-.79,3.92-1.61,7.97-2.2,12.18-1.88,13.4-1.48,24.76.91,30.2-16.87-4.89-25.83-12.13-29.76-23.91l-1.38-4.14-.66,4.32c-1.97,12.83-10.19,35.82-26.85,58.41-14.18,19.22-39.57,44.62-80.01,56.43l-.3.09-.2.24c-26.31,30.74-56.97,50.21-76.69,56.45,3.15-7.89,3.21-16.86.14-26.12-2.99-8.99-8.78-18.04-16.75-26.16-17.98-18.32-30.63-33.51-34.72-41.68l-.1-.2-.18-.14c-5.01-4.09-14.18-13.38-19.26-29.66-6.08-19.47-4.43-42.67,4.89-68.95,39.8-9.11,93.38-31.85,143.48-60.91,26-15.08,49.17-30.73,68.86-46.51,21.4-17.15,37.58-33.62,48.09-48.94,41.37-60.31,72.34-133.08,75.25-140.01,19.75-3.6,30.61,1.4,39.55,10.61.4-.58.81-1.17,1.21-1.75-11.1-11.12-23.56-14.26-41.71-10.83Z"/>
        </g>
        <path class="cls-11" d="M787.95,692.87c-.89-15.11-5.7-25.98-5.75-26.09,0,0,6.94,10.47,7.86,25.97l-2.11.12Z"/>
        <path class="cls-11" d="M763.84,772.01c-8.19-31.91-2.01-41.6-2.01-41.6-1.87,12.31-.18,23.07,4.07,41.12l-2.06.48Z"/>
        <path class="cls-11" d="M693.77,899.03l-2.08-.34c1.64-10.18,2.17-15.78,2.17-15.84,0,0,1.56,5.93-.09,16.17Z"/>
        <path class="cls-11" d="M585.95,1015.22l-1.65-1.32c34.54-43.11,46.4-82.45,36.26-120.25,0,0,6.37,7.47,5.37,32.1-.45,7.92-1.8,15.92-4.04,23.96-5.83,20.98-17.93,43.02-35.94,65.51Z"/>
        <path class="cls-11" d="M454.39,977.27c-11.56-25.06-1.5-51.27-1.5-51.27-.21,1.89-.45,3.78-.71,5.79-1.66,12.81-3.54,27.33,4.15,44.62l-1.93.86Z"/>
      </g>
      <g>
        <g>
          <g>
            <path class="cls-1" d="M418.26,181.46c-9.29-6.76,5.07-31.25,0-33.57-5.07-2.32-34.41,30.82-42.65,22.59-8.23-8.23,19.85-50.04,11.82-54.89-8.02-4.86-68.41,44.97-74.95,39.9-4.32-3.35.66-16.27,4.54-24.66-33.53,33.64-65.23,85.82-76.74,160.84-11.07,72.13,3.38,147.37,27.87,183.26,0,0,33.36-27.87,46.45-57.43-12.25-25.76-7.6-68.54,17.31-110.63,24.91-42.09,43.91-62.49,93.32-102.19,15.33-12.31,28.82-21.82,41.2-30.5-16.11,4.96-41.89,11.84-48.16,7.28Z"/>
            <g>
              <path class="cls-10" d="M333.18,254.08c-37.96,52.05-55.3,124.5-31.34,184.84,4.96-6.76,9.5-14.04,12.77-21.42-12.25-25.76-7.6-68.54,17.31-110.63,24.91-42.09,43.91-62.49,93.32-102.19,15.33-12.31,28.82-21.82,41.2-30.5-16.11,4.96-41.89,11.84-48.16,7.28-2.36-1.72-3.19-4.59-3.21-7.95-28.21,20.17-55.22,44.02-81.88,80.57Z"/>
              <path class="cls-3" d="M246.47,345.38c.07-38.41,10.43-93.41,29.01-132.25,9.87-20.63,22.41-41.25,36.01-58.88-2.35-4.59,2.04-15.85,5.54-23.42-33.53,33.64-65.23,85.82-76.74,160.84-11.07,72.13,3.38,147.37,27.87,183.26,0,0,1.76-1.47,4.62-4.08-.32-.51,1.9-4.1,1.57-4.64-13.3-22.17-27.97-70.87-27.88-120.82Z"/>
            </g>
            <path class="cls-5" d="M267.94,476.48l-.66-.96c-12.38-18.15-22.13-46.01-27.44-78.46-5.67-34.65-5.88-71.15-.6-105.55,12.62-82.21,48.86-133.16,77.04-161.42l4.21-4.22-2.5,5.41c-5.79,12.51-7.6,21.25-4.85,23.38.37.29,2.32.8,11.78-4.63,6.48-3.72,14.46-9.02,22.92-14.62,22.08-14.64,35.81-23.35,40.16-20.71,4.64,2.81.17,13.62-5.01,26.14-4.87,11.78-10.39,25.14-6.62,28.91,4.31,4.31,17.2-5.99,26.62-13.51,8.63-6.89,13.24-10.43,15.72-9.29,2.92,1.34,1.66,6.15-.09,12.82-2.03,7.73-4.55,17.34.27,20.86h0c4.36,3.17,21.58.46,47.23-7.44l6.39-1.97-5.47,3.84c-11.35,7.97-25.48,17.88-41.14,30.46-50.2,40.33-68.46,60.33-93.07,101.9-23.38,39.49-30.16,82.53-17.27,109.64l.21.44-.2.44c-13.04,29.44-46.4,57.53-46.74,57.81l-.89.75ZM313.73,135.73c-27.28,28.77-60.47,78.34-72.4,156.1-11.56,75.32,4.77,147.95,27.04,181.52,5.35-4.64,33.31-29.7,45.07-55.84-12.9-27.75-6.03-71.31,17.57-111.18,24.76-41.84,43.13-61.95,93.57-102.47,13.35-10.73,25.58-19.51,35.93-26.81-17.57,5.1-37.17,9.4-42.85,5.26h0c-6-4.36-3.27-14.75-1.07-23.1,1.08-4.12,2.56-9.76,1.26-10.36-1.42-.65-8.7,5.17-13.53,9.02-8.91,7.11-18.77,14.99-25.25,14.99-1.63,0-3.05-.5-4.18-1.63-4.77-4.77.54-17.61,6.16-31.21,4.2-10.15,8.95-21.66,5.86-23.53-.82-.49-3.66-.49-13.51,5.14-7.06,4.04-15.87,9.88-24.38,15.52-8.48,5.62-16.49,10.94-23.03,14.69-8.11,4.66-12.21,5.96-14.12,4.47-3.3-2.55-2.66-9.47,1.89-20.59Z"/>
          </g>
          <g>
            <path class="cls-8" d="M540.08,106.72c31.98-43.53,31.71-77.11,28.43-104.53-.15-1.27-1.86-1.55-2.42-.41-7.35,14.85-18,27.56-30.23,35.9-16.99,11.6-39.27,17.95-69.25,25.97-29.98,8.02-87.83,16.89-128.37,48.38-7.04,5.47-14.17,11.72-21.22,18.8-3.88,8.39-8.86,21.31-4.54,24.66,6.54,5.07,66.93-44.76,74.95-39.9,8.02,4.86-20.06,46.66-11.82,54.89,8.23,8.23,37.58-24.91,42.65-22.59,5.07,2.32-9.29,26.81,0,33.57,6.27,4.56,32.06-2.32,48.16-7.28,27.52-19.31,49.48-34.54,73.66-67.46Z"/>
            <g>
              <path class="cls-16" d="M348.9,116.6c34.95-24.6,59.97-30.08,108-42.4,73.66-18.89,90.4-36.86,99.17-56.15-5.89,7.83-12.76,14.54-20.21,19.63-16.99,11.6-39.27,17.95-69.25,25.97-29.98,8.02-87.83,16.89-128.37,48.38-7.04,5.47-14.17,11.72-21.22,18.8-3.5,7.57-7.89,18.83-5.54,23.42,12.01-15.56,24.85-28.79,37.42-37.64Z"/>
              <path class="cls-12" d="M568.51,2.18s-.02-.08-.02-.12c-4.45,51.63-43.13,99.95-92.59,131.68-21.05,13.5-41.24,25.75-60.84,39.77.01,3.36.84,6.23,3.21,7.95,6.27,4.56,32.06-2.32,48.16-7.28,27.52-19.31,49.48-34.54,73.66-67.46,31.98-43.53,31.71-77.11,28.43-104.53Z"/>
            </g>
            <path class="cls-11" d="M425.38,183.97c-3.44,0-6.14-.5-7.74-1.66-6-4.36-3.27-14.75-1.07-23.1,1.08-4.12,2.56-9.76,1.26-10.36-1.42-.65-8.7,5.17-13.53,9.02-11.15,8.9-23.79,19-29.43,13.35-4.77-4.77.54-17.61,6.16-31.21,4.2-10.15,8.95-21.66,5.86-23.53-.82-.5-3.66-.49-13.51,5.14-7.06,4.04-15.87,9.88-24.38,15.52-8.48,5.62-16.49,10.94-23.03,14.69-8.11,4.66-12.21,5.96-14.12,4.47-3.8-2.94-2.38-11.67,4.22-25.94l.08-.17.13-.13c6.8-6.82,13.98-13.18,21.32-18.88,33.6-26.1,78.13-36.54,110.64-44.15,6.61-1.55,12.85-3.01,18.1-4.42,30.9-8.27,52.39-14.53,68.93-25.82,11.99-8.18,22.6-20.79,29.88-35.5.46-.94,1.47-1.45,2.5-1.27,1.02.18,1.8.99,1.92,2.02,3.54,29.62,2.52,62.87-28.63,105.29-24.01,32.68-45.62,47.85-72.98,67.05l-1.06.74-.16.05c-14.14,4.35-31.07,8.79-41.35,8.79ZM417.68,146.72c.38,0,.72.07,1.02.21,2.92,1.34,1.66,6.15-.09,12.82-2.03,7.73-4.55,17.34.27,20.86,4.35,3.16,21.5.47,47.07-7.39l.79-.55c27.2-19.09,48.69-34.17,72.49-66.57l.85.62-.85-.62c30.72-41.82,31.72-74.6,28.23-103.78,0-.05-.02-.16-.18-.19-.17-.03-.23.09-.25.13-7.44,15.03-18.3,27.92-30.58,36.31-16.81,11.48-38.46,17.79-69.57,26.12-5.28,1.41-11.54,2.88-18.16,4.43-32.32,7.57-76.59,17.95-109.83,43.77-7.23,5.62-14.29,11.86-20.99,18.57-5.72,12.42-7.51,21.09-4.77,23.21.37.29,2.32.8,11.78-4.63,6.48-3.72,14.46-9.02,22.92-14.62,22.08-14.65,35.81-23.35,40.16-20.71,4.64,2.81.17,13.62-5.01,26.14-4.87,11.78-10.39,25.14-6.62,28.91,4.31,4.31,17.2-5.99,26.62-13.51,7.56-6.04,12.04-9.5,14.7-9.5Z"/>
          </g>
        </g>
        <g>
          <path class="cls-1" d="M771.48,400.61c-45.7,6.76-69.25-43.07-151.17-76.43-49.34-20.09-124.18-32.74-214.54-2.2-90.36,30.54-136.36,103.96-155.36,160.12-19,56.16-10.56,117.39-2.53,140.61-20.27,11.4-23.09,31.64-8.98,62.49,18.27,39.97,46.27,61.55,69.37,90.78,42.37,53.63,47.02,103.73,125.41,109.09,58.22,3.98,151.63-29.46,216.23-77.59,64.6-48.13,94.37-91.2,115.27-144.4,20.9-53.2,19-114,19-114,10.77,10.13,25.97,14.57,25.97,14.57-21.53-19.63-29.94-48.18-40.36-72.39-10.42-24.21-21.11-63.62-56.16-85.58,33.36,10.56,57.85-5.07,57.85-5.07Z"/>
          <path class="cls-3" d="M256.61,490.12c19-56.16,63.9-125.41,154.26-155.95,63.68-21.52,121.35-17.13,162.99-11.26,17.45,2.46,31.88-4.67,46.45,1.27-49.34-20.09-124.18-32.74-214.54-2.2s-136.36,103.96-155.36,160.12c-19,56.16-10.56,117.39-2.53,140.61-8.02-23.22-10.27-76.43,8.73-132.59Z"/>
          <path class="cls-10" d="M433.68,885.08c58.22,3.98,151.63-29.46,216.23-77.59,64.6-48.13,94.37-91.2,115.27-144.4,20.9-53.2,19-114,19-114,10.77,10.13,25.97,14.57,25.97,14.57-21.53-19.63-29.94-48.18-40.36-72.39-10.42-24.21-21.11-63.62-56.16-85.58,33.36,10.56,57.85-5.07,57.85-5.07-44.92,6.64-68.45-41.4-147.06-74.72,47.12,27.99,77.53,63.18,77.53,63.18-24.49-1.69-50.39-9.99-50.39-9.99,42.79,24.63,56.58,46.38,79.81,84.03,13.42,21.76,20.69,71.99,20.69,71.99-12.67-23.86-38.19-36.52-38.19-36.52,19.62,29.14,23.49,91.66,6.98,155.29-15.24,58.78-61.69,100.4-78.58,102.73-16.09,2.22,10.3-49.61,11.69-84.78-24.78,53.92-49.97,89.82-77,120.54-29.45,33.46-75.16,68.23-129.35,78.08-32.43,5.9-64.64-7.23-78.98-21.39-14.34-14.16-41.07-53.78-54.59-65.46h0c37.19,50.68,44.95,96.39,119.63,101.49Z"/>
          <path class="cls-5" d="M443.37,886.45c-3.36,0-6.62-.11-9.76-.32-58.59-4-76.39-32.8-98.92-69.26-8.01-12.95-16.29-26.35-27.24-40.22-7.13-9.02-14.88-17.48-22.38-25.66-16.93-18.48-34.44-37.59-47.12-65.34-7.21-15.78-9.99-28.58-8.48-39.13,1.47-10.31,7.24-18.47,17.15-24.28-3.74-11.24-7.9-31.95-8.64-57.44-.6-20.64.89-51.8,11.46-83.03,7.81-23.07,23.01-57.42,51.12-90.02,28.51-33.06,63.8-56.87,104.9-70.76,41.34-13.97,82.74-20.01,123.04-17.94,32.43,1.66,63.46,8.45,92.23,20.16,36.84,15,62.13,33.48,82.45,48.33,25.18,18.4,43.37,31.69,68.16,28.03l4.89-.72-4.16,2.66c-.26.16-6.39,4.03-16.73,6.63-8.37,2.1-21,3.67-35.8.25,10.94,7.94,20.21,18.3,28.23,31.49,7.98,13.13,13.35,26.77,18.09,38.81,1.71,4.34,3.32,8.43,4.92,12.16,1.92,4.45,3.72,8.94,5.63,13.7,8.39,20.87,17.06,42.46,34.47,58.33l3.37,3.07-4.37-1.28c-.6-.17-13.97-4.15-24.58-13.19.07,11.88-.71,65.17-19.11,112-11.36,28.91-24.51,52.54-41.39,74.36-18.68,24.14-42.96,47.2-74.23,70.5-31.3,23.32-70.65,44.09-110.78,58.49-35.68,12.79-69.44,19.63-96.39,19.63ZM513.13,304.63c-31.75,0-67.63,5.04-107.02,18.36-102.67,34.7-142.38,123.08-154.7,159.46-18.34,54.2-11.29,114.59-2.54,139.93l.29.83-.77.43c-9.91,5.58-15.42,13.16-16.85,23.18-1.45,10.14,1.27,22.55,8.31,37.95,12.55,27.45,29.94,46.43,46.76,64.79,7.52,8.21,15.3,16.7,22.48,25.78,11.03,13.97,19.34,27.41,27.38,40.42,22.22,35.95,39.76,64.34,97.27,68.27,58.31,3.99,150.97-29.28,215.53-77.39,58.62-43.67,91.91-85.38,114.92-143.94,20.58-52.38,18.95-112.98,18.93-113.58l-.08-2.55,1.86,1.75c6.89,6.49,15.74,10.63,21,12.71-15.43-15.77-23.58-36.05-31.47-55.7-1.91-4.74-3.71-9.23-5.61-13.65-1.62-3.76-3.23-7.87-4.95-12.22-9.56-24.28-21.46-54.5-50.8-72.88l-7.03-4.4,7.91,2.5c16.96,5.37,31.53,3.74,40.77,1.43,4.71-1.18,8.56-2.65,11.32-3.88-22.83,1.19-40.43-11.67-64.12-28.98-20.23-14.78-45.4-33.18-82-48.08-26.5-10.79-62.65-20.53-106.78-20.53Z"/>
        </g>
        <g>
          <g>
            <path class="cls-1" d="M580.64,456.18c.84-9.2,2.99-16.47,6.39-25.09,13.23-33.61,40.42-71.15,81.24-99.88,51.3-36.1,112.52-38.08,160.24-31.03,2.35.35,4.7.69,7.02,1.01,2.11-7.84,12.61-14.54,11.67-19.06-1.41-6.73-32.65-7.91-35.19-22.27-2.53-14.36,22.52-31.81,21.68-39.69-.84-7.88-72.63-19.99-72.63-29.28,0-8.13,16.17-14.43,35.96-19.08-19.76-.85-41.03.19-64.77,5.49-62.08,13.86-104.5,46.23-146.3,105.14-30.73,43.3-45.37,86.95-51.98,119.61-2.38,11.77-3.56,19.31-3.34,30.58l50.02,23.55Z"/>
            <g>
              <path class="cls-3" d="M692.1,201.02c22.74-11.56,48.34-16.11,73.32-17.22,6.1-4.81,18-8.79,31.6-11.99-19.76-.85-41.03.19-64.77,5.49-62.08,13.86-104.5,46.23-146.3,105.14-30.73,43.3-45.37,86.95-51.98,119.61-2.38,11.77-3.56,19.31-3.34,30.58,4.05-25.41,28.46-95.34,55.91-135.04s56.58-71.65,105.56-96.57Z"/>
              <path class="cls-10" d="M683.65,294.82c-62.45,29.45-106.41,106.63-103.01,161.36.84-9.2,2.99-16.46,6.39-25.09,13.23-33.61,40.42-71.15,81.24-99.88,51.3-36.1,112.52-38.08,160.24-31.03,2.35.35,4.7.69,7.02,1.01,2.11-7.84,12.61-14.54,11.67-19.06-1.02-4.88-17.75-6.85-27.82-13.04-38.94-1.32-82.71.73-135.73,25.74Z"/>
            </g>
            <path class="cls-5" d="M580.64,456.18s-1.15-10.67,8.68-33.3c4.64-10.3,10.46-20.66,17.35-30.84,15.92-23.49,37.01-44.83,60.99-61.71,23.53-16.56,51.09-27.28,81.91-31.88,24.63-3.67,51.24-3.45,79.08.66,2.05.3,4.09.6,6.12.88,1.3-3.75,4.23-7.16,6.83-10.19,2.53-2.94,4.92-5.71,4.54-7.49-.45-2.13-6.22-4.05-11.8-5.9-9.7-3.22-21.77-7.23-23.39-16.39-1.56-8.85,6.35-18.29,13.33-26.62,4.44-5.3,8.64-10.3,8.33-13.14-.05-.43-.91-2.1-10.02-5.36-6.27-2.25-14.5-4.6-23.21-7.09-24.52-7.01-39.4-11.65-39.4-16.94,0-6.9,9.64-12.9,29.41-18.25-19.89-.33-38.17,1.5-56.94,5.7-60.23,13.45-102.43,43.78-145.67,104.72-44.97,63.37-54.27,125.71-56.18,149.58,0,0-2.36-11.54,4.52-40.81,7.13-29.96,21.4-69.78,49.94-109.99,21.82-30.75,42.73-52.9,65.79-69.7,23.62-17.21,50.16-28.94,81.15-35.85,21.31-4.76,41.98-6.51,65.05-5.52l7.65.33-7.45,1.75c-29.05,6.83-35.14,13.59-35.14,18.05,0,.75,1.12,2.92,11.54,6.77,7.26,2.68,16.96,5.45,26.33,8.14,21.25,6.08,34.29,10.02,34.75,14.26.4,3.73-3.67,8.58-8.82,14.72-6.35,7.58-14.26,17.01-12.87,24.9,1.4,7.92,12.81,11.71,21.98,14.76,6.99,2.32,12.51,4.16,13.2,7.48.58,2.8-2.01,5.81-5.01,9.3-2.67,3.1-5.69,6.61-6.67,10.25l-.24.9-.92-.13c-2.33-.33-4.67-.66-7.03-1.01-43.61-6.44-106.67-6.31-159.48,30.85-54.62,38.44-81.4,89.31-88.24,124.11Z"/>
          </g>
          <g>
            <path class="cls-8" d="M955.82,280.54c33.89-30.9,73.06-88.35,88.61-162.16.53-2.51-2.66-4.04-4.29-2.06-36.01,43.94-82.87,60.71-133.11,64.3-35.7,2.55-69.69-7.07-110-8.8-19.79,4.65-35.96,10.95-35.96,19.08,0,9.29,71.78,21.39,72.63,29.28.84,7.88-24.21,25.34-21.68,39.69,2.53,14.36,33.78,15.54,35.19,22.27.95,4.52-9.56,11.22-11.67,19.06,47.56,6.64,88.93,7.95,120.28-20.64Z"/>
            <g>
              <path class="cls-16" d="M844.1,188.21c47.94,5.27,83.62,7.6,122.89-8.87,35.46-14.87,54.5-37.31,65.98-54.79-34.96,37.82-78.97,52.7-125.94,56.06-35.7,2.55-69.69-7.07-110-8.8-13.6,3.2-25.5,7.17-31.6,11.99,28.84-1.28,56.85,2.02,78.68,4.42Z"/>
              <path class="cls-12" d="M1043.26,115.76c-24.58,92.65-90.01,148.48-148.06,154.37-23.92,2.43-48.7-.13-75.82-1.05,10.07,6.19,26.8,8.15,27.82,13.04.95,4.52-9.56,11.22-11.67,19.06,47.56,6.64,88.93,7.95,120.28-20.64,33.89-30.9,73.06-88.35,88.61-162.16.25-1.17-.32-2.13-1.16-2.61Z"/>
            </g>
            <path class="cls-11" d="M882.57,306.19c-16.06,0-32.48-1.91-47.18-3.96l-1.18-.17.31-1.15c1.11-4.11,4.3-7.81,7.11-11.08,2.53-2.94,4.92-5.71,4.54-7.49-.45-2.13-6.22-4.05-11.8-5.9-9.7-3.22-21.77-7.23-23.39-16.39-1.56-8.85,6.35-18.29,13.33-26.62,4.44-5.3,8.64-10.3,8.33-13.14-.05-.43-.91-2.1-10.02-5.36-6.27-2.25-14.5-4.6-23.21-7.09-24.52-7.01-39.4-11.65-39.4-16.94,0-7.71,12.03-14.29,36.77-20.11l.14-.03h.15c16.69.73,32.29,2.79,47.37,4.79,21.43,2.84,41.66,5.52,62.52,4.03,57.17-4.08,100.47-24.99,132.37-63.91,1.04-1.27,2.74-1.65,4.22-.94,1.48.71,2.25,2.27,1.91,3.88-7.22,34.28-19.85,67.08-37.54,97.49-18.83,32.37-38.34,53.34-51.39,65.24l-.71-.78.71.78c-14.67,13.37-32.54,21.16-54.65,23.8-6.29.75-12.77,1.07-19.31,1.07ZM836.93,300.31c15.13,2.09,30.46,3.82,45.38,3.82,26.72,0,52.13-5.53,72.8-24.37,15.75-14.36,68.67-68.46,88.29-161.6.17-.79-.28-1.31-.76-1.54-.48-.23-1.17-.25-1.68.37-32.29,39.4-76.08,60.55-133.86,64.68-21.06,1.5-41.41-1.19-62.94-4.04-14.99-1.98-30.49-4.04-47.03-4.76-28.92,6.82-35,13.56-35,18.02,0,.75,1.12,2.92,11.54,6.77,7.26,2.68,16.96,5.45,26.33,8.14,21.25,6.08,34.29,10.02,34.75,14.26.4,3.73-3.67,8.58-8.82,14.72-6.35,7.58-14.26,17.01-12.87,24.9,1.4,7.92,12.81,11.71,21.98,14.76,6.99,2.32,12.51,4.16,13.2,7.48.58,2.8-2.01,5.81-5.01,9.3-2.39,2.77-5.06,5.87-6.3,9.11Z"/>
          </g>
        </g>
        <g>
          <ellipse class="cls-10" cx="483.37" cy="597.46" rx="89.97" ry="61.95" transform="translate(-223.4 899.23) rotate(-74.15)"/>
          <path class="cls-5" d="M507.94,510.91c-11.05-3.14-22.64-1.7-33.67,3.39,13.17-3.77,24.65-4.54,36.96.6,12.41,5.18,21.61,14.18,30.44,29.98-6.61-17.03-18.27-29.58-33.73-33.97Z"/>
          <ellipse cx="481.4" cy="604.4" rx="82.76" ry="61.95" transform="translate(-231.51 902.38) rotate(-74.15)"/>
          <ellipse class="cls-16" cx="480.54" cy="607.4" rx="79.63" ry="59.61" transform="translate(-235.03 903.75) rotate(-74.15)"/>
          <path class="cls-2" d="M527.4,548.33c10.15,30.49,3.95,74.72-21.75,100.14-29.74,29.42-61.55,23.65-79.25,5.82,6.73,14.68,17.92,25.6,32.4,29.71,31.67,8.99,67.08-18.01,79.09-60.32,8.18-28.81,3.4-57.28-10.49-75.36Z"/>
          <path d="M471.31,686.8c-4.33,0-8.62-.59-12.81-1.78-15.64-4.44-28.03-16.73-34.87-34.59-6.8-17.75-7.32-38.92-1.44-59.6,5.87-20.68,17.43-38.42,32.55-49.95,15.21-11.6,32.2-15.54,47.85-11.1,15.64,4.44,28.03,16.73,34.87,34.59,6.8,17.76,7.32,38.92,1.44,59.6-5.87,20.68-17.43,38.42-32.55,49.95-11.13,8.49-23.22,12.88-35.04,12.88ZM489.87,530.14c-27.53,0-55.34,24.96-65.65,61.27-11.83,41.68,3.81,82.76,34.86,91.58,31.06,8.82,65.96-17.91,77.79-59.59,5.75-20.24,5.26-40.94-1.38-58.27-6.6-17.23-18.49-29.06-33.48-33.31-4-1.14-8.07-1.68-12.14-1.68Z"/>
        </g>
        <g>
          <ellipse class="cls-13" cx="502.93" cy="613.76" rx="48.19" ry="33.78" transform="translate(-224.87 929.91) rotate(-74.15)"/>
          <path class="cls-23" d="M535.43,622.99c-7.27,25.6-27.71,42.23-45.66,37.13-17.95-5.1-26.6-29.98-19.33-55.59-1.52,44.78,41.24,51.98,64.98,18.45Z"/>
          <path d="M524.4,623.13c-4.8,16.92-18.31,27.9-30.16,24.53-11.86-3.37-17.57-19.81-12.77-36.72,4.8-16.92,18.31-27.9,30.16-24.53,11.86,3.37,17.57,19.81,12.77,36.72Z"/>
          <circle class="cls-16" cx="499.71" cy="591.02" r="7.76"/>
          <path class="cls-16" d="M508.26,640.38c0,1.83-1.48,3.31-3.31,3.31s-3.31-1.48-3.31-3.31,1.48-3.31,3.31-3.31,3.31,1.48,3.31,3.31Z"/>
          <path class="cls-14" d="M496.35,662.09c-2.31,0-4.61-.31-6.87-.95-18.48-5.25-27.47-30.77-20.06-56.89,7.42-26.12,28.48-43.11,46.96-37.86,18.48,5.25,27.47,30.77,20.06,56.89-6.51,22.92-23.53,38.81-40.09,38.81ZM509.47,567.54c-15.61,0-31.76,15.29-38.01,37.28-7.1,25,1.24,49.35,18.6,54.28,17.35,4.93,37.25-11.4,44.35-36.41,7.1-25-1.24-49.35-18.6-54.28-2.09-.59-4.21-.88-6.34-.88Z"/>
        </g>
        <g>
          <path class="cls-10" d="M352.95,593.08c0,43.65-24.23,79.03-54.12,79.03s-54.12-35.38-54.12-79.03,24.23-80.16,54.12-80.16,54.12,36.51,54.12,80.16Z"/>
          <path class="cls-5" d="M331.75,529.65c-9.12-10.45-20.53-16.73-32.92-16.73-9.23,0-17.91,3.48-25.51,9.57,9.96-5.4,19.43-8.56,29.74-7.11,9.13,1.29,18.09,5.21,28.69,14.26Z"/>
          <ellipse cx="298.83" cy="599.59" rx="54.12" ry="72.53"/>
          <ellipse class="cls-16" cx="298.83" cy="603.08" rx="52.64" ry="69.04"/>
          <path class="cls-2" d="M326.63,544.44c20.91,34.38,15.73,69.81,1.06,92.62-9.53,14.3-38.71,33.99-68.1,12.01,9.64,14.13,23.65,23.03,39.24,23.03,29.07,0,52.64-30.91,52.64-69.04,0-24.74-9.93-46.44-24.84-58.63Z"/>
          <path d="M298.83,673.17c-29.61,0-53.69-31.44-53.69-70.09s24.09-70.09,53.69-70.09,53.69,31.44,53.69,70.09-24.09,70.09-53.69,70.09ZM298.83,535.09c-28.44,0-51.58,30.5-51.58,67.98s23.14,67.98,51.58,67.98,51.58-30.5,51.58-67.98-23.14-67.98-51.58-67.98Z"/>
        </g>
        <g>
          <ellipse class="cls-13" cx="317.74" cy="613.76" rx="29.17" ry="41.35"/>
          <path class="cls-23" d="M346.9,613.76c0,22.83-13.06,41.35-29.17,41.35s-29.17-18.51-29.17-41.35c14.97,34.76,51.22,24.96,58.34,0Z"/>
          <ellipse cx="317.74" cy="617.56" rx="20.05" ry="28.42"/>
          <circle class="cls-16" cx="306.95" cy="597.46" r="7.61"/>
          <path class="cls-16" d="M330.87,638.56c0,2.28-1.85,4.12-4.12,4.12s-4.12-1.85-4.12-4.12,1.85-4.12,4.12-4.12,4.12,1.85,4.12,4.12Z"/>
          <path class="cls-14" d="M317.74,656.16c-16.67,0-30.22-19.02-30.22-42.4s13.56-42.4,30.22-42.4,30.22,19.02,30.22,42.4-13.56,42.4-30.22,42.4ZM317.74,573.47c-15.5,0-28.11,18.07-28.11,40.29s12.61,40.29,28.11,40.29,28.11-18.07,28.11-40.29-12.61-40.29-28.11-40.29Z"/>
        </g>
        <path class="cls-3" d="M336.1,663.5s-.76-5.58,1.56-11.64c3.76-9.82,10.55-23.52,20.83-29.84,9.34-5.75,19.05-7.33,27.57-4.94,11.93,3.1,14.05,12.19,14.05,12.19-8.98-9.41-24.99-8.09-38.01.24-16.26,10.41-25.93,33.69-26,33.99Z"/>
        <path class="cls-5" d="M336.1,663.5s-.76-5.58,1.56-11.64c3.76-9.82,10.55-23.52,20.83-29.84,9.34-5.75,19.05-7.33,27.57-4.94,11.93,3.1,14.05,12.19,14.05,12.19-9.66-12.51-25.56-14.65-40.52-5.45-15.89,9.78-23.42,39.38-23.49,39.68Z"/>
        <path class="cls-10" d="M656.18,662.94c.13-.43,5.69-41.47-12.22-58.54-15.87-15.12-39.21-14.05-53.43-7.29,0,0,4.03-6.34,16.38-9.44,3.58-.84,7.27-1.34,10.92-1.45,8.99-.28,22.03,1.64,33.06,12.37,8.63,8.39,12.62,22.32,11.54,40.27-.9,15.47-6.25,24.08-6.25,24.08Z"/>
        <path class="cls-5" d="M656.18,662.94c.13-.43,13.08-43.53-6.76-62.83-18.54-18.04-45.6-12.61-58.89-3,0,0,4.03-6.34,16.38-9.44,3.58-.84,7.27-1.34,10.92-1.45,8.99-.28,22.03,1.64,33.06,12.37,8.63,8.39,12.62,22.32,11.54,40.27-.9,15.47-6.25,24.08-6.25,24.08Z"/>
        <path class="cls-5" d="M440.95,886.43l-.2-2.1c68.77-6.66,118.63-51.4,148.35-87.75,38.75-47.4,54.54-89.67,64.87-124.76,0,0,0,10.96-9.88,35.78-10.69,27.22-26.57,57.54-53.36,90.32-29.97,36.66-80.29,81.78-149.78,88.51Z"/>
        <g>
          <g>
            <path class="cls-6" d="M251.83,682.81c25.9,24.35,79.57,54.96,170.08,51.84,99.04-3.42,165.94-65.87,196.34-105.14-4.43,55.1-39.18,132.3-87.45,176.04-46.45,42.08-94.02,53.77-127.94,45.71-33.75-8.02-46.03-32.2-55.95-53.73-9.92-21.53-36.31-54.13-50.88-67.28-13.82-12.47-38.74-37.97-44.2-47.43Z"/>
            <path class="cls-5" d="M424.01,854.7c-7.44,0-14.62-.8-21.4-2.41-15.36-3.65-27.62-10.89-37.46-22.13-8.51-9.72-14.16-21.23-19.2-32.19-10.23-22.2-36.82-54.47-50.63-66.94-14.04-12.67-38.91-38.16-44.4-47.69l-3.57-6.19,5.2,4.89c20.99,19.73,68.62,51.77,156.45,51.77,4.2,0,8.48-.07,12.87-.22,106.14-3.66,172.11-74.46,195.54-104.73l2.17-2.8-.28,3.54c-2.24,27.78-11.96,60.69-27.39,92.65-16.23,33.63-37.68,63.49-60.4,84.08-22.12,20.04-45.35,34.13-69.05,41.88-13.19,4.31-26.18,6.49-38.45,6.49ZM258.31,689.9c9.59,11.66,27.37,29.59,38.41,39.56,13.94,12.59,40.8,45.19,51.13,67.62,8.74,18.97,20.71,44.94,55.23,53.15,38.11,9.05,85.58-7.94,126.99-45.46,49.96-45.27,81.56-121.3,86.78-171.79-12.2,15.29-35.99,41.48-70.48,63.44-38.56,24.55-80.43,37.77-124.44,39.29-40.72,1.4-77.62-3.87-109.67-15.68-24.71-9.1-42.28-20.55-53.96-30.12Z"/>
          </g>
          <g>
            <path class="cls-7" d="M298.83,722.36c21.68,11.4,70.47,27.82,142.87,20.69,87.13-8.59,147.37-64.6,168.48-94.59-12.67,43.49-28.5,83.85-62.7,125.94-31,38.14-76.91,65.51-118.58,68.44-34.06,2.39-52.78-11.54-63.9-29.28-10.54-16.8-13.09-29.24-33.29-56.37-15.48-20.8-32.87-34.84-32.87-34.84Z"/>
            <path class="cls-17" d="M547.47,774.41c5.59-6.88,10.69-13.72,15.37-20.53-3.16-17.48-15.42-31.89-31.8-38.37-19.22,10.33-41.28,18.99-65.86,24-3.68,6.99-5.76,14.93-5.76,23.34,0,26.1,20,47.62,45.81,50.67,15.6-10.83,30.07-24.14,42.24-39.11Z"/>
            <g>
              <g>
                <path class="cls-15" d="M430.3,784.34c-20.18-17.51-58.91-11.75-74.74,11.98,2.9,5.78,5.66,11.24,9.43,17.26,11.12,17.73,29.84,31.67,63.9,29.28,36.41-2.56,76.04-23.77,106.15-54.52-27.72-25.18-77.45-27.11-104.74-3.99Z"/>
                <path class="cls-20" d="M535.04,788.33c-27.72-25.18-77.45-27.11-104.74-3.99-20.18-17.51-58.91-11.75-74.74,11.98,2.9,5.78,5.66,11.24,9.43,17.26.42.68.86,1.34,1.31,2.01-1.81-12.88,4.83-24.83,18.78-29.88,20.02-7.25,35.69,2.04,35.81,14.29,6.74-7.63,19.48-16.43,39.96-19.21,22.24-3.02,45.55,2.81,53.17,26.3,7.38-5.73,14.43-12.01,21.03-18.74Z"/>
                <path class="cls-22" d="M421.52,844.17c-12.87,0-24.17-2.5-33.68-7.47-9.48-4.96-17.48-12.55-23.75-22.56-3.83-6.1-6.57-11.56-9.48-17.34l-.28-.55.34-.51c7.81-11.7,21.91-19.96,37.71-22.09,14.6-1.97,28.35,1.43,37.91,9.32,13.18-10.81,32.16-16.56,52.25-15.79,20.41.78,39.8,8.21,53.2,20.38l.81.74-.77.78c-31.16,31.82-71.09,52.32-106.83,54.83-2.53.18-5.02.27-7.44.27ZM356.78,796.39c2.78,5.53,5.45,10.79,9.1,16.62,13.42,21.4,34,30.82,62.93,28.78,34.94-2.45,74-22.4,104.69-53.42-27.44-24.09-75.99-25.72-102.53-3.24l-.69.59-.68-.59c-9.12-7.91-22.58-11.34-36.93-9.41-14.99,2.02-28.35,9.73-35.9,20.67Z"/>
              </g>
              <path class="cls-22" d="M420.89,797.01s2.9-7.75,8.67-13.42l1.48,1.51c-5.63,5.53-10.11,11.86-10.15,11.92Z"/>
            </g>
            <g>
              <g>
                <path class="cls-4" d="M431.42,767.4c9.33-1.55,15.03-16.25,17.67-25.2-2.44.32-4.91.61-7.4.85-8.78.86-17.2,1.38-25.28,1.6,1.15,8.04,4.76,24.45,15,22.75Z"/>
                <path class="cls-19" d="M449.09,742.2c-2.44.32-4.91.61-7.4.85-1.93.19-3.85.36-5.75.52,1.3,8.19-.92,18.48-3.33,23.55,8.62-2.55,13.95-16.35,16.47-24.92Z"/>
                <path class="cls-21" d="M429.97,768.58c-1.93,0-3.73-.6-5.37-1.8-5.91-4.33-8.31-15.62-9.22-21.97l-.17-1.17,1.18-.03c8.28-.23,16.76-.77,25.2-1.6,2.38-.23,4.79-.51,7.36-.85l1.61-.21-.46,1.56c-2.65,8.98-8.57,24.29-18.51,25.95h0c-.55.09-1.1.14-1.63.14ZM417.64,745.68c.97,6.15,3.24,15.77,8.2,19.4,1.64,1.2,3.41,1.62,5.41,1.29,8.29-1.38,13.67-14.3,16.36-22.91-2,.25-3.91.46-5.81.65-8.09.8-16.21,1.33-24.16,1.57Z"/>
              </g>
              <g>
                <path class="cls-4" d="M509.68,748.69c7.51-2.04,10.61-19.87,11.65-28.23-9.71,4.69-20.08,8.91-31.05,12.45,4.08,6.48,12.32,17.7,19.4,15.78Z"/>
                <path class="cls-19" d="M521.33,720.46c-3.85,1.86-7.8,3.64-11.84,5.33,3.05,7.06,1.95,14.81,1.31,22.45,6.7-3.41,9.54-19.86,10.53-27.78Z"/>
                <path class="cls-21" d="M508.05,749.96c-7.14,0-14.64-10.1-18.66-16.49l-.72-1.15,1.29-.42c10.48-3.38,20.88-7.55,30.91-12.4l1.75-.84-.24,1.93c-1.25,9.95-4.52,26.97-12.42,29.12h0c-.63.17-1.27.25-1.9.25ZM491.91,733.49c3.67,5.61,11.33,15.86,17.49,14.18,4.64-1.26,8.57-10.71,10.63-25.42-9.16,4.33-18.6,8.11-28.12,11.24Z"/>
              </g>
              <g>
                <path class="cls-4" d="M394.27,804.56c-8.91-1.09-16.81,13.93-19.95,20.83,8.35,8.38,19.57,14.7,34.93,16.89-1.38-10.42-5.75-36.59-14.98-37.72Z"/>
                <path class="cls-19" d="M395.36,804.82c3.55,8.4,2.14,20.58-.65,33.78,4.38,1.66,9.21,2.92,14.53,3.67-1.32-10-5.4-34.49-13.88-37.46Z"/>
                <path class="cls-21" d="M410.48,843.52l-1.38-.2c-14.23-2.02-26.18-7.8-35.53-17.19l-.52-.52.3-.66c3.86-8.5,11.74-22.57,21.04-21.44h0c9.54,1.16,14.06,24.7,15.9,38.63l.18,1.38ZM375.58,825.17c8.64,8.45,19.54,13.78,32.43,15.86-2.35-16.84-7.17-34.6-13.87-35.42h0c-7.98-.97-15.43,12.84-18.56,19.56Z"/>
              </g>
              <g>
                <path class="cls-4" d="M363.58,768.81c8.42.42,17.46-16.31,21.5-24.78-11.81-.82-22.61-2.27-32.38-4.1.37,9.1,2.16,28.44,10.89,28.88Z"/>
                <path class="cls-19" d="M385.08,744.03c-4.21-.29-8.3-.67-12.26-1.11-.58,7.1-3.01,19.97-8.7,25.89,8.26-.3,17.01-16.49,20.95-24.78Z"/>
                <path class="cls-21" d="M363.89,769.88c-.12,0-.24,0-.36,0h0c-9.31-.47-11.45-18.93-11.89-29.89l-.05-1.32,1.3.24c10.33,1.94,21.19,3.31,32.26,4.08l1.55.11-.67,1.4c-4.54,9.54-13.4,25.39-22.14,25.39ZM363.64,767.76c7.47.38,15.91-14.83,19.82-22.78-10.15-.76-20.11-2.02-29.64-3.76.83,16.38,4.47,26.28,9.82,26.54h0Z"/>
              </g>
              <g>
                <path class="cls-4" d="M565.14,715.89c5.36-1.99,2.46-15.04.28-22.56-6.3,4.81-13.12,9.56-20.44,14.1,4.95,3.84,14.66,10.49,20.15,8.45Z"/>
                <path class="cls-19" d="M565.42,693.33c-2.28,1.74-4.63,3.47-7.04,5.19,4.12,4.93,6.36,10.62,7.89,16.68,3.77-3.36,1.15-14.95-.85-21.87Z"/>
                <path class="cls-21" d="M562.83,717.33c-5.54,0-12.9-4.72-18.49-9.05l-1.2-.93,1.29-.8c6.97-4.33,13.81-9.06,20.35-14.05l1.23-.94.43,1.48c2.8,9.68,4.92,21.67-.93,23.84h0c-.83.31-1.73.45-2.68.45ZM546.84,707.52c7.99,5.97,14.48,8.66,17.93,7.38h0c3.14-1.16,3.14-8.52.05-19.79-5.81,4.38-11.85,8.54-17.99,12.41Z"/>
              </g>
              <g>
                <path class="cls-4" d="M545.15,739.25c-6.34,4.7-1.24,24.84,2.02,35.52.1-.12.2-.24.3-.37,8.72-10.73,16.24-21.35,22.83-31.93-6.15-2.97-18.71-7.99-25.15-3.22Z"/>
                <path class="cls-19" d="M547.34,738.08c7.5,2.58,11.57,9.78,14.69,16.98,2.91-4.2,5.67-8.39,8.27-12.58-5.51-2.66-16.17-6.97-22.96-4.4Z"/>
                <path class="cls-21" d="M546.74,776.97l-.58-1.89c-4.31-14.09-8.09-31.89-1.64-36.68h0c6.78-5.03,19.35-.21,26.24,3.12l1.06.51-.62,1c-6.88,11.06-14.37,21.54-22.91,32.04l-1.55,1.89ZM552.16,738.34c-2.44,0-4.67.49-6.38,1.76h0c-3.99,2.96-3.3,15.03,1.83,32.46,7.83-9.72,14.77-19.44,21.17-29.64-4.01-1.85-10.89-4.58-16.62-4.58Z"/>
              </g>
              <g>
                <path class="cls-4" d="M480.54,793.87c-10.09,3.18-10.22,28.82-9.89,38.67,13.29-5.49,26.37-12.94,38.66-21.92-4.85-5.56-18.62-19.94-28.77-16.75Z"/>
                <path class="cls-19" d="M481.84,793.56c8.15,6.58,11.37,16.21,11.54,27.57,5.42-3.21,10.75-6.72,15.93-10.51-4.64-5.32-17.47-18.74-27.47-17.06Z"/>
                <path class="cls-21" d="M469.64,834.09l-.05-1.52c-.16-4.7-.23-13.82,1.05-22.04,1.59-10.23,4.82-16.18,9.58-17.68h0c10.63-3.34,24.44,10.82,29.88,17.06l.76.87-.93.68c-12.49,9.13-25.57,16.55-38.88,22.05l-1.41.58ZM480.86,794.87c-9.02,2.84-9.41,26.64-9.2,36.09,12.33-5.23,24.46-12.13,36.09-20.53-4.81-5.36-17.73-18.45-26.89-15.57h0Z"/>
              </g>
            </g>
            <path class="cls-5" d="M421.52,844.17c-12.87,0-24.17-2.5-33.68-7.47-9.48-4.96-17.48-12.55-23.75-22.56-3.83-6.1-6.6-11.62-9.54-17.46-5.08-10.11-10.85-21.57-23.7-38.84-15.22-20.45-32.51-34.51-32.69-34.65l1.15-1.76c13,6.83,61.67,28.52,142.27,20.57,86.03-8.48,145.91-63.17,167.72-94.14l3.65-5.18-1.77,6.08c-11.53,39.6-27.13,82.3-62.9,126.31-15.45,19.01-34.66,35.49-55.57,47.67-21.3,12.41-43.35,19.72-63.75,21.16-2.53.18-5.02.27-7.44.27ZM305.43,726.74c6.47,5.93,17.23,16.55,27.12,29.83,12.97,17.42,18.77,28.97,23.9,39.16,2.91,5.79,5.67,11.27,9.44,17.29,13.42,21.4,34,30.82,62.93,28.78,40.29-2.83,86.54-29.54,117.84-68.05,33.82-41.62,49.51-82.11,60.83-119.88-8.07,10.39-26.32,31.12-56.21,50.8-15.57,10.25-32.09,18.73-49.09,25.19-19.56,7.43-39.88,12.23-60.38,14.25-32.17,3.17-62.71,2.02-90.76-3.41-20.81-4.03-36.03-9.65-45.62-13.96Z"/>
          </g>
          <path class="cls-5" d="M298.32,723.29c-20.96-11.62-42.17-32.77-42.38-32.98l1.49-1.49c.21.21,21.21,21.15,41.91,32.62l-1.02,1.85Z"/>
        </g>
      </g>
    </g>
  </g>
</svg>