<?xml version="1.0" encoding="UTF-8"?>
<svg id="Livello_2" data-name="Livello 2" xmlns="http://www.w3.org/2000/svg" viewBox="0 0 1121.96 1414.7">
  <defs>
    <style>
      .cls-1 {
        fill: #dfdfdf;
      }

      .cls-2 {
        fill: #fffcf5;
      }

      .cls-3 {
        fill: #700000;
      }

      .cls-4 {
        fill: #d88bb9;
      }

      .cls-5 {
        fill: #ffd2e9;
      }

      .cls-6 {
        fill: #eaa9cd;
      }

      .cls-7 {
        fill: #2e90f9;
      }

      .cls-8 {
        fill: #0c243e;
      }

      .cls-9 {
        fill: #ffc5c5;
      }

      .cls-10 {
        fill: #fff;
      }

      .cls-11 {
        fill: #f19cc3;
      }

      .cls-12 {
        fill: #4c0000;
      }

      .cls-13 {
        fill: #ffcce6;
      }

      .cls-14 {
        fill: #e5ddcc;
      }

      .cls-15 {
        fill: #f2adad;
      }

      .cls-16 {
        fill: #d376a5;
      }

      .cls-17 {
        fill: #a89d88;
      }

      .cls-18 {
        fill: #c47070;
      }

      .cls-19 {
        fill: #68effd;
      }

      .cls-20 {
        fill: #994272;
      }

      .cls-21 {
        fill: #b55d8d;
      }
    </style>
  </defs>
  <g id="Layer_1" data-name="Layer 1">
    <g>
      <g>
        <path class="cls-11" d="M92.49,740.29c-8.92,30.44-10.53,74.98,6.83,104.13,19.25,32.33,70.38,46.27,129.1,15.94,51.72-64.94,113.94-185.49,113.94-185.49-31.11,17.11-63.9,45.11-99.81,71.36-35.91,26.25-55.74,41.41-77.9,35.58-13.2-3.48-26.05-25.66-21.78-59.11-23.33,13.22-50.38,17.59-50.38,17.59Z"/>
        <path class="cls-13" d="M161.34,791.38c25.28,10.24,50.62-9.38,86.52-35.63,28.25-20.65,60.86-47.83,85.02-60.98,5.35-9.98,9.47-19.91,9.47-19.91-31.11,17.11-63.9,45.11-99.81,71.36-35.91,26.25-55.74,41.41-77.9,35.58-13.21-3.48-26.05-25.66-21.78-59.11-9.07,33.05-2.24,60.29,18.47,68.68Z"/>
        <path class="cls-16" d="M99.32,844.42c19.25,32.33,70.38,46.27,129.1,15.94,18.11-22.74,37.51-52.3,55.07-81.11-9.71,9.1-31.93,38.33-74.51,59.72-32.96,16.55-76.61,22.94-99.22-1.14-21.15-22.52-20.14-77.09-17.82-95.58-8.42,30.36-9.6,73.63,7.38,102.16Z"/>
        <path class="cls-20" d="M165.31,878.17c-5.59,0-11.06-.44-16.4-1.32-22.48-3.73-40.39-15.07-50.43-31.93-17.44-29.29-16.04-73.79-6.92-104.9l.17-.59.61-.1c.27-.04,27.15-4.49,50.05-17.47l1.69-.96-.25,1.93c-2.46,19.25.96,32.53,4.26,40.29,4.07,9.55,10.19,16.02,16.8,17.76,21.08,5.55,39.88-8.21,74.01-33.18l3.08-2.25c10.8-7.89,21.37-15.99,31.59-23.81,23.92-18.31,46.51-35.61,68.32-47.61l2.8-1.54-1.46,2.84c-.62,1.21-62.85,121.38-114.04,185.65l-.13.16-.18.1c-21.69,11.2-43.35,16.95-63.56,16.95ZM93.25,741.14c-8.85,30.67-10.14,74.17,6.9,102.78,18.45,30.98,68.2,46.29,127.64,15.67,46.61-58.59,102.39-163.57,112.2-182.28-20.81,11.84-42.42,28.39-65.24,45.86-10.23,7.83-20.81,15.94-31.63,23.84l-3.08,2.25c-16.97,12.42-30.38,22.23-42.22,28.2-12.7,6.4-23.01,8.03-33.43,5.29-14.08-3.71-26.22-26.41-22.72-58.27-20.88,11.38-44.37,15.94-48.42,16.67Z"/>
      </g>
      <g>
        <path class="cls-11" d="M99.7,746.23c-23.53,0-38.11-11.6-50.03-28.19-11.93-16.59-19.18-30.85-28.26-46.92-9.07-16.07-15.55-25.15-18.92-36.81-3.37-11.67-1.51-21.88,9.33-22.62,12.31-.84,20.8,16.53,27.41,26.25,6.61,9.72,14.97,26.83,20.22,21.58s-5.06-28-10.5-42.97c-5.44-14.97-11.37-41.4,2.92-44.72,16.72-3.89,24.11,15.55,28.19,33.64,4.08,18.08,11.08,42.58,15.55,39.66,4.47-2.92,2.14-31.69,2.33-49.19.19-17.5,1.27-35.15,16.53-36.29,15.55-1.17,19.05,15.49,17.89,43.49-1.17,28-3.8,49.65,6.22,54.64,14.84,7.39,25.86-2.72,41.03-10.5,15.17-7.78,42.19-6.61,44.14,9.53,2.32,19.23-17.89,25.66-31.11,31.5-13.22,5.83-26.44,15.36-35.97,25.86-9.53,10.5-23.33,32.08-56.97,32.08Z"/>
        <g>
          <path class="cls-16" d="M124.36,580.74c1.28,12.4-1.07,28.8-.68,44.35.39,15.55-1.15,31.8,14.91,32.66-10.02-4.99-7.39-26.64-6.22-54.64,1.17-28-2.33-44.65-17.89-43.49-4.87.36-8.29,2.41-10.7,5.59,12.06-6.62,19.22,2.29,20.58,15.51Z"/>
          <path class="cls-16" d="M26.08,630.54c7.16,11.64,16.31,25.08,20.48,28.39,5.31,4.21,9.2,3.69,11.39,2.48-.2-.3-.4-.61-.6-.92-5.21.11-12.33-14.05-18.12-22.56-6.61-9.72-15.1-27.09-27.41-26.25-5.76.39-8.98,3.46-10.24,8,7.64-10.52,18.16.56,24.5,10.86Z"/>
          <path class="cls-16" d="M223.75,656.79c-.91-7.59-7.38-11.87-15.55-13.46,12.49,7.98,9.26,20.2-.78,26.29-10.89,6.61-28.19,9.53-41.41,20.42-13.22,10.89-20.39,20.54-31.69,31.21-14.09,13.29-24.4,17.11-42.77,16.82-17.71-.28-28.42-6.33-41.25-19.19,11.81,16.14,26.29,27.35,49.42,27.35,33.64,0,47.44-21.58,56.97-32.08,9.53-10.5,22.75-20.03,35.97-25.86,13.22-5.83,33.43-12.27,31.11-31.5Z"/>
          <path class="cls-16" d="M68.3,591.36c5.97,15.5,10.65,35.68,13.77,43.71,3.87,9.98,7.92,13.7,12.71,11.26-.03-.33-.07-.66-.1-.99-4.47-.58-10.81-23.02-14.62-39.89-4.08-18.08-11.47-37.53-28.19-33.64-4.13.96-6.56,3.85-7.82,7.83,6.84-10.45,18.22-3.94,24.24,11.71Z"/>
        </g>
        <path class="cls-20" d="M99.7,747.2c-20.93,0-36.61-8.82-50.82-28.6-9.65-13.43-16.24-25.3-23.21-37.87-1.65-2.97-3.35-6.04-5.1-9.14-2.24-3.97-4.37-7.58-6.24-10.77-5.92-10.07-10.2-17.35-12.77-26.25-2.35-8.13-2.03-14.91.9-19.1,2.01-2.88,5.14-4.48,9.3-4.76,10.9-.74,18.69,11.59,24.95,21.5,1.17,1.86,2.28,3.61,3.34,5.17,1.39,2.04,2.82,4.36,4.34,6.8,4.12,6.65,9.24,14.92,12.68,15.32.63.07,1.18-.14,1.71-.68,3.89-3.89-2.71-21.01-7.53-33.51-1.15-2.99-2.24-5.81-3.19-8.44-4.97-13.67-8.56-31.44-3.73-40.34,1.62-3,4.1-4.9,7.34-5.65,4.77-1.11,9.12-.46,12.94,1.94,7.23,4.53,12.45,14.84,16.42,32.43,4.99,22.1,10.47,37.81,13.63,39.09.2.08.31.05.44-.03.66-.43,1.82-2.43,2.19-11.02.27-6.15.09-14-.09-21.59-.13-5.7-.26-11.09-.21-15.78.1-8.59.38-17.57,2.66-24.57,2.61-7.98,7.43-12.13,14.76-12.68,4.74-.36,8.63.9,11.56,3.73,6.03,5.83,8.31,18.41,7.37,40.77-.15,3.67-.33,7.23-.5,10.67-1.09,21.79-1.95,39.01,6.19,43.06,11.51,5.73,20.44.62,31.73-5.85,2.69-1.54,5.47-3.13,8.41-4.64,11.31-5.8,27.59-6.39,37.07-1.35,4.94,2.63,7.87,6.65,8.47,11.63.97,8.08-1.74,14.7-8.28,20.23-5.55,4.69-12.94,7.82-19.46,10.59-1.38.59-2.68,1.14-3.94,1.69-13.13,5.79-26.12,15.13-35.64,25.62-1.12,1.23-2.31,2.64-3.58,4.13-9.56,11.26-24.02,28.27-54.11,28.27ZM12.68,612.63c-.26,0-.52,0-.79.03-3.54.24-6.18,1.57-7.84,3.94-2.59,3.7-2.81,9.89-.63,17.44,2.5,8.66,6.73,15.85,12.58,25.8,1.88,3.2,4.01,6.82,6.26,10.8,1.76,3.11,3.46,6.18,5.11,9.15,6.94,12.52,13.5,24.34,23.09,37.68,13.81,19.22,29,27.79,49.24,27.79,29.2,0,43.3-16.6,52.63-27.59,1.27-1.5,2.48-2.92,3.62-4.17,9.7-10.68,22.93-20.2,36.3-26.1,1.27-.56,2.58-1.11,3.96-1.7,12.73-5.4,28.58-12.12,26.57-28.79-.53-4.38-3.04-7.79-7.45-10.14-8.83-4.69-24.65-4.08-35.27,1.36-2.91,1.49-5.67,3.07-8.34,4.6-11.34,6.49-21.12,12.1-33.57,5.9-9.28-4.62-8.43-21.51-7.26-44.9.17-3.43.35-6.98.5-10.65.91-21.76-1.19-33.88-6.78-39.29-2.54-2.46-5.83-3.5-10.06-3.19-14.08,1.06-15.43,17.32-15.63,35.34-.05,4.66.07,10.03.21,15.72.47,19.81.5,32.01-2.98,34.28-.69.45-1.46.52-2.24.2-5.62-2.28-12.22-29.06-14.8-40.47-3.8-16.82-8.89-27.03-15.55-31.21-3.41-2.14-7.17-2.69-11.47-1.69-2.72.63-4.71,2.17-6.08,4.69-4.52,8.34-.97,25.48,3.85,38.75.95,2.61,2.03,5.42,3.18,8.4,5.84,15.15,11.87,30.81,7.09,35.59-.96.96-2.08,1.38-3.31,1.24-4.37-.51-9.1-8.14-14.11-16.22-1.51-2.43-2.93-4.73-4.29-6.74-1.08-1.58-2.19-3.35-3.37-5.22-5.82-9.22-13.02-20.63-22.38-20.63Z"/>
      </g>
      <g>
        <path class="cls-5" d="M226.09,852.19c-14,17.42-68.28,45.5-76.72,69.22-8.44,23.72.11,42-3.78,56s-28,51.33-30.33,65.33c-2.33,14,9.72,36.55,9.33,51.33-.39,14.78-15.94,49-14.78,74.66,1.17,25.67,18.28,34.61,22.17,43.94,3.89,9.33-3.89,46.27,7.39,65.72,11.28,19.44,33.44,24.5,43.16,36.94,9.72,12.44,16.33,35.39,47.05,48.61,30.72,13.22,97.99,25.66,125.6,22.17-78.16-29.94-136.1-67.66-162.16-116.66-26.05-49-36.92-153.11-28.78-200.46,17.11-99.49,61.83-216.8,61.83-216.8Z"/>
        <path class="cls-6" d="M193.03,1269.45c-10.07-18.93-17.87-46.1-23.18-75.04-12.21,64.54-33.6,57.73-36.79,37.74-.34,14.85-.79,34.01,6.31,46.25,11.28,19.44,33.44,24.5,43.16,36.94,9.72,12.44,16.33,35.39,47.05,48.61,30.72,13.22,97.99,25.66,125.6,22.17-78.16-29.94-136.1-67.66-162.16-116.66Z"/>
        <path class="cls-20" d="M344.27,1387.66c-31.16,0-86.78-10.65-115.07-22.83-23.66-10.18-33.1-25.91-40.69-38.55-2.29-3.82-4.46-7.43-6.75-10.36-3.95-5.06-10.16-8.95-16.73-13.08-9.29-5.83-19.82-12.44-26.51-23.98-7.22-12.45-6.79-31.44-6.44-46.69.19-8.51.36-15.86-1-19.14-1.14-2.73-3.56-5.53-6.35-8.76-6.36-7.35-15.06-17.42-15.89-35.51-.71-15.51,4.71-34.39,9.07-49.56,2.98-10.39,5.56-19.36,5.71-25.18.18-6.66-2.32-15.22-4.73-23.5-2.89-9.93-5.88-20.2-4.59-27.96,1.3-7.79,9.04-22.35,16.53-36.44,6.21-11.69,12.08-22.73,13.82-28.99,1.55-5.58,1.06-11.86.5-19.13-.82-10.66-1.76-22.74,3.29-36.93,5.24-14.73,27.59-30.94,47.3-45.24,12.44-9.02,24.18-17.55,29.58-24.26l3.86-4.81-2.2,5.76c-.45,1.17-44.88,118.36-61.78,216.61-8.36,48.6,3.47,152.43,28.68,199.83,24.39,45.87,77.27,83.88,161.65,116.21l3.62,1.39-3.84.49c-3.16.4-6.89.59-11.04.59ZM223.43,856.53c-6.26,6.17-16.16,13.36-26.54,20.89-19.49,14.14-41.57,30.16-46.61,44.32-4.91,13.8-3.99,25.66-3.19,36.13.58,7.46,1.07,13.9-.57,19.8-1.8,6.47-7.71,17.6-13.98,29.38-7.42,13.95-15.08,28.37-16.33,35.85-1.22,7.33,1.71,17.38,4.54,27.1,2.45,8.42,4.99,17.13,4.81,24.1-.16,6.06-2.77,15.15-5.78,25.66-4.31,15.03-9.68,33.74-8.99,48.93.79,17.41,8.9,26.79,15.41,34.32,2.91,3.36,5.42,6.27,6.68,9.29,1.52,3.66,1.36,10.84,1.15,19.93-.34,15.01-.77,33.7,6.18,45.68,6.45,11.12,16.76,17.59,25.86,23.31,6.72,4.22,13.06,8.2,17.23,13.53,2.36,3.02,4.56,6.68,6.88,10.55,7.44,12.4,16.7,27.83,39.79,37.76,28.09,12.09,83.3,22.68,114.18,22.68,2.44,0,4.72-.07,6.83-.2-38.8-15.12-71.4-31.87-96.97-49.81-28.4-19.92-49.21-42.07-61.84-65.81-12.08-22.72-21.78-58.65-27.32-101.18-5.05-38.84-5.64-76.18-1.56-99.9,15.01-87.29,51.7-189.44,60.13-212.3Z"/>
      </g>
      <g>
        <g>
          <path class="cls-11" d="M334.74,577.12c25.3,9.92,33.71,30.91,21.46,64.74-12.25,33.83-81.51,105.39-132.06,203.34-62.22,120.55-82.35,237.87-72.33,330.92,10.74,99.75,62.17,174.05,170.56,204.74,129.1,36.55,285.97,28.58,415.85,13.02,129.88-15.55,197.54-60.66,233.32-101.1,35.78-40.44,65.33-92.74,93.33-104.99,28-12.25,52.49.58,55.95-15.7,3.15-14.83-35.73-45.35-76.95-37.19-43.86,8.69-42.37,44.47-79.7,68.96-37.33,24.5-79.48,18.4-108.11-14.9-31.36-36.47-51.33-87.49-51.33-87.49,5.25-56.58,2.33-172.06-51.33-342.96-44.98-143.26-111.46-267.52-197.95-370.75-70-83.54-124.83-120.81-157.58-136.56-22.36,34.61-63.13,325.92-63.13,325.92Z"/>
          <path class="cls-13" d="M555.45,418.43c35,39.84,75.86,106.44,112.04,173.37,36.18,66.93,60.23,143.91,79.47,210.12,19.25,66.21,33.64,117.99,39.76,175.87,6.12,57.88,14.49,125,.72,205.06,7.35-25.66,13.77-59.23,13.77-59.23,7.09,16.59,27.07,50.02,37.81,63.43,12.82,16.01,22.38,28.44,52.94,36.7,24.74,6.69,48.85,2.91,68.87-7.44,17.99-9.3,29.55-21.53,38.89-35.53s17.62-30.74,39.47-38.67c15.98-5.8,42.36-4.16,71.05,10.86-13.95-12.4-39.67-23.36-66.38-18.07-43.86,8.69-42.37,44.47-79.7,68.96-37.33,24.5-79.48,18.4-108.11-14.9-31.36-36.47-51.33-87.49-51.33-87.49,5.25-56.58,2.33-172.06-51.33-342.96-44.98-143.26-111.46-267.52-197.95-370.75-60.11-71.74-109.03-109.35-142.4-128.53v25.03c88.55,59.89,107.4,94.33,142.4,134.18Z"/>
          <path class="cls-16" d="M472.24,520.47c29.96-40.97,35.78-104.44,23-140.88,0,0-97.84,80.77-149.76,125-6.5,42.22-10.74,72.52-10.74,72.52,23.86,9.36,32.7,28.57,23.34,59.12,33.46-52.8,71.77-57.8,114.16-115.77Z"/>
          <path class="cls-16" d="M738.22,1393.88c129.88-15.55,197.54-60.66,233.32-101.1,35.78-40.44,65.33-92.74,93.33-104.99,28-12.25,52.49.58,55.95-15.7.58-2.74-.27-6.02-2.31-9.49-6.44,7.19-26.91,3.43-43.27,3.93-17.53.53-34.98,9.79-51.85,28-30.85,33.31-39.71,64.42-99.26,102.92-75.13,48.57-360.89,77.77-427.77-128.9l-69.3-87.94-9.7,84.39s-4.69,103.26-.78,138.9c2.4,21.88,35.56,66.79,63.51,101.44,87.75,4.83,178.07-1.87,258.13-11.46Z"/>
          <path class="cls-5" d="M533.15,1345.06c15.32,7.04,31.22,12.78,47.39,17.43-5.19-9.56-9.79-19.07-8.26-20.25,3.17-2.46-17.17-34.87-29.42-57.23-12.25-22.35-36.75-8.56-51.33-35.97-14.58-27.41,8.17-53.08,4.83-80.49-3.33-27.41-20.5-23.59-18.41-49.1,2.09-25.51,33.41-13.89,38.08-90.89,1.69-27.87-8.4-70.52-29.84-107.07-20.07,49.19-47.56,98.72-59.98,168.9-17.89,101.1-14.15,199.04,106.95,254.67Z"/>
          <path class="cls-6" d="M572.27,1342.24c3.17-2.46-17.17-34.87-29.42-57.23-12.25-22.35-36.75-8.56-51.33-35.97-14.58-27.41,8.17-53.08,4.83-80.49-3.33-27.41-20.5-23.59-18.41-49.1,2.09-25.51,33.41-13.89,38.08-90.89,1.69-27.87-8.4-70.52-29.84-107.07-7.97,19.53-17.11,39.11-26,60.02,15.48-.03,27.85.4,27.85.4,8.7,32.03,10.74,66.08-.23,86.11-13.45,24.56-32.21,23.61-33.96,47.7s20.64,39.88,23.33,62.22c3.63,30.07-5.97,46.35-21.26,48.22-10.63,1.3-27.48-4.41-37.09-40.8,3.95,64.58,32.05,121.91,114.33,159.71,15.32,7.04,31.22,12.78,47.39,17.43-5.19-9.56-9.79-19.07-8.26-20.25Z"/>
          <path class="cls-20" d="M787.45,1182.86c.12-.43,12.08-43.53,16.32-81.49l1.93.22c-4.26,38.12-18.25,81.28-18.25,81.28Z"/>
          <path class="cls-21" d="M601.13,481.28c3.96,5.78,3.99,12.64.07,15.32-3.92,2.68-10.3.16-14.25-5.62-3.96-5.78-3.99-12.64-.07-15.32,3.92-2.68,10.3-.16,14.25,5.62Z"/>
          <ellipse class="cls-21" cx="695.44" cy="681.48" rx="21.39" ry="28.39" transform="translate(-164.78 225.33) rotate(-16.48)"/>
          <ellipse class="cls-21" cx="714.47" cy="759.52" rx="14.19" ry="19.05" transform="translate(-196.44 251.99) rotate(-17.63)"/>
          <path class="cls-21" d="M763.61,795.15c3.28,9.32.19,18.9-6.91,21.4-7.1,2.5-15.51-3.02-18.8-12.34-3.28-9.32-.19-18.9,6.91-21.4,7.1-2.5,15.51,3.02,18.8,12.34Z"/>
          <ellipse class="cls-21" cx="732.4" cy="858.92" rx="17.01" ry="25.81" transform="translate(-205.77 231.24) rotate(-15.76)"/>
          <ellipse class="cls-21" cx="771.27" cy="916.1" rx="14.97" ry="21.78" transform="translate(-197.89 212.66) rotate(-13.93)"/>
          <path class="cls-21" d="M758.25,972.88c1.47,7.7-2.05,14.84-7.85,15.94-5.8,1.1-11.69-4.24-13.16-11.94-1.47-7.7,2.05-14.84,7.85-15.94,5.8-1.1,11.69,4.24,13.16,11.94Z"/>
          <path class="cls-21" d="M796.51,1019.6c.98,10.05-3,18.65-8.88,19.22-5.88.57-11.43-7.11-12.41-17.16-.98-10.05,3-18.65,8.88-19.22,5.88-.57,11.43,7.11,12.41,17.16Z"/>
          <ellipse class="cls-21" cx="757.66" cy="1102.79" rx="13.61" ry="23.33" transform="translate(-158.61 127.78) rotate(-8.73)"/>
          <path class="cls-21" d="M830.73,1193.63c7.53,6.23,10.48,15.1,6.58,19.81-3.9,4.72-13.17,3.5-20.7-2.73-7.53-6.23-10.48-15.1-6.58-19.81,3.9-4.72,13.17-3.5,20.7,2.73Z"/>
          <path class="cls-21" d="M890.86,1236.14c-1.26,4.07-10.54,4.83-20.73,1.68-10.19-3.15-17.44-9-16.18-13.07s10.54-4.83,20.73-1.68c10.19,3.15,17.44,9,16.18,13.07Z"/>
          <g>
            <path class="cls-21" d="M537.55,423.67c17.63,20.86,43.61,28.1,58.99,16.8-13.15-18.13-26.85-35.7-41.09-52.7-7.88-9.4-15.56-18.21-23.04-26.48-.1.08-.2.16-.29.24-15.17,12.82-12.74,40.65,5.43,62.15Z"/>
            <path class="cls-21" d="M629.27,546.77c9.3,18.81,27.14,28.96,39.84,22.68,1.87-.92,3.51-2.15,4.94-3.63-11.71-22.35-24.08-44.06-37.12-65.12-.5.19-1,.41-1.49.65-12.71,6.28-15.47,26.62-6.17,45.43Z"/>
            <path class="cls-21" d="M676.73,624.73c6.26,10.52,18.66,14.69,27.71,9.31.65-.39,1.26-.81,1.84-1.27-5.82-13.21-11.85-26.22-18.1-39.03-2.23.29-4.39,1.01-6.39,2.2-9.05,5.38-11.31,18.27-5.05,28.79Z"/>
            <g>
              <path class="cls-21" d="M788.38,1082.8c0,10.31,6.62,18.67,14.78,18.67.54,0,1.06-.04,1.58-.11.95-10.3,1.63-22.56,1.79-36.75-1.08-.32-2.21-.49-3.37-.49-8.16,0-14.78,8.36-14.78,18.67Z"/>
              <g>
                <path class="cls-4" d="M715.95,675.42c-3.2-10.83-10.74-18.77-18.94-21.11,6.19,14.9,11.95,29.96,17.34,45,3.37-6.41,4.19-15.13,1.6-23.89Z"/>
                <path class="cls-4" d="M756.7,816.55c7.1-2.5,10.19-12.08,6.91-21.4-3.28-9.32-11.7-14.84-18.8-12.34-1.09.38-2.08.94-2.97,1.62,1.75,5.9,3.46,11.74,5.13,17.49,1.49,5.11,2.94,10.13,4.36,15.07,1.8.29,3.62.16,5.37-.45Z"/>
                <path class="cls-4" d="M785.8,912.49c-2.15-8.65-7.56-15.2-13.49-17.2,3.16,13.42,5.95,26.63,8.32,39.89,5.23-4.16,7.52-13.23,5.17-22.69Z"/>
                <path class="cls-4" d="M796.51,1019.6c-.66-6.82-3.43-12.54-6.98-15.34,1.06,10.34,2.09,20.96,2.95,31.89,3.03-3.4,4.7-9.63,4.03-16.55Z"/>
                <path class="cls-4" d="M596.54,440.47c-13.15-18.13-26.85-35.7-41.09-52.7-7.88-9.4-15.56-18.21-23.04-26.48-.1.08-.2.16-.29.24-5.22,4.41-8.36,10.6-9.48,17.7,11.27,13.24,21.15,25.93,32.82,39.22,7.09,8.07,14.43,17.25,21.91,27.3,7.15.36,13.81-1.32,19.18-5.27Z"/>
                <path class="cls-4" d="M669.12,569.44c1.87-.92,3.51-2.15,4.94-3.63-11.71-22.35-24.08-44.06-37.12-65.12-.5.19-1,.41-1.49.65-5.66,2.8-9.34,8.39-10.87,15.39,10.58,17.38,21.1,35.56,31.35,53.98,4.62,1.06,9.16.72,13.19-1.27Z"/>
                <path class="cls-4" d="M704.44,634.04c.65-.39,1.26-.81,1.84-1.27-5.82-13.21-11.85-26.22-18.1-39.03-2.23.29-4.39,1.01-6.39,2.2-3.51,2.09-6,5.31-7.36,9.09,5,9.85,9.76,19.88,14.3,30.02,5.25,2.01,10.95,1.83,15.72-1.01Z"/>
                <path class="cls-4" d="M804.74,1101.36c.95-10.3,1.63-22.56,1.79-36.75-1.08-.32-2.21-.49-3.37-.49-3.28,0-6.32,1.36-8.77,3.65.39,9.92.58,20.08.49,30.49,2.36,2.02,5.21,3.2,8.28,3.2.54,0,1.06-.04,1.58-.11Z"/>
              </g>
            </g>
            <path class="cls-21" d="M926.01,1228.22c3.44,7.16,15.65,8.44,27.26,2.86,11.61-5.58,18.24-15.91,14.79-23.08-.83-1.73-2.18-3.11-3.9-4.14-12.23,8.02-24.97,12.76-37.58,14.34-1.69,3.51-2,7.04-.57,10.02Z"/>
            <path class="cls-4" d="M964.17,1203.86c-12.23,8.02-24.97,12.76-37.58,14.34-1.41,2.93-1.86,5.88-1.13,8.5,12.62-1.15,24.6-4.82,35.4-10.4,2.86-1.48,5.56-3.04,8.12-4.66-.06-1.27-.35-2.5-.9-3.64-.83-1.73-2.18-3.11-3.9-4.14Z"/>
          </g>
          <path class="cls-20" d="M540.72,1407.93c-3.6,0-7.17-.02-10.73-.05-79.27-.7-149.21-9.48-207.89-26.09-102.06-28.9-159.68-98.06-171.26-205.57-5.23-48.56-2.17-100.86,9.09-155.45,12.15-58.91,33.46-118.13,63.34-176.02,28.66-55.53,62.79-101.86,90.21-139.08,20.41-27.71,36.54-49.6,41.8-64.14,5.93-16.36,7.05-30.05,3.35-40.69-3.56-10.23-11.72-17.91-24.24-22.82l-.71-.28.11-.76c.1-.73,10.34-73.72,23.18-150.01,17.26-102.52,30.75-161.84,40.09-176.3l.47-.72.77.37c20.11,9.67,41.98,24.14,65.02,42.99,30.12,24.65,61.37,56.22,92.88,93.83,86.62,103.38,153.28,228.23,198.14,371.08,23.86,75.99,39.94,148.17,47.79,214.53,7.17,60.61,5.92,103.34,3.6,128.58,1.45,3.63,21.21,52.26,51.08,87,28.33,32.95,70.26,38.73,106.84,14.72,15.52-10.19,24.14-22.16,32.47-33.74,11.19-15.56,21.76-30.25,47.57-35.36,28.37-5.62,56.1,6.84,69.86,20.79,6.26,6.34,9.26,12.74,8.23,17.55-2.04,9.6-11.03,9.87-22.4,10.22-9.58.29-21.51.66-34.11,6.17-18.08,7.91-37.39,33.5-57.84,60.6-11.18,14.81-22.74,30.13-35.15,44.15-21.04,23.78-48.52,44.01-81.67,60.12-41.83,20.32-93.06,34.22-152.26,41.31-73.39,8.79-138.18,13.08-197.61,13.08ZM335.81,576.5c26.09,10.57,33.26,32.67,21.3,65.69-5.36,14.81-21.56,36.79-42.07,64.63-27.38,37.17-61.45,83.42-90.04,138.82-57.52,111.44-83.17,228.77-72.23,330.37,11.49,106.64,68.64,175.25,169.86,203.91,104.8,29.67,240.7,33.92,415.47,12.99,106.54-12.76,184.83-46.67,232.71-100.78,12.35-13.97,23.89-29.25,35.05-44.03,21.5-28.49,40.07-53.09,58.62-61.2,12.95-5.67,25.08-6.03,34.83-6.33,11.34-.35,18.83-.57,20.56-8.68.88-4.16-1.93-9.91-7.72-15.78-13.41-13.59-40.43-25.73-68.09-20.25-25.06,4.97-34.94,18.69-46.37,34.59-8.43,11.72-17.15,23.85-32.98,34.23-18.47,12.12-38.52,17.09-57.99,14.37-19.39-2.71-37.16-12.89-51.4-29.45-31.1-36.18-51.3-87.26-51.5-87.77l-.08-.21.02-.23c3.86-41.6,6.59-158.26-51.29-342.58-44.78-142.61-111.32-267.23-197.77-370.42-69.82-83.33-123.5-119.91-156.47-135.93-21.53,36.26-60.11,307.61-62.43,324.04Z"/>
        </g>
        <g>
          <path class="cls-5" d="M533.15,1345.06c-121.1-55.63-124.84-153.57-106.95-254.67,17.89-101.1,67.07-159.36,80.26-235.47,15.39-88.82,0-148.93-48.61-186.27-44.01-33.8-86.75-19.78-118.11,2.22-26.51,38.95-76.61,98.78-115.6,174.32-62.22,120.55-82.35,237.87-72.33,330.92,10.74,99.75,62.17,174.05,170.56,204.74,129.1,36.55,285.97,28.58,415.85,13.02,46.78-5.6,85.49-15.04,117.55-26.71,0,0-184.96,41.13-322.62-22.11Z"/>
          <path class="cls-6" d="M533.15,1345.06c-75.64-34.75-105.49-86-112.89-144.22-32.79,176.7-214.07,140.93-260.64,19.01,19.93,77.63,70.87,134.99,162.76,161,129.1,36.55,285.97,28.58,415.85,13.02,46.78-5.6,85.49-15.04,117.55-26.71,0,0-184.96,41.13-322.62-22.11Z"/>
          <path class="cls-20" d="M540.72,1407.93c-3.6,0-7.17-.02-10.73-.05-79.27-.7-149.21-9.48-207.89-26.09-102.06-28.9-159.68-98.06-171.26-205.57-5.23-48.56-2.17-100.86,9.09-155.45,12.15-58.91,33.46-118.13,63.34-176.02,28.66-55.53,62.78-101.86,90.2-139.08,9.89-13.42,18.42-25.01,25.46-35.34l.1-.15.15-.1c18.42-12.93,36.85-20.4,54.77-22.21,22.54-2.28,44.24,4.46,64.49,20.01,12.2,9.37,22.45,20.34,30.49,32.6,8.05,12.29,14.16,26.34,18.17,41.75,8.02,30.89,8.13,67.8.32,112.85-6.17,35.61-20.26,67.47-35.17,101.2-17.48,39.54-35.56,80.43-45.09,134.28-17.4,98.34-16.55,197.14,106.4,253.62,70.86,32.55,154.53,36.83,212.23,34.69,62.6-2.32,107.87-12.23,109.77-12.65l.1-.02h.11s5.51,0,5.51,0l-5.18,1.89c-34.38,12.52-74,21.52-117.76,26.76-73.39,8.79-138.18,13.08-197.61,13.08ZM340.44,671.57c-7.03,10.33-15.55,21.88-25.4,35.26-27.38,37.17-61.45,83.42-90.04,138.82-57.52,111.44-83.17,228.77-72.23,330.37,11.49,106.64,68.63,175.25,169.86,203.91,104.81,29.67,240.71,33.92,415.47,12.99,38.18-4.57,73.19-12.02,104.29-22.16-18.21,3.23-53.25,8.45-96.54,10.06-36.86,1.37-72.02-.2-104.51-4.67-40.62-5.59-77.16-15.75-108.61-30.19-56.07-25.76-90.78-62.03-106.12-110.88-6.53-20.8-9.56-43.72-9.27-70.07.24-21.73,2.82-46.19,7.88-74.78,9.57-54.08,27.7-95.08,45.23-134.73,14.87-33.62,28.91-65.37,35.04-100.74,15.47-89.28.14-148.17-48.24-185.33-44.81-34.42-88.23-17.86-116.81,2.15Z"/>
        </g>
      </g>
      <g>
        <path class="cls-16" d="M569.97,1339.18c35.47,29.61,117.44,35.52,204.8,26.7,98.66-9.95,160.8-23.14,205.72-83.6-41.23,52.1-58.53,69.79-76.23,76.21-17.69,6.42-54.64,16.14-70.19,24.89-15.55,8.75-30.33,19.44-52.69,22.36-22.36,2.92-78.36-8.56-95.66-8.36-17.3.19-42.57,6.72-60.47-.97-41.61-17.89-55.28-57.23-55.28-57.23Z"/>
        <path class="cls-20" d="M772.59,1407.19c-14.29,0-34.54-2.74-52.81-5.22-14.63-1.98-27.27-3.69-34.04-3.62-4.98.06-10.64.64-16.63,1.26-14.67,1.52-31.31,3.25-44.24-2.31-21.7-9.33-35.72-24.54-43.65-35.65-8.6-12.05-12.02-21.74-12.17-22.15l-1.15-3.31,2.69,2.25c23.76,19.83,70.95,30.26,133.73,30.26,21.7,0,45.25-1.24,70.36-3.78,98.25-9.91,154.87-23.83,196.74-72.79,2.66-3.31,5.43-6.79,8.31-10.44l1.54,1.18c-2.63,3.54-5.34,6.94-8.12,10.2-36.15,45.08-52.21,60.42-68.55,66.34-5.72,2.07-13.52,4.52-21.78,7.1-17.72,5.55-37.81,11.84-48.26,17.72-2.54,1.43-5.12,2.95-7.61,4.41-13.05,7.67-26.54,15.6-45.43,18.06-2.58.34-5.59.49-8.92.49ZM686.17,1396.41c7,0,19.47,1.69,33.86,3.64,22.42,3.04,47.83,6.48,61.22,4.73,18.49-2.41,31.81-10.24,44.69-17.81,2.5-1.47,5.09-2.99,7.65-4.43,10.63-5.98,30.82-12.3,48.64-17.88,8.24-2.58,16.02-5.01,21.7-7.08,13.71-4.97,27.34-16.88,53.62-48.46-16.71,15.07-36.15,26.4-59.44,34.82-33.39,12.07-73.42,17.89-123.24,22.91-45.53,4.59-87.75,4.96-122.07,1.06-36.24-4.12-63.31-12.75-80.53-25.67,1.71,3.87,5.09,10.68,10.57,18.34,7.79,10.89,21.54,25.8,42.8,34.94,12.47,5.36,28.83,3.66,43.27,2.17,6.03-.63,11.73-1.22,16.8-1.27.15,0,.3,0,.46,0Z"/>
      </g>
      <g>
        <path class="cls-11" d="M768.35,1413.73c-19.32,0-39.66-3.39-55.42-6.01-9.14-1.52-17.03-2.83-21.57-2.95-5.32-.14-9.41.66-14.15,1.57-8.08,1.56-17.24,3.33-34.3,1.46-13.68-1.5-25.37-5.74-36.79-13.34-12.68-8.44-25.33-21.37-38.66-39.53-17.48-23.81-21.94-39.82-25.19-51.51-1.75-6.29-3.02-10.84-5.81-14.45-8.87-11.5-18.17-14.32-27.16-17.04-10.2-3.09-21.76-6.6-27.31-22.62-5.42-15.65-.83-29.56,3.61-43.01,3.25-9.86,6.62-20.05,6.46-31.64-.18-13.48-5.26-19.67-11.15-26.83-5.14-6.26-10.97-13.35-11.85-24.78-1.06-13.81,5.58-19.63,12.01-25.26,5.82-5.09,13.06-11.43,19.3-27.54,5.01-12.92,11.64-40.36-.18-79.02l14.87-4.55c9.78,31.97,9.71,63.64-.19,89.18-7.62,19.66-16.83,27.73-23.55,33.62-5.69,4.98-7.21,6.32-6.75,12.36.5,6.54,3.8,10.55,8.36,16.1,6.43,7.83,14.44,17.57,14.69,36.5.19,14.2-3.76,26.16-7.24,36.72-4.12,12.5-7.38,22.37-3.68,33.05,2.83,8.18,7.3,9.84,17.12,12.82,10.27,3.11,23.05,6.99,34.96,22.43,4.64,6.02,6.42,12.4,8.48,19.78,3.1,11.12,6.95,24.95,22.75,46.47,27.72,37.77,47.44,44.72,64.61,46.61,14.72,1.62,22.31.15,29.65-1.27,5.15-1,10.48-2.03,17.49-1.85,5.63.14,13.62,1.47,23.73,3.16,19.15,3.19,45.37,7.55,66.55,5.06,20.03-2.36,34.41-11.52,47.1-19.6,6.81-4.34,13.25-8.44,19.63-10.72,5.45-1.95,12.08-3.38,19.1-4.9,14.99-3.24,33.64-7.27,48.53-18.17,7.44-5.44,14.17-12.33,20.08-19.61,25.48-20.13,44.02-42.15,44.02-42.15-.81,2.01-21.62,49.96-54.91,74.32-17.56,12.85-38,17.27-54.43,20.82-6.79,1.47-12.66,2.74-17.16,4.34-4.73,1.69-10.19,5.17-16.51,9.19-13.4,8.53-30.07,19.16-53.64,21.93-5.01.59-10.22.84-15.5.84Z"/>
        <path class="cls-20" d="M768.35,1414.7c-19.4,0-39.46-3.34-55.57-6.02-9.12-1.52-16.97-2.83-21.45-2.94-5.21-.13-9.25.65-13.93,1.55-8.16,1.58-17.4,3.36-34.6,1.47-13.84-1.52-25.67-5.81-37.22-13.5-12.78-8.5-25.5-21.51-38.9-39.76-17.58-23.96-22.07-40.06-25.34-51.82-1.72-6.19-2.97-10.65-5.64-14.12-8.68-11.25-17.83-14.03-26.67-16.71-10.42-3.16-22.24-6.75-27.95-23.23-5.52-15.96-.88-30.02,3.61-43.63,3.23-9.78,6.56-19.89,6.41-31.32-.18-13.14-5.16-19.21-10.93-26.23-5.24-6.37-11.17-13.59-12.07-25.32-1.1-14.29,5.73-20.28,12.34-26.06,5.74-5.03,12.88-11.28,19.03-27.16,4.96-12.8,11.53-40.01-.21-78.38l-.28-.93,16.73-5.12.28.93c9.84,32.18,9.77,64.07-.21,89.82-7.71,19.89-17.02,28.04-23.82,34-5.67,4.96-6.85,6-6.42,11.56.48,6.23,3.69,10.14,8.14,15.56,6.53,7.94,14.65,17.83,14.91,37.11.19,14.36-3.78,26.4-7.29,37.03-4.07,12.32-7.28,22.06-3.69,32.43,2.68,7.75,6.74,9.25,16.49,12.21,10.4,3.15,23.35,7.08,35.45,22.77,4.76,6.17,6.56,12.63,8.64,20.11,3.07,11.04,6.9,24.78,22.59,46.16,27.5,37.47,46.98,44.35,63.93,46.22,14.58,1.6,22.09.15,29.36-1.26h.05c5.19-1.01,10.55-2.05,17.65-1.87,5.7.14,13.71,1.48,23.86,3.17,19.1,3.18,45.24,7.53,66.28,5.06,19.81-2.33,34.09-11.43,46.69-19.45,6.86-4.37,13.34-8.5,19.83-10.82,5.51-1.97,12.17-3.41,19.22-4.93,14.9-3.22,33.43-7.23,48.16-18,6.72-4.92,13.42-11.46,19.9-19.44l.07-.08.08-.07c25.11-19.83,43.69-41.8,43.88-42.02l3.93-4.67-2.29,5.66c-.2.49-21.2,49.84-55.24,74.74-17.73,12.97-38.28,17.41-54.8,20.98-6.77,1.46-12.6,2.72-17.03,4.31-4.63,1.65-10.04,5.1-16.31,9.09-13.48,8.59-30.26,19.28-54.05,22.08-4.79.56-10.04.85-15.61.85ZM690.16,1403.78c.4,0,.8,0,1.22.02,4.61.12,12.52,1.43,21.69,2.96,16.07,2.68,36.04,6,55.28,6,5.49,0,10.67-.28,15.38-.84,23.35-2.75,39.92-13.3,53.23-21.78,6.37-4.06,11.86-7.56,16.7-9.29,4.55-1.63,10.44-2.9,17.27-4.37,16.35-3.53,36.68-7.93,54.07-20.65,26.61-19.47,45.18-54.14,51.86-67.97-6.97,7.66-21.66,23.02-39.7,37.28-6.56,8.07-13.36,14.7-20.19,19.7-15.06,11.02-33.82,15.07-48.9,18.33-6.99,1.51-13.59,2.94-18.98,4.86-6.28,2.24-12.67,6.31-19.44,10.62-12.78,8.14-27.26,17.36-47.51,19.75-21.31,2.51-47.61-1.87-66.82-5.07-10.08-1.68-18.04-3-23.6-3.14-6.89-.18-12.15.84-17.23,1.82h-.05c-7.41,1.44-15.07,2.93-29.94,1.29-17.39-1.91-37.34-8.93-65.28-47-15.9-21.66-19.78-35.6-22.9-46.79-2.03-7.29-3.78-13.58-8.31-19.45-11.72-15.19-24.33-19.02-34.47-22.09-9.89-3-14.78-4.83-17.76-13.43-3.8-10.99-.5-21,3.68-33.67,3.46-10.49,7.38-22.37,7.19-36.4-.25-18.6-8.13-28.19-14.47-35.9-4.67-5.69-8.05-9.8-8.58-16.64-.5-6.53,1.41-8.2,7.08-13.17,6.65-5.82,15.75-13.8,23.29-33.24,9.72-25.09,9.87-56.18.44-87.62l-13.01,3.98c11.52,38.44,4.89,65.79-.12,78.72-6.32,16.32-13.66,22.75-19.56,27.91-6.25,5.47-12.71,11.13-11.68,24.45.86,11.12,6.58,18.09,11.63,24.24,6,7.31,11.19,13.62,11.37,27.44.16,11.75-3.23,22.02-6.51,31.95-4.39,13.3-8.93,27.05-3.62,42.39,5.38,15.55,16.69,18.98,26.67,22.01,9.14,2.77,18.58,5.64,27.65,17.38,2.91,3.77,4.19,8.39,5.97,14.79,3.23,11.62,7.66,27.52,25.04,51.19,13.26,18.07,25.83,30.92,38.41,39.29,11.28,7.51,22.83,11.69,36.36,13.18,16.91,1.86,26,.1,34.01-1.45,4.44-.86,8.3-1.6,13.14-1.6Z"/>
      </g>
      <g>
        <g>
          <path class="cls-11" d="M385.13,993.61c-9.33-20.48-31.89-35.52-51.07-45.63-19.18-10.11-54.18-18.92-60.66-9.85-6.48,9.07,9.33,23.07,21.78,29.55-27.48-1.81-50.81,2.33-65.07,8.04-14.26,5.7-17.37,20.22-12.7,26.18-16.33,7.52-17.89,24.24,5.44,30.07-11.93,4.41-14.88,13.94-3.18,20.09,11.47,6.03,28.19,4.67,45.11,5.64,16.92.97,49.19,11.08,70.19,11.28,21,.19,34.41-6.22,42.39-17.5,25.08,1.75,82.44,1.36,135.71-42.97,53.27-44.33,85.77-110.61,96.86-145.6,11.08-35,17.05-64.12,1.79-90.7-12.41-21.61-44.95-26.54-65.36-17.79-20.41,8.75-30.33,19.28-38.5,63.3-8.17,44.02-18.73,88.35-42.03,127.43-23.3,39.08-80.69,48.45-80.69,48.45Z"/>
          <path class="cls-13" d="M351.95,965.22c30.71,22.4,24.76,33.18,30.98,33.96,6.22.78,32.09-4.37,56.06-18.47,32.21-18.95,45.57-46.34,56.06-76.28,10.49-29.94,17.63-64.73,21.91-89.76,4.28-25.03,9.33-41.8,24.79-52.3,7.74-5.26,17.5-9.43,36.82-11.13-11.23-1.93-22.97-.78-32.22,3.19-20.41,8.75-30.33,19.28-38.5,63.3-8.17,44.02-18.73,88.35-42.03,127.43-23.3,39.08-80.69,48.45-80.69,48.45-9.33-20.48-31.89-35.52-51.07-45.63-14.21-7.49-37.09-14.26-50.63-13.59h0c15.35,2.42,39.26,9.49,68.52,30.83Z"/>
          <g>
            <path class="cls-16" d="M267.69,995.36c-9.71-4.73-27.54-3.54-37.32-4.05-9.33-.49-9.25-4.87-9.4-9.41-6.22,6.72-6.97,15.64-3.56,20,16.79-7.19,36-8.05,50.28-6.55Z"/>
            <path class="cls-16" d="M580.34,890.3c-22.55,46.78-58.31,93.34-98.38,118.43-59.89,37.5-95.21,29.4-106.35,30.7-11.15,1.3-9.66,13.93-41.41,17.43-25.65,2.83-39.18-5.87-55.9-8.2-16.72-2.33-35.28.9-47.44-1.13-12.42-2.07-14.75-7.78-10.26-14.61-10,4.72-11.85,13.4-.92,19.15,11.47,6.03,28.19,4.67,45.11,5.64,16.92.97,49.19,11.08,70.19,11.28,21,.19,34.41-6.22,42.39-17.5,25.08,1.75,82.44,1.36,135.71-42.97,53.27-44.33,85.77-110.61,96.86-145.6,11.08-35,17.05-64.12,1.79-90.7-6.46-11.25-18.39-17.98-31.21-20.61,47.67,27.55,15.42,106.4-.16,138.7Z"/>
            <path class="cls-16" d="M266.15,1031.26c-11.56-8.37-28.81-5.91-41.88-7.84-13.22-1.94-16.98-8.17-16.02-14.69-6.47,8.18-3.07,18.83,14.59,23.24,15.62-4.54,32.01-3.22,43.31-.72Z"/>
            <path class="cls-16" d="M273.4,938.13c-6.48,9.07,9.33,23.07,21.78,29.55-.06,0-.12,0-.18-.01l16.9,3.78s-7.75-5.33-19.22-14.08c-10.57-8.06-15.85-17.69-9.25-22.99-4.75.24-8.35,1.38-10.03,3.74Z"/>
          </g>
          <path class="cls-20" d="M335.91,1069.96c-.32,0-.63,0-.95,0-11.88-.11-26.92-3.28-41.47-6.34-11.01-2.32-21.41-4.51-28.77-4.93-3.98-.23-7.99-.33-11.87-.43-12.69-.32-24.68-.61-33.64-5.32-5.37-2.82-8.19-6.6-7.92-10.64.26-3.92,3.42-7.59,8.63-10.12-9.39-2.94-15.04-8.1-15.63-14.4-.58-6.18,3.87-12.33,11.67-16.25-1.68-2.86-2.03-6.89-.91-11.05,1.87-6.96,7.23-12.66,14.68-15.65,15.74-6.3,38.41-9.35,61.32-8.33-8.88-5.37-18.02-13.56-19.82-21.09-.7-2.94-.24-5.57,1.37-7.83,4.27-5.98,18.47-4.23,26.55-2.66,11.94,2.33,25.49,7.01,35.36,12.21,26.27,13.84,43.48,29.11,51.18,45.4,3.12-.58,15.91-3.19,30.71-9.4,15.6-6.54,36.69-18.52,48.58-38.46,23.39-39.24,33.96-84.28,41.91-127.11,8.2-44.22,18.24-55.09,39.07-64.02,10.39-4.45,23.96-5.4,36.29-2.54,13.68,3.18,24.44,10.54,30.3,20.74,7.19,12.51,10.17,26.49,9.11,42.74-1.05,16.14-6.06,33.7-10.82,48.74-3.15,9.96-12.66,36.68-32.7,69.51-18.86,30.89-40.55,56.65-64.46,76.54-23.22,19.32-49.75,32.43-78.84,38.97-18.41,4.13-37.59,5.57-57.02,4.26-8.54,11.75-22.27,17.47-41.92,17.47ZM282.37,968.24c-19.61,0-38.37,2.98-51.9,8.39-6.88,2.75-11.81,7.98-13.53,14.35-1.08,4.02-.61,7.98,1.23,10.34l.76.97-1.12.51c-7.67,3.53-12.1,9.2-11.58,14.8.56,6.01,6.7,10.91,16.85,13.44l3.05.76-2.95,1.09c-5.99,2.21-9.71,5.77-9.95,9.52-.21,3.23,2.24,6.35,6.89,8.8,8.56,4.5,20.32,4.79,32.78,5.1,3.89.1,7.92.2,11.93.43,7.5.43,17.97,2.64,29.06,4.97,14.46,3.05,29.41,6.19,41.09,6.3,19.74.18,33.33-5.41,41.58-17.09l.32-.45.55.04c35.21,2.46,87.22-2.97,135.02-42.75,54.22-45.12,86.2-112.47,96.55-145.15,12.05-38.04,16.21-64.95,1.87-89.92-11.84-20.61-43.62-26.17-64.14-17.38-20.16,8.64-29.88,19.25-37.92,62.59-7.98,43.01-18.61,88.25-42.15,127.75-12.17,20.41-33.66,32.63-49.54,39.28-17.17,7.19-31.68,9.61-31.83,9.64l-.73.12-.31-.68c-7.35-16.14-24.39-31.34-50.64-45.17-9.72-5.12-23.06-9.73-34.83-12.03-12.97-2.53-21.93-1.85-24.59,1.88-1.27,1.78-1.62,3.88-1.06,6.24,1.83,7.63,12.7,16.78,22.49,21.88l4.1,2.14-4.62-.3c-4.26-.28-8.52-.42-12.74-.42Z"/>
        </g>
        <path class="cls-20" d="M223.03,1032.93l-.37-1.91c6.78-1.32,13.56-1.99,19.68-2.28,19-1.01,23.81,2.52,23.81,2.52-.21-.03-21.63-2.52-43.12,1.67Z"/>
        <path class="cls-20" d="M217.81,1002.79l-.82-1.76c7.19-3.35,15.34-5.27,23.73-6.34,20.46-2.21,26.97.68,26.97.68-16.49-.14-35.31.64-49.87,7.43Z"/>
        <path class="cls-20" d="M327.58,976.2c-.15-.05-15.68-4.97-32.55-7.55l.29-1.92c17.02,2.61,32.25,9.47,32.25,9.47Z"/>
      </g>
      <g>
        <g>
          <path class="cls-11" d="M117.2,193.46c6.67,49,31.5,103.83,31.5,103.83l31.11-24.89c-17.11-30.33-24.11-86.72-24.11-86.72l-38.5,7.78Z"/>
          <path class="cls-13" d="M123.26,192.24l-6.06,1.22c6.67,49,31.5,103.83,31.5,103.83l5.09-4.07c-14.23-28.92-27.53-72.22-30.53-100.98Z"/>
          <path class="cls-16" d="M155.7,185.68l-10.84,2.19c3.73,28.73,11.22,62.71,24.61,92.8l10.34-8.27c-17.11-30.33-24.11-86.72-24.11-86.72Z"/>
          <path class="cls-20" d="M148.33,298.83l-.52-1.14c-.25-.55-24.96-55.52-31.58-104.1l-.12-.9,40.42-8.17.13,1.04c.07.56,7.17,56.54,23.99,86.36l.41.72-32.73,26.19ZM118.29,194.23c6.21,44.19,27.24,93.43,30.79,101.51l29.48-23.59c-15.45-28.02-22.63-77.53-23.69-85.31l-36.58,7.39Z"/>
        </g>
        <g>
          <g>
            <ellipse class="cls-10" cx="127.34" cy="103.27" rx="81.3" ry="102.3"/>
            <path class="cls-1" d="M179.39,24.7c26.36,47.17,20.72,103.3-7.42,139.34-21.34,27.32-69.3,37.82-99.11,15.17,14.42,16.39,33.52,26.37,54.48,26.37,44.9,0,81.3-45.8,81.3-102.3,0-31.58-11.37-59.81-29.24-78.58Z"/>
            <path d="M127.34,206.55c-22.02,0-42.7-10.77-58.25-30.33-15.49-19.49-24.02-45.4-24.02-72.94s8.53-53.45,24.02-72.94C84.63,10.77,105.32,0,127.34,0s42.7,10.77,58.25,30.33c15.49,19.49,24.02,45.4,24.02,72.94s-8.53,53.45-24.02,72.94c-15.54,19.56-36.23,30.33-58.25,30.33ZM127.34,1.94c-44.29,0-80.32,45.46-80.32,101.33s36.03,101.33,80.32,101.33,80.32-45.46,80.32-101.33S171.63,1.94,127.34,1.94Z"/>
          </g>
          <g>
            <path class="cls-11" d="M46.04,103.27C46.04,46.77,82.44.97,127.34.97c33.67,0,62.57,25.76,74.91,62.48-59.51-25.93-121.73,3.11-156.2,39.82Z"/>
            <path class="cls-13" d="M46.04,103.27C46.04,46.77,82.44.97,127.34.97c33.67,0,62.57,25.76,74.91,62.48C187.07,27.16,149.57,3.82,119.9,9.79c-38.01,7.65-64.78,41.6-73.85,93.49Z"/>
            <path class="cls-20" d="M45.07,105.73v-2.46c0-27.54,8.53-53.45,24.02-72.94C84.63,10.77,105.32,0,127.34,0c16.53,0,32.46,6.12,46.08,17.7,13.26,11.27,23.54,26.98,29.75,45.44l.7,2.08-2.01-.87c-57.81-25.19-119.55,1.74-155.11,39.59l-1.68,1.79ZM127.34,1.94c-43.64,0-79.27,44.13-80.3,98.88,35.84-36.97,96.4-62.82,153.57-39.12C187.63,25.33,159.06,1.94,127.34,1.94Z"/>
          </g>
          <g>
            <ellipse class="cls-7" cx="146.37" cy="130.85" rx="26.34" ry="37.63" transform="translate(-.25 .28) rotate(-.11)"/>
            <path class="cls-19" d="M172.71,130.8c.04,20.78-11.72,37.65-26.27,37.68-14.55.03-26.37-16.8-26.41-37.58,9.49,31.76,45.82,27.08,52.69-.1Z"/>
            <ellipse cx="146.37" cy="133.17" rx="18.44" ry="26.33" transform="translate(-.25 .28) rotate(-.11)"/>
            <path class="cls-10" d="M144.71,110.94c.46,3.45-1.97,6.63-5.42,7.09-3.45.46-6.63-1.97-7.09-5.42s1.97-6.63,5.42-7.09c3.45-.46,6.63,1.97,7.09,5.42Z"/>
            <path class="cls-10" d="M155.23,150.07c.17,1.24-.71,2.38-1.95,2.55-1.24.17-2.38-.71-2.55-1.95-.17-1.24.71-2.38,1.95-2.55,1.24-.17,2.38.71,2.55,1.95Z"/>
            <path class="cls-8" d="M149.04,169.28c-.86.11-1.72.17-2.59.17-15.06.03-27.35-17.26-27.39-38.55-.04-21.28,12.18-38.62,27.24-38.65,15.06-.03,27.35,17.26,27.39,38.55h-.97s.97,0,.97,0c.02,10.25-2.76,19.9-7.84,27.18-4.54,6.51-10.43,10.45-16.81,11.3ZM143.98,94.35c-12.9,1.72-23.02,17.46-22.98,36.55.04,20.21,11.45,36.63,25.44,36.61,6.71-.01,13.03-3.79,17.81-10.64,4.85-6.95,7.51-16.21,7.49-26.06-.04-20.21-11.45-36.63-25.44-36.61-.78,0-1.56.05-2.32.16Z"/>
          </g>
        </g>
        <g>
          <ellipse class="cls-11" cx="286.18" cy="414.49" rx="212.92" ry="186.42" transform="translate(-64.34 52.77) rotate(-9.48)"/>
          <path class="cls-13" d="M347.99,233.18c-29.05-6.7-60.46-7.92-92.5-2.57-115.99,19.36-196.27,117.38-179.32,218.93,4.95,29.64,17.64,56.31,36.01,78.73-30.75-45.51-34.93-87.21-29.97-124.69,6.28-47.44,33.22-85.53,62.61-110.97,55.71-48.23,131.7-65.35,195.54-50.95,6.55-1.12,3.87-8.81,7.63-8.49Z"/>
          <path class="cls-16" d="M496.2,379.43c-12.17-72.91-71.16-127.82-146.39-145.83,69.36,30.06,103.52,69.56,114.65,129.03,18.31,97.83-44.5,191.97-164.83,213.9-96.04,17.5-156.37-14.3-192.45-54.64,43.56,58.45,124.4,90.71,209.69,76.47,115.99-19.36,196.27-117.38,179.32-218.93Z"/>
          <path class="cls-21" d="M233.15,259.91c7.7,3.56,17.16-.51,21.12-9.09,3.24-7.02,1.8-14.88-3.04-19.45-8.36,1.55-16.53,3.5-24.49,5.84-.12.24-.24.48-.36.73-3.96,8.58-.94,18.42,6.77,21.98Z"/>
          <path class="cls-4" d="M251.23,231.37c-8.36,1.55-16.53,3.5-24.49,5.84-.12.24-.24.48-.36.73-1.51,3.27-2,6.73-1.61,9.95,10.23-3.29,20.6-5.85,31.01-7.69-.56-3.42-2.13-6.54-4.56-8.83Z"/>
          <path class="cls-21" d="M195.51,296.73c-5.01,7.76-13.31,11.31-18.54,7.94-5.23-3.38-5.42-12.4-.41-20.16,5.01-7.76,13.31-11.31,18.54-7.94,5.23,3.38,5.42,12.4.41,20.16Z"/>
          <path class="cls-21" d="M288.92,292.81c-6.93,9.96-18.05,14.2-24.84,9.48-6.79-4.72-6.67-16.63.27-26.59,6.93-9.96,18.05-14.2,24.84-9.48,6.79,4.72,6.67,16.63-.27,26.59Z"/>
          <path class="cls-20" d="M276.74,602.69c-14.89,0-29.66-1.39-44.21-4.18-26.67-5.11-51.45-14.66-73.66-28.39-22.22-13.74-40.74-30.96-55.05-51.2-14.82-20.96-24.45-44.25-28.62-69.22-4.17-24.97-2.63-50.12,4.58-74.76,6.96-23.79,18.88-46.09,35.43-66.3,16.54-20.2,36.88-37.28,60.45-50.78,24.39-13.97,51.19-23.46,79.66-28.21,28.47-4.75,56.9-4.48,84.5.81,26.67,5.11,51.45,14.66,73.66,28.39,22.22,13.74,40.74,30.96,55.05,51.2,14.82,20.96,24.45,44.25,28.62,69.22,4.17,24.97,2.63,50.12-4.58,74.76-6.96,23.79-18.88,46.09-35.43,66.3-16.54,20.2-36.88,37.28-60.45,50.78-24.39,13.97-51.19,23.46-79.66,28.21-13.47,2.25-26.93,3.37-40.29,3.37ZM295.81,228.22c-13.28,0-26.72,1.11-40.16,3.35-115.27,19.24-195.36,116.95-178.52,217.81,8.15,48.83,37.55,91.13,82.77,119.09,45.26,27.98,100.96,38.26,156.82,28.94,55.86-9.32,105.2-37.13,138.92-78.3,33.69-41.13,47.75-90.68,39.6-139.51-8.15-48.83-37.54-91.13-82.77-119.09-34.37-21.25-74.75-32.29-116.66-32.29Z"/>
        </g>
        <g>
          <path class="cls-11" d="M327.5,288.62c0-8.34,1.49-15.3,2.87-22.64,7.59-40.51,17.47-74.64,17.47-74.64l43.5,11.84c-9.51,28.23-15.25,54.14-18.48,71.59-2.58,13.96-2.59,22.62-2.59,22.62l-42.78-8.78Z"/>
          <path class="cls-16" d="M370.28,297.4s0-8.66,2.59-22.62c3.23-17.45,8.97-43.36,18.48-71.59l-14.67-3.99c-2.64,25.77-17.26,87.73-6.4,98.21Z"/>
          <path class="cls-13" d="M355.94,193.54l-8.1-2.2s-9.88,34.13-17.47,74.64c-1.38,7.34-2.87,14.3-2.87,22.64,10.7-42.3,21.85-77.07,28.44-95.08Z"/>
          <path class="cls-20" d="M370.28,297.4s-1.07-7.57,1.03-19.38c3.08-17.29,8.88-44.51,18.79-74.17l-41.58-11.32c-1.94,6.87-14.16,50.96-21.02,96.09,0,0-.96-5.14,1.39-19.98,7.6-41.37,17.9-77.16,18.02-77.57l.27-.92,45.42,12.36-.33.98c-16.88,50.13-21.94,93.47-21.99,93.9Z"/>
        </g>
        <g>
          <g>
            <path class="cls-3" d="M144.81,422.76c22.55,7.39,75.44,12.05,132.32,1.59,58.55-10.77,88.16-32.96,106.44-46.57-14.39,39.66-37.99,81.42-74.27,108.88-42.65,32.28-84.77,40.05-115.3,26.44-21.81-9.72-27.15-27.75-32.47-47.25-3.56-13.07-3.69-28.19-16.72-43.1Z"/>
            <path class="cls-12" d="M349.51,444.38c-5.12-15.63-19.91-26.93-37.35-26.93-21.69,0-39.28,17.46-39.28,39.01,0,17.25,11.27,31.88,26.89,37.03,3.17-2.14,6.35-4.41,9.53-6.81,15.68-11.87,28.98-26.4,40.21-42.29Z"/>
            <g>
              <g>
                <path class="cls-9" d="M295.5,458.08c-15.95-4.3-29.36,0-43.35,11.67-7.18-5.06-20.4-11.98-35.98-4.47-19.95,9.61-29.24,25.65-35.13,39.59,3.54,3.15,7.79,5.93,12.97,8.24,30.53,13.61,72.65,5.83,115.3-26.44,2.88-2.18,5.68-4.46,8.4-6.82-2.26-7.4-8.84-18.16-22.2-21.77Z"/>
                <path class="cls-15" d="M317.7,479.85c-2.26-7.4-8.84-18.16-22.2-21.77-15.95-4.3-29.36,0-43.35,11.67-7.18-5.06-20.4-11.98-35.98-4.47-19.95,9.61-29.24,25.65-35.13,39.59,3.54,3.15,7.79,5.93,12.97,8.24.12.06.25.11.37.16-1.4-11.93,5.53-27.77,13.04-34.95,8.56-8.17,18.67-11.92,28-9.27,8.41,2.39,8.09,9.14,8.42,12.6,5-5.1,13.36-12.43,24.64-16.28,11.28-3.85,24.25-4.12,32.3,7.19,4.76,6.69,3.11,14.08,1.08,19.49,2.48-1.72,4.97-3.51,7.45-5.39,2.88-2.18,5.68-4.46,8.4-6.82Z"/>
                <path class="cls-18" d="M225.6,520.46c-11.53,0-22.35-2.17-31.99-6.47-5.1-2.27-9.42-5.02-13.22-8.4l-.52-.46.27-.64c5.67-13.41,14.83-30.08,35.6-40.09,11.82-5.69,24.05-4.3,36.35,4.13,14.68-12.05,28.17-15.56,43.65-11.39h0c16.21,4.37,21.61,18.27,22.88,22.42l.18.61-.48.41c-2.9,2.5-5.66,4.75-8.45,6.86-20.91,15.83-41.97,26.12-62.57,30.6-7.43,1.61-14.7,2.42-21.72,2.42ZM182.21,504.6c3.52,3.04,7.51,5.53,12.19,7.62,31.8,14.18,73.47,4.58,114.32-26.33,2.6-1.97,5.18-4.05,7.86-6.36-1.5-4.5-6.79-16.59-21.34-20.51h0c-15.01-4.05-28.11-.51-42.47,11.47l-.57.48-.61-.43c-11.89-8.37-23.67-9.85-35-4.39-19.85,9.57-28.83,25.47-34.38,38.45Z"/>
              </g>
              <path class="cls-18" d="M243.84,481.65s1.89-6.94,7.63-12.6l1.37,1.38c-5.55,5.48-8.97,11.16-9,11.21Z"/>
            </g>
            <g>
              <g>
                <path class="cls-2" d="M183.5,452.83c7.6-1.41,15.2-15.05,18.82-22.47-11.2-.24-21.48-1-30.49-2.12.63,7.13,3.12,26.17,11.67,24.59Z"/>
                <path class="cls-14" d="M190.47,429.9c.52,7.25-2.23,16.97-7.94,23.02.32,0,.64-.03.98-.09,7.6-1.41,15.2-15.05,18.82-22.47-4.08-.09-8.04-.25-11.85-.46Z"/>
                <path class="cls-17" d="M182.51,453.9c-1.33,0-2.58-.44-3.73-1.31-5.38-4.09-7.27-16.95-7.92-24.25l-.11-1.2,1.19.15c9.45,1.17,19.67,1.88,30.39,2.11l1.52.03-.67,1.37c-3.88,7.96-11.57,21.52-19.52,23-.4.07-.79.11-1.17.11ZM172.92,429.36c.55,5.39,2.33,18.1,7.04,21.68,1.04.79,2.14,1.06,3.37.84h0c6.87-1.27,14.08-13.89,17.45-20.57-9.78-.25-19.13-.91-27.86-1.94Z"/>
              </g>
              <g>
                <path class="cls-2" d="M298.61,443.69c7.7-.73,11.39-18.73,12.76-27.77-8.57,2.71-17.99,5.18-28.35,7.29,2.26,7.02,7.82,21.22,15.59,20.49Z"/>
                <path class="cls-14" d="M311.36,415.92c-3.09.98-6.3,1.92-9.62,2.83,1.29,8.06.8,16.31-.98,24.25,6.25-3.49,9.36-18.93,10.6-27.08Z"/>
                <path class="cls-17" d="M298.02,444.69c-7.91,0-13.35-13.18-15.94-21.19l-.33-1.03,1.06-.22c9.82-2,19.33-4.44,28.25-7.26l1.49-.47-.23,1.54c-1.57,10.35-5.42,27.82-13.63,28.6h0c-.23.02-.45.03-.68.03ZM284.28,423.94c2.22,6.6,7.44,19.42,14.24,18.79,4.8-.45,9.12-9.91,11.64-25.41-8.22,2.54-16.92,4.77-25.88,6.63Z"/>
              </g>
              <g>
                <path class="cls-2" d="M188.75,478.11c-4.17-1.57-12.64,7.72-17.75,14,3.74,6.77,8.8,12.75,16.32,17.45,2.13-9.25,6.23-29.66,1.44-31.46Z"/>
                <path class="cls-14" d="M189.16,478.32c.05,9.55-4.29,18.15-7.95,26.7,1.84,1.62,3.86,3.14,6.11,4.55,2.07-8.97,5.99-28.44,1.85-31.24Z"/>
                <path class="cls-17" d="M187.96,511.11l-1.16-.72c-7.02-4.39-12.47-10.22-16.65-17.81l-.32-.57.41-.51c8.85-10.86,15.19-15.67,18.85-14.3,2.62.98,3.42,5.41,2.51,13.95-.68,6.4-2.19,13.67-3.34,18.64l-.31,1.33ZM172.17,492.21c3.74,6.6,8.5,11.77,14.51,15.78,4.53-20.13,3.79-28.2,1.73-28.97-2.59-.97-8.64,3.95-16.24,13.2Z"/>
              </g>
              <g>
                <path class="cls-2" d="M237.17,452.92c7.66-1.04,12.73-16.3,14.98-24.88-9.92,1.12-19.58,1.82-28.83,2.16,1.36,7.2,5.44,23.86,13.84,22.72Z"/>
                <path class="cls-14" d="M252.15,428.05c-3.25.37-6.47.69-9.66.97.43,8.24-.85,19.63-4.81,23.81,7.37-1.63,12.27-16.4,14.47-24.78Z"/>
                <path class="cls-17" d="M236.32,453.96c-8.23,0-12.26-14.62-13.96-23.57l-.21-1.11,1.13-.04c9.55-.35,19.23-1.07,28.75-2.15l1.41-.16-.36,1.37c-2.92,11.09-8.03,24.54-15.79,25.59h0c-.33.05-.66.07-.98.07ZM224.5,431.13c1.3,6.36,5.23,21.82,12.54,20.83h0c4.99-.68,9.99-8.96,13.81-22.79-8.74.96-17.59,1.62-26.35,1.96Z"/>
              </g>
              <g>
                <path class="cls-2" d="M339.63,429.11c5.49-2.47,6.13-18.1,6.04-27.09-6.51,3.3-13.76,6.55-21.87,9.6,3.11,6.85,10.01,20.11,15.83,17.49Z"/>
                <path class="cls-14" d="M345.67,402.02c-2.97,1.51-6.11,3-9.41,4.48,3.14,6.93,3.68,14.56,4.21,22.1,4.71-3.62,5.29-18.07,5.2-26.58Z"/>
                <path class="cls-17" d="M338.06,430.43c-5.54,0-11.19-9.72-15.14-18.41l-.43-.95.97-.37c7.52-2.83,14.85-6.05,21.77-9.56l1.4-.71.02,1.56c.12,11.36-.93,25.43-6.61,27.99h0c-.65.29-1.31.43-1.97.43ZM325.12,412.16c5.41,11.63,10.66,17.62,14.11,16.06h0c3.5-1.58,5.48-10.52,5.48-24.63-6.27,3.12-12.85,6-19.59,8.57Z"/>
              </g>
              <g>
                <path class="cls-2" d="M261.28,486.66c-6.23,1.01-10.63,20.3-12.46,30.04,10.1-2.35,20.58-6.21,31.27-11.62-3.71-6.24-12.4-19.46-18.81-18.42Z"/>
                <path class="cls-14" d="M262.41,486.63c4.79,6.64,7.14,14.72,8.24,22.85,3.12-1.33,6.27-2.79,9.44-4.39-3.5-5.88-11.41-17.96-17.67-18.46Z"/>
                <path class="cls-17" d="M247.58,517.99l.28-1.47c2.54-13.49,6.9-29.79,13.26-30.82,6.8-1.11,15.32,11.36,19.8,18.88l.53.89-.93.47c-10.59,5.36-21.19,9.3-31.49,11.7l-1.45.34ZM261.43,487.62c-3.87.63-8.09,10.98-11.38,27.79,9.39-2.32,19.01-5.92,28.66-10.72-6.88-11.35-13.31-17.71-17.28-17.06h0Z"/>
              </g>
              <g>
                <path class="cls-2" d="M297.44,467.61c-3.65,1.62-3.92,19.22-3.74,29.8,5.18-3.22,10.39-6.8,15.6-10.74,3.62-2.74,7.1-5.62,10.47-8.63-5.49-3.84-18.26-12.24-22.33-10.42Z"/>
                <path class="cls-14" d="M298.19,467.41c6.24,4.03,9.86,11.11,12.62,18.09,3.08-2.39,6.07-4.88,8.97-7.47-5.19-3.63-16.88-11.33-21.59-10.63Z"/>
                <path class="cls-17" d="M292.76,499.14l-.03-1.72c-.48-28.57,3.13-30.18,4.32-30.7h0c4.16-1.85,14.96,4.7,23.29,10.51l1.01.7-.92.82c-3.47,3.1-7.01,6.02-10.53,8.68-5.16,3.9-10.43,7.54-15.67,10.79l-1.46.91ZM297.84,468.5c-1.7.75-3.4,8.32-3.19,27.17,4.71-2.99,9.43-6.27,14.07-9.78,3.17-2.4,6.36-5,9.49-7.76-10.2-7.02-17.96-10.7-20.37-9.63h0Z"/>
              </g>
              <g>
                <path class="cls-2" d="M219.47,491.52c-4.95-1.34-12.94,14.55-17.44,24.58,8.74,2.68,18.26,3.79,28.33,3.27-1.57-8.61-5.45-26.38-10.89-27.85Z"/>
                <path class="cls-14" d="M230.36,519.37c-1.57-8.58-5.43-26.25-10.83-27.83,1.79,6.69,3.43,14.66,1.56,27.85,3.03.15,6.13.15,9.27-.02Z"/>
                <path class="cls-17" d="M225.54,520.47c-8.37,0-16.35-1.15-23.8-3.44l-1.05-.32.45-1c2.12-4.73,5.33-11.45,8.62-16.68,4.08-6.5,7.25-9.18,9.97-8.45,5.53,1.49,9.35,16.39,11.59,28.61l.2,1.09-1.1.06c-1.64.09-3.26.13-4.87.13ZM203.37,515.49c8.04,2.33,16.72,3.33,25.83,2.96-2.9-15.39-6.61-25.08-9.98-25.99h0c-2.33-.63-7.71,5.12-15.85,23.03Z"/>
              </g>
            </g>
            <path class="cls-20" d="M225.6,520.46c-11.53,0-22.35-2.17-31.99-6.47-22.71-10.13-27.95-29.32-33.01-47.88-.83-3.03-1.46-6.1-2.12-9.36-2.22-10.85-4.52-22.06-14.39-33.36l-2.33-2.67,3.36,1.1c20.28,6.64,72.13,12.54,131.84,1.56,58.1-10.69,87.97-32.94,105.82-46.23l2.82-2.1-1.11,3.05c-12.06,33.24-34.79,79.2-74.6,109.33-20.91,15.83-41.97,26.12-62.57,30.6-7.43,1.61-14.7,2.42-21.72,2.42ZM147.61,424.63c8.48,10.88,10.75,21.92,12.76,31.74.66,3.22,1.29,6.27,2.1,9.24,4.94,18.12,10.06,36.86,31.93,46.61,31.8,14.18,73.47,4.58,114.32-26.33,38.23-28.93,60.58-72.67,72.82-105.38-18.24,13.52-48.21,34.49-104.22,44.79-57.23,10.53-107.38,5.61-129.69-.68Z"/>
          </g>
          <path class="cls-20" d="M220.45,538.29c-1.2,0-2.4-.03-3.62-.08-5.09-.24-9.74-.94-13.85-1.86-11.03-2.34-15.48-7.39-15.48-7.39,5.86,2.86,36.64,16.23,67.64-1.91,0,0-3.88,4.63-15.23,8.6-6.23,1.76-12.73,2.65-19.46,2.65Z"/>
          <path class="cls-20" d="M144.51,423.68c-13.55-4.51-28.89-15.51-28.89-15.51.16.09,16.15,9.21,29.51,13.66l-.61,1.84Z"/>
        </g>
        <g>
          <g>
            <ellipse class="cls-10" cx="388.46" cy="107.17" rx="105.68" ry="83.98" transform="translate(231.55 478.33) rotate(-82.51)"/>
            <path class="cls-1" d="M455.8,38.76c23.69,68.41-1.26,122.43-44.23,148.08-25.73,15.37-67.82,14.12-97.6-24.66,11.93,26.97,33.76,46.23,60.7,49.77,45.99,6.05,89.44-35.96,97.05-93.83,3.93-29.9-2.47-58.17-15.92-79.36Z"/>
            <path d="M383.57,213.5c-3,0-6.01-.2-9.02-.59-22.54-2.96-42.27-16.78-55.55-38.9-13.24-22.05-18.48-49.72-14.77-77.92,3.71-28.2,15.93-53.58,34.42-71.45,18.55-17.93,41.18-26.18,63.72-23.21,22.54,2.96,42.27,16.78,55.55,38.9,13.24,22.05,18.48,49.72,14.77,77.92l-.96-.13.96.13c-3.71,28.2-15.93,53.58-34.42,71.45-16.07,15.54-35.21,23.8-54.7,23.8ZM393.35,2.78c-18.99,0-37.65,8.07-53.35,23.25-18.17,17.57-30.19,42.54-33.84,70.31-3.65,27.77,1.5,55,14.51,76.67,12.97,21.6,32.19,35.08,54.13,37.97,45.38,5.97,88.43-35.75,95.96-92.99,3.65-27.77-1.5-55-14.51-76.67-12.97-21.6-32.19-35.08-54.13-37.97-2.92-.38-5.84-.57-8.76-.57Z"/>
          </g>
          <g>
            <path class="cls-11" d="M471.72,118.12c-31.76-50.7-97.09-72.82-158.69-52.57C329.19,24.29,364.87-2.52,402.24,2.39c45.99,6.05,77.09,57.86,69.48,115.73Z"/>
            <path class="cls-13" d="M471.72,118.12c-4.15-67.76-34.76-99.59-70-106.26-25.68-4.86-63.77,7.26-88.69,53.69C329.19,24.29,364.87-2.52,402.24,2.39c45.99,6.05,77.09,57.86,69.48,115.73Z"/>
            <path class="cls-20" d="M472.33,120.93l-1.44-2.29c-31.8-50.76-96.59-72.21-157.56-52.16l-1.96.64.75-1.92c7.98-20.38,21.11-37.9,36.99-49.33,16.47-11.86,34.88-16.85,53.25-14.44,22.54,2.96,42.27,16.78,55.55,38.9,13.24,22.05,18.48,49.72,14.77,77.92l-.35,2.68ZM359.18,57.12h.17c15.29.02,30.27,2.44,44.52,7.19,14.22,4.74,27.31,11.67,38.91,20.59,11.15,8.58,20.66,18.81,28.3,30.42,2.99-26.84-2.24-53.02-14.84-74-12.97-21.6-32.19-35.08-54.13-37.97-35.68-4.69-70.59,19.61-87.41,60.64,14.53-4.56,29.49-6.87,44.47-6.87Z"/>
          </g>
          <g>
            <path class="cls-7" d="M430.35,141.41c-2.71,20.6-16.6,35.77-31.02,33.87-14.42-1.9-23.92-20.14-21.21-40.74,2.71-20.6,16.6-35.77,31.02-33.87,14.42,1.9,23.92,20.14,21.21,40.74Z"/>
            <path class="cls-19" d="M430.35,141.41c-2.71,20.6-16.6,35.77-31.02,33.87-14.42-1.9-23.92-20.14-21.21-40.74,5.2,32.73,41.83,32.9,52.24,6.87Z"/>
            <ellipse cx="403.93" cy="140.27" rx="26.33" ry="18.44" transform="translate(212.18 522.46) rotate(-82.51)"/>
            <path class="cls-10" d="M405.22,118.02c0,3.48-2.82,6.31-6.31,6.31s-6.31-2.82-6.31-6.31,2.82-6.31,6.31-6.31,6.31,2.82,6.31,6.31Z"/>
            <path class="cls-10" d="M410.47,158.2c0,1.25-1.02,2.27-2.27,2.27s-2.27-1.02-2.27-2.27,1.02-2.27,2.27-2.27,2.27,1.02,2.27,2.27Z"/>
            <path class="cls-8" d="M401.79,176.42c-.86,0-1.73-.06-2.59-.17-14.93-1.96-24.82-20.73-22.05-41.83,2.78-21.1,17.18-36.67,32.12-34.71,14.93,1.96,24.82,20.73,22.05,41.83l-.96-.13.96.13c-1.34,10.16-5.37,19.36-11.37,25.9-5.36,5.85-11.72,8.97-18.15,8.97ZM406.69,101.48c-13.02,0-25.13,14.27-27.61,33.19-2.64,20.04,6.5,37.83,20.37,39.65,6.65.87,13.42-2.03,19.06-8.19,5.73-6.25,9.59-15.07,10.87-24.84,2.64-20.04-6.5-37.83-20.37-39.65-.77-.1-1.55-.15-2.32-.15Z"/>
          </g>
        </g>
      </g>
    </g>
  </g>
</svg>