<?xml version="1.0" encoding="UTF-8"?>
<svg id="Livello_2" data-name="Livello 2" xmlns="http://www.w3.org/2000/svg" viewBox="0 0 105.4 105.4">
  <defs>
    <style>
      .cls-1 {
        fill: #9eb3d7;
      }

      .cls-1, .cls-2, .cls-3 {
        fill-rule: evenodd;
      }

      .cls-2 {
        fill: #406495;
      }

      .cls-3 {
        fill: #688bc4;
      }
    </style>
  </defs>
  <g id="OBJECTS">
    <g>
      <path class="cls-3" d="M37.69,2.2C9.8,10.48-6.09,39.81,2.2,67.71c8.29,27.89,37.62,43.79,65.51,35.5,27.89-8.29,43.79-37.62,35.5-65.51C94.92,9.8,65.59-6.09,37.69,2.2Z"/>
      <path class="cls-2" d="M96.3,43.05c0,27.7-22.45,50.15-50.15,50.15-19.18,0-35.84-10.77-44.28-26.59,6.1,22.35,26.55,38.78,50.83,38.78,29.1,0,52.69-23.59,52.69-52.69,0-17.2-8.24-32.47-20.98-42.08,7.42,8.74,11.9,20.06,11.9,32.43Z"/>
      <path class="cls-1" d="M13.95,42.26c-.61,2.07-2.78,3.25-4.84,2.64-2.07-.61-3.25-2.77-2.64-4.84,1.93-6.48,5.19-12.44,9.46-17.58,4.33-5.21,9.68-9.57,15.71-12.76,1.91-1,4.27-.27,5.27,1.63,1,1.9.27,4.26-1.64,5.27-5.14,2.72-9.69,6.42-13.36,10.83-3.6,4.33-6.35,9.35-7.97,14.8h0ZM45.95,12.67c-2.1.47-4.19-.85-4.66-2.95-.47-2.1.85-4.19,2.95-4.66,1.03-.23,2.12-.44,3.25-.62,1.08-.17,2.17-.31,3.26-.41,2.14-.19,4.04,1.39,4.23,3.53.19,2.14-1.39,4.04-3.53,4.23-.93.09-1.86.2-2.78.34-.88.14-1.79.32-2.73.53Z"/>
      <path class="cls-2" d="M93.44,55.65c4.79,0,8.71-3.91,8.71-8.71s-3.91-8.71-8.71-8.71-8.71,3.91-8.71,8.71,3.91,8.71,8.71,8.71Z"/>
      <path class="cls-2" d="M85.59,65.83c2.28,0,4.14-1.86,4.14-4.14s-1.86-4.14-4.14-4.14-4.14,1.86-4.14,4.14,1.86,4.14,4.14,4.14Z"/>
      <path class="cls-2" d="M94.69,35.74c1.5,0,2.71-1.22,2.71-2.71s-1.22-2.71-2.71-2.71-2.71,1.22-2.71,2.71,1.22,2.71,2.71,2.71Z"/>
      <path class="cls-3" d="M57.19,85.07c4.25,2.58,5.61,8.11,3.04,12.36-2.57,4.25-8.11,5.61-12.36,3.04-4.25-2.57-5.61-8.11-3.04-12.36,2.58-4.25,8.11-5.61,12.36-3.04Z"/>
      <path class="cls-3" d="M41.19,95.12c1.22.74,1.61,2.33.87,3.55-.74,1.22-2.33,1.61-3.55.87-1.22-.74-1.61-2.33-.87-3.55.74-1.22,2.33-1.61,3.55-.87Z"/>
      <path class="cls-3" d="M65.63,91.88c.61.37.81,1.16.44,1.77-.37.61-1.16.81-1.78.44-.61-.37-.81-1.17-.44-1.78.37-.61,1.17-.81,1.78-.43Z"/>
      <path class="cls-2" d="M83.26,72.24c.92,0,1.68-.75,1.68-1.68s-.75-1.67-1.68-1.67-1.67.75-1.67,1.67.75,1.68,1.67,1.68Z"/>
      <path class="cls-2" d="M26.71,80.55c5.55,0,10.07-4.53,10.07-10.08s-4.53-10.08-10.07-10.08-10.08,4.53-10.08,10.08,4.53,10.08,10.08,10.08Z"/>
      <path class="cls-3" d="M26.71,76.9c3.54,0,6.43-2.89,6.43-6.43s-2.89-6.43-6.43-6.43-6.43,2.89-6.43,6.43,2.89,6.43,6.43,6.43Z"/>
      <path class="cls-2" d="M81.79,8.77c-1.69,3.18-5.04,5.34-8.89,5.34-5.57,0-10.08-4.51-10.08-10.08,0-1.03.15-2.02.44-2.96,6.63,1.36,12.92,3.99,18.53,7.7Z"/>
      <path class="cls-3" d="M79.23,7.19c-1.16,2.33-3.56,3.93-6.34,3.93-3.91,0-7.08-3.17-7.08-7.08,0-.79.13-1.56.37-2.27,4.58,1.22,8.97,3.05,13.04,5.42Z"/>
      <path class="cls-2" d="M55.86,87.27c3.04,1.84,4.01,5.79,2.17,8.83-1.84,3.04-5.79,4.01-8.83,2.17-3.04-1.84-4.01-5.79-2.17-8.83,1.84-3.04,5.79-4.01,8.83-2.17Z"/>
      <path class="cls-3" d="M70.34,91.38c2.68,0,4.87-2.19,4.87-4.87s-2.19-4.87-4.87-4.87-4.87,2.19-4.87,4.87,2.19,4.87,4.87,4.87Z"/>
      <path class="cls-2" d="M70.34,89.36c1.57,0,2.85-1.28,2.85-2.85s-1.28-2.85-2.85-2.85-2.85,1.28-2.85,2.85,1.28,2.85,2.85,2.85Z"/>
      <path class="cls-1" d="M24.64,39.28c5.61,0,10.18-4.57,10.18-10.18s-4.57-10.18-10.18-10.18-10.18,4.57-10.18,10.18,4.57,10.18,10.18,10.18Z"/>
      <path class="cls-3" d="M24.64,34.62c3.04,0,5.52-2.48,5.52-5.52s-2.48-5.52-5.52-5.52-5.52,2.48-5.52,5.52,2.48,5.52,5.52,5.52Z"/>
      <path class="cls-2" d="M43.09,69.58c1.57,0,2.85-1.28,2.85-2.85s-1.28-2.85-2.85-2.85-2.85,1.28-2.85,2.85,1.28,2.85,2.85,2.85Z"/>
      <path class="cls-2" d="M12.54,73.33c1.19,0,2.15-.97,2.15-2.15s-.97-2.15-2.15-2.15-2.15.97-2.15,2.15.97,2.15,2.15,2.15Z"/>
      <path class="cls-2" d="M79.81,21.18c1.19,0,2.15-.97,2.15-2.16s-.97-2.15-2.15-2.15-2.16.97-2.16,2.15.97,2.16,2.16,2.16Z"/>
      <path class="cls-2" d="M76.1,52.47c2.18,0,3.96-1.78,3.96-3.96s-1.78-3.96-3.96-3.96-3.96,1.78-3.96,3.96,1.78,3.96,3.96,3.96Z"/>
      <path class="cls-1" d="M40.07,28.16c2.18,0,3.96-1.78,3.96-3.96s-1.78-3.96-3.96-3.96-3.96,1.78-3.96,3.96,1.78,3.96,3.96,3.96Z"/>
    </g>
  </g>
</svg>