<?xml version="1.0" encoding="UTF-8"?>
<svg id="Livello_2" data-name="Livello 2" xmlns="http://www.w3.org/2000/svg" viewBox="0 0 130.94 130.94">
  <defs>
    <style>
      .cls-1 {
        fill: #cd5040;
      }

      .cls-1, .cls-2, .cls-3, .cls-4, .cls-5 {
        fill-rule: evenodd;
      }

      .cls-2, .cls-6 {
        fill: #fcd567;
      }

      .cls-3 {
        fill: #f3b36c;
      }

      .cls-4 {
        fill: #3a2123;
      }

      .cls-5 {
        fill: #ec7449;
      }
    </style>
  </defs>
  <g id="OBJECTS">
    <g>
      <path class="cls-4" d="M46.83,2.73C12.18,13.03-7.57,49.46,2.73,84.11c10.3,34.65,46.73,54.4,81.38,44.1,34.65-10.29,54.39-46.73,44.1-81.38C117.92,12.18,81.48-7.57,46.83,2.73Z"/>
      <path class="cls-2" d="M50.56,15.28C22.84,23.52,7.05,52.67,15.28,80.38c8.24,27.72,37.38,43.51,65.1,35.27,27.72-8.23,43.51-37.38,35.27-65.1C107.42,22.84,78.28,7.05,50.56,15.28Z"/>
      <path class="cls-5" d="M51.87,19.69c-25.28,7.51-39.69,34.1-32.18,59.38,7.51,25.29,34.1,39.69,59.38,32.18,25.29-7.51,39.69-34.1,32.18-59.38-7.51-25.29-34.1-39.69-59.38-32.18Z"/>
      <path class="cls-1" d="M104.99,56.72c0,25.11-20.35,45.46-45.46,45.46-17.39,0-32.49-9.76-40.14-24.1,5.53,20.26,24.07,35.15,46.08,35.15,26.38,0,47.76-21.38,47.76-47.76,0-15.59-7.47-29.43-19.02-38.15,6.73,7.93,10.78,18.19,10.78,29.4Z"/>
      <path class="cls-2" d="M30.35,56.01c-.55,1.87-2.52,2.94-4.39,2.39-1.87-.55-2.94-2.52-2.39-4.39,1.75-5.87,4.71-11.28,8.58-15.94,3.92-4.72,8.77-8.67,14.24-11.57,1.73-.91,3.87-.25,4.77,1.48.91,1.73.25,3.87-1.48,4.78-4.66,2.46-8.79,5.82-12.11,9.82-3.26,3.92-5.75,8.48-7.22,13.42h0ZM59.35,29.18c-1.9.43-3.79-.77-4.22-2.67-.43-1.9.77-3.79,2.67-4.22.94-.21,1.92-.4,2.95-.56.98-.15,1.96-.28,2.96-.37,1.94-.17,3.66,1.26,3.83,3.2.18,1.94-1.26,3.66-3.2,3.83-.85.08-1.69.18-2.52.31-.8.13-1.63.29-2.48.48Z"/>
      <path class="cls-1" d="M58.28,108.66c4,0,7.27-3.26,7.27-7.26s-3.26-7.27-7.27-7.27-7.27,3.26-7.27,7.27,3.26,7.26,7.27,7.26Z"/>
      <path class="cls-1" d="M69.49,98.45c2.36,0,4.29-1.93,4.29-4.29s-1.93-4.29-4.29-4.29-4.29,1.93-4.29,4.29,1.93,4.29,4.29,4.29Z"/>
      <path class="cls-1" d="M48.36,98.39c.84,0,1.52-.68,1.52-1.52s-.68-1.52-1.52-1.52-1.52.68-1.52,1.52.68,1.52,1.52,1.52Z"/>
      <path class="cls-1" d="M102.4,68.65c4.62,0,8.39-3.77,8.39-8.39s-3.77-8.39-8.39-8.39-8.39,3.77-8.39,8.39,3.77,8.39,8.39,8.39Z"/>
      <path class="cls-5" d="M102.4,65.26c2.75,0,5-2.25,5-5s-2.25-5-5-5-5,2.25-5,5,2.25,5,5,5Z"/>
      <path class="cls-1" d="M95.29,77.37c2.07,0,3.75-1.68,3.75-3.75s-1.68-3.75-3.75-3.75-3.75,1.69-3.75,3.75,1.68,3.75,3.75,3.75Z"/>
      <path class="cls-1" d="M103.53,50.1c1.35,0,2.46-1.11,2.46-2.46s-1.11-2.46-2.46-2.46-2.46,1.11-2.46,2.46,1.11,2.46,2.46,2.46Z"/>
      <path class="cls-5" d="M89.62,99.64c4.49,0,8.16-3.66,8.16-8.16s-3.67-8.16-8.16-8.16-8.16,3.67-8.16,8.16,3.66,8.16,8.16,8.16Z"/>
      <path class="cls-5" d="M81.92,103.31c1.29,0,2.34-1.05,2.34-2.34s-1.05-2.34-2.34-2.34-2.34,1.05-2.34,2.34,1.05,2.34,2.34,2.34Z"/>
      <path class="cls-5" d="M99.35,86.98c.65,0,1.17-.53,1.17-1.17s-.53-1.17-1.17-1.17-1.17.52-1.17,1.17.53,1.17,1.17,1.17Z"/>
      <path class="cls-1" d="M93.18,83.19c.84,0,1.52-.68,1.52-1.52s-.68-1.52-1.52-1.52-1.52.68-1.52,1.52.68,1.52,1.52,1.52Z"/>
      <path class="cls-3" d="M28.22,70.58c.84,0,1.52-.68,1.52-1.52s-.68-1.52-1.52-1.52-1.52.68-1.52,1.52.68,1.52,1.52,1.52Z"/>
      <path class="cls-2" d="M39.88,88.53c5.03,0,9.13-4.1,9.13-9.13s-4.1-9.13-9.13-9.13-9.13,4.1-9.13,9.13,4.1,9.13,9.13,9.13Z"/>
      <path class="cls-5" d="M39.88,85.81c3.53,0,6.42-2.88,6.42-6.42s-2.88-6.42-6.42-6.42-6.41,2.88-6.41,6.42,2.88,6.42,6.41,6.42Z"/>
      <path class="cls-2" d="M86.5,49.18c1.87,0,3.4-1.53,3.4-3.4s-1.53-3.4-3.4-3.4-3.4,1.53-3.4,3.4,1.53,3.4,3.4,3.4Z"/>
      <path class="cls-2" d="M57.62,57.21c1.87,0,3.4-1.53,3.4-3.4s-1.53-3.4-3.4-3.4-3.4,1.53-3.4,3.4,1.53,3.4,3.4,3.4Z"/>
      <circle class="cls-6" cx="58.01" cy="33.73" r="1.7"/>
      <path class="cls-2" d="M71.1,70.09c2.56,0,4.65-2.09,4.65-4.65s-2.09-4.65-4.65-4.65-4.65,2.09-4.65,4.65,2.09,4.65,4.65,4.65Z"/>
      <path class="cls-2" d="M91.84,25.65c-1.54,2.88-4.57,4.84-8.06,4.84-5.04,0-9.13-4.09-9.13-9.13,0-.93.14-1.83.4-2.68,6.01,1.23,11.71,3.62,16.79,6.98Z"/>
      <path class="cls-5" d="M89.52,24.21c-1.05,2.11-3.23,3.56-5.75,3.56-3.54,0-6.42-2.87-6.42-6.42,0-.72.12-1.41.34-2.06,4.15,1.1,8.13,2.76,11.82,4.92Z"/>
    </g>
  </g>
</svg>