<?xml version="1.0" encoding="UTF-8"?>
<svg id="Livello_2" data-name="Livello 2" xmlns="http://www.w3.org/2000/svg" viewBox="0 0 105.4 105.4">
  <defs>
    <style>
      .cls-1 {
        fill: #75c7d2;
      }

      .cls-1, .cls-2, .cls-3, .cls-4, .cls-5, .cls-6 {
        fill-rule: evenodd;
      }

      .cls-2 {
        fill: #2e923a;
      }

      .cls-3 {
        fill: #33a638;
      }

      .cls-4 {
        fill: #53b233;
      }

      .cls-5 {
        fill: #a5d9e7;
      }

      .cls-6 {
        fill: #54b9c3;
      }
    </style>
  </defs>
  <g id="OBJECTS">
    <g>
      <path class="cls-1" d="M37.7,2.2C9.8,10.48-6.09,39.81,2.2,67.71c8.29,27.89,37.62,43.79,65.51,35.5,27.89-8.29,43.79-37.62,35.5-65.51C94.92,9.8,65.59-6.09,37.7,2.2Z"/>
      <path class="cls-6" d="M96.3,43.05c0,27.7-22.45,50.15-50.15,50.15-19.18,0-35.84-10.77-44.28-26.59,6.1,22.35,26.55,38.78,50.83,38.78,29.1,0,52.69-23.59,52.69-52.69,0-17.2-8.24-32.47-20.98-42.08,7.42,8.74,11.89,20.07,11.89,32.43Z"/>
      <path class="cls-5" d="M13.95,42.26c-.61,2.07-2.77,3.25-4.84,2.64-2.07-.61-3.25-2.77-2.64-4.84,1.93-6.48,5.19-12.44,9.46-17.58,4.33-5.21,9.68-9.57,15.71-12.76,1.91-1,4.26-.27,5.27,1.63,1,1.91.27,4.26-1.63,5.27-5.14,2.72-9.69,6.42-13.36,10.83-3.6,4.33-6.35,9.35-7.97,14.81h0ZM45.95,12.67c-2.1.47-4.18-.85-4.66-2.95-.47-2.1.85-4.19,2.95-4.66,1.03-.23,2.12-.44,3.25-.62,1.08-.17,2.17-.31,3.26-.41,2.14-.19,4.04,1.39,4.23,3.53.19,2.14-1.39,4.04-3.53,4.23-.94.09-1.86.2-2.77.35-.88.14-1.79.31-2.73.52Z"/>
      <path class="cls-3" d="M77.63,99.13c2.27-1.91,6.1-4.16,6.1-5.83,0-2.15-.17-5.46,2.38-7.21,2.56-1.74,5.46-2.67,5.46-5s-.23-4.68,1.05-7.03c1.28-2.36,1.98-1.8,1.98-3.75s-.55-2.59-1.86-2.62c-1.31-.03-1.83-1.31-1.83-1.31-1.51-3.43-3.72-1.28-6.28-3.43-2.56-2.15-4.44-6.66-7.91-6.66s-3.52.2-4.68-.65c-1.17-.85-1.51-1.73-2.33-2.75-.82-1.02-1.34-1.05-3.5-1.05s-2.31-1.91-3.6-1.91h-3.34c-1.83,0-2.11.45-3.63,2.07-1.53,1.62-2.83,2.33-4.12,1.98-1.29-.35-2.2-1.14-2.2-2.31v-2.91c0-1.92-.44-2.25-1.51-2.83-1.07-.58-1.98-1.42-.75-2.69s2.09-2.71,1.34-2.71h-3.74c-1.69,0-2.45.13-3.22.91-.76.78-1.53,1.98-2.05,1.85-.53-.13-.98-1.14-.8-1.65.18-.51,1.6-5.49,3.49-6.98,1.89-1.49,3.74-.76,4.54,0,.8.76.91,3.63,3.52,2.83,2.62-.8,3.49-6.69,5.23-8.28,1.74-1.6,6.69-.65,9.81-5.09,3.12-4.43,4.76-8.03,6.76-8.03h5.41c3.2,0,4.29-.84,4.29-3.82,0-1.57.97-1.98,1.89-2.29-1.95-1.41-3.99-2.68-6.11-3.8-.54.19-1.11.54-1.67,1.19-1.44,1.65-2.85,2.63-4,2.12-1.14-.51-1.27-1.04-2.62-1.04s-2.27.75-2.78,1.73c-.51.98-1.56,2.54-2.6,2.54s-1.34-.44-1.34-.93v-2.29c0-.95-.33-2.14-2.29-2.14s-3.38-.44-2.43-1.75c.8-1.11,1.89-3.97,4.24-4.81-7.83-1.4-16.11-1.05-24.26,1.37-11.45,3.4-20.88,10.36-27.45,19.3,1.9,3.35,3.5,5.88,4.24,6.44,2.62,1.94,4.5,4.6,7.94,4.6s6.15.39,6.15,3.73-1.36,3.34-1.36,5.91,1.31,3.22,2.91,3.22h6.42c3.78,0,3.17,2.11,5.98,2.11s2.69,2.3,3.58,4.02c.9,1.72,2.03,4.1,4.99,4.1s2.44,2.5.82,5.06c-1.63,2.56-4.01,5.23-4.01,7.91s-.12,4.48,3.37,4.48.93,4.53,5.17,4.53,3.89,2.85,3.89,6.16,1.8,2.91,1.8,5.12v5.81c0,2.91.06,4.54,1.86,6.22.7.65,1.13,1.68,1.45,2.9.74-.19,1.49-.39,2.23-.61,3.51-1.04,6.82-2.42,9.93-4.08Z"/>
      <path class="cls-2" d="M77.64,99.12c2.27-1.91,6.1-4.16,6.1-5.82,0-2.15-.17-5.46,2.38-7.21,2.56-1.74,5.46-2.67,5.46-5s-.23-4.68,1.05-7.03c1.28-2.36,1.98-1.8,1.98-3.75s-.55-2.59-1.86-2.62c-1.31-.03-1.83-1.31-1.83-1.31-.06-.13-.12-.25-.17-.36-5.93,11.49-16.17,20.39-28.57,24.57v4.11c0,2.91.06,4.54,1.86,6.22.7.65,1.13,1.68,1.45,2.9.74-.19,1.49-.39,2.23-.61,2.96-.88,5.78-2,8.46-3.32l.15-.07c.2-.1.4-.2.6-.3.25-.13.49-.26.73-.39Z"/>
      <path class="cls-4" d="M13.11,26.22c.88-1.29,1.83-2.54,2.83-3.74,4.33-5.21,9.68-9.57,15.71-12.76,1.91-1,4.26-.27,5.27,1.63,1,1.91.27,4.26-1.63,5.27-5.14,2.72-9.69,6.42-13.36,10.83-1.07,1.29-2.06,2.64-2.98,4.04-1.56-.95-2.87-2.39-4.46-3.57-.32-.24-.79-.84-1.38-1.71h0ZM45.95,12.67c-2.1.47-4.18-.85-4.66-2.95-.47-2.1.85-4.19,2.95-4.66,1.03-.23,2.12-.44,3.25-.62,1.08-.17,2.17-.31,3.26-.41,2.14-.19,4.04,1.39,4.23,3.53.19,2.14-1.39,4.04-3.53,4.23-.94.09-1.86.2-2.77.35-.88.14-1.79.31-2.73.52Z"/>
      <path class="cls-6" d="M32.95,95.13c3.42,0,6.21-2.79,6.21-6.2s-2.79-6.21-6.21-6.21-6.21,2.79-6.21,6.21,2.79,6.2,6.21,6.2Z"/>
      <path class="cls-6" d="M22.43,83.84c1.9,0,3.45-1.55,3.45-3.45s-1.55-3.45-3.45-3.45-3.45,1.55-3.45,3.45,1.55,3.45,3.45,3.45Z"/>
      <path class="cls-6" d="M45.14,91.85c.88,0,1.59-.72,1.59-1.59s-.72-1.59-1.59-1.59-1.59.72-1.59,1.59.72,1.59,1.59,1.59Z"/>
      <path class="cls-6" d="M90.5,61.03c.88,0,1.6-.72,1.6-1.59s-.72-1.59-1.6-1.59-1.59.72-1.59,1.59.72,1.59,1.59,1.59Z"/>
      <path class="cls-6" d="M94.92,42.08c3.8,0,6.89-3.1,6.89-6.89s-3.1-6.89-6.89-6.89-6.89,3.1-6.89,6.89,3.1,6.89,6.89,6.89Z"/>
      <path class="cls-6" d="M88.71,50.74c1.9,0,3.45-1.55,3.45-3.45s-1.55-3.45-3.45-3.45-3.45,1.55-3.45,3.45,1.55,3.45,3.45,3.45Z"/>
    </g>
  </g>
</svg>