<?xml version="1.0" encoding="UTF-8"?>
<svg id="Livello_2" data-name="Livello 2" xmlns="http://www.w3.org/2000/svg" viewBox="0 0 105.4 105.4">
  <defs>
    <style>
      .cls-1 {
        fill: #7b9186;
      }

      .cls-1, .cls-2, .cls-3 {
        fill-rule: evenodd;
      }

      .cls-2 {
        fill: #c5dcbd;
      }

      .cls-3 {
        fill: #a1b9a5;
      }
    </style>
  </defs>
  <g id="OBJECTS">
    <g>
      <path class="cls-3" d="M37.69,2.2C9.8,10.48-6.09,39.81,2.2,67.71c8.29,27.89,37.62,43.79,65.51,35.5,27.89-8.29,43.79-37.62,35.5-65.51C94.92,9.8,65.59-6.09,37.69,2.2Z"/>
      <path class="cls-1" d="M96.3,43.05c0,27.7-22.45,50.15-50.15,50.15-19.18,0-35.84-10.77-44.28-26.59,6.1,22.35,26.55,38.78,50.83,38.78,29.1,0,52.69-23.59,52.69-52.69,0-17.2-8.24-32.47-20.98-42.08,7.42,8.74,11.9,20.07,11.9,32.43Z"/>
      <path class="cls-2" d="M13.95,42.26c-.61,2.07-2.77,3.25-4.84,2.64-2.07-.61-3.25-2.77-2.64-4.84,1.93-6.48,5.19-12.44,9.47-17.58,4.33-5.21,9.68-9.57,15.71-12.76,1.91-1,4.27-.27,5.27,1.63,1,1.91.27,4.26-1.63,5.27-5.14,2.72-9.69,6.42-13.36,10.83-3.6,4.33-6.35,9.35-7.97,14.81h0ZM45.95,12.67c-2.1.47-4.19-.85-4.66-2.95-.47-2.1.85-4.19,2.95-4.66,1.03-.23,2.12-.44,3.25-.62,1.08-.17,2.17-.31,3.26-.41,2.14-.19,4.04,1.39,4.23,3.53.19,2.14-1.39,4.04-3.53,4.23-.93.09-1.86.2-2.78.35-.88.14-1.79.31-2.73.52Z"/>
      <path class="cls-1" d="M44.77,100.35c4.42,0,8.02-3.6,8.02-8.02s-3.6-8.02-8.02-8.02-8.01,3.6-8.01,8.02,3.6,8.02,8.01,8.02Z"/>
      <path class="cls-1" d="M57.14,89.09c2.61,0,4.73-2.12,4.73-4.73s-2.13-4.73-4.73-4.73-4.73,2.12-4.73,4.73,2.12,4.73,4.73,4.73Z"/>
      <path class="cls-1" d="M33.83,89.01c.92,0,1.68-.75,1.68-1.68s-.75-1.68-1.68-1.68-1.68.75-1.68,1.68.75,1.68,1.68,1.68Z"/>
      <path class="cls-1" d="M93.44,56.2c5.1,0,9.25-4.16,9.25-9.25s-4.16-9.25-9.25-9.25-9.25,4.16-9.25,9.25,4.16,9.25,9.25,9.25Z"/>
      <path class="cls-3" d="M93.44,52.47c3.04,0,5.52-2.48,5.52-5.52s-2.48-5.52-5.52-5.52-5.52,2.48-5.52,5.52,2.48,5.52,5.52,5.52Z"/>
      <path class="cls-1" d="M85.59,65.83c2.28,0,4.14-1.86,4.14-4.14s-1.86-4.14-4.14-4.14-4.14,1.86-4.14,4.14,1.86,4.14,4.14,4.14Z"/>
      <path class="cls-1" d="M94.69,35.74c1.5,0,2.72-1.22,2.72-2.71s-1.22-2.72-2.72-2.72-2.72,1.22-2.72,2.72,1.22,2.71,2.72,2.71Z"/>
      <path class="cls-3" d="M79.34,90.39c4.96,0,9-4.04,9-9s-4.04-9-9-9-9,4.04-9,9,4.04,9,9,9Z"/>
      <path class="cls-3" d="M70.85,94.44c1.42,0,2.59-1.16,2.59-2.59s-1.16-2.58-2.59-2.58-2.59,1.16-2.59,2.58,1.16,2.59,2.59,2.59Z"/>
      <path class="cls-3" d="M90.08,76.43c.71,0,1.29-.58,1.29-1.29s-.58-1.29-1.29-1.29-1.29.58-1.29,1.29.58,1.29,1.29,1.29Z"/>
      <path class="cls-1" d="M83.27,72.24c.92,0,1.68-.75,1.68-1.67s-.75-1.68-1.68-1.68-1.68.75-1.68,1.68.75,1.67,1.68,1.67Z"/>
      <path class="cls-2" d="M19.31,42.42c.92,0,1.68-.75,1.68-1.67s-.75-1.68-1.68-1.68-1.68.75-1.68,1.68.75,1.67,1.68,1.67Z"/>
      <path class="cls-2" d="M27.06,71.24c5.55,0,10.08-4.53,10.08-10.08s-4.53-10.08-10.08-10.08-10.08,4.53-10.08,10.08,4.53,10.08,10.08,10.08Z"/>
      <path class="cls-3" d="M27.06,68.24c3.9,0,7.08-3.18,7.08-7.08s-3.18-7.08-7.08-7.08-7.08,3.18-7.08,7.08,3.18,7.08,7.08,7.08Z"/>
      <path class="cls-2" d="M26.5,48.51c2.07,0,3.75-1.69,3.75-3.75s-1.69-3.75-3.75-3.75-3.75,1.69-3.75,3.75,1.69,3.75,3.75,3.75Z"/>
      <path class="cls-2" d="M61.8,25.32c2.07,0,3.75-1.69,3.75-3.75s-1.69-3.75-3.75-3.75-3.75,1.69-3.75,3.75,1.69,3.75,3.75,3.75Z"/>
      <path class="cls-2" d="M44.48,19.56c1.03,0,1.88-.84,1.88-1.88s-.84-1.88-1.88-1.88-1.88.84-1.88,1.88.84,1.88,1.88,1.88Z"/>
      <path class="cls-2" d="M58.91,57.8c2.82,0,5.13-2.3,5.13-5.13s-2.3-5.13-5.13-5.13-5.13,2.3-5.13,5.13,2.3,5.13,5.13,5.13Z"/>
    </g>
  </g>
</svg>