<?xml version="1.0" encoding="UTF-8"?>
<svg id="Livello_2" data-name="Livello 2" xmlns="http://www.w3.org/2000/svg" viewBox="0 0 105.42 105.4">
  <defs>
    <style>
      .cls-1 {
        fill: #b14623;
      }

      .cls-1, .cls-2, .cls-3, .cls-4, .cls-5, .cls-6, .cls-7, .cls-8, .cls-9, .cls-10, .cls-11, .cls-12 {
        fill-rule: evenodd;
      }

      .cls-2 {
        fill: #b58a5a;
      }

      .cls-3 {
        fill: #ffebbc;
      }

      .cls-4 {
        fill: #dabd86;
      }

      .cls-5 {
        fill: #481c0e;
      }

      .cls-6 {
        fill: #d2b07f;
      }

      .cls-7 {
        fill: #e0590f;
      }

      .cls-8 {
        fill: #6e271a;
      }

      .cls-9 {
        fill: #f8e2ae;
      }

      .cls-10 {
        fill: #f6b879;
      }

      .cls-11 {
        fill: #eccd94;
      }

      .cls-12 {
        fill: #c09d6d;
      }
    </style>
  </defs>
  <g id="OBJECTS">
    <g>
      <path class="cls-11" d="M37.69,2.2C9.8,10.48-6.09,39.81,2.2,67.71c8.29,27.89,37.62,43.79,65.51,35.5,27.89-8.29,43.79-37.62,35.5-65.51C94.92,9.8,65.59-6.09,37.69,2.2Z"/>
      <path class="cls-11" d="M13.59,41.83c-.61,2.07-2.77,3.25-4.84,2.64-2.07-.61-3.25-2.78-2.64-4.84,1.93-6.48,5.19-12.44,9.47-17.58,4.33-5.21,9.68-9.57,15.71-12.76,1.91-1,4.27-.27,5.27,1.63,1,1.91.27,4.26-1.63,5.27-5.14,2.72-9.69,6.42-13.36,10.83-3.6,4.33-6.35,9.35-7.97,14.8h0ZM45.59,12.24c-2.1.47-4.19-.85-4.66-2.95-.47-2.1.85-4.19,2.95-4.66,1.03-.23,2.12-.44,3.25-.62,1.08-.17,2.17-.31,3.26-.41,2.14-.19,4.04,1.39,4.23,3.53.19,2.14-1.39,4.04-3.53,4.23-.93.08-1.86.2-2.78.34-.88.14-1.79.31-2.73.53Z"/>
      <path class="cls-12" d="M96.3,43.05c0,27.7-22.45,50.15-50.15,50.15-19.18,0-35.84-10.77-44.28-26.58,6.1,22.35,26.55,38.78,50.83,38.78,29.1,0,52.69-23.59,52.69-52.69,0-17.2-8.24-32.47-20.98-42.09,7.42,8.74,11.9,20.06,11.9,32.43Z"/>
      <path class="cls-3" d="M1.55,40.13c5.95-1.75,14.08-4.2,20.09-6.25,10.67-3.65,16.16-10.67,23.24-12.96,5.09-1.64,26.68-7.77,38.47-11.1,5.84,4.17,10.82,9.53,14.56,15.75-10.52,6.58-35.4,20.3-41.74,22.37-7.87,2.57-37.58,10.3-39.52,9.96-1.04-.19-9.78.48-16.49-1.6-.39-5.57.11-11.01,1.38-16.17Z"/>
      <path class="cls-9" d="M5.5,76.12c15.38-4.65,39.24-11.74,44.74-12.65,8.27-1.38,26.72-1.2,39.99-5.17,5.27-1.58,10.62-3.78,15.16-5.86.03,5.79-.9,11.46-2.68,16.83-10.03,3.37-28.43,9.23-36.62,9.72-7.64.46-31.11,8.9-46.48,14.72-5.81-4.68-10.68-10.63-14.12-17.59Z"/>
      <path class="cls-6" d="M5.5,76.12l2.34-.71c5.6,6.62,12.88,11.77,21.19,14.79-3.32,1.22-6.51,2.41-9.42,3.51-5.18-4.18-9.54-9.32-12.83-15.15l-.08-.14c-.1-.18-.2-.37-.31-.56-.31-.57-.61-1.15-.9-1.74h0ZM94.34,56.95c3.88-1.37,7.68-2.97,11.04-4.51v.26c0,3.15-.27,6.23-.8,9.22l-.05.27c-.05.25-.09.5-.14.75-.43,2.15-.99,4.26-1.67,6.32-4.72,1.59-11.3,3.73-17.8,5.6,4.27-5.2,7.52-11.27,9.43-17.91Z"/>
      <path class="cls-8" d="M1.69,52.71s18.24-6.18,25.09-8.4c6.85-2.22,11.83-12,19.74-15.14,6.97-2.77,27.27-9.18,43.12-14.07,3.34,3.27,6.25,7,8.64,11.09l-20.54,12.48L.46,59.23c-.03-.23-.06-.46-.09-.69-.12-1.06-.2-2.11-.25-3.16l1.57-2.67Z"/>
      <path class="cls-7" d="M12.61,86.86c9.92-3.59,31.06-11.2,35.36-12.54,5.66-1.76,16.96,5.27,30.5-.08,8.23-3.26,18.61-7.94,25.97-11.37-.57,2.89-1.37,5.7-2.4,8.41l-67.51,30.88c-8.51-3.14-16.07-8.43-21.92-15.29Z"/>
      <path class="cls-1" d="M12.61,86.86l5.74-2.07c7.96,5.31,17.51,8.4,27.8,8.4,3.53,0,6.97-.36,10.29-1.06l-21.91,10.02c-8.51-3.14-16.07-8.43-21.92-15.29h0ZM88.38,70.1c5.67-2.46,11.43-5.08,16.02-7.22-.57,2.9-1.37,5.71-2.39,8.41l-25.49,11.66c4.67-3.55,8.69-7.91,11.87-12.86Z"/>
      <path class="cls-8" d="M22.54,95.88c4.32-1.91,26.24-11.59,30.88-13.46,5.16-2.08,13.31,2.06,23.92-2.49,6.5-2.79,17.92-8.11,25.79-11.82-5.97,19.48-23.01,34.55-44.55,36.95-13.25,1.48-25.91-2.1-36.04-9.19Z"/>
      <path class="cls-5" d="M22.54,95.88c1.59-.7,5.57-2.46,10.2-4.5,4.27,1.18,8.77,1.82,13.41,1.82,14.26,0,27.12-5.95,36.25-15.5,6.4-2.87,14.6-6.7,20.69-9.57-5.71,18.67-21.51,32.93-41.04,36.43h-.04c-3.02.55-6.13.83-9.31.83-3.41,0-6.74-.32-9.97-.94l-.08-.02c-.28-.05-.57-.11-.85-.17l-.5-.11-.32-.07c-6.69-1.53-12.95-4.35-18.46-8.2Z"/>
      <path class="cls-4" d="M100.18,75.62c-6.58,3.49-24.52,13.02-27.24,14.53-3.34,1.85-10.62.32-20.72,5.73-3.91,2.1-8.39,5.06-12.42,7.9-4.27-1.08-8.36-2.69-12.18-4.77,8.54-4.41,20.91-10.75,24.22-12.21,5.2-2.29,14.12.97,19.83-1.64l30.37-13.89c-.56,1.48-1.18,2.93-1.87,4.34Z"/>
      <path class="cls-2" d="M100.14,75.64c-6.61,3.51-24.49,13.01-27.2,14.51-3.34,1.85-10.62.32-20.72,5.73-3.91,2.1-8.39,5.06-12.42,7.9-4.27-1.08-8.36-2.69-12.18-4.77,3.68-1.9,8.07-4.16,12.14-6.23,2.09.27,4.22.4,6.39.4,11.41,0,21.94-3.82,30.36-10.24l25.49-11.66c-.56,1.48-1.18,2.93-1.86,4.34Z"/>
      <path class="cls-8" d="M4.1,72.99c10.03-3.41,31.98-10.77,40.65-12.93,11.41-2.84,28.46,1.33,42.73-2.56,6.53-1.78,12.89-4.71,17.87-7.36.05,1.05.07,2.09.06,3.13-6.86,3.83-16.97,8.89-25.33,10.68-14.12,3.03-18.83-2.94-41.45,6.57-10.52,4.42-20.8,9.08-28.79,12.8-2.28-3.19-4.22-6.65-5.76-10.34Z"/>
      <path class="cls-5" d="M4.1,72.99l1.46-.5c2.41,3.32,5.22,6.33,8.35,8.96-1.4.65-2.76,1.27-4.05,1.88-2.28-3.19-4.22-6.65-5.76-10.34h0ZM94.86,55.03c3.82-1.51,7.41-3.24,10.47-4.87.04.84.06,1.69.06,2.54,0,.2,0,.4,0,.6-3.34,1.87-7.45,4.02-11.75,5.95.47-1.38.88-2.79,1.23-4.22Z"/>
      <path class="cls-7" d="M5.3,29.75c7.86-2.37,17.22-5.25,20.7-6.55,6.44-2.4,8.5-7.71,16-9.81,5.15-1.44,22.64-5.82,33.08-8.41-2.25-1.06-4.58-1.96-6.98-2.69-9.99,2.35-25.79,6.05-33.17,7.72-5.72,1.29-10.27.89-13.37.19-6.93,5.09-12.52,11.82-16.27,19.55Z"/>
      <path class="cls-7" d="M.12,55.41c11.31-3.12,27.88-7.8,34.28-10.17,10.13-3.74,9.39-10.02,16.14-12.45,6.76-2.44,6.19-2.28,9.19-3.13,2.99-.85,9.83,5.66,16.64,3.05,6.81-2.61,4.58-7.85,9.36-10,2.32-1.04,5.3-2.35,7.74-3.41,3.38,4.11,6.16,8.76,8.18,13.82L1.68,65.73c-.59-2.33-1.03-4.73-1.31-7.19-.12-1.05-.2-2.1-.25-3.14Z"/>
      <path class="cls-1" d="M90.91,20.41l2.54-1.11c3.39,4.13,6.16,8.78,8.18,13.82l-5.96,1.95c-.83-5.2-2.46-10.12-4.76-14.66Z"/>
      <path class="cls-3" d="M13.59,41.83c-.61,2.07-2.77,3.25-4.84,2.64-2.07-.61-3.25-2.78-2.64-4.84,1.93-6.48,5.19-12.44,9.47-17.58,4.33-5.21,9.68-9.57,15.71-12.76,1.91-1,4.27-.27,5.27,1.63,1,1.91.27,4.26-1.63,5.27-5.14,2.72-9.69,6.42-13.36,10.83-3.6,4.33-6.35,9.35-7.97,14.8h0ZM45.59,12.24c-2.1.47-4.19-.85-4.66-2.95-.47-2.1.85-4.19,2.95-4.66,1.03-.23,2.12-.44,3.25-.62,1.08-.17,2.17-.31,3.26-.41,2.14-.19,4.04,1.39,4.23,3.53.19,2.14-1.39,4.04-3.53,4.23-.93.08-1.86.2-2.78.34-.88.14-1.79.31-2.73.53Z"/>
      <path class="cls-7" d="M70.2,51.08c4.32,0,7.84-3.52,7.84-7.84s-3.52-7.84-7.84-7.84-7.84,3.52-7.84,7.84,3.52,7.84,7.84,7.84Z"/>
      <path class="cls-7" d="M61.07,54.75c1.64,0,2.98-1.34,2.98-2.98s-1.34-2.98-2.98-2.98-2.98,1.34-2.98,2.98,1.34,2.98,2.98,2.98Z"/>
      <path class="cls-7" d="M82.18,44.9c.92,0,1.66-.75,1.66-1.66s-.75-1.66-1.66-1.66-1.66.75-1.66,1.66.75,1.66,1.66,1.66Z"/>
      <path class="cls-10" d="M70.2,47.24c2.21,0,4.01-1.8,4.01-4.01s-1.8-4.01-4.01-4.01-4.01,1.8-4.01,4.01,1.8,4.01,4.01,4.01Z"/>
      <path class="cls-10" d="M61.84,43.52c1.1,0,2-.9,2-2s-.9-2-2-2-2,.9-2,2,.9,2,2,2Z"/>
      <path class="cls-10" d="M75.53,38.95c.81,0,1.47-.66,1.47-1.47s-.66-1.47-1.47-1.47-1.47.66-1.47,1.47.66,1.47,1.47,1.47Z"/>
      <path class="cls-7" d="M63.35,79.65c3.16,0,5.74-2.58,5.74-5.74s-2.58-5.74-5.74-5.74-5.74,2.58-5.74,5.74,2.58,5.74,5.74,5.74Z"/>
      <path class="cls-7" d="M74.47,73.44c1.35,0,2.46-1.1,2.46-2.46s-1.1-2.46-2.46-2.46-2.46,1.1-2.46,2.46,1.1,2.46,2.46,2.46Z"/>
      <path class="cls-9" d="M40,82.65c2.83,0,5.14-2.31,5.14-5.14s-2.31-5.14-5.14-5.14-5.14,2.31-5.14,5.14,2.31,5.14,5.14,5.14Z"/>
      <path class="cls-8" d="M46.7,64.74c2.83,0,5.14-2.31,5.14-5.14s-2.31-5.14-5.14-5.14-5.14,2.31-5.14,5.14,2.31,5.14,5.14,5.14Z"/>
      <path class="cls-8" d="M37.45,59.53c.71,0,1.3-.58,1.3-1.3s-.58-1.29-1.3-1.29-1.3.58-1.3,1.29.58,1.3,1.3,1.3Z"/>
      <path class="cls-8" d="M54.17,58.06c.71,0,1.3-.58,1.3-1.3s-.58-1.3-1.3-1.3-1.3.58-1.3,1.3.58,1.3,1.3,1.3Z"/>
      <path class="cls-8" d="M71.24,26.41c3.23,0,5.86-2.63,5.86-5.86s-2.63-5.86-5.86-5.86-5.86,2.63-5.86,5.86,2.63,5.86,5.86,5.86Z"/>
      <path class="cls-9" d="M71.24,23.7c1.73,0,3.15-1.41,3.15-3.15s-1.41-3.15-3.15-3.15-3.15,1.41-3.15,3.15,1.41,3.15,3.15,3.15Z"/>
      <path class="cls-9" d="M67.27,28.26c.88,0,1.6-.72,1.6-1.59s-.72-1.6-1.6-1.6-1.59.72-1.59,1.6.72,1.59,1.59,1.59Z"/>
      <path class="cls-9" d="M77.29,22.92c.44,0,.8-.36.8-.8s-.36-.8-.8-.8-.8.36-.8.8.36.8.8.8Z"/>
      <path class="cls-8" d="M79.94,19.91c1.12,0,2.03-.91,2.03-2.03s-.91-2.03-2.03-2.03-2.03.91-2.03,2.03.91,2.03,2.03,2.03Z"/>
      <path class="cls-8" d="M62.74,22.07c.62,0,1.13-.51,1.13-1.12s-.51-1.12-1.13-1.12-1.12.51-1.12,1.12.5,1.12,1.12,1.12Z"/>
    </g>
  </g>
</svg>