<?xml version="1.0" encoding="UTF-8"?>
<svg xmlns="http://www.w3.org/2000/svg" viewBox="0 0 263.01 551.48">
  <defs>
    <style>
      .cls-1 {
        fill: none;
      }

      .cls-2, .cls-3, .cls-4, .cls-5, .cls-6, .cls-7, .cls-8, .cls-9 {
        mix-blend-mode: screen;
      }

      .cls-2, .cls-10 {
        fill: #2b3990;
      }

      .cls-11, .cls-6 {
        fill: #00a651;
      }

      .cls-12 {
        fill: #fe0000;
      }

      .cls-12, .cls-13 {
        opacity: .3;
      }

      .cls-14, .cls-15, .cls-9 {
        fill: #ffd21e;
      }

      .cls-3 {
        fill: #e1b39b;
      }

      .cls-4, .cls-16, .cls-17 {
        fill: #8dc63f;
      }

      .cls-13, .cls-18 {
        fill: #fff;
      }

      .cls-5, .cls-19 {
        fill: #27aae1;
      }

      .cls-20 {
        isolation: isolate;
      }

      .cls-21 {
        fill: #ed1c24;
      }

      .cls-22, .cls-17, .cls-23, .cls-15, .cls-24, .cls-25 {
        mix-blend-mode: multiply;
      }

      .cls-26, .cls-25 {
        fill: #fed1b4;
      }

      .cls-27, .cls-24, .cls-8 {
        fill: #f7941e;
      }

      .cls-23 {
        fill: #c01c24;
      }

      .cls-28 {
        fill: #ada9a5;
      }

      .cls-29 {
        fill: #4b1e0a;
      }
    </style>
  </defs>
  <g class="cls-20">
    <g id="Livello_2" data-name="Livello 2">
      <g id="Layer_1" data-name="Layer 1">
        <path class="cls-29" d="M91.72,174.77c1.91,3.13,9.55,7.05,11.95,2.26.3-.61.46-1.26.5-1.91.06-.2.12-.4.16-.64.41-2.33-2.05-5.19-4.11-5.95-2.24-.83-5.36-1.21-7.43.3-1.8,1.32-2.24,4.03-1.07,5.93Z"/>
        <path class="cls-28" d="M93.36,171.92c.49-2.2,4.54-1.9,4.68-2.38-.03.09.04.22.15.2.22-.05.45-.07.67-.09.18.04.35.08.52.14,10.08,3.46-3.57,9.24-5.84,4.75-.33-.65-.42-1.5-.17-2.61Z"/>
        <path class="cls-18" d="M93.8,171.65c.38-1.69,3.48-1.46,3.59-1.83-.02.07.03.17.11.15.17-.04.34-.06.51-.07.14.03.27.06.4.11,7.73,2.65-2.74,7.09-4.48,3.64-.25-.5-.32-1.15-.13-2Z"/>
        <path class="cls-29" d="M68.18,155.87c1.04,5.02,9.26,13.76,14.66,8.59.68-.66,1.19-1.44,1.56-2.28.17-.23.34-.47.51-.77,1.63-2.87-.26-7.79-2.61-9.75-2.56-2.14-6.48-4.12-9.92-3.1-2.99.89-4.83,4.25-4.19,7.31Z"/>
        <path class="cls-28" d="M73.33,150.72c1.81-.35,6.41.62,7.58,2.38,8,11.99-8.59,11.92-11.05,5.09-1.1-3.05.98-6.98,3.47-7.47Z"/>
        <path class="cls-18" d="M73.18,150.76c1.43-.28,5.07.49,6,1.89,6.33,9.5-6.8,9.44-8.76,4.03-.87-2.42.77-5.53,2.75-5.92Z"/>
        <path class="cls-29" d="M48.99,137.78c4.83,3.76,19.08,5.35,19.98-3.54.11-1.12-.03-2.23-.35-3.28-.02-.34-.06-.7-.13-1.09-.74-3.88-6.27-6.88-9.93-6.85-3.98.04-9.08,1.28-11.42,4.86-2.03,3.12-1.11,7.6,1.84,9.89Z"/>
        <path class="cls-28" d="M49.69,129.11c1.37-1.72,6.31-4.39,8.74-3.7,16.56,4.72,1.42,17.49-6.12,13.18-3.37-1.92-4.52-7.11-2.62-9.48Z"/>
        <path class="cls-18" d="M51.17,128.76c.98-1.23,4.5-3.13,6.24-2.64,11.81,3.37,1.01,12.48-4.36,9.4-2.4-1.37-3.22-5.07-1.87-6.76Z"/>
        <path class="cls-29" d="M1.11,85.43c2.18,6.66,11.4,14.84,18.87,12.91.12,3.14.84,6.2,2.61,8.78,3.99,5.79,10.83,10.11,17.7,11.58,9.77,2.09,26.27-2.28,27.11-12.74,3.41,7.5,15.22,8.76,22.04,5.95,3.09-1.27,6.15-3.95,8.12-7.14,2.24,10.61,13.99,14.28,23.8,15.42,5.95.7,11.82,1.21,17.17-2,1.47-.88,2.64-2.05,3.58-3.4,3.56,10.8,9.99,19.22,21.54,21.96,9.66,2.29,21.04,1.43,28.75-5.5,16.17-14.54,8.94-38.96-7.64-49.19,4.73-2.84,8.01-5.68,9.17-11.72,1.11-5.75,1.11-11.29-.86-16.85-3.28-9.25-11.63-15.81-21.03-17.69,4.59-12.46-7.12-25.31-19.24-30.23-8.26-3.35-28.55-5.61-31.79,5.68-.27-.26-.5-.48-.68-.65C114.1,4.91,106.58.57,97.98.05c-9.52-.57-21.66,4.04-26.39,12.83-4.79-1.9-10.49-1.72-15.35.21-6.9,2.76-14.54,10.16-13.87,17.98-5.46-1.98-11.2-3.17-16.86-1.86-7.04,1.62-12.47,5.7-16.9,11.33-5.85,7.43-5.96,16.9-.99,23.78-7.13,4.72-9.15,13.08-6.52,21.11Z"/>
        <path class="cls-28" d="M7.64,66.67c.67-1.12,1.49-2.01,2.45-2.31-5.34-8.12-3.25-18.21,4.55-25.43,8.49-7.86,18.05-8.34,28-6.16,0,.03.02.06.03.09.34.09.69.2,1.03.3,0-.05,0-.1-.01-.15.02,0,.04,0,.06.01.01-.46.04-.92.09-1.39-.05-.02-.1-.04-.15-.06.61-11.18,14.58-19.66,25.6-17.74,1.38.04,2.79.45,3.78,1.27.02-.03.04-.06.05-.1.04.02.07.04.11.06.2-.36.42-.71.66-1.05-.03-.02-.07-.05-.1-.07,4.55-6.8,12.18-11.26,20.74-11.66,6.35-.3,12.91,1.41,18.44,4.56,1.46.83,5.03,2.94,7.8,5.4-.04.21-.05.45-.08.67.47.48.91,1,1.33,1.56.24-.71.53-1.38.9-1.94,2.33-4.66,6.04-7.3,12.02-7.81,5.63-.48,11.05.5,16.07,3.13,9.16,4.79,19.6,13.49,19.81,23.83.17,1.16.16,2.34-.03,3.49,0,.25,0,.5-.03.75.7.13,1.39.31,2.08.55.1.03.16.09.21.16,8.8,2.6,16.68,9.29,19.15,18.3,1.41,5.12,1.44,10.96-.15,16.07-1.58,5.08-4.35,7.38-7.97,10.64,0,0,0,0-.01,0-.16.15-.33.28-.5.41.55.38,1.03.86,1.48,1.37,6.37,4.83,11.09,11.74,12.58,19.77,1.72,9.29-.64,19.91-8.6,25.76-7.14,5.25-16.79,6.71-25.37,4.85-5.47-1.18-10.81-3.13-14.44-7.65-2.9-3.62-4.78-7.71-6.75-11.86,1.3-2.07,2.09-4.51,2.49-6.94-.38,1.09-.74,2.15-.93,2.53-.88,1.67-2.15,3.04-3.53,4.31-2.74,2.5-6.28,2.85-9.82,2.93-.01,0-.02,0-.03,0-3.42.36-7.05.16-10.42-.26-9.82-1.22-18.04-3.99-21.82-13.54,1.16-2.37,1.65-4.94,1.11-7.38-.57,3.42-2.62,6.89-4.92,8.88-.8.69-1.68,1.21-2.62,1.61-.01,0-.03.02-.04.02-7.63,4.88-19.5,6.23-24.43-1.78-.02-.02-.04-.04-.05-.06-.05-1.03-.26-2.12-.62-3.26-.06.98-.05,1.98-.14,2.95-.12,1.41-.71,2.74-1.42,3.95-1.04,1.78-2.79,2.95-4.68,3.7-6.2,4.05-15.96,5.27-21.69,3.73-5.96-1.6-12.65-5.14-15.6-10.87-2.31-4.48-2.29-9.01-1.86-13.73-.09-1.13-.12-2.26-.03-3.41-.06.02-.1.06-.12.14-.7,2.95-1.29,6.28-1.29,9.56-15.42-.26-22.3-20.26-12.32-30.67Z"/>
        <path class="cls-18" d="M17.54,61.78c.6-1,1.33-1.8,2.2-2.07-4.78-7.27-2.91-16.3,4.07-22.76,7.6-7.04,16.16-7.47,25.06-5.52,0,.03.02.05.02.08.31.08.62.17.92.27,0-.05,0-.09-.01-.14.02,0,.03,0,.05.01.01-.41.04-.83.08-1.24-.04-.02-.09-.04-.13-.05.54-10,13.05-17.59,22.91-15.88,1.24.04,2.5.4,3.38,1.13.02-.03.03-.06.05-.09.03.02.06.04.1.05.18-.32.37-.64.59-.94-.03-.02-.06-.04-.09-.06,4.08-6.09,10.9-10.08,18.57-10.44,5.69-.27,11.55,1.26,16.5,4.08,1.31.75,4.5,2.63,6.99,4.84-.04.19-.05.4-.07.6.42.43.82.9,1.19,1.4.21-.64.47-1.24.8-1.73,2.08-4.17,5.4-6.54,10.75-6.99,5.04-.43,9.89.45,14.38,2.8,8.2,4.29,17.54,12.07,17.73,21.33.16,1.04.14,2.09-.02,3.13,0,.22,0,.45-.03.67.63.12,1.25.28,1.86.49.09.03.15.08.19.14,7.88,2.32,14.93,8.32,17.14,16.38,1.26,4.59,1.29,9.81-.13,14.38-1.41,4.55-3.89,6.61-7.14,9.53,0,0,0,0-.01,0-.14.13-.29.25-.45.37.49.34.92.77,1.32,1.22,5.7,4.32,9.93,10.51,11.26,17.69,1.54,8.32-.57,17.82-7.7,23.06-6.39,4.7-15.02,6-22.71,4.34-4.9-1.06-9.68-2.8-12.93-6.85-2.6-3.24-4.27-6.9-6.05-10.62,1.17-1.86,1.87-4.04,2.23-6.21-.34.97-.66,1.93-.83,2.26-.79,1.5-1.92,2.73-3.16,3.86-2.46,2.23-5.62,2.55-8.79,2.62-.01,0-.02,0-.03,0-3.06.32-6.31.14-9.33-.23-8.79-1.09-16.15-3.57-19.53-12.12,1.03-2.13,1.48-4.42,1-6.6-.51,3.07-2.34,6.17-4.41,7.95-.72.62-1.51,1.08-2.35,1.44-.01,0-.02.02-.04.02-6.83,4.36-17.46,5.58-21.87-1.6-.01-.02-.03-.04-.05-.06-.04-.92-.23-1.9-.55-2.92-.06.88-.05,1.77-.13,2.64-.11,1.26-.64,2.45-1.27,3.53-.93,1.6-2.49,2.64-4.19,3.31-5.55,3.62-14.28,4.71-19.41,3.34-5.34-1.43-11.32-4.6-13.96-9.73-2.07-4.01-2.04-8.06-1.66-12.29-.08-1.01-.1-2.02-.02-3.05-.05.02-.09.05-.11.13-.62,2.64-1.16,5.62-1.16,8.55-13.8-.23-19.96-18.14-11.03-27.45Z"/>
        <path class="cls-29" d="M149.99,342.73c.62-10.42.78-21.3-2.76-31.28-3.21-9.06-10.14-12.72-18.24-13.44-6.44-3.97-13.22-2.38-20.16-.36-7.23,2.1-15.01,3.69-21.63,7.4-5.15,2.89-7.73,9.38-10.04,14.44-.9,1.98-3.1,4.72-3.03,6.96.06,1.91,3.49,2.77,4.54,3.79.06.06.12.09.18.11-2.32,5.83-4.54,11.71-7.31,17.32-.42.86-.88,1.71-1.32,2.56-1.19,1.28-1.96,2.77-2.35,4.37-2.04,3.66-4.2,7.26-6.45,10.8-2.41,3.79-5.87,7.74-6.28,12.42-.6,6.82,2.85,16.29,9.27,19.88,3.57,2.7,11.7,2.52,14.84,2.35,10.36-.57,21.24-3.25,31.18-6.15,9.69-2.83,17.8-7.52,25.73-13.67,4.16-3.23,6.76-7.11,8.61-11.43,1.56-2.53,2.91-5.28,3.53-7.93,1.39-5.92,1.32-12.09,1.68-18.14Z"/>
        <path class="cls-11" d="M82.77,324.73c1.6-3.86,3.38-7.62,5.39-11.29,1.5-2.74,3.14-5.34,5.31-6.68.32.05.64.12.92.21.49.16.98.41,1.43.74,2.2,5.01.04,11.25-1.27,16.58-2.13,8.7-3.73,17.52-5.52,26.29-.87,4.25-1.8,8.48-2.84,12.68,0,0,0,0,0,0-4.19-1.65-7.22-3.43-9.71-7.29-1.01-1.56-3.53-4.81-4.11-7.17,4.01-7.79,7.05-15.98,10.4-24.07Z"/>
        <path class="cls-16" d="M71.88,349.77c.07-.13.13-.27.21-.4.36,2.28,2.03,5.06,2.83,6.68,2.3,4.68,5.56,6.84,10.43,8.11-.92.5-1.65,1.16-2.41,1.95-3.04,3.17-6.63,2.09-9.62-.34-3.4-2.76-5.02-6.51-4.58-10.24,1.08-1.9,2.12-3.83,3.14-5.76Z"/>
        <path class="cls-16" d="M60.25,389.5c-2.85-4.81-4.61-10.7-2.42-16.04,1.75-4.28,5.06-8.22,7.5-12.15.78-1.26,1.53-2.53,2.27-3.8.1,2.77,1.18,5.55,3.08,7.7,2.13,2.41,4.5,3.94,7.7,4.23,3.61.34,4.74-3.1,7.42-4.58-1.22,4.75-2.58,9.47-4.21,14.11-1.93,5.5-5.15,16.03-11.7,17.68-4.37,1.1-7.79-4.02-9.64-7.14Z"/>
        <path class="cls-11" d="M146.57,359.71c-2.45,7.38-4.73,13.99-11.19,19.32-7.5,6.18-15.63,10.46-24.99,13.03-7.61,2.08-15.54,3.28-23.37,4.17-4.56.52-9.12.98-13.7,1.39-.35.03-.74.07-1.18.1,3.11-2.02,5.48-6.11,6.9-8.84,5.27-10.12,7.97-21.73,10.5-32.77,2.68-11.69,5.03-23.45,7.73-35.14.83-3.57,1.59-7.79.75-11.36,0-.02,0-.03,0-.05-.99-3.55-4.22-4.82-7.61-3.35-2.74,1.19-4.87,3.98-5.67,6.95,1.04-1.88,2.47-3.57,4.08-4.96.93-.8,1.87-1.39,2.81-1.67-.21.13-.39.3-.52.5-1.59,1.58-2.96,3.77-4.24,5.97-2.94,5.05-5.25,10.42-7.43,15.86-.1-.09-.22-.11-.35-.09-1.51-.89-4.71-1.9-3.32-4.52,1.2-2.26,2.25-4.58,3.34-6.89,3.08-6.59,6.65-11.06,13.71-13.46,5.32-1.81,10.65-3.24,16.05-4.8,5.92-1.71,11.93-3.18,17.76-1.2-.14,0-.28,0-.41,0,1.72.55,3.39,1.57,4.31,2.9,7.68,1.44,12.71,6.02,15.23,14.05,2.65,8.47,2.48,17.8,2.06,26.55-.23,4.81-.46,9.63-.76,14.44-.08,1.36-.26,2.64-.49,3.89Z"/>
        <path class="cls-29" d="M76.6,376.81c-3.52,5.56-6.42,11.46-11.18,16.06-.15.15-.08.52.17.36,2.21-1.41,4.46-2.73,5.83-5.06,2.12-3.62,3.58-7.48,5.32-11.29.04-.09-.08-.16-.14-.07Z"/>
        <path class="cls-11" d="M145.75,314.84c-2.52-8.03-7.55-12.61-15.23-14.05-.92-1.33-2.59-2.35-4.31-2.9.13,0,.27,0,.41,0-5.83-1.98-11.83-.51-17.76,1.2-3.29.95-6.54,1.86-9.79,2.82,1.54.01,2.73.1,3.12.32,1.47.83-3.13,2.21-4.23,2.76-1.1.55-9.2-1.29-12.97,5.52-2.21,4.78-.92,3.49.64,1.75,1.56-1.75-2.58,4.14-4.51,9.1-1.93,4.97-2.39,4.23-3.68,3.95-1.08-.23.18-4.06,1.49-7.63-1.03,2.2-2.04,4.41-3.18,6.55-1.39,2.62,1.81,3.62,3.32,4.52.13-.02.25,0,.35.09,2.18-5.44,4.49-10.81,7.43-15.86,1.28-2.2,2.65-4.38,4.24-5.97.13-.2.31-.37.52-.5-.94.28-1.88.88-2.81,1.67-1.61,1.39-3.04,3.08-4.08,4.96.8-2.97,2.93-5.76,5.67-6.95,3.38-1.47,6.62-.2,7.61,3.35,0,.02,0,.03,0,.05.84,3.56.07,7.79-.75,11.36-2.7,11.69-5.05,23.45-7.73,35.14-2.53,11.04-5.23,22.65-10.5,32.77-1.42,2.73-3.8,6.82-6.9,8.84.43-.04.83-.07,1.18-.1,4.58-.4,9.13-.87,13.7-1.39,7.83-.89,15.76-2.09,23.37-4.17,9.37-2.56,17.49-6.84,24.99-13.03,6.46-5.32,8.74-11.94,11.19-19.32.23-1.25.41-2.53.49-3.89.29-4.81.52-9.63.76-14.44.42-8.75.59-18.08-2.06-26.55Z"/>
        <path class="cls-29" d="M111.81,473.63c5.35-6.55,9.61-12.41,10.2-21.04.16-2.38.14-4.79.22-7.17.04-1.14-.42-6.66.51-7.39.2-.16.03-.45-.2-.3-.25.17-.46.49-.64.9-.76-4.17-8.22-3.59-11.64-1.1.06-.85.14-1.47.22-1.39.04.03.09-.03.06-.07-.06-.1-.12-.21-.18-.31-.05-.08-.15,0-.16.06-.18.7-.31,1.39-.42,2.1-.27.24-.51.49-.7.76-.3.43.16.83.52.51-.77,6.9.79,14.12-3.31,20.28-2.16,3.25-5.66,6.01-8.36,8.81-2.86,2.97-5.63,6.02-8.29,9.17-5.23,6.18-9.54,13.09-13.69,20.02-3.04,5.09-7.09,10.86-9.31,16.79-2.31-1.83-4.66.92-6.41,3.14-4.64,5.88-6.88,9.58-4.83,17.1,1.73,6.33,5.48,11.83,11.47,14.62,6.44,3,15.29,2.78,22.5,1.3,6.38-.5,14.59-2.05,10.08-10.21-2.12-3.84-7.78-4.67-11.57-5.62-3.45-.87-6.63-2.19-9.53-4.29-1.77-1.27-2.69-3.15-3.89-4.82-.2-1.2-.94-2.09-1.95-2.56,6.65-7.99,13.07-16.31,19.21-24.69,6.27-8.54,13.37-16.42,20.08-24.61Z"/>
        <path class="cls-28" d="M63.53,543.8c-3.84-2.92-6.29-8.73-7.56-13.16-.68-2.38-.27-4.5.67-6.48.46,7.42,3.24,17.39,10.46,20.91,2.89,1.41,6.21,1.86,9.54,1.99-.08.64-.13,1.29-.12,1.96-4.56-.58-8.82-2.08-12.97-5.23Z"/>
        <path class="cls-28" d="M92.39,548.68s-.02,0-.03,0c-5.65.56-10.77.97-15.56.4.05-.69.15-1.35.27-1.99,2.06.07,4.11.03,6.06.03,5.98,0,11.2-1.29,16.49-4,.99,3.43-3.23,4.76-7.22,5.57Z"/>
        <path class="cls-28" d="M89.31,536.56c3.49.68,6.9,1.25,9.21,4.43.43.59.72,1.12.93,1.62-7.13,3.42-14.54,4.02-22.18,3.55.59-2.21,1.71-4.14,3.72-5.8,2.53-2.08,5.24-3.61,8.32-3.8Z"/>
        <path class="cls-21" d="M73.93,526.93c.11.11.26.07.39-.03.81,1.67,1.65,3.27,3.06,4.67,2.43,2.4,6.34,3.69,9.59,4.48-1.95.59-3.76,1.79-5.62,3.09-2.66,1.86-4.07,4.21-4.6,6.99-1.66-.11-3.33-.27-5.01-.46-9.88-1.12-13.87-13.54-14.9-21.93.68-1.33,1.59-2.59,2.54-3.8,1.4-1.79,4-6.67,7.04-5.04-.43,1.22-.78,2.44-1.02,3.67-.17-.64-.26-1.31-.25-2,0-.2-.27-.12-.31.03-.43,1.96-.4,3.85.23,5.76.25.77.87,1.62,1.64,1.94-.26.27-.49.57-.69.91-.54.92-.86,2.53.06,3.29.1.08.23-.05.22-.15-.04-2.36,2.01-4.04,4.23-4.21.22-.02.43,0,.62.05.03.03.06.03.1.04,1.21.35,1.82,1.81,2.66,2.7Z"/>
        <path class="cls-27" d="M71.9,522.7c-.75-.21-1.6-.21-2.45.02-.57.15-1.09.4-1.58.7-.41-.69-.94-1.29-1.3-2-.18-.35-.36-.71-.52-1.07.09-.07.18-.16.22-.29,2.17-6.15,5.27-11.89,8.53-17.52.15,1.55.8,3.03,1.98,4.33.69.77,2.77,2.59,4.26,2.61-3.16,4.31-6.22,8.71-9.12,13.23Z"/>
        <path class="cls-26" d="M80.07,507.64c-.76-.42-1.43-1.01-2.1-1.57-1.52-1.27-2.32-3.05-2.39-4.9.62-1.06,1.24-2.11,1.86-3.16,4.95-8.39,10.45-16.32,16.95-23.58,5.09-5.69,12.74-10.99,15.41-18.32.91-2.5.8-5.39.72-8-.06-2.08-.28-4.17-.39-6.25-.02-.42.02-1.9.09-3.25,3.14-2.79,10.2-2.79,11.19,1.88h0c-.51,2.81-.51,6.84-.67,8.12-.38,2.97-.83,5.88-1.52,8.8-1.34,5.7-5.53,10.41-9.04,14.94-9.37,12.07-19.22,23.71-28.3,35.98-.54-.3-1.24-.37-1.8-.68Z"/>
        <path class="cls-29" d="M262.8,488.77c-.25-.46-.57-.89-1-1.29-1.65-1.55-3.57-1.89-5.55-1.59-1.66-.04-3.43.39-5.26,1.24-.8.37-1.68.94-2.62,1.63-.03-.07-.13-.11-.21-.02-.15.17-.3.34-.45.51-6.11,4.69-14.53,13.7-21.02,9.49-1.01-1.39-2.03-2.23-4.02-1.94-.03,0-.06.01-.08.02-.71-1.04-1.46-2.06-2.22-3.1-2.47-3.35-4.49-6.95-6.37-10.64,0-.02-.02-.04-.03-.06-.21-.4-.42-.8-.62-1.2-4.26-8.52-7.52-17.46-11.9-25.94-4.27-8.27-5.8-17.33-9.72-25.68-3.07-6.54-8.17-10.58-13.12-15.35.15-.31.28-.63.39-.96.08-.25-.24-.38-.41-.23-.21.18-.41.38-.61.57-.56-.55-1.12-1.11-1.67-1.69-.26-.27-.72.25-.52.53.48.65.97,1.28,1.46,1.91-1.64,1.77-3.07,3.82-4.82,5.5-1.45,1.39-3.15,2.73-4.27,4.44-1.19-.86-2.37-1.68-3.52-2.45-.24-.16-.56.24-.33.42,1.16.88,2.3,1.81,3.43,2.76-.06.12-.13.23-.18.35-.04.09.06.18.14.11.09-.09.19-.17.28-.26,5.72,4.85,10.96,10.56,14.72,16.97,5.07,8.66,8.35,18.18,11.98,27.49,3.19,8.15,7.5,15.77,12.26,23.1,2.42,3.73,4.98,7.51,7.74,11.13-.37.47-.61.99-.63,1.53-3.82,6.04-.98,13.56,3.55,19,1,.4,1.99.84,2.98,1.26-.05-.08-.1-.15-.15-.23,8.86,3.49,20.49-7.37,25.9-12.91,2.12-2.18,12.45-10.76,15.75-17.52.4-1.12.83-2.26.92-3.42.09-1.2,0-2.34-.18-3.48Z"/>
        <path class="cls-28" d="M260.71,488.6c.1.12.19.25.29.37-.03.03-.06.06-.08.09-.76-.16-1.8-.1-2.44.13-5.62,2.08-9.69,7.69-13.28,12.77,0-.3-.03-.59-.06-.88.23-.34.48-.66.71-1.01,2.91-4.49,8.5-12.54,14.71-11.42.06,0,.11-.02.16-.05Z"/>
        <path class="cls-28" d="M246.95,490.81c1.35-1.1,2.73-2.16,4.22-3.07,1.14-.64,2.34-1.04,3.59-1.23,2.01-.17,3.82.13,5.36,1.5-6.31-.68-11.74,7.29-14.71,11.72-.12.19-.25.38-.38.56-.22-1.31-.54-2.61-.3-4.08.34-2.12,1.14-3.78,2.23-5.4Z"/>
        <path class="cls-26" d="M194.42,464.48c-3.07-8.41-6.47-16.67-10.99-24.43-3.35-5.75-9.18-10.72-14.82-14.8,1.84-1.7,3.77-3.28,5.54-5.04,1.3-1.29,2.79-2.68,3.83-4.27,4.44,5.58,9.09,10.64,11.94,17.43,3.12,7.45,5.43,15.01,9.32,22.13,4.29,7.87,7.65,16.02,11.45,24.12.49,1.05,1,2.08,1.53,3.09-2.55.21-6.56,2.02-7.58,4.05-4.12-7.08-7.39-14.53-10.22-22.27Z"/>
        <path class="cls-27" d="M207.21,490.97c-.74-1.14-1.45-2.3-2.14-3.46.82-2.43,5.19-3.37,7.72-3.76,2.53,4.7,5.42,9.09,8.4,13.5-1.28.57-2.43,1.57-3.08,2.71-.15.26-.36,1.13-.52,2.13-.04.01-.09.04-.13.07-.39.29-.91.64-1.43,1.05-3.04-4.01-6.1-8-8.83-12.23Z"/>
        <path class="cls-21" d="M214.74,507.02s.05-.02.07-.03c.18-.88.57-1.69,1.21-2.05.12-.13.23-.27.36-.38.33-.5.7-.97,1.09-1.42-.07.76-.08,1.51.02,2.06.09-.88.55-1.91,1.05-2.76.28-.9.57-1.68.67-1.88.6-1.26,2.26-1.88,3.5-2.24,1.53-.44,2.78.97,3.87,1.79.22.17.5.01.62-.21,3.84,2.43,8.55-.47,12.39-3.14,2.13-1.48,4.09-3.21,6.07-4.89-.64,1.01-1.15,2.09-1.45,3.42-.5,2.19-.41,4.04.07,6.06-6.11,8.77-15.6,19.7-26.69,19.95-2.33-4.54-3.97-9.69-2.87-14.28Z"/>
        <path class="cls-28" d="M219.48,524.64c-.59-.97-1.17-1.98-1.72-3.03,7.34.23,14.07-4.96,18.92-10.24,2.76-3,5.42-6.03,7.78-9.33.06.21.11.42.18.63,0,.02.02.03.02.05-.72,1.02-1.42,2.01-2.12,2.93-5.93,7.9-13.47,15.85-23.07,18.99Z"/>
        <path class="cls-28" d="M243.12,514.88c-3.4,3.32-7.22,6.1-11.49,8.19-2.17,1.06-4.54,1.79-6.88,2.34-1.41.33-2.77.25-4.1-.22.88-.12,1.74-.31,2.59-.55,6.62-1.63,12.24-8,16.66-12.8,3.06-3.32,5.73-6.93,8.42-10.55,2.8-3.78,7.41-11.32,12.96-11.17,4.27,5.68-14.94,21.62-18.16,24.76Z"/>
        <path class="cls-29" d="M182.72,402.34c-.83-2.52-3.41-4.68-5.17-6.56-3.66-3.91-8.16-6.59-12.59-9.52-.83-.55-4.69-2.59-4.08-3.9.37-.79.31-1.07.15-1.86-.18-.86-1.51-1.5-2.13-1.85-.33-.18-.67-.35-1.03-.48-.06-.03-.94-.25-1.48-.37,0,0,0,0,0,0-.46-.39-.39-.38-.7-.46-.92-1.46-3.33.18-4.43.82-1.33.77-2.69,1.59-3.96,2.43-3.44,2.26-6.54,3.16-10.52,3.91-7.43,1.39-14.79,1.5-22.36,1.42-5.64-.06-14.73-1.41-19.61-5.34.17-.53.32-1.06.51-1.59.09-.24-.22-.33-.31-.11-.2.46-.38.93-.57,1.39-.25-.22-.5-.45-.73-.69-.16-.17-.46.16-.32.33.27.33.55.62.84.91-3.5,9.26-3.73,18.81-2.42,28.65.33,2.5.78,4.99,1.25,7.47.44,2.37,2.74,8.69,1.21,10.74-1.9,2.56,1.01,5.51.28,8.3-.02.09-.02.19-.02.3-1.59,1.08-2.29,3.25-1.29,5.05,1,1.79,4.23,2.93,6,3.87,3.39,1.79,7.13,2.26,10.88,2.72,7.5.93,14.04.56,21.21-2.04,4.05-1.47,4.39-7.04,3.87-10.92.65-2.68,1.03-5.42,1.28-8.17.31-3.31-.35-8.65,1.8-11.57.18.25.35.48.45.65.49.85,1.33,1.48,2.23,2,2.32,2.25,4.8,4.34,7.3,6.4,2.57,2.12,4.68,4.56,7.6,6.21-.14.12-.29.23-.44.36-.1.08-.18.26-.09.38,2.82,3.62,3.79,4.33,8.2,2.29,5.96-2.77,9.6-5.56,13.49-10.87,3.1-4.23,7.95-7.52,10.27-12.28,1.46-3-2.42-5.99-4.56-8.02Z"/>
        <path class="cls-10" d="M94.62,381.19c2.79,2.49,6.48,3.36,10.08,4.45.3.09.61.18.92.26.14,4.06.99,8.04,1.16,12.1.17,4.07-1.1,6.94-3.59,10-1.76,2.18-5.76,4.91-8.68,3.31-1.78-10.05-2.79-20.27.11-30.12Z"/>
        <path class="cls-10" d="M128.28,445.63c-4.27,1.43-8.53,1.89-13.04,1.71-3.65-.15-7.52-.81-11.09-1.52-1.57-.31-3.02-.91-4.48-1.53-1.42-.66-2.8-1.4-4.13-2.21-2.08-.92-2.2-2.62-.39-5.08,2.73,1.49,5.39,2.5,8.23,3.05,7.46,3.34,18.16,4.38,25.29,2.42,2.26-.62,4.31-2.08,5.42-4.14-.67,3.22-2.35,6.15-5.8,7.3Z"/>
        <path class="cls-19" d="M155.84,429.87c-.29-1.81-5.32-5.5-6.75-6.67-3.43-2.83-6.68-5.88-10.21-8.59-.02-.01-.04-.02-.06-.02.08-.08.15-.16.23-.23.15-.13.06-.45-.15-.32-.15.09-.26.2-.39.29-.07-.07-.14-.14-.21-.21,3.76-2.94,8.07-5.35,11.9-7.78.28-.18.22-.71-.16-.52-7.35,3.54-16.54,6.78-19.29,15.34-.19.6.61.54.84.16,1.61-2.63,3.79-4.86,6.24-6.83.04.08.09.17.14.25-1.82,1.69-2.21,4.28-2.56,6.79-.69,5.05-.2,15.94-5.23,18.64-3.71,1.99-8.96,1.25-12.97.83-3.7-.39-7.29-.93-10.82-1.85-1.7-.52-3.37-1.11-5.06-1.65-.1-.03-.26-.08-.45-.14-.29-.11-.57-.21-.86-.33-.06-.03-.13-.03-.2-.02-1.47-.53-3.37-1.38-3.12-2.28.31-1.12.2-1.75.1-2.89-.15-1.77-1.31-1.55-.15-4.02.78-1.66.36-3.55.03-5.25-.66-3.35-1.36-6.74-1.98-10.15,3.86,1.52,8.01-2.15,10.31-4.81,2.07-2.4,2.61-4.99,2.88-8.04.16-1.76-.13-3.71-.44-5.44-.24-1.36-.65-7.39-1.48-8.12,6.25,1.59,12.72,1.04,19.13,1.07,5.91.03,11.85-.98,17.54-2.53,2.04-.55,10.6-7.9,12.56-6.34.2.15.45.03.58-.16,1.83.83,5.34,2.47,3.35,4.55-.24.25-.22.67.03.9,3.83,3.61,8.06,6.72,12.16,10.02,2.69,2.16,12.2,9.85,9.2,14.25-3.14,4.61-8.58,9.16-12.53,13.06-1.76,1.74-3.57,3.39-5.5,4.94-1.96,1.58-4.42,2.03-6.36,3.5-.16.12-.33.4-.29.62Z"/>
        <path class="cls-10" d="M184.57,412.88c-2.65,3.16-5.76,5.9-8.28,9.18-3.37,4.4-6.71,7.39-11.74,9.79-2.55,1.21-5.72,2.56-7.96-.25-.27-.35-.3-.65-.22-.93.12-.02.25-.08.33-.15,1.04-.97,2.87-.84,4.47-1.43,3.81-1.38,6.84-4.97,9.58-7.79,3.49-3.59,6.82-7.44,9.97-11.33,1.61-2,2.54-3.69,2.35-5.91,2.19,2.59,4.77,4.89,1.49,8.81Z"/>
        <path class="cls-19" d="M179.49,401.66c.89,6.16-8.32,13.87-13.53,18.27-6.03,5.09-10.05,7.23-7.1,2.55,2.95-4.69-3.22,2.28-9.24-2.68-6.03-4.96-5.22-8.57,1.07-12.46,6.3-3.88-1.47-5.63-14.33,4.02s-9.11,18.49-7.77,15.67c1.34-2.81,3.62-7.5,3.35-.54s-2.68,13-16.08,11.12c-13.4-1.88-17.84-6.73-13.09-12.23s9-11.5,3.5-8.75-9.25-1.25-3.25-2.5c9-4.5,8.27-14.58,13.37-13.22,5.1,1.36,1.19-1.36-4.08-4.25-5.27-2.89,1.53-1.7,21.59-3.06,20.06-1.36,22.44-10.71,22.27-8.67-.17,2.04-1.87,3.91,1.36,2.21,1.27-.76,3.33-.67,5.7-.1-1.38-1.15-2.75-2.31-4.06-3.54-.24-.23-.27-.65-.03-.9,1.99-2.07-1.52-3.72-3.35-4.55-.13.2-.39.32-.58.16-1.96-1.57-10.52,5.78-12.56,6.34-5.69,1.55-11.63,2.56-17.54,2.53-6.41-.04-12.88.52-19.13-1.07.83.73,1.24,6.76,1.48,8.12.31,1.73.6,3.68.44,5.44-.28,3.06-.81,5.64-2.88,8.04-2.3,2.67-6.45,6.33-10.31,4.81.62,3.41,1.32,6.8,1.98,10.15.33,1.7.76,3.59-.03,5.25-1.15,2.46,0,2.25.15,4.02.1,1.15.21,1.78-.1,2.89-.25.89,1.65,1.75,3.12,2.28.06,0,.13,0,.2.02.29.12.57.22.86.33.2.06.35.11.45.14,1.69.54,3.37,1.14,5.06,1.65,3.52.91,7.12,1.46,10.82,1.85,4,.42,9.26,1.16,12.97-.83,5.03-2.71,4.54-13.59,5.23-18.64.34-2.5.73-5.09,2.56-6.79-.05-.08-.1-.17-.14-.25-2.45,1.98-4.64,4.2-6.24,6.83-.23.38-1.03.44-.84-.16,2.75-8.56,11.94-11.8,19.29-15.34.38-.18.44.35.16.52-3.83,2.42-8.15,4.83-11.9,7.78.07.07.14.14.21.21.13-.1.25-.21.39-.29.21-.13.31.2.15.32-.08.07-.15.15-.23.23.02,0,.04,0,.06.02,3.53,2.71,6.78,5.76,10.21,8.59,1.42,1.17,6.46,4.86,6.75,6.67-.04-.22.13-.49.29-.62,1.94-1.46,4.4-1.92,6.36-3.5,1.93-1.55,3.74-3.2,5.5-4.94,3.95-3.9,9.39-8.45,12.53-13.06,1.17-1.71.44-3.92-1.04-6.11Z"/>
        <path class="cls-10" d="M105.62,385.9c-.31-.08-.62-.16-.92-.26-3.6-1.1-7.29-1.96-10.08-4.45-1.6,5.45-2.01,11.02-1.75,16.6.47-2.04,1.81-5.33,5.63-5.73,5.58-.59,7.49,7.05,3.82,10.43s-2.35,2.64.59,1.47c2.65-1.06-2.35,8.28-8.64,5.91.08.48.16.96.25,1.45,2.92,1.6,6.92-1.13,8.68-3.31,2.48-3.06,3.76-5.93,3.59-10-.17-4.06-1.02-8.04-1.16-12.1Z"/>
        <path class="cls-29" d="M161.86,329.27c-3.04-4.56-6.16-9.02-8.22-14.13-1.53-3.79-2.79-9.18-7.8-7.25-.03-.03-.04-.07-.1-.09-1.69-.61-3.59.3-5.35-.3-.51-.17-1.23-.61-1.89-.81-.29-.53-.76-.98-1.24-1.2-.41-.19-1.17-.04-1.65.29-.91-3.82-2.94-7.52-6.04-9.37-2.44-1.46-6.36-.41-6.87,2.16-.06.05-.12.12-.11.2.11,1.96-.32,3.9-.61,5.82-.69-.75-1.62-1.31-2.55-1.16-1.57.25-2.51,1.71-2.83,3.17-4.63-1.67-9.23-2.87-13.94-.37-5.21,2.78-6.19,9.78-7.03,14.93-.74,4.57-1.33,9.04-3.02,13.39-.97,2.51-2.89,4.68-3.31,7.38-.5,3.19,4.51,3.85,6.71,3.72.04,4.7-.78,9.44.11,14.13.29,1.55.66,3.07,1.1,4.58-.08-.04-.19-.03-.26.08-2.86,4.46-8.56,10.97-7.16,16.59,1.76,7.06,14.29,9.41,19.92,10.46,9.78,1.81,20.71,1.42,30.42-.75,5.95-1.33,12.1-4.37,15.14-9.59.79-1.37,1.59-2.69,2.1-4.22.83-8.33.96-16.74.37-25.04-.22-3.01-.56-5.98-1.04-8.93,1.26-.39,2.44-1.05,3.51-1.88.17-.13.33-.27.5-.41,1.42-1.73,2.89-3.42,4.12-5.29.09-.19.19-.38.28-.57-.22-2.21-1.99-3.67-3.24-5.54Z"/>
        <path class="cls-26" d="M128.24,297.09c2.29.66,3.89,3,4.76,5.05,1.19,2.79,1.9,6.42,1.96,9.44.18,8.38-9.07.96-10.96-1.45-1.64-2.09-.68-4.32-.59-6.58.04-1.02-.02-2.01-.12-3,.04-.05.07-.11.06-.17-.21-3.14,2.47-3.98,4.89-3.29Z"/>
        <path class="cls-25" d="M128.24,297.09c2.29.66,3.89,3,4.76,5.05,1.19,2.79,1.9,6.42,1.96,9.44.18,8.38-9.07.96-10.96-1.45-1.64-2.09-.68-4.32-.59-6.58.04-1.02-.02-2.01-.12-3,.04-.05.07-.11.06-.17-.21-3.14,2.47-3.98,4.89-3.29Z"/>
        <path class="cls-27" d="M159.37,339.83c-.86.71-1.93,1.05-2.97,1.45-.41-2.28-.91-4.55-1.51-6.81-1.12-4.24-2.75-8.23-4.42-12.22,0,0,0-.02,0-.03-.16-1.03.04-2.29.03-3.34,0-1.34-.46-2.47-.8-3.75-.02-.07-.12,0-.11.05.26,1.28.57,2.45.56,3.77,0,.72-.1,1.5-.12,2.25-.61-1.46-1.23-2.92-1.82-4.39-.2-.23-.4-.46-.6-.69,2.5,8.17,5.15,15.88,6.89,23.99.07.06.12.14.14.26.27,1.61.63,3.19.81,4.81.36,2.29.64,4.63.79,7.03.59,8.97-.11,17.93-.79,26.88-6.71,12.39-29.84,11.31-41.71,10.13-6.92-.69-14.96-2.53-20.62-6.81-5.19-3.93,2.3-13.34,4.17-17.78,1.17,4.02,2.78,7.9,4.57,11.7.14.29.55-.07.48-.31-1.37-5.13-3.05-10.13-4.27-15.3-1.18-5.03-.88-10.18-1.54-15.24.22-.21.31-.56-.04-.71-.02,0-.04-.01-.05-.02-.02-.09-.02-.19-.04-.28-.04-.28-.42-.16-.41.09v.03c-1.04-.37-2.09-.57-3.18-.82-3.22-.75-1.65-4.09-.46-6.2,2.18-3.85,3.02-8.32,3.73-12.62.98-5.91,1.24-12.7,6.1-16.88,4.33-3.73,11.48-1.08,16.43-.13.26.05.45-.41.17-.52-.5-.19-1-.37-1.49-.56.42-.86.93-2.01,1.9-2.32.87-.28,1.95.44,2.62,1.22-.14,1.34-.14,2.66.23,3.98.64,2.3,3.61,4.56,5.47,5.77,3.96,2.57,8.3.44,8.6-4.18.11-1.61-.03-3.37-.41-5.12.4-.16.83-.25,1.25-.1.84.3.89,1.46,1.49,1.99.12.11.32-.03.34-.17.04-.29-.02-.6-.13-.9.67.41,1.37,1.03,1.93,1.31,1.17.6,3.23.49,4.61.13.03.03.08.05.15.03,5.76-1.79,7.32,7.83,9.12,11.63,1.19,2.51,2.96,4.76,4.49,7.07,1.24,1.88,4.69,5.57,5.04,8.07-1.48,1.6-2.93,3.16-4.63,4.56Z"/>
        <path class="cls-24" d="M139.09,386.21c-12,2.33-16.83.5-8.17-16.17,7.67-17.5,5.91-34.57,10.04-38.4,6.34-5.16.15-17.4,4.42-13.71,2.19,1.8,4.57,6.97,6.68,12.7-1.39-4.79-2.95-9.56-4.46-14.5.21.22.41.45.6.69.59,1.47,1.21,2.93,1.82,4.39.02-.75.11-1.53.12-2.25.01-1.33-.3-2.49-.56-3.77-.01-.06.09-.13.11-.05.34,1.27.79,2.4.8,3.75,0,1.05-.19,2.31-.03,3.34,0,0,0,.02,0,.03,1.67,3.99,3.3,7.98,4.42,12.22.6,2.26,1.09,4.53,1.51,6.81,1.04-.39,2.11-.74,2.97-1.45,1.7-1.4,3.16-2.96,4.63-4.56-.35-2.5-3.79-6.19-5.04-8.07-1.53-2.31-3.3-4.55-4.49-7.07-1.8-3.79-3.37-13.42-9.12-11.63-.07.02-.12,0-.15-.03-1.38.36-3.44.47-4.61-.13-.56-.29-1.26-.9-1.93-1.31.12.3.17.61.13.9-.02.13-.22.27-.34.17-.61-.53-.65-1.69-1.49-1.99-.42-.15-.86-.07-1.25.1.38,1.75.51,3.51.41,5.12-.31,4.62-4.65,6.75-8.6,4.18-1.86-1.21-4.82-3.46-5.47-5.77-.37-1.32-.37-2.64-.23-3.98-.67-.78-1.74-1.5-2.62-1.22-.97.31-1.48,1.45-1.9,2.32.5.18.99.37,1.49.56.27.1.08.56-.17.52-4.15-.79-9.84-2.77-14.13-1.19.45.06.91.17,1.39.36,2.69,1.07,3.73,4.39,4.23,6.96,1.05,5.46,2.63,11.74,1.29,17.27-.58,2.39-1.66,4.21-4.21,4.65-2.19.38-4.22,0-6.37.84-1.42.55-3.19,1.47-4.77,1.28-1.99-.23-3.49-1.14-2.14-3.13,1.58-2.33,1.93-4.67,1.63-7-.64,3.33-1.52,6.65-3.19,9.6-1.19,2.11-2.76,5.44.46,6.2,1.08.25,2.14.45,3.18.82v-.03c0-.24.36-.37.41-.09.01.09.02.18.04.28.02,0,.04.01.05.02.35.15.26.5.04.71.66,5.06.36,10.21,1.54,15.24,1.21,5.17,2.9,10.18,4.27,15.3.06.24-.35.6-.48.31-1.79-3.8-3.39-7.68-4.57-11.7-1.87,4.44-9.36,13.85-4.17,17.78,5.66,4.29,13.7,6.12,20.62,6.81,11.87,1.18,35,2.26,41.71-10.13.12-1.61.24-3.22.36-4.83-2.05,4.67-6.44,9.96-16.72,11.96Z"/>
        <path class="cls-29" d="M114.42,325.59s.04-.01.06-.03c.77-.6,1.12-1.79,1.46-2.67.41-1.07.65-2.19.49-3.33-.07-.48-.72-.26-.69.15.1,1.16-.25,2.21-.71,3.25-.17.39-.42.78-.63,1.18-.11-2.25-.46-4.55-1.18-7.02-.02-.07-.12,0-.11.05.77,4.01.86,7.79.36,11.84-.37,3.04-1.27,5.95-1.37,9.03,0,.06.02.1.04.12.03.54.14,1.09.26,1.65.39,1.78.89,3-.63,4.49-.79.77-1.81,1.22-2.64,1.92-.18.15-.08.46.17.36,1.65-.63,4.08-1.5,4.63-3.4.66-2.25-.96-4.01-1.21-6.07.99-4.08,1.69-7.76,1.7-11.53Z"/>
        <path class="cls-29" d="M134.69,324.99c-1.34-6.79-4.18-12.9-8.58-18.25-4.06-4.93-8.88-5.13-14.22-2.37-.23.12-.25.64.08.52.08-.03.14-.04.22-.07,14.32,7.05,12.47,30.81,10.03,43.7-1.71,9.04-6.68,16.3-11.7,23.81-2.47,3.69-5.67,6.75-9.63,8.78-5.84,3-12.14-1.59-14.29-6.91-.27-.68-1.27-.08-1.04.51,0,.02.02.04.03.06-2.81,4.17-1.94,7.53,1.38,11.5,3.61,4.32,9.31,4.83,14.44,3.69,11.57-2.57,22.33-13.55,27.27-23.87,3-6.28,4.29-13.33,5.43-20.14,1.16-6.89,1.93-14.04.57-20.97Z"/>
        <path class="cls-16" d="M130.08,358.49c-2.84,10.32-9.12,18.18-17.62,24.45-4.33,3.19-9.44,5.65-14.86,5.99-7.02.44-15.84-6.45-11.71-13.5,3.36,7.32,11.03,9.41,17.97,5.43,4.21-2.4,7.15-6.5,9.88-10.36,3.4-4.8,6.55-9.69,8.61-15.22,3.73-10.04,3.79-21.87,2.47-32.35-.95-7.49-4.54-15.62-12-18.31,6.72-1.97,10.86,1.18,14.63,6.81,2.91,4.34,4.72,9.19,5.77,14.28,2.18,10.56-.33,22.55-3.14,32.79Z"/>
        <path class="cls-17" d="M133.23,325.7c-1.05-5.09-2.85-9.94-5.77-14.28-.27-.4-.54-.79-.82-1.17-2.23.46-4.51-.03-6.01-2.13-.82-1.16-1.24-2.51-1.13-3.67-1.93-.59-4.12-.58-6.68.16,7.46,2.7,11.06,10.82,12,18.31,1.32,10.47,1.27,22.31-2.47,32.35-2.06,5.54-5.21,10.43-8.61,15.22-2.73,3.86-5.67,7.95-9.88,10.36-6.95,3.97-14.61,1.89-17.97-5.43-4.14,7.05,4.68,13.95,11.71,13.5,2.99-.19,5.87-1.03,8.58-2.27-1.3-1.95.25-4.49,1.8-5.81,1.55-1.32,3.31-2.38,4.65-3.92,1.63-1.88,2.91-4.03,4.5-5.95,1.74-2.11,3.83-3.99,5.12-6.43,1.38-2.59,2.58-5.25,3.41-8.07,1.47-5.02,2.51-10.26,3.44-15.4.41-2.28.63-5.47,3.49-5.75.48-.05.97.06,1.43.27.08-3.37-.15-6.7-.81-9.9Z"/>
        <path class="cls-29" d="M191.86,247.67c-1.38-6.57-4.83-11.28-9.87-15.57-3.94-3.36-5.27-7.49-7.16-12.13-.71-1.75-1.46-3.5-2.21-5.23.88-2.18.63-4.53.58-6.85.86.93,1.33,2.1,1.77,3.37.07.22.2.33.34.37.26-1.66.5-3.32.72-4.98-.54-3.04-1.78-5.71-2.92-8.79,1.34.77,2.58,1.66,3.8,2.59,0,.02.02.04.03.06.34.2.67.42.97.67,0-.36-.01-.73-.03-1.09-.4-1.34-.87-2.63-1.48-3.92-.82-1.72-2.46-2.8-3.92-4.01,1.16.14,2.32.28,3.49.39.2.02.39-.08.53-.22-.12-.6-.4-1.13-.77-1.62-3-2.3-6.28-3.93-9.84-5.29-1.58-.6-3.18-.87-4.84-1.09-1.66.41-2.06.33-1.19-.25-.35.18,3.09-1.1,3.5-1.27.03-.01.05-.03.07-.05-.51-.3-1.06-.56-1.54-.86-.49-.29-.96-.61-1.41-.95-1.92-.42-3.89-.6-5.88-.34-1.76.23-3.4.63-5.1,1.15,1.47-.45,2.75-1.68,3.91-2.91,0,0,0,0,0,0-1.87-.01-3.78.25-5.66.47-2.34.51-4.69.9-7.11,1.07.25-.02.95-.46,1.69-.95.04-.2.18-.41.36-.53.12-.08.25-.17.37-.27-.29-.16-.59-.32-.87-.5-4.33-1.08-9.04-.37-13.18,1.36.22-.2.43-.42.66-.61.36-.32.45-1.08-.18-1.14-4.84-.42-9.52,1.5-13.21,4.55.51-.9,1.13-1.74,2-2.59.45-.45.28-1.48-.5-1.08-4.73,2.42-9.54,4.46-13.8,7.57.72-1.36,1.57-2.61,2.62-3.83.17-.19.21-.4.17-.58-2.59.72-4.79,1.52-7.12,3.14-1.72,1.2-3.04,2.9-4.77,4.03-.24.16-.66.15-.77-.18-.28-.83-.32-1.69-.28-2.54-4.03,1.89-7.48,5.67-9.55,9.59-.02-1.18-.03-2.36-.21-3.55-.07-.42-.44-.71-.86-.48-4.84,2.62-6.94,8.29-8.26,13.55-.27-1.3-.42-2.62-.4-4.01.01-.74-1.02-.62-1.23-.06-.68,1.82-1.04,3.59-1.27,5.39-.06-.04-.14-.06-.26-.02-4.87,1.35-7.51,8.84-8.46,14.04-.46-1.44-.65-2.9-.7-4.5-.02-.62-.73-.58-1.05-.21-2.95,3.43-3.28,7.67-2.44,11.88-.69-.52-1.39-1.04-2.13-1.51-.43-.27-.87.14-.89.58-.12,2.25.6,3.99,1.68,5.73-2.96,2.53-5.2,7.63-6.02,10.18-.16.49.43.66.76.42,0,0,7.11-4.94,4.57-2.43-.95.94-1.59,2.15-2.22,3.31-1.63,3-2.24,6.78-1.71,10.13.11.72.9.83,1.33.27.82-1.1,1.71-2.14,2.68-3.11-.49,1.04-.63,1.82-.89,2.94-.35,1.51-.11,2.99.25,4.46.09.39.6.29.78.05,3.12-4,.11,1.85-.03,3.89-.23,3.62.18,6.77,1.55,10.14.45,1.09,1.73.27,1.77-.62.08-1.4.13-2.8.15-4.21,0,.88.08,2.01.28,2.86.46,1.98,1.02,3.38,2.38,4.91.36.41.98.12,1.08-.38.05-.25.09-.44.12-.61.13,1.24.28,2.45.5,3.7.69,3.72,3.3,6.73,5.32,9.8.6.91,1.68-.22,1.55-.99,0-.06-.02-.12-.03-.18.07-.11.12-.24.13-.38.06-1.44-.04-2.48-.09-2.92.06.35.21,1.08.51,2.29.51,2.03,2.28,3.94,3.37,5.67.4.64,1.24.28,1.58-.29.52,1.44,1.64,2.58,2.68,3.66,2.92,3.01,7.25,4.29,11.29,4.79.55.07,1.02-.7.72-1.16-.03-.05-.06-.09-.1-.14,5.69,3.44,12.38,3.54,18.78,1.52.1-.03.17-.09.24-.16,1.94,1.18,3.97,2.23,6.13,3.11,7.26,2.95,15.65,2.28,23.26,1.47,15.62-1.66,29.61-8.29,39.99-20.32,8.2-9.51,14.08-23.92,11.41-36.64Z"/>
        <path class="cls-14" d="M77.12,286.52c-.13.94-.29,1.88-.51,2.8-.09.38-.61.66-.89.26-.88-1.26-1.16-2.77-1.83-4.13-.69-1.42-1.46-2.77-1.94-4.27-.08,1.7-.26,3.38-.73,5.03-.11.38-.63.38-.86.13-1.7-1.89-2.5-4.36-3.5-6.66-1.15-2.64-2.12-5.3-2.5-8.16-.02.04-.04.07-.05.1-.2.84-.39,1.67-.61,2.5-1.56-2.17-2.16-4.75-2.18-7.46,0-.38-.49-.4-.68-.14-.61.88-1.02,1.73-1.32,2.63-.88-3.35-.66-6.56-.27-10-.03-.05-.04-.11-.05-.18-.08-1.14-.12-2.28-.12-3.42-.03.02-.07.03-.1.06-.53.64-1.09,1.24-1.68,1.82-.1-.56-.21-1.11-.31-1.67-.01-1.97.52-3.73,1.6-5.27.23-.39-.18-.78-.56-.6-1.42.66-2.49,1.54-3.53,2.56-.38-4.03.61-8.54,3.41-11.51.25-.59.54-1.16.86-1.73-1.35.35-1.28.33-2.74.86-1.73.62-3.54,3.05-2.2-.24.57-1.39,2.38-4.55,4.38-6.54.25.38.51.75.79,1.13.09.12.2.16.32.15-.38-1.05-.71-2.12-1.06-3.18-.57-1.08-.99-2.2-1.09-3.48.87.64,1.71,1.31,2.56,2.01.05.04.1.06.15.08-.13-1.35-.19-2.71-.21-3.94-.04-1.49.22-2.88.57-4.27.19-1.33.6-2.61,1.32-3.85.22,1.84.64,3.57,1.44,5.33.15.33.47.38.74.27.08-1.87.85-3.55,1.56-5.26,1.28-4.15,3.32-8.07,6.66-10.93-.14,1.3-.22,2.63-.3,4,.03-.06.06-.12.09-.17.16-.28.21-.62.35-.92.23-.51.51-.99.72-1.51.16-1.26.35-2.51.63-3.74.18,1.12.47,2.21.86,3.4.04.13.12.22.2.28.85-2.24,1.79-4.44,2.8-6.61.29-.85.6-1.7.95-2.53.87-2.07,2.09-3.95,3.72-5.5,1.32-1.26,1.02,3.94,1.1,4.57.01.11.05.19.09.27,1.87-4.26,5.72-8.23,9.45-10.81.33-.23.68-.05.77.29.02-.02.04-.03.07-.05-.01.11-.02.22-.03.33,0,.63.02,1.27.04,1.9.25.18.72.05.95-.19,2.8-2.91,6.13-5.26,9.8-6.9-.94,1.38-1.7,2.82-2.32,4.47-.22.58.33,1.13.87.68,3.91-3.35,8.47-5.44,13.03-7.66-.71,1.06-1.29,2.19-1.73,3.48-.26.76.5,1.11,1.02.56,3.3-3.52,7.94-5.96,12.8-5.99-.63.63-1.22,1.29-1.81,2.01-.37.46,0,1.28.63.94,4.43-2.46,9.04-3.08,13.9-2.85-.76.48-1.47.96-2.13,1.42-.3.21-.33.87.14.87,2.52.03,4.87-.22,7.36-.65,1.8-.31,3.57-.79,5.34-1.23-.72.18-2.43,2.05-3.1,2.55-.35.26-.26.92.25.83,3.54-.6,6.71-1.61,10.38-1.13,5.27.68.4,1.11-1.39,2.73-.29.27-.4.95.16.98,5.97.28,11.34,2.09,16.14,5.5-.99-.11-1.99-.22-2.99-.29-.44-.03-1,.64-.64,1.04.86.95,1.75,1.68,2.78,2.45,1.73,1.3,2.63,2.99,3.39,4.79-1.21-.95-2.49-1.82-3.86-2.57-.35-.19-.72.34-.63.65,1.16,3.81,2.67,6.92,3.07,10.63-.48-.71-1.07-1.33-1.88-1.82-.52-.31-1.07.16-1.09.71-.08,1.99-.25,4.27-.08,6.37-.83-1.9-1.68-3.81-2.53-5.7.05-.09.11-.16.15-.27.13-.39-.15-.84-.63-1.28-1.34-.37-2.67-.77-4.03-1.06.93.71,2.18,1.19,3.07,1.84.59.43.98.37-.46.37-.99,0-2-.19-2.97-.31-1.32-.18-2.61-.35-3.92-.43-.44,0-.87,0-1.3.02-.17,0-.46,0-.79,0-.37.17-.74.73-.29.98,1.41.8,2.85,1.53,4.18,2.45-3.12.06-6.35.15-9.38.58,0,0-.01,0-.02.01-.42-.16-.85-.29-1.29-.4-.98.07-1.96.11-2.94.14.02,0,.03.03.06.04,2.07.18,4.48.88,6.06,2.36-1.71.35-3.45.51-5.2.67-2.4.21-4.71.99-7.11,1.07-.09,0-.19.13-.17.21-1.48.02-2.84.17-3.27.24-.2.03-.22.37.01.34,1.25-.12,2.51-.1,3.76-.01.85.06,1.67.22,2.47.51,1.86.68-1.09,1.94-1.43,2.09-2.24.94-4.64,1.35-7,1.92-2.27.46-4.51,1.05-6.74,1.67-.36.1-.59.63-.18.83,2.41,1.16,2.69,1.68-.23,2.24-.78.15-1.53.31-2.27.47-.88.36-1.77.71-2.72.9-1.45.29-2.94.48-4.33,1,.07.05.15.09.26.11.7.09,5.77.55,2.7,1.3-2.75.67-5.45,1.66-8.18,2.41-4.62,1.28-9.52,2.49-14.37,2.74-.43.12-.86.23-1.29.34-.69.18-1.49.24-2.22.43,0,.11.07.22.19.3,1.07.71,2.25,1.17,3.37,1.74-1.87.32-3.75.58-5.67.5-.8-.04-1.54-.12-2.27.16-.04.17-.06.35-.06.54.1-.02.24-.02.4-.01,0,.05-.01.1.01.14,1.64,2.84,2.42,5.46,2.77,8.72.38,3.52-1.77-.21-2.57-1.44-.1.8-.14,1.61-.11,2.42.03.37.07.73.09,1.1.59,2.28,1.13,4.46,1.15,6.86-.4-.71-.8-1.42-1.25-2.12-.08-.13-.2-.17-.32-.17-.21,1.09-.34,2.19-.36,3.29.39,5.09.89,10.25,1.71,15.29-.49-.81-.99-1.61-1.57-2.36-.16-.21-.41-.18-.59-.05-.08.5-.14,1.01-.15,1.51.37,3.54,1.54,6.85,2.4,10.27-.19-.12-.45-.03-.58.15-2.23-1.78-4.96-3.23-7.8-2.82-3.71.54-3.99,6.26-3.48,8.96.81,4.35,3.18,7.96,6.97,9.9,0,.09,0,.19.05.27.22.45.45.9.67,1.35-6.56-1.55-11.13-4.92-13.16-11.76Z"/>
        <path class="cls-14" d="M93.5,297.9c3.58.41,6.82-1.29,8-4.93,2.7,2.28,5.46,4.44,8.4,6.33-5.47,1.39-11.26.91-16.39-1.4Z"/>
        <path class="cls-26" d="M181.02,280.73c-9.04,12.33-24.05,19.28-38.78,21.4-8.04,1.16-16.34,1.77-24.17-.81-7.12-2.35-13.32-7.47-19.25-11.91-.42-.32-.99.41-.59.76.94.82,1.89,1.63,2.83,2.44-.03.02-.06.03-.08.05-5.41,6.53-14.57.75-16.85-5.55-.67-1.85-.62-3.77-.3-5.67.55-3.24,3.32-3.15,5.56-2.52,1.66.46,3.22,1.41,4.62,2.48.39.87.35.8,1.09,1.85.07.1.15.16.23.2.04-1.67.14-3.34-.18-4.98-.38-1.15-.8-2.29-1.2-3.45-.07-.2-1.81-5.5-1.06-4.4.85,1.24,1.35,2.75,2.16,4.03.4.64,1.2-.16,1.09-.7-.85-4.23-1.2-8.53-1.82-12.79-.24-1.66-.48-3.33-.69-5-.45-3.66.34-.03.92,1.16.31.63,1.03-.13,1.07-.53.27-2.89-.29-5.44-.77-8.27-.06-.34-.1-.6-.14-.82.4.53.83,1.03,1.39,1.52.32.28.71-.16.72-.47.16-4.27-.85-8.11-3.06-11.74,1.19.12,3.01.44,3.68.45,1.78.02,3.62-.36,5.34-.7.44-.09.93-.89.42-1.21-.96-.6-2-.98-3.02-1.42,5.11-.17,10-1.36,15.01-2.55,3.6-.86,9.27-1.87,12.1-4.43.22-.2.39-.76-.03-.87-.11-.03-.23-.04-.34-.07,2.65-.45,5.24-1.32,7.08-2.76.2-.16.29-.5.07-.68-.23-.28-.5-.5-.82-.67-.3-.11-2.65-.41-1.63-.69.89-.25,1.78-.46,2.68-.67,2.89-.5,5.78-1.11,8.56-2.03,1.32-.44,3.2-.96,3.85-2.34.54-1.14-.38-1.7-1.74-1.96,1.23-.13,2.47-.41,3.65-.46,2.39-.11,4.76-.29,7.07-.97.26-.08.6-.47.36-.74-.72-.81-1.64-1.42-2.65-1.87,1.37.09,2.73.32,4.1.41,2.04.13,4.15-.24,6.21-.22.46,0,.82-.61.45-.95-1.02-.94-2.16-1.66-3.33-2.34,2.33.2,4.64.66,6.99.66.54,0,1.02-.12,1.34-.45,2.59,6.49,4.93,13.06,6.99,19.74,1.77,5.75,8.24,8.99,11.32,14.01,7.41,12.08,1.09,29.21-6.45,39.51Z"/>
        <path class="cls-29" d="M95.66,289.98c-.41-1.88-2.99-4.4-4.73-5.17-.93-.41-3.34-.38-3.91.3.05-.06.02-.17-.07-.15-.02,0-.04,0-.06,0-.09.02-.15.13-.1.21.47.76,2.35.46,3.11.52.91.07,1.84,1.4,2.45,2.25-.57.44-1,1.05-1.3,1.71-.29.64.57.88.86.31.26-.51.61-.88,1.02-1.23.56.79,1.1,1.64,2.06,1.93.4.12.74-.3.66-.68Z"/>
        <path class="cls-29" d="M168.44,226.63c-1.39.66-1.45,3.45-.13,6.22,1.32,2.78,3.51,4.5,4.9,3.84,1.39-.66,1.45-3.44.13-6.22-1.32-2.78-3.51-4.49-4.9-3.83Z"/>
        <path class="cls-25" d="M168.07,225.84c-1.61.76-1.67,3.99-.15,7.2,1.53,3.21,4.07,5.2,5.67,4.44,1.61-.76,1.67-3.98.15-7.2-1.53-3.21-4.06-5.2-5.67-4.44Z"/>
        <path class="cls-18" d="M172.04,229.36c.42.88.4,1.76-.04,1.97-.44.21-1.13-.34-1.55-1.21-.42-.88-.4-1.76.04-1.97.44-.21,1.13.33,1.55,1.21Z"/>
        <path class="cls-29" d="M136.1,248.18c-1.46.7-1.52,3.62-.14,6.54,1.39,2.92,3.69,4.72,5.15,4.03,1.46-.69,1.52-3.62.14-6.54-1.38-2.92-3.69-4.72-5.15-4.03Z"/>
        <path class="cls-25" d="M135.71,247.35c-1.69.8-1.76,4.19-.16,7.56,1.6,3.37,4.27,5.46,5.95,4.66,1.69-.8,1.76-4.19.16-7.56-1.6-3.37-4.27-5.46-5.95-4.66Z"/>
        <path class="cls-18" d="M139.89,251.04c.44.92.42,1.85-.04,2.07-.46.22-1.19-.35-1.63-1.28-.44-.92-.42-1.85.04-2.07.46-.22,1.19.35,1.63,1.28Z"/>
        <path class="cls-29" d="M139.11,235.88c-1.68-.9-2.85-2.4-4.8-2.74-1.36-.24-2.71.91-3.48,1.89-1.61,2.05-1.76,5.04-1.49,7.52.11,1.04,1.36.89,1.73.09.75-1.61,1.28-3.32,2-4.95.22-.49.4-.91.92-1.08,1.18-.38,3.19.65,4.36.92.95.22,1.73-1.14.78-1.65Z"/>
        <path class="cls-29" d="M167.71,219.7c-.95-.5-1.78-1.2-2.74-1.69-.99-.5-2.11.37-2.74,1.02-1.63,1.69-2.2,5.86-.41,7.54.44.42,1.06-.16,1.18-.59.22-.81.2-1.48.13-2.3-.09-1.08.18-2.05.67-3,.54-1.06,2.56-.04,3.36.2.67.2,1.22-.82.55-1.18Z"/>
        <path class="cls-25" d="M139.81,236.82c-1.68-.9-2.85-2.4-4.8-2.74-1.36-.24-2.71.91-3.48,1.89-1.61,2.05-1.76,5.04-1.49,7.52.11,1.04,1.36.89,1.73.09.75-1.61,1.28-3.32,2-4.95.22-.49.4-.91.92-1.08,1.18-.38,3.19.65,4.36.92.95.22,1.73-1.14.78-1.65Z"/>
        <path class="cls-25" d="M168.41,220.64c-.95-.5-1.78-1.2-2.74-1.69-.99-.5-2.11.37-2.74,1.02-1.63,1.69-2.2,5.86-.41,7.54.44.42,1.06-.16,1.18-.59.22-.81.2-1.48.13-2.3-.09-1.08.18-2.05.67-3,.54-1.06,2.56-.04,3.36.2.67.2,1.22-.82.55-1.18Z"/>
        <path class="cls-29" d="M175.56,250.78c-.56-3.5-4.86-2.74-7.3-2.28-.43.08-.49.79.02.75,2.42-.22,5.47-.55,5.89,2.58.43,3.2-2.52,4.81-3.54,7.46-.09.24.15.49.37.29,2.59-2.4,5.17-5.01,4.57-8.79Z"/>
        <path class="cls-29" d="M164.27,279.26c-2.12,2.35-3.7,5-4.12,8.17-.09.7.55,1.01,1.1.61,1.3-.96,2.03-1.85,2.55-3.44.49-1.52.76-3.11.9-4.7.05-.07.09-.14.14-.21.32-.44-.2-.84-.56-.44ZM163.41,283.4c-.16.46-.93,2.58-1.69,3.2.41-2.14,1.28-4.11,2.46-5.94-.19.93-.45,1.85-.77,2.74Z"/>
        <path class="cls-29" d="M145.43,266.06c-6.37-6.62-14.24-7.74-22.44-4.04-.22.1-.15.47.11.37,8.74-3.27,14.65-.84,21.95,4.16.29.2.62-.25.38-.49Z"/>
        <path class="cls-29" d="M173.48,347.72c-.75-3.6-2.87-6.9-4.6-10.09-1.24-2.29-2.43-4.62-3.63-6.94.81-.15,1.58-.62,2.42-1.37,1.72-1.54,3.81-4.36,4.6-6.55.49-1.35.62-4.21-.1-5.52-.27-.48-.62-.72-1.03-.81-.06-1.15-.28-2.39-1.45-2.86-.28-.11-.63-.05-1.01.11-.64-.95-1.41-1.19-2.19-1.03-.2-.69-.73-1.07-1.44-1.16-.46-.06-1.07.13-1.45.49,0-.04,0-.08,0-.11-.06-2.14-2.92-.21-3.53.27-3.17,2.51-4.56,4.46-5.51,8.39-.88,3.61.26,5.37,2.81,7.27.82,2.98,1.51,6,2.21,9.01-1.45,1.02-3.81,2.52-3.96,4.13-.26,2.74,1.48,5.45,2.53,7.91,1.45,3.39,3.33,6.53,5.75,9.32,1.58,1.82,2.09,3.1,3.72,3.11,1.09.23,2.15.11,3.08-.58,4.03-3.01,3.7-8.55,2.78-12.98Z"/>
        <path class="cls-26" d="M170.61,316.39c-.82.04-1.74.49-2.49.79-2.12.83-3.01,1.65-3.92,3.68-.39.87-1.19,2.14-1.46,3.33-1.91-2.24,1.28-5.84,2.83-7.23.76-.69,1.6-1.18,2.43-1.77,1.57-1.13,2.31-.05,2.61,1.21Z"/>
        <path class="cls-26" d="M168.28,313.86c-1.21.65-2.61,2.03-3.13,2.48-1.68,1.43-2.94,2.9-3.39,5.09-.03.15-.06.31-.09.48-1.14-1.8-.24-3.65.96-5.32,1.16-1.62,3.71-4.58,5.65-2.73Z"/>
        <path class="cls-26" d="M163.48,312.72s.04,0,.07,0c.52-.21.75-.64,1.38-.64.5,0,.96.33,1.33.65-1.22.37-2.47,1.62-3.36,2.63-1.27,1.43-2.7,3.5-2.45,5.41-.4.06-.66-.2-.94-.47-.12-1.1-.12-2.25.35-2.97.62-.94,1.7-1.73,2.43-2.63.45-.54.95-1.24,1.19-1.98Z"/>
        <path class="cls-26" d="M167.17,359.3s-.09-.04-.14-.05c-3.1-2.24-5.49-6.87-7.01-9.78-1.11-2.12-1.97-4.39-2.93-6.59-.87-1.99,1.21-4.01,2.62-5.56.31,1.33.62,2.65.95,3.98.05.06.09.13.11.23.04.31.12.61.18.91,0,.02,0,.04.01.06h0c.05.27.09.54.15.8.01-.02.02-.04.04-.05.21.83.46,1.73.73,2.63.81,2.3,1.94,4.49,3.25,6.57.04.04.07.1.12.14-1.28-2.6-2.2-5.36-2.94-8.17-.72-2.78-1.7-5.93-1.62-8.88-.76-3.13-1.55-6.4-3.2-8.96-.06-.1-.16-.09-.24-.03-1.69-1.84-1.96-3.56-1.62-5.97.28-1.95.94-4.53,2.37-5.87.75-.7,1.64-1.23,2.41-1.91.23-.28.52-.51.81-.65.56-.26,1.52-.14,1.46.67-.05.62-.68,1.14-1.11,1.52-.02.01-.03.02-.04.04-.31.36-.6.73-.94,1.06-.69.69-1.29,1.32-1.84,2.14-.45.68-.44,1.59-.27,2.48.44.68.75,1.46,1.23,2.11.03-.05.04-.11.03-.17-.04-.28-.09-.6-.14-.93.27.3.6.35.97.28.17.52.48,1.02.97,1.48,0,0,.01,0,.02,0-.04.86.17,1.67,1.08,1.96-.02.44.08.86.34,1.23,1.36,1.91,3.69-1.81,4.98-4.17.2,0,.37-.18.52-.29.26-.2.54-.37.79-.59.12-.11.05-.39-.13-.27-.18.12-.49.23-.77.36.26-.51.44-.86.48-.93.2-.31-.14-.58-.39-.3-1.27,1.4-1.5,3.34-2.85,4.71-1.64,1.66-2.25-.07-1.56-1.72.63-1.49,1.16-3.38,2.64-4.28,1.09-.66,4.69-2.54,5.06.12.18,1.31.19,2.7,0,4.01-.19,1.38-1.99,3.06-2.92,4.14-.09.11-.18.2-.27.31-.46.55-.96,1.05-1.5,1.48-.15.12-.31.23-.47.34-.02.02-.04.03-.07.05-.15.1-.3.19-.46.27-1.03.57-2.19.86-3.51.74-.02.09,0,.18.09.23.37.18.71.29,1.04.38,2.32,4.83,5.22,9.42,7.42,14.3,1.32,2.95,3.76,16.89-3.99,14.39Z"/>
        <path class="cls-25" d="M171.29,348.49c.25-.39.53-.41.8-.19-.28-1.48-.64-2.72-.94-3.38-2.19-4.88-5.1-9.47-7.42-14.3-.33-.09-.67-.2-1.04-.38-.09-.04-.11-.14-.09-.23,1.31.12,2.48-.17,3.51-.74.16-.08.31-.17.46-.27.02-.01.05-.03.07-.05.16-.11.32-.22.47-.34.54-.43,1.04-.93,1.5-1.48.09-.1.18-.2.27-.31.93-1.08,2.73-2.76,2.92-4.14.18-1.31.17-2.7,0-4.01-.03-.2-.08-.36-.14-.51-.23.2-.56.35-1.05.41-1.96.21-2.96.58-4,2.5-.89,1.64-1.33,3.54-2.48,4.04.3.26.82.17,1.52-.54,1.35-1.37,1.58-3.31,2.85-4.71.25-.28.59,0,.39.3-.05.07-.22.43-.48.93.28-.14.58-.25.77-.36.18-.11.25.16.13.27-.25.22-.53.39-.79.59-.15.11-.32.28-.52.29-1.29,2.36-3.62,6.09-4.98,4.17-.26-.37-.35-.79-.34-1.23-.91-.29-1.12-1.1-1.08-1.96,0,0,0,0-.02,0-.5-.46-.8-.97-.97-1.48-.37.07-.71.02-.97-.28.05.33.1.64.14.93,0,.06,0,.12-.03.17-.48-.65-.79-1.43-1.23-2.11-.17-.89-.19-1.8.27-2.48.55-.82,1.15-1.45,1.84-2.14.34-.33.63-.7.94-1.06.01-.01.03-.02.04-.04.43-.38,1.06-.9,1.11-1.52.04-.61-.48-.83-.99-.79.23.06.4.17.44.34.25,1-3.56,3.25-4.44,5.94s2.25,3.56,1.75,6.25c-.12,1.5,2.87,2.56,3.62,4s-2.81.62-.87,2.06,1.56,3.06,1.5,7.69c-.05,3.55-1.06,4.99-2.17,3.17.25,1.01.52,1.99.77,2.94.73,2.82,1.65,5.57,2.94,8.17-.04-.04-.07-.1-.12-.14-1.3-2.08-2.43-4.27-3.25-6.57-.28-.9-.52-1.8-.73-2.63-.01.02-.02.04-.04.05-.06-.26-.1-.53-.15-.79h0s0-.04-.01-.07c-.06-.3-.13-.6-.18-.91-.02-.1-.05-.17-.11-.23-.33-1.33-.64-2.65-.95-3.98-1.42,1.55-3.49,3.57-2.62,5.56.96,2.2,1.83,4.46,2.93,6.59,1.52,2.91,3.91,7.54,7.01,9.78.04.02.09.04.14.05,1.17.38,2.1.37,2.84.1-1.49-3.21.21-9.25,1.28-10.92Z"/>
        <path class="cls-29" d="M157.9,314.6c.6-.81,1.35-1.51,2.18-2.07.07-.06.14-.12.21-.17.65-.5,1.52-1.18,2.41-1.38-5.78-4.88-13.37-5.03-20.75-4.61,0,0,0,.01-.02.02-.05-.1-.09-.19-.14-.29-.04-.08-.15-.1-.22-.08-.98.19-1.72.72-2.38,1.46-.15.16-.15.52.1.59,6.53,1.95,12.33,3.41,17.59,7.91.31-.49.66-.94,1.03-1.37Z"/>
        <path class="cls-29" d="M171.4,330.55c-.19-3.46-.79-6.72-1.93-9.75-.03,0-.05.01-.08.01-.09,0-.19.02-.28.03-.45.05-.86.32-1.27.54-.56,1.5-1.15,3.11-2.53,3.82-.03.01-.05.02-.08.03-.48.37-1.02.61-1.66.67,1.1,3.41,1.4,7.12,1.16,11.07-.45,7.25-2.87,12.91-6.37,19.16-2.7,4.83-2.69,10.54-1.69,15.82.12.65.99.18,1.02-.38,11.3-8.6,14.45-27.82,13.71-41.04Z"/>
        <path class="cls-16" d="M170.11,330.83c-.32-3.3-.9-6.56-2.02-9.58-.08.05-.17.09-.25.14-.56,1.5-1.15,3.11-2.53,3.82-.03.01-.05.02-.08.03-.05.04-.11.09-.17.13.41,1.19.7,2.43.81,3.72.5,5.39.37,12.03-1.46,17.19-1.3,3.66-3.37,6.78-5.08,10.22-2.22,4.47-2.54,9.16-1.8,13.99,10.16-8.84,13.81-26.87,12.56-39.66Z"/>
        <path class="cls-16" d="M157.88,314.62c.61-.83,1.37-1.55,2.23-2.12.06-.05.12-.11.18-.16.23-.18.5-.38.78-.58-5.82-4.22-12.1-4.29-19.1-5.27.02.22-.27.46-.42.24-1.25.09-1.33.39-.22.9,1.15.22,2.29.47,3.43.73,1.67.44,3.4.84,5,1.51,2.91,1.21,5.63,2.78,7.94,4.95.06-.07.13-.13.19-.2Z"/>
        <path class="cls-29" d="M141.28,324.4c.39-.95.64-2.19-.21-2.88-.2-.16-.42-.31-.65-.43.4-1.82-.15-2.98-1.18-3.71,0-.02.03-.03.03-.05.58-2.13-.46-3.35-2.45-4.05-1.93-.68-3.97-1.58-6.05-1.69-2.92-1.58-5.83,1.48-8.45,3.63-2.21,1.81-4.39,3.9-5.76,6.41-1.28,2.36.1,5.96.77,8.81-2.04,3.9-4.5,7.64-7,11.25-.34.49-.71.98-1.07,1.47-.04-.54-.08-1.08-.1-1.62.26.11.54.2.82.26-.37-.29-.74-.54-1.12-.76-2.45-1.21-5.12-1.73-7.88-1.62-2.69.11-7.36.27-8.18,3.55.06-.02.12-.05.15-.1.74-1.17,1.75-1.85,2.89-2.24-.58,5.91-1.16,13.5,1.63,19.16-.04,0-.08,0-.11,0,.35.61.67,1.24,1.02,1.86.33.45.64.88.94,1.3.08.08.16.16.23.24.87,1.03,1.93,1.86,3,2.27.62.24,1.22.29,1.8.21.78-.4,1.58-.73,2.37-1.11.06-.05.12-.11.18-.16.3-.27.59-.56.85-.87.04-.04.08-.09.12-.13,6.99-8.1,12.25-19.28,14.72-29.94,1.31.44,2.7-.09,3.98-.76,1.96-1.04,4.1-2.44,5.31-4.38.71.13,1.43.24,2.14.25-1.23.28-2.3.85-2.07,2.12.45,2.52,4.29,1.44,5.88.73,1.87-.83,3.73-3.36,4.07-5.37.1-.57-.13-1.27-.6-1.65Z"/>
        <path class="cls-26" d="M139.74,329.05c-1.29,1.98-2.86,2.27-5.04,2.4-2.06.13-2.26-1.75-.41-2.53.75-.31,1.59-.38,2.39-.48.08-.01.11-.15,0-.15-.27.01-.64.03-1.05.06.7-.23,1.34-.63,1.96-1.05.08-.05,0-.15-.08-.12-.95.4-1.9.5-2.92.61-.83.08-1.66-.06-2.48.06.02-.03.03-.06.05-.09-.25.02-.5.02-.75,0-2.26,2.28-5.39,5.4-8.71,5.13.07-.34.13-.68.21-1.03-1.06,2.39-2.08,4.82-3.3,7.13-.15.28-.31.56-.46.84-1.91,4.9-4.04,9.67-6.7,14.34-1.9,3.32-3.96,6.64-6.38,9.6-1.05.62-2.22.92-3.64.41-.8-.29-1.43-.91-1.98-1.6-1.18-.99-1.81-2.82-2.19-4.17-.36-1.32-.63-2.74-.83-4.16-.22-1-.41-2.01-.54-3.06-.42-3.53-.58-7.1-.79-10.65,1.87-.55,4.04-.39,6-.38,1.83.02,3.71.36,5.48.79.41.1.77.25,1.13.4-.1.93-.17,1.87-.23,2.8-1.09,1.39-2.23,2.78-3.29,4.21-1.17,2.64-3.1,5.47-3.76,8.28.03-.06.06-.12.09-.18,1.13-3.06,3.38-5.46,5.46-7.98.12-.14.23-.29.34-.43,1.12-2.18,2.74-4.03,4.33-5.88.31-.46.62-.92.93-1.39,1.83-2.91,3.46-5.97,4.95-9.06.01-.03.03-.06.04-.09.02.15.04.31.06.45,0,.02.02.02.02.03.19-.89.4-1.76.49-2.66,0-.21-.02-.42-.03-.63-.02.05-.04.1-.06.15-.35-3.59-1.16-7.06,1.7-10.19,1.95-2.13,5.39-6.02,8.65-6.57,1.22-.37,2.49,0,3.72.54,0-.04,0-.09-.04-.13-.02-.02-.04-.04-.06-.06.9.34,1.77.79,2.67,1.17,1.94.81,3.48,1.16,3.96,3.29-1.41-.7-3.37-.86-5.08-.88-.21,0-.31.29-.07.32,1.51.17,2.97.36,4.35,1.01,1.47.7,1.9,1.89,1.96,3.33-1.6-.66-3.57-.71-5.17-.96-.24-.04-.43.36-.15.42,1.5.35,3.01.63,4.47,1.15.92.33,1.73.63,1.85,1.71.04.34,0,.68-.04,1.02,0,0-.01,0-.02,0-2.02-.4-4.28-.13-6.34-.15-.32,0-.48.47-.1.5,1.67.13,3.36.36,5.03.27,3.26-.18,1.09,3.23.41,4.29Z"/>
        <g>
          <path class="cls-12" d="M123.54,271.16c.18,3.36,4.89,5.83,10.53,5.53,5.63-.31,10.05-3.28,9.86-6.64-.18-3.36-4.9-5.83-10.53-5.52-5.63.31-10.04,3.28-9.86,6.64Z"/>
          <path class="cls-29" d="M134.01,267.42c.13-.44.66-.64,1.06-.41,1.7.97,3.34,2.3,4.53,3.87.76,1-.5,2.03-1.28,1.04-1.11-1.39-2.64-2.22-3.91-3.43-.29-.28-.51-.64-.39-1.06Z"/>
          <path class="cls-29" d="M130.38,267.57c1.46,1.02,2.88,2.07,4.22,3.25.93.83.1,2.41-.97,1.51-1.44-1.22-3.04-2.18-4.18-3.71-.54-.73.14-1.61.93-1.05Z"/>
          <g class="cls-7">
            <path class="cls-3" d="M126.5,263.54c1.8-2.22,5.66-1.77,8.17-1.48,3.67.43,5.67,2.26,8.65,4.2.27.17.21.78-.17.6-2.53-1.12-4.68-2.44-7.5-2.75-2.99-.33-5.4-.01-8.19.99-.81.29-1.44-.99-.96-1.56Z"/>
            <path class="cls-3" d="M123.98,264.93c-.07.54-.57.92-1.1.85-.54-.07-.91-.56-.85-1.1.07-.54.56-.91,1.1-.85.54.07.92.56.85,1.1Z"/>
          </g>
        </g>
        <g>
          <path class="cls-12" d="M185.48,241.01c.59,2.02-1.68,4.46-5.06,5.45-3.39.99-6.61.15-7.2-1.87-.59-2.02,1.68-4.46,5.07-5.45,3.39-.99,6.61-.15,7.2,1.87Z"/>
          <path class="cls-29" d="M178.53,240.98c-.17-.23-.52-.24-.71-.03-.8.93-1.5,2.05-1.87,3.23-.24.75.72,1.09.97.35.37-1.05,1.1-1.86,1.6-2.84.11-.22.17-.49.01-.71Z"/>
          <path class="cls-29" d="M180.7,240.31c-.65.91-1.27,1.82-1.81,2.8-.38.68.44,1.44.89.69.6-1.02,1.34-1.92,1.7-3.06.17-.55-.42-.92-.77-.42Z"/>
          <g class="cls-7">
            <path class="cls-3" d="M182.15,237.13c-1.52-.93-3.71.13-5.13.82-2.08,1.01-2.88,2.51-4.23,4.28-.12.15.04.5.23.32,1.26-1.19,2.25-2.41,3.85-3.18,1.69-.82,3.19-1.13,5.04-1.12.54,0,.64-.88.24-1.12Z"/>
            <path class="cls-3" d="M183.93,237.42c.16.3.52.42.83.27.3-.15.42-.52.27-.83-.15-.3-.52-.42-.82-.27-.3.16-.42.52-.27.83Z"/>
          </g>
        </g>
        <path class="cls-25" d="M162.85,254.99s9.12.16,11.08-5.05c3.75,3.09-1.79,10.26-9.12,9.12-7.33-1.14-4.72-4.56-1.95-4.07Z"/>
        <path class="cls-25" d="M164.49,278.69c-2.4,2.65-4.17,5.64-4.66,9.23-.11.79.62,1.14,1.24.69,1.47-1.08,2.29-2.09,2.88-3.89.56-1.72.86-3.51,1.01-5.3.05-.08.11-.16.16-.23.36-.5-.23-.95-.64-.5Z"/>
        <g>
          <path class="cls-1" d="M173.41,218.9c.96,2.75,1.87,5.51,2.73,8.3,0,0-.44-4.49-2.73-8.3Z"/>
          <path class="cls-25" d="M189.96,261.09c-13.13,42.08-54.77,44.92-74.17,26.86-20.86-19.42-9.55-47.75-5.22-47.16s4.33-.45.45-2.24c-3.88-1.79-4.33-2.69,4.33-4.33,12.09-1.64,25.96-7.76,20.29-7.76s.3-2.69,6.27-4.33c5.97-1.64,16.56-5.52,12.39-5.52s-3.43-.6,7.91-2.69c5.79-1.19,9.21,1.63,11.21,4.98-1.33-3.84-2.75-7.65-4.26-11.44-.32.33-.8.44-1.34.45-2.35,0-4.66-.46-6.99-.66,1.17.68,2.3,1.4,3.33,2.34.37.34,0,.95-.45.95-2.05-.03-4.16.35-6.21.22-1.37-.09-2.73-.32-4.1-.41,1.01.45,1.93,1.06,2.65,1.87.24.27-.1.67-.36.74-2.31.68-4.68.86-7.07.97-1.18.05-2.42.34-3.65.46,1.36.26,2.28.82,1.74,1.96-.65,1.38-2.53,1.9-3.85,2.34-2.79.93-5.67,1.54-8.56,2.03-.9.21-1.79.42-2.68.67-1.02.28,1.33.58,1.63.69.31.16.58.39.82.67.22.18.13.52-.07.68-1.84,1.45-4.43,2.32-7.08,2.76.12.03.23.04.34.07.42.11.25.67.03.87-2.83,2.56-8.51,3.58-12.1,4.43-5.01,1.19-9.91,2.38-15.01,2.55,1.02.44,2.05.82,3.02,1.42.51.32.03,1.12-.42,1.21-1.73.34-3.57.72-5.34.7-.67,0-2.49-.34-3.68-.45,2.22,3.63,3.23,7.47,3.06,11.74-.01.3-.4.74-.72.47-.57-.49-1-.99-1.39-1.52.04.22.09.49.14.82.48,2.83,1.04,5.38.77,8.27-.04.4-.76,1.16-1.07.53-.58-1.19-1.37-4.82-.92-1.16.21,1.67.44,3.33.69,5,.63,4.27.97,8.57,1.82,12.79.11.54-.68,1.34-1.09.7-.81-1.28-1.31-2.79-2.16-4.03-.75-1.09.99,4.2,1.06,4.4.41,1.15.82,2.3,1.2,3.45.31,1.65.21,3.31.18,4.98-.08-.04-.16-.1-.23-.2-.73-1.06-.7-.98-1.09-1.85-1.39-1.07-2.95-2.02-4.62-2.48-.29-.08-.59-.15-.89-.21,1.94,1.77-.6,3.58-1.97,5.05-1.72,1.86.09,3.36,2.25,3.24.54-.03,1.4-.1,1.83.36,1.03,1.1.51,2.51.68,3.88.35,2.89,2.34.88,3.54.88.66,0,1.46.32,1.96.75.64.55,1.15,1.21,1.56,1.92.93-.47,1.82-1.16,2.62-2.13.02-.02.05-.03.08-.05-.95-.8-1.89-1.62-2.83-2.44-.4-.34.17-1.07.59-.76,5.92,4.44,12.12,9.56,19.25,11.91,7.83,2.58,16.13,1.97,24.17.81,14.73-2.13,29.74-9.07,38.78-21.4,3.87-5.28,7.41-12.37,8.95-19.65h0Z"/>
        </g>
        <path class="cls-3" d="M172.48,250.56c.11.79-.93,1.58-2.32,1.78-1.39.2-2.61-.28-2.72-1.07-.11-.79.93-1.58,2.32-1.78,1.39-.2,2.61.28,2.72,1.07Z"/>
        <g class="cls-22">
          <path class="cls-14" d="M172.45,196.39c1.37.75,2.65,1.62,3.86,2.57-.77-1.81-1.66-3.49-3.39-4.79-1.03-.78-1.92-1.51-2.78-2.45-.36-.4.21-1.07.64-1.04,1,.08,1.99.18,2.99.29-.56-.4-1.12-.76-1.7-1.12-1.21.95-3.87,1.6-9.07,1.52-8.5-.62,5.5,2.62,6.5,4.88s-11.12.38-11.12.38c0,0,9.75,2.88,10.87,5.62s-15.62,2.88-23,1.38-.37,1.5,5.5,2-.75,2.12-14.62,1.62,23.29,4.63,2.96,5.29c-20.33.67-9.17,2.67-2.83,2.83s-1.67,4-17,4.17c-15.33.17-4.33,1.5,1.83,1.67,6.17.17,2.33,3.33-12.5,3.33s-2.5,2.17,3.83,2.33c6.33.17-4.33,4.67-21,4.17s-1.33,1.17,2.17,2.33-2.5,1.33-6.17,1.33,2.17,6.83,2.33,11-3.17,3.17-5.17.17-1.17,6.67-.33,14-4.67-2-5.83-6.5-2.16,2.83,2.5,12.33-3,3.83-7.33-4-1.5,8.5.67,13-8.83-1.33-8.17-14.83-2.33-3-2.33.83-4.83-1.83-.17-14.67-3-1.5-4,0-2.83-3.49,4-10.67c6.67-7,.33-4-1.5-2.33s2-8.17,5.67-13.67,4,1.83,4.5,3,3.83-13.5,6.17-19.17,3,.67,3.5,5.17,2.83-8.67,7.17-15,3.5,1,3.5,4,4-4,11.67-9,2.67,2,.83,5.67,10-7.5,14.33-10.33,1.33,1.83.17,4.5,5.33-4,11-5.33c5.67-1.33.33,4-.5,4.83s8.67-3.33,12.67-3.83,0,3.17-.33,3.67c-.29.43,9.34-5.75,17.77-5.21-.15-.19-.82-.36-2.34-.56-3.68-.48-6.84.53-10.38,1.13-.51.09-.61-.57-.25-.83.67-.5,2.38-2.37,3.1-2.55-1.77.44-3.54.92-5.34,1.23-2.48.43-4.83.67-7.36.65-.47,0-.44-.66-.14-.87.65-.46,1.37-.95,2.13-1.42-4.86-.23-9.47.4-13.9,2.85-.63.35-1.01-.47-.63-.94.58-.72,1.18-1.38,1.81-2.01-4.86.03-9.5,2.47-12.8,5.99-.52.56-1.28.2-1.02-.56.44-1.29,1.02-2.43,1.73-3.48-4.56,2.22-9.12,4.3-13.03,7.66-.53.46-1.08-.1-.87-.68.62-1.66,1.38-3.1,2.32-4.47-3.67,1.65-7,4-9.8,6.9-.23.24-.7.37-.95.19-.02-.63-.03-1.27-.04-1.9.01-.11.01-.22.03-.33-.02.01-.04.03-.07.05-.09-.34-.44-.52-.77-.29-3.72,2.59-7.57,6.55-9.45,10.81-.04-.07-.08-.16-.09-.27-.08-.63.22-5.82-1.1-4.57-1.63,1.55-2.85,3.43-3.72,5.5-.35.84-.66,1.68-.95,2.53-1.01,2.17-1.96,4.37-2.8,6.61-.08-.06-.15-.14-.2-.28-.39-1.19-.68-2.29-.86-3.4-.28,1.23-.47,2.48-.63,3.74-.22.51-.49,1-.72,1.51-.13.29-.19.64-.35.92-.04.06-.06.12-.09.17.08-1.37.16-2.7.3-4-3.34,2.86-5.38,6.78-6.66,10.93-.71,1.71-1.48,3.39-1.56,5.26-.27.12-.59.07-.74-.27-.8-1.76-1.22-3.49-1.44-5.33-.72,1.23-1.12,2.52-1.32,3.85-.36,1.39-.61,2.78-.57,4.27.03,1.23.08,2.6.21,3.94-.05-.02-.1-.04-.15-.08-.85-.7-1.69-1.37-2.56-2.01.1,1.28.52,2.4,1.09,3.48.35,1.06.68,2.13,1.06,3.18-.12,0-.23-.03-.32-.15-.27-.38-.54-.76-.79-1.13-2,1.99-3.81,5.14-4.38,6.54-1.34,3.29.47.86,2.2.24,1.46-.53,1.39-.51,2.74-.86-.31.56-.6,1.13-.86,1.73-2.8,2.97-3.79,7.48-3.41,11.51,1.04-1.03,2.12-1.9,3.53-2.56.38-.18.79.21.56.6-1.08,1.54-1.61,3.3-1.6,5.27.11.56.21,1.11.31,1.67.59-.58,1.15-1.19,1.68-1.82.03-.03.06-.04.1-.06,0,1.14.04,2.28.12,3.42,0,.07.03.13.05.18-.39,3.44-.61,6.66.27,10,.3-.89.71-1.75,1.32-2.63.19-.26.67-.24.68.14.02,2.71.62,5.29,2.18,7.46.22-.83.4-1.66.61-2.5,0-.03.03-.07.05-.1.39,2.86,1.35,5.52,2.5,8.16,1,2.3,1.8,4.77,3.5,6.66.23.25.75.25.86-.13.47-1.65.65-3.34.73-5.03.48,1.5,1.25,2.86,1.94,4.27.67,1.37.95,2.87,1.83,4.13.28.4.8.12.89-.26.21-.93.37-1.87.51-2.8,2.03,6.83,6.6,10.2,13.16,11.76-.22-.45-.45-.9-.67-1.35-.05-.09-.06-.18-.05-.27-3.79-1.94-6.16-5.55-6.97-9.9-.51-2.71-.22-8.43,3.48-8.96,2.83-.41,5.57,1.03,7.8,2.82.13-.18.39-.28.58-.15-.86-3.43-2.03-6.73-2.4-10.27.02-.51.07-1.01.15-1.51.18-.13.43-.16.59.05.58.76,1.08,1.55,1.57,2.36-.82-5.04-1.32-10.2-1.71-15.29.02-1.1.15-2.19.36-3.29.12,0,.24.04.32.17.44.7.85,1.4,1.25,2.12-.02-2.4-.56-4.59-1.15-6.86-.02-.37-.06-.73-.09-1.1-.03-.81.02-1.62.11-2.42.8,1.23,2.95,4.96,2.57,1.44-.35-3.26-1.14-5.88-2.77-8.72-.03-.04-.02-.1-.01-.14-.17,0-.3,0-.4.01,0-.19.01-.38.06-.54.73-.27,1.47-.19,2.27-.16,1.92.08,3.8-.18,5.67-.5-1.13-.57-2.3-1.03-3.37-1.74-.12-.08-.18-.19-.19-.3.73-.19,1.53-.26,2.22-.43.43-.11.86-.23,1.29-.34,4.84-.25,9.75-1.46,14.37-2.74,2.73-.76,5.43-1.75,8.18-2.41,3.07-.74-2.01-1.2-2.7-1.3-.11-.02-.2-.06-.26-.11,1.39-.52,2.88-.71,4.33-1,.95-.19,1.84-.54,2.72-.9.74-.16,1.49-.32,2.27-.47,2.92-.57,2.64-1.08.23-2.24-.41-.2-.18-.73.18-.83,2.23-.62,4.47-1.22,6.74-1.67,2.36-.57,4.76-.99,7-1.92.35-.15,3.29-1.4,1.43-2.09-.8-.29-1.62-.45-2.47-.51-1.25-.08-2.51-.1-3.76.01-.24.02-.21-.31-.01-.34.43-.07,1.79-.22,3.27-.24-.02-.08.07-.21.17-.21,2.41-.07,4.71-.85,7.11-1.07,1.75-.15,3.48-.31,5.2-.67-1.58-1.48-3.99-2.17-6.06-2.36-.03,0-.04-.03-.06-.04.98-.03,1.96-.08,2.94-.14.44.11.87.24,1.29.4,0,0,.01,0,.02-.01,3.03-.43,6.26-.52,9.38-.58-1.33-.92-2.77-1.65-4.18-2.45-.44-.25-.08-.81.29-.98.33,0,.63,0,.79,0,.43-.02.87-.02,1.3-.02,1.31.08,2.6.25,3.92.43.98.13,1.99.31,2.97.31,1.45,0,1.05.06.46-.37-.88-.64-2.14-1.13-3.07-1.84,1.36.29,2.69.68,4.03,1.06.48.44.76.88.63,1.28-.04.11-.1.18-.15.27.86,1.89,1.7,3.79,2.53,5.7-.17-2.1,0-4.37.08-6.37.02-.55.57-1.02,1.09-.71.81.49,1.4,1.11,1.88,1.82-.4-3.71-1.91-6.82-3.07-10.63-.09-.3.28-.84.63-.65Z"/>
        </g>
        <path class="cls-15" d="M93.5,297.9c3.58.41,6.82-1.29,8-4.93,2.7,2.28,5.46,4.44,8.4,6.33-5.47,1.39-11.26.91-16.39-1.4Z"/>
        <path class="cls-9" d="M145.76,196.38s15.69,2.12,17.77,4.67c1.48,1.83-12.02.95-22.89.33s-3.5,2.62,2.37,3.38-1.87-.12-11.62.5,1.87,3.88,6.87,4.75-7.62,2.12-16.37,2.88,1.25,2.38,8.37,3.25-6.12,2.38-18.87,2.5-1.12,2.5,5.62,2.75,1.87,2.25-10.75,1.88-10.37,2-3,3,2.5,4.02-11.12,3.25c-11-.62-13.62,1.62-8.62,2.38s6.28,2.38-1.12,2.38-.46,4.74-.58,11.91c-.12,7.17-4.28-2.31-5.32-7.98-1.04-5.67-2.54,12.83-1.39,16.88,1.16,4.05-5.06-5.46-3.7-16.54.69-5.67-1.04-2.89-3.7-1.16-2.66,1.73-1.74-1.85,2.89-5.78,4.63-3.93-3.01-1.39-1.16-5.32,1.85-3.93,3.82-3.47,4.74-.93.92,2.54,3.24-14.45,5.67-16.3s2.54,9.48,2.54,9.48c0,0,5.37-17.77,7.75-19.65s1.75,8.25,1.75,8.25c0,0,8.37-12.12,10.62-13.62s-.87,7.25-.87,7.25c0,0,11-8.88,14.5-10.62s-2.5,8.25-2.5,8.25c0,0,10.25-9.25,13.37-10s-2.75,6.25-2.75,6.25c0,0,11.25-7,15.12-7.25s-2.25,5.62-2.25,5.62c0,0,13.5-6.5,22.25-5.38s-8.37,4.62-8.37,4.62c0,0,8.25.25,11.25,2.88s-16.5,1.25-16.5,1.25Z"/>
        <g>
          <path class="cls-1" d="M124.72,313.99c.29-.21.58-.41.88-.6-.32.18-.61.39-.88.6Z"/>
          <path class="cls-25" d="M125.6,313.39c.76-.45,1.63-.81,2.48-1.1-.83.19-1.67.58-2.48,1.1Z"/>
          <path class="cls-25" d="M136.21,315.74c-3.56-.84-4.49.24-2.71.73-.24-.03-.14-.32.07-.32,1.71.03,3.67.19,5.08.88-.12-.53-.3-.95-.54-1.29-.46.12-1.07.14-1.89,0Z"/>
        </g>
        <path class="cls-25" d="M139.33,324.76c-1.67.09-3.37-.13-5.03-.27-.38-.03-.22-.5.1-.5,2.06.02,4.32-.25,6.34.15,0,0,.02,0,.02,0,.04-.34.08-.68.04-1.02-.12-1.08-.94-1.38-1.85-1.71-1.46-.52-2.97-.8-4.47-1.15-.28-.06-.09-.46.15-.42,1.6.24,3.58.3,5.17.96-.06-1.44-.49-2.63-1.96-3.33-1.39-.66-2.84-.85-4.35-1.01,1.78.49,4.87,1.14,5.15,2.08.28.94-.75,1.41-3.09,1.03s-2.34.56-.75.94,4.4,1.12,4.49,2.06c.09.94-5.43-.09-5.71,1.4-.28,1.5,4.68.75,5.99,1.12,1.31.37-.94,2.25-4.03,2.15-3.09-.09-4.12-1.22-6.46,1.12-2.34,2.34-8.62,4.21-9.93-1.5-1.31-5.71,2.62-10.3,5.24-12.64.1-.08.2-.16.3-.24-1.97,1.46-3.76,3.47-4.98,4.8-2.86,3.13-2.05,6.59-1.7,10.19.02-.05.04-.1.06-.15,0,.21.02.42.03.63-.09.91-.3,1.77-.49,2.66,0-.01-.02-.02-.02-.03-.01-.14-.04-.3-.06-.45-.01.03-.03.06-.04.09-.65,1.34-1.32,2.67-2.03,3.99,1.2-1.57,2.54-3.13,3.23-3.18,1.4-.12-3.26,10.58-8.95,19.54-4.77,7.5-8.89,6.84-6.89,1.71-.53.85-1.01,1.75-1.36,2.71-.03.06-.07.12-.09.18.66-2.81,2.59-5.64,3.76-8.28,1.07-1.43,2.21-2.82,3.29-4.21.06-.94.13-1.87.23-2.8-.35-.15-.72-.3-1.13-.4-1.77-.43-3.65-.78-5.48-.79-1.96-.02-4.13-.17-6,.38.02.31.04.63.05.95,1.49-.43,3.74-.81,6.29-.36,3.72.58.58,6.51-.93,10.82-1.42,4.04-3.76,2.03-4.91-3.63.08.96.17,1.92.29,2.87.12,1.05.32,2.06.54,3.06.2,1.43.47,2.84.83,4.16.37,1.35,1,3.18,2.19,4.17.55.69,1.18,1.32,1.98,1.6,1.42.51,2.58.21,3.64-.41,2.42-2.96,4.48-6.28,6.38-9.6,2.66-4.67,4.79-9.45,6.7-14.34.15-.28.31-.56.46-.84,1.23-2.31,2.24-4.73,3.3-7.13-.07.34-.13.68-.21,1.03,3.31.26,6.45-2.86,8.71-5.13.25.03.5.03.75,0-.02.03-.03.06-.05.09.82-.12,1.66.03,2.48-.06,1.01-.1,1.97-.21,2.92-.61.08-.04.16.06.08.12-.62.42-1.25.82-1.96,1.05.41-.03.79-.04,1.05-.06.1,0,.08.13,0,.15-.8.1-1.64.17-2.39.48-1.85.78-1.65,2.66.41,2.53,2.18-.13,3.75-.42,5.04-2.4.69-1.06,2.85-4.47-.41-4.29Z"/>
        <path class="cls-3" d="M136.42,315.19s-2.81-1.35-5.2-1.85-.69-.89,2.12.12c2.81,1,4.97,2.35,3.08,1.73Z"/>
        <path class="cls-3" d="M137.28,318.18s-3.36-.76-5.06-.91c-1.7-.15-.6-.91,2.11-.3,2.72.6,4.23,1.32,2.94,1.21Z"/>
        <path class="cls-3" d="M115.32,336.46s-7.08,10.37-9.78,13.76c-2.69,3.4.12,1.29,4.1-4.27s7.91-12,5.68-9.49Z"/>
        <path class="cls-3" d="M96.9,342.2s-.12,4.55.7,7.49c.81,2.93-.85.39-1-3.24-.15-3.63.31-4.79.31-4.25Z"/>
        <path class="cls-3" d="M132.63,320.53s3.09.12,5.32,1.27c.6.24-6.23-1.15-5.32-1.27Z"/>
        <path class="cls-25" d="M169.9,315.01c-.12.24-.37.5-.85.74-1.58.79-4.17,2.25-5.29,4.38-.87,1.63-1.19,2.69-1.56,2.95.08.39.24.77.53,1.11.26-1.19,1.07-2.46,1.46-3.33.91-2.03,1.8-2.85,3.92-3.68.76-.29,1.68-.75,2.49-.79-.13-.56-.36-1.07-.7-1.38Z"/>
        <path class="cls-25" d="M167.34,313.34c-.11.27-.35.59-.83.96-1.83,1.42-3.79,3.25-4.29,4.54-.3.77-.66,1.41-1.05,1.65.05.47.2.95.5,1.42.03-.16.06-.32.09-.48.45-2.19,1.71-3.66,3.39-5.09.53-.45,1.92-1.83,3.13-2.48-.3-.29-.62-.45-.95-.53Z"/>
        <path class="cls-25" d="M165.33,312.14c-.03.16-.14.35-.36.57-1.08,1.08-4.42,4.21-4.87,6.29-.16.72-.38,1.01-.61,1.03,0,.09,0,.18.02.26.28.27.54.53.94.47-.25-1.92,1.19-3.98,2.45-5.41.89-1.01,2.14-2.27,3.36-2.63-.27-.23-.59-.46-.93-.58Z"/>
        <path class="cls-17" d="M159.96,364.74c-.54-5.15,1.57-8.51,3.78-13.02,3.72-7.6,4.15-15.64,3.98-23.98-.03-1.61.6-2.51,1.44-2.84-.29-1.25-.62-2.47-1.06-3.66-.08.05-.17.09-.25.14-.56,1.5-1.15,3.11-2.53,3.82-.03.01-.05.02-.08.03-.05.04-.11.09-.17.13.41,1.19.7,2.43.81,3.72.5,5.39.37,12.03-1.46,17.19-1.3,3.66-3.37,6.78-5.08,10.22-2.22,4.47-2.54,9.16-1.8,13.99,1.08-.94,2.07-2,3-3.12-.3-.84-.49-1.75-.59-2.63Z"/>
        <path class="cls-17" d="M158.42,311.24c-2.43.3-4.39-.79-6.64-1.51-1.72-.55-5.75-1.07-7.15-2.89-.88-.11-1.76-.22-2.66-.34.02.22-.27.46-.42.24-1.25.09-1.33.39-.22.9,1.15.22,2.29.47,3.43.73,1.67.44,3.4.84,5,1.51,2.91,1.21,5.63,2.78,7.94,4.95.06-.07.13-.13.19-.2.61-.83,1.37-1.55,2.23-2.12.06-.05.12-.11.18-.16.23-.18.5-.38.78-.58-.44-.32-.89-.61-1.34-.89-.42.17-.85.31-1.31.36Z"/>
        <path class="cls-8" d="M149.51,332.88s5.5,17.25,3.75,37.75c-.75,9.5,4-7.5,1-26s-6-18.75-4.75-11.75Z"/>
        <path class="cls-8" d="M102.88,309.41s-2.73,4.09-4.09,15.41c-.78,8-2.83,5.37-1.51-3.85,1.32-9.22,6.19-15.07,5.61-11.56Z"/>
        <path class="cls-8" d="M150.8,377.22s-5.71,4.79-15.07,6.16c-9.36,1.37,9.13,3.65,15.07-6.16Z"/>
        <path class="cls-4" d="M169.13,328.63s.37,21.25-6.62,32.88c-1.62,2.88,5.12-2.62,6.75-15.75s0-21-.12-17.12Z"/>
        <path class="cls-4" d="M132.59,339.17s-1.61,28.28-20.08,40.74c-3.81,2.34,9.38-.29,15.68-17,6.3-16.71,5.72-27.11,4.4-23.74Z"/>
        <g class="cls-22">
          <path class="cls-10" d="M167.96,425.85c4.56-5.11,11.25-9.92,13.79-14.5,1.15-2.08,2.85-2.43,4.37-2.2-.1-1.9-1.65-3.43-3.04-5.08.2,2.22-.74,3.91-2.35,5.91-3.15,3.9-6.48,7.74-9.97,11.33-2.74,2.82-5.77,6.41-9.58,7.79-1.61.58-3.43.45-4.47,1.43-.08.07-.21.13-.33.15-.09.28-.05.59.22.93,2.23,2.81,5.41,1.46,7.96.25,1.07-.51,2.04-1.05,2.97-1.62-1.6-.31-1.79-1.88.44-4.39Z"/>
        </g>
        <g class="cls-22">
          <path class="cls-10" d="M134.09,438.33c-1.11,2.06-3.17,3.53-5.42,4.14-7.13,1.96-17.83.92-25.29-2.42-2.84-.55-5.5-1.56-8.23-3.05-1.81,2.46-1.69,4.15.39,5.08.75.45,1.51.88,2.28,1.28-.09-1.66,1.92-2.81,5.72-1.76,8.62,2.38,18.43,3.27,23.48,2.08,1.9-.45,2.87.07,3.35.89,2.07-1.45,3.2-3.76,3.72-6.24Z"/>
        </g>
        <path class="cls-5" d="M163.43,391.88s6,3,11.33,8.67c5.33,5.67,3-1.33-2.83-5.5-5.83-4.17-14.5-7.17-8.5-3.17Z"/>
        <path class="cls-5" d="M126.93,419.04s6.67-12,22.33-15.83c7-.83-13.5-6-22.33,15.83Z"/>
        <path class="cls-2" d="M183.63,411.75s-3.87,4.62-9.5,10.62-2,4.5,1.5.38,7.25-8,8.37-9.38,2.62-3.5-.37-1.62Z"/>
        <path class="cls-2" d="M105.22,444.82s8.67,2.03,18.19.75c9.52-1.28.21,2.25-6.85,1.82s-13.48-1.93-11.34-2.57Z"/>
        <path class="cls-25" d="M210.69,479.61c-.38-.81-.76-1.63-1.13-2.44.85,6.21-3.63,5.94-7.13-1.05-4.05-8.1-15.15-36.61-12.3-37.06.7-.11,1.64.53,2.65,1.57-.68-1.78-1.37-3.56-2.08-5.35-3.33,4.37-13.58-5.95-12.73-8.28.5-1.38,2.33-3.84,4.09-6.02-.63-.79-1.28-1.58-1.92-2.37-2.65,3.14-5.48,6.13-8.54,8.88,4.63,3.62,9.07,7.82,11.83,12.56,4.52,7.76,7.92,16.02,10.99,24.43,2.83,7.74,6.1,15.19,10.22,22.27,1.02-2.03,5.03-3.84,7.58-4.05-.53-1.01-1.04-2.04-1.53-3.09Z"/>
        <path class="cls-25" d="M110.48,447.63c0,.16.02.31.03.47.08,2.6.19,5.5-.72,8-2.66,7.33-10.31,12.63-15.41,18.32-6.5,7.26-11.99,15.19-16.95,23.58-.62,1.05-1.24,2.11-1.86,3.16.07,1.86.87,3.63,2.39,4.9.66.55,1.34,1.15,2.1,1.57.56.31,1.26.39,1.8.68,1.1-1.48,2.21-2.96,3.32-4.42-4.8,2.6-8,.88-1.93-8.69,7.5-11.83,24.17-29.83,28.33-28.67.88.25,1.3,1.06,1.41,2.19,1.33-1.71,2.62-3.47,3.7-5.33-5.18.16-1.83-13.38,1.39-13.53,1.04-.05,1.72.77,2.17,1.92.16-1.06.32-2.12.45-3.19.03-.21.05-.5.07-.83-3.44-.04-6.87-.12-10.31-.14Z"/>
        <g class="cls-22">
          <path class="cls-27" d="M211.72,494.3c-3.96-6-3.71-8.18-1.15-8.94,2.02-.61,3.79,1.41,4.45,2.29-.76-1.28-1.51-2.58-2.22-3.9-2.53.39-6.9,1.33-7.72,3.76.69,1.16,1.4,2.32,2.14,3.46,2.73,4.23,5.79,8.22,8.83,12.23.51-.4,1.03-.76,1.43-1.05.04-.03.09-.05.13-.07.15-1,.37-1.87.52-2.13.65-1.14,1.8-2.14,3.08-2.71-.53-.79-1.06-1.58-1.58-2.37.89,4.4-4.25,4.94-7.89-.58Z"/>
        </g>
        <g>
          <path class="cls-1" d="M227.19,499.92c-.35-.07-.71-.13-1.06-.17.16.13.31.25.46.37.22.16.48.02.6-.19Z"/>
          <path class="cls-21" d="M227.21,499.9s-.01.01-.02.02c.03,0,.06.01.09.02-.02-.01-.05-.02-.07-.04Z"/>
          <path class="cls-23" d="M244.22,495.29c.3-1.33.81-2.42,1.45-3.42-1.99,1.68-3.94,3.4-6.07,4.89-.17.12-.35.24-.53.37,1.46-.65,2.78-1.02,3.11-.5.83,1.33-3.13,10.77-9.75,15.75-8.42,6.33-15,7.83-16.08.17-.67-5.92,1-7.17,1.75-5.42s.25-3.25,2.25-5.75c1.34-1.68,3.52-1.93,5.79-1.63-.98-.81-2.09-1.8-3.41-1.43-1.24.36-2.9.98-3.5,2.24-.09.2-.39.98-.67,1.88-.5.86-.96,1.88-1.05,2.76-.1-.55-.09-1.3-.02-2.06-.39.45-.76.93-1.09,1.42-.13.12-.25.25-.36.38-.64.36-1.03,1.17-1.21,2.05-.03,0-.05.03-.07.03-1.11,4.59.54,9.74,2.87,14.28,11.09-.25,20.58-11.18,26.69-19.95-.48-2.02-.57-3.87-.07-6.06Z"/>
        </g>
        <g>
          <path class="cls-1" d="M74.3,526.92c-.4-.47-.81-.83-1.22-1.11.28.39.56.79.86,1.12.1.11.24.07.36,0Z"/>
          <path class="cls-21" d="M74.32,526.9s-.02,0-.03.02c.03.03.06.07.08.1-.02-.04-.04-.08-.06-.12Z"/>
          <path class="cls-23" d="M82.18,534.54c.71,1.27-2.31,2.36-4.59,5.17-2.83,3.5-12.67,2.67-16-4-3.33-6.67-4.69-11.28-2.3-14.46,2.39-3.19,4.54-5.02,3.98-1.67s2.47,3.43,1.75,5.58,1.51,6.45,1.67,3.82c.13-2.22,3.29-5.22,6.37-3.17-.5-.69-1.02-1.36-1.8-1.58-.04,0-.07-.01-.1-.04-.19-.04-.4-.06-.62-.05-2.22.17-4.28,1.85-4.23,4.21,0,.1-.13.23-.22.15-.92-.76-.6-2.37-.06-3.29.2-.34.43-.64.69-.91-.78-.31-1.39-1.16-1.64-1.94-.63-1.91-.66-3.8-.23-5.76.04-.15.31-.23.31-.03-.02.69.08,1.35.25,2,.24-1.22.6-2.45,1.02-3.67-3.04-1.63-5.65,3.25-7.04,5.04-.95,1.22-1.86,2.48-2.54,3.8,1.03,8.38,5.02,20.8,14.9,21.93,1.68.19,3.35.35,5.01.46.53-2.78,1.94-5.12,4.6-6.99,1.86-1.3,3.67-2.49,5.62-3.09-1.53-.38-3.19-.86-4.79-1.52Z"/>
        </g>
        <path class="cls-18" d="M98.12,540.89s-4.77-5.99-11.53-2.93c-5.74,2.59-6.17,8.33,1.75,7.08s11.19-2.98,9.78-4.15Z"/>
        <path class="cls-18" d="M98.37,544.03s-5.81,2.99-13.3,3.28c-3.86.06-1.87,1.73,4.89,1.32,8.52-.52,9.96-4.95,8.41-4.61Z"/>
        <path class="cls-18" d="M247.56,490.59s-1.74,2.22-1.94,4.1c-.21,1.88,1.39.49,3.61-2.08,2.22-2.57,4.45-4.17,6.6-4.58s.49-2.08-2.71-1.04c-3.2,1.04-4.17,2.29-5.56,3.61Z"/>
        <path class="cls-18" d="M248.77,501.53s6.46-10.83,11.21-11c2.83,0,1.27,5.62-4.25,11.75-9.08,10.08-11.38,6.83-6.96-.75Z"/>
        <path class="cls-18" d="M247.9,497.72s6.08-7.94,10.51-8.65c.63-.13-4.31-1.06-10.51,8.65Z"/>
        <path class="cls-13" d="M59.7,523.26s.83-2.02,2.16-2.16-.49,1.67,1.04,2.57-.77,4.73,2.99,7.51c3.76,2.78,1.18-3.27,3.76-4.66,2.57-1.39,3.27.56,4.73,2.78,1.46,2.23,4.24,4.59,6.19,5.36,1.95.76-1.67.63-4.52-2.16-2.85-2.78,2.69,6.03-2.23,7.44-7.03,2.02-15.37-8-14.12-16.69Z"/>
        <path class="cls-13" d="M226.55,501.48s4.69,1.25,10.08-2.27c5.39-3.52.62.39-2.27,2.11-2.89,1.72.47,1.56,3.52-.23,3.05-1.8-2.89,9.22-11.48,12.5-8.59,3.28-11.02-7.81-7.11-4.38,3.91,3.44.47-9.38,7.27-7.73Z"/>
        <path class="cls-3" d="M110.87,471.08s-14.24,18.45-19.63,25.03c-5.39,6.58,10.57-16.51,19.63-25.03Z"/>
        <path class="cls-3" d="M193.93,443.71s5.5,12.17,10.83,23.17,1.17,4.5-1.67-1.33-9.17-18.17-9.17-21.83Z"/>
        <path class="cls-3" d="M119.47,452.17s-.85,5.99-2.08,9.12c-.72,1.5,1.04.06,1.95-4.23.91-4.3.39-6.18.13-4.88Z"/>
        <path class="cls-3" d="M182.26,423.25s5.12,6.5,6.87,10.38.25-1.75-2.12-5.5-5.25-6-4.75-4.88Z"/>
        <g class="cls-22">
          <path class="cls-27" d="M71.7,512.12c3.34-5.9,4.93-4.14,6.25-2.9,1.12,1.05,2.04,1.34,1.48,2.48.53-.74,1.05-1.49,1.59-2.23-1.49-.01-3.57-1.84-4.26-2.61-1.17-1.3-1.82-2.78-1.98-4.33-3.26,5.63-6.36,11.38-8.53,17.52-.04.13-.13.22-.22.29.16.36.34.72.52,1.07.37.71.9,1.31,1.3,2,.49-.3,1.01-.54,1.58-.7.85-.23,1.7-.23,2.45-.02.7-1.08,1.43-2.13,2.14-3.2-3.61,4.35-5.63-1.55-2.33-7.37Z"/>
        </g>
        <path class="cls-8" d="M213.86,487.16s3.09,3.85,4.43,6.3c1.34,2.45-.47-.23-2.39-2.22-1.92-1.98-3.32-5.71-2.04-4.08Z"/>
        <path class="cls-8" d="M78.87,511.97s-3.12,4.81-4.47,6.3c-1.36,1.49-.88.27.68-2.17s4.81-5.56,3.79-4.13Z"/>
        <g class="cls-22">
          <path class="cls-11" d="M95.82,307.71c-.44-.32-.93-.58-1.43-.74-.28-.09-.6-.17-.92-.21-2.17,1.35-3.81,3.95-5.31,6.68-2.01,3.66-3.79,7.43-5.39,11.29-.94,2.27-1.85,4.54-2.77,6.81,1.82-4.39,9.04-21.25,12.52-21.5,4-.28,1.62,13.96-2.51,24.08s-4.62,26.38-8.75,23c-3.92-3.21-8.05-6.54-5.56-15.33-1.05,2.36-2.14,4.7-3.33,7,.58,2.36,3.1,5.6,4.11,7.17,2.49,3.86,5.52,5.64,9.71,7.29,0,0,0,0,0,0,1.04-4.2,1.97-8.43,2.84-12.68,1.79-8.78,3.38-17.59,5.52-26.29,1.3-5.32,3.47-11.57,1.27-16.58Z"/>
        </g>
        <g class="cls-22">
          <path class="cls-16" d="M74.91,356.04c-.8-1.62-2.47-4.4-2.83-6.68-.07.13-.13.27-.21.4-.19.36-.39.71-.58,1.06.52.13.9.52.98,1.32.33,3.22,2.23,7.16,5.45,9.46,3.22,2.3-1.38,6.24-5.39,2.36-2.64-2.55-3.37-6.29-3.56-8.55-.02.03-.04.07-.05.1-.44,3.73,1.18,7.47,4.58,10.24,2.98,2.43,6.57,3.51,9.62.34.76-.79,1.48-1.45,2.41-1.95-4.87-1.27-8.13-3.43-10.43-8.11Z"/>
        </g>
        <g class="cls-22">
          <path class="cls-16" d="M78.37,369.43c-3.2-.3-5.57-1.82-7.7-4.23-1.9-2.14-2.98-4.93-3.08-7.7-.74,1.28-1.5,2.55-2.27,3.8-.87,1.41-1.86,2.82-2.84,4.24,1.61-2.11,4.43-5.42,4.81-3.08.53,3.29,4.55,6.07,7.22,7.24,2.67,1.17.08,6.92-5.08,14.08s-14.08,1.08-12.08-8.83c0,0,0,0-.02,0-1.34,4.93.34,10.18,2.92,14.54,1.85,3.12,5.28,8.24,9.64,7.14,6.54-1.65,9.77-12.17,11.7-17.68,1.62-4.64,2.99-9.36,4.21-14.11-2.68,1.48-3.81,4.92-7.42,4.58Z"/>
        </g>
        <path class="cls-6" d="M87.98,317.55s-9.34,19.81-10.47,27.31c-1.13,7.5-2.12,1.7,1.13-7.5,3.25-9.2,10.47-24.9,9.34-19.81Z"/>
        <path class="cls-6" d="M84.26,310.42s-3.45,5.46-5.27,10.22c-1.32,4.01-1.25,1.63.06-2.26s6.4-9.91,5.21-7.97Z"/>
        <path class="cls-4" d="M71.05,353.37s-.62,4.43,1.17,7.61c1.79,3.19-1.48,2.49-2.02-1.55-.54-4.04.78-8.16.85-6.06Z"/>
        <path class="cls-4" d="M63.44,366.95s-6.32,8.45-3.5,14.99c1.22,2.74-3.81-2.36-1.22-8.45,2.59-6.09,6.54-9.06,4.72-6.54Z"/>
        <g>
          <path class="cls-29" d="M118.25,60.05c2.5-2.65,4.09-5.88,4.98-9.39,1.47-5.8-.16-11.6-3.52-16.41-6.57-9.41-20.28-13.21-29.79-5.81-8.76,6.83-11.33,22.13-.35,28.16,12.6,6.92,20.19-7.02,20.77-17.53.03-.59-.8-.54-.93-.05-2.46,9.22-10.12,20.51-20.09,11.18-3.5-3.28-3.33-8.75-1.84-12.9,1.95-5.4,7.1-8.61,12.62-9.22,9.69-1.08,17.92,7.5,19.13,16.54.83,6.15-2.27,10.84-6,15.39-4.22,5.13-5.39,9.54-4.42,16.12.15,1.01,1.64.49,1.68-.34.13-2.82.25-5.43,1.15-8.15.97-2.95,4.52-5.39,6.6-7.6Z"/>
          <path class="cls-29" d="M113.67,86.23c-.44,1.79-2.26,2.89-4.05,2.45-1.79-.45-2.89-2.26-2.45-4.06.44-1.79,2.26-2.89,4.06-2.45,1.79.44,2.89,2.26,2.45,4.05Z"/>
        </g>
      </g>
    </g>
  </g>
</svg>