<?xml version="1.0" encoding="UTF-8"?>
<svg xmlns="http://www.w3.org/2000/svg" viewBox="0 0 166.31 400.09">
  <defs>
    <style>
      .cls-1 {
        fill: none;
      }

      .cls-2 {
        fill: #fe0000;
        opacity: .3;
      }

      .cls-3 {
        opacity: .7;
      }

      .cls-3, .cls-4, .cls-5 {
        mix-blend-mode: screen;
      }

      .cls-3, .cls-6 {
        fill: #db9c28;
      }

      .cls-4 {
        fill: #e1b39b;
      }

      .cls-7 {
        opacity: .5;
      }

      .cls-7, .cls-8 {
        fill: #fff;
      }

      .cls-9 {
        isolation: isolate;
      }

      .cls-10 {
        fill: #b71a69;
      }

      .cls-11 {
        fill: #f77cb4;
      }

      .cls-12, .cls-13 {
        fill: #fed1b4;
      }

      .cls-14 {
        fill: #ffa51e;
      }

      .cls-5, .cls-15 {
        fill: #ffe61e;
      }

      .cls-16 {
        fill: #ada9a5;
      }

      .cls-17 {
        fill: #ff3f98;
      }

      .cls-13 {
        mix-blend-mode: multiply;
      }

      .cls-18 {
        fill: #4b1e0a;
      }
    </style>
  </defs>
  <g class="cls-9">
    <g id="Livello_2" data-name="Livello 2">
      <g id="Layer_1" data-name="Layer 1">
        <g>
          <path class="cls-18" d="M139.75,200.92c-.04-.83-.15-5.13-2.02-4.24-.66.31-.8.99-.89,1.67-.07.52-.02,1.08-.01,1.59,0,.5.59,1.89.51,2.64-.85-.63-1.79-.81-2.9-.85-.38-.01-1.9.36-2.12-.1-.26-.55-.32-1.25-.49-1.85-1-3.43-2.72-4.89-5.54-6.67.48-1.98,1.26-3.91,1.84-5.84,1.95-6.47,4.83-12.45,6.2-19.12.38-1.84.71-3.69,1.1-5.53,1.5-7.15-2.56-9.96-7.53-13.59.06-.11.08-.25,0-.35-.34-.5-.67-.97-1.08-1.43-.19-.22-.51-.17-.71.03-1.77,1.84-2.66,4.22-4.11,6.27-.55.78-2.27,2.39-1.16,3.33.07.06.19-.05.19-.12,0-.16.03-.31.06-.46.61.66,1.27,1.29,1.92,1.91.41.39.81.8,1.19,1.22.2.22.37.48.56.7-.57.9-.95,1.93-1.12,3.08-.04.3-.08.61-.12.91-.1.62-.17,1.26-.22,1.9-.48,4.9-.43,9.89-.6,14.8-.26,7.52-2.1,14.29.08,20.8.13,1.56.57,3.05.79,4.61.23,1.61.26,3.13.94,4.64.85,1.9,3.41,1.3,4.94.81.02,0,.02-.02.04-.03.44.04.87.05,1.27-.03.93-.18,1.47-.77,2-1.5,1.1-.06,2.1-.41,2.73-1.26,1.64-.15,3.04-1.12,3.24-2.95.42-.06.81-.22.95-.71.37-1.33.12-2.93.06-4.29Z"/>
          <path class="cls-12" d="M138.34,205.02c-.08.08-.19.14-.34.14-1.5,0-2.97.54-4.46.4-1.06-.1-1.82-.74-2.41-1.54-.07.09-.09.21-.03.3.69.92,1.45,1.75,2.6,2,1.25.28,2.94-.22,4.22-.34.06,0,.12,0,.18-.01-.43.71-.74,1.46-1.54,1.86,0,0-.02,0-.03.01-.04.02-.08.05-.13.07-.65.26-1.56.15-2.3.09-.91,0-1.81-.06-2.72-.18-.24.02-.41.06-.45.15-.24.61,2.57.83,3.43.89-.63.28-1.22.55-2.06.56-1.4.01-2.81-.14-4.16-.51-.18-.05-.29.25-.11.32,1,.38,2.49.82,3.91.9-.02.02-.04.04-.05.06-.61.73-1.31.9-2.24,1.02-.04-.07-.09-.11-.2-.11-.86.02-1.71.06-2.56-.02-1.56-.14-1.82-1.76-2.12-3-.15-.6-.23-1.22-.34-1.83-.03-.12-.05-.25-.07-.37-.05-.23-.11-.46-.18-.68-.07-.22-.15-.53-.23-.87.06.11.12.21.18.32-.12-.65-.26-1.29-.43-1.93-.22-.79-.38-1.58-.51-2.36-.29-.83-.52-1.7-.66-2.62-.64-4.45.47-8.96.94-13.37.45-4.2.37-8.45.56-12.67.02-.35.02-.71.03-1.08-.23-3-.47-6.03.55-8.9.69-1.95,2.58-4.03,4.69-4.51-1.05-.46-2.32.47-3.27,1.49-.3.28-.59.57-.83.88-.37-.53-.98-.98-1.42-1.36-.86-.74-1.74-1.44-2.55-2.22.41-1,1.45-1.85,2.01-2.71,1.06-1.64,2.03-3.3,3.22-4.85.43.36.45.41.95.71,1.25,1.23,2.56,2.39,3.82,3.62,3.51,3.39,3.54,7.11,2.62,11.57-.51,2.48-1.02,4.97-1.62,7.44-.47,1.91-.77,3.86-1.33,5.75-.55,1.84-1.57,3.5-2.13,5.33.07-.09.15-.17.22-.26-1.52,2.22-1.93,5.11-2.76,7.63-.21.65-.43,1.3-.61,1.94-.04,1.2.03,2.39.27,3.56.04-.73.15-1.46.3-2.18.94.81,1.96,1.47,2.76,2.46,1.3,1.61,1.75,3.68,2.21,5.64.15.64.37,1.2,1.11,1.22,1.78.03,3.31-.03,5.08.4.17.04.35-.17.33-.34.42-.51.28-1.31.2-2-.11-.88-.19-1.73-.12-2.61.11-1.29,1.01.09,1.13.61.07.31.11.63.15.94.17,1.25.18,2.49.18,3.75,0,.93-.35,1.28-.86,1.43Z"/>
          <path class="cls-18" d="M116.85,391.47c-.83-4.91-5.5-6.32-9.46-8.28-1.69-.61-3.18-1.29-5.01-1.51-.73-.09-1.39-.21-2.04-.59-.61-.35-1.2-.69-1.78-1.02-.76-.27-1.52-.55-2.2-1.05-1-.74-2.19-1.18-3.2-1.91-.86-.62-1.62-1.39-2.42-2.08.22,0,.44,0,.66.03.03-.04.04-.09.09-.12.8-.65.25-1.45-.13-2.13-.71-.62-1.46-1.17-2.33-1.48-2-.72-3.88-.7-5.61-.15.17-.17.32-.34.47-.54.83-1.14,1.46-2.71,1.43-4.14-.05-2.2-1.35-2.36-3.25-2.68.59-3.08,1.23-6.16,1.92-9.24,2.48-11.1,5.14-21.93,8.44-32.82,6.01-19.79,1.4-39.91,1.31-60.1,1.23-.34,2.31-.95,3.03-2,.28-.41-.1-.87-.54-.64-.79.4-1.62.72-2.49.98,0-.94.02-1.88.05-2.82,0-.2-.26-.16-.27.02-.07.97-.13,1.94-.18,2.91-4.54,1.24-9.89.67-14.32-1.08-.07-.55-.14-1.09-.21-1.64-.03-.23-.33-.09-.31.1.04.46.09.92.13,1.38-1-.41-1.95-.88-2.83-1.41-.26-.16-.54.29-.29.46,1.01.7,2.09,1.29,3.21,1.79.87,9.27,2.12,18.5,3.2,27.75.65,5.57,1.02,11.17.99,16.79-.04,5.81-1.99,11.51-3.68,17-4.15,13.49-6.01,27.06-6.92,40.84-2.49-1.11-3.71,2.01-3.9,4.26-.07.88.05,1.61.31,2.25-.05.1-.1.21-.15.31-.29.29-.44.62-.48.99-1.98,4.26-3,8.9-2.96,13.63,0,1.01.66,2.08,1.52,2.61,2.98,1.83,5.69,3.86,8.4,6.07,9.28,7.59,21.64,9.12,33.22,7.11,2.58-.7,5.08-1.66,7.52-2.88,1.03-1.11,1.43-2.68,1.05-4.93Z"/>
          <path class="cls-15" d="M95.38,379.4c.76.47,1.35,1,2.18,1.34.79.32,1.62.54,2.45.81-1.07.26-2.1.81-3.01,1.6-1.06.92-2.05,1.92-3.17,2.78-2.27,1.74-5.24.48-7.3-.62-2.91-1.55-5.74-4.86-1.06-8.48,1.46-1.13,3.09-1.74,4.85-1.8,0,.05,0,.1.03.13,1.66,1.71,2.98,2.98,5.03,4.24Z"/>
          <path class="cls-12" d="M75.05,349.91c1.47-10.8,3.95-21.26,7.12-31.68,5.96-19.58-.33-38.8-3.02-58.36,2.57,1.11,5.34,1.75,8.12,1.97,1.74.14,4.01.33,6-.1-.9,21.2,2.13,42.16-3.51,63.02-2.83,10.47-5.39,20.86-7.82,31.43-.79,3.42-1.57,6.88-2.2,10.35-2.05.19-4.13,0-6.02-.74.31-5.31.62-10.62,1.34-15.9Z"/>
          <path class="cls-15" d="M72.28,362.69c-.05.78-.1,1.55-.14,2.33-.43-.27-.84-.56-1.24-.9-.15-.13-.37.17-.25.31,2.94,3.42,9.35,6,12.94,1.95.18-.2.12-.61-.22-.51-.59.17-1.19.31-1.8.43.11-.58.23-1.15.34-1.73,3.26.81,2.55,4.41.42,6.04-1.54,1.18-3.97.94-5.75.7-1.48-.2-2.92-.65-4.33-1.14-1.24-.43-2.12-1.03-2.68-2.23-.69-1.48-.24-6.09,2.7-5.26Z"/>
          <path class="cls-15" d="M68.98,369.13s.02-.02.02-.02c1.1,1.83,3.53,2.65,5.81,3.21,1.69.42,3.89.69,5.81.28-1.13.81-2.14,1.85-3.03,3.03-.49.15-1.06.15-1.81-.04-1.25-.3-2.42-.83-3.53-1.45-.75-.42-3.53-2.58-3.61-4.13.12-.3.24-.59.35-.88Z"/>
          <path class="cls-11" d="M68.25,371c.42,1.31,1.58,2.7,2.32,3.33,1.75,1.49,3.9,2.32,6.16,2.63,1.48.21,2.19-1.27,2.72-2.33.02-.03.01-.06.01-.1,1.15-.85,2.35-1.59,3.76-2.21,3.62-1.58,5.46.5,7.86,2.45-4.24.1-11.94,3.28-8.97,8.1,1.94,3.14,5.06,4.89,8.71,5.2,5.46.46,6.72-7.4,13.06-5.49,4.62,2.5,11.87,6.25,12.12,10.12-6.15,6.61-18.59,4.44-26.49,3.1-8.04-1.36-17.2-8.99-22.92-15-.4-3.12.56-6.81,1.66-9.81Z"/>
          <path class="cls-16" d="M111.45,397.78c-10.71.74-22.02,1.94-31.6-4.08-3.67-2.31-6.75-5.46-10.37-7.86-1.7-1.13-2.55-2.81-2.85-4.74,6.57,7.53,15.98,14.41,25.89,15.72,6.99.92,18.53,2.74,23.49-3.82-.05,1.6-1.33,3.22-4.56,4.78Z"/>
          <path class="cls-13" d="M87.28,284.17c-2.75-6-3-14.5,1.87-14.5,1.79,0,3.05.98,3.94,2.21,0-3.37.03-6.75.18-10.14-1.98.43-4.25.23-6,.1-2.79-.22-5.56-.87-8.12-1.97,2.69,19.56,8.98,38.78,3.02,58.36-3.17,10.42-5.65,20.88-7.12,31.68-.72,5.29-1.03,10.6-1.34,15.9,1.89.75,3.97.93,6.02.74.63-3.47,1.41-6.93,2.2-10.35,0-.02,0-.04.01-.06-4.26,7.48-5.09-6.66.06-25.07,7.1-20.88,4.3-40.25,9.47-39.82.66.06,1.26.39,1.81.94,0-2.91-.03-5.83-.07-8.74-1.42,3.09-3.97,5.02-5.94.72Z"/>
          <path class="cls-18" d="M163.5,367.11c-3.21-3.81-9.29-3.75-13.28-1.39-1.55-.02-3.1,0-4.64.02-1.76,0-3.5.15-5.27-.03-1.17-.12-2.95-.92-4.22-.79.11-.35.19-.69.23-1.03.19-1.82-2.67-1.3-3.55-1.25-1.47.08-2.65.79-3.56,1.81-.13-.03-.26-.05-.37-.09-.39-.11-.72-.27-1.01-.51.06-.18.13-.36.18-.55.86-3.57-.45-6.36-4.15-6.15-.18-13.81-.19-27.61-.09-41.47.14-19.81-3.21-39.34-4.13-59.1.71-.57,1.35-1.22,1.87-1.96.2-.28,0-.85-.41-.66-.52.23-1.03.48-1.53.72-.03-.69-.06-1.37-.08-2.05,0-.11-.16-.06-.16.03-.01.72-.02,1.44-.02,2.15-2.42,1.21-4.69,2.5-7.45,3.21-2.44.62-4.95.81-7.46.91-.23-.69-.46-1.37-.7-2.05-.02-.06-.1,0-.09.06.18.67.35,1.34.53,2.01-1.16.04-2.32.06-3.47.1-.11,0-.17.19-.05.22,1.13.28,2.41.49,3.77.62,5.17,19.97,7.33,39.62,7.44,60.33.06,12.28.22,24.94,1.42,37.41-2.71-.49-4.18,1.04-4.64,4.07-.38,2.5.41,4.31,1.86,5.51-.75,3.26-1.27,6.64-1.34,10.02,0,.01,0,.03.01.04-.09.97-.07,2.01.5,2.71.4.49.83.72,1.42.91.36.12.72.25,1.08.38,1.13.7,2.51,1.13,4.09,1.6,6.45,1.91,13.01,2.65,19.69,3.03,6.3.36,12.14-.39,18.12-2.33,3.67-1.19,8.07-1.59,10.42-4.8.07-.02.15-.05.22-.12,3.13-2.91,1.1-8.78-1.2-11.52Z"/>
          <path class="cls-15" d="M150.27,366.5c1.7-.05,3.44,1.42,1.48,2.71-.89.59-1.91,1-2.88,1.43-2.44,1.06-4.9,1.19-7.46,1.36-2.74-.23-7.53-.77-6.82-3.23.32-1.1.96-2.28,1.38-3.45,4.7,1.82,9.29,1.33,14.3,1.19Z"/>
          <path class="cls-15" d="M128.39,364.7c.13.06.28.13.45.21-.32.43-.6.9-.83,1.4-1.68,3.6-7.27,3.72-11.87,2.74,4.06.19,9.83-.84,11.55-4.79.2.18.43.32.7.44Z"/>
          <path class="cls-12" d="M104.74,259.91c4.91.41,10.78-.3,14.55-3.07-.03,20.35,2.62,40.52,2.78,60.87.11,14.08-.32,28.23.15,42.33-2.07.59-4.29,1.38-6.31,1.28-1.28-14.96-1.88-29.89-1.89-45.09-.02-19.34-3.21-38.01-9.28-56.31Z"/>
          <path class="cls-15" d="M113.34,358.36c.08.77.14,1.54.23,2.31-.41-.22-.8-.5-1.17-.87-.28-.28-.67.18-.47.47,2.72,3.84,8.26,3.78,11.78.97.07,0,.13,0,.2-.01,0-.05,0-.11,0-.16.38-.32.75-.67,1.07-1.06.13-.16.18-.59-.15-.55-.3.03-.62.09-.94.16,0-.65-.01-1.3-.02-1.95,4.36-.09,4.17,5.45,1.48,7.56-1.73,1.36-5.24,1.64-7.29,1.9-2.37.3-5.12.36-7.03-1.33-2.71-2.41-1.4-7.53,2.3-7.42Z"/>
          <path class="cls-16" d="M164.05,378.05s-.02.04-.03.06c-2.82,2.77-6.31,3.24-10.1,4.35-5.4,1.57-10.4,2.37-16.02,2.3-5.37-.07-10.74-.71-16.01-1.72-3.92-.75-9.54-1.03-11.88-4.59-.07-.73-.09-1.5-.09-2.28,1.12,2.36,3.52,3.53,6.02,4.5,5.98,2.31,12.74,2.8,19.08,3,9.7.3,23.47-.4,30.09-8.77-.06,1.18-.39,2.28-1.07,3.15Z"/>
          <path class="cls-11" d="M136.9,383.22c-5.33.08-10.63-.48-15.83-1.59-3.82-.82-9.2-1.87-11.14-5.69.04-3.15.58-6.45.93-8.46.34.24.7.46,1.09.64,2.61,1.74,5.78,1.88,8.94,2.08,3.3.2,5.74.6,7.45-2.54.73-1.54,1.83-2.84,3.32-3.89,2.39-1.02,3.87.18,2.94,2.32-.54,1.25-1.33,3-1.14,4.42.37,2.74,7.81,2.18,9.45,2.18.09,0,.16-.07.21-.15,2.38-.12,4.61-.66,6.95-1.72,1.46-.66,3.48-1.52,4-3.18.45-1.43-1.94-1.88-2.77-1.91-.03,0-.06,0-.09,0,3.48-1.07,6.99-.94,10.21,1.15,2.09,1.37,3.69,4.61,3.73,7.52,0,0-.01,0-.02.01-6.25,8.06-18.91,8.67-28.22,8.82Z"/>
          <path class="cls-13" d="M116.32,341.01c-.5-17-2.99-54.69.58-55.08,1.92-.21,3.08.75,3.74,1.68-.2-2.98-.4-5.96-.58-8.94-1.58,4.17-6.67,3.65-7.24-.32-.67-4.67-2.04-11.8,3.03-13.15,1.52-.41,2.7,0,3.6.78-.1-3.04-.16-6.08-.16-9.13-3.78,2.78-9.64,3.48-14.55,3.07,6.07,18.3,9.26,36.97,9.28,56.31.01,15.2.62,30.12,1.89,45.09,2.03.1,4.24-.68,6.31-1.28-.06-1.68-.1-3.37-.13-5.05-2.89,7.46-5.32,1.19-5.77-13.97Z"/>
          <path class="cls-18" d="M134.92,242.44c-2.09-6.59-6.28-12.56-8.28-19.17.53-7.85-.84-15.84-4.08-22.94.14-.58.25-1.17.32-1.78.06.2.11.4.17.59.03.11.09.16.16.19-.2-1.64-.1-3.28.02-4.93-1.26-9.09-2.71-17.94-6.25-26.47-.1-.07-.19-.15-.22-.27-.27-1.02-1.01-1.83-1.25-2.86-.3-.6-.61-1.2-.86-1.82-.47-.92-.96-1.84-1.46-2.75.19.1.37.2.57.28,1.62.68,2.79,1.6,4.24,2.53.08.05.16.08.24.12,1.7.61,3.08-.65,4.27-2.12,0-.01,0-.03-.02-.04.14-.15.26-.32.39-.48.04-.03.07-.06.1-.09.49-.64.94-1.27,1.37-1.77,1.21-1.63,2.28-3.36,3.13-5.19.8-1.72,5.13-11.55,1.45-12.76-3.71-1.22-7.97-.74-11.8-1.5-4.66-.93-9.16-2.77-13.41-4.86-5.79-2.86-12.57-5-18.77-2.22-.05-.09-.08-.19-.05-.29-.02-.02-.04-.05-.06-.06-.66-.58-1.57-.72-2.42-.71-.89-.6-1.89-.56-2.95-.48-2.36.18-4.69.16-7.04.22-.03-.09-.06-.17-.08-.26-.08-.25-.43-.02-.39.19,0,.03,0,.05.01.08-.05,0-.11,0-.16,0-.22,0-.33.37-.1.44.11.04.23.06.34.09.03.16.04.31.07.46-1.76-.4-2.96,2.14-3.42,4.14-2.35,1.42-4.85,2.52-7.32,3.72-1.18.57-2.29,1.26-3.43,1.9-.95.53-1.76.69-2.55,1.32-15.79-2.75-7.07,30.09-3.63,38.35-1.5,1.8-2.59,3.83-.36,5.66,2.11,1.73,6.73,1.19,9.73.62.46,2.93,1.55,5.72,3.06,8.31-.02.03-.05.06-.06.1-1.06,5.79-2.92,10.95-.06,15.46-.02.09-.04.19-.06.28-.02.12.11.18.2.12-1.38.82-2.47,5.4-2.94,6.88-1.07,3.4-1.59,7-1.92,10.54-.3,3.18-.27,6.38.07,9.53,0,0,0,0-.01.02-1.64,2.67-3.06,5.61-5.25,7.89-.54.56-1.28,1.17-1.27,2.06.03,3.06,2.59,5.32,4.43,7.55,6.29,7.62,15.96,10.61,25.5,11.27,18.55,1.28,40.87-2.8,51.02-20.22,1.12-1.3,1.7-2.82,1.06-4.86Z"/>
          <path class="cls-12" d="M78.9,131.32c1-.12,2.04-.25,2.99.19,2.18,1.03.22,4.56-.94,5.42-1.6,1.2-4.61,1.63-6.37.62-.87-.5-.89-2.54-1.11-3.41-.23-.9-.52-1.78-.81-2.65,2,.38,4.28.05,6.23-.17Z"/>
          <path class="cls-17" d="M63.75,206.64c-.73-3.17.44-6.91.87-10.14,1.91,3.09,4.39,5.87,7.03,8.19.35.31.8-.21.56-.56-3.69-5.36-8.63-10.3-10.2-16.78.17-.04.33-.07.48-.1,4.12-.9,7.98-2.49,10.61-5.91,1.93-2.51,1.87-5.58-1.24-6.58-.71-4.9-1.97-9.51-3.85-13.91-.07-2.59-.21-5.18-.75-7.72-.02-.12-.18-.05-.16.05.3,2.08.32,4.15.28,6.24-1.19-2.56-2.58-5.05-4.24-7.47-.07-.1-.23.05-.18.14,4.48,7.48,5.77,15.35,8.46,23.48.11.33.53.04.53-.22,3.51,2.49-.05,6.42-2.49,8.05-2.32,1.55-5.35,2.23-8.05,2.72-1.55.28-3.13.37-4.71.37-1.58,0-3.09-.12-4.55-.75-1.78-.76-.87-2.67.02-4.03.16-.03.31-.21.28-.39,0,0,0-.02,0-.03.22-.31.41-.58.54-.76.16-.23-.13-.51-.33-.29-.11.13-.23.25-.34.38-1.92-9.57-13.19-40.65,6.06-36.56.17.04.28-.24.11-.31-.72-.27-1.39-.48-2.04-.65,1.88-.65,3.47-1.68,5.31-2.59,2.4-1.19,4.7-2.48,6.86-4.05-.08.45-.12.86-.1,1.16.01.33.4.22.53.05,1.11-1.5.7-5.26,3.21-5.12.19,1.44.3,2.85.41,4.33.09,1.26.61,2.12,1.78,2.62,2.51,1.07,5.59-.38,7.46-2.04,1.25-1.1,2.24-4.18,1.17-5.8.5.14.96.37,1.35.75.28.27.45.61.58.97.13.34.11.64.41.88.06.05.12.04.18.02-.02-.21-.04-.42-.07-.63-.05-.33-.1-.67-.17-1,0-.03-.02-.06-.02-.09,6.2-1.55,12.11.19,17.79,2.8,5.01,2.3,10.13,4.06,15.54,5.12,1.77.35,3.64.37,5.43.47,2.8-.73,4.54.31,5.2,3.1,0,2.14-.54,4.2-1.18,6.23-1.38,4.42-4.28,8.55-7.73,11.88-.39.12-.8.17-1.28.1-.86-.14-1.79-1.17-2.51-1.66-1.28-.85-2.83-1.12-4.2-1.8-1.37-2.39-2.82-4.73-4.38-7.02-.18-.27-.37-.55-.56-.84-.3-1.72-.18-3.36-.66-5.1-.58-2.12-1.7-4.14-3.56-5.38-.07-.04-.14.07-.1.12,1.71,2.1,2.44,4.37,3.04,6.97.12.52.15,1.16.22,1.8-1.91-2.92-4.12-6.16-6.78-7.87-.12-.08-.3.11-.22.23l.16.28c.1.16.33-.01.25-.16,1.9,3.7,5.19,7.15,7.44,10.71,3.11,4.91,5.57,10.13,7.92,15.43,3.91,8.83,4.62,18.27,6.87,27.44.19,8.28-5.36,13.8-12.97,17.12-6.86,2.98-13.92,5.86-21.53,5.35-5.94-.4-12.06-1.64-17.42-4.27-2.9-1.42-5.59-3.67-6.36-6.97Z"/>
          <path class="cls-10" d="M103.21,140.47c1.85,1.24,2.97,3.26,3.56,5.38.48,1.74.35,3.38.66,5.1.19.29.38.57.56.84,1.56,2.29,3.02,4.63,4.38,7.02,1.37.69,2.92.95,4.2,1.8.72.48,1.64,1.52,2.51,1.66.48.08.89.03,1.28-.1,3.45-3.34,6.35-7.46,7.73-11.88.63-2.02,1.17-4.09,1.18-6.23-.66-2.79-2.39-3.82-5.2-3.1-1.79-.09-3.66-.12-5.43-.47-5.42-1.06-10.54-2.82-15.54-5.12-5.68-2.61-11.59-4.35-17.79-2.8,0,.03.02.06.02.09.08.33.12.67.17,1,.03.21.05.42.07.63-.06.02-.12.03-.18-.02-.3-.24-.28-.53-.41-.88-.13-.36-.3-.7-.58-.97-.39-.38-.85-.61-1.35-.75,1.08,1.62.08,4.7-1.17,5.8-1.87,1.66-4.95,3.11-7.46,2.04-1.17-.5-1.69-1.37-1.78-2.62-.1-1.48-.22-2.9-.41-4.33-2.51-.14-2.1,3.62-3.21,5.12-.13.17-.52.28-.53-.05-.01-.3.03-.71.1-1.16-.75.54-1.52,1.04-2.3,1.53.06.36.04.79.28,1.36.98,2.35,3.93-3.65,4.41-.49.66,4.37,5.43.84,7.6,3.62,1.44,1.84,1.24,4.26.67,6.41-.73,2.72-1.91,5.3-3.22,7.79-.83,1.57-1.64,4.78-3.89,4.65-1.96-.11-2.6-3.37-2.89-4.8-.42-2.15-.53-6.41-2.46-7.91-.44,1.08-.28,2.29-.57,3.42-.09.34-.45.42-.73.3-1.65-.71-1.58-2.59-2.69-3.75-.75-.78-2.43-1.9-2.55-3.09-.14-1.4,2.07-1.32.32-2.33-.66-.38-1.31-.69-1.89-1.07-.73.37-1.47.72-2.27,1,.64.16,1.32.37,2.04.65.18.07.06.34-.11.31-19.25-4.1-7.98,26.99-6.06,36.56.11-.13.23-.26.34-.38.2-.22.49.06.33.29-.13.19-.33.45-.54.76,0,0,0,.02,0,.03.03.17-.13.35-.28.39-.89,1.36-1.79,3.28-.02,4.03,1.47.63,2.98.75,4.55.75,1.57,0,3.15-.09,4.71-.37,2.7-.49,5.73-1.17,8.05-2.72,2.44-1.63,6-5.56,2.49-8.05,0,.26-.42.55-.53.22-2.69-8.12-3.99-16-8.46-23.48-.06-.09.11-.24.18-.14,1.66,2.42,3.05,4.91,4.24,7.47.04-2.09.02-4.16-.28-6.24-.01-.1.14-.17.16-.05.54,2.54.68,5.13.75,7.72,1.88,4.39,3.14,9.01,3.85,13.91,3.1,1,3.17,4.07,1.24,6.58-2.63,3.42-6.49,5.01-10.61,5.91-.15.03-.31.07-.48.1,1.57,6.48,6.51,11.42,10.2,16.78.24.35-.21.86-.56.56-2.64-2.33-5.12-5.1-7.03-8.19-.42,3.23-1.6,6.97-.87,10.14.76,3.3,3.46,5.55,6.36,6.97,5.36,2.63,11.48,3.87,17.42,4.27,7.61.51,14.67-2.37,21.53-5.35,7.62-3.31,13.16-8.83,12.97-17.12-.37-1.53-.71-3.07-1.02-4.62.4,6.13-.87,12.68-7.02,17.21-10.17,7.5-24.83,10-35.5,6.83-10.67-3.17-10.83-11.17-6.5-8.33,4.33,2.83,14.17,5.83,9.83,2.67-4.33-3.17-5.33-7.83-.67-20.5,8-22.67,12.97-35.7,18.53-36.76,5.11-.97,14.36,14.39,15.81,16.85-.11-.27-.22-.53-.33-.8-2.35-5.3-4.81-10.52-7.92-15.43-2.25-3.56-5.54-7.01-7.44-10.71.08.15-.16.32-.25.16l-.16-.28c-.07-.12.1-.31.22-.23,2.66,1.71,4.87,4.95,6.78,7.87-.07-.64-.1-1.28-.22-1.8-.6-2.6-1.34-4.87-3.04-6.97-.04-.06.03-.16.1-.12Z"/>
          <path class="cls-15" d="M131.64,249.21c-10.68,12.06-25.73,16.47-41.93,15.69-8.44-.4-17.14-1.16-24.5-5.65-3.3-2.01-5.98-4.72-8.66-7.47-3.27-3.34,1.02-8.73,3.01-12.09.23,1.76.56,3.5.97,5.23-.02-1.66,0-3.33,0-5,0-2.78.07-5.5.59-8.15.04-2.61.2-5.22.54-7.85.46-3.49,1.35-6.86,2.58-10.14.12-.31.35-.92.47-1.5.57.73,1.28,1.44,2.15,2.13,5.73,4.54,14.41,5.5,21.45,5.9,4.55.25,8.96-1.37,13.07-3.12,4.45-1.89,9.05-3.83,13.12-6.44,3.61-2.31,6.42-5.53,7.7-9.25,1.87,5.84,2.5,11.59,2.46,17.4.81,3.68,1.22,7.5,1.01,11.21.32-1.51.58-3.03.76-4.57.71,2.15,1.62,4.22,2.55,6.34,2.23,5.1,6.67,12.01,2.52,16.86-.15.18-.07.53.14.5Z"/>
          <path class="cls-16" d="M71.94,175.35c0,.26-.42.55-.53.22-1.63-4.91-2.75-9.73-4.36-14.42-.42-1.08-.85-2.24-1.29-3.43-.79-1.9-1.7-3.77-2.81-5.62-.06-.09.11-.24.18-.14.29.42.56.85.83,1.27-1.95-4.4-4.49-8.38-8.5-9.51-15.1-.35-4.96,27.87-3.14,36.91.11-.13.23-.26.34-.38.2-.22.49.06.33.29-.13.19-.33.45-.54.76,0,0,0,.02,0,.03.03.17-.13.35-.28.39-.89,1.36-1.79,3.28-.02,4.03,1.47.63,2.98.75,4.55.75,1.57,0,3.15-.09,4.71-.37,2.7-.49,5.73-1.17,8.05-2.72,2.44-1.63,6-5.56,2.49-8.05Z"/>
          <path class="cls-16" d="M124.06,140.96c-1.79-.09-3.66-.12-5.43-.47-5.42-1.06-10.54-2.82-15.54-5.12-3.57-1.64-7.22-2.93-10.98-3.29,1.85,1.38,3.64,2.86,5.22,4.52,2.09,2.21,3.39,4.79,4.99,7.25,1.5,1.64,2.84,3.63,4.06,5.49-.07-.64-.1-1.28-.22-1.8-.6-2.6-1.34-4.87-3.04-6.97-.04-.06.03-.16.1-.12,1.85,1.24,2.97,3.26,3.56,5.38.48,1.74.35,3.38.66,5.1.19.29.38.57.56.84,1.56,2.29,3.02,4.63,4.38,7.02,1.37.69,2.92.95,4.2,1.8.72.48,1.64,1.52,2.51,1.66.48.08.89.03,1.28-.1,3.45-3.34,6.35-7.46,7.73-11.88.63-2.02,1.17-4.09,1.18-6.23-.66-2.79-2.39-3.82-5.2-3.1Z"/>
          <path class="cls-18" d="M140.47,73.35c-1.64-4.04-4.19-7.54-6.12-11.44-2.45-4.97-2.15-10.85-2.77-16.22-.18-1.56-.54-3.07-1.04-4.54,4.93-2.24,5.72-9.74,5.38-14.5-.37-5.27-3.34-8.77-7.49-10.52,2.94-.7,5.27-4.26,6.78-7.5-.22.14-.43.29-.67.41-3.13,1.53-6.94,2.37-10.43,1.94-4.28-.52-8.65-2-12.61-3.67-1.92-.81-3.65-1.95-5.7-2.45-.25-.06-.49-.12-.73-.18-2.04-.4-4.02-1.23-5.97-1.96-2.15-.51-4.3-.98-6.48-1.37-12.47-2.24-25.48-1.69-37.66,1.78-10.46,2.98-19.89,8.22-27.92,15.55-3.95,3.6-7.7,7.44-10.47,12.04-1,1.65-1.54,3.44-1.81,5.28-1.74.08-3.86,2.77-4.68,3.83-3.52,4.5-5.29,10.96-6.8,16.33C-.06,67.99-1.27,80.95,1.66,92.98c2.5,10.24,9.6,21.48,18.93,28.85-1.08,3.85.78,8.36,3.99,10.81-3.35,2.07-3.7,6.56-1.79,9.86-2-1.31-3.99-2.7-6.35-2.89-3.71-.29-5.16,3.32-5.54,6.46-.82,6.74,6.41,8.74,11.12,6.34-.79,1.61-1.21,3.48-1.58,5.15-.79,3.57-1.44,8.09,1.37,10.95.32.32.77-.21.54-.54-2.45-3.55-.8-8.3,1.07-12.55-.1,1.33-.06,2.66,0,3.79.26,5.26,1.5,10.24,4.66,14.52.15.2.46-.1.36-.28-3.61-6.37-3.12-13.01-2.04-19.77.26,2.2.89,4.26,1.41,6.59,1,4.48,2.14,8.84,4.08,13.02.23.5.82-.03.71-.44-1.34-4.87-1.72-9.9-2.59-14.86-.13-.76-.29-1.76-.52-2.82.06.09.12.18.18.28,1.08,1.87,1.98,3.81,2.77,5.81.15.39.71.03.63-.3-.43-1.93-.96-3.83-1.56-5.71-.59-1.86-1.58-3.33-2.32-5.07-.07-.16-.16-.28-.26-.37.06-.05.12-.09.18-.14,1.38,2.91,3.78,6.06,6.93,6.79,3.09.71,4.55-3.62,5.29-5.74.85-2.44,1.46-6.08-1.37-7.42-2.17-1.02-4.67-.27-6.95.76.91-.81,1.46-1.93,1.28-3.37,1.37-.98,2.59-2.23,3.34-3.12.81-.97,3.64-5.77,2.66-7.63,3.84.2,7.77-.4,11.69-2.03.11-.04.2-.14.27-.26.18.12.34.25.52.36,7.6,4.87,17.09,4,25.65,3.34,17.05-1.31,32.43-5.02,45.64-16.58,5.47-4.78,9.5-10.88,12.47-17.46,2.96-6.57,6.86-16.73,3.93-23.97Z"/>
          <path class="cls-17" d="M25.19,146.38c-2.59-1.04-6.54-.86-8.86.48-.26.15-.13.6.18.44,2.69-1.41,5.68-.6,8.47-.05-.02.14-.04.27-.05.41-2.2,2.85-5.57,4.65-9.26,3.75-3.96-.97-3.67-6.41-2.06-9.13,1.61-2.72,6.86.33,10.38,1.78.53.47,1.18.81,1.89,1.06-.29.38-.52.81-.69,1.25Z"/>
          <path class="cls-11" d="M28.08,148.53c-.6.38-1.67-.3-1.93-.83-.36-.71-.13-1.65.24-2.42.72.2,1.49.29,2.26.28.64.98.49,2.29-.57,2.97Z"/>
          <path class="cls-17" d="M37.19,144.1c3.69-.18,3.81,3.19,3.06,5.85-.73,2.59-2.01,6.38-5.35,4.55-2.31-1.26-3.55-3.74-5.02-5.84.07-.15.12-.31.18-.46,1.22.54,3.37-.51,4.28-1.09.2-.12.16-.57-.12-.44-.69.32-1.4.52-2.16.6-.58.07-1.16-.13-1.72-.14,0-.05.03-.11.03-.16.02-.27,0-.59-.07-.9,2.23-.9,4.46-1.85,6.89-1.97Z"/>
          <path class="cls-6" d="M38.5,133.85c-.43,1.16-1.28,2.12-2.1,3.02-2.12,2.35-4.94,4.42-8.17,3.28-.39-.14-.69.46-.47.75,1.4,1.79,3.32,1.59,5.15.65-.9,1.34-2.16,1.96-4.12,2.1-1.74.12-3.26-.64-4.42-1.88-2.39-2.54-2.06-6.75.62-8.83,1.81,1.24,3.99,1.85,6.31,1.35.34-.07.44-.64.08-.76-2.72-.86-5.18-1.57-7.34-3.55-2.2-2.02-3.31-4.75-2.8-7.64,5.44,4.15,11.6,6.96,18.04,7.53.45,1.14-.42,3-.78,3.99Z"/>
          <path class="cls-6" d="M24.54,123.16c-8.31-5.67-14.93-14.65-19-23.75-4.15-9.27-4.19-20.88-3.33-30.85.51-5.91,1.73-11.7,3.48-17.36.71-2.29,1.62-4.51,2.56-6.71.49-1.12,1.03-2.22,1.63-3.28l.67-1.1c.93-1.64,2.3-2.73,4.11-3.27-.16,1.57-.16,3.18-.09,4.77.42-2.04,1.07-4.04,1.91-5.96.95-3.14,2.49-6.07,4.97-9.04,3.88-4.64,8.73-8.81,13.63-12.32,9.85-7.05,21.95-10.71,33.87-12.02,13.12-1.44,26.35.82,38.82,4.84,5.61,1.81,10.97,4.56,16.26,4.71,1.65.36,3.38.37,5.51-.17.99-.25,1.93-.64,2.79-1.13-1.67,2.7-4.06,3.06-6.59,4.44-.11.06-.18.16-.23.27-1.06-.22-2.16-.37-3.29-.41-.24,0-.41.32-.34.53.17.07.34.15.52.22,3.77.74,6.59,2.45,8.45,5.23.71.8,1.33,1.71,1.83,2.77,1.75,3.74,1.45,8.34-.29,12.1-.52,1.6-1.27,3.07-2.27,4.26-1.68-4.25-4.47-8.13-7.39-11.69-.09-.73-.21-1.48-.38-2.25-.82-3.67-3.21-6.35-6.34-7.43,1.92,1.21,3.46,3.2,4.39,5.23,1.62,3.54,1.24,6.95.25,10.35-.23,2.89-1.33,5.84-3.11,7.89-.3.34-.84.06-.85-.35-.02-1-.09-1.99-.14-2.99-.68-1.84-1.79-3.46-3.69-4.95-3.07-2.4-6.26-4.5-10.13-4.7-.84-3.8-3.18-7.2-7.12-8.06-.04,0-.07,0-.1,0,4.32,1.12,6.5,5.3,6.37,10.08-.09,3.38-.97,6.84-2.57,9.83-.88,1.65-1.89,3.22-3.37,4.41-.28.22-.56.44-.84.65-1.53,1.91-3.62,4.13-5.93,4.47-.21.03-.46-.01-.56-.23-.32-.64-.08-1.4-.1-2.1-.02-.84-.05-1.69-.09-2.53-.49-4.03-.46-8.11-3.44-11.22-1.06-1.11-4.45-4.78-6.66-4.64,1.62,1.58,3.27,2.86,4.68,4.43,1.33,4.88.4,9.22-2.24,13.48-1.79,2.9-5.17,6.17-8.67,7.75-.62.55-1.25,1.05-1.89,1.5-.39.27-.81-.17-.73-.56,1.36-6.88.98-13.35-2.68-18.75.72,1.86,1.41,3.71,1.76,5.73-2.7,12.27-11.72,26.17-22.83,32.5.69-6.71,1.61-13.29,4.71-19.43.11-.22-.15-.39-.28-.17-2.59,4.19-4.19,8.69-5.35,13.34-5.84,8.97-6.29,18.49-5.84,28.54-.54-.74-1.09-1.48-1.56-2.29-2.22-3.81-1.41-9.38-1.25-13.52.01-.29-.36-.23-.39.02-.39,3.59-.81,7.14-.64,10.75.04.88.2,1.66.42,2.41-2.15-2.36-5.17-4.61-7.99-3.68-4.41,1.46-4.68,6.49-3.71,10.34,1.01,4.05,4.28,8.08,8.26,9.52,1.75.63,3.56.69,5.07.16,4.01,5.7,8.46,11.2,14.16,15.25-9.89,1.55-18.35,1.91-26.76-3.83Z"/>
          <path class="cls-12" d="M124.04,113.16c-12.28,10.82-28.83,16.13-44.75,17.12-9.37.59-18.29.65-26.94-4.37-5.99-3.48-10.27-9.17-14.68-14.4,1.66-.77,2.87-2.31,3.1-4.64,0-.04,0-.08,0-.12-.08.08-.16.16-.24.24-1.91,3.06-7.47,3.55-10.35,1.79-2.98-1.82-6.32-6.73-5.37-10.53-.15-2.7.77-5.33,3.93-5.49,3-.15,6.04,2.88,7.84,5.2.84,1.58,1.87,3.07,2.67,4.9.49,1.12,2.08.32,2.09-.69.04-5.03-.96-9.97-.44-15,.4-3.89,1.31-7.63,2.51-11.3-.13.7-.26,1.39-.38,2.09-.13.77.63,1.53,1.4,1.21,11.16-4.71,21.24-17.83,24.32-30.41-.18,2.98-.74,5.89-1.13,8.96-.12.93.64,1.47,1.49,1.29,9.22-2.05,17.33-12.6,15.82-22.15.14.27.29.52.43.81,2.04,4.49.89,9.67,1.71,14.35.1.58.67,1.05,1.27.79,6.82-2.9,12.35-9.77,14.27-16.9.5-1.85.59-3.96.27-5.99,3.05.5,5.46,2.5,7.89,4.41,3.55,2.79,4.78,5.72,5.04,10.11.06,1,1.19.66,1.59.15,3.7-4.68,5.74-9.35,5.46-14.88,2.51,3.61,4.62,7.34,5.97,11.46-.15.12-.25.57.07.51.03,0,.05-.02.08-.02.62,1.98,1.07,4.04,1.29,6.23.38,3.94.37,7.81,1.28,11.69.76,3.27,2.59,6.2,4.27,9.06,8.68,14.74-.17,34.29-11.76,44.51Z"/>
          <path class="cls-13" d="M108.65,113.71c.61-2.64,2.85-11.59-3.4-8.88-6.24,2.71-6.97,15.59-9.62,10.71-2.64-4.88-7.93,9.15-20.54,9.76-12.61.61-22.77-13.62-23.18-27.04-.49-16.08,10.57-28.06,19.11-34.16,8.54-6.1,13.62-13.62,13.62-13.62,0,0-1.02,6.71,2.44,6.3,10.17-1.02,20.13-13.62,20.33-19.93,6.1,1.83,5.49,11.59,7.52,11.79,2.03.2,6.91-4.07,9.56-8.54,3.46,2.91,5.45,7.46,6.26,14.5-.21-2.22-.3-4.45-.52-6.71-.21-2.19-.67-4.25-1.29-6.23-.03,0-.05.02-.08.02-.32.06-.22-.39-.07-.51-1.36-4.12-3.47-7.85-5.97-11.46.28,5.53-1.77,10.2-5.46,14.88-.4.5-1.53.84-1.59-.15-.25-4.39-1.49-7.32-5.04-10.11-2.43-1.91-4.84-3.9-7.89-4.41.32,2.04.23,4.14-.27,5.99-1.92,7.13-7.45,14-14.27,16.9-.6.26-1.17-.22-1.27-.79-.82-4.68.32-9.86-1.71-14.35-.13-.29-.28-.54-.43-.81,1.52,9.55-6.59,20.1-15.82,22.15-.85.19-1.61-.35-1.49-1.29.4-3.07.96-5.98,1.13-8.96-3.08,12.59-13.16,25.7-24.32,30.41-.77.32-1.53-.44-1.4-1.21.12-.7.25-1.4.38-2.09-1.2,3.67-2.11,7.41-2.51,11.3-.52,5.04.49,9.97.44,15,0,1.01-1.6,1.81-2.09.69-.8-1.83-1.83-3.32-2.67-4.9-1.12-1.45-2.73-3.17-4.51-4.23.67.68,1.11,1.56,1.17,2.69.09,1.68-2.84,1.27-3.71,1.21-.72-.05-1.61-.19-2.3.08-.29,2.3.21,3.24,1.5,2.81.2-.03.41-.04.62-.03.56-.01,1.12.42,1.37.89.27.51-.25.95-.54,1.3-.77.93,2.34,1.66,2.71,2.15,1.21,1.62.55,3.55-.93,4.68,2.98.77,7,0,8.57-2.52.08-.08.16-.15.24-.24,0,.04.01.08,0,.12-.23,2.32-1.45,3.87-3.1,4.64,4.4,5.23,8.68,10.92,14.68,14.4,8.65,5.02,17.57,4.96,26.94,4.37,15.92-1,32.47-6.3,44.75-17.12,4.82-4.25,9.16-10.11,11.97-16.57-9.64,17.59-27.9,19.49-27.36,17.11Z"/>
          <path class="cls-18" d="M35.22,104.19c-.8-1.43-1.59-2.56-2.7-3.76-.91-1-2.23-2.13-3.67-1.91-1,.15-1.53,1.06-1.35,1.99.08.43.62.16.59-.2-.16-1.9,1.86-.59,2.21-.34.5.36.91.9,1.3,1.38.23.28.45.55.67.82-.67.34-1.23.97-1.6,1.58-.25.4.24.67.51.32.44-.56.98-.96,1.67-1.13.2.29.39.59.56.93.31.61.72,2.26,1.58,2.29.09.02.18,0,.28-.06.71-.52.29-1.3-.05-1.91Z"/>
          <path class="cls-18" d="M122.82,57.52c-2.19.5-3.14,4.46-2.13,8.83,1.01,4.37,3.6,7.51,5.78,7.01,2.19-.5,3.14-4.46,2.13-8.83-1.01-4.37-3.6-7.51-5.78-7.01Z"/>
          <path class="cls-13" d="M122.61,56.58c-2.45.56-3.52,4.99-2.39,9.88,1.13,4.89,4.02,8.4,6.47,7.84,2.45-.56,3.52-4.99,2.39-9.88-1.13-4.89-4.02-8.4-6.47-7.84Z"/>
          <path class="cls-8" d="M127.11,62.54c.32,1.38.02,2.64-.68,2.79-.69.16-1.51-.83-1.83-2.22-.32-1.38-.02-2.64.67-2.79.69-.16,1.51.83,1.83,2.22Z"/>
          <path class="cls-18" d="M82.82,70.77c-2.19.5-3.14,4.46-2.13,8.83,1.01,4.37,3.6,7.51,5.78,7.01,2.19-.5,3.14-4.46,2.13-8.83-1.01-4.37-3.6-7.51-5.78-7.01Z"/>
          <path class="cls-13" d="M82.59,69.74c-2.47.57-3.55,5.04-2.41,9.98,1.14,4.95,4.07,8.49,6.54,7.92,2.47-.57,3.56-5.04,2.41-9.99-1.14-4.94-4.07-8.49-6.54-7.92Z"/>
          <path class="cls-8" d="M87.11,75.79c.32,1.38.02,2.64-.68,2.79-.69.16-1.51-.83-1.83-2.22-.32-1.38-.02-2.64.67-2.79.69-.16,1.51.83,1.83,2.22Z"/>
          <path class="cls-18" d="M86.26,64.57c-1.83-2.63-5.77-4.52-8.82-2.84-3.37,1.85-4.11,5.5-4.41,9.05-.06.73.9.71,1.07.09.7-2.52,1.43-5.26,4.1-6.31,2.44-.96,4.92,1.56,7.47,1.21.55-.08.92-.72.58-1.2Z"/>
          <path class="cls-18" d="M126.56,52.09c-.77-2.85-3.96-4.77-6.76-3.6-2.7,1.12-4.08,4.52-3.77,7.28.08.68.9.41,1.07-.06.61-1.62,1.26-3.29,2.49-4.55,1.51-1.55,5.06-.31,6.05,1.37.29.49,1.06.08.92-.44Z"/>
          <path class="cls-13" d="M86.57,66.1c-1.83-2.63-5.77-4.52-8.82-2.84-3.37,1.85-4.11,5.5-4.41,9.05-.06.73.9.71,1.07.09.7-2.52,1.43-5.26,4.1-6.31,2.44-.96,4.92,1.56,7.47,1.21.55-.08.92-.72.58-1.2Z"/>
          <path class="cls-13" d="M126.87,53.62c-.77-2.85-3.96-4.77-6.76-3.6-2.7,1.12-4.08,4.52-3.77,7.28.08.68.9.41,1.07-.06.61-1.62,1.26-3.29,2.49-4.55,1.51-1.55,5.06-.31,6.05,1.37.29.49,1.06.08.92-.44Z"/>
          <path class="cls-18" d="M124.76,84.86c-.9-2.25-3.15-3.23-5.2-1.87-.04.02-.07.06-.1.08-.93-.73-2.4-1.09-3.32-1.69-1.48-.96-2.26-2.5-2.84-4.11-.1-.28-.51-.02-.45.21.43,1.72,1.07,3.38,2.3,4.7.73.78,1.97,1.68,3.18,2-1.02,1.36-1.59,3.24-1.89,4.75-.13.63.76.59.93.08.37-1.15.92-2.19,1.59-3.19,1.92-2.83,3.88-.99,4.74,1.47,1.9,5.42-1.74,8.97-6.31,11.06-.21.1-.23.49.06.41,6.34-1.8,9.85-7.58,7.31-13.92Z"/>
          <path class="cls-18" d="M106.18,110.49s0-.01-.01-.02c.06-.09,0-.22-.12-.16,0,0-.01,0-.02.01-.11-.04-.24,0-.31.13-.01.02-.02.05-.03.07-2.99,1.76-3.87,6.18-3.57,9.38.03.35.4.42.66.28,1.53-.8,2.17-2.52,2.59-4.1.43-1.6,1.13-3.95.81-5.6Z"/>
          <path class="cls-8" d="M103.16,118.9c.3-2.62.68-5.07,2.12-7.26-.56,2.41-.05,5.84-2.12,7.26Z"/>
          <path class="cls-18" d="M107.85,104.47c-.54-.84-1.96,0-2.6.36-1.11.63-1.98,1.65-2.77,2.62-.13.17.02.42.2.24.76-.75,1.55-1.53,2.55-1.96.81-.35,1.96-.05,2.56-.74.13-.15.18-.34.06-.52Z"/>
          <path class="cls-18" d="M107.82,135.92c.03-.26.02-.49-.02-.7.04-2-.25-4.27-2.26-5.09-.42-1.5-1.03-2.92-2.24-3.85,0,0,0,0,0,0,.29-1.97-1.49-3.64-3.13-4.4-1.56-.73-3.96-.46-5.79.17.95-2.19.02-6.63-2.41-4.37-1.88,1.75-3.25,4.06-5.03,5.93-1.97,2.07-3.49,4.29-3.92,7.13-2.67,5.48-1.38,11.34-1.36,17.21-2.05,6.34-4.02,12.77-6.44,18.98-1.34,3.44-3.13,6.81-4.69,10.25-1.62-1.81-4.83-1.21-6.76-.24-2.86,1.43-4.69,3.78-5.06,6.98-.05.44.51.46.67.14,3.02,4.34,9.69,13.84,14.76,7.03,7.42-9.97,10.96-23.29,12.1-35.52,2.55.67,5.48-1.57,6.95-3.64,1.63-2.28,2.67-4.8,3.72-7.38.52-1.27.97-3.95,2.43-4.49,1.11-.41,2.37-.32,3.51-.68.06-.02.12-.05.16-.09-.53,1.77,1.4,4.16-1.78,4.82-1.63.34-2.7,1.2-3.39,2.71-1.51,3.25,7.39.07,7.98-.18,3.79-1.58,1.66-7.74,1.99-10.72Z"/>
          <path class="cls-12" d="M89.77,121.6c.46-.59,3.05-4.87,4.12-2.98.67,1.18-.33,2.51-.32,3.71-4.1.9-7.65,3.53-9.86,7.17,1.1-3.32,3.87-5.13,6.05-7.9Z"/>
          <path class="cls-12" d="M106.88,144.34c-.4,1.57-2.74,1.94-4.02,2.37-.59.2-1.21.41-1.83.57.02.21-.07.43-.35.49-.57.12-1.74.46-1.95-.39-.14-.6.16-1.1.62-1.43,0-.02,0-.03.02-.05.57-.55,1.23-.87,1.99-.96.74-.16,1.24-.34,1.84-.77,1.6-1.14.05-3.22.19-4.72-.1-.26-.2-.52-.34-.78-.04-.07-.06-.14-.06-.21-.07-.03-.15-.04-.26-.01-2.38.53-4.69.55-5.6,3.1-.89,2.49-1.87,4.96-3.05,7.34-.98,1.97-3.28,5.11-5.85,5.87-.6.34-1.26.54-2,.47-.52-.05-1.14-.26-1.57-.59,0,.05,0,.1.05.13.36.32.75.55,1.14.7-2.21,9.9-4.13,19.45-8.61,28.64-1.08,2.23-2.47,4.25-4.08,6.13-2.33,2.72-5.12.95-7.21-.4-2.51-1.63-4.47-4.05-6.37-6.34.61-2.03,1.86-3.57,3.68-4.72,1.93-1.23,5.01-2.52,7.08-1.08-1.08,2.42-2.04,4.88-2.61,7.41-.06.28.3.22.38.03,2.77-6.08,6.29-11.55,8.76-17.79,2.5-6.31,3.84-13.13,5.37-19.74,0-.35.02-.7.04-1.04-.04,0-.07,0-.11.02.43-4.2.09-8.43,1.04-12.63,1.3-5.73,5.14-9.6,10.49-11.12.06.03.14.04.2-.03,0,0,.02-.02.03-.03.68-.18,1.37-.34,2.09-.44.05,0,.09-.05.12-.09,1.12-.03,2.24.09,3.27.26,1.64.28,2.84,2.03,3.46,3.5-.12-.07-.23-.14-.35-.2-2.39-1.15-5.32-.44-7.89.02.6.08,1.2.19,1.79.29,1.68-.12,3.35-.14,5.01.3,1.87.49,2.46,1.95,3.02,3.46-1.3-.12-2.81.24-4.01.26-.74.01-1.47.05-2.18.14,1.16-.02,2.35.12,3.28.14,2.11.06,4.71.56,5.36,2.87.06.21-.02.37-.14.48.04.13.07.27.11.41-2.22-.84-7.58,1.53-8.56,2.1-.09.05-.13.14-.16.23.6-.4,1.36-.65,2-.81.81-.21,1.82-.46,2.69-.3.91-.24,1.83-.33,2.77-.22,1.65.19,1.01,1.8,1.06,2.66.07,1.24.26,2.47.38,3.71.09.95.06,1.88-.18,2.81Z"/>
          <path class="cls-5" d="M79.64,225.26s16.19,5.52,34.62-5.4c7-4.61,15.19.85,7.51,17.92-.68,2.9,3.07-1.37,4.61-5.29,1.54-3.92,7.85,8.87-2.05,18.94-9.9,10.07-30.23,11.66-39.4,9.72-17.75-3.75-12.11-36.22-5.29-35.88Z"/>
          <path class="cls-2" d="M77.49,98.19c.83,2.89,5.43,4.11,10.28,2.71,4.84-1.39,8.1-4.86,7.27-7.75-.83-2.89-5.43-4.1-10.28-2.71-4.84,1.39-8.1,4.86-7.27,7.75Z"/>
          <path class="cls-18" d="M85.87,92.85c.02-.41.45-.69.84-.57,1.68.5,3.37,1.33,4.72,2.46.86.72-.03,1.86-.91,1.16-1.24-.99-2.75-1.41-4.09-2.21-.31-.18-.57-.46-.56-.85Z"/>
          <path class="cls-18" d="M82.74,93.7c1.47.6,2.92,1.23,4.32,1.99.98.53.57,2.08-.54,1.51-1.5-.77-3.09-1.29-4.39-2.4-.62-.53-.2-1.43.6-1.1Z"/>
          <path class="cls-4" d="M78.55,90.97c1.13-2.29,4.58-2.68,6.82-2.92,3.28-.36,5.4.84,8.37,1.93.27.09.34.63-.03.56-2.43-.47-4.56-1.19-7.08-.9-2.67.31-4.71,1.07-6.94,2.5-.64.41-1.45-.57-1.15-1.17Z"/>
          <path class="cls-4" d="M76.64,92.68c.04.48-.31.91-.79.96-.48.05-.91-.31-.96-.79-.05-.48.31-.91.79-.96.48-.04.91.31.96.79Z"/>
          <path class="cls-2" d="M137.62,76.32c.18,1.83-2.15,3.56-5.22,3.87-3.07.31-5.7-.93-5.89-2.76-.18-1.83,2.15-3.56,5.22-3.87,3.07-.31,5.7.93,5.89,2.76Z"/>
          <path class="cls-18" d="M131.65,75.18c-.11-.23-.41-.29-.61-.14-.84.67-1.61,1.52-2.12,2.47-.33.6.44,1.05.78.45.48-.84,1.24-1.42,1.82-2.18.13-.17.22-.39.12-.61Z"/>
          <path class="cls-18" d="M133.62,74.95c-.7.67-1.38,1.36-2.01,2.11-.44.52.15,1.31.65.74.68-.78,1.46-1.44,1.95-2.36.23-.44-.21-.86-.59-.49Z"/>
          <path class="cls-4" d="M135.38,72.45c-1.16-1.05-3.21-.48-4.54-.11-1.95.54-2.88,1.7-4.32,3-.13.11-.05.44.14.31,1.27-.82,2.32-1.71,3.82-2.12,1.59-.43,2.92-.46,4.51-.15.46.09.69-.65.39-.93Z"/>
          <path class="cls-4" d="M136.85,72.99c.08.28.38.45.67.37.29-.08.45-.38.36-.67-.08-.29-.38-.45-.66-.36-.28.08-.45.38-.37.67Z"/>
          <path class="cls-13" d="M112.85,77.49s.01,4.56,3.85,6.86c-1.69,1.99-.46,6.29-.46,6.29,0,0,1.07-4.14,4.6-3.99,3.53.15-1.23,10.43-9.82,9.51-5.83-.92.31,6.6,8.59.92,8.28-5.68,5.52-14.88.46-13.5-4.45-1.69-7.22-6.09-7.22-6.09Z"/>
          <path class="cls-1" d="M130.78,54.6c.04.42.08.84.13,1.26-.04-.43-.08-.85-.13-1.26Z"/>
          <path class="cls-12" d="M131.97,61.08c-.17-.49-.32-.99-.43-1.5-.29-1.24-.48-2.48-.62-3.72.04.43.08.87.11,1.32.11,1.57.46,2.85.95,3.9Z"/>
          <path class="cls-4" d="M111.99,76.97s-.33,4.12,3.46,7.01c1.32.74-2.89,1.73-4.29-4.04-1.4-5.77.58-5.44.82-2.97Z"/>
          <path class="cls-8" d="M106.87,155.74c-3.22,0-3.22,5,0,5s3.22-5,0-5Z"/>
          <path class="cls-8" d="M101.97,166.88c-3.22,0-3.22,5,0,5s3.22-5,0-5Z"/>
          <path class="cls-8" d="M112.69,162.67c-1.79,1.16-1.35,4.62,1.33,4.62.18,0,.35-.02.51-.05-.59-1.53-1.26-3.03-1.84-4.57Z"/>
          <path class="cls-8" d="M97.37,148.64c-3.22,0-3.22,5,0,5s3.22-5,0-5Z"/>
          <path class="cls-8" d="M112.84,177.01c-3.22,0-3.22,5,0,5s3.22-5,0-5Z"/>
          <path class="cls-8" d="M93.52,176.71c-3.22,0-3.22,5,0,5s3.22-5,0-5Z"/>
          <path class="cls-8" d="M88.46,159.32c-3.22,0-3.22,5,0,5s3.22-5,0-5Z"/>
          <path class="cls-8" d="M76.13,145.79c-3.22,0-3.22,5,0,5s3.22-5,0-5Z"/>
          <path class="cls-8" d="M59.57,141.41c.29.91,1.04,1.66,2.29,1.66,2.27,0,2.94-2.48,2-3.95-1.36.88-2.8,1.64-4.29,2.29Z"/>
          <path class="cls-8" d="M70.39,167.64c2.06-.99,1.7-4.76-1.1-4.76-.25,0-.47.04-.68.09.66,1.53,1.27,3.08,1.78,4.66Z"/>
          <path class="cls-8" d="M79.69,188.15c-3.22,0-3.22,5,0,5s3.22-5,0-5Z"/>
          <path class="cls-8" d="M91.73,195.44c-3.22,0-3.22,5,0,5s3.22-5,0-5Z"/>
          <path class="cls-8" d="M103.33,185.03c-3.22,0-3.22,5,0,5s3.22-5,0-5Z"/>
          <path class="cls-8" d="M114.92,197.96c-3.22,0-3.22,5,0,5s3.22-5,0-5Z"/>
          <path class="cls-8" d="M106,213.62c-.4-.55-1.03-.94-1.93-.94-1.7,0-2.5,1.39-2.4,2.7,1.41-.68,2.86-1.23,4.33-1.76Z"/>
          <path class="cls-8" d="M86.83,207.62c-3.22,0-3.22,5,0,5s3.22-5,0-5Z"/>
          <path class="cls-8" d="M69.73,195.88c-1.37,0-2.16.91-2.36,1.96.91.98,1.81,1.97,2.64,3.02,2.93-.29,2.84-4.97-.28-4.97Z"/>
          <path class="cls-8" d="M63.6,203.63c-.25,1.71-.01,3.45.9,4.88,2.48-.68,2.25-4.9-.71-4.9-.07,0-.12.01-.19.02Z"/>
          <path class="cls-8" d="M74.94,208.22c-3.22,0-3.22,5,0,5s3.22-5,0-5Z"/>
          <path class="cls-8" d="M119.53,184.83c-2.31.82-2.02,4.84.87,4.84.11,0,.2-.02.3-.03-.43-1.6-.55-3.27-1.18-4.81Z"/>
          <path class="cls-8" d="M64.31,157.32c-4.13-10.33-8.25-13.58-12.73-12.01-4.49,1.58-3.4,11.52-3.4,11.52,1.21,9.58,4.73,22.44,4.73,22.44,0,0,2.42-2.43,5.58-3.03,3.15-.61-4.25,2.55-5.82,6.19-1.58,3.64,4.85,3.76,5.21.36.36-3.4,5.7-7.76,9.34-7.52,3.64.24,2.18-5.21-2.91-17.95Z"/>
          <path class="cls-8" d="M123.29,144.5s.81-3.38,2.97-2.84c2.16.54,1.35,11.89-4.46,17.16-2.43,1.62-3.92-.13-4.32-1.49-3.38,1.35-7.97-3.11-8.52-8.24-.54-5.14-1.35-10.41,3.79-9.19,5.14,1.22,10.68,1.62,10.54,4.6Z"/>
          <path class="cls-14" d="M131.25,236.74c1.48,8.26-3.6,14.47-10.99,18.95-20.14,12.82-47.09,5.75-55.46,1.21-11.27-6.11-5.68-13.79-4.05-10.54,1.62,3.24,4.66,5.68,4.05-.2-1.83-10.14.61-28.38,8.72-25.95,23.98,7.2,42.98-4.26,45.61-8.11,2.64-3.85,3.85-2.43,5.47,5.27.02.08.04.15.06.24-.05-5.38-.71-10.72-2.45-16.13-1.28,3.72-4.09,6.94-7.7,9.25-4.08,2.61-8.68,4.54-13.12,6.44-4.11,1.75-8.53,3.38-13.07,3.12-7.03-.39-15.72-1.36-21.45-5.9-.87-.69-1.57-1.4-2.15-2.13-.11.58-.35,1.19-.47,1.5-1.23,3.28-2.12,6.65-2.58,10.14-.34,2.63-.5,5.24-.54,7.85-.52,2.66-.59,5.37-.59,8.15,0,1.67-.03,3.34,0,5-.42-1.73-.75-3.47-.97-5.23-1.99,3.37-6.28,8.76-3.01,12.09,2.68,2.74,5.36,5.45,8.66,7.47,7.36,4.49,16.06,5.25,24.5,5.65,16.2.78,31.25-3.62,41.93-15.69-.21.03-.29-.32-.14-.5,2.93-3.42,1.58-7.86-.25-11.97Z"/>
          <path class="cls-11" d="M135.66,381.69c-15.37-.57-24.14-5-23.29-8.58.85-3.58,7.17-1.7,10.94-1.51,3.77.19,4.62-1.6,6.7-4.9,2.07-3.3,3.68-2.83,1.98,2.64-1.7,5.19,11.69,5,20.18,2.07,5.48-1.89,2.74-5.38,4.72-5.75.5-.12,1.03-.16,1.57-.14-2.36-.69-4.81-.55-7.25.2.03,0,.06,0,.09,0,.83.03,3.23.48,2.77,1.91-.53,1.66-2.55,2.52-4,3.18-2.34,1.06-4.57,1.6-6.95,1.72-.05.08-.12.15-.21.15-1.63,0-9.07.56-9.45-2.18-.19-1.42.6-3.17,1.14-4.42.93-2.14-.55-3.34-2.94-2.32-1.49,1.05-2.59,2.35-3.32,3.89-1.71,3.14-4.16,2.75-7.45,2.54-3.16-.2-6.32-.33-8.94-2.08-.39-.18-.75-.4-1.09-.64-.35,2.01-.89,5.3-.93,8.46,1.95,3.82,7.32,4.87,11.14,5.69,5.2,1.11,10.51,1.68,15.83,1.59,9.31-.15,21.97-.76,28.22-8.82,0,0,0,0,.02-.01,0-.76-.13-1.53-.33-2.29-1.17,5.87-15.31,10.1-29.14,9.59Z"/>
          <path class="cls-11" d="M97.78,395.42c-15.37-1-26-11.75-28.37-14.25s-.5-6.25,2.25-4.88,6.25,3.75,7.62,1,6.5-6,8.12-4.25,1,.5-4.37,3.5-2.25,8.25,2.37,11.12,9.12,2.25,15.25-2.75c1.68-1.37,3.75-1.47,5.87-.89-.93-.51-1.83-1-2.65-1.44-6.34-1.91-7.6,5.95-13.06,5.49-3.64-.31-6.77-2.07-8.71-5.2-2.97-4.82,4.72-7.99,8.97-8.1-2.4-1.95-4.24-4.03-7.86-2.45-1.41.61-2.61,1.35-3.76,2.21,0,.03,0,.07-.01.1-.53,1.06-1.24,2.53-2.72,2.33-2.26-.31-4.41-1.14-6.16-2.63-.74-.63-1.9-2.02-2.32-3.33-1.1,3-2.06,6.69-1.66,9.81,5.72,6.01,14.88,13.64,22.92,15,7.9,1.34,20.34,3.51,26.49-3.1-.02-.26-.07-.51-.14-.77-2.77,2.27-8.02,4.13-18.07,3.48Z"/>
          <path class="cls-8" d="M121.99,217.66s3.78,9.73-.9,19.09c-2.34,5.22,9.01-7.57.9-19.09Z"/>
          <path class="cls-8" d="M129.91,238.19s-3.42,21.62-37.11,22.88c-4.68.54,7.9,2.79,22.34-3.42,16.75-7.21,15.67-20.9,14.77-19.46Z"/>
          <path class="cls-7" d="M109.63,164.49s12.44,20.95,5.57,37.16c-1.47,3.6,6.38-2.13,2.78-18.5-3.6-16.37-8.84-21.44-8.35-18.66Z"/>
          <path class="cls-13" d="M90.26,122.23c-1.34.79-2.56,1.85-3.74,2.92-1.17,1.27-2.22,2.6-2.8,4.35,2.21-3.64,5.76-6.27,9.86-7.17,0-.72.34-1.48.49-2.23-1.02.99-2.68,1.46-3.8,2.13Z"/>
          <path class="cls-13" d="M107.06,141.53c-.12-1.24-.3-2.47-.38-3.71-.05-.86.58-2.47-1.06-2.66-.95-.11-1.86-.01-2.77.22-.87-.16-1.87.09-2.69.3-.64.16-1.4.41-2,.81.02-.09.07-.18.16-.23.98-.57,6.35-2.94,8.56-2.1-.04-.14-.07-.27-.11-.41.12-.11.2-.27.14-.48-.65-2.31-3.25-2.81-5.36-2.87-.92-.02-2.12-.16-3.28-.14.71-.09,1.43-.13,2.18-.14,1.2-.02,2.71-.38,4.01-.26-.56-1.52-1.16-2.97-3.02-3.46-1.66-.44-3.33-.42-5.01-.3-.59-.11-1.19-.22-1.79-.29,2.57-.46,5.51-1.17,7.89-.02.13.06.24.13.35.2-.21-.5-.5-1.04-.84-1.53-.31.07-.71.09-1.26.02-3.23-.43-6.11.36-6.75,1.58-.58,1.15,6.25-.79,7.97,1.58,1.72,2.37-3.81,1.44-4.45,2.44-.65,1.01,5.46.43,6.68,1.94,1.22,1.51-5.6,1.87-7.11,4.45-1.51,2.59,6.91-1.81,8.26-.57.86.79-1.37,1.51-3.74,2.08-2.37.57-4.1-.07-5.53,3.3-1.44,3.38-4.37,12.14-8.78,11.64-4.42-.5-4.58-4.92-4.5-11.67.05-4.4,1.21-8.96,2.58-12.52-1,1.51-1.75,3.25-2.19,5.21-.95,4.2-.6,8.43-1.04,12.63.03-.02.07-.03.11-.02-.02.35-.04.69-.04,1.04-.92,3.97-1.77,8.01-2.85,11.98,1.15-2.24,2.31-3.98,3.14-4.02,2.37-.12-4,22.62-9.12,30.62-3.16,4.74-5.43,2.2-4.42-2.91-.3.61-.6,1.23-.88,1.86-.08.18-.45.24-.38-.03.57-2.54,1.52-4.99,2.61-7.41-2.07-1.44-5.15-.15-7.08,1.08-1.82,1.16-3.06,2.7-3.68,4.72,1.9,2.29,3.86,4.71,6.37,6.34,2.09,1.35,4.88,3.13,7.21.4,1.61-1.88,3-3.9,4.08-6.13,4.48-9.19,6.4-18.74,8.61-28.64-.39-.16-.78-.38-1.14-.7-.04-.04-.04-.09-.05-.13.43.33,1.05.54,1.57.59.74.07,1.4-.13,2-.47,2.58-.75,4.87-3.9,5.85-5.87,1.19-2.38,2.16-4.85,3.05-7.34.91-2.55,3.22-2.57,5.6-3.1.1-.02.19-.01.26.01,0,.07.02.14.06.21.13.25.24.51.34.78-.14,1.49,1.41,3.57-.19,4.72-.61.43-1.1.61-1.84.77-.76.09-1.42.41-1.99.96,0,.02,0,.03-.02.05-.46.33-.77.83-.62,1.43.2.86,1.38.51,1.95.39.28-.06.37-.27.35-.49.63-.16,1.24-.37,1.83-.57,1.28-.43,3.62-.8,4.02-2.37.24-.93.27-1.86.18-2.81Z"/>
          <path class="cls-13" d="M139.02,199.85c-.04-.31-.08-.64-.15-.94-.12-.51-1.02-1.9-1.13-.61-.08.88.01,1.73.12,2.61.08.69.23,1.49-.2,2,.03.17-.16.38-.33.34-1.64-.41-3.08-.38-4.7-.4.46.24,1.15.38,2.09.45,2.44.19,1.94,1.5,0,1.69s-3.44-1.38-3.87-1.06.62,1.88,2.19,2.62,1,1.25-.31,1.12-4.12.06-2.62.5,1.16.86.33.78c-.82-.08-4.04.25-4.61-3.38-.58-3.62-.17-8.73,1.4-9.72.52-.33,1.24-.05,1.98.47-.08-.12-.16-.23-.25-.34-.81-1-1.82-1.65-2.76-2.46-.16.72-.26,1.45-.3,2.18-.24-1.17-.31-2.36-.27-3.56.19-.64.4-1.29.61-1.94.08-.24.16-.5.23-.75-1.62,2.68-2.44,1.77-1.57-4.87.99-7.59.55-15.4,1.32-21.01.77-5.61,6.16-7.04,3.96-7.37-2.2-.33-3.74.77-2.31-1.87.62-1.14,1.29-2.19,1.86-3.02-.4-.38-.8-.76-1.2-1.14-1.31,2.87-2.42,5.81-4.42,8.28.38.32.82.68,1.11,1.09.25-.31.53-.6.83-.88.95-1.02,2.22-1.95,3.27-1.49-2.12.48-4,2.56-4.69,4.51-1.02,2.87-.79,5.9-.55,8.9,0,.37-.01.74-.03,1.08-.2,4.21-.12,8.47-.56,12.67-.47,4.41-1.58,8.92-.94,13.37.13.93.36,1.79.66,2.62.13.79.29,1.57.51,2.36.17.64.31,1.29.43,1.93-.06-.11-.12-.21-.18-.32.08.35.16.65.23.87.07.22.13.45.18.68.02.12.05.25.07.37.11.61.2,1.23.34,1.83.3,1.24.56,2.86,2.12,3,.85.08,1.71.05,2.56.02.11,0,.16.05.2.11.93-.12,1.62-.29,2.24-1.02.02-.02.04-.04.05-.06-1.42-.08-2.91-.52-3.91-.9-.18-.07-.07-.37.11-.32,1.35.37,2.76.52,4.16.51.84,0,1.43-.28,2.06-.56-.86-.06-3.67-.28-3.43-.89.03-.09.21-.13.45-.15.91.12,1.81.18,2.72.18.74.06,1.65.17,2.3-.09.05-.02.09-.04.13-.07,0,0,.02,0,.03-.01.8-.4,1.11-1.15,1.54-1.86-.06,0-.12,0-.18.01-1.28.12-2.97.61-4.22.34-1.15-.26-1.91-1.08-2.6-2-.06-.08-.03-.21.03-.3.59.8,1.35,1.44,2.41,1.54,1.5.14,2.96-.41,4.46-.4.15,0,.26-.06.34-.14.51-.15.85-.5.86-1.43,0-1.26,0-2.5-.18-3.75Z"/>
          <path class="cls-4" d="M133.09,158.49s-.08,8.48-4.84,22.54c-2.81,8.54-.04,2.3,2.3-4.96,2.7-8.39,3.72-20.17,2.54-17.58Z"/>
          <path class="cls-4" d="M128.05,197.05s1.13.8,2.04,3.7c.91,2.9.48-.7-.43-2.41-.91-1.71-1.98-2.09-1.61-1.29Z"/>
          <path class="cls-4" d="M79.49,160.26s-2.25,9.42-8,19c-2.25,4.08,2.5-1.5,5.83-9.92,3.33-8.42,2.92-11.17,2.17-9.08Z"/>
          <path class="cls-4" d="M100.13,123.26s-7.67-1.62-12.52,4.71c-.92,1.55-.84-1.9,3.52-3.94,4.36-2.04,8.23-1.62,9-.77Z"/>
          <path class="cls-4" d="M100.32,127.26s-3.83-.5-6.75.83c-2.92,1.33-.5-1.25,2.92-1.33,3.42-.08,5.25.33,3.83.5Z"/>
          <path class="cls-1" d="M95.61,21s-.04-.04-.04-.04c-.04,0-.07,0-.1,0,.05.01.09.03.14.04Z"/>
          <path class="cls-6" d="M94,43.48c-.91-12.67-13.35-15.84-18.33-15.62,6.34,4.07,4.3,14.48-1.13,20.59,1.13-10.86-9.28-17.65-9.28-17.65,0,0,2.72,19.46-14.26,34.63.45-9.73,4.75-16.97,4.75-16.97,0,0-14.03,14.26-17.65,32.82-1.81-7.92,1.58-19.69,1.58-19.69,0,0-6.34,10.41-6.11,25.8,0,4.75-7.93-2.71-10.64,5.88-2.49,7.92,1.58,16.07,7.92,19.69,6.34,3.62-6.11,5.2-12.45-12s-4.3,12.9,10.41,19.24c14.71,6.34-25.66,4.97-25.41-47.28,1.5-25.5,9.5-30.75,13-23s-.25-18,20.25-16.25c12,1-1.5-6.25-9.75-2.5-7.71,3.51,2.06-23.15,47.32-29.28-1.76.06-3.52.19-5.28.38-11.92,1.31-24.02,4.98-33.87,12.02-4.9,3.51-9.75,7.68-13.63,12.32-2.48,2.96-4.02,5.9-4.97,9.04-.85,1.93-1.49,3.92-1.91,5.96-.06-1.6-.07-3.2.09-4.77-1.8.55-3.17,1.64-4.11,3.27l-.67,1.1c-.6,1.07-1.14,2.16-1.63,3.28-.94,2.2-1.85,4.42-2.56,6.71-1.75,5.66-2.97,11.45-3.48,17.36-.86,9.97-.82,21.58,3.33,30.85,4.07,9.1,10.69,18.08,19,23.75,8.41,5.73,16.87,5.38,26.76,3.83-5.7-4.05-10.15-9.55-14.16-15.25-1.51.53-3.32.47-5.07-.16-3.98-1.44-7.25-5.47-8.26-9.52-.96-3.85-.7-8.88,3.71-10.34,2.82-.93,5.84,1.32,7.99,3.68-.22-.74-.38-1.53-.42-2.41-.17-3.61.25-7.16.64-10.75.03-.25.4-.31.39-.02-.16,4.15-.97,9.72,1.25,13.52.47.81,1.01,1.55,1.56,2.29-.45-10.05,0-19.57,5.84-28.54,1.16-4.66,2.76-9.15,5.35-13.34.13-.22.39-.04.28.17-3.1,6.14-4.02,12.71-4.71,19.43,11.11-6.34,20.13-20.23,22.83-32.5-.35-2.03-1.03-3.87-1.76-5.73,3.66,5.41,4.04,11.87,2.68,18.75-.08.39.34.84.73.56.65-.45,1.28-.96,1.89-1.5,3.5-1.58,6.88-4.85,8.67-7.75,2.63-4.26,3.57-8.6,2.24-13.48-1.41-1.57-3.05-2.85-4.68-4.43,2.21-.14,5.6,3.53,6.66,4.64,2.97,3.11,2.95,7.19,3.44,11.22.03.84.07,1.69.09,2.53.02.69-.22,1.46.1,2.1.11.22.35.26.56.23,2.31-.34,4.4-2.56,5.93-4.47.28-.21.57-.43.84-.65,1.47-1.18,2.49-2.76,3.37-4.41,1.59-2.99,2.48-6.45,2.57-9.83.13-4.72-2.01-8.86-6.23-10.04.58.66,7.97,9.63-1.61,22.48Z"/>
          <path class="cls-6" d="M116.86,13.84c12,3.62,16.07,12.45,13.81,19.46,0,0-6.11-14.03-16.07-15.39,4.07,3.62,5.43,12.22,3.62,17.43-6.34-13.81-22.64-14.38-22.64-14.38,3.95.86,6.29,4.26,7.12,8.06,3.87.2,7.06,2.3,10.13,4.7,1.9,1.49,3.01,3.11,3.69,4.95.05.99.12,1.99.14,2.99,0,.41.55.7.85.35,1.78-2.04,2.88-4.99,3.11-7.89.99-3.4,1.37-6.81-.25-10.35-.93-2.03-2.47-4.02-4.39-5.23,3.13,1.08,5.52,3.76,6.34,7.43.17.77.29,1.51.38,2.25,2.92,3.56,5.71,7.44,7.39,11.69,1-1.18,1.75-2.66,2.27-4.26,1.74-3.76,2.04-8.36.29-12.1-.5-1.06-1.12-1.97-1.83-2.77-1.86-2.78-4.68-4.49-8.45-5.23-.17-.07-.35-.15-.52-.22-.07-.21.1-.54.34-.53,1.13.04,2.23.18,3.29.41.05-.11.12-.2.23-.27,2.53-1.37,4.93-1.73,6.59-4.44,0,0,0,0,0,0-2.95,1.92-7.72,3.5-15.46,3.31Z"/>
          <path class="cls-6" d="M39.28,129.87c-6.44-.57-12.6-3.39-18.04-7.53-.14.79-.14,1.57-.05,2.33.43-.38,1.05-.42,1.94.18,3.37,2.3,9.82,4.91,12.42,5.29,1.84.27-.07,3.26-4.17,3.39h0c.36.11.26.68-.08.76-2.32.5-4.5-.11-6.31-1.35-.43.34-.8.73-1.11,1.17.41.06.85.18,1.32.41,3.53,1.69,6.83,1.15,8.97-.08,2.15-1.23-.61,6.75-6.67,4.68-2.3-.69-1.61,1.61.15,2.61,1.15.65-.76,1.55-2.87.45,1.1,1,2.47,1.59,4.01,1.48,1.96-.14,3.22-.76,4.12-2.1-1.83.94-3.75,1.14-5.15-.65-.22-.28.08-.88.47-.75,3.23,1.14,6.05-.93,8.17-3.28.82-.9,1.67-1.86,2.1-3.02.36-.98,1.24-2.85.78-3.99Z"/>
          <path class="cls-10" d="M16.33,146.86c2.33-1.34,6.27-1.52,8.86-.48.17-.45.4-.87.69-1.25-.7-.25-1.35-.6-1.89-1.06-3.35-1.39-8.28-4.21-10.12-2.11,1.38-.18,3.27-.03,5.71.97,5.03,2.22-3.75,1.62-4.27,4.95-.34,1.96,2.56-1.19,6.48-.51,3.01.52-1.45,4.04-6.22,4.02.03,0,.06.02.1.03,3.68.9,7.05-.9,9.26-3.75,0-.14.03-.27.05-.41-2.79-.55-5.78-1.35-8.47.05-.31.16-.45-.28-.18-.44Z"/>
          <path class="cls-10" d="M34.96,153.76c-2.2-1.58-3.32-4.06-.62-5.63,2.7-1.58,2.08-2.48-.17-1.8-2.25.68-3.21.06-.22-1.35.94-.44,1.8-.69,2.58-.81-2.17.24-4.2,1.09-6.22,1.91.07.32.09.64.07.9,0,.05-.02.11-.03.16.56.01,1.14.21,1.72.14.76-.09,1.47-.29,2.16-.6.28-.13.31.32.12.44-.92.58-3.06,1.64-4.28,1.09-.06.15-.11.31-.18.46,1.46,2.1,2.7,4.57,5.02,5.84,2.88,1.57,4.22-1.01,5.01-3.41-1.23,2.43-3.32,3.83-4.94,2.66Z"/>
          <path class="cls-7" d="M37.46,144.98s1.03.07.75,2.6c-.27,2.53,1.78,2.12,1.78-.41s-1.44-2.46-2.53-2.19Z"/>
          <path class="cls-7" d="M38.59,151.31c-.26.48-.69.76-.96.62-.27-.14-.27-.65,0-1.14.26-.48.69-.76.96-.62.27.14.27.65,0,1.14Z"/>
          <path class="cls-7" d="M15.04,142.7s-1.61.54-1.52,2.68c.09,2.15,3.76-2.77,1.52-2.68Z"/>
          <path class="cls-4" d="M115.64,280.09s3.25.58,3.63-3.91c.23-1.61,1.34,2.5-.5,3.88s-4.71.44-3.14.03Z"/>
          <path class="cls-4" d="M88.74,285.09s3.29.26,3.24-4.24c.07-1.62,1.58,2.36-.12,3.91-1.7,1.55-4.65.89-3.12.34Z"/>
          <path class="cls-4" d="M119.7,293.28s2.13,29.3,1.06,53.28c-.46,4.1,1.67-9.87,1.21-29.91-.46-20.04-2.58-27.32-2.28-23.38Z"/>
          <path class="cls-4" d="M91.92,300.72s.61,11.38-8.8,45.39c-1.52,4.55,4.37-9.86,7.41-24.89,3.04-15.03,2.3-23.08,1.39-20.5Z"/>
          <path class="cls-14" d="M123.87,357.66c0,.65.01,1.3.02,1.95.32-.06.63-.12.94-.16.33-.04.29.39.15.55-.32.39-.69.74-1.07,1.06,0,.05,0,.11,0,.16-.07,0-.13,0-.2.01-3.52,2.81-9.06,2.87-11.78-.97-.2-.29.19-.75.47-.47.37.37.76.65,1.17.87-.09-.77-.15-1.54-.23-2.31-3.71-.1-5.02,5.01-2.3,7.42,1.9,1.69,4.66,1.62,7.03,1.33,2.05-.25,5.56-.54,7.29-1.9.05-.04.09-.08.13-.12-1.09.51-2.84,1.05-5.66,1.36-6.54.74-7.38-4.38-4.38-3.1,3,1.28,7.57.2,9.79-2.26.82-.91,1.5-.83,2.02-.37-.12-1.69-1.16-3.12-3.39-3.07Z"/>
          <path class="cls-14" d="M150.96,366.57c.47,1.3-1.91,3.65-6.87,3.79-6.56.19-7.37-2.06-6.81-3.62.13-.36.52-.58,1.03-.71-.78-.19-1.57-.41-2.35-.71-.42,1.16-1.06,2.34-1.38,3.45-.71,2.46,4.09,3,6.82,3.23,2.55-.16,5.02-.3,7.46-1.36.97-.42,1.99-.84,2.88-1.43,1.68-1.1.63-2.34-.78-2.64Z"/>
          <path class="cls-14" d="M97.45,380.68c.33,1.22-1.33,2.63-4.56,3.11-3.65.55-7.23-3.51-5.64-5.78,1.45-2.08,2.96-2.41,4.85-1.13-.57-.53-1.13-1.1-1.74-1.72-.03-.04-.04-.08-.03-.13-1.76.06-3.39.67-4.85,1.8-4.68,3.62-1.85,6.93,1.06,8.48,2.05,1.09,5.03,2.36,7.3.62,1.12-.86,2.11-1.86,3.17-2.78.91-.79,1.94-1.34,3.01-1.6-.82-.27-1.66-.5-2.45-.81-.04-.02-.07-.04-.11-.06Z"/>
          <path class="cls-14" d="M76.5,370.95c-5.56-.33-6.55-5.47-2.99-3.65,3.57,1.82,7.46,1.66,9.37.42.46-.3.88-.39,1.26-.37.06-1.23-.56-2.37-2.23-2.78-.11.58-.23,1.15-.34,1.73.61-.12,1.21-.26,1.8-.43.34-.1.39.31.22.51-3.6,4.06-10,1.47-12.94-1.95-.12-.14.1-.45.25-.31.39.34.81.64,1.24.9.04-.78.09-1.55.14-2.33-2.95-.83-3.4,3.77-2.7,5.26.56,1.2,1.44,1.79,2.68,2.23,1.41.49,2.85.94,4.33,1.14,1.63.22,3.8.42,5.34-.45-1.24.18-2.92.23-5.42.08Z"/>
          <path class="cls-14" d="M74.81,372.32c-2.28-.57-4.71-1.38-5.81-3.21,0,0-.02.02-.02.02-.12.28-.24.57-.35.88.02.43.25.9.59,1.37.38-.23.92-.25,1.67.23,2.12,1.37,5.31,1.94,6.68,1.94s-.09,2.37-4.82.86c.96.5,1.97.93,3.03,1.18.75.18,1.32.19,1.81.04.89-1.18,1.91-2.22,3.03-3.03-1.92.42-4.12.14-5.81-.28Z"/>
          <path class="cls-14" d="M128.39,364.7c-.27-.12-.5-.26-.7-.44-1.72,3.95-7.5,4.98-11.55,4.79,4.6.98,10.19.85,11.87-2.74.23-.49.51-.96.83-1.4-.16-.07-.32-.15-.45-.21ZM125.64,368.24c-2.69,1.44-5.88.65-3.24.35,2.79-.25,5.03-3.04,5.03-3.04.6-.7.9,1.25-1.79,2.69Z"/>
          <path class="cls-8" d="M158.7,366.82s3.36,1.44,4.06,5.32c.39,2.13,1.64,1.35.58-1.84s-4.74-4.54-4.64-3.48Z"/>
          <path class="cls-8" d="M123.91,377.8s13.25,4.5,27.25.62c4-1-4.37,3.75-15.62,2.5s-13.37-3.25-11.62-3.12Z"/>
          <path class="cls-8" d="M105.85,385.53s5.39,2.86,6.6,6.05c.66,1.21,2.53-.55-.66-3.52-3.19-2.97-6.93-3.52-5.94-2.53Z"/>
          <path class="cls-8" d="M73.08,382.56s9.79,9.46,23.43,11c4.62,0-3.52,2.42-14.41-3.52-8.25-4.84-10.12-8.03-9.02-7.48Z"/>
          <path class="cls-8" d="M91.75,377.06s1.38,1.53,4.14,3.06c1.58.89-.49,1.13-2.47-.3-1.97-1.43-2.66-3.55-1.68-2.76Z"/>
          <path class="cls-8" d="M139.74,366.84s5.42.5,8.5.17c3.08-.33.33,1.17-3.5,1.08-3.83-.08-6.83-1.42-5-1.25Z"/>
          <path class="cls-8" d="M119.77,364.69s3.44-.06,5.89-2c2-1.63,1.49,1.4-1.82,2.44-3.38,1.06-5.51,0-4.07-.44Z"/>
          <path class="cls-8" d="M75.99,368.76s2.75,1.25,6.5,0c1.5-.5.08,2.08-4,1.67-4.08-.42-3.75-2.08-2.5-1.67Z"/>
          <path class="cls-3" d="M115.53,10.58s-41.98-17.72-73.8,3.9c-7.81,6.61-7.41,12.01,1.4,13.41,8.81,1.4,18.36,8.11,14.56,21.73,0,0,9.21-10.81,4.8-22.42,7.21,0,13.21,14.01,13.21,14.01,0,0,3-11.41-5.2-15.21,9.61-2.8,23.62,3.6,24.42,12.41,4.6-7.41.8-16.81-4.6-19.82,13.01-1.4,23.42,6.01,25.82,10.81-3.8-9.81-8.01-13.81-8.01-13.81,0,0,11.61-.6,18.61,9.01,2.4,2.8.4-8.41-16.61-11.21,6,.4,13.9-1.56,13.9-1.56,0,0-5.09.56-8.5-1.24Z"/>
          <path class="cls-3" d="M32.39,36.54c1.21-.38,2.5-.6,3.86-.63,5.08-.12,11.75,1.46,13.51,6.96,2.13,6.65-4.66,12.66-7.27,18.05-3.39,6.98-2.96-.85-.64-5.93,2.33-5.08-8.25,6.98-10.37,21.59-2.12,14.6-5.71-3.81-4.87-11.43.85-7.62-6.35,5.71-3.17,15.03,3.17,9.31-3.81,9.95-8.25,0-4.44-9.95-5.29,12.49-.85,23.28,4.44,10.79-9.31-3.81-9.31-24.55s7.2-31.96,10.37-24.13c3.17,7.83,3.6-1.48,5.93-6.99,2.19-5.18,5.94-9.64,11.06-11.25Z"/>
          <path class="cls-3" d="M72.8,7.66s12.19-3.99,34.79,3.1c6.43,1.55-18.83-11.08-34.79-3.1Z"/>
          <path class="cls-3" d="M22.78,126.19s2.75,2.59,8.73,3.88c5.98,1.29.49,3.4-4.53,1.13-5.01-2.26-5.66-5.5-4.2-5.01Z"/>
          <path class="cls-3" d="M24.23,134.98s3.23,1.5,6.06,1.21c2.83-.29.52,2.31-2.71,1.73-3.23-.58-4.84-3.11-3.35-2.94Z"/>
        </g>
      </g>
    </g>
  </g>
</svg>