<?xml version="1.0" encoding="UTF-8"?>
<svg xmlns="http://www.w3.org/2000/svg" viewBox="0 0 436.84 275.36">
  <defs>
    <style>
      .cls-1 {
        fill: none;
      }

      .cls-2, .cls-3 {
        fill: #8b5e3c;
      }

      .cls-4, .cls-5, .cls-6, .cls-7, .cls-8, .cls-9, .cls-10, .cls-11, .cls-12 {
        mix-blend-mode: multiply;
      }

      .cls-4, .cls-13, .cls-12 {
        opacity: .5;
      }

      .cls-14 {
        fill: #fe0000;
        opacity: .3;
      }

      .cls-15 {
        fill: #231f20;
      }

      .cls-5 {
        fill: #c46b0a;
      }

      .cls-16 {
        fill: #e1b39b;
      }

      .cls-16, .cls-17, .cls-18, .cls-19, .cls-20, .cls-3, .cls-21, .cls-22 {
        mix-blend-mode: screen;
      }

      .cls-17, .cls-7, .cls-23 {
        fill: #2e3192;
      }

      .cls-24 {
        fill: #8a1c24;
      }

      .cls-25 {
        isolation: isolate;
      }

      .cls-26 {
        fill: #ed1c24;
      }

      .cls-6, .cls-27, .cls-19 {
        fill: #39b54a;
      }

      .cls-28, .cls-10 {
        fill: #fed1b4;
      }

      .cls-29 {
        fill: #fff;
      }

      .cls-18, .cls-30 {
        fill: #ffe61e;
      }

      .cls-31, .cls-9, .cls-12, .cls-21 {
        fill: #f7941e;
      }

      .cls-32 {
        fill: #ada9a5;
      }

      .cls-33 {
        fill: #27aae1;
      }

      .cls-34 {
        fill: #4b1e0a;
      }

      .cls-11 {
        fill: #ffbe1e;
      }

      .cls-22 {
        opacity: .7;
      }
    </style>
  </defs>
  <g class="cls-25">
    <g id="Livello_2" data-name="Livello 2">
      <g id="Layer_1" data-name="Layer 1">
        <g>
          <g>
            <g>
              <rect class="cls-34" x="10.99" y="258.03" width="407.33" height="17.33"/>
              <rect class="cls-2" x="12.65" y="260.03" width="404" height="13"/>
              <path class="cls-34" d="M360.54,256.78c-15.06.08-30.12.33-45.18.64,0-.01,0-.02,0-.03-.85.11-1.77-.07-1.86-.62-.51-.44-.15-1.18.55-1.1.11.01.2-.04.27-.12.45,0,.9.02,1.36.03,0,0,0,0,0,0,.24-.02.49-.01.73.03,0,0,0-.02,0-.02,14.64.3,29.29.54,43.94.62,5.67.03,11.38.18,17.11.29-5.66.11-11.32.26-16.93.29Z"/>
              <path class="cls-34" d="M358.54,219.58c-15.06.03-30.12.12-45.18.24,0,0,0,0,0-.01-.85.04-1.77-.03-1.86-.23-.51-.16-.15-.44.55-.42.11,0,.2-.02.27-.05.45,0,.9,0,1.36.01,0,0,0,0,0,0,.24,0,.49,0,.73.01,0,0,0,0,0,0,14.64.11,29.29.2,43.94.23,5.67.01,11.38.07,17.11.11-5.66.04-11.32.1-16.93.11Z"/>
              <g>
                <path class="cls-34" d="M404.35,205.78c-.06-.01-.13-.02-.21-.02-15.06-.46-30.5-.11-45.6-.08-15.17.03-30.34.13-45.51.24-.03,0-.05-.02-.09-.02-1.31-.17-2.27.28-2.39.72-.16.54,1.18,1.05,2.65.87.04,0,.07-.02.1-.03,3.68,3.42,3.05,7.99.5,11.5-.46,0-.91,0-1.37.01-.02-.02-.07-.04-.17-.05-.91-.04-1.71.2-1.56.56.09.24.63.37,1.24.41,0,.02.04.04.12.04,15.43.12,30.87.22,46.3.25,15.12.03,30.56.38,45.65-.08.29,0,1.29,0,1.38-.09,2.91.02,4.76-.15,6.63-1.34,2.52-1.6,2.71-3.6,3.14-5.41.62-2.62-1.56-7.92-10.81-7.49Z"/>
                <path class="cls-32" d="M358.54,218.73c-14.65.03-29.29.12-43.94.23,1.7-1.57,1.99-3.2,1.89-4.95-.13-2.22-.14-4.56-2.62-6.6,14.83.12,29.66.21,44.49.24,15.12.03,30.56.38,45.65-.08.04,0,.07,0,.1-.01,5.01,1.13,5.05,3.89,5.07,5.86.01,1.7.27,4.89-5.29,5.38-14.98-.45-30.33-.1-45.35-.07Z"/>
                <path class="cls-26" d="M414.01,213.3c-.23,1.25-.81,2.53-1.66,3.74-1.47,2.09-3.46,2.62-9.73,2.58-2.71-.07-5.43-.12-8.15-.15,3.19-.04,6.37-.09,9.54-.18.26,0,.46-.07.56-.15,5.46-.32,5.92-3.81,5.91-5.37,0-2.11.11-5.04-4.97-6.29,0,0,0,0,0,0-.04,0-.08-.01-.12-.02h0s-.04,0-.06-.01c-.71-.12-1.44-.3-2.21-.36-.02,0-.04,0-.06,0-14.72-.41-29.77-.08-44.52-.05-14.49.03-28.97.12-43.46.23h0c-.63.05-1.71.13-2.38,0-.37-.03-.74-.06-1.04-.16-.33-.11-.48-.28-.48-.45,0-.33.62-.62,1.53-.5.17.02.32-.02.38-.08,15.09.12,30.18.21,45.27.24,15.12.03,30.56.38,45.65-.08.03,0,.05,0,.07,0,8.93.23,10.47,4.21,9.93,7.08Z"/>
                <path class="cls-34" d="M408.34,214.73c-24.37-.52-48.8-.49-73.17.01-.13,0-.18.24-.03.25,24.36.5,48.8.53,73.17.01.15,0,.2-.26.03-.27Z"/>
                <path class="cls-34" d="M408.34,215.9c-24.37-.52-48.8-.49-73.17.01-.13,0-.18.24-.03.25,24.36.5,48.8.53,73.17.01.15,0,.2-.26.03-.27Z"/>
                <path class="cls-34" d="M407.84,212.23c-19.89-.7-40.12-.81-60,.02-.12,0-.17.22-.02.22,19.89.84,40.11.71,60,.02.15,0,.2-.26.03-.27Z"/>
                <path class="cls-34" d="M408.34,213.06c-24.37-.52-48.8-.49-73.17.01-.13,0-.18.24-.03.25,24.36.5,48.8.53,73.17.01.15,0,.2-.26.03-.27Z"/>
                <path class="cls-34" d="M407.86,210.56c-15.81-.7-31.89-.81-47.7.02-.1,0-.13.22-.02.22,15.81.84,31.89.71,47.7.02.12,0,.16-.26.02-.27Z"/>
              </g>
              <g>
                <path class="cls-34" d="M406.35,220.05c-.06-.03-.13-.05-.21-.06-15.06-1.23-30.5-.29-45.6-.21-15.17.08-30.34.33-45.51.65-.03-.02-.05-.04-.09-.06-1.31-.46-2.27.73-2.39,1.93-.16,1.45,1.18,2.79,2.65,2.31.04-.01.07-.04.1-.07,3.68,9.11,3.05,21.27.5,30.63-.46,0-.91.02-1.37.03-.02-.06-.07-.11-.17-.12-.91-.11-1.71.54-1.56,1.5.09.65.63.98,1.24,1.09,0,.06.04.12.12.12,15.43.33,30.87.59,46.3.67,15.12.08,30.56,1,45.65-.21.29-.02,1.29,0,1.38-.25,2.91.05,4.76-.4,6.63-3.58,2.52-4.27,2.71-9.57,3.14-14.41.62-6.98-1.56-21.08-10.81-19.95Z"/>
                <path class="cls-32" d="M360.54,254.53c-14.65.08-29.29.32-43.94.62,1.7-4.18,1.99-8.52,1.89-13.17-.13-5.9-.14-12.15-2.62-17.57,14.83.31,29.66.55,44.49.63,15.12.08,30.56,1,45.65-.21.04,0,.07-.02.1-.03,5.01,3,5.05,10.35,5.07,15.6.01,4.52.27,13.02-5.29,14.32-14.98-1.2-30.33-.27-45.35-.19Z"/>
                <path class="cls-23" d="M416.01,240.06c-.23,3.33-.81,6.74-1.66,9.96-1.47,5.55-3.46,6.97-9.73,6.87-2.71-.19-5.43-.33-8.15-.41,3.19-.09,6.37-.24,9.54-.49.26-.02.46-.19.56-.4,5.46-.86,5.92-10.13,5.91-14.31,0-5.61.11-13.43-4.97-16.74,0,0,0,0,0,0-.04-.02-.08-.04-.12-.05,0,0,0,0,0,0-.02,0-.04-.02-.06-.03-.71-.33-1.44-.8-2.21-.97-.02,0-.04,0-.06.02-14.72-1.1-29.77-.22-44.52-.14-14.49.08-28.97.31-43.46.61h0c-.63.13-1.71.35-2.38.02-.37-.08-.74-.16-1.04-.43-.33-.3-.48-.75-.48-1.19,0-.87.62-1.65,1.53-1.34.17.06.32-.07.38-.22,15.09.32,30.18.57,45.27.65,15.12.08,30.56,1,45.65-.21.03,0,.05-.02.07-.02,8.93.62,10.47,11.2,9.93,18.84Z"/>
                <path class="cls-7" d="M413.04,252.69c-.72-1.32.19-4.17.47-5.49.6-2.85,1.04-5.75,1.04-8.68s-.12-6.25-1.57-9c-1.03-1.96-2.93-4.07-3.56-6.18-.16-.54-.17-.98-.07-1.33-.96-.43-2.04-.71-3.27-.79-.03,0-.05.02-.07.02-15.08,1.21-30.52.29-45.65.21-15.09-.08-30.18-.33-45.27-.65-.06.16-.21.28-.38.22-.91-.31-1.52.47-1.53,1.34,0,.44.15.89.48,1.19.3.27.67.35,1.04.43.67.34,1.75.11,2.38-.02h0c14.48-.3,28.97-.53,43.46-.61,14.74-.08,29.8-.96,44.52.14.02,0,.04-.01.06-.02.77.16,1.5.64,2.21.97.02,0,.04.02.06.03,0,0,0,0,0,0,.04.02.08.04.12.05,0,0,0,0,0,0,5.07,3.31,4.96,11.13,4.97,16.74,0,4.18-.45,13.45-5.91,14.31-.1.21-.3.38-.56.4-3.16.25-6.35.4-9.54.49,2.73.08,5.45.21,8.15.41,4.92.08,7.2-.79,8.67-3.84-.09-.11-.17-.22-.24-.35Z"/>
                <path class="cls-34" d="M408.34,231.06c-24.37-.52-48.8-.49-73.17.01-.13,0-.18.24-.03.25,24.36.5,48.8.53,73.17.01.15,0,.2-.26.03-.27Z"/>
                <path class="cls-34" d="M408.34,232.23c-24.37-.52-48.8-.49-73.17.01-.13,0-.18.24-.03.25,24.36.5,48.8.53,73.17.01.15,0,.2-.26.03-.27Z"/>
                <path class="cls-34" d="M407.84,228.56c-19.89-.7-40.12-.81-60,.02-.12,0-.17.22-.02.22,19.89.84,40.11.71,60,.02.15,0,.2-.26.03-.27Z"/>
                <path class="cls-34" d="M408.34,229.4c-24.37-.52-48.8-.49-73.17.01-.13,0-.18.24-.03.25,24.36.5,48.8.53,73.17.01.15,0,.2-.26.03-.27Z"/>
                <path class="cls-34" d="M407.86,226.9c-15.81-.7-31.89-.81-47.7.02-.1,0-.13.22-.02.22,15.81.84,31.89.71,47.7.02.12,0,.16-.26.02-.27Z"/>
                <path class="cls-34" d="M408.32,244.96c-28.18-.6-56.45-.57-84.63.01-.16,0-.21.28-.03.28,28.18.58,56.45.61,84.63.01.17,0,.23-.31.03-.31Z"/>
                <path class="cls-34" d="M408.32,249.47c-28.18-.6-56.45-.57-84.63.01-.16,0-.21.28-.03.28,28.18.58,56.45.61,84.63.01.17,0,.23-.31.03-.31Z"/>
                <path class="cls-34" d="M407.74,242.07c-23.01-.81-46.4-.93-69.4.03-.14,0-.19.25-.03.26,23,.97,46.39.83,69.4.03.17,0,.23-.3.03-.31Z"/>
                <path class="cls-34" d="M408.32,243.03c-28.18-.6-56.45-.57-84.63.01-.16,0-.21.28-.03.28,28.18.58,56.45.61,84.63.01.17,0,.23-.31.03-.31Z"/>
                <path class="cls-34" d="M407.77,240.14c-18.29-.81-36.89-.93-55.18.03-.11,0-.15.25-.02.26,18.29.97,36.88.83,55.17.03.14,0,.19-.3.03-.31Z"/>
              </g>
              <g>
                <path class="cls-34" d="M99.85,205.78c-.06-.01-.13-.02-.21-.02-15.06-.46-30.5-.11-45.6-.08-15.17.03-30.34.13-45.51.24-.03,0-.05-.02-.09-.02-1.31-.17-2.27.28-2.39.72-.16.54,1.18,1.05,2.65.87.04,0,.07-.02.1-.03,3.68,3.42,3.05,7.99.5,11.5-.46,0-.91,0-1.37.01-.02-.02-.07-.04-.17-.05-.91-.04-1.71.2-1.56.56.09.24.63.37,1.24.41,0,.02.04.04.12.04,15.43.12,30.87.22,46.3.25,15.12.03,30.56.38,45.65-.08.29,0,1.29,0,1.38-.09,2.91.02,4.76-.15,6.63-1.34,2.52-1.6,2.71-3.6,3.14-5.41.62-2.62-1.56-7.92-10.81-7.49Z"/>
                <path class="cls-32" d="M54.04,218.73c-14.65.03-29.29.12-43.94.23,1.7-1.57,1.99-3.2,1.89-4.95-.13-2.22-.14-4.56-2.62-6.6,14.83.12,29.66.21,44.49.24,15.12.03,30.56.38,45.65-.08.04,0,.07,0,.1-.01,5.01,1.13,5.05,3.89,5.07,5.86.01,1.7.27,4.89-5.29,5.38-14.98-.45-30.33-.1-45.35-.07Z"/>
                <path class="cls-31" d="M109.51,213.3c-.23,1.25-.81,2.53-1.66,3.74-1.47,2.09-3.46,2.62-9.73,2.58-2.71-.07-5.43-.12-8.15-.15,3.19-.04,6.37-.09,9.54-.18.26,0,.46-.07.56-.15,5.46-.32,5.92-3.81,5.91-5.37,0-2.11.11-5.04-4.97-6.29,0,0,0,0,0,0-.04,0-.08-.01-.12-.02h0s-.04,0-.06-.01c-.71-.12-1.44-.3-2.21-.36-.02,0-.04,0-.06,0-14.72-.41-29.77-.08-44.52-.05-14.49.03-28.97.12-43.46.23h0c-.63.05-1.71.13-2.38,0-.37-.03-.74-.06-1.04-.16-.33-.11-.48-.28-.48-.45,0-.33.62-.62,1.53-.5.17.02.32-.02.38-.08,15.09.12,30.18.21,45.27.24,15.12.03,30.56.38,45.65-.08.03,0,.05,0,.07,0,8.93.23,10.47,4.21,9.93,7.08Z"/>
                <path class="cls-34" d="M103.84,214.73c-24.37-.52-48.8-.49-73.17.01-.13,0-.18.24-.03.25,24.36.5,48.8.53,73.17.01.15,0,.2-.26.03-.27Z"/>
                <path class="cls-34" d="M103.84,215.9c-24.37-.52-48.8-.49-73.17.01-.13,0-.18.24-.03.25,24.36.5,48.8.53,73.17.01.15,0,.2-.26.03-.27Z"/>
                <path class="cls-34" d="M103.34,212.23c-19.89-.7-40.12-.81-60,.02-.12,0-.17.22-.02.22,19.89.84,40.11.71,60,.02.15,0,.2-.26.03-.27Z"/>
                <path class="cls-34" d="M103.84,213.06c-24.37-.52-48.8-.49-73.17.01-.13,0-.18.24-.03.25,24.36.5,48.8.53,73.17.01.15,0,.2-.26.03-.27Z"/>
                <path class="cls-34" d="M103.36,210.56c-15.81-.7-31.89-.81-47.7.02-.1,0-.13.22-.02.22,15.81.84,31.89.71,47.7.02.12,0,.16-.26.02-.27Z"/>
              </g>
              <g>
                <path class="cls-34" d="M116.85,192.28c-.06-.01-.13-.02-.21-.02-15.06-.46-30.5-.11-45.6-.08-15.17.03-30.34.13-45.51.24-.03,0-.05-.02-.09-.02-1.31-.17-2.27.28-2.39.72-.16.54,1.18,1.05,2.65.87.04,0,.07-.02.1-.03,3.68,3.42,3.05,7.99.5,11.5-.46,0-.91,0-1.37.01-.02-.02-.07-.04-.17-.05-.91-.04-1.71.2-1.56.56.09.24.63.37,1.24.41,0,.02.04.04.12.04,15.43.12,30.87.22,46.3.25,15.12.03,30.56.38,45.65-.08.29,0,1.29,0,1.38-.09,2.91.02,4.76-.15,6.63-1.34,2.52-1.6,2.71-3.6,3.14-5.41.62-2.62-1.56-7.92-10.81-7.49Z"/>
                <path class="cls-32" d="M71.04,205.23c-14.65.03-29.29.12-43.93.23,1.7-1.57,1.99-3.2,1.89-4.95-.13-2.22-.14-4.56-2.62-6.6,14.83.12,29.66.21,44.49.24,15.12.03,30.56.38,45.65-.08.04,0,.07,0,.1-.01,5.01,1.13,5.05,3.89,5.07,5.86.01,1.7.27,4.89-5.29,5.38-14.98-.45-30.33-.1-45.35-.07Z"/>
                <path class="cls-30" d="M126.51,199.8c-.23,1.25-.81,2.53-1.66,3.74-1.47,2.09-3.46,2.62-9.73,2.58-2.71-.07-5.43-.12-8.15-.15,3.19-.04,6.37-.09,9.54-.18.26,0,.46-.07.56-.15,5.46-.32,5.92-3.81,5.91-5.37,0-2.11.11-5.04-4.97-6.29,0,0,0,0,0,0-.04,0-.08-.01-.12-.02h0s-.04,0-.06-.01c-.71-.12-1.44-.3-2.21-.36-.02,0-.04,0-.06,0-14.72-.41-29.77-.08-44.52-.05-14.49.03-28.97.12-43.46.23h0c-.63.05-1.71.13-2.38,0-.37-.03-.74-.06-1.04-.16-.33-.11-.48-.28-.48-.45,0-.33.62-.62,1.53-.5.17.02.32-.02.38-.08,15.09.12,30.17.21,45.26.24,15.12.03,30.56.38,45.65-.08.03,0,.05,0,.07,0,8.93.23,10.47,4.21,9.93,7.08Z"/>
                <path class="cls-34" d="M120.84,201.23c-24.37-.52-48.8-.49-73.17.01-.13,0-.18.24-.03.25,24.36.5,48.8.53,73.17.01.15,0,.2-.26.03-.27Z"/>
                <path class="cls-34" d="M120.84,202.4c-24.37-.52-48.8-.49-73.17.01-.13,0-.18.24-.03.25,24.36.5,48.8.53,73.17.01.15,0,.2-.26.03-.27Z"/>
                <path class="cls-34" d="M120.34,198.73c-19.89-.7-40.12-.81-60,.02-.12,0-.17.22-.02.22,19.89.84,40.11.71,60,.02.15,0,.2-.26.03-.27Z"/>
                <path class="cls-34" d="M120.84,199.56c-24.37-.52-48.8-.49-73.17.01-.13,0-.18.24-.03.25,24.36.5,48.8.53,73.17.01.15,0,.2-.26.03-.27Z"/>
                <path class="cls-34" d="M120.36,197.06c-15.81-.7-31.89-.81-47.7.02-.1,0-.13.22-.02.22,15.81.84,31.89.71,47.7.02.12,0,.16-.26.02-.27Z"/>
              </g>
              <g>
                <path class="cls-34" d="M113.85,220.05c-.06-.03-.13-.05-.21-.06-15.06-1.23-30.5-.29-45.6-.21-15.17.08-30.34.33-45.51.65-.03-.02-.05-.04-.09-.06-1.31-.46-2.27.73-2.39,1.93-.16,1.45,1.18,2.79,2.65,2.31.04-.01.07-.04.1-.07,3.68,9.11,3.05,21.27.5,30.63-.46,0-.91.02-1.37.03-.02-.06-.07-.11-.17-.12-.91-.11-1.71.54-1.56,1.5.09.65.63.98,1.24,1.09,0,.06.04.12.12.12,15.43.33,30.87.59,46.3.67,15.12.08,30.56,1,45.65-.21.29-.02,1.29,0,1.38-.25,2.91.05,4.76-.4,6.63-3.58,2.52-4.27,2.71-9.57,3.14-14.41.62-6.98-1.56-21.08-10.81-19.95Z"/>
                <path class="cls-32" d="M68.04,254.53c-14.65.08-29.29.32-43.93.62,1.7-4.18,1.99-8.52,1.89-13.17-.13-5.9-.14-12.15-2.62-17.57,14.83.31,29.66.55,44.49.63,15.12.08,30.56,1,45.65-.21.04,0,.07-.02.1-.03,5.01,3,5.05,10.35,5.07,15.6.01,4.52.27,13.02-5.29,14.32-14.98-1.2-30.33-.27-45.35-.19Z"/>
                <path class="cls-27" d="M123.51,240.06c-.23,3.33-.81,6.74-1.66,9.96-1.47,5.55-3.46,6.97-9.73,6.87-2.71-.19-5.43-.33-8.15-.41,3.19-.09,6.37-.24,9.54-.49.26-.02.46-.19.56-.4,5.46-.86,5.92-10.13,5.91-14.31,0-5.61.11-13.43-4.97-16.74,0,0,0,0,0,0-.04-.02-.08-.04-.12-.05,0,0,0,0,0,0-.02,0-.04-.02-.06-.03-.71-.33-1.44-.8-2.21-.97-.02,0-.04,0-.06.02-14.72-1.1-29.77-.22-44.52-.14-14.49.08-28.97.31-43.46.61h0c-.63.13-1.71.35-2.38.02-.37-.08-.74-.16-1.04-.43-.33-.3-.48-.75-.48-1.19,0-.87.62-1.65,1.53-1.34.17.06.32-.07.38-.22,15.09.32,30.18.57,45.26.65,15.12.08,30.56,1,45.65-.21.03,0,.05-.02.07-.02,8.93.62,10.47,11.2,9.93,18.84Z"/>
                <path class="cls-34" d="M115.84,231.06c-24.37-.52-48.8-.49-73.17.01-.13,0-.18.24-.03.25,24.36.5,48.8.53,73.17.01.15,0,.2-.26.03-.27Z"/>
                <path class="cls-34" d="M115.84,232.23c-24.37-.52-48.8-.49-73.17.01-.13,0-.18.24-.03.25,24.36.5,48.8.53,73.17.01.15,0,.2-.26.03-.27Z"/>
                <path class="cls-34" d="M115.34,228.56c-19.89-.7-40.12-.81-60,.02-.12,0-.17.22-.02.22,19.89.84,40.11.71,60,.02.15,0,.2-.26.03-.27Z"/>
                <path class="cls-34" d="M115.84,229.4c-24.37-.52-48.8-.49-73.17.01-.13,0-.18.24-.03.25,24.36.5,48.8.53,73.17.01.15,0,.2-.26.03-.27Z"/>
                <path class="cls-34" d="M115.36,226.9c-15.81-.7-31.89-.81-47.7.02-.1,0-.13.22-.02.22,15.81.84,31.89.71,47.7.02.12,0,.16-.26.02-.27Z"/>
                <path class="cls-34" d="M115.82,244.96c-28.18-.6-56.45-.57-84.63.01-.16,0-.21.28-.03.28,28.18.58,56.45.61,84.63.01.17,0,.23-.31.03-.31Z"/>
                <path class="cls-34" d="M115.82,249.47c-28.18-.6-56.45-.57-84.63.01-.16,0-.21.28-.03.28,28.18.58,56.45.61,84.63.01.17,0,.23-.31.03-.31Z"/>
                <path class="cls-34" d="M115.24,242.07c-23.01-.81-46.4-.93-69.4.03-.14,0-.19.25-.03.26,23,.97,46.39.83,69.4.03.17,0,.23-.3.03-.31Z"/>
                <path class="cls-34" d="M115.82,243.03c-28.18-.6-56.45-.57-84.63.01-.16,0-.21.28-.03.28,28.18.58,56.45.61,84.63.01.17,0,.23-.31.03-.31Z"/>
                <path class="cls-34" d="M115.27,240.14c-18.29-.81-36.89-.93-55.18.03-.11,0-.15.25-.02.26,18.29.97,36.88.83,55.17.03.14,0,.19-.3.03-.31Z"/>
              </g>
              <path class="cls-34" d="M174.3,248.77c.01-1.85.02-3.69.05-5.52-.15,1.85-.18,3.69-.05,5.52Z"/>
              <g>
                <path class="cls-34" d="M272.33,92.69c1.87,9.49,9.45,16.54,18.36,19.72,5.45,1.94,15.95,2.3,19.77-3.1,11.71,9.17,30.71,9.04,41.32-2.54,4.48,6.44,10.38,11.06,18.8,10.47,7.56-.53,15.27-3.19,18.5-10.53,8.89,7.84,21.48,9.75,33.27,3.54,13.71-7.22,11.71-25.42,1.54-34.52,13.77-2.85,16.16-18.98,9.1-30.19-5.95-9.46-16.51-11.98-25.6-7.97,3.39-20.51-25.76-26.44-35.97-17.35-4.05-11.61-13.5-18.05-25.65-19.7-9.8-1.33-24.38-.77-27.47,10.47-6.39-7.08-17.74-4.1-22.99,3.3-8.28-6.56-25.41-.95-31.35,5.95-7.08,8.22-8.48,23.62.47,30.88-.1,0-.18-.01-.29-.02-2.11-.12-1.75-.15-3.79.08-2.23.25-4.76,1.94-6.09,3.69-3.85,5.07-5.37,12.03-4.15,18.3,2.2,11.36,11.67,18.21,22.25,19.51Z"/>
                <path class="cls-32" d="M267.02,89.19c-5.14-1.86-9.63-5.13-12.25-10.59-4.86-10.15-1.91-29.71,13.4-25.31.73.21.9-.65.28-.94-9.72-4.55-9.12-20.93-2.82-28.27,4.13-4.81,13.76-9.96,21.82-9.79,4.03-.31,8.23,1.27,10.73,4.46.2-.17.29-.45.11-.79-.5-.98-1.11-1.82-1.8-2.57,5.5-5.75,16.07-11.18,21.48-1.72.36.63,1.71,1.05,1.95.07,2.88-11.86,17.92-11.99,27.57-10.1,10.61,2.09,18.15,7.72,23.09,17.36-1.79,1.96-2.79,4.5-2.61,7.62.9-1.55,1.51-3.25,2.58-4.72,1.27-1.74,3.5-2.75,5.47-3.39.74-.24,1.49-.37,2.26-.47,3.48-.99,7.16-1.3,9.74-1,10.4,1.19,18.31,8.3,18.04,19.14-.26.14-.52.28-.78.43,1.66-.28,3.49-.25,5.3,0,8.03-1.75,16.62.78,20.54,9.28,4.63,10.04,1.42,22.83-10.08,25.97,1.11,1.08,2,2.47,2.71,3.71.3.53.6,1.08.9,1.65,7.82,9.36,2.58,24.95-9.6,28.68-9.99,3.05-18.56,1.24-25.65-4.23-.14-.09-.28-.16-.42-.25-2.74-1.8-4.9-4.29-7.34-6.4,1.76,3.41,3.94,6.39,6.49,8.83-.03.03-.06.05-.09.09-7.39,12.03-29.37,12.35-35.45-.96-.07-.16-.19-.27-.33-.37-4.37,2.8-8.65,5.5-13.8,6.71-.76.18-1.53.31-2.3.41-4.07,1.11-8.32,1.43-12.82.45-6.88-1.49-11.79-4.06-15.77-8.28-1.77-1.31-3.4-2.78-4.88-4.4,1.62,3.56,3.96,6.58,6.79,9.01-12.71,6.86-32.19-2.24-35.94-15.71.77.06,1.55.09,2.34.09-3.11-.65-6.22-1.92-8.87-3.71Z"/>
                <path class="cls-29" d="M272.3,79.47c-4.58-1.65-8.59-4.57-10.92-9.44-4.33-9.04-1.7-26.47,11.94-22.55.65.19.8-.58.25-.84-8.67-4.06-8.13-18.65-2.51-25.2,3.68-4.28,12.26-8.87,19.45-8.73,3.59-.28,7.34,1.13,9.56,3.98.18-.15.25-.4.1-.7-.44-.87-.99-1.62-1.61-2.29,4.9-5.13,14.32-9.96,19.15-1.54.32.56,1.52.94,1.74.06,2.57-10.56,15.97-10.69,24.57-9,9.45,1.86,16.18,6.88,20.58,15.47-1.6,1.74-2.49,4.01-2.33,6.79.81-1.38,1.34-2.9,2.3-4.21,1.13-1.55,3.12-2.45,4.88-3.02.66-.21,1.33-.33,2.01-.42,3.1-.88,6.38-1.16,8.68-.89,9.27,1.06,16.32,7.4,16.07,17.06-.23.12-.46.25-.69.38,1.48-.25,3.11-.23,4.72,0,7.15-1.56,14.81.69,18.3,8.27,4.12,8.95,1.26,20.35-8.98,23.15.99.97,1.79,2.2,2.41,3.3.27.47.53.96.8,1.47,6.96,8.34,2.3,22.24-8.55,25.56-8.9,2.72-16.54,1.11-22.86-3.77-.12-.08-.25-.14-.37-.22-2.44-1.6-4.36-3.82-6.54-5.7,1.57,3.04,3.51,5.69,5.79,7.87-.03.02-.06.04-.08.08-6.59,10.72-26.18,11.01-31.59-.86-.06-.14-.17-.24-.29-.33-3.89,2.5-7.71,4.9-12.3,5.98-.67.16-1.36.27-2.05.36-3.62.99-7.41,1.27-11.43.4-6.13-1.33-10.5-3.62-14.05-7.38-1.57-1.17-3.03-2.48-4.34-3.92,1.44,3.17,3.53,5.86,6.05,8.03-11.33,6.11-28.68-2-32.03-14,.69.06,1.39.08,2.08.08-2.77-.58-5.54-1.71-7.91-3.31Z"/>
                <path class="cls-34" d="M307.33,130.44c4.68,2.32,11.38-1.1,11.34-6.65-.03-4.49-4.12-7.61-8.29-7.63-1.61-.23-3.27-.08-4.75.53-2.59,1.07-4.02,4.34-3.48,7,.61,2.99,2.45,5.39,5.18,6.75Z"/>
                <path class="cls-32" d="M306.07,118.38c3.67-2.05,7.85-.46,9.85,2.72.24.74.29,1.58.07,2.49-.68,2.94-3.7,5.53-6.86,5.05-4.48-.68-8.07-7.47-3.06-10.26Z"/>
                <path class="cls-29" d="M306.74,118.22c2.93-1.64,6.27-.36,7.87,2.17.19.59.23,1.26.06,1.99-.54,2.35-2.96,4.42-5.48,4.04-3.58-.54-6.45-5.97-2.45-8.2Z"/>
                <path class="cls-34" d="M293.78,143.61c3.71,1.84,9.03-.87,9-5.28-.03-3.56-3.27-6.03-6.58-6.05-1.28-.18-2.59-.06-3.77.42-2.05.85-3.19,3.44-2.76,5.55.48,2.37,1.94,4.28,4.11,5.36Z"/>
                <path class="cls-32" d="M292.78,134.05c2.91-1.62,6.22-.36,7.81,2.15.19.59.23,1.25.06,1.98-.54,2.33-2.93,4.39-5.44,4.01-3.55-.54-6.4-5.92-2.43-8.14Z"/>
                <path class="cls-34" d="M283.75,154.22c2.87,1.42,6.99-.67,6.96-4.08-.02-2.75-2.53-4.67-5.09-4.68-.99-.14-2.01-.05-2.92.33-1.59.65-2.47,2.66-2.14,4.29.37,1.83,1.5,3.31,3.18,4.14Z"/>
                <path class="cls-32" d="M282.98,146.82c2.25-1.25,4.81-.28,6.04,1.67.15.46.18.97.05,1.53-.42,1.8-2.27,3.39-4.21,3.1-2.75-.41-4.95-4.58-1.88-6.3Z"/>
                <path class="cls-29" d="M293.4,133.86c2.28-1.27,4.87-.28,6.11,1.69.15.46.18.98.05,1.55-.42,1.82-2.3,3.43-4.26,3.14-2.78-.42-5.01-4.64-1.9-6.37Z"/>
                <path class="cls-29" d="M283.87,146.65c1.5-.83,3.2-.19,4.02,1.11.1.3.12.64.03,1.02-.28,1.2-1.51,2.26-2.8,2.06-1.83-.28-3.29-3.05-1.25-4.19Z"/>
              </g>
              <g>
                <path class="cls-34" d="M135.59,65.53c-1.04-4.72-4.18-9.1-8.38-11.47-1.45-.82-3.72-1.23-5.34-.74-1.49.45-1.23.36-2.66,1.08-.07.04-.13.06-.19.1,4.04-7.73-1.56-18.01-8.95-21.6-6.2-3.01-19.78-1.76-23.57,5.28-5.87-3.57-14.65-2.24-16.96,4.61-5.52-6.88-15.81-2.9-22.23.97-7.95,4.79-12.58,12.1-11.91,21.39-9.83-3.25-28.3,9.62-19.78,22.86-7.52-.06-14.1,4.87-15.39,13.23-1.54,9.91,4.97,20.4,15.39,18.25-4.33,9.37-.26,22.62,11.43,23.52,10.05.77,18.23-4.33,22.05-12.45,4.45,4.13,10.6,3.67,16.01,1.76,6.03-2.12,8.73-7.1,9.92-12.92,10.84,4.86,24.08-.75,29.47-10.64,4.28,2.61,11.46-.79,14.67-3.78,5.24-4.88,8.38-12.06,6.83-19.21,6.96-4.08,11.48-11.68,9.6-20.23Z"/>
                <path class="cls-32" d="M123.58,86.98c.54-.24,1.08-.49,1.6-.77,1.43,10.48-9.37,22.65-20.26,21.7,1.24-2.54,1.96-5.34,2.02-8.3-.54,1.56-1.23,3.08-2.07,4.52-1.5,4.13-4.14,7.38-8.47,10.49-2.84,2.03-5.88,3.09-9.04,3.54-.57.16-1.14.3-1.72.41-3.94.71-7.73.12-11.6-.52-.07.11-.12.22-.12.35-.23,11.07-15.6,17.45-24.34,11.31-.03-.02-.06-.02-.09-.03,1.04-2.46,1.66-5.19,1.86-8.08-1.07,2.2-1.82,4.58-3.18,6.65-.07.1-.14.2-.21.3-3.28,5.93-8.69,9.76-16.55,10.64-9.58,1.07-17.9-8.2-15.28-17.04.04-.48.08-.96.13-1.41.12-1.07.32-2.3.77-3.39-8.93,1.27-15-6.66-14.8-15.02.17-7.08,5.38-11.42,11.48-12.61,1.18-.72,2.45-1.28,3.68-1.59-.22-.02-.45-.05-.67-.07-3.45-7.45-.08-14.77,6.79-18.72,1.7-.98,4.36-1.87,7.07-2.23.56-.16,1.13-.29,1.71-.35,1.56-.15,3.42-.12,4.82.71,1.18.7,2.12,1.7,3.21,2.51-.81-2.23-2.27-3.69-4.1-4.51.54-8.18,4.09-14.36,10.83-18.99,6.13-4.21,16.62-8.63,22.18-1.26.46.61,1.27-.09,1.33-.63.92-8.19,9.9-7.6,15.44-5.25-.26.72-.43,1.49-.48,2.32-.02.29.13.45.32.52.78-2.97,3.22-5.33,6.11-6.32,5.55-2.53,13.79-1.85,18.1.25,6.58,3.21,11.92,14.41,6.53,20.49-.35.39.03.93.47.57,9.32-7.65,17.24,5.05,16.91,13.56-.18,4.58-2.31,8.2-5.33,11.03-1.3,2.04-3.09,3.85-5.05,5.24Z"/>
                <path class="cls-29" d="M117.6,81.29c.48-.21.96-.44,1.43-.68,1.28,9.35-8.36,20.21-18.07,19.36,1.1-2.27,1.75-4.76,1.8-7.4-.48,1.4-1.1,2.75-1.84,4.03-1.33,3.68-3.69,6.59-7.55,9.36-2.53,1.81-5.25,2.75-8.07,3.16-.51.14-1.02.27-1.54.36-3.52.63-6.89.1-10.35-.46-.06.09-.1.2-.1.32-.2,9.88-13.91,15.57-21.72,10.09-.03-.02-.05-.02-.08-.03.93-2.2,1.48-4.63,1.66-7.21-.95,1.96-1.62,4.09-2.84,5.93-.06.09-.13.18-.19.27-2.93,5.29-7.76,8.71-14.77,9.49-8.54.95-15.97-7.31-13.63-15.21.03-.43.07-.85.11-1.26.1-.96.29-2.05.69-3.02-7.97,1.13-13.38-5.94-13.2-13.4.15-6.32,4.8-10.19,10.25-11.25,1.05-.64,2.18-1.14,3.28-1.42-.2-.02-.4-.04-.6-.06-3.07-6.65-.08-13.18,6.05-16.7,1.52-.87,3.89-1.67,6.31-1.99.5-.14,1-.26,1.52-.31,1.39-.14,3.05-.11,4.3.63,1.06.63,1.89,1.52,2.86,2.24-.73-1.99-2.03-3.29-3.66-4.03.48-7.29,3.65-12.81,9.66-16.94,5.47-3.76,14.83-7.7,19.79-1.12.41.54,1.13-.08,1.19-.57.82-7.31,8.83-6.78,13.78-4.69-.23.65-.38,1.33-.43,2.07-.02.26.11.41.28.46.69-2.65,2.87-4.75,5.45-5.64,4.95-2.26,12.3-1.65,16.15.23,5.87,2.86,10.63,12.85,5.83,18.28-.31.35.03.83.42.51,8.31-6.83,15.38,4.51,15.08,12.1-.16,4.09-2.06,7.32-4.76,9.84-1.16,1.82-2.75,3.44-4.51,4.67Z"/>
                <path class="cls-34" d="M114.58,116.25c-.42-2.01-2.4-3.85-4.52-3.82-1.21.02-2.41.42-3.46,1.06-2.89,1.27-4.79,4.66-3.47,7.79,1.64,3.87,7.33,4.24,9.88,1.22,1.49-1.77,2.05-3.99,1.57-6.25Z"/>
                <path class="cls-32" d="M111.22,121.79c-2.05,1.28-4.93.39-6.28-1.45-.42-.57-.64-1.17-.7-1.76.44-2.8,2.86-5.16,6.03-4.84,4.32.44,3.87,6.23.95,8.05Z"/>
                <path class="cls-29" d="M110.71,119.28c-1.33.83-3.2.25-4.07-.94-.27-.37-.41-.76-.45-1.14.28-1.82,1.86-3.35,3.91-3.14,2.8.28,2.5,4.04.62,5.22Z"/>
                <path class="cls-34" d="M127.62,122.63c-.34-1.6-1.91-3.06-3.58-3.03-.96.02-1.91.33-2.75.84-2.29,1.01-3.8,3.7-2.75,6.18,1.3,3.07,5.81,3.36,7.83.97,1.19-1.4,1.63-3.16,1.25-4.95Z"/>
                <path class="cls-32" d="M124.96,127.02c-1.63,1.01-3.91.31-4.98-1.15-.33-.45-.51-.93-.55-1.39.35-2.22,2.27-4.09,4.78-3.84,3.42.35,3.06,4.94.76,6.38Z"/>
                <path class="cls-34" d="M137.49,128.11c-.26-1.23-1.47-2.36-2.77-2.34-.75.01-1.48.26-2.12.65-1.78.78-2.94,2.86-2.13,4.78,1.01,2.38,4.5,2.6,6.06.75.92-1.08,1.26-2.45.96-3.83Z"/>
                <path class="cls-32" d="M135.43,131.51c-1.26.79-3.02.24-3.85-.89-.26-.35-.39-.72-.43-1.08.27-1.72,1.76-3.17,3.7-2.97,2.65.27,2.37,3.83.58,4.94Z"/>
                <path class="cls-29" d="M124.79,125.23c-1.07.67-2.57.2-3.28-.76-.22-.3-.33-.61-.36-.92.23-1.46,1.49-2.69,3.14-2.53,2.25.23,2.02,3.25.5,4.2Z"/>
                <path class="cls-29" d="M135.07,130.03c-.88.55-2.11.17-2.69-.62-.18-.25-.27-.5-.3-.75.19-1.2,1.23-2.21,2.58-2.08,1.85.19,1.66,2.67.41,3.45Z"/>
              </g>
              <g>
                <g>
                  <path class="cls-34" d="M268.37,229.9c-1.15-1.11-3.15-1.77-4.57-2.46-3.18-1.53-5.67-4.35-8.04-6.88-3.94-4.22-7.69-8.62-11.83-12.65-3.54-3.44-7.59-6.37-12.45-7.52-3.22-.77-6.14,1.15-8.69,3.23-2.16-1.39-5.71-1.9-8.51-1.14-1.28-.17-2.38.32-3.76.76-1.9.6-4.06.2-6.02.15-1.39-.04-3.84-.43-5.51.13-1.85-.22-3.9.11-5.72.2-1.34.07-2.8.17-3.86.93-.87-.97-1.89-1.67-3.1-1.75-4.59-.3-7.89,4.85-10.05,8.25-4.06,6.4-7.29,11.59-13.65,16.11-2.66,1.89-5.42,3.68-8.14,5.47-1.74,1.15-4.72,1.51-5.88,3.37-1.46,2.34.15,6.15,1.17,8.34,2.09,4.48,5.93,7.83,10.16,10.25,2.25,1.28,7.31,4.26,9.64,1.7,4.22-4.62,7.27-10.82,10.74-16.15-.81,6.43,1.31,12.11,1.36,18.4,0,.46.45.48.67.23.03.03.06.06.12.06,10.61.56,21.34.13,31.96.14,10.39,0,20.83.22,31.21-.18.04,0,.06-.02.09-.04.04,0,.08.01.12.01.14,0,.28-.02.42-.03.29-.02.51-.32.47-.6-.46-3.61-.95-6.99-1.72-10.39.74.98,1.6,1.88,2.66,2.64,3.5,2.53,8.54-.65,11.68-2.26,5.19-2.65,15.49-12.08,9.01-18.32Z"/>
                  <path class="cls-28" d="M206.63,205.16c2.36.27,4.67-.14,6.84-1.01.04,2.94.76,5.53.06,8.59-.79,3.49-2.83,7.39-6.92,6.93-7.07-.79-7-10.03-5.84-15.45,1.98.14,4.06.73,5.87.94Z"/>
                  <path class="cls-33" d="M261.95,244.37c-3.01,2.33-6.82,4.85-10.61,5.52-3.14.55-5.47-2.62-7.25-5.65-.24-.83-.5-1.66-.79-2.5-1.45-4.23-3.41-8.24-5.58-12.14.73-2.05-.52-4.98-1.48-6.96-.11-.2-.22-.41-.31-.62-.09-.13-.28.03-.24.17.45,1.53.72,3.06.87,4.64.03.26.03.53.04.8-1.2-2.06-2.44-4.1-3.69-6.12-.07-.12-.25.05-.2.16,3.15,6.4,5.62,12.99,7.94,19.73,1.3,3.8,2.28,7.7,3.25,11.59.47,1.89.36,3.69,1.33,5.47,0,0,.01.02.02.03-10.23-.38-20.52-.17-30.76-.17-10.63,0-21.37-.42-31.99.14-.02,0-.02.01-.04.02.12-1.48.2-2.94.24-4.4-1.17-4.35-.92-8.94-.52-13.43.45-4.98,1.72-9.84,2.31-14.78-1.1,2.51-2.05,5.03-2.79,7.62-.16-1.14-.5-2.25-.75-3.4-.44-2-.61-4.03-.68-6.06,0-.29-.45-.16-.45.09-.05,3.35-.29,7.88,1.48,10.85-.3,1.21-.56,2.44-.77,3.69-2.92,3.41-5.67,6.94-8.32,10.56-1.05,1.44-3.28,6.89-5.75,6.22-1.38-.38-2.8-.47-4.08-1.25-4.09-1.45-7.94-5.38-10.33-8.5-1.23-1.61-3.26-5.75-2.57-8.05.2-.66.53-1.02.95-1.15.66-.84,1.87-1.39,3.01-1.97,6.89-3.56,14.13-7.09,18.98-13.36,2.47-3.19,4.25-6.8,6.41-10.19.86-1.34,2.07-3.06,3.54-4.29,1.04-1.59,3.53-2.42,5.23-1.96,1.41.38,2.71,1.53,3.78,2.91-.34-.63-.7-1.27-1.11-1.87,1.29-.32,2.7-.33,3.96-.49,1.19-.15,2.33-.56,3.48-.86,0,.05.04.08.1.06.81-.25,1.68-.3,2.57-.26-2.22,7.12-2.29,17.66,7.28,18.11,4.01.19,6.44-4.37,7.4-7.58.78-2.61,1.72-8.7-.62-11.02.07-.04.15-.07.22-.11,2.25.23,4.55,1.14,6.8,1.12-.61.52-1.19,1.02-1.74,1.46-.07.06-.11.18-.1.27,3.84-1.17,6.2-4.74,10.51-4.52,1.8.09,3.49.89,4.89,2.04,2.79,1.55,5.44,3.99,7.21,5.63,5.39,4.98,9.86,10.91,15.13,16.01,2.27,2.19,4.85,3.66,7.66,5.06,6.98,3.49.72,10.75-3.09,13.7Z"/>
                </g>
                <g>
                  <g>
                    <path class="cls-34" d="M283.23,178.7c-5.2-3.41-6.15-9.17-6.92-14.9-.71-5.33-1.29-10.67-2-16-1.36-10.15-3.53-20.09-7.76-29.46-3.71-8.23-7.52-15.64-15.58-20.15-6.26-3.5-12.43-5.14-19.18-5.74-6.41-5.42-15.5-5.29-24.08-4.3-12.46,1.43-24.99,4.53-35.33,11.89-10.68,7.6-18.04,20.98-22.01,33.21-4.37,13.47-3.56,37.72-20.39,42.25-.35.09-.54.49-.51.82.46,5.8,9.92,11.28,14.89,12.14.31.05.63-.16.72-.46.83-2.82,1.75-5.68,2.76-8.5-.3,3.86-.05,7.79,2.01,10.22,1.55,1.83,5.34,2.31,7.49,2.71,3.63.68,7.37.91,11.02,1.4,3.93,3.64,8.64,6.53,13.39,8.54,15.18,6.43,32.84,4.5,47.83-1.4,6.86-2.7,13.57-6.57,18.49-12.12.03.04.07.08.13.1,1.97.7,4.08,1.09,6.21,1.19,2.68.14,5.56-.24,7.46-.32,1.9-.08,3.68-.35,5.38-.76-.42-1-.8-2-1.09-3.05,0,0,0,0,0,0-1.23-3.38-1.77-7.4-1.88-11.05,1.03,4.04,1.79,8.5,5.35,10.98-.05.02-.11.03-.16.04.63.59,1.26,1.18,1.95,1.69,4.26-1.8,8.01-4.57,11.81-7.78.33-.28.38-.91,0-1.17Z"/>
                    <path class="cls-28" d="M228.02,198.88c-13.82,4.8-29.48,4.9-43.33.33-6.79-2.25-13.04-6.17-18.06-11.24-7.8-7.88-6.49-17.5-4.63-27.43,1.26-6.73,1.63-13.56,2.56-20.32,1.04-.33,2.08-.65,3.09-1.01,3.91-1.39,7.86-2.6,11.87-3.62h0c.09-.07.21-.12.32-.17-.19-.75-.27-1.54-.14-2.24-.15-4.1,1.24-8.26,3.09-11.95.84-1.69,2-3.2,3.27-4.6-.07.14-.15.27-.22.41-2.23,4.7-3.66,10.52-2.57,15.75,0,0,0,0-.01,0,.11.3.2.6.28.85.08.25.15.52.22.78.88-.31,1.82-.36,2.76-.36,5.39-.97,10.81-1.46,16.28-1.71,0,0,0,0,0,0,.13-.02.26-.03.39-.04-.31-.96-.47-1.96-.39-2.96-.29-3.66-.02-7.36.4-11.01.25-2.11.6-4.24.95-6.34,1.18-7.04.24.29.24,1.76-.02,4.23.39,8.42,1.47,12.51.29,1.11.55,2.47.9,3.85,0,0,0,0-.01,0,.05.16.12.31.17.46.18.43.35.86.5,1.3,1.06-.21,2.16.07,3.24.21,6.79-.11,13.66-.32,20.49-.1,0,.04,0,.08.02.12.13-.02.27-.02.4-.02v-1.62s0,0,0,0c-.37-5.79-.71-12.69-3.73-17.61,5.1,4.29,7.74,10.78,8.81,17.36.18.49.26,1.01.29,1.54.72.25,1.46.42,2.17.7,0,0,.02,0,.03,0,2.58.25,5.23.56,7.84,1.04v.09c.15,0,.29.02.43.03.05-.3.12-.6.16-.91-.04-.33-.08-.67-.11-1,0-.09,0-.16.04-.22-.05-2.67-.38-5.27-.97-7.99.19.33.38.66.56.99,1.33,2.38,1.89,4.8,2.34,7.28.2.74.35,1.48.47,2.24.87,0,1.73.32,2.48.79.17.05.34.09.51.15.75.24,1.48.56,2.19.91.2,1.84.35,3.69.46,5.55.53,9.27.48,18.21-.39,27.21-1.24,5.25-2.61,10.41-5.46,15.24-4.63,7.86-13.33,12.12-21.64,15Z"/>
                    <path class="cls-28" d="M156.3,155.84c.1-.88.31-.96.95-.39.5.44.89,1,1.26,1.55.87,1.31.66,3.09,1.49,4.4-.2,1.04-.39,2.08-.56,3.1-.09.03-.17.08-.25.16-2,2.07-4.6-2.1-5.17-3.36-.99-2.18-.91-4.9-.82-7.22.09-2.45,1.65-5.6,4.3-5.94,2.34-.3,3.52,1.2,4.1,3.02-.34,2.52-.69,5.04-1.12,7.54-.37-1.42-1.02-2.73-2.07-3.82-.47-.48-1.22-1.15-1.96-.95-.86.22-1.06,1.19-1.12,1.96-.06.72.89.56.96-.05Z"/>
                    <path class="cls-31" d="M273.17,184.76c-.91.34-1.84.65-2.77.94,0-.06-.02-.13-.08-.17-4.09-3.67-4.52-8.53-6.09-13.45-.13-.4-.67-.08-.68.23-.18,4.56.23,10.26,2.34,14.58-1.26.28-2.52.54-3.77.77-3.3.59-10.28,2.27-13.06.11.09-.11.2-.22.29-.33,1.69-2.14,3.07-4.57,4.2-7.15,0,.04-.01.07-.02.11,0,.02,0,.04,0,.05.46-.9.92-1.8,1.35-2.72,1.37-4.84,2.62-9.64,3.13-14.63,3.67,2.01,7.64-8.19,7.83-10.63.39-4.85-2.45-12.42-8.06-8.83-.07-.96-.13-1.92-.2-2.88-.09-1.25-.21-2.5-.36-3.75,1.09.6,2.18,1.18,3.29,1.69.36.11.71.25,1.04.41.27-.75.55-1.5.79-2.26,1.03-5.79-.7-12-2.94-17.32-2.38-5.62-6.16-8.91-11.33-11.16-.76-.22-1.54-.38-2.35-.45,5.26,2.43,9.03,5.59,11.61,11.01,2.71,5.71,4.71,12.57,3.87,18.93-1.4-.67-2.77-1.42-4.16-2.15,0-.02,0-.05-.01-.07-1.03-.37-2.05-.76-2.96-1.38-.27-.12-.54-.25-.82-.37-.9-.36-1.84-.66-2.79-.92-.17-1.6-.46-3.19-.96-4.66-1.09-3.19-3-5.94-4.38-8.99-.18-.39-.72.02-.58.36.16.36.28.72.42,1.08-.03.16.04.35.22.57,1.26,3.57,1.61,7.15,1.75,10.86-3.05-.53-6.2-.8-9.12-1.14-.02,0-.04,0-.05,0-.8-7.25-3.99-14.1-9.5-18.94-1.23-.49-2.45-.99-3.52-1.81-.05.15-.05.32.06.44,4.63,5.18,5.42,12.83,6.18,19.72-7.57-.46-15.27-.34-22.8-.32-1.87-6.1-2.74-12.44-2.69-18.81-.29-1.28-.55-2.62-.4-3.91-.07.05-.14.12-.18.21-2.89,6.32-3.63,15.26-2.48,22.62-6.13.27-12.2,1.03-18.19,2.33-1.14-5.85-.23-12.16,3.32-17.03.23-.75.51-1.48.87-2.19-5.48,4.6-10.21,12.94-9.23,20.45-.44.12-.87.22-1.3.34-3.86,1.09-7.54,2.58-11.23,4.06-.06.09-.13.16-.26.2-.42.14-.85.27-1.27.41-.12.05-.25.1-.37.15,0,0,0,0,0,0-.45.23-.93.4-1.42.54,0,.01,0,.02,0,.03-.06.02-.13.05-.19.08-1.09.42-2.11.87-3.06,1.39-2.44-6.63.57-14.71,4.3-20.5,1.36-2.1,3.12-3.89,5.11-5.48.77-.91,1.56-1.81,2.45-2.62.05-.05.1-.09.15-.13-4.42,2.81-8.25,6.26-11.12,11.39-2.78,4.98-4.65,12.44-2.17,17.83.15.16.31.31.47.46.01,0,.02.02.03.03.19.05.4.06.65-.04.15-.06.29-.11.44-.17,0,0,0,0,0,0,.88-.42,1.8-.77,2.74-1.09-.51,2.99-.92,6-1.31,9.02-.58-1.46-1.59-2.63-3.28-2.62-3.9.02-5.41,2.75-6.39,6.24-1.06,3.79-.52,8.57,1.63,11.86,1.24,1.9,3.79,2.81,5.35,1.62-.93,6.84-.73,13.28,3.21,19.74,1.48,2.43,3.32,4.65,5.4,6.66-4.47-1.34-9.28-1.62-13.78-2.94-4-1.17-5.02-5.08-5.13-9.29-.23-2.34-.29-4.68-.26-7.03-.14.9-.28,1.85-.41,2.85-.86,2.04-1.52,4.17-2.34,6.24-1.31,3.31-1.39,4.65-5.25,2.73-1.46-.73-2.78-1.82-4.1-2.77-2.01-1.43-7.91-5.52-3.56-7.11,2.6-.95,4.73-2.85,6.53-4.88,4.42-4.99,6.13-12.31,7.64-18.58,2.06-8.52,3.47-17.12,6.88-25.25,3.53-8.41,8.97-16.83,15.6-23.11,6.18-5.85,14.25-9.23,22.33-11.52,11.07-3.13,27.41-6.63,38.1-.23-1.27-.08-2.55-.13-3.86-.14-.16,0-.23.19-.17.31.11-.11.26-.19.45-.16,2.08.31,4.35.45,6.42,1.05-.04-.03-.07-.07-.1-.1,7.6,1.22,14.38,3.84,21.13,8.48,4.33,2.98,6.78,8.15,9.05,12.72,2.41,4.84,4.52,9.69,6.12,14.87,3.14,10.15,4.11,20.89,5.39,31.39.83,6.72,1.29,14.55,7.2,18.75-2.66,2.05-5.2,4.08-8.42,5.29Z"/>
                    <path class="cls-12" d="M274.39,160.72c-1.29-10.49-2.26-21.24-5.39-31.39-1.6-5.17-3.71-10.02-6.12-14.87-2.27-4.56-4.72-9.74-9.05-12.72-6.75-4.64-13.53-7.26-21.13-8.48.03.03.07.07.1.1-2.07-.6-4.34-.74-6.42-1.05-.19-.03-.34.04-.45.16-.06-.11.01-.31.17-.31,1.31.02,2.6.07,3.86.14-10.69-6.41-27.03-2.91-38.1.23-8.07,2.29-16.15,5.68-22.33,11.52-6.63,6.27-12.07,14.7-15.6,23.11-3.41,8.13-4.82,16.73-6.88,25.25-1.52,6.27-3.22,13.59-7.64,18.58-1.8,2.03-3.93,3.93-6.53,4.88-4.35,1.59,1.56,5.68,3.56,7.11,1.32.94,2.65,2.04,4.1,2.77,3.86,1.93,3.95.59,5.25-2.73.82-2.07,1.48-4.2,2.34-6.24.13-.99.27-1.95.41-2.85-.02,2.35.04,4.7.26,7.03.11,4.21,1.13,8.12,5.13,9.29,4.5,1.32,9.31,1.6,13.78,2.94-2.08-2.01-3.92-4.24-5.4-6.66-3.95-6.46-4.14-12.89-3.21-19.74-1.55,1.19-4.1.28-5.35-1.62-2.15-3.29-2.69-8.07-1.63-11.86.98-3.48,2.5-6.21,6.39-6.24,1.7-.01,2.7,1.16,3.28,2.62.4-3.01.8-6.03,1.31-9.02-.94.32-1.86.67-2.74,1.09,0,0,0,0,0,0-.15.06-.29.11-.44.17-.25.1-.46.09-.65.04-.01,0-.02-.02-.03-.03-.16-.15-.31-.3-.47-.46-2.48-5.4-.61-12.85,2.17-17.83,2.86-5.14,6.69-8.58,11.12-11.39-.05.05-.1.09-.15.13-.88.81-1.68,1.7-2.45,2.62-1.99,1.58-3.75,3.37-5.11,5.48-3.73,5.79-6.73,13.87-4.3,20.5.95-.52,1.98-.96,3.06-1.39.06-.02.12-.05.19-.08,0-.01,0-.02,0-.03.49-.14.97-.31,1.42-.54,0,0,0,0,0,0,.12-.05.25-.1.37-.15.42-.14.85-.27,1.27-.41.12-.04.2-.12.26-.2,3.69-1.49,7.37-2.97,11.23-4.06.43-.12.87-.23,1.3-.34-.97-7.51,3.75-15.85,9.23-20.45-.36.7-.64,1.44-.87,2.19-3.55,4.87-4.46,11.18-3.32,17.03,5.99-1.3,12.06-2.07,18.19-2.33-1.15-7.36-.41-16.3,2.48-22.62.04-.09.11-.16.18-.21-.15,1.29.11,2.63.4,3.91-.05,6.37.83,12.71,2.69,18.81,7.53-.02,15.23-.14,22.8.32-.76-6.89-1.55-14.53-6.18-19.72-.11-.12-.12-.29-.06-.44,1.07.82,2.29,1.32,3.52,1.81,5.51,4.84,8.69,11.69,9.5,18.94.02,0,.04,0,.05,0,2.91.34,6.06.61,9.12,1.14-.14-3.71-.48-7.29-1.75-10.86-.18-.22-.25-.4-.22-.57-.14-.36-.26-.72-.42-1.08-.15-.34.4-.75.58-.36,1.38,3.05,3.3,5.8,4.38,8.99.5,1.47.79,3.06.96,4.66.96.26,1.9.56,2.79.92.28.11.55.24.82.37.91.62,1.93,1.01,2.96,1.38,0,.02,0,.05.01.07,1.38.73,2.75,1.48,4.16,2.15.84-6.37-1.15-13.23-3.87-18.93-2.41-5.08-5.88-8.15-10.62-10.52,6.83,5.93,11.12,15.68,12.11,24.4l-6.1-2.03s-4.97-14.01-11.75-17.85c3.16,4.97,4.29,15.81,4.29,15.81l-6.1-.68s-1.81-17.17-17.4-21.24c3.61,4.52,6.1,19.43,6.1,19.43l-18.53.9s-3.84-18.75-3.62-24.17c0,0-6.78,12.88-6.1,23.95-9.71,1.13-13.33,1.81-13.33,1.81,0,0-1.13-8.59,4.52-17.62-7.23.23-12.88,11.97-13.1,20.33-8.13,1.81-16.27,5.2-16.27,5.2,0,0-1.81-16.04,16.04-27.11-9.71,1.36-22.14,12.88-21.91,32.31.23,4.97-8.36-12.43,10.39-31.86,11.97-11.3,34.79-21.69,54.9-18.53,5.42,1.13-5.87.23-9.94,2.03s19.65-2.71,35.02,5.2,23.04,27.56,24.4,43.6c.23,3.84-5.87-34.79-26.66-36.15.87.55,1.7,1.17,2.5,1.83.64.09,1.27.21,1.89.39,5.17,2.26,8.95,5.55,11.33,11.16,2.25,5.31,3.98,11.52,2.94,17.32-.25.76-.52,1.51-.79,2.26-.34-.16-.68-.3-1.04-.41-1.11-.5-2.2-1.09-3.29-1.69.15,1.25.28,2.5.36,3.75.07.96.13,1.92.2,2.88,5.62-3.6,8.45,3.97,8.06,8.83-.2,2.44-4.16,12.64-7.83,10.63-.51,5-1.76,9.79-3.13,14.63-.43.91-.89,1.81-1.35,2.72,0-.02,0-.03,0-.05,0-.04.01-.07.02-.11-1.14,2.58-2.52,5.01-4.2,7.15-.09.11-.19.22-.29.33,2.79,2.16,9.76.48,13.06-.11,1.26-.22,2.52-.48,3.77-.77-2.11-4.32-2.52-10.02-2.34-14.58.01-.3.55-.62.68-.23,1.58,4.92,2,9.78,6.09,13.45.05.05.07.11.08.17.94-.29,1.86-.6,2.77-.94,3.22-1.21,5.76-3.24,8.42-5.29-5.92-4.2-6.38-12.03-7.2-18.75Z"/>
                    <g class="cls-13">
                      <path class="cls-5" d="M268.3,179.03c-3.95-7.9-1.1-17.13-3.51-13.61-2.41,3.51-2.41,12.96-3.07,9.44-.66-3.51-.66-10.32,3.73-16.25s5.49-13.17,5.49-13.17l2.8,9.89c-1.04-8.75-2.15-17.58-4.75-25.99-1.6-5.17-3.71-10.02-6.12-14.87-2.27-4.56-4.72-9.74-9.05-12.72-6.75-4.64-13.53-7.26-21.13-8.48.03.03.07.07.1.1-2.07-.6-4.34-.74-6.42-1.05-.19-.03-.34.04-.45.16-.06-.11.01-.31.17-.31,1.31.02,2.6.07,3.86.14-10.69-6.41-27.03-2.91-38.1.23-8.07,2.29-16.15,5.68-22.33,11.52-6.63,6.27-12.07,14.7-15.6,23.11-3.41,8.13-4.82,16.73-6.88,25.25-.91,3.76-1.89,7.9-3.49,11.69,1.41-2.61,4.83-9.42,5.35-15.01.66-7.06,1.77,3.75,1.1,12.8-.66,9.05,2.43,11.7,2.43,6.62s.22.44,3.75,10.15c3.53,9.71,0,9.93-2.87,9.05-2.87-.88-4.41-12.14-4.85-15.89-.44-3.75-2.87,10.59-7.94,10.15-3.5-.3-7.22-2.71-9.11-4.98-.8,1.91,3.4,4.82,5.02,5.98,1.32.94,2.65,2.04,4.1,2.77,3.86,1.93,3.95.59,5.25-2.73.82-2.07,1.48-4.2,2.34-6.24.13-.99.27-1.95.41-2.85-.02,2.35.04,4.7.26,7.03.11,4.21,1.13,8.12,5.13,9.29,4.5,1.32,9.31,1.6,13.78,2.94-2.08-2.01-3.92-4.24-5.4-6.66-3.95-6.46-4.14-12.89-3.21-19.74-1.55,1.19-4.1.28-5.35-1.62-2.15-3.29-2.69-8.07-1.63-11.86.98-3.48,2.5-6.21,6.39-6.24,1.7-.01,2.7,1.16,3.28,2.62.4-3.01.8-6.03,1.31-9.02-.94.32-1.86.67-2.74,1.09,0,0,0,0,0,0-.15.06-.29.11-.44.17-.25.1-.46.09-.65.04-.01,0-.02-.02-.03-.03-.16-.15-.31-.3-.47-.46-2.48-5.4-.61-12.85,2.17-17.83,2.86-5.14,6.69-8.58,11.12-11.39-.05.05-.1.09-.15.13-.88.81-1.68,1.7-2.45,2.62-1.99,1.58-3.75,3.37-5.11,5.48-3.73,5.79-6.73,13.87-4.3,20.5.95-.52,1.98-.96,3.06-1.39.06-.02.12-.05.19-.08,0-.01,0-.02,0-.03.49-.14.97-.31,1.42-.54,0,0,0,0,0,0,.12-.05.25-.1.37-.15.42-.14.85-.27,1.27-.41.12-.04.2-.12.26-.2,3.69-1.49,7.37-2.97,11.23-4.06.43-.12.87-.23,1.3-.34-.97-7.51,3.75-15.85,9.23-20.45-.36.7-.64,1.44-.87,2.19-3.55,4.87-4.46,11.18-3.32,17.03,5.99-1.3,12.06-2.07,18.19-2.33-1.15-7.36-.41-16.3,2.48-22.62.04-.09.11-.16.18-.21-.15,1.29.11,2.63.4,3.91-.05,6.37.83,12.71,2.69,18.81,7.53-.02,15.23-.14,22.8.32-.76-6.89-1.55-14.53-6.18-19.72-.11-.12-.12-.29-.06-.44,1.07.82,2.29,1.32,3.52,1.81,5.51,4.84,8.69,11.69,9.5,18.94.02,0,.04,0,.05,0,2.91.34,6.06.61,9.12,1.14-.14-3.71-.48-7.29-1.75-10.86-.18-.22-.25-.4-.22-.57-.14-.36-.26-.72-.42-1.08-.15-.34.4-.75.58-.36,1.38,3.05,3.3,5.8,4.38,8.99.5,1.47.79,3.06.96,4.66.96.26,1.9.56,2.79.92.28.11.55.24.82.37.91.62,1.93,1.01,2.96,1.38,0,.02,0,.05.01.07,1.38.73,2.75,1.48,4.16,2.15.84-6.37-1.15-13.23-3.87-18.93-2.41-5.08-5.88-8.15-10.62-10.52,6.83,5.93,11.12,15.68,12.11,24.4l-6.1-2.03s-4.97-14.01-11.75-17.85c3.16,4.97,4.29,15.81,4.29,15.81l-6.1-.68s-1.81-17.17-17.4-21.24c3.61,4.52,6.1,19.43,6.1,19.43l-18.53.9s-3.84-18.75-3.62-24.17c0,0-6.78,12.88-6.1,23.95-9.71,1.13-13.33,1.81-13.33,1.81,0,0-1.13-8.59,4.52-17.62-7.23.23-12.88,11.97-13.1,20.33-8.13,1.81-16.27,5.2-16.27,5.2,0,0-1.81-16.04,16.04-27.11-9.71,1.36-22.14,12.88-21.91,32.31.23,4.97-8.36-12.43,10.39-31.86,11.97-11.3,34.79-21.69,54.9-18.53,5.42,1.13-5.87.23-9.94,2.03s19.65-2.71,35.02,5.2,23.04,27.56,24.4,43.6c.23,3.84-5.87-34.79-26.66-36.15.87.55,1.7,1.17,2.5,1.83.64.09,1.27.21,1.89.39,5.17,2.26,8.95,5.55,11.33,11.16,2.25,5.31,3.98,11.52,2.94,17.32-.25.76-.52,1.51-.79,2.26-.34-.16-.68-.3-1.04-.41-1.11-.5-2.2-1.09-3.29-1.69.15,1.25.28,2.5.36,3.75.07.96.13,1.92.2,2.88,5.62-3.6,8.45,3.97,8.06,8.83-.2,2.44-4.16,12.64-7.83,10.63-.51,5-1.76,9.79-3.13,14.63-.43.91-.89,1.81-1.35,2.72,0-.02,0-.03,0-.05,0-.04.01-.07.02-.11-1.14,2.58-2.52,5.01-4.2,7.15-.09.11-.19.22-.29.33,2.79,2.16,9.76.48,13.06-.11,1.26-.22,2.52-.48,3.77-.77-2.11-4.32-2.52-10.02-2.34-14.58.01-.3.55-.62.68-.23,1.58,4.92,2,9.78,6.09,13.45.05.05.07.11.08.17.94-.29,1.86-.6,2.77-.94,3.22-1.21,5.76-3.24,8.42-5.29-.3-.21-.57-.44-.84-.67-4.05,2.71-9.69,5.74-12.44.23Z"/>
                    </g>
                    <path class="cls-28" d="M258.26,154.68c.11-.41.21-.81.33-1.15.26-.73.57-1.52,1.07-2.13.62-.75,1.4-.08,1.9.46.28.31.74-.21.51-.51-1.49-1.94-2.85-1.16-3.87.4-.08-2.33-.21-4.66-.36-6.99,5.21-3.32,6.52,4,6.4,7.77-.12,3.65-2.49,8.34-6.14,9.15.03-.46.08-.91.1-1.37.08-1.88.08-3.77.06-5.65Z"/>
                    <g class="cls-8">
                      <path class="cls-28" d="M255.52,141.43c-.11-1.86-.26-3.71-.46-5.55-.71-.34-1.44-.66-2.19-.91-.17-.05-.34-.09-.51-.15-.75-.47-1.61-.79-2.48-.79-.12-.75-.27-1.5-.47-2.24-.44-2.48-1.01-4.9-2.34-7.28-.19-.33-.37-.66-.56-.99.59,2.72.92,5.32.97,7.99-.03.06-.04.14-.04.22.03.34.07.67.11,1-.04.3-.11.61-.16.91-.14-.01-.29-.03-.43-.03v-.09c-2.61-.48-5.26-.79-7.84-1.04,0,0-.02,0-.03,0-.71-.29-1.45-.46-2.17-.7-.03-.53-.11-1.06-.29-1.54-1.07-6.58-3.71-13.07-8.81-17.36,3.01,4.92,3.36,11.82,3.73,17.61,0,0,0,0,0,0v1.62c-.13,0-.27,0-.4.02,0-.04,0-.08-.02-.12-6.82-.22-13.7-.01-20.49.1-1.09-.15-2.19-.42-3.24-.21-.15-.44-.32-.87-.5-1.3-.05-.16-.11-.31-.17-.46,0,0,0,0,.01,0-.34-1.38-.61-2.74-.9-3.85-1.08-4.09-1.48-8.28-1.47-12.51,0-1.47.94-8.8-.24-1.76-.35,2.1-.71,4.22-.95,6.34-.42,3.65-.69,7.35-.4,11.01-.09.99.08,2,.39,2.96-.13.01-.26.02-.39.04,0,0,0,0,0,0-5.46.26-10.88.75-16.28,1.71-.94,0-1.88.05-2.76.36-.07-.26-.14-.52-.22-.78-.08-.25-.17-.55-.28-.85,0,0,0,0,.01,0-1.09-5.23.34-11.05,2.57-15.75.07-.14.14-.28.22-.41-1.27,1.4-2.42,2.91-3.27,4.6-1.84,3.7-3.23,7.85-3.09,11.95-.12.7-.05,1.49.14,2.24-.12.05-.23.11-.32.18h0c-4.01,1.02-7.96,2.23-11.87,3.61-1.01.36-2.05.68-3.09,1.01-.94,6.76-1.31,13.59-2.56,20.32-1.86,9.94-3.17,19.56,4.63,27.43,5.02,5.07,11.27,8.99,18.06,11.24,13.85,4.58,29.51,4.47,43.33-.33,8.31-2.89,17.01-7.15,21.64-15,2.85-4.83,4.22-9.99,5.46-15.24.87-9,.93-17.94.39-27.21ZM242.31,143.57c-2.17,5-2.67,10.33-1.33,18.5s.83,13.33-3.17,19-7,20.5-31.5,20.5c-11.5.83-22-5.83-23-12.67-1-6.83-8.67-13.83-6.33-21.17s3.5-12,2-13.5c1-3.67,0-7.33-2.17-8.33s-1.17-2.83.67-4.5c0,0,3.67-2.83,5-.5,1.33,2.33,3.83-2.5,11-.67,4.33,1.33,2.83-1.83,2.33-3s9.5-1.33,9.5-1.33l-1.33-10.83s2.33,9.17,4.33,11.17c16,.5,17.17.33,17.17.33,0,0-2.17,2.67-.33,4s7.5-3.67,11.17-1.33,2.17-2,2-2.83c-.17-.83,6.17,2.17,4,7.17Z"/>
                    </g>
                  </g>
                  <path class="cls-34" d="M193.74,144.6c-1.77-.11-3.38,2.68-3.6,6.22-.21,3.55,1.05,6.51,2.82,6.62,1.77.11,3.39-2.68,3.6-6.22.22-3.54-1.05-6.51-2.82-6.62Z"/>
                  <path class="cls-10" d="M193.78,143.88c-1.97-.12-3.76,2.98-4.01,6.92-.24,3.95,1.16,7.24,3.13,7.36,1.97.12,3.77-2.98,4.01-6.92.24-3.94-1.17-7.24-3.13-7.36Z"/>
                  <path class="cls-29" d="M195.86,149.37c-.07,1.12-.58,2-1.14,1.97-.56-.03-.96-.97-.89-2.09.07-1.12.58-2,1.14-1.97.56.03.96.97.89,2.1Z"/>
                  <path class="cls-34" d="M234.51,142.59c-1.77-.15-3.45,2.59-3.76,6.13-.3,3.54.88,6.53,2.65,6.69,1.77.15,3.45-2.59,3.76-6.13.31-3.54-.88-6.53-2.65-6.69Z"/>
                  <path class="cls-10" d="M234.56,141.96c-1.95-.17-3.79,2.85-4.13,6.73-.33,3.89.97,7.17,2.91,7.34,1.94.17,3.79-2.85,4.13-6.73.34-3.88-.97-7.17-2.91-7.34Z"/>
                  <path class="cls-29" d="M236.51,147.41c-.1,1.12-.63,1.99-1.19,1.94-.56-.05-.93-.99-.84-2.12.1-1.12.63-1.99,1.19-1.94.56.05.94,1,.84,2.12Z"/>
                  <path class="cls-34" d="M235.51,136.47c-.83-1.8-2.73-2.76-4.69-2.22-2.38.65-3.84,2.54-5.28,4.4-.46.6.21,1.59.9,1.07,1.11-.83,2.31-1.45,3.48-2.19,1.7-1.07,3.2-1.64,4.99-.46.34.22.75-.28.6-.6Z"/>
                  <path class="cls-34" d="M194.36,138.79c-1.22-2.34-3.32-4.02-6.09-3.23-1.58.45-3.71,1.87-4.58,3.35-.19.32-.18.87.27.97.93.2,1.94-.46,2.75-.85,2.28-1.09,4.81-.55,7.03.4.35.15.83-.25.63-.64Z"/>
                  <path class="cls-34" d="M212.7,177.38c-3.91.74-8.08,2.58-11.43-.58-1.64-1.55-1.27-3.91-.39-5.7,1.39-2.85,4.1-1.66,6.13-.36.2.13.48-.22.31-.39-.75-.72-1.62-1.49-2.58-1.96,2.2-1.38,2.09-4.66,1.89-7.09-.02-.2-.31-.11-.31.06,0,1.38.06,2.79-.34,4.13-.36,1.19-1.34,1.83-2.25,2.55-.68-.14-1.39-.07-2.11.34-1.75,1-2.99,3.99-2.86,5.94.53,7.92,9.29,8.58,14.15,3.87.22-.22.25-.9-.22-.81Z"/>
                  <path class="cls-34" d="M179,164.24c-.14.02-.19.25-.03.25,5.54.13,6.62,6.77,8.04,10.9.13.37.63.08.65-.21.23-4.81-3.03-11.61-8.65-10.94Z"/>
                  <path class="cls-34" d="M232.8,164.74c-4.77,1.36-7.55,6.04-7.28,10.89.02.41.54.17.59-.11.73-4.43,2.38-8.55,6.72-10.53.12-.06.14-.29-.03-.24Z"/>
                  <path class="cls-34" d="M207.27,191.39c-1.4.37-2.47,1.95-2.88,3.35-.19.43-.33.87-.35,1.37-.04.93.72,1.9,1.61,2.16,2.2.63,3.66-1.18,3.99-3.14.24-1.38-.42-4.25-2.38-3.73Z"/>
                  <path class="cls-10" d="M207.35,190.61c-1.72.46-3.02,2.39-3.52,4.09-.23.52-.4,1.07-.42,1.67-.04,1.13.89,2.33,1.97,2.64,2.69.77,4.48-1.44,4.89-3.84.29-1.69-.52-5.2-2.92-4.56Z"/>
                  <path class="cls-29" d="M206.94,197.17c-.87.27-1.91-.37-2.14-1.22-.06-.21-.06-.43-.02-.66.03-.03.04-.06.06-.1.29-.95.96-1.85,1.76-2.44,1.12-.82,1.82.38,1.96,1.42.17,1.25-.36,2.61-1.62,3Z"/>
                </g>
                <g>
                  <path class="cls-34" d="M273.12,241.16c-5.11-17.11-14.14-33.21-24.48-47.69,3.74-3.65,9.72-7.03,11.44-11.9,1.73-4.89.52-11.56-1.03-16.35-.06-.2-.26-.14-.37,0-.66-3.53-1.36-7.02-2.72-10.4-1.61-4.02-3.89-4.92-7.64-6.37-1.52-1.09-3.13-1.49-4.4-.07-.56.08-1.09.38-1.38.85-1.01,1.61-.36,3.49.5,5.2-.88.47-1.12,2.1-1.08,2.9.33,6.6,4.91,14.27,1.58,20.59-.04.07-.03.14,0,.2-1.07,1.66-1.96,3.4-2.81,5.19-.84,1.76-2.3,3.9-2.19,5.95.14,2.69,1.63,6.1,4.67,6.1,4.94,14.36,8.32,30.52,15.36,44.36-1.65.25-3.23,1.66-4.31,2.79-1.34,1.41-2.21,3.3-2.34,5.23-.03.37.42.26.48-.03.22-1.13.68-2.13,1.29-3.06,3.31,5.97,6.52,14.22,14.72,13.72.08,0,.15-.04.23-.07,1.29.11,2.57-.09,3.8-.84,4.62-2.78,1.79-12.59.68-16.28Z"/>
                  <path class="cls-28" d="M270.44,256.13c-2.02,1.91-6.99-.27-8.82-1.35-2.06-1.22-3.07-3.71-4.49-5.55-1.19-1.54-2.6-3.22-3.06-5.15.33-.44.68-.87,1.06-1.27,1.09-1.17,2.41-1.75,3.72-2.52,1.89,3.64,4.02,7.13,6.53,10.36.25.32.74-.16.58-.46-4.63-8.65-8.78-17.28-12.1-26.52-3.4-9.47-6.38-19.06-10.29-28.34.07,0,.14,0,.21-.01.15-.02.25-.15.28-.28-1.69-.16-3.25-.94-3.7-2.75-.05-.21-.1-.43-.13-.67-.95-2.35-.36-5.03.84-7.17,0-.01.02-.02.03-.03,1.11-2.59,2.37-5.09,3.75-7.56.06-.11.03-.19-.02-.25,2.19-4.44-.47-10.61-1.37-15.04-.2-1.07-.33-2.14-.39-3.23-.29-1.02.35-1.49,1.92-1.39,1.15,1.92,1.03,4.56,1.61,6.71,1.3,4.86,2.99,8.77,1.8,13.9-.1.44.45.55.58.14,1.54-5.06.35-8.05-1.27-12.98-.67-2.05-.57-9.59-3.83-10.38-.04,0-.08-.01-.11-.02-.46-1.34.09-2.65,1.68-3.94,1.82,1.89,2.83,5.56,4.06,7.91,2.43,4.64,3.56,9.42,3.96,14.62,0,.13.19.07.19-.04.12-4.84-.13-8.23-2.04-12.7-1.57-3.68-3.4-8.47-6.23-11.35-.17-.17-.37-.28-.59-.36,4-1.71,9,9.85,9.7,11.96,1.44,4.32,2.11,8.92,3.06,13.36.04.17.25.06.23-.08-.81-6.98-1.52-13.91-5.08-20.12-.46-.81-1.24-1.95-2.18-3.04.78.38,1.54.8,2.23,1.42,1.26,1.14,1.89,2.95,2.51,4.48,1.52,3.77,2.42,7.76,3.76,11.6.99,5.06,2.28,11.16-.97,15.16-2.56,3.15-5.84,5.63-8.7,8.47-.52.8-.99,1.63-1.42,2.48.09-.1.18-.2.28-.3,6.63,11.14,13.04,22.47,18.2,34.37,2.53,5.84,5.29,11.91,6.8,18.1.88,3.6.26,8.36-2.8,9.81Z"/>
                  <path class="cls-34" d="M147.95,257.44c1.23.74,2.52.95,3.8.84.07.03.15.06.23.07,8.2.5,11.42-7.75,14.72-13.72.61.93,1.06,1.93,1.29,3.06.06.29.5.39.48.03-.13-1.93-.99-3.83-2.34-5.23-1.07-1.12-2.65-2.53-4.31-2.79,7.03-13.84,10.42-30,15.36-44.36,3.04,0,4.53-3.4,4.68-6.1.11-2.05-1.36-4.19-2.19-5.95-.85-1.79-1.75-3.54-2.81-5.19.03-.06.04-.13,0-.2-3.32-6.32,1.26-13.98,1.58-20.59.04-.8-.2-2.43-1.08-2.9.85-1.71,1.5-3.59.5-5.2-.29-.46-.82-.77-1.38-.85-1.28-1.41-2.88-1.02-4.41.07-3.75,1.45-6.02,2.35-7.64,6.37-1.36,3.39-2.06,6.87-2.72,10.4-.12-.13-.31-.19-.37,0-1.54,4.79-2.76,11.46-1.03,16.35,1.72,4.86,7.7,8.25,11.44,11.9-10.35,14.48-19.38,30.58-24.49,47.69-1.1,3.7-3.94,13.5.69,16.28Z"/>
                  <path class="cls-28" d="M147.14,246.32c1.51-6.19,4.28-12.26,6.81-18.1,5.15-11.9,11.57-23.23,18.19-34.37.1.1.19.2.28.3-.43-.85-.9-1.68-1.42-2.48-2.86-2.84-6.14-5.31-8.7-8.47-3.25-4-1.96-10.11-.97-15.16,1.34-3.84,2.24-7.83,3.76-11.6.62-1.54,1.25-3.35,2.51-4.48.69-.62,1.45-1.03,2.23-1.42-.93,1.08-1.71,2.22-2.18,3.04-3.56,6.21-4.27,13.14-5.08,20.12-.02.14.2.24.23.08.96-4.44,1.62-9.04,3.06-13.36.71-2.11,5.71-13.67,9.71-11.96-.22.08-.42.19-.59.36-2.83,2.88-4.65,7.67-6.22,11.35-1.91,4.47-2.17,7.86-2.04,12.7,0,.1.18.16.19.04.4-5.2,1.53-9.98,3.96-14.62,1.23-2.35,2.24-6.02,4.06-7.91,1.59,1.29,2.14,2.6,1.68,3.94-.04,0-.07,0-.11.02-3.26.79-3.16,8.34-3.83,10.38-1.62,4.93-2.8,7.92-1.27,12.98.12.41.68.3.58-.14-1.19-5.13.49-9.04,1.79-13.9.57-2.14.45-4.79,1.61-6.71,1.58-.1,2.22.36,1.92,1.39-.06,1.08-.19,2.16-.39,3.23-.89,4.43-3.56,10.6-1.37,15.04-.06.05-.08.14-.02.25,1.39,2.47,2.64,4.97,3.75,7.56,0,.01.02.02.02.03,1.19,2.14,1.78,4.82.84,7.17-.04.24-.08.46-.13.67-.45,1.81-2.01,2.58-3.7,2.75.03.13.13.26.28.28.07.01.14,0,.21.01-3.91,9.28-6.89,18.87-10.29,28.34-3.32,9.24-7.47,17.88-12.1,26.52-.16.31.33.78.58.46,2.51-3.23,4.64-6.72,6.53-10.36,1.31.77,2.63,1.36,3.72,2.52.38.41.74.83,1.06,1.27-.46,1.93-1.88,3.62-3.06,5.15-1.42,1.84-2.43,4.33-4.49,5.55-1.83,1.08-6.8,3.26-8.82,1.35-3.06-1.44-3.68-6.2-2.8-9.81Z"/>
                </g>
              </g>
            </g>
            <path class="cls-29" d="M66.76,196.93c-6.48-.27,50.75-1.09,49.81-1.91-.94-.82-87.58-.33-87.58-.33,3.06,4.47,0,9.77,0,9.77,0,0,5.65.06,22.47.12,61,.22,24.83-.94,8.24-1.06-16.59-.12-25.53-1.06-19.18-1.18,6.35-.12,8.59-.59,3.65-.59s-6.94-.82-3.18-.82,13.3-.52,5.77-.71c-4.52-.11-1.63-.95,6.59-1.05,8.22-.09,8.97-.75,1.49-.93-7.47-.19,0-.56,7.29-.56s13.56-.39,4.63-.75Z"/>
            <path class="cls-29" d="M11.97,208.22s.64.55.74,2.3c12.62-.09,11.43,0,6.08.46-5.34.46-5.71.28-5.71.28,0,0,.46,4.7-1.11,6.45,15.3.46,53.63.74,54-.18.37-.92-39.81-1.01-39.81-1.01l5.9-1.11-5.71-.64,9.21-.83-10.78-1.11,15.94-.55-5.71-1.29,18.25.09-4.98-1.47,30.69-.37-66.99-1.01Z"/>
            <path class="cls-29" d="M58.81,240.82l-30.5,2.25,19.37.88-19.62,1.38,71.5,2.12-71.5,1.75,72.37,1.88-74.5,1.88s2.5-13.75-.62-27.62l44.62.38-10.12.88,6,.88-28.25,1.88,12,.88-12,.38,7.25,1.12-8.87,1.38,78.87.75-.12,5-55.87,2Z"/>
            <path class="cls-29" d="M316.98,217.32c2-4.25-.75-9.25-.75-9.25,0,0,67.25.42,70.5.5s-38.5,1.75-38.5,1.75l10.67.67-29.58,1.75,18.08,1.17-20.17,1,10.67.42-13.17,1.75,60.58.17-68.92,1.08.58-1Z"/>
            <path class="cls-29" d="M317.76,225.02l49.87.46-13.86,1.67,7.35.47-29.31,1.67,23.63,1.02-25.87.47,10.42,1.02-7.63.74,69.77,1.59v3.99l-55.83,1.07,5.06,1.23-21.37,1.03,6.16.83-14.88.53,19.46,1.2-19.39.83,66.63,2.22-66.5,2.17,67.67,2.5-70.67,1.75s2.97-15.26-.72-28.46Z"/>
            <g>
              <path class="cls-14" d="M239.07,167.65c1.29,1.67.07,4.77-2.72,6.93-2.79,2.16-6.1,2.57-7.39.9-1.29-1.66-.07-4.77,2.72-6.93,2.79-2.16,6.09-2.56,7.38-.9Z"/>
              <path class="cls-34" d="M232.59,170.17c-.24-.16-.57-.03-.67.24-.41,1.16-.64,2.46-.56,3.69.05.78,1.07.75,1.03-.03-.04-1.11.34-2.13.45-3.22.02-.25-.02-.51-.25-.66Z"/>
              <path class="cls-34" d="M234.36,168.76c-.27,1.08-.51,2.16-.66,3.27-.1.77.94,1.18,1.08.32.18-1.17.55-2.28.46-3.47-.04-.57-.72-.7-.87-.11Z"/>
              <g class="cls-20">
                <path class="cls-16" d="M234.56,165.26c-1.76-.31-3.41,1.48-4.47,2.65-1.56,1.7-1.76,3.39-2.37,5.53-.06.19.22.45.33.22.74-1.57,1.21-3.07,2.42-4.37,1.28-1.38,2.55-2.22,4.29-2.89.5-.19.28-1.05-.19-1.13Z"/>
                <path class="cls-16" d="M236.31,164.89c.26.22.64.2.87-.05.23-.25.2-.64-.05-.87-.25-.23-.64-.2-.87.05-.22.25-.2.64.05.87Z"/>
              </g>
            </g>
            <g>
              <path class="cls-14" d="M175.24,167.82c-1.29,1.67-.07,4.77,2.72,6.93,2.79,2.16,6.1,2.57,7.39.9,1.29-1.66.07-4.77-2.72-6.93-2.79-2.16-6.09-2.56-7.38-.9Z"/>
              <path class="cls-34" d="M181.72,170.34c.24-.16.57-.03.67.24.41,1.16.64,2.46.56,3.69-.05.78-1.07.75-1.03-.03.04-1.11-.34-2.13-.45-3.22-.02-.25.02-.51.25-.67Z"/>
              <path class="cls-34" d="M179.95,168.93c.27,1.08.51,2.16.66,3.27.1.77-.94,1.18-1.08.32-.18-1.17-.55-2.28-.46-3.47.04-.57.72-.7.87-.11Z"/>
              <g class="cls-20">
                <path class="cls-16" d="M179.76,165.43c1.76-.31,3.41,1.48,4.47,2.65,1.56,1.7,1.76,3.39,2.37,5.53.06.19-.22.45-.33.22-.74-1.57-1.21-3.07-2.42-4.37-1.28-1.38-2.55-2.22-4.29-2.89-.5-.19-.28-1.05.19-1.13Z"/>
                <path class="cls-16" d="M178,165.06c-.26.22-.64.2-.87-.05-.23-.25-.2-.64.05-.87.25-.23.64-.2.87.05.22.25.2.64-.05.87Z"/>
              </g>
            </g>
            <path class="cls-10" d="M201.12,170.55s-2.01,4.12,5.02,4.79,9.36-4.24,11.04-2.79c1.67,1.45-4.68,7.8-10.37,7.58-5.68-.22-9.36-5.8-5.68-9.59Z"/>
            <path class="cls-16" d="M207.62,159.11s.77,6.49-1.55,8.35c-1.86,1.55,1.24,2.16,2.32-1.86,1.08-4.02-.62-9.58-.77-6.49Z"/>
            <path class="cls-16" d="M206.31,172.31c-.22.87-1.46,1.31-2.79.98-1.33-.33-2.23-1.3-2.01-2.17.22-.87,1.46-1.31,2.79-.98,1.33.33,2.23,1.3,2.01,2.17Z"/>
            <path class="cls-15" d="M250,110.6l-3.84-1.92c-.21-.11-.42-.22-.65-.32l-2.66-1.23,2.91.28c.1,0,.21.03.31.04l.31.04.31.25c.11.09.22.18.33.27l2.97,2.58Z"/>
            <g>
              <g>
                <path class="cls-1" d="M250.32,159.94c-.89-2.66-1.99-5.25-3.34-7.29.95,1.84,1.69,4.03,2.53,5.62.29.55.56,1.11.81,1.66Z"/>
                <path class="cls-1" d="M257.81,173.7c-.08-.67-.15-1.34-.23-2-.44-2.04-1.29-5.92-2.67-10.01,1.17,3.94,1.8,8.08,2.67,12.09.04.17.25.06.23-.08Z"/>
                <path class="cls-1" d="M253.66,172.87c-.09-.29-.19-.69-.3-1.19.04.4.09.81.12,1.22,0,.12.17.07.19-.02Z"/>
                <path class="cls-1" d="M253.65,187.72c-.24.22-.48.44-.72.65.25-.22.49-.43.72-.65Z"/>
                <path class="cls-1" d="M245,156.93c1.15,1.92,1.03,4.56,1.61,6.71,1.3,4.86,2.99,8.77,1.8,13.9-.06.26.11.4.29.39.15-1.42.58-6.55-.63-10.11-1.42-4.17-2.17-11.5-3.5-11.5-.37,0-.59.24-.69.67.3-.07.67-.09,1.13-.06Z"/>
                <path class="cls-1" d="M249.32,150.77c1.64,2.02,3.13,4.86,4.1,6.99-1.12-2.62-2.48-5.1-4.1-6.99Z"/>
                <path class="cls-10" d="M253.65,187.72c1.56-1.42,3.09-2.88,4.43-4.52.29-.35.53-.73.75-1.12-.41.45-.8.91-1.14,1.36-.77,1.02-2.27,2.65-4.04,4.28Z"/>
                <path class="cls-10" d="M250.32,159.94c1.53,4.56,2.47,9.29,3.03,11.74-.42-4.12-1.33-7.99-3.03-11.74Z"/>
                <path class="cls-10" d="M254.51,160.41c-.16-.48-.55-1.46-1.09-2.65.55,1.29,1.05,2.62,1.49,3.93-.13-.43-.25-.85-.4-1.28Z"/>
                <path class="cls-10" d="M257.96,173.02c-.21-4.81-1.78-13.08-3.3-16.69-1.06-2.53-1.76-3.75-1.77-4.25-.04-.04-.07-.08-.11-.12-.69-.62-1.45-1.03-2.23-1.42.93,1.08,1.71,2.22,2.18,3.04,3.22,5.61,4.11,11.82,4.84,18.12.26,1.22.38,1.78.38,1.32Z"/>
                <path class="cls-10" d="M253.98,173.24c1-7.58-3.79-18.1-5.42-20.85s-1.69-4-.12-2.56c.3.29.59.62.88.95-1.47-1.8-3.05-2.94-4.51-2.32.22.08.42.19.59.36,2.83,2.88,4.66,7.67,6.23,11.35,1.91,4.47,2.16,7.86,2.04,12.7,0,0,0,0,0,.01.14.47.25.62.32.37Z"/>
                <path class="cls-10" d="M251.06,171.9c-.42-5.25-3.42-13.75-4.92-16.42-1.5-2.67-1.33-5.17.5-3.33.11.16.22.33.33.5-.45-.88-.95-1.68-1.54-2.29-1.59,1.29-2.14,2.6-1.68,3.94.04,0,.07,0,.11.02,3.26.79,3.16,8.34,3.83,10.38,1.62,4.93,2.8,7.92,1.27,12.98-.05.16-.17.24-.29.25-.03.24-.04.39-.04.39,0,0,2.67-1.58,2.42-6.42Z"/>
              </g>
              <path class="cls-10" d="M262.31,236.82c-10.5-21.62-15.5-41-14.25-41.25.44-.09,1.35.8,2.36,1.98-.72-1.23-1.45-2.47-2.18-3.69-.1.1-.19.2-.28.3.43-.85.9-1.68,1.42-2.48,1.14-1.13,2.35-2.21,3.55-3.29-3.56,3.14-7.94,6.01-9.99,4.19-3.25-2.88.79-11.25,2.87-14.58,2.08-3.33.17-10.42-.92-14.5-.78-2.95-1.3-5.37-1.03-6.49-.73.16-1,.6-.79,1.33.06,1.08.19,2.16.39,3.23.89,4.43,3.56,10.6,1.37,15.04.05.05.08.14.02.25-1.39,2.47-2.65,4.97-3.75,7.56,0,.01-.02.02-.03.03-1.19,2.14-1.78,4.82-.84,7.17.04.24.08.46.13.67.45,1.81,2.01,2.58,3.7,2.75-.03.13-.13.26-.28.28-.07.01-.14,0-.21.01,3.91,9.28,6.89,18.87,10.29,28.34,3.32,9.24,7.47,17.88,12.1,26.52.16.31-.33.78-.58.46-2.51-3.23-4.64-6.72-6.53-10.36-1.31.77-2.63,1.36-3.72,2.52-.38.41-.74.83-1.06,1.27.46,1.93,1.88,3.62,3.06,5.15,1.42,1.84,2.43,4.33,4.49,5.55,1.83,1.08,6.8,3.26,8.82,1.35,2.31-1.09,3.23-4.07,3.16-7.02-.82,3.89-5.53.37-11.29-12.29Z"/>
              <path class="cls-16" d="M252.06,202.32s12,21.38,18.62,39.12c1.25,4-6-21.62-18.62-39.12Z"/>
              <path class="cls-16" d="M248.92,150.85s5.98,8.5,7.11,19.07c.53,3.72.93-10.16-7.11-19.07Z"/>
              <path class="cls-16" d="M245.37,152.03s5.98,8.5,7.11,19.07c.53,3.72.93-10.16-7.11-19.07Z"/>
              <path class="cls-16" d="M244.75,157.63s3.62,11.38,3.37,19.19c-.12,1.56,1.75-2.06,0-8.38s-2.94-12.25-3.37-10.81Z"/>
              <path class="cls-16" d="M259.3,176.18s.38,4.04-3.27,7.75c-3.65,3.72-3.33,4.16-1.92,3.14,1.41-1.02,4.8-4.29,5.25-7.11.45-2.82.58-6.15-.06-3.78Z"/>
              <path class="cls-10" d="M257.65,242.57c1.5-1.33,3.67,7.5,9.67,10,1.53.45-.5-1.84-3.77-7.01.79,1.54,1.59,3.08,2.41,4.61.16.31-.33.78-.58.46-2.51-3.23-4.64-6.72-6.53-10.36-1.31.77-2.63,1.36-3.72,2.52-.38.41-.74.83-1.06,1.27.15.64.41,1.25.73,1.83.71-1.2,1.66-2.49,2.85-3.33Z"/>
            </g>
            <g>
              <g>
                <path class="cls-1" d="M170.09,159.94c.89-2.66,1.99-5.25,3.34-7.29-.95,1.84-1.69,4.03-2.53,5.62-.29.55-.56,1.11-.81,1.66Z"/>
                <path class="cls-1" d="M162.6,173.7c.08-.67.15-1.34.23-2,.44-2.04,1.29-5.92,2.67-10.01-1.17,3.94-1.8,8.08-2.67,12.09-.04.17-.25.06-.23-.08Z"/>
                <path class="cls-1" d="M166.75,172.87c.09-.29.19-.69.3-1.19-.04.4-.09.81-.12,1.22,0,.12-.17.07-.19-.02Z"/>
                <path class="cls-1" d="M166.75,187.72c.24.22.48.44.72.65-.25-.22-.49-.43-.72-.65Z"/>
                <path class="cls-1" d="M175.4,156.93c-1.15,1.92-1.03,4.56-1.61,6.71-1.3,4.86-2.99,8.77-1.8,13.9.06.26-.11.4-.29.39-.15-1.42-.58-6.55.63-10.11,1.42-4.17,2.17-11.5,3.5-11.5.37,0,.59.24.69.67-.3-.07-.67-.09-1.13-.06Z"/>
                <path class="cls-1" d="M171.09,150.77c-1.64,2.02-3.13,4.86-4.1,6.99,1.12-2.62,2.48-5.1,4.1-6.99Z"/>
                <path class="cls-10" d="M166.75,187.72c-1.56-1.42-3.09-2.88-4.43-4.52-.29-.35-.53-.73-.75-1.12.41.45.8.91,1.14,1.36.77,1.02,2.27,2.65,4.04,4.28Z"/>
                <path class="cls-10" d="M170.09,159.94c-1.53,4.56-2.47,9.29-3.03,11.74.41-4.12,1.33-7.99,3.03-11.74Z"/>
                <path class="cls-10" d="M165.89,160.41c.16-.48.55-1.46,1.09-2.65-.55,1.29-1.05,2.62-1.49,3.93.13-.43.25-.85.4-1.28Z"/>
                <path class="cls-10" d="M162.45,173.02c.21-4.81,1.78-13.08,3.3-16.69,1.06-2.53,1.76-3.75,1.77-4.25.04-.04.07-.08.11-.12.69-.62,1.45-1.03,2.23-1.42-.93,1.08-1.71,2.22-2.18,3.04-3.22,5.61-4.11,11.82-4.84,18.12-.26,1.22-.38,1.78-.38,1.32Z"/>
                <path class="cls-10" d="M166.42,173.24c-1-7.58,3.79-18.1,5.42-20.85s1.69-4,.12-2.56c-.3.29-.59.62-.88.95,1.47-1.8,3.05-2.94,4.51-2.32-.22.08-.42.19-.59.36-2.83,2.88-4.66,7.67-6.23,11.35-1.91,4.47-2.16,7.86-2.04,12.7,0,0,0,0,0,.01-.14.47-.25.62-.32.37Z"/>
                <path class="cls-10" d="M169.34,171.9c.42-5.25,3.42-13.75,4.92-16.42,1.5-2.67,1.33-5.17-.5-3.33-.11.16-.22.33-.33.5.45-.88.95-1.68,1.54-2.29,1.59,1.29,2.14,2.6,1.68,3.94-.04,0-.07,0-.11.02-3.26.79-3.16,8.34-3.83,10.38-1.62,4.93-2.8,7.92-1.27,12.98.05.16.17.24.29.25.03.24.04.39.04.39,0,0-2.67-1.58-2.42-6.42Z"/>
              </g>
              <path class="cls-10" d="M158.09,236.82c10.5-21.62,15.5-41,14.25-41.25-.44-.09-1.35.8-2.36,1.98.72-1.23,1.45-2.47,2.18-3.69.1.1.19.2.28.3-.43-.85-.9-1.68-1.42-2.48-1.14-1.13-2.35-2.21-3.55-3.29,3.56,3.14,7.94,6.01,9.99,4.19,3.25-2.88-.79-11.25-2.87-14.58-2.08-3.33-.17-10.42.92-14.5.78-2.95,1.3-5.37,1.03-6.49.73.16,1,.6.79,1.33-.06,1.08-.19,2.16-.39,3.23-.89,4.43-3.56,10.6-1.37,15.04-.05.05-.08.14-.02.25,1.39,2.47,2.65,4.97,3.75,7.56,0,.01.02.02.03.03,1.19,2.14,1.78,4.82.84,7.17-.04.24-.08.46-.13.67-.45,1.81-2.01,2.58-3.7,2.75.03.13.13.26.28.28.07.01.14,0,.21.01-3.91,9.28-6.89,18.87-10.29,28.34-3.32,9.24-7.47,17.88-12.1,26.52-.16.31.33.78.58.46,2.51-3.23,4.64-6.72,6.53-10.36,1.31.77,2.63,1.36,3.72,2.52.38.41.74.83,1.06,1.27-.46,1.93-1.88,3.62-3.06,5.15-1.42,1.84-2.43,4.33-4.49,5.55-1.83,1.08-6.8,3.26-8.82,1.35-2.31-1.09-3.23-4.07-3.16-7.02.82,3.89,5.53.37,11.29-12.29Z"/>
              <path class="cls-16" d="M168.34,202.32s-12,21.38-18.62,39.12c-1.25,4,6-21.62,18.62-39.12Z"/>
              <path class="cls-16" d="M171.48,150.85s-5.98,8.5-7.11,19.07c-.53,3.72-.93-10.16,7.11-19.07Z"/>
              <path class="cls-16" d="M175.03,152.03s-5.98,8.5-7.11,19.07c-.53,3.72-.93-10.16,7.11-19.07Z"/>
              <path class="cls-16" d="M175.65,157.63s-3.62,11.38-3.37,19.19c.12,1.56-1.75-2.06,0-8.38s2.94-12.25,3.37-10.81Z"/>
              <path class="cls-16" d="M161.11,176.18s-.38,4.04,3.27,7.75c3.65,3.72,3.33,4.16,1.92,3.14-1.41-1.02-4.8-4.29-5.25-7.11-.45-2.82-.58-6.15.06-3.78Z"/>
              <path class="cls-10" d="M162.76,242.57c-1.5-1.33-3.67,7.5-9.67,10-1.53.45.5-1.84,3.77-7.01-.79,1.54-1.59,3.08-2.41,4.61-.16.31.33.78.58.46,2.51-3.23,4.64-6.72,6.53-10.36,1.31.77,2.63,1.36,3.72,2.52.38.41.74.83,1.06,1.27-.15.64-.41,1.25-.73,1.83-.71-1.2-1.66-2.49-2.85-3.33Z"/>
            </g>
            <path class="cls-10" d="M156.3,155.84c.1-.88.31-.96.95-.39.5.44.89,1,1.26,1.55.87,1.31.66,3.09,1.49,4.4-.2,1.04-.39,2.08-.56,3.1-.09.03-.17.08-.25.16-2,2.07-4.6-2.1-5.17-3.36-.99-2.18-.91-4.9-.82-7.22.09-2.45,1.65-5.6,4.3-5.94,2.34-.3,3.52,1.2,4.1,3.02-.34,2.52-.69,5.04-1.12,7.54-.37-1.42-1.02-2.73-2.07-3.82-.47-.48-1.22-1.15-1.96-.95-.86.22-1.06,1.19-1.12,1.96-.06.72.89.56.96-.05Z"/>
            <path class="cls-10" d="M258.26,154.68c.11-.41.21-.81.33-1.15.26-.73.57-1.52,1.07-2.13.62-.75,1.4-.08,1.9.46.28.31.74-.21.51-.51-1.49-1.94-2.85-1.16-3.87.4-.08-2.33-.21-4.66-.36-6.99,5.21-3.32,6.52,4,6.4,7.77-.12,3.65-2.49,8.34-6.14,9.15.03-.46.08-.91.1-1.37.08-1.88.08-3.77.06-5.65Z"/>
            <g class="cls-22">
              <path class="cls-1" d="M248.06,108.35c-.56-.16-1.13-.28-1.71-.36.3.22.61.45.93.69,1.93,1.01,3.64,2.15,5.14,3.52,1,.51,2,.9,2.99,1.16-2.02-2.14-4.46-3.74-7.35-5Z"/>
              <path class="cls-1" d="M247.28,108.68c-.31-.23-.62-.46-.93-.69-.21-.03-.42-.07-.63-.09.54.25,1.05.51,1.56.78Z"/>
              <path class="cls-31" d="M261.97,112.65c-.84-1.67-1.73-3.36-2.74-4.97-3.51,1.88-15.93-5.33-22.12-9.92-8.77-6.51-1.5,8.77-8.52,2-7.01-6.76-14.78-11.77-15.03-2-.18,6.84-3.01,9.27-6.01.25-4.38-13.15-16.03,9.27-13.28,1.75,2.75-7.51-17.28,11.02-14.53,4.01,1.21-3.09-2.42-3.26-6.88-2.49-1.16.86-2.28,1.79-3.33,2.79-1.21,1.14-2.37,2.38-3.49,3.66,5.58-1.9,11.37-3.24,8.7.56-4.76,6.76,3.76,4.51,10.77-1,7.01-5.51,6.51-1,7.52,4.76,1,5.76,7.13-22.14,12.71-9.07,5.58,13.07,9.34,7.56,9.59-.45s11.02-1.25,18.29,5.76c7.26,7.01,7.77,1.5,6.01-2.76-1.4-3.4,2-1.04,6.75,2.47.58.09,1.15.2,1.71.36,2.89,1.26,5.33,2.87,7.35,5,2.44.63,4.78.46,6.55-.71Z"/>
              <path class="cls-31" d="M250.13,110.78c.75.55,1.52,1.01,2.3,1.41-1.5-1.37-3.22-2.51-5.14-3.52.92.68,1.87,1.39,2.85,2.1Z"/>
            </g>
            <g class="cls-4">
              <rect class="cls-2" x="12.65" y="268.15" width="404" height="4.88"/>
            </g>
            <path class="cls-3" d="M76.26,260.35l292.78-.41s-250.48,5.34-292.78.41Z"/>
          </g>
          <path class="cls-6" d="M119.56,250.07c.76-5.86,2.39-11.79,1.72-17.75-.35-3.15-2.15-5.33-3.4-8.12-.26-.59-.44-1.25-.42-1.88-1.11-.6-2.39-.99-3.89-1.1-.03,0-.05.02-.07.02-15.08,1.21-30.52.29-45.65.21-15.09-.08-30.18-.33-45.26-.65-.06.16-.21.28-.38.22-.91-.31-1.52.47-1.53,1.34,0,.44.15.89.48,1.19.3.27.67.35,1.04.43.67.34,1.75.11,2.38-.02h0c14.48-.3,28.97-.53,43.46-.61,14.74-.08,29.8-.96,44.52.14.02,0,.04-.01.06-.02.77.16,1.5.64,2.21.97.02,0,.04.02.06.03,0,0,0,0,0,0,.04.02.08.04.12.05,0,0,0,0,0,0,5.07,3.31,4.96,11.13,4.97,16.74,0,4.18-.45,13.45-5.91,14.31-.1.21-.3.38-.56.4-3.16.25-6.35.4-9.54.49,2.73.08,5.45.21,8.15.41,4.71.08,7.01-.71,8.48-3.46-.82-.67-1.25-1.74-1.04-3.35Z"/>
          <path class="cls-9" d="M107.27,215.04c.35-2.05-.29-3.22-.87-5.03-.25-.78-.43-1.48-.11-2.25.02-.06.08-.09.11-.14-1.54-.78-3.73-1.31-6.83-1.39-.03,0-.05,0-.07,0-15.08.45-30.52.11-45.65.08-15.09-.03-30.18-.12-45.27-.24-.06.06-.21.11-.38.08-.91-.12-1.52.18-1.53.5,0,.16.15.34.48.45.3.1.67.13,1.04.16.67.13,1.75.04,2.38,0h0c14.48-.11,28.97-.2,43.46-.23,14.74-.03,29.8-.36,44.52.05.02,0,.04,0,.06,0,.77.06,1.5.24,2.21.36.02,0,.04,0,.06.01h0s.08.01.12.02c0,0,0,0,0,0,5.07,1.25,4.96,4.18,4.97,6.29,0,1.57-.45,5.05-5.91,5.37-.1.08-.3.14-.56.15-3.16.1-6.35.15-9.54.18,2.73.03,5.45.08,8.15.15,4.99.03,7.27-.3,8.73-1.5-.37-1.23.21-1.87.41-3.09Z"/>
          <path class="cls-11" d="M124.08,201.42c.88-1.61,1.06-3.23-.05-4.76-.36-.49-.82-1-1.03-1.58-.13-.38-.25-.83-.16-1.23-1.5-.63-3.54-1.06-6.27-1.13-.03,0-.05,0-.07,0-15.08.45-30.52.11-45.65.08-15.09-.03-30.18-.12-45.26-.24-.06.06-.21.11-.38.08-.91-.12-1.52.18-1.53.5,0,.16.15.34.48.45.3.1.67.13,1.04.16.67.13,1.75.04,2.38,0h0c14.48-.11,28.97-.2,43.46-.23,14.74-.03,29.8-.36,44.52.05.02,0,.04,0,.06,0,.77.06,1.5.24,2.21.36.02,0,.04,0,.06.01h0s.08.01.12.02c0,0,0,0,0,0,5.07,1.25,4.96,4.18,4.97,6.29,0,1.57-.45,5.05-5.91,5.37-.1.08-.3.14-.56.15-3.16.1-6.35.15-9.54.18,2.73.03,5.45.08,8.15.15,5.55.03,7.75-.38,9.2-1.93-.7-.63-.91-1.52-.23-2.77Z"/>
          <path class="cls-19" d="M120.26,226.07s2.63,4.93,2.41,11.45,1.6.34.34-5.73c-1.26-6.07-3.55-8.25-2.75-5.73Z"/>
          <path class="cls-21" d="M107.51,209.18s1.9,2.24.73,5.75c-.44,1.27.73.15.97-2,.24-2.15-1.8-4.97-1.71-3.75Z"/>
          <path class="cls-18" d="M124.31,195.57s1.92,1.75,1.17,4.75,1.08.75,1.08-1.25-2.33-5-2.25-3.5Z"/>
          <path class="cls-24" d="M411.39,214.02c.27-2.28.78-4.09-1.43-5.56-.68-.45-1.46-1.06-1.72-1.77-1.17-.26-2.54-.43-4.16-.47-.03,0-.05,0-.07,0-15.08.45-30.52.11-45.65.08-15.09-.03-30.18-.12-45.27-.24-.06.06-.21.11-.38.08-.91-.12-1.52.18-1.53.5,0,.16.15.34.48.45.3.1.67.13,1.04.16.67.13,1.75.04,2.38,0h0c14.48-.11,28.97-.2,43.46-.23,14.74-.03,29.8-.36,44.52.05.02,0,.04,0,.06,0,.77.06,1.5.24,2.21.36.02,0,.04,0,.06.01h0s.08.01.12.02c0,0,0,0,0,0,5.07,1.25,4.96,4.18,4.97,6.29,0,1.57-.45,5.05-5.91,5.37-.1.08-.3.14-.56.15-3.16.1-6.35.15-9.54.18,2.73.03,5.45.08,8.15.15,6.03.04,8.1-.46,9.56-2.35-.61-.95-.92-2.11-.78-3.24Z"/>
          <path class="cls-17" d="M411.4,224.82s3.67,4.42,4,11.25.67-2.5-.33-6.83c-1-4.33-4.92-7.08-3.67-4.42Z"/>
          <path class="cls-29" d="M411.4,208.49s2.25,1.67,1.67,4.75c-.58,3.08,2.67-2.75-1.67-4.75Z"/>
        </g>
        <g>
          <path class="cls-34" d="M390.64,74.6c2.4-.01,4.67-.71,6.75-1.88,3.44-1.93,5.48-5.35,6.25-9.14,1.52-7.42-2.9-15.71-10.76-16.89-7.24-1.09-15.74,4.63-13.63,12.63,2.42,9.17,12.53,6.46,17.82,1.97.3-.25-.11-.63-.4-.47-5.53,3.01-14.41,4.48-14.48-4.53-.02-3.16,2.68-5.57,5.34-6.74,3.47-1.52,7.34-.52,10.15,1.84,4.92,4.14,4.55,11.98.78,16.67-2.57,3.19-6.22,3.84-10.09,4.12-4.37.31-7.01,1.75-9.72,5.21-.42.54.51,1.01.92.65,1.41-1.22,2.71-2.35,4.42-3.15,1.85-.88,4.63-.29,6.64-.3Z"/>
          <path class="cls-34" d="M376.04,84.31c-1.06.6-2.41.23-3.01-.83-.6-1.06-.23-2.41.83-3.02,1.06-.6,2.41-.23,3.01.83.6,1.06.23,2.41-.83,3.01Z"/>
        </g>
        <path d="M337.07,56.65l9.2-.09-5.28-5.08c-.59-.57-1.02-.91-1.29-1.02-.5-.24-.97-.13-1.42.34-.15.15-.34.39-.59.7-.25.32-.44.55-.59.7-.76.79-1.4.93-1.93.42s-.46-1.07.17-1.72c.17-.18.45-.45.83-.8.38-.35.66-.62.83-.8l.92-.96.68-.71c.39-.41.71-.59.96-.55.25.05.67.36,1.28.94l5.58,5.36c.3.29.83.77,1.58,1.44.38.33.81.73,1.29,1.2.89.86,1.08,1.56.55,2.1-.33.35-.86.52-1.59.52h-8.04c.09.08.21.19.36.34l.29.28c1.29,1.24,1.95,2.67,1.98,4.29.03,1.62-.57,3.08-1.81,4.37-1.55,1.61-3.4,2.36-5.55,2.24-2.15-.11-4.16-1.06-6.01-2.84-1.7-1.63-2.72-3.41-3.06-5.33-.34-1.92.08-3.5,1.28-4.75.69-.71,1.47-1.12,2.35-1.22s1.63.14,2.24.73c.39.38.6.81.63,1.28.03.48-.15.9-.51,1.28-.73.76-1.54.71-2.44-.15l-.25-.24-.15.16c-.71.74-.92,1.79-.62,3.13.3,1.34,1.01,2.55,2.14,3.63,1.26,1.21,2.64,1.84,4.13,1.89s2.78-.48,3.86-1.61c1.9-1.97,1.72-4.04-.52-6.2-.59-.57-1.27-1.09-2.04-1.57-.17-.1-.31-.21-.43-.33-.36-.35-.36-.72.02-1.12.18-.18.5-.28.98-.29Z"/>
        <path d="M289.96,69.46l2.38,4.47c.78-1.84,2-3.29,3.67-4.35,1.99-1.26,3.9-1.73,5.72-1.41,1.82.33,3.32,1.41,4.48,3.24,1.26,1.99,1.6,4.04,1,6.15s-2,3.87-4.22,5.27c-1.83,1.16-3.67,1.69-5.51,1.6-1.84-.09-3.17-.79-3.99-2.09-.41-.64-.54-1.31-.41-2,.13-.7.49-1.23,1.08-1.6.46-.29.92-.4,1.39-.32s.84.34,1.12.79c.19.3.25.63.19.98s-.24.62-.52.8c-.2.15-.27.28-.2.39.37.59,1.17.82,2.41.7s2.42-.55,3.58-1.28c1.42-.9,2.31-2.08,2.67-3.54s.1-2.87-.76-4.24-1.88-2.1-3.13-2.37c-1.25-.27-2.55.03-3.9.89-1.65,1.05-2.67,2.36-3.03,3.94-.15.62-.27,1.04-.36,1.26-.09.22-.24.42-.47.62l-.11.07c-.69.44-1.29.27-1.78-.52-.02-.03-.04-.08-.04-.12l-2.89-5.38c-.16-.3-.45-.8-.88-1.5-.6-.99-.91-1.63-.93-1.93-.02-.3.24-.62.78-.96l.48-.3,1.31-.83,1.55-.98,3.28-2.08c.52-.33.9-.58,1.16-.77.51-.37.86-.62,1.06-.75.71-.45,1.4-.15,2.06.9l.09.2c.29.46.71.96,1.24,1.49.21.17.37.34.48.52.36.57.24,1.05-.37,1.43-.57.36-1.14.14-1.7-.68-.67-.97-1.42-1.2-2.25-.67l-5.57,3.53c-.44.28-.49.76-.14,1.43Z"/>
        <path d="M308.61,31.05c-.52-.18-.89-.51-1.12-1.01-.23-.49-.26-1-.08-1.51s.51-.9,1-1.14c.49-.24.99-.28,1.5-.1s.89.51,1.12,1.01c.23.49.26,1,.08,1.51s-.51.9-1,1.14c-.49.24-.99.28-1.5.1ZM305.11,41.13c-.52-.18-.89-.52-1.12-1.01-.23-.49-.26-1-.08-1.51s.51-.9,1-1.14c.49-.24.99-.28,1.5-.1s.89.52,1.12,1.01c.23.49.26,1,.08,1.51s-.51.9-1,1.14c-.49.24-.99.28-1.5.1Z"/>
        <path d="M35.03,96.2c.2-.44.52-.91.98-1.41-.92-.02-1.6-.15-2.06-.38-.45-.23-.83-.63-1.14-1.21-.52-.98-.54-2.02-.06-3.12.48-1.1,1.32-1.98,2.53-2.62s2.4-.85,3.58-.63,2.03.82,2.55,1.8c.31.58.43,1.12.36,1.63s-.34,1.14-.83,1.91c.65-.08,1.22-.09,1.7-.01,1.26.2,2.21.91,2.86,2.12s.72,2.49.19,3.76-1.55,2.31-3.07,3.12-3.05,1.13-4.4.88c-1.36-.25-2.37-1.01-3.04-2.27-.64-1.2-.69-2.38-.16-3.55ZM38.94,94.17c-1.11.59-1.84,1.29-2.2,2.12-.36.83-.31,1.67.15,2.53s1.12,1.35,2.04,1.53c.91.18,1.88,0,2.91-.55s1.72-1.25,2.08-2.11c.36-.86.32-1.71-.13-2.54s-1.11-1.34-2-1.52c-.89-.18-1.84,0-2.85.54ZM36.01,88.82c-.77.41-1.3.94-1.59,1.6s-.27,1.28.05,1.89c.29.54.77.85,1.44.93.67.08,1.4-.09,2.18-.5s1.33-.92,1.63-1.52c.3-.6.3-1.17.01-1.73-.32-.6-.83-.97-1.53-1.09-.7-.12-1.43.02-2.19.42Z"/>
        <path d="M67.41,88.56v-1.49h3.93v-3.74h1.62v3.74h3.93v1.49h-3.93v3.73h-1.62v-3.73h-3.93Z"/>
        <path d="M87.75,63.11l1.56-4.36-4.14-2.25c-.28-.14-.55-.16-.82-.06-.11.04-.19.08-.23.12l-.31.23s-.14.08-.28.14c-.45.17-.76.04-.93-.39-.18-.46,0-.8.56-1.02l.06-.02s.36-.12,1.04-.34c.36-.08.66-.16.89-.25s.55-.24.97-.46c.42-.22.73-.37.95-.45.56-.22.92-.09,1.1.37.17.43,0,.75-.52.95-.11.04-.22.07-.32.07l-.34.02-.12.05c-.05.02-.08.05-.07.07.06.07.16.14.3.22l2.74,1.55,1.05-3.03c.07-.18.09-.3.07-.36-.02-.02-.06-.02-.12,0-.07.03-.17.09-.3.2-.13.11-.24.18-.32.21-.48.19-.81.06-.99-.4s.03-.77.6-.99c-.03.01.35-.1,1.12-.32.31-.09.63-.2.97-.33s.69-.3,1.05-.49c.36-.2.62-.33.79-.39.6-.23.98-.12,1.16.33s.03.75-.44.93c-.11.04-.27.08-.5.11-.22.03-.39.07-.5.11-.33.13-.65.63-.97,1.51l-1.32,3.62,4.64,2.52c.28.16.56.18.83.08.08-.03.2-.09.36-.19.16-.09.28-.16.36-.19.49-.19.82-.07.99.37.19.48,0,.82-.58,1.05l-.16.06-.83.21c-.23.06-.56.17-.99.34-.37.14-.72.31-1.07.49l-.7.37-.22.09c-.64.25-1.04.16-1.21-.28-.19-.47-.03-.81.47-1.01.18-.07.44-.14.78-.21.03,0,.08,0,.15-.03.14-.05.18-.13.14-.24-.02-.04-.05-.07-.11-.1l-.09-.06-3.29-1.76-1.27,3.54c-.05.15-.07.25-.05.3.03.07.11.08.24.02.09-.04.23-.11.41-.21.18-.1.32-.17.41-.21.58-.23.97-.1,1.15.37.17.43-.04.76-.62.99l-.28.11-.85.24c-.42.12-.79.24-1.1.36-.24.1-.53.23-.85.4-.44.23-.77.39-.99.48-.57.22-.94.1-1.12-.36s-.02-.77.47-.96c.08-.03.21-.07.38-.11.17-.04.3-.08.38-.11.26-.1.52-.52.78-1.25Z"/>
        <path d="M51.9,68.11c-.3-.62-.09-1.09.61-1.43l4.12-1.98c.7-.34,1.2-.21,1.49.39.3.63.1,1.12-.6,1.46l-4.12,1.98c-.7.34-1.2.2-1.5-.42Z"/>
      </g>
    </g>
  </g>
</svg>