<?xml version="1.0" encoding="UTF-8"?>
<svg id="Layer_1" data-name="Layer 1" xmlns="http://www.w3.org/2000/svg" viewBox="0 0 4000 4000">
  <defs>
    <style>
      .cls-1 {
        fill: #fad1a3;
      }

      .cls-2 {
        fill: #e04f10;
      }

      .cls-3 {
        fill: #eaeaea;
      }

      .cls-4 {
        fill: #ff9343;
      }

      .cls-5 {
        fill: #e5e3e3;
      }

      .cls-6 {
        fill: #000072;
      }

      .cls-7 {
        fill: #298aff;
      }

      .cls-8 {
        fill: #a16044;
      }

      .cls-9 {
        fill: #fff;
      }

      .cls-10 {
        fill: #8a654b;
      }

      .cls-11 {
        fill: #686779;
      }

      .cls-12 {
        fill: #fcc06a;
      }

      .cls-13 {
        fill: #67e9ff;
      }

      .cls-14 {
        fill: #ff0068;
      }

      .cls-15 {
        fill: #48c7ff;
      }

      .cls-16 {
        opacity: .7;
      }

      .cls-17 {
        opacity: .4;
      }

      .cls-18 {
        opacity: .35;
      }

      .cls-19 {
        opacity: .5;
      }

      .cls-20 {
        opacity: .2;
      }

      .cls-21 {
        opacity: .3;
      }

      .cls-22 {
        fill: #e25050;
      }

      .cls-23 {
        fill: #ff6e6e;
      }

      .cls-24 {
        fill: #512717;
      }

      .cls-25 {
        fill: #ff6a1f;
      }

      .cls-26 {
        fill: #27b2ff;
      }
    </style>
  </defs>
  <rect class="cls-13" width="4000" height="4000"/>
  <g>
    <g class="cls-20">
      <ellipse class="cls-6" cx="2029.47" cy="3369.53" rx="1050.17" ry="328.93"/>
    </g>
    <path class="cls-9" d="M2680.09,2882.09c-8.25,270.24-641.4,125.38-651.75,123.01t-.09,0c-10.35,2.36-643.45,147.22-651.7-123.01-5.7-186.83,29.49-367.17,61.89-490.53,25.52-97.03,101.49-168.77,194.01-183.04l395.85-61.16,395.9,61.16c92.47,14.27,168.44,86.01,193.96,183.04,32.4,123.36,67.63,303.69,61.93,490.53Z"/>
    <path class="cls-9" d="M2680.09,2882.09c-8.25,270.24-641.4,125.38-651.75,123.01t-.09,0c-10.35,2.36-643.45,147.22-651.7-123.01-5.7-186.83,29.49-367.17,61.89-490.53,25.52-97.03,101.49-168.77,194.01-183.04l395.85-61.16,395.9,61.16c92.47,14.27,168.44,86.01,193.96,183.04,32.4,123.36,67.63,303.69,61.93,490.53Z"/>
    <path class="cls-5" d="M2619.31,2903.65c-7.74,253.53-601.74,117.62-611.45,115.41t-.09,0c-9.71,2.22-603.66,138.12-611.4-115.41-5.34-175.28,27.66-344.47,58.06-460.2,23.94-91.03,95.22-158.34,182.01-171.73l371.37-57.38,371.42,57.38c86.75,13.39,158.02,80.69,181.97,171.73,30.4,115.73,63.45,284.92,58.1,460.2Z"/>
    <path class="cls-6" d="M2371.99,3065.94c-151.44,0-306.21-32.31-343.7-40.67-37.62,8.38-192.34,40.66-343.68,40.67-103.23,0-204.86-15.01-266.77-62.86-38.94-30.1-59.45-70.61-60.97-120.39-5.83-191.16,30.79-375.31,62.52-496.13,27.49-104.54,109.94-182.06,210.04-197.5l395.84-61.16c1.99-.3,4.02-.3,6.01,0l395.9,61.16c100.07,15.45,182.5,92.97,209.99,197.5,31.76,120.9,68.39,305.11,62.57,496.13h0c-1.52,49.78-22.04,90.29-60.98,120.39-61.9,47.85-163.57,62.86-266.79,62.86ZM2033.51,2986.1c26.93,6.08,438.02,96.51,581.2-14.17,29.59-22.87,44.54-52.46,45.7-90.44,5.68-186.31-30.2-366.54-61.3-484.93-23.5-89.36-93.34-155.54-177.92-168.59l-392.9-60.7-392.84,60.7c-84.62,13.05-154.48,79.23-177.98,168.6-31.08,118.31-66.94,298.47-61.25,484.92,1.16,37.98,16.11,67.57,45.7,90.44,143.25,110.73,554.83,20.11,581.14,14.16,3.38-.93,7.08-.93,10.44,0ZM2680.09,2882.09h.05-.05Z"/>
    <path class="cls-24" d="M2028.31,2172.42h-.1c-10.87,0-19.68-8.81-19.68-19.68s8.81-19.68,19.68-19.68,19.73,8.81,19.73,19.68-8.76,19.68-19.63,19.68Z"/>
    <path class="cls-24" d="M2028.11,2172.47c-3.6,0-7.19-.99-10.35-2.94-5.81-3.59-9.34-9.92-9.34-16.74,0-10.87,8.81-19.73,19.68-19.73,9.13,0,17.11,6.27,19.2,15.16,2.1,8.88-2.14,18.04-10.3,22.12l-.1.05c-2.78,1.39-5.8,2.08-8.8,2.08Z"/>
    <circle class="cls-15" cx="2028.28" cy="1374.8" r="1003.38"/>
    <g class="cls-17">
      <path class="cls-9" d="M1063.7,1424.48c0-554.15,449.23-1003.38,1003.39-1003.38,291.78,0,554.42,124.58,737.76,323.4-184.01-224.63-463.54-368.01-776.57-368.01-554.15,0-1003.38,449.23-1003.38,1003.38,0,262.38,100.75,501.19,265.62,679.98-141.74-173.03-226.82-394.26-226.82-635.38Z"/>
    </g>
    <g class="cls-20">
      <path class="cls-6" d="M2985.97,1374.8c0-191.98-53.96-371.37-147.52-523.83-1.2,553.13-449.96,1001.12-1003.37,1001.12-331.3,0-625.15-160.56-807.8-408.16,34.96,514.25,457.38,922.1,977.65,933.98,543.82-11.89,981.04-456.43,981.04-1003.11Z"/>
    </g>
    <g>
      <path class="cls-9" d="M2098.87,3299.04h.26c186.52,4.12,328.2,43.31,445.18,80.54,24.54,7.83,48.02,15.55,70.55,22.85,79.91,25.86,148.45,46.38,213.92,46.38,77.16,0,71.24-154.37,55.85-270.77-9.36-70.39-22.16-126.92-22.16-126.92,0,0-31.73-113.28-118.78-187.85-15.13-12.96-31.94-24.75-50.61-34.64-.74-.37-1.43-.74-2.17-1.11-81.97-42.25-228.83-33-322.81,94.72l-269.24,376.8Z"/>
      <path class="cls-3" d="M2099.13,3299.04c364.22,8.09,557.56,149.77,729.65,149.77,77.16,0,71.24-154.37,55.85-270.77-51.67-55.48-101.01-107.51-101.01-107.51,0,0-85.94,109.31-136.34,48.23-45.27-54.89,17.72-160.08-18.09-244.06-14.86-34.85-377.12,286.53-530.06,424.35Z"/>
      <path class="cls-3" d="M2544.31,3379.58c1.48.48,2.91.95,4.39,1.43,4.65,1.43,9.25,2.91,13.8,4.44,8.78,2.8,17.4,5.61,25.91,8.36,8.94,2.96,17.77,5.82,26.44,8.62-48.07-112.86-51.03-237.03-8.09-351.73,8.67-23.22,19.04-45.43,30.78-66.16,3.86-32.42,5.87-65.89-3.7-97.04-33.32,40.51-61.66,89.48-81.6,142.84-42.47,113.54-44.9,235.23-7.93,349.25Z"/>
      <path class="cls-25" d="M2544.31,3379.58c24.54,7.83,48.02,15.55,70.55,22.85-48.07-112.86-51.03-237.03-8.09-351.73,30.09-80.49,80.65-148.82,136.92-187.42-15.13-12.96-31.94-24.75-50.61-34.64-58.7,46.7-109.84,118.83-140.83,201.7-42.47,113.54-44.9,235.23-7.93,349.25Z"/>
      <path class="cls-2" d="M2544.31,3379.58c1.48.48,2.91.95,4.39,1.43,4.65,1.48,9.25,2.96,13.8,4.44,8.78,2.8,17.4,5.61,25.91,8.36,8.94,2.96,17.77,5.82,26.44,8.62-48.07-112.86-51.03-237.03-8.09-351.73,8.67-23.22,19.04-45.43,30.78-66.16,3.86-32.42,5.87-65.89-3.7-97.04-33.32,40.51-61.66,89.48-81.6,142.84-42.47,113.54-44.9,235.23-7.93,349.25Z"/>
      <path class="cls-6" d="M2828.77,3468.46c-74.7,0-152.52-25.34-242.63-54.67-123.75-40.29-277.76-90.43-487.73-95.08l.87-39.36c215.77,4.77,372.84,55.91,499.05,97,86.92,28.3,161.99,52.74,230.44,52.74,9.65,0,16.79-3.55,23.15-11.52,46.79-58.58,9.82-280.28-8.54-361.55-2.54-8.57-46.54-151.76-161.49-211.03-70-36.09-208.72-32.36-297.92,88.9l-31.71-23.33c96.94-131.76,251.48-150.15,347.67-100.56,133.4,68.78,179.58,229.01,181.48,235.8.09.32.17.63.24.95,7.17,31.63,68.13,311.37,1.04,395.39-13.75,17.22-32.4,26.32-53.92,26.32Z"/>
      <path class="cls-9" d="M2678.3,3422.2c36.93,10.96,151.28,63.63,262.13-3.59,101.69-61.66,163.72-214.28,139.21-341.59-29.81-154.79-237.55-201.35-302.73,13.38l-98.61,331.79Z"/>
      <path class="cls-9" d="M2678.32,3422.2c36.91,10.95,151.25,63.62,262.1-3.6,54.21-32.84,97.15-91.54,121.69-158.49.11-.26.16-.37.16-.37,21.42-58.54,28.82-123.38,17.4-182.72-29.56-153.52-234.17-200.59-301.12,8.2v.05c-.58,1.69-1.11,3.38-1.64,5.13l-98.58,331.8Z"/>
      <path class="cls-3" d="M2678.32,3422.2c36.91,10.95,151.25,63.62,262.1-3.6,54.21-32.84,97.15-91.54,121.69-158.49-13.54-34.53-125.23,158.6-220.72,116.66-138.12-60.66-63.27-286.9-62.85-291.5-.58,1.69-1.11,3.38-1.64,5.13l-98.58,331.8Z"/>
      <path class="cls-6" d="M2683.9,3403.34c42.61,13.9,84.51,27.41,129.07,27.65,26.36.44,52.58-3.79,77.21-12.38,9.5-3.82,19.55-7.7,28.45-12.87,3.99-2.25,9.96-5.07,13.58-7.76,29.03-18.34,53.03-44.36,72.45-72.48,45.53-69.66,67.98-156.45,54.73-239.17-16.76-112.45-141.17-165.58-221.83-75.96-22.34,24.03-37.58,52.64-51.31,83.08-2.24,4.99-8.1,7.21-13.08,4.97-4.26-1.91-6.5-6.47-5.67-10.86,4.41-23.38,11.96-46.53,23.28-68.39,16.84-33.01,44.63-63.82,79.38-79.81,88.98-42.6,190.63,13.66,221.89,102.7,30.52,94.06,10.75,199.33-36.73,284.44-24.66,42.7-57.98,81.69-99.92,108.21-74.29,48.41-169.56,46.63-250.51,17.54-11.33-3.75-22.8-8.14-32.67-11.32-24.17-8.57-13.14-44.25,11.69-37.58h0Z"/>
    </g>
    <g>
      <path class="cls-9" d="M1957.58,3299.04h-.26c-186.52,4.12-328.2,43.31-445.18,80.54-24.54,7.83-48.02,15.55-70.55,22.85-79.91,25.86-148.45,46.38-213.92,46.38-77.16,0-71.24-154.37-55.85-270.77,9.36-70.39,22.16-126.92,22.16-126.92,0,0,31.73-113.28,118.78-187.85,15.13-12.96,31.94-24.75,50.61-34.64.74-.37,1.43-.74,2.17-1.11,81.97-42.25,228.83-33,322.81,94.72l269.24,376.8Z"/>
      <path class="cls-3" d="M1957.32,3299.04c-364.22,8.09-557.56,149.77-729.65,149.77-77.16,0-71.24-154.37-55.85-270.77,51.67-55.48,101.01-107.51,101.01-107.51,0,0,85.94,109.31,136.34,48.23,45.27-54.89-17.72-160.08,18.09-244.06,14.86-34.85,377.12,286.53,530.06,424.35Z"/>
      <path class="cls-3" d="M1512.14,3379.58c-1.48.48-2.91.95-4.39,1.43-4.65,1.43-9.25,2.91-13.8,4.44-8.78,2.8-17.4,5.61-25.91,8.36-8.94,2.96-17.77,5.82-26.44,8.62,48.07-112.86,51.03-237.03,8.09-351.73-8.67-23.22-19.04-45.43-30.78-66.16-3.86-32.42-5.87-65.89,3.7-97.04,33.32,40.51,61.66,89.48,81.6,142.84,42.47,113.54,44.9,235.23,7.93,349.25Z"/>
      <path class="cls-25" d="M1512.13,3379.58c-24.54,7.83-48.02,15.55-70.55,22.85,48.07-112.86,51.03-237.03,8.09-351.73-30.09-80.49-80.65-148.82-136.92-187.42,15.13-12.96,31.94-24.75,50.61-34.64,58.7,46.7,109.84,118.83,140.83,201.7,42.47,113.54,44.9,235.23,7.93,349.25Z"/>
      <path class="cls-2" d="M1512.14,3379.58c-1.48.48-2.91.95-4.39,1.43-4.65,1.48-9.25,2.96-13.8,4.44-8.78,2.8-17.4,5.61-25.91,8.36-8.94,2.96-17.77,5.82-26.44,8.62,48.07-112.86,51.03-237.03,8.09-351.73-8.67-23.22-19.04-45.43-30.78-66.16-3.86-32.42-5.87-65.89,3.7-97.04,33.32,40.51,61.66,89.48,81.6,142.84,42.47,113.54,44.9,235.23,7.93,349.25Z"/>
      <path class="cls-6" d="M1227.68,3468.46c-21.52,0-40.17-9.1-53.92-26.32-67.1-84.02-6.13-363.76,1.04-395.39.07-.32.15-.63.24-.95,1.9-6.79,48.08-167.02,181.48-235.8,96.19-49.59,250.73-31.2,347.67,100.56l-31.71,23.33c-89.21-121.26-227.92-124.99-297.92-88.9-114.89,59.23-158.91,202.3-161.49,211.03-18.36,81.28-55.34,302.96-8.54,361.55,6.36,7.97,13.5,11.52,23.15,11.52,68.45,0,143.52-24.44,230.44-52.74,126.21-41.09,283.28-92.23,499.05-97l.87,39.36c-209.97,4.64-363.98,54.79-487.73,95.08-90.11,29.34-167.92,54.67-242.63,54.67Z"/>
      <path class="cls-9" d="M1378.15,3422.2c-36.93,10.96-151.28,63.63-262.13-3.59-101.69-61.66-163.72-214.28-139.21-341.59,29.81-154.79,237.55-201.35,302.73,13.38l98.61,331.79Z"/>
      <path class="cls-9" d="M1378.13,3422.2c-36.91,10.95-151.25,63.62-262.1-3.6-54.21-32.84-97.15-91.54-121.69-158.49-.11-.26-.16-.37-.16-.37-21.42-58.54-28.82-123.38-17.4-182.72,29.56-153.52,234.17-200.59,301.12,8.2v.05c.58,1.69,1.11,3.38,1.64,5.13l98.58,331.8Z"/>
      <path class="cls-3" d="M1378.13,3422.2c-36.91,10.95-151.25,63.62-262.1-3.6-54.21-32.84-97.15-91.54-121.69-158.49,13.54-34.53,125.23,158.6,220.72,116.66,138.12-60.66,63.27-286.9,62.85-291.5.58,1.69,1.11,3.38,1.64,5.13l98.58,331.8Z"/>
      <path class="cls-6" d="M1383.75,3441.07c-44.21,16.04-91.18,31.14-139.35,31.88-68.9,2.85-138.79-24.18-187.3-73.39-65.33-64.63-101.78-155.87-106.83-247-1.17-37.07,1.75-75.29,14.14-110.52,37.3-105.01,164.25-156.4,254.78-81.79,38.69,32.33,60.59,79.41,69.77,127.29,2.05,11.65-14.24,16.36-18.83,5.72-24.61-56.17-63.67-116.31-128.1-126.86-60.72-10.56-118.55,33.75-137.59,90.09-5.06,13.78-7.72,30.77-9.66,45.65-7.61,80.42,15.23,163.91,61.78,229.84,18.8,26.91,43.11,50.7,70.93,68.17,4.97,2.73,12.27,6.56,17.23,9.32,30.65,14.8,64.49,22.12,98.78,21.51,44.57-.25,86.43-13.76,129.06-27.66,24.98-6.75,36.05,29.56,11.2,37.74h0Z"/>
    </g>
    <path class="cls-4" d="M2424.75,2214.9c-21.62,46.7-47.14,82.39-54.88,126.41-97.88,34.86-215.42,55.17-341.88,55.17s-243.47-20.21-341.2-54.93c-7.69-44.17-33.31-79.86-54.98-126.7,75.62-147.98,205.73-324.21,396.47-324.21s320.85,176.22,396.47,324.25Z"/>
    <path class="cls-4" d="M2464.24,2300.02c-111.66,59.6-265.92,96.46-436.25,96.46s-324.06-36.76-435.72-96.22c10.96-26.1,24.1-55.17,39.54-85.41,75.62-147.98,205.73-324.21,396.47-324.21s320.85,176.22,396.47,324.25c15.39,30.09,28.54,59.07,39.49,85.12Z"/>
    <path class="cls-9" d="M2612.34,2985.31l-160.46,265.68s-123.3,53.45-313.94,69.79c-34.46,3-71.12,4.73-109.65,4.73s-75.14-1.73-109.55-4.68c-190.65-16.39-313.99-69.84-313.99-69.84l-160.46-265.68c-31.97-160.2,29.83-385.31,106.65-570.92,0,0,26.17-92.35,80.89-199.56,75.65-147.99,205.72-324.18,396.46-324.18s320.87,176.19,396.46,324.23c54.78,107.16,80.99,199.5,80.99,199.5,76.82,185.61,138.62,410.72,106.6,570.92Z"/>
    <path class="cls-3" d="M2520.07,2449.94c-111.55,91.33-290.26,150.52-491.76,150.52s-380.16-59.19-491.71-150.52c4.72-11.96,9.5-23.82,14.32-35.53,0,0,26.18-92.36,80.89-199.58,75.63-148.01,205.73-324.16,396.45-324.16s320.87,176.15,396.5,324.21c54.76,107.17,80.99,199.53,80.99,199.53,4.82,11.71,9.59,23.52,14.32,35.53Z"/>
    <path class="cls-3" d="M2527.94,2443.3c-46.3,39.71-105.05,73.66-172.81,99.74l107.86-243.02c25.68,47.78,47.19,95.7,64.95,143.29Z"/>
    <path class="cls-3" d="M1701.49,2542.99c-67.76-26.08-126.56-59.98-172.81-99.69,17.76-47.58,39.27-95.51,64.95-143.29l107.86,242.98Z"/>
    <path class="cls-5" d="M2612.31,2985.32c-31.05,155.66-115.73,240.73-160.41,265.7,0,0-171.97,74.51-423.59,74.51s-423.54-74.51-423.54-74.51c-44.79-24.97-129.41-110.03-160.47-265.7-9.5-47.53-10.72-98.86-5.81-152.03,1.4,12.96,3.35,25.64,5.81,38.09,26.02,130.41,253.52,66.68,437.81,85.47,35.69,3.64,73.13,103.73,146.2,103.73s117.05-100.75,148.77-103.73c183.98-17.3,408.75,47.3,435.23-85.47,2.51-12.46,4.41-25.25,5.81-38.2,4.97,53.23,3.69,104.61-5.81,152.15Z"/>
    <path class="cls-2" d="M1848.98,3008.56s33.29,41.97,96.1,48.63c0,0,4.79,84.33,20.84,193.85-23.93,1.97-81.04,4.04-115.2-32.68-34.15-36.72-1.74-209.8-1.74-209.8Z"/>
    <path class="cls-2" d="M2205.88,3008.56s-33.29,41.97-96.09,48.63c0,0-4.79,84.33-20.84,193.85,23.93,1.97,81.04,4.04,115.2-32.68,34.15-36.72,1.74-209.8,1.74-209.8Z"/>
    <path class="cls-6" d="M2042.99,2600.44c1.39,240.69,1.73,484.4-4.92,725.08-.17,5.44-4.72,9.7-10.15,9.53-5.21-.16-9.36-4.39-9.53-9.53-5.37-179.48-5.52-364.27-5.7-543.81-.03-60.42.21-120.85.78-181.27.65-19.07,28.7-19.55,29.52,0h0Z"/>
    <path class="cls-25" d="M2037.02,2600.44h-17.59c-23.61,0-43.35-17.97-45.56-41.48l-6.16-65.6c-2.52-26.84,18.59-50.04,45.56-50.04h29.92c26.96,0,48.08,23.19,45.56,50.04l-6.16,65.6c-2.21,23.51-21.94,41.48-45.56,41.48Z"/>
    <path class="cls-6" d="M2037.02,2615.2h-17.59c-31.42,0-57.32-23.58-60.25-54.86l-6.16-65.6c-1.59-16.92,4.06-33.84,15.5-46.41,11.44-12.57,27.75-19.78,44.75-19.78h29.92c17,0,33.31,7.21,44.75,19.77,11.45,12.57,17.09,29.48,15.51,46.41l-6.16,65.61c-2.94,31.27-28.85,54.86-60.25,54.86ZM2013.26,2458.08c-8.83,0-16.97,3.6-22.91,10.13-5.95,6.53-8.76,14.98-7.94,23.77l6.16,65.6c1.5,16.02,14.77,28.1,30.86,28.1h17.59c16.08,0,29.35-12.08,30.86-28.1l6.16-65.6c.83-8.79-2-17.24-7.94-23.77-5.94-6.53-14.08-10.13-22.92-10.13h-29.92Z"/>
    <path class="cls-24" d="M2602.68,2983.4c6.72-71.17-5.73-144.29-17.89-214.67-41.71-214.11-106.98-426.3-208.34-620.09-2.6-4.79-.82-10.8,3.99-13.38,4.51-2.42,10.09-.94,12.87,3.23,81.29,124.79,135.95,264.74,178.6,406.78,31.06,106.76,56.03,217.3,59.86,328.99.95,37.46-.19,75.55-9.81,113-1.35,5.27-6.72,8.45-11.99,7.09-4.93-1.26-8.01-6.05-7.31-10.95h0Z"/>
    <path class="cls-6" d="M1608.66,3242c69.3,15.63,138.2,32.22,207.91,45,148.26,26.82,301.93,24.82,449.6-4.88,34.7-7.1,69.34-14.55,103.78-22.83,25.91-5.75,52.03-12.1,78-17.29,5.49-1.38,11.12,2.1,12.22,7.68.84,4.15-1.04,8.22-4.4,10.38-16.08,10.27-32.6,18.06-49.64,25.19-85.16,34.55-177.25,47.15-268.2,55.14-109.43,9.69-219.75,3.81-328.27-12.89-36.16-5.79-72.05-13.59-107.16-24.26-35.43-10.87-69.63-23.83-101.68-43.18-4.67-2.88-6.12-9.01-3.23-13.68,2.37-3.84,6.92-5.48,11.06-4.38h0Z"/>
    <path class="cls-9" d="M1942.45,3469.47c-85.37,40.25-224.43,38.58-312.6.74-61.46-26.42-90.34-100.82-105.55-142.45-.44-1.18-.89-2.36-1.28-3.49-3.69-10.14-8.56-24.55-14.12-42.81-6.45-21.45-13.83-48.22-21.01-79.52-17.71-76.71-34.64-180.63-36.26-300.3-2.46-178.22,28.93-391.33,142.01-601.63l287.21,647s1.67,130.94,17.52,261.23c2.26,18.89,4.87,37.79,7.77,56.29,1.28,7.97,2.61,15.89,3.99,23.72,85.32,36.81,98.85,149.83,32.33,181.22Z"/>
    <path class="cls-3" d="M1942.45,3469.47c-85.37,40.25-224.43,38.58-312.6.74-61.46-26.42-90.34-100.82-105.55-142.45-.44-1.18-.89-2.36-1.28-3.49-3.69-10.14-8.56-24.55-14.12-42.81-6.45-21.45-13.83-48.22-21.01-79.52-17.71-76.71-34.64-180.63-36.26-300.3-2.02-145.94,18.7-315.31,88.32-487.38-48.86,147.37-63.97,290.61-62.24,416.42,1.62,119.67,18.55,223.59,36.26,300.3,7.18,31.29,14.56,58.06,21.01,79.52,5.56,18.26,10.43,32.67,14.12,42.81.39,1.13.84,2.31,1.28,3.49,15.2,41.63,44.09,116.03,105.55,142.45,88.18,37.84,227.23,39.51,312.6-.74,5.81-2.76,11.02-6.1,15.6-10.04,2.9,34.05-10.68,66.38-41.68,80.99Z"/>
    <path class="cls-2" d="M1527.65,3185.07c-12.6,7.73-27.11,13.19-39.76,16.88-17.71-76.71-34.64-180.63-36.26-300.3,9.35,1.03,19.44,2.61,29.18,4.87,5.95,87.78,19.29,164.44,33.16,224.47,4.58,19.93,9.25,38.04,13.68,54.08Z"/>
    <path class="cls-2" d="M1571.1,3306.85c-20.67,8.51-36.85,16.09-46.79,20.91-.44-1.18-.89-2.36-1.28-3.49-3.69-10.14-8.56-24.55-14.12-42.81,13.63-9.25,27.46-17.47,41.43-24.8,0,.05.05.1.05.15,5.12,13.97,11.81,31.69,20.72,50.04Z"/>
    <path class="cls-3" d="M1701.49,2542.99c-67.76-26.08-126.56-59.98-172.81-99.69,17.76-47.58,39.27-95.51,64.95-143.29l107.86,242.98Z"/>
    <path class="cls-25" d="M1487.89,3201.94c-17.71-76.71-34.64-180.63-36.26-300.3,29.08,3.2,65.93,11.42,76.07,32.23,11.02,22.59,12.15,100.72,30.11,194.71,8.12,42.66-37.25,63.82-69.92,73.36Z"/>
    <path class="cls-6" d="M1648.72,3308.78c80.12-46.49,176.82-65.16,267.87-39.45,25.98,8.73,13.23,46.77-12.83,37.93-57.47-22.12-125.47-20.27-185.54-3.99-20.67,5.63-40.98,13.04-59.9,22.69-11.2,5.44-20.15-10.42-9.59-17.18h0Z"/>
    <path class="cls-25" d="M1906.13,3264.53c-137.58-47.93-333.56,39.81-381.83,63.23-.44-1.18-.89-2.36-1.28-3.49-3.69-10.14-8.56-24.55-14.12-42.81,144.27-97.72,312.65-85.76,389.46-73.22,2.26,18.89,4.87,37.79,7.77,56.29Z"/>
    <path class="cls-2" d="M1527.65,3185.07c-12.6,7.73-27.11,13.19-39.76,16.88-17.71-76.71-34.64-180.63-36.26-300.3,9.35,1.03,19.44,2.61,29.18,4.87,5.95,87.78,19.29,164.44,33.16,224.47,4.58,19.93,9.25,38.04,13.68,54.08Z"/>
    <path class="cls-2" d="M1571.1,3306.85c-20.67,8.51-36.85,16.09-46.79,20.91-.44-1.18-.89-2.36-1.28-3.49-3.69-10.14-8.56-24.55-14.12-42.81,13.63-9.25,27.46-17.47,41.43-24.8,0,.05.05.1.05.15,5.12,13.97,11.81,31.69,20.72,50.04Z"/>
    <path class="cls-6" d="M1602.18,2304.6c-141.44,305.33-169.09,644.19-75.29,967.75,19.88,62.86,43.45,141.57,102.62,175.41,82.15,38.12,198.78,40.37,284.05,11.29,21.09-7.07,40.73-16.86,47.16-40.17,13.23-44.7-16.67-95.08-59.05-112.4-6.18-2.77-10.24-8.48-11.32-14.69-4.74-28.67-8.68-57.35-11.88-86.04-7.55-71.54-10.78-143.56-9.04-215.46.34-14.38.75-28.7,1.72-43.16.36-5.35,4.99-9.4,10.34-9.04,4.81.32,8.57,4.1,9.01,8.75,7.66,78.94,16.62,176.15,26.57,254.33,3.56,28.05,7.82,55.93,12.82,83.56l-11.82-14.91c19.7,8.55,37.95,21.28,52.23,37.7,29,33.36,43.05,79.92,29.76,123.69-10.46,35.57-38.64,55.79-72.6,66.62-64.91,22.64-135.14,25.86-202.84,17.55-39.1-5.35-78.74-14.38-114.22-32.45-37.19-20.29-62.4-55.21-80.73-91.47-17.3-34.99-29.36-70.93-40.74-107.8-53.31-181.46-71.09-373.46-48.44-561.62,9.65-75.11,25.18-149.66,48.86-221.64,23.64-71.95,55.36-141.32,95.77-204.98,6.53-9.35,21.59-2.65,17.05,9.17h0Z"/>
    <path class="cls-9" d="M2114.16,3469.47c85.37,40.25,224.43,38.58,312.6.74,61.46-26.42,90.34-100.82,105.55-142.45.44-1.18.89-2.36,1.28-3.49,3.69-10.14,8.56-24.55,14.12-42.81,6.45-21.45,13.83-48.22,21.01-79.52,17.71-76.71,34.64-180.63,36.26-300.3,2.46-178.22-28.93-391.33-142.01-601.63l-287.21,647s-1.67,130.94-17.52,261.23c-2.26,18.89-4.87,37.79-7.77,56.29-1.28,7.97-2.61,15.89-3.99,23.72-85.32,36.81-98.85,149.83-32.33,181.22Z"/>
    <path class="cls-3" d="M2114.16,3469.47c85.37,40.25,224.43,38.58,312.6.74,61.46-26.42,90.34-100.82,105.55-142.45.44-1.18.89-2.36,1.28-3.49,3.69-10.14,8.56-24.55,14.12-42.81,6.45-21.45,13.83-48.22,21.01-79.52,17.71-76.71,34.64-180.63,36.26-300.3,2.02-145.94-18.7-315.31-88.32-487.38,48.86,147.37,63.97,290.61,62.24,416.42-1.62,119.67-18.55,223.59-36.26,300.3-7.18,31.29-14.56,58.06-21.01,79.52-5.56,18.26-10.43,32.67-14.12,42.81-.39,1.13-.84,2.31-1.28,3.49-15.2,41.63-44.09,116.03-105.55,142.45-88.18,37.84-227.23,39.51-312.6-.74-5.81-2.76-11.02-6.1-15.6-10.04-2.9,34.05,10.68,66.38,41.68,80.99Z"/>
    <path class="cls-2" d="M2528.96,3185.07c12.6,7.73,27.11,13.19,39.76,16.88,17.71-76.71,34.64-180.63,36.26-300.3-9.35,1.03-19.44,2.61-29.18,4.87-5.95,87.78-19.29,164.44-33.16,224.47-4.58,19.93-9.25,38.04-13.68,54.08Z"/>
    <path class="cls-2" d="M2485.52,3306.85c20.67,8.51,36.85,16.09,46.79,20.91.44-1.18.89-2.36,1.28-3.49,3.69-10.14,8.56-24.55,14.12-42.81-13.63-9.25-27.46-17.47-41.43-24.8,0,.05-.05.1-.05.15-5.12,13.97-11.81,31.69-20.72,50.04Z"/>
    <path class="cls-3" d="M2355.12,2542.99c67.76-26.08,126.56-59.98,172.81-99.69-17.76-47.58-39.27-95.51-64.95-143.29l-107.86,242.98Z"/>
    <path class="cls-25" d="M2568.72,3201.94c17.71-76.71,34.64-180.63,36.26-300.3-29.08,3.2-65.93,11.42-76.07,32.23-11.02,22.59-12.15,100.72-30.11,194.71-8.12,42.66,37.25,63.82,69.92,73.36Z"/>
    <path class="cls-6" d="M2398.11,3325.86c-74.24-36.34-167.67-47.66-245.21-18.62-24.92,8.74-38.83-27.13-14.35-37.41,46.42-14.26,95.04-14.83,140.8-7.37,45.34,7.69,89.06,22.54,128.54,46.32,10.63,6.69,1.42,22.9-9.78,17.08h0Z"/>
    <path class="cls-25" d="M2150.48,3264.53c137.58-47.93,333.56,39.81,381.83,63.23.44-1.18.89-2.36,1.28-3.49,3.69-10.14,8.56-24.55,14.12-42.81-144.27-97.72-312.65-85.76-389.46-73.22-2.26,18.89-4.87,37.79-7.77,56.29Z"/>
    <path class="cls-2" d="M2528.96,3185.07c12.6,7.73,27.11,13.19,39.76,16.88,17.71-76.71,34.64-180.63,36.26-300.3-9.35,1.03-19.44,2.61-29.18,4.87-5.95,87.78-19.29,164.44-33.16,224.47-4.58,19.93-9.25,38.04-13.68,54.08Z"/>
    <path class="cls-2" d="M2485.52,3306.85c20.67,8.51,36.85,16.09,46.79,20.91.44-1.18.89-2.36,1.28-3.49,3.69-10.14,8.56-24.55,14.12-42.81-13.63-9.25-27.46-17.47-41.43-24.8,0,.05-.05.1-.05.15-5.12,13.97-11.81,31.69-20.72,50.04Z"/>
    <path class="cls-6" d="M2471.48,2295.44c188.28,302.55,192.38,712.1,78.1,1042.44-20.38,55.74-48.59,114.7-103.37,145.07-71.1,34.32-152.81,41.02-230.58,33.95-29.21-3.19-58.56-9.04-86.47-19.05-20.75-7.22-42.26-17.16-56.18-35.31-36.06-46.18-23.32-113.81,13.34-155,14.28-16.43,32.53-29.16,52.23-37.7l-11.82,14.91c4.99-27.63,9.25-55.51,12.81-83.56,9.93-78.05,18.88-175.59,26.57-254.33.52-5.34,5.26-9.24,10.6-8.73,4.8.47,8.44,4.35,8.75,9.01.97,14.46,1.37,28.78,1.72,43.16,2.28,100.9-4.39,201.85-20.93,301.5-1.11,6.68-5.47,12.01-11.2,14.64-42.43,17.27-72.43,67.74-59.16,112.46,9.01,32.25,43.98,39.41,72.08,47.77,81.94,19.75,181.92,16.72,259.14-18.89,59.19-33.87,82.7-112.54,102.62-175.41,60.97-211.54,71.88-438.3,28.45-654.07-22.32-108.35-58.64-212.26-103.74-313.68-2.2-4.9.02-10.67,4.93-12.84,4.45-1.97,9.59-.32,12.12,3.67h0Z"/>
    <g>
      <path class="cls-12" d="M2411.12,2044.02s258.89,419.52-386.92,419.52h2.27c-645.81,0-386.92-419.52-386.92-419.52"/>
      <g class="cls-20">
        <path class="cls-6" d="M2411.12,2044.02s258.89,419.52-386.92,419.52h2.27c-645.81,0-386.92-419.52-386.92-419.52"/>
      </g>
      <path class="cls-6" d="M2026.46,2483.23h-2.27c-227.2-.35-371.43-52.56-428.71-155.21-72.45-129.84,23.2-287.68,27.31-294.33,5.71-9.25,17.82-12.12,27.08-6.41,9.25,5.71,12.12,17.83,6.41,27.08-.87,1.42-87.62,145.08-26.34,254.62,49.98,89.35,182.99,134.72,395.38,134.88,212.39-.16,345.41-45.54,395.38-134.88,61.27-109.54-25.47-253.2-26.36-254.64-5.68-9.25-2.8-21.38,6.45-27.07,9.25-5.69,21.36-2.83,27.06,6.42,4.11,6.66,99.76,164.49,27.31,294.33-57.28,102.66-201.5,154.87-428.71,155.22h0Z"/>
    </g>
    <path class="cls-1" d="M2272.88,2300.27c220.58-50.51,440.94-160.28,498.54-331.74,77.68-231.18-59.15-436.75-151.05-800.37-68.43-270.74-528.29-284.24-593.49-284.24s-525.06,13.5-593.49,284.24c-91.9,363.62-228.73,569.19-151.05,800.37,57.61,171.45,309.96,281.23,530.55,331.74"/>
    <path class="cls-1" d="M2778.4,1945.62c-2.06,7.63-4.36,15.25-6.97,22.93-57.61,171.41-277.97,281.19-498.58,331.72h-459.94c-220.61-50.53-472.96-160.31-530.57-331.72-1.64-4.78-3.15-9.56-4.48-14.34-67.54-225.47,65.48-429.95,155.55-786.02,68.39-270.77,528.26-284.26,593.44-284.26s525.05,13.49,593.5,284.26c88.86,351.53,219.7,555.32,158.04,777.43Z"/>
    <path class="cls-1" d="M2778.4,1945.62c-2.06,7.63-4.36,15.25-6.97,22.93-57.61,171.41-277.97,281.19-498.58,331.72h-459.94c-220.61-50.53-472.96-160.31-530.57-331.72-1.64-4.78-3.15-9.56-4.48-14.34-67.54-225.47,65.48-429.95,155.55-786.02,68.39-270.77,528.26-284.26,593.44-284.26s525.05,13.49,593.5,284.26c88.86,351.53,219.7,555.32,158.04,777.43Z"/>
    <path class="cls-12" d="M2778.4,1945.64c-2.07,7.63-4.38,15.25-6.99,22.93-57.57,171.38-277.96,281.16-498.55,331.69h-459.97c-220.59-50.53-472.96-160.31-530.53-331.69-1.67-4.77-3.15-9.6-4.48-14.37-29.82-99.49-20.57-194.95,6.84-301.14,34.64-134.38,98.36-285.98,148.7-484.87,23.96-94.82,95.85-158.05,182.01-200.27,159.97-78.29,369.04-83.99,411.4-83.99,65.25,0,525.07,13.48,593.51,284.26,88.86,351.52,219.7,555.33,158.05,777.44Z"/>
    <g class="cls-20">
      <path class="cls-6" d="M1615.43,967.93s-.05.05-.05.1c-184.37,265.61-76.12,440.34-179.7,605.42-39.41,62.84-98.26,79.86-150.96,79.61,34.64-134.38,98.36-285.98,148.7-484.87,23.96-94.82,95.85-158.05,182.01-200.27Z"/>
    </g>
    <g class="cls-20">
      <path class="cls-6" d="M2439.4,967.93s.05.05.05.1c184.37,265.61,76.12,440.34,179.7,605.42,39.41,62.84,98.26,79.86,150.96,79.61-34.64-134.38-98.36-285.98-148.7-484.87-23.96-94.82-95.85-158.05-182.01-200.27Z"/>
    </g>
    <g class="cls-16">
      <path class="cls-9" d="M2532.71,1029.38c-192.88-89.36-453.92-95.7-505.88-95.7s-312.94,6.35-505.78,95.7c156.52-137.04,454.31-145.45,505.78-145.45s349.36,8.41,505.88,145.45Z"/>
    </g>
    <g class="cls-20">
      <path class="cls-6" d="M2778.4,1961.11c-2.06,7.29-4.36,14.59-6.97,21.93-57.61,163.92-277.97,268.9-498.58,317.23l-232.62,17.09-227.31-17.09c-220.61-48.33-472.96-153.31-530.57-317.23-1.64-4.57-3.15-9.14-4.48-13.71,155.37,170.61,471.93,269.45,763.17,271.02,281.67-10.72,583.45-113.42,737.36-279.24Z"/>
    </g>
    <path class="cls-6" d="M2270.68,2290.67c180.07-58.77,430.58-145.8,487.25-346.99,40.9-140-5.19-284.08-49.12-418.1-35.64-106.64-73.01-214.55-101.87-324.08-2.57-8.59-6.03-24.24-8.61-32.55-39.09-139.95-190.88-202.58-321.13-233.31-129.29-29.63-263.93-37.47-395.48-18.92-127.28,18.15-263.61,50.87-359.3,140.85-32.02,31.16-55.88,69.57-67.22,112.22-10.73,41.05-21.92,82.27-34.25,122.83-43.44,151.43-107.72,296-134.23,451.07-16.14,104.24-6.54,221.73,64.68,304.55,115.98,131.31,300.9,188.68,463.69,242.43,11.42,3.6,7.52,20.83-4.39,19.18-192.24-28.37-489.61-142.43-550.83-345.62-46.05-141.01-6.95-290.58,37.26-426.54,35.04-107.87,72.18-213.17,101.57-321.89,5.03-18.62,10.23-38.49,15.11-57.17,13.14-50.26,41.7-96.3,78.31-131.96,103.46-98.23,246.94-134.05,383.75-154.01,136.91-19.92,276.81-11.26,411.42,20.02,162.35,38.77,327.03,117.43,361,297.87,28.36,108.88,64.64,214.5,100.19,321.96,48.31,146.38,95.53,306.92,43.1,459.2-55.03,162.28-228.85,258.43-382.94,307.56-43.75,13.63-88.4,24.01-133.55,30.57-12.13,1.39-15.68-15.41-4.39-19.19h0Z"/>
    <path class="cls-8" d="M2499.33,1845.29c-8.54,166.03-174.21,321.04-472.72,321.04s-464.24-155.01-472.78-321.04c-5.63-110.06,78.93-220.79,269.74-187.17,51.67-24.53,112.24-69.72,203.04-69.72s151.31,45.19,203.04,69.72c190.75-33.62,275.37,77.11,269.67,187.17Z"/>
    <polygon class="cls-11" points="2028.28 1233.61 2028.28 1233.66 2028.18 1233.61 2028.28 1233.61"/>
    <path class="cls-8" d="M1514.36,1559.11c.14,117.35,160.85,204.48,255.17,160.24,87.65-41.12,106.79,117.87,119.72-94.29,20.16-330.66-121.15-315.7-208.42-280.36-89.74,36.33-166.6,103.63-166.47,214.42Z"/>
    <g>
      <path class="cls-10" d="M1587.76,974.37c-14.67-39.24-104.33-65.31-175.1-21.71-121.5,74.85-112.94,42.07-191.33,90.53-102.12,63.13-81.24,166.04-32.31,382,25.12,110.88-29.51,133.41,20.95,176.19,58.84,49.89,173.24-30.38,213.04-234.66,64.14-329.24,183.55-342.12,164.76-392.35Z"/>
      <path class="cls-8" d="M1422.99,1366.74c-39.76,204.25-154.16,284.55-213.01,234.66-37.25-31.59-17.27-52.11-14.32-105.25v-.1c1.03-18.89-.1-41.82-6.64-70.86-48.91-215.96-69.82-318.85,32.33-381.98,78.38-48.47,69.82-15.7,191.31-90.54,61.21-37.69,136.59-23.27,165.33,6.69,4.48,4.67,7.82,9.69,9.79,15.01,18.8,50.24-100.62,63.13-164.79,392.36Z"/>
      <g class="cls-16">
        <path class="cls-9" d="M1582.51,1005.32c-1.33-1.87-2.85-3.64-4.53-5.41-28.74-29.97-104.12-44.38-165.33-6.69-121.49,74.84-112.93,42.07-191.31,90.54-47.53,29.38-68.39,67.36-72.18,121.34-4.53-76.32,13.53-125.67,72.18-161.89,78.38-48.47,69.82-15.7,191.31-90.54,61.21-37.69,136.59-23.27,165.33,6.69,4.48,4.67,7.82,9.69,9.79,15.01,4.08,10.87,1.67,19.98-5.26,30.95Z"/>
      </g>
      <g class="cls-20">
        <path class="cls-6" d="M1422.99,1366.74c-39.76,204.25-154.16,284.55-213.01,234.66-37.25-31.59-17.27-52.11-14.32-105.25.25,2.26,10.47,81.41,44.33,50.96,13.09-11.77,19.69-20.15,8.12-210.23-10.43-171.23,37.05-249.08,43.99-249.08s-32.67,225.8,42.81,333.46c42.66,60.82,26.67-211.88,93.78-310.29,43.4-63.62,134.43-100.53,149.29-151.6,4.48,4.67,7.82,9.69,9.79,15.01,18.8,50.24-100.62,63.13-164.79,392.36Z"/>
      </g>
      <path class="cls-6" d="M1249.11,1635.48c-19.17,0-36.96-6.44-51.87-19.08-35.49-30.09-30.77-57.25-25.77-85.99,4.1-23.58,9.21-52.93-1.65-100.86-48.39-213.59-75.05-331.25,41.16-403.09,37.12-22.95,56.42-28.9,76.84-35.19,23.14-7.13,49.38-15.22,114.52-55.35,51.33-31.63,108.91-29.42,145.68-16.81,29.23,10.02,50.43,27.66,58.18,48.38h0c10.53,28.18-5.67,48.32-26.19,73.81-33.92,42.15-97.06,120.61-137.69,329.2-31.26,160.45-103.56,239.09-160.81,259.19-11.05,3.88-21.94,5.8-32.41,5.8ZM1493.56,949.71c-22.33,0-47.26,5.35-70.58,19.71-69.4,42.76-98.18,51.63-123.57,59.46-18.73,5.77-34.9,10.75-67.74,31.05-88.76,54.87-72.43,144.77-23.47,360.91,12.6,55.61,6.5,90.69,2.04,116.3-4.62,26.56-5.86,33.7,12.45,49.22,12.3,10.43,27.71,12.5,45.78,6.16,48.34-16.97,108.9-94.54,135.2-229.57,42.5-218.15,109.61-301.55,145.67-346.35,18.11-22.5,22.35-29.01,19.98-35.34h0c-2.74-7.34-13.14-17.75-34.08-24.93-11.65-3.99-26.03-6.62-41.68-6.62Z"/>
    </g>
    <g>
      <path class="cls-10" d="M2468.81,974.37c14.67-39.24,104.33-65.31,175.1-21.71,121.5,74.85,112.94,42.07,191.33,90.53,102.12,63.13,81.24,166.04,32.31,382-25.12,110.88,29.51,133.41-20.95,176.19-58.84,49.89-173.24-30.38-213.04-234.66-64.14-329.24-183.55-342.12-164.76-392.35Z"/>
      <path class="cls-8" d="M2633.58,1366.74c39.76,204.25,154.16,284.55,213.01,234.66,37.25-31.59,17.27-52.11,14.32-105.25v-.1c-1.03-18.89.1-41.82,6.64-70.86,48.91-215.96,69.82-318.85-32.33-381.98-78.38-48.47-69.82-15.7-191.31-90.54-61.21-37.69-136.59-23.27-165.33,6.69-4.48,4.67-7.82,9.69-9.79,15.01-18.8,50.24,100.62,63.13,164.79,392.36Z"/>
      <g class="cls-16">
        <path class="cls-9" d="M2474.06,1005.32c1.33-1.87,2.85-3.64,4.53-5.41,28.74-29.97,104.12-44.38,165.33-6.69,121.49,74.84,112.93,42.07,191.31,90.54,47.53,29.38,68.39,67.36,72.18,121.34,4.53-76.32-13.53-125.67-72.18-161.89-78.38-48.47-69.82-15.7-191.31-90.54-61.21-37.69-136.59-23.27-165.33,6.69-4.48,4.67-7.82,9.69-9.79,15.01-4.08,10.87-1.67,19.98,5.26,30.95Z"/>
      </g>
      <g class="cls-20">
        <path class="cls-6" d="M2633.58,1366.74c39.76,204.25,154.16,284.55,213.01,234.66,37.25-31.59,17.27-52.11,14.32-105.25-.25,2.26-10.47,81.41-44.33,50.96-13.1-11.77-19.69-20.15-8.12-210.23,10.43-171.23-37.05-249.08-43.99-249.08s32.67,225.8-42.81,333.46c-42.66,60.82-26.67-211.88-93.78-310.29-43.4-63.62-134.43-100.53-149.29-151.6-4.48,4.67-7.82,9.69-9.79,15.01-18.8,50.24,100.62,63.13,164.79,392.36Z"/>
      </g>
      <path class="cls-6" d="M2807.47,1635.48c-10.47,0-21.35-1.92-32.41-5.8-57.25-20.1-129.55-98.74-160.81-259.18-40.63-208.59-103.77-287.05-137.69-329.2-20.52-25.49-36.72-45.63-26.19-73.81,7.75-20.72,28.96-38.36,58.18-48.38,36.76-12.61,94.34-14.82,145.68,16.81,65.15,40.13,91.38,48.22,114.52,55.35,20.42,6.3,39.71,12.24,76.84,35.19,116.21,71.84,89.56,189.49,41.16,403.09-10.85,47.92-5.75,77.28-1.65,100.86,5,28.75,9.72,55.91-25.77,86-14.91,12.64-32.7,19.08-51.87,19.08ZM2563.01,949.71c-15.65,0-30.03,2.63-41.68,6.62-20.94,7.19-31.34,17.59-34.08,24.93h0c-2.37,6.34,1.87,12.84,19.98,35.34,36.05,44.8,103.17,128.2,145.67,346.36,26.3,135.03,86.86,212.6,135.21,229.57,18.08,6.34,33.48,4.27,45.78-6.16,18.31-15.52,17.07-22.66,12.45-49.23-4.45-25.62-10.56-60.69,2.04-116.3,48.96-216.14,65.3-306.04-23.47-360.91-32.84-20.3-49.01-25.28-67.74-31.06-25.39-7.82-54.16-16.69-123.57-59.45-23.32-14.37-48.25-19.71-70.58-19.71ZM2468.81,974.37h.05-.05Z"/>
    </g>
    <path class="cls-8" d="M2537.36,1559.11c-.14,117.35-160.85,204.48-255.17,160.24-87.65-41.12-106.79,117.87-119.72-94.29-20.16-330.66,121.15-315.7,208.42-280.36,89.74,36.33,166.6,103.63,166.47,214.42Z"/>
    <path class="cls-6" d="M2028.23,2117.21c-144.17,0-261.39-155.97-266.31-162.61l-12.23-16.5,278.54-188.56,278.54,188.56-12.23,16.5c-4.92,6.64-122.15,162.61-266.31,162.61ZM1806.57,1947.13c32.63,38.02,122.39,130.72,221.66,130.72s189.01-92.69,221.66-130.72l-221.66-150.05-221.66,150.05Z"/>
    <path class="cls-24" d="M2167.7,1911.27s-63.8,86.1-139.47,86.1-139.47-86.1-139.47-86.1l139.47-94.41,139.47,94.41Z"/>
    <path class="cls-23" d="M2167.7,1904.97s-2.44,192.56-139.47,192.56-139.47-192.56-139.47-192.56l139.47-145.23,139.47,145.23Z"/>
    <path class="cls-22" d="M2167.7,1904.97s-2.44,192.56-139.47,192.56-139.47-192.56-139.47-192.56l139.47-145.23,139.47,145.23Z"/>
    <path class="cls-23" d="M2137.32,1902.13s-1.91,150.61-109.09,150.61-109.09-150.61-109.09-150.61l109.09-113.59,109.09,113.59Z"/>
    <path class="cls-6" d="M2048.72,1856.2c0,43.9-20.44,128.21-20.44,128.21,0,0-20.44-84.31-20.44-128.21s9.15-30.77,20.44-30.77,20.44-13.14,20.44,30.77Z"/>
    <path class="cls-6" d="M2028.23,2117.21c-123.76,0-158.22-138.67-159.15-211.99l-.1-8.06,159.25-165.83,159.25,165.83-.1,8.06c-.93,73.32-35.39,211.99-159.16,211.99ZM1908.76,1912.56c2.02,34.17,16.49,165.29,119.46,165.29s117.44-131.08,119.47-165.29l-119.47-124.4-119.46,124.4Z"/>
    <path class="cls-8" d="M2415.3,1781.12s45.89,193.8-136.11,234.1c-149.65,33.14-225.9-98.7-252.56-158.98-26.66,60.28-102.91,192.12-252.56,158.98-182-40.3-136.11-234.1-136.11-234.1,0,0,96.6-97.39,388.94-97.39s388.42,97.39,388.42,97.39Z"/>
    <g class="cls-20">
      <path class="cls-6" d="M2416.15,1880c-10.63,54.27-44.24,114.65-136.94,135.22-149.68,33.16-225.9-98.71-252.57-158.98-26.67,60.28-102.94,192.15-252.57,158.98-99.35-21.99-130.79-89.7-138.86-146.68,17.86,9.1,38.38,16.68,61.9,22.34,192.2,46.2,293.61-122.08,329.33-199.18,33.02,78.33,128.33,250.11,322.05,210.84,25.93-5.27,48.32-12.99,67.66-22.54Z"/>
    </g>
    <path class="cls-6" d="M2422.96,1779.31c25.69,95.41-2.19,201.85-99.69,242.57-72.81,31.69-153.64,26.85-217.71-21.67-46-34.54-78-82.74-101.44-134.01,0,0,45,0,45,0-47.37,107.96-141.94,197.89-268.08,171.98-57.1-10.63-112-42.35-138.81-95.48-13.17-25.95-19.73-54.09-21.24-81.76-1.42-27.87,1.14-54.76,8.41-81.84,1.28-4.68,6.11-7.44,10.79-6.16,4.52,1.22,7.18,5.74,6.31,10.21-9.28,70.04,7.94,155.08,74.58,190.95,39.97,22.28,92.07,30.39,136.57,19.29,70.53-18.95,117.06-81.41,146.48-147.1,0,0,22.55-51.14,22.55-51.14l22.44,51.14c29.31,65.76,75.84,128.38,146.4,147.44,44.62,11.21,96.8,3.15,136.96-19.13,43.06-23.26,67.22-68.3,74.25-116.29,3.78-24.54,4.2-50.83.9-75.37-1.89-9.74,12.56-13.29,15.33-3.63h0Z"/>
    <path class="cls-6" d="M2032.8,1738.81l18.19,117.21c4.05,32.6-43.09,39.96-49.14,7.63-.37-2.4-.37-4.89-.07-7.18l16.07-117.52c1.18-8.53,13.64-8.6,14.94-.13h0Z"/>
    <path class="cls-8" d="M2468.45,1269.59c44.39-51.87-173.97-155.8-194.19-73.04-7.84,32.08,26.28,57.45,75.11,72.27,66.78,20.26,102.41,20.26,119.09.78Z"/>
    <path class="cls-8" d="M1586.14,1269.59c-44.39-51.87,173.97-155.8,194.19-73.04,7.84,32.08-26.28,57.45-75.11,72.27-66.78,20.26-102.41,20.26-119.09.78Z"/>
    <path class="cls-8" d="M1706.14,1712.58c58.66-44.23,154.87-124.18,319.19-124.18h1.29c164.33,0,260.53,79.95,319.19,124.18"/>
    <g class="cls-16">
      <path class="cls-9" d="M2345.83,1712.6h-4.97c-71.84-47.73-172.12-96.64-314.08-96.64h-1.57c-141.96,0-242.29,48.91-314.13,96.64h-4.97c58.7-44.24,154.9-124.19,319.19-124.19h1.33c164.3,0,260.49,79.96,319.19,124.19Z"/>
    </g>
    <path class="cls-6" d="M1701.69,1706.68c44.53-38.54,93.25-74.64,148.28-97.74,138.42-59.39,307.04-43.26,430.56,43.3,24.67,16.72,47.53,35.56,69.72,54.44,3.14,2.63,3.53,7.33.88,10.45-2.47,2.9-6.68,3.42-9.76,1.34-24.34-16.42-47.83-33.27-72.64-47.68-121.14-74.41-276.24-88.49-408.85-37.51-26.44,10.21-52.03,22.87-76.66,37.52-24.81,14.41-48.3,31.26-72.65,47.67-7.44,5.01-16.05-5.61-8.89-11.79h0Z"/>
    <path class="cls-6" d="M2028.28,2397.87c-564.12,0-1023.07-458.95-1023.07-1023.07s458.95-1023.07,1023.07-1023.07,1023.07,458.95,1023.07,1023.07-458.95,1023.07-1023.07,1023.07ZM2028.28,391.1c-542.42,0-983.7,441.29-983.7,983.7s441.28,983.7,983.7,983.7,983.7-441.29,983.7-983.7-441.28-983.7-983.7-983.7Z"/>
    <path class="cls-25" d="M2513.65,2355.03c-123.5,170.14-485.5,159.91-485.5,159.91,0,0-361.9,10.23-485.35-159.91-32.73-45.05-31.71-84.38-20.92-113.83,148.66,87.09,321.71,137,506.42,137s357.71-49.91,506.31-136.95c10.74,29.46,11.71,68.78-20.97,113.78Z"/>
    <path class="cls-2" d="M2529.96,2327.62c-4.08,8.86-9.45,18.01-16.29,27.41-123.51,170.15-485.51,159.92-485.51,159.92,0,0-361.91,10.23-485.36-159.92-6.79-9.35-12.15-18.45-16.24-27.31,165.48,141.91,501.55,132.41,501.55,132.41,0,0,336.37,9.5,501.84-132.51Z"/>
    <path class="cls-6" d="M2042.22,2534.78c-7.23,0-12.06-.1-14.07-.15-21.72.6-374.48,6.72-501.28-168.04-39.49-54.37-34.56-101.88-23.47-132.16l8.11-22.12,20.32,11.91c149.98,87.86,321.66,134.3,496.47,134.3s346.41-46.42,496.37-134.25l20.36-11.92,8.08,22.17c11.04,30.27,15.91,77.77-23.53,132.08-115.13,158.6-416.39,168.18-487.35,168.18ZM2028.14,2495.25h.56c3.51.12,353.1,7.92,469.02-151.78h0c17.63-24.28,25.52-48.41,23.6-72.04-150.36,82.8-320.22,126.45-493.02,126.45s-342.77-43.67-493.16-126.51c-1.96,23.63,5.93,47.79,23.58,72.1,115.89,159.71,465.39,151.92,468.87,151.8h.55Z"/>
    <path class="cls-6" d="M1862.86,2884.09c-5.18,0-9.52-4.05-9.81-9.28-.1-1.7-10.88-171.29-110.76-247.44-93.73-71.46-229.33-50.86-251.36-28.15-3.78,3.91-10.02,3.98-13.92.21-3.9-3.78-4-10.01-.21-13.92,30.83-31.78,176.85-50.48,277.43,26.2,107.15,81.7,118.07,254.66,118.48,261.99.31,5.42-3.84,10.07-9.27,10.38-.19,0-.38.01-.57.01Z"/>
    <path class="cls-6" d="M2193.78,2884.1c-.19,0-.38,0-.56-.02-5.43-.3-9.58-4.95-9.27-10.38.41-7.32,11.32-180.29,118.48-261.99,100.58-76.67,246.61-57.98,277.43-26.2,3.78,3.9,3.69,10.13-.21,13.92-3.89,3.77-10.12,3.7-13.92-.21-22.03-22.72-157.64-43.32-251.36,28.15-100.02,76.25-110.66,245.73-110.76,247.44-.29,5.24-4.63,9.29-9.81,9.29Z"/>
    <path class="cls-6" d="M1978.27,2690.41c5.62,86.69,6.38,176.96,8,263.94.92,87.03,2.77,177.1.75,264-13.79-87.28-18.75-175.5-20.43-263.72-.83-88.23,1.6-176.46,11.67-264.22h0Z"/>
    <path class="cls-6" d="M2078.28,2690.41c10.07,87.76,12.5,175.99,11.67,264.22-1.68,88.22-6.64,176.44-20.42,263.72-2.02-86.84-.16-177.02.75-264,1.63-87.02,2.38-177.18,8-263.94h0Z"/>
    <path class="cls-6" d="M2174.22,1700.85c.7,39.33-64.43,86.2-145.78,87.65-81.35,1.45-148.12-43.05-148.82-82.39-.7-39.33,65-54.37,146.35-55.83,81.35-1.45,147.55,11.23,148.25,50.56Z"/>
    <g class="cls-16">
      <path class="cls-9" d="M2092.06,1682.75c.18,9.8-28.78,21.7-64.76,22.35-35.97.64-65.34-10.22-65.51-20.02s28.92-13.78,64.9-14.42c35.97-.64,65.2,2.29,65.37,12.09Z"/>
    </g>
    <ellipse class="cls-26" cx="2521.06" cy="2708.99" rx="69.18" ry="98.7" transform="translate(-349.71 373.81) rotate(-7.93)"/>
    <path class="cls-26" d="M2534.68,2806.73c-37.84,5.26-74.64-34.2-82.17-88.18-7.48-54.03,17.07-102.05,54.91-107.32,37.84-5.27,74.64,34.2,82.17,88.22.1.59.15,1.18.2,1.77.29,1.87.49,3.74.64,5.61,4.43,50.93-19.63,94.87-55.75,99.89Z"/>
    <g class="cls-16">
      <path class="cls-9" d="M2580.94,2767.71c2.8-12.4,3.79-26.08,2.56-40.25-.15-1.87-.34-3.74-.64-5.61-.05-.59-.1-1.18-.2-1.77-7.53-54.03-44.33-93.49-82.17-88.23-20.08,2.8-36.41,17.62-46.2,38.97,7.38-32.13,27.11-55.95,53.14-59.59,37.84-5.27,74.64,34.2,82.17,88.22.1.59.15,1.18.2,1.77.29,1.87.49,3.74.64,5.61,1.97,22.59-1.67,43.84-9.5,60.87Z"/>
    </g>
    <path class="cls-7" d="M2590.63,2728.24c-2.9,41.33-25,74.2-55.95,78.48-37.84,5.26-74.64-34.2-82.17-88.18-3.39-24.6-.2-47.93,7.92-66.57-.69,9.3-.39,18.99.98,28.93,7.53,53.98,44.33,93.44,82.17,88.18,20.67-2.85,37.4-18.45,47.04-40.84Z"/>
    <path class="cls-3" d="M2551.85,2767.17c-2.46,8.51-5.81,17.52-10.19,28.39,1.82-10.19,2.95-18.75,3.49-26.77,2.26-.34,4.53-.89,6.69-1.62Z"/>
    <g class="cls-17">
      <path class="cls-9" d="M1905.94,689.72c14.82,73.92-173.88,171.17-316.84,308.31-174.9,167.78-246.99,378.29-317.76,365.72-112.98-20.07-50.33-444.78,185.41-637.36,198.88-162.46,429.78-133.53,449.19-36.66Z"/>
    </g>
    <path class="cls-9" d="M2590.43,2706.84c-10.28,3.79-18.01,6.64-30.61,11.22-2.21,31.15-5.81,47.04-18.16,77.5,5.22-29.77,5.22-45.37.25-75.83-16.88-2.95-25.34-4.38-42.41-7.28,16.24-6,24.31-8.96,40.35-14.91-.74-30.9-3.59-46.2-14.22-74.55,17.76,27.65,24.26,42.66,32.13,72.87,13.19,2.16,21.31,3.54,32.03,5.36.29,1.87.49,3.74.64,5.61Z"/>
    <path class="cls-3" d="M2551.85,2767.17c-2.46,8.51-5.81,17.52-10.19,28.39,1.82-10.19,2.95-18.75,3.49-26.77,2.26-.34,4.53-.89,6.69-1.62Z"/>
    <g>
      <path class="cls-6" d="M1824.63,1541.32c3.12,70.17-39.9,129.64-96.08,132.83s-104.26-51.1-107.38-121.27c-3.12-70.17,39.9-129.64,96.08-132.83s104.26,51.1,107.38,121.27Z"/>
      <ellipse class="cls-9" cx="1756.65" cy="1521.27" rx="34.26" ry="50.5" transform="translate(-50.6 60.47) rotate(-1.94)"/>
      <g class="cls-18">
        <path class="cls-9" d="M1699.71,1594.3c8.82,15.7,9.16,31.77.76,35.9-8.4,4.12-22.35-5.27-31.17-20.97s-9.16-31.77-.76-35.9c8.4-4.12,22.35,5.27,31.17,20.97Z"/>
      </g>
    </g>
    <g>
      <path class="cls-6" d="M2227.31,1541.32c-3.12,70.17,39.9,129.64,96.08,132.83,56.19,3.19,104.26-51.1,107.38-121.27,3.12-70.17-39.9-129.64-96.08-132.83s-104.26,51.1-107.38,121.27Z"/>
      <ellipse class="cls-9" cx="2295.29" cy="1521.27" rx="50.5" ry="34.26" transform="translate(697.02 3763.63) rotate(-88.06)"/>
      <g class="cls-18">
        <path class="cls-9" d="M2352.23,1594.3c-8.82,15.7-9.16,31.77-.76,35.9,8.4,4.12,22.35-5.27,31.17-20.97,8.82-15.7,9.16-31.77.76-35.9-8.4-4.12-22.35,5.27-31.17,20.97Z"/>
      </g>
    </g>
    <path class="cls-6" d="M2528,2817.04c-40.2,0-77.47-41.56-85.21-97.15-3.92-28.1.14-55.71,11.43-77.76,11.87-23.2,30.29-37.64,51.87-40.64,43.14-6.04,84.99,37.31,93.25,96.59h0c3.92,28.1-.15,55.71-11.43,77.76-11.88,23.21-30.29,37.64-51.87,40.64-2.69.38-5.37.56-8.04.56ZM2514.34,2620.59c-1.84,0-3.69.13-5.54.39-15.03,2.09-28.19,12.79-37.06,30.12-9.46,18.49-12.81,41.95-9.45,66.08,6.76,48.52,38.59,84.35,71.04,79.81,15.03-2.09,28.19-12.79,37.06-30.12,9.45-18.48,12.81-41.95,9.45-66.08-6.38-45.75-35.07-80.2-65.5-80.2Z"/>
    <g>
      <path class="cls-9" d="M818.95,1021.39c23.43-38.33,34.98-84.35,30.04-132.49-12-116.85-116.44-201.84-233.29-189.85-116.85,12-201.84,116.44-189.85,233.29,12,116.85,116.44,201.84,233.29,189.85,32.5-3.34,62.52-13.85,88.69-29.76l98.42,22.07-27.31-93.11Z"/>
      <g class="cls-19">
        <path class="cls-9" d="M619.88,739.75c109.15-11.21,207.46,62.23,229.72,167.2.03-7.5-.3-15.06-1.08-22.69-12-116.85-116.44-201.84-233.29-189.85-116.85,12-201.84,116.44-189.85,233.29.79,7.66,1.99,15.17,3.55,22.54.41-107.35,81.76-199.29,190.95-210.5Z"/>
      </g>
      <path class="cls-6" d="M637.25,1142.03c-117.06,0-217.79-88.84-230-207.77-13.03-126.92,79.62-240.78,206.54-253.81,61.51-6.33,121.74,11.7,169.68,50.71,47.93,39.01,77.81,94.36,84.13,155.84,4.93,47.99-4.88,95.13-28.42,136.89l25.04,85.35c1.87,6.36.23,13.23-4.3,18.06-4.53,4.83-11.29,6.91-17.74,5.46l-91.24-20.46c-27.71,15.64-57.91,25.23-89.88,28.51-7.99.82-15.94,1.22-23.8,1.22ZM637.57,716.64c-6.61,0-13.25.33-19.96,1.02-106.4,10.93-184.07,106.37-173.14,212.77,10.92,106.4,106.46,184.07,212.77,173.15,28.96-2.97,56.17-12.1,80.88-27.14,4.14-2.52,9.1-3.33,13.81-2.27l67.44,15.12-18.37-62.64c-1.49-5.06-.77-10.52,1.99-15.02,22.29-36.47,31.77-78.25,27.39-120.82-10.23-99.69-94.69-174.17-192.81-174.17Z"/>
      <g class="cls-21">
        <path class="cls-6" d="M820.15,1019.35c-58.25,49.27-138.51,70.85-218.2,51.02-88.38-22-153.5-89.3-176.92-170.98-.56,10.83-.31,21.84.83,32.96,12,116.85,116.44,201.84,233.29,189.85,32.5-3.34,62.52-13.85,88.69-29.76l98.42,22.07-27.31-93.11c.41-.67.79-1.37,1.19-2.04Z"/>
      </g>
      <path class="cls-14" d="M705.43,850.9h0c-18.41-18.41-48.25-15.11-66.65,3.3l-2.86,2.86-2.86-2.86c-18.41-18.41-48.25-21.7-66.65-3.3h0c-18.41,18.41-18.41,48.25,0,66.65l2.86,2.86,57.87,57.87c4.85,4.85,12.72,4.85,17.57,0l57.87-57.87,2.86-2.86c18.41-18.41,18.41-48.25,0-66.65Z"/>
    </g>
  </g>
</svg>