<?xml version="1.0" encoding="UTF-8"?>
<svg id="Livello_1" xmlns="http://www.w3.org/2000/svg" xmlns:xlink="http://www.w3.org/1999/xlink" version="1.1" viewBox="0 0 1736 1541.8">
  <!-- Generator: Adobe Illustrator 29.5.1, SVG Export Plug-In . SVG Version: 2.1.0 Build 141)  -->
  <defs>
    <style>
      .st0 {
        fill: #68698f;
      }

      .st1 {
        fill: #a6948a;
      }

      .st2 {
        fill: #8bc6dc;
      }

      .st3 {
        fill: #b0d8e3;
      }

      .st4 {
        fill: #cecdcd;
      }

      .st5 {
        fill: #eed46b;
      }

      .st6 {
        fill: #705164;
      }

      .st7 {
        fill: #ae90d4;
      }

      .st8 {
        fill: #eac839;
      }

      .st9 {
        fill: #400e1d;
      }

      .st10 {
        fill: #167da4;
      }

      .st11 {
        fill: #ebd5e1;
      }

      .st12 {
        fill: #a6bfd0;
      }

      .st13 {
        fill: #705f94;
      }

      .st14 {
        fill: #bfa5bf;
      }

      .st15 {
        fill: #eac3b5;
      }

      .st16 {
        fill: #78a3cd;
      }

      .st17 {
        fill: #8f73a9;
      }

      .st18 {
        fill: #3d4560;
      }

      .st19 {
        fill: #694f94;
      }

      .st20 {
        fill: #a0a6b5;
      }

      .st21 {
        stroke: #062230;
        stroke-miterlimit: 10;
        stroke-width: .2px;
      }

      .st21, .st22 {
        fill: #18517c;
      }

      .st23 {
        fill: #6478a5;
      }

      .st24 {
        fill: #f4cebd;
      }

      .st25 {
        fill: #e4edf0;
      }

      .st26 {
        fill: #79818f;
      }

      .st27 {
        fill: #9180c8;
      }

      .st28 {
        fill: #7e8cc3;
      }

      .st29 {
        fill: #398aad;
      }

      .st30 {
        fill: #152360;
      }

      .st31 {
        fill: #3b61a6;
      }

      .st32 {
        fill: #121019;
      }

      .st33 {
        fill: #b9aadd;
      }

      .st34 {
        fill: #b197b9;
      }

      .st35 {
        fill: #4877b3;
      }

      .st36 {
        fill: #8e8f93;
      }

      .st37 {
        fill: #252f43;
      }

      .st38 {
        fill: #875099;
      }

      .st39 {
        fill: #bbd1d8;
      }

      .st40 {
        fill: #22384d;
      }

      .st41 {
        fill: #f4ebcc;
      }

      .st42 {
        fill: #c7bcda;
      }

      .st43 {
        fill: #b7b1af;
      }

      .st44 {
        fill: #f6c1ad;
      }

      .st45 {
        fill: #2a6178;
      }

      .st46 {
        fill: #9f8d95;
      }

      .st47 {
        fill: #846e90;
      }

      .st48 {
        fill: #8ad2e3;
      }

      .st49 {
        fill: #bdc5de;
      }

      .st50 {
        fill: #498cba;
      }

      .st51 {
        fill: #fffeff;
      }

      .st52 {
        fill: #7275b5;
      }

      .st53 {
        fill: #826bb7;
      }

      .st54, .st55 {
        fill: #88b9e2;
      }

      .st56 {
        fill: #47576f;
      }

      .st57 {
        fill: #5957b1;
      }

      .st58 {
        fill: #9d9596;
      }

      .st59 {
        fill: #b09f9e;
      }

      .st60 {
        fill: #4b4a87;
      }

      .st61 {
        fill: #c1d0d6;
      }

      .st62 {
        fill: #289dbb;
      }

      .st63 {
        fill: #d67359;
      }

      .st64 {
        fill: #e9cebf;
      }

      .st65 {
        fill: #b85055;
      }

      .st66 {
        fill: #982e3e;
      }

      .st67 {
        fill: #091c3a;
      }

      .st68 {
        fill: #dcb7b1;
      }

      .st69 {
        fill: #3c3539;
      }

      .st70 {
        fill: #567c84;
      }

      .st71 {
        fill: #9fc5cd;
      }

      .st72 {
        fill: #5b3a74;
      }

      .st73 {
        fill: #fddb58;
      }

      .st74 {
        fill: #6d93a7;
      }

      .st75 {
        fill: #a787a1;
      }

      .st76 {
        fill: #495b5e;
      }

      .st55 {
        fill-rule: evenodd;
      }

      .st77 {
        fill: #e4bfd1;
      }

      .st78 {
        fill: #fbc642;
      }

      .st79 {
        fill: url(#Sfumatura_senza_nome);
      }

      .st80 {
        fill: #e6e1df;
      }

      .st81 {
        fill: #57acc1;
      }

      .st82 {
        fill: #e5e0ef;
      }

      .st83 {
        fill: #dcc1e3;
      }

      .st84 {
        fill: #767d8f;
      }

      .st85 {
        fill: #38376a;
      }

      .st86 {
        fill: #2c465a;
      }

      .st87 {
        fill: #e7a888;
      }

      .st88 {
        fill: #394c54;
      }

      .st89 {
        fill: #3552a7;
      }

      .st90 {
        fill: #0b3679;
      }

      .st91 {
        fill: #658197;
      }

      .st92 {
        fill: #f19811;
      }

      .st93 {
        fill: #0a133c;
      }

      .st94 {
        fill: #72a9b2;
      }

      .st95 {
        fill: #c59e88;
      }

      .st96 {
        fill: #161d2b;
      }

      .st97 {
        fill: #236b92;
      }

      .st98 {
        fill: #d9dce1;
      }

      .st99 {
        fill: #9b9cd3;
      }

      .st100 {
        fill: #87aebe;
      }

      .st101 {
        fill: #77bacb;
      }

      .st102 {
        fill: #ce574f;
      }

      .st103 {
        fill: #aaadd7;
      }

      .st104 {
        fill: #fdfdfd;
      }
    </style>
    <linearGradient id="Sfumatura_senza_nome" data-name="Sfumatura senza nome" x1="716.6" y1="1195.9" x2="786.5" y2="1107.6" gradientTransform="translate(149.7 1684.2) rotate(-5.6) scale(1 -1)" gradientUnits="userSpaceOnUse">
      <stop offset="0" stop-color="#12517d"/>
      <stop offset="1" stop-color="#102e61"/>
    </linearGradient>
  </defs>
  <path class="st100" d="M597,854.6l4.8-3.2c.3-1.3-11.9-5.2-8.4-9.6,2.6,1.9,20.4,12.3,20.4,14.7-10.7,12.8-9.9,3-16.8-1.9Z"/>
  <path class="st16" d="M772,550.2c1.8,1.2,8.5,4.2,10.8,5.1l-6,5.8c8.3-.6,8.2-4.5,14.4,3.8,12.3,16.6,10.9,59.5,12,80.6,0,1.3,3.9,4.7,3.6,6.4-.5,2.9-34.8,37.1-39.6,41.6-3.6,0-4.2,1-2.4-3.2,2.8-6.7,12-15.9,15.6-23,9.7-19.6,18.5-46.5,12-68.4l-1.2-1.3c6.9-9.7-5.5-25.7-12.6-32-2.4-2.2-8.6-3.5-9-3.8-10.6-8.5-10-9.3-3.6-20.5-1,6.2,2.2,6.4,6,9h0Z"/>
  <path class="st48" d="M791.2,597.5l1.2,1.3c-4.3,6.8-3.3,16.9-6,24.9-8.6,25.1-41.2,62.1-61.1,78.7-12.3-17.5-19.5-12.6-33.6-19.2,3.8-4.7,13.6-13.8,8.4-20.5,1.7-3.5,13.5-27.9,15-28.1s9.2,4.9,12,5.1c39.4,3.1,34.6-26.4,64.1-42.2h0Z"/>
  <path class="st16" d="M792.4,598.8c6.5,22-2.3,48.9-12,68.4-3.5,7.1-12.7,16.3-15.6,23-1.8,4.2-1.2,3.1,2.4,3.2-10.6,10-21.3,19.6-33,28.1-2.7-6.5-4.9-13.4-9-19.2,20-16.5,52.6-53.6,61.1-78.7,2.7-8,1.7-18.1,6-24.9h0Z"/>
  <path class="st16" d="M885.9,788.1l43.1,17.9c10.9,41.5,18.9,84.6,16.8,127.9-7.7-25.4-12.8-53.4-25.2-76.8,22.4,1.6,3.8-38.9-3.6-47.3-7.5-8.6-26.5-16.2-37.2-17.9-2.2-.4-8.4-2.4-9.6-.6l2.4,13.4c-7.7-5.2-17.4-8.7-25.2-14.1,1.2-5.2,17.4-6.5,4.8-9.6l6-1.9c9.3,2.5,18.6,5.5,27.6,9h.1Z"/>
  <path class="st60" d="M901.5,784.3c-6.2-.7-53.3-9.8-55.7-11.5-5.2-3.6-.9-6-.6-11.5,8.4,1.2,68,9.6,69.5,13.4s-2.3,6.3-1.2,9c-.4.5-10.7.8-12,.6Z"/>
  <path class="st54" d="M879.9,792c0,3.2,0,8,1.2,10.9,1.1,2.7,35,42.5,37.8,42.9,8.1,1,2.1-21,.6-26.2s-7.8-8.5-2.4-9.6c7.4,8.4,26,48.9,3.6,47.3-11.3-21.5-28.7-39.4-47.9-52.5l-2.4-13.4c1.2-1.7,7.4.3,9.6.6h0Z"/>
  <path class="st58" d="M854.7,534.8c-4.3-2.8-7.7,0-10.8,0-4.8,0-15.4-5-15.6,5.1-2.2-.2-2.6-1.2-3.6-1.3,1.6-1.4,1.9-4.3,2.4-5.1,7-12,15.6-19.5,27.6-25.6,2.4,1,9.9.6,10.8,3.2-1.7,9.1-5.4,16.5-10.8,23.7h0Z"/>
  <path class="st16" d="M924.3,792c1.7,4.9,3.4,8.9,4.8,14.1l-43.1-17.9,38.4,3.8h-.1Z"/>
  <path class="st4" d="M796,525.9l31.2,7.7c-.5.8-.8,3.8-2.4,5.1-13.6-1.4-25.2-4.4-38.4-6.4-.3-5.3,7.2-5.1,9.6-6.4h0Z"/>
  <path class="st16" d="M858.3,779.2l-6,1.9c12.6,3.1-3.6,4.4-4.8,9.6-1.8-1.2-8.1-3.7-8.4-5.8s4.4-9.8,4.8-10.2,11.8,3.8,14.4,4.5Z"/>
  <path class="st4" d="M844,534.8v5.1c-5.1,0-10.5.4-15.6,0,.2-10.1,10.8-5.3,15.6-5.1Z"/>
  <path class="st48" d="M917.1,809.9c-5.4,1.1,1.7,7.3,2.4,9.6,1.5,5.2,7.5,27.2-.6,26.2-2.7-.3-36.6-40.2-37.8-42.9-1.2-2.9-1.3-7.7-1.2-10.9,10.7,1.7,29.7,9.3,37.2,17.9h0Z"/>
  <path class="st59" d="M948.2,513.1c-7.1,3.9-13.7,9.2-21.6,11.5-.5-.2-2,.5-2.4-.6s0-3.1,0-4.5,0-1.7,0-2.6c7.1-.9,19-12.4,24-3.8h0Z"/>
  <path class="st101" d="M1107.7,1010.7c1.3,6-1,7.5-2.4,11.5,0-1.2-.3-1.1-1.2-1.3,4.6-11.2-4.8-6.2-5.4-6.4-12.8-4.4-22.9-5.5-36.6-2.6s-16.2,6.3-17.4,7.7c-3.3,3.7,2.6,6.3-1.8,10.2-1.3.6-9.5,8.8-10.2,9l-13.8-5.8c22-25.1,58.4-41.7,88.7-22.4h0Z"/>
  <path class="st100" d="M1087.3,1020.9c5.8.3,12,3.2,18,2.6-.7,1.6-1.7,2.7-2.4,3.8-12.6,6.3-26.8,2.7-40.2,7.7-8,3-21.3,14.4-26.4,20.5-15.4-22.7,35.5-35.3,50.9-34.5h0Z"/>
  <path class="st45" d="M1096.9,1019.7c2.4.3,4.8.9,7.2,1.3s1.3,0,1.2,1.3c0,.4,0,.9,0,1.3-6,.6-12.2-2.3-18-2.6v-2.6c1.8,0,7.2.9,9.6,1.3h0Z"/>
  <path class="st39" d="M1062.1,1012l22.2,1.3,12.6,6.4c-2.3-.3-7.8-1.3-9.6-1.3-15.9,0-30.2,4.5-44.3,11.5,4.4-3.9-1.5-6.6,1.8-10.2,1.2-1.4,14.8-7.1,17.4-7.7h0Z"/>
  <path class="st100" d="M927.9,1044c.3,3.2-2,4.5-3.6,6.4-4.3-.6-8.9-2-13.2-2.6,2-3.6,2.1-3.3-1.8-3.8-7.7-1.1-30.2-2.1-33,6.4-7.9,2.6-12.4,5.4-19.2,10.2,1.7-3.3,2.4-11.4,2.4-15.4,21.1-12.6,46.7-10.4,68.3-1.3h0Z"/>
  <path class="st101" d="M923.1,1027.3l4.2,6.4c-15.1-3.4-45-10.2-58.1-1.3-4.9.9-3.5-2.3-3.6-6.4,20.6-7.4,37.4-7.9,57.5,1.3h0Z"/>
  <path class="st100" d="M869.1,1032.5c-.7.5-3.3,6.2-3.6,6.4-5.3,3.6-19.8,15.4-23.4,5.1s17.3-15.7,23.4-17.9c0,4.1-1.3,7.3,3.6,6.4Z"/>
  <path class="st25" d="M911.1,1047.8c-14.1-1.8-21.1-1.9-34.8,2.6,2.8-8.4,25.2-7.5,33-6.4,3.9.6,3.8.2,1.8,3.8Z"/>
  <path class="st25" d="M1104.1,1020.9c-2.4-.4-4.8-.9-7.2-1.3l-12.6-6.4-22.2-1.3c13.6-2.9,23.8-1.8,36.6,2.6.6.2,10-4.8,5.4,6.4h0Z"/>
  <path class="st18" d="M1216.7,461.9h1.2c-.2,2.3-4.1,4.1-4.8,5.1s-3.9,1.9-2.4,5.8,17.7,15.4,20.4,17.3c8.7,6.2,11.2,14.3,16.8-2.6,0,0,1.4-.2,1.2,1.3-9.7,19.6-6.3,32.5-10.8,51.2-1.1,0-1.3-1.3-2.4-1.3-1.7,0-2.3.4-3.6,1.3-3.2,2-1.2,1.1-2.4,2.6-2,2.5-3.3,6-4.8,9-9.2,7.9-16.1,18.8-24,28.1s-9.2,5.3-13.2,14.1c0,0-.8-.5-1.2,1.3-11.6-.8-15.7,13.6-23.4,16.6-3.3,1.3-8-1.4-8.4-1.3-2.6.9-1.6,5.5-1.8,5.8-11.1,11.2-9.8,1.8-17.4,3.2-15.3,2.8-35.6,14.6-53.9,17.9-18,3.3-36.8,3.9-55.1,3.8-2.5,1-8.1,25.9-10.2,31.3-10,25.4-37,60-16.8,87.6-2.3-.8-3.4,1-4.8,1.3,1.5-4.5-2.7-22.2-5.4-23-6.8,1.2-12.3,6.6-18.6,9-22.1,8.1-12.4-1.3-18.6-3.8-2.2-.9-21,1.4-24,2.6-5.5,2.2-7.5,8-9.6,9-4.8,2.3-18.6,1.3-24.6,1.3-17.1,0-33-1.4-48.5-10.2-1.2.9-.5,12.7-.6,15.4-.3,5.5-4.6,7.9.6,11.5,2.4,1.7,49.5,10.8,55.7,11.5,4,3.4,19,.7,21,1.3s2.6,4.6,3,5.1c-.8-.2-1.5.5-1.2,1.3l-38.4-3.8c-9-3.4-18.3-6.5-27.6-9-2.6-.7-13.8-5-14.4-4.5s-4.9,9.7-4.8,10.2c.3,2,6.6,4.6,8.4,5.8,7.8,5.3,17.4,8.8,25.2,14.1,19.2,13.1,36.6,31,47.9,52.5,12.4,23.4,17.5,51.4,25.2,76.8,1.1,0,1.2,1.2,2.4,1.3,1.8,0,16.1-7.4,16.8-9.6l-6-138.2c.7-3,15.7-14.9,19.2-17.3l21.6-10.2c2.3,3.2,19.2,12.8,20.4,17.3,3.7,13.6-8.2,42.4-7.2,46.1.8,3.1,37.6,33.7,44.3,42.2,19,23.8,31.8,54.6,36,85.7s.7,45.5,2.4,49.9,10.2,1.3,12,9.6c-30.3-19.3-66.7-2.7-88.7,22.4l13.8,5.8c.7-.2,8.9-8.3,10.2-9,14.2-7,28.5-11.6,44.3-11.5v2.6c-15.5-.8-66.3,11.9-50.9,34.5,5-6.1,18.4-17.5,26.4-20.5,13.4-5,27.6-1.4,40.2-7.7-1.7,2.9-7,5.9-7.2,7s5.6,15.3,6,19.2c2.3,21-1.1,42.8-19.8,54.4-4.7,2.9-12.9,3.2-15.6,5.1-13,9.2-101.1,87.3-103.7,96.6-3.9,29.3,3.3,125.7-10.8,147.1-14.4,22-49.6-11.7-57.5-28.1-20-41.5-.2-62.3,3.6-99.8,1.2-12.3-5.4-46.3,9-51.8,6.6-2.5,41.5-.9,43.7-4.5,4.9-32.5,20.2-75.9,42.6-99.1,6.3-6.5,37.7-25.2,36.6-31.3-5.8-6.1-19.2-4-9.6-15.4l-80.9-92.7-3,1.9-14.4,87c4,1.2,9.6,3.4,9.6,9-3-1.3-5.4-3.1-8.4-4.5-20.1-9.2-36.9-8.7-57.5-1.3-20.6,7.4-25.7,11.1-23.4,17.9,3.5,10.3,18.1-1.5,23.4-5.1,21.7-6.4,42-6.6,62.9,2.6l-.6,2.6c-21.6-9.1-47.2-11.3-68.3,1.3-9,5.4-14.3,9.5-9,20.5,2.6,1.1,5.6-3.2,6.6-5.1,6.7-4.8,11.3-7.7,19.2-10.2,13.6-4.4,20.6-4.4,34.8-2.6,4.3.6,8.9,1.9,13.2,2.6-1.8,2.1-9.3,7-9.6,8.3-.6,2.6,6.3,28.1,6,35.8-1.2,26.7-17,27.5-27.6,42.2-5.4,7.5-11.1,25.3-16.8,34.5-13.9,22.6-53.4,75.9-59.9,97.9-9.9-.5-16.4-8.9-24-14.1s.4-3.6-1.2-1.9c-3.7,8-3,7.1,2.4,12.2,6,5.7,13.9,7.1,21.6,6.4-6,24.7,1.8,86.1,0,116.4-.7,11.7-1,32.6-11.4,39.7-20.7,14.2-51.5-16.2-59.3-35.8-15.6-38.9,5.4-64.2,8.4-97.9,3.3-36.8-12-56.8,38.4-60.1,2.2-44.8,4.6-84.9,28.8-122.8,4-6.3,31.2-37.1,31.2-39.7s-5.6-7.9-6-10.2c-.7-4,2.8-7.7,2.4-9-.8-2.4-4.5-1.2-6-3.8-6.5-11.6.5-10.9,0-14.1-2.7-17.9-15.7-46.7-20.4-66.5-11.1-46.5-17.9-111.6-1.2-157.4,3.4-9.2,19.5-24.5,21.6-33.3,8.6-36-8.9-53.2-22.8-83.2-1-2.1-4.2-14.8-4.8-15.4-1.9-1.7-3.3,1.7-5.4.6-3.9-2,.3-24.4-3.6-24.3-10.6,14-22.4,27.5-34.8,39.7-5.4,5.3-35.6,27.8-36.6,30.1s1.2,8.1-1.2,11.5-12.8,4.6-14.4,9,.8,8.2,0,10.2c-5.5,14.8-14.5,27.3-25.8,37.7s-26.3,18.2-27,19.8,1.5,7.1,0,12.2c-3.9,2-10.1,2.5-12.6-1.3-1.2.3,1.2,5.6.6,7.7-4.1,15.1-11.7-.2-12.6,0s-4.3,7.9-7.2,10.2c-5.7,4.6-12.2,6.3-17.4,12.8.2-.3-.2-.9,0-1.3,1.1-2.3,5.3-6.6,4.8-9.6s-31-29.6-34.8-17.3h-1.2c11.1-13.4,10.1-14.2,16.8-30.1s6.9-8.2,7.2-10.2c1-8.2-8.3-5.4-3.6-16,2.5-5.6,7.3-10.3,13.2-6.4,4.8-11.6,31.8-34,35.4-42.2s-.6-3.6-.6-6.4h1.2c1.9.2.5,3.1,3,2.6s14.5-13.7,13.2-17.9c.4,8,11.5,2.4,18,3.8,6.8,1.5,13.8,5.1,19.8,9,2.9,3.4,11.5,14.3,9.6,3.2-1.9-11.2-37.1-31-46.7-19.8-2-4.7,13.6-10.8,16.8-14.7,4.3-5.3,22.3-41.3,26.4-49.9s-2.3-4.1-1.2-6.4c7.5-16.2,20.9-35.2,34.2-46.7,7.7-6.7,16.7-8,22.2-16.6.4.3,6.6,1.7,9,3.8,7.1,6.3,19.5,22.3,12.6,32-29.5,15.8-24.7,45.3-64.1,42.2-2.8-.2-11.4-5.2-12-5.1-1.5.3-13.3,24.7-15,28.1-3.3,6.7-7.5,13.1-10.8,19.8.5,1.2,1.9.4,2.4.6,14,6.6,21.2,1.7,33.6,19.2,4.1,5.8,6.3,12.7,9,19.2,11.7-8.5,22.4-18.2,33-28.1s39.1-38.7,39.6-41.6-3.5-5.1-3.6-6.4c-1-21.1.3-64-12-80.6-6.2-8.3-6.1-4.4-14.4-3.8l6-5.8c5.9,2.3,15.3,1.7,18,5.1l9.6,61.4c0,16.2-2.4,32.9-1.2,49.3,2.2-.9,4.5-13.2,4.8-15.4.6-4.4.9-12.4,1.2-17.3,7.8-1.3-1.8-12.2,4.8-13.4-2.7-10.5,5.9-53.9,2.4-60.1s-7.9-1.7-9.6-1.9-3,.3-4.8-1.3l10.8-1.3c49.8,13.4,107.4,5.3,150.4-25.6,3.7-2.7,29.9-27.7,30.6-30.1s-.8-4.9-2.4-7c-1-1.3-4.6-4.3-6.6-3.8-26.3,21.9-63.2,38.9-95.9,46.1-33.8,7.4-59.1,4.8-92.9-1.3-9.6-1.7-20.9-9.5-28.8-2.6-.3.2-4.2.8-4.8,3.2-1.7,6.7,2.4,6,3.6,10.9-3.8-2.6-7-2.8-6-9,2.2-3.9,3.4-6.4,7.2-9,2-1.3,2.2-2.2,4.8-2.6.8,0,1.6,0,2.4,0s4.7,2.4,6,2.6c13.1,2,24.7,5,38.4,6.4s1.4,1.1,3.6,1.3c5.1.4,10.5,0,15.6,0s4.6,0,7.2,0c6.9,0,14.9.6,21.6,0,19.6-1.9,36.8-7.3,55.1-14.1,16.4-6.1,26.9-11.6,42-20.5,5.6-3.3,11.1-8.9,15.6-11.5s4.5-4,8.4-2.6c4.3,1.5,11.7,13.1,10.8,18.5s-22.4,17.1-25.8,23.7l142.6,17.9c8.7-11.1,14-21.8,25.2-32,5.1-4.7,33.7-21.6,34.2-23.7s-3.4-11.2.6-14.7,9-.4,10.8-1.3,3.6-9.2,7.2-9c.8,0,2.6,4.2,4.8,3.8s6.7-11.8,12.6-12.8l-.5-.2Z"/>
  <path class="st48" d="M921.9,951.9c-.6,3.7.6,11.7,0,16-2,14.1-10.6,38.1-2.4,49.3-.5,1.3.7,3.7-1.8,5.1-15.9-6.3-32.6-4.7-48.5,0-6.6-39.3-25.2-75.4-26.4-115.8-.2-6.1.3-35,5.4-36.5,5-1.4,32.2,17.1,37.2,21.7,6.5,6.1,17.7,20.8,22.2,28.8,5.7,10.2,8.5,21.5,14.4,31.3h-.1Z"/>
  <path class="st54" d="M857.1,857.2c27.6,21.9,54.5,54,76.7,81.9-.5,17.8-7.4,50.1-12,67.8-3.6-14.1,8.3-50.5,4.8-62s-1.8-2.5-2.4-1.3c-.4,2.4-2.1,6.4-2.4,8.3-5.8-9.9-8.7-21.2-14.4-31.3-4.5-8-15.6-22.7-22.2-28.8-4.9-4.6-32.2-23.2-37.2-21.7-5.1,1.5-5.6,30.4-5.4,36.5,1.2,40.4,19.8,76.5,26.4,115.8-9.6,2.8-17.3,7.6-25.8,12.8-1-5.7-3.5-10.8-4.2-16.6-5.9-50.5-19.9-109.7-12-160.6.4-2.5,3.1-16.8,5.4-17.3,8.7,4.7,16.8,10.5,24.6,16.6h.1Z"/>
  <path class="st71" d="M937.5,1228.2c4.7,28.7,22.2,11.8,22.8,13.4-3.3,29.1,0,61.4-4.8,90.2l-4.8-2.6c5.9-21.8.9-54.4,4.2-78-3.3,11.4-5.6,24.6-6.6,36.5-1.4,16.3,5.5,46.7-10.8,54.4-5.9-5.3-12.5-7.4-16.8-16-11.5-23.3-1.2-73.4,12-94.7.9-1.5,2.9-3.6,4.8-3.2h0Z"/>
  <path class="st16" d="M1038.1,1012c-3.2,1.7-14.7,13.3-17.4,12.8-24.4-28.6-52.1-54.6-71.9-87,10.3-3.5,21.9-12.2,29.4-20.5,0,7,2.7,12.8,6,18.5,14.1,24.6,40.6,49.3,53.9,76.1h0Z"/>
  <path class="st48" d="M871.5,1138.6c.7.2,1.7-.2,2.4,0,3.1.7,7.3,1.2,9.6,3.8-1.7,2.5-5.9,14.3-4.8,17.9-13.9,27.3-34.4,59.1-51.5,84.4l-13.2-4.5c8.1-38.3,24-74.7,46.7-105.5,3.3,2.6,7.1,2.8,10.8,3.8h0Z"/>
  <path class="st16" d="M1029.7,1078.5c-39.1,18.3-59.7,67.9-69.5,110-12.3-11.3-7.3-22.6-3.6-37.7,7-28.4,25.5-65.6,47.3-83.8,32.7-27.3,28.5-17,31.2,20.5l-3-5.8-1.8-19.8-.6,16.6h0Z"/>
  <path class="st57" d="M937.5,1228.2c-1.9-.4-3.9,1.7-4.8,3.2-13.2,21.2-23.5,71.4-12,94.7,4.3,8.6,10.9,10.6,16.8,16,1.1,1-3.4,1.2-1.8,2.6,9.8.6,12.7-6.9,15-15.4l4.8,2.6c-5.1,29.8-15.9,26.7-33.6,7.7,3.6-3.1,1.9-1,.6-3.8-21.5-46.8-13.5-44.7-9-94,1.5-16.5-4.7-45.4,9-55.6,4.9-3.7,13.8-3.6,17.4-9,3,.2,6-.2,9,0,7.8,4-11.4,19.1-12.6,23.7,2.7,8.2,0,20.5,1.2,27.5v-.2Z"/>
  <path class="st54" d="M858.3,1131c.5.7,2.1,3.6,2.4,3.8-22.7,30.8-38.6,67.3-46.7,105.5l13.2,4.5c-9.5,14-9.9,13.5-25.2,1.3,2.2-34.8,10.3-73.1,27.6-103,5.3-9.2,15.2-17.6,19.2-24.9l9.6,12.8h0Z"/>
  <path class="st48" d="M1053.7,1120.7c-24.6,22.5-50.1,45.2-75.5,66.5-10.1-2.3,6.1-28.8,9.6-35.2,11.9-21.4,29.2-39,43.7-58.2,5,11.4,14.7,17.6,22.2,26.9h0Z"/>
  <path class="st16" d="M857.1,857.2c-7.8-6.2-15.9-11.9-24.6-16.6-2.3.5-5,14.7-5.4,17.3-7.9,50.9,6.1,110,12,160.6-16.7-50.5-31.3-101.1-26.4-155.4.7-7.8,4.6-34,7.2-40.3l40.2,30.7-3,3.8h0Z"/>
  <path class="st54" d="M1029.7,1078.5c4.1,17.1,15.1,31.3,31.2,36.5.8,2.1-6.6,5.2-7.2,5.8-7.5-9.2-17.2-15.4-22.2-26.9-14.5,19.2-31.8,36.8-43.7,58.2-3.5,6.3-19.7,32.9-9.6,35.2-8.7,7.3-5.4,12.7-18,1.3,9.8-42.1,30.4-91.7,69.5-110h0Z"/>
  <path class="st57" d="M894.3,1079.8c-4.2-.4-5.4,1.6-4.8,5.8,1.8,12.3,26.2-.6,26.4-9.6.5,1.4,2.6,19.2,2.4,21.1-2,19.7-15.2,33-34.2,28.8-1-.2-.5-2.5-.6-2.6,6-.6,13.7-1.1,19.2-3.8,8.6-4.3,12.6-17.3,10.2-26.9-10,20.9-57.6,18.3-43.1-9l-4.2-2.6c.7-1.2.9-5.6,1.8-6.4s23.8-10.2,25.2-10.2,11.7,3.8,13.8,4.5c-6.7,0-11.7,2.7-12,10.9h-.1Z"/>
  <path class="st16" d="M933.9,939.1c-22.2-27.9-49.1-60-76.7-81.9l3-3.8-40.2-30.7c.7-1.7,1.3-3.3,1.8-5.1,36.5,24.2,75.9,57.6,101.3,95.3,6.9,10.3,11.1,13.9,10.8,26.2h0Z"/>
  <path class="st70" d="M939.8,1177c-3.5,5.4-12.5,5.3-17.4,9-13.6,10.3-7.5,39.2-9,55.6-4.5,49.3-12.5,47.2,9,94,1.3,2.8,3,.7-.6,3.8-42.4-45.7-3.7-102.5-13.2-158,1.6-3.7,26.5-4.8,31.2-4.5h0Z"/>
  <path class="st58" d="M903.3,1183.4c.3,9.7,4.3,19.2,4.2,28.8-.4,40.6-37,100.8,11.4,137.5,9.4,7.2,9.6,2.3,10.8,2.6,8.1,1.8,11.8,6.1,21,1.9-18,20.7-50.7-14.5-57.5-33.3-13.6-37.1,3.8-60,7.2-93.4,1.5-14.9-4.6-27.4,3-44.1h-.1Z"/>
  <path class="st60" d="M902.7,1119.5c-12.8-.3-32,2.1-38.4-13.4-.7-1.7.5-7.6,0-10.2s-3.5,0-3.6-1.3c-.3-4,3-9.9,4.8-13.4l4.2,2.6c-14.4,27.3,33.1,29.9,43.1,9,2.4,9.6-1.6,22.5-10.2,26.9v-.2Z"/>
  <path class="st57" d="M1082.5,1042.7c-3.2,13.9-14.3,5.6-20.4,14.7-13.6,20.3,27.8,29.2,36,3.2.4-1.2-.9-3.7,1.2-3.8.5,2.1,1.2,5.7,1.2,7.7-8.7,17.4-44.5,28.9-52.7,6.4-6.1-16.7,20.8-29.8,34.8-28.1h0Z"/>
  <path class="st60" d="M1100.5,1064.4c0,10.1-1.3,6.9-3.6,12.8-4.3,10.9-6.3,14.5-15.6,20.5-13.6-5.4-29.2.3-36-19.8-.8-2.4-3.1-8.3,2.4-7,8.2,22.5,44.1,11,52.7-6.4h0Z"/>
  <path class="st57" d="M1098.1,1051.6c-4-1.3-18-4.5-19.2,1.9-1.1,5.8,5.7,4.7,6,5.1.6.8-2.8,4.4-.6,5.8s10.5-5.3,13.8-3.8c-8.2,26-49.6,17.1-36-3.2,6.1-9.1,17.2-.8,20.4-14.7,5.7.7,13,3.7,15.6,9h0Z"/>
  <path class="st52" d="M915.9,1076c-.2,9-24.6,21.9-26.4,9.6-.6-4.2.6-6.2,4.8-5.8.3,0,1.3,4.8,6.6,2.6-12.8-11,2.1-8.7,8.4-10.2,1.2-.3-1.9-3.2,0-3.8s6.4,7.2,6.6,7.7h0Z"/>
  <path class="st51" d="M921.9,1006.9c-.9,3.4-1.1,6.9-2.4,10.2-8.2-11.2.4-35.1,2.4-49.3.6-4.3-.6-12.3,0-16s2-6,2.4-8.3c.6-1.3,2.3.9,2.4,1.3,3.5,11.6-8.4,48-4.8,62h0Z"/>
  <path class="st58" d="M1036.3,1058c6.2,15.9-.4,34.3,19.2,43.5,4.2,2,25.2,3.4,24,5.1-30.2,11.6-48.4-19.5-43.1-48.6h0Z"/>
  <path class="st58" d="M873.3,1060.6c4.6.5-5.3,7.5-6.6,9.6s-4.6,13.4-6.6,13.4-9.4-9.6-7.8-14.7,17.6-8.7,21-8.3h0Z"/>
  <path class="st12" d="M951.2,1184.7c1.1-.3,17.4,13.5,17.4,14.7s-6.1,7-6.6,7c-.9,0-14.8-11.2-15-12.2-.6-2.7,3.7-9.4,4.2-9.6h0Z"/>
  <path class="st52" d="M1098.1,1051.6c1.2,2.5.8,3.2,1.2,5.1-2.1,0-.8,2.7-1.2,3.8-3.3-1.4-11.8,5.1-13.8,3.8s1.2-5,.6-5.8-7.1.7-6-5.1c1.2-6.4,15.1-3.2,19.2-1.9h0Z"/>
  <path class="st75" d="M898.5,1056.8c2.7,0,16.5,1.7,14.4,6.4-2.5.6-8.6-2.5-9.6-2.6s0,3.5-1.2,3.8-3.4-5-4.8-5.1-.3,2.5-1.2,2.6c-12.2.3-14.9,4.2-25.8,8.3,7-9.7,16.8-13.5,28.2-13.4h0Z"/>
  <path class="st100" d="M940.4,1226.9c6.7,6,11.2,8.3,19.8,8.3-2.1,4.8-6.4,7.7-11.4,8.3-4.2-.6-10.5-15.4-8.4-16.6h0Z"/>
  <path class="st12" d="M887.7,1049.1c10-1.2,22.1.3,31.8,3.2l-54.5,8.3c1.9-6.4,17.4-10.9,22.8-11.5h0Z"/>
  <path class="st91" d="M857.1,1060.6c-1,1.9-4,6.2-6.6,5.1-5.4-11,0-15.1,9-20.5,0,4-.7,12-2.4,15.4Z"/>
  <path class="st100" d="M939.2,1206.4c1.9,5.1,20.8,10,21,12.2.7,9.4-25.3,0-21-12.2Z"/>
  <path class="st100" d="M960.2,1210.3c0,10.6-21.4-5.1-21.6-8.3,1.5-2.1,2.1-4.8,4.8-5.8,1.2,8,10.4,11.8,16.8,14.1h0Z"/>
  <path class="st12" d="M941.6,1218c.9-.2,11.8,13.7,16.8,5.1,6,22.1-27.5-2.6-16.8-5.1Z"/>
  <path class="st53" d="M1081.3,1097.7c9.3-6,11.3-9.5,15.6-20.5,4-.9,1.6,5.9,1.2,7-2.7,7.5-11.4,20-19.8,17.3-2.1-3.5,2.1-3.3,3-3.8h0Z"/>
  <path class="st75" d="M1071.1,1035c2.8-.3,5.6.2,8.4,0l-1.2,3.8-24.6,5.8c2.6-4.3,12.9-9.1,17.4-9.6h0Z"/>
  <path class="st51" d="M878.7,1160.4c-1.1-3.6,3.1-15.4,4.8-17.9s4.3-2.3,4.8-3.8c2.9,2.7-8,18.7-9.6,21.7h0Z"/>
  <path class="st39" d="M960.2,1210.3c-6.4-2.2-15.6-6-16.8-14.1,1.4-.5,16.7,11.3,16.8,14.1Z"/>
  <path class="st36" d="M871.5,1138.6c-3.7-1.1-7.5-1.2-10.8-3.8s-1.9-3.1-2.4-3.8-3.6-6.2-3-7.7l16.2,15.4h0Z"/>
  <path class="st47" d="M1084.3,1033.7l11.4,5.8c.9,4.9-17.6-2.9-11.4-5.8Z"/>
  <path class="st36" d="M888.3,1138.6c-.5,1.5-4,2.7-4.8,3.8-2.3-2.6-6.5-3.1-9.6-3.8-1.8-6.5,9.8.2,14.4,0h0Z"/>
  <path class="st100" d="M816.4,1269.1c-.6,2.2-1.2,2.4-1.2,2.6-7.7.7-15.5-.7-21.6-6.4l-1.2-10.2c7.6,5.2,14.1,13.6,24,14.1h0Z"/>
  <path class="st71" d="M791.2,1281.9c1,6.2-1.9,14.7,4.8,22.4,4.8,5.6,5.9,3.1,10.8,4.5-7.1,22.9,2.1,74.3-7.2,92.7-2.5,5-7.2,4.7-9,8.3,4.2.2,8.7-2.5,11.4-5.8,13.6-17,3.2-70.7,7.2-92.1.8-4.1,1.3,2.2,3.6.6,1.9,11,.6,82.7-2.4,92.7-3,10.1-10.1,13.4-19.2,12.2-6.4-12.4-13.6-15.8-19.2-29.4-13.1-31.8.5-79,19.2-106.2h0Z"/>
  <path class="st57" d="M791.2,1281.9c-18.7,27.2-32.2,74.4-19.2,106.2-4.8,3.1-8.7-12.6-9.6-16-8-30.1.4-37.1,3.6-64,3.3-28.1-5.4-52.1,21.6-69.7,10.2,4.3-.9,15.8-1.2,19.8s4.3,20.3,4.8,23.7h0Z"/>
  <path class="st70" d="M787.6,1238.4c-27,17.6-18.3,41.6-21.6,69.7-3.2,26.8-11.6,33.8-3.6,64,.9,3.4,4.8,19.1,9.6,16,5.6,13.7,12.8,17.1,19.2,29.4-28.7-4.1-41.7-46.6-38.4-73.6,1.9-15.4,11.2-83.2,14.4-93.4,2.8-9.2,10.7-16.2,20.4-12.2h0Z"/>
  <path class="st36" d="M765.5,1241c.3,7.6-4.4,16.1-5.4,23.7-3.4,25.5-9.4,54-12,78-4.4,40.8,16.8,100.7,62.3,70.4-18.6,41.6-63.2-8.7-68.3-35.8-5.7-30.2,10.7-57.8,13.2-84.4s-6.4-41.7,10.2-51.8h0Z"/>
  <path class="st51" d="M812.8,1312.6c-2.3,1.5-2.8-4.7-3.6-.6-4,21.4,6.4,75.1-7.2,92.1-2.6,3.3-7.2,6-11.4,5.8,1.8-3.6,6.5-3.4,9-8.3,9.2-18.5,0-69.9,7.2-92.7,4.4,1.2,4.5-4.7,6,3.8h0Z"/>
  <path class="st12" d="M795.4,1244.8l24.6,14.7c-2.4,18.8-35.7-11.5-24.6-14.7Z"/>
  <path class="st12" d="M791.8,1269.1l20.4,5.1c6.9,4.2-5.4,11.9-7.2,11.5s-17.1-14.3-13.2-16.6Z"/>
  <path class="st100" d="M794.2,1281.9c.8-.3,10.7,8.7,15.6,5.1,6,23.4-26.3-1.4-15.6-5.1Z"/>
  <path class="st100" d="M794.2,1293.4c4.7,5.7,10.7,8,16.8,3.8,3,16.7-16.6,8.9-16.8-3.8Z"/>
  <path class="st74" d="M792.4,1255.1l1.2,10.2c-5.4-5-6.1-4.2-2.4-12.2,1.6-1.7,1.1,1.8,1.2,1.9h0Z"/>
  <path class="st0" d="M1045.9,1086.2l11.4,9.6c-4.4,4.1-12.1-4.4-11.4-9.6Z"/>
  <path class="st52" d="M1061.5,1097.7l12.6,3.2c-2.7,1-12.9,1.8-12.6-3.2Z"/>
  <path class="st57" d="M883.5,1123.3c-1.4.2-5.7,4.4-10.8-.6,3.6-4.9,7.9,0,10.8.6Z"/>
  <path class="st48" d="M1038.1,1012c-13.3-26.8-39.9-51.5-53.9-76.1-3.3-5.7-6-11.6-6-18.5,17.8-19.7,20.6-39,27.6-64,2.6,2.4,5.2-4.8,7.2-7.7,0,0,.7,3,2.4.6,1.5-2.1,1.6-13,6.6-12.2,51.4,39.9,75.3,97.8,71.3,165.7-10.1,1.6-20.3,0-30.6,1.9-6.4,1.3-18.5,6.9-24.6,10.2h0Z"/>
  <path class="st51" d="M1032.7,849.5c21.6,30.8,47.5,57.2,50.9,97.9.5,5.2.9,40.7,0,43.5s-4.7,5.1-6,0c-3.9-15.1,2.5-44.7-2.4-65.2-5.5-23.1-43.8-64.9-44.3-69.1s-.5-5.4,1.8-7h0Z"/>
  <path class="st51" d="M950.6,1329.3c-2.3,8.4-5.2,15.9-15,15.4-1.6-1.4,2.9-1.5,1.8-2.6,16.3-7.6,9.4-38,10.8-54.4,1-11.8,3.3-25,6.6-36.5-3.3,23.6,1.7,56.2-4.2,78h0Z"/>
  <path class="st16" d="M848.8,1118.2c-4,7.3-13.9,15.8-19.2,24.9-17.2,29.8-25.3,68.2-27.6,103-12.1-9.6-8.8-9.8-8.4-27.5,1.3-50,13.9-94.3,46.7-130.5,21.2-23.4,14,6.7,19.2,21.7,6.7,19.4,23.2,18.6,39.6,19.2-15.3,12.5-43.7-1.6-47.9-17.9s-.3-20.1-3-21.1c-6.1,3.2.3,2,.6,4.5.6,4.9-.2,11.4,0,16.6s3.4.7,0,7h0Z"/>
  <path class="st88" d="M847,1084.9c11.7,5.9,8.7,22.1,13.2,33.3-7.2-10.3-4-23.3-13.2-33.3Z"/>
  <path class="st52" d="M665.4,825.2c-2.8,9.5-4.2,2.6-12,6.4.6-2.1-1.8-7.4-.6-7.7,2.5,3.8,8.7,3.3,12.6,1.3Z"/>
  <path class="st38" d="M684.5,722.9c11.8,21.1-14,56.1-32.4,65.2-1.2-3.3-11.7-16.2-12-17.3-3-12.7,23.4-44.7,34.2-48,2.3-.7,7.3.3,10.2,0h0Z"/>
  <path class="st72" d="M701.3,726.7c-.3,20.8,3.4,39.6-13.2,55.6l15.6-12.8c-7.8,11.9-17.2,19.1-28.8,26.2-1.3-5.3-10.3,5.6-12,6.4-2.3-3.8-8.5-9.6-10.8-14.1,18.4-9.2,44.2-44.1,32.4-65.2,8.9-.9,8.8-4.5,16.8,3.8h0Z"/>
  <path class="st12" d="M685.1,685.8c22.9-5.7,53.8,26.4,44.3,49.9-.6-9-3.8-8-5.4-10.9-2.9-5.3-3.7-10.8-8.4-16.6-8.8-11-21.8-17.1-35.4-17.3-2.1-2,4.5-5,4.8-5.1h.1Z"/>
  <path class="st12" d="M1117.2,557.8c.9,5.8-1.7,22,4.8,24.3.8,5.8,1.7,11.8,3.6,17.3,1.3,3.7,14.9,20.4,5.4,19.8-11.6-.7-31.8-58-13.8-61.4h0Z"/>
  <path class="st57" d="M661.8,809.9l-3.6,3.2c-11.4-15.5-24.4-31.2-42-39,.8-.8,1.2-3.6,1.8-3.8,12.8-5,41.1,27.2,43.7,39.7h0Z"/>
  <path class="st20" d="M615,806c-4.1,11,14.3,20.9,22.8,25.6-1.2,4.7-9.8,12.5-12.6,12.8s-2.8-3.7-3-3.8c-1.6-15.4-29.9-23-7.2-34.5h0Z"/>
  <path class="st36" d="M616.2,804.7c-1.4-.2-1.1,1.2-1.2,1.3-22.7,11.5,5.6,19.1,7.2,34.5-3.3-2.2-26-18.2-26.4-19.8s7.8-24.4,9-24.9c5.3.5,7.5,5.9,11.4,9h0Z"/>
  <path class="st38" d="M612,785.6c2.6-.5,30.3,24.3,33,28.8s6.3,16.3-1.8,13.4c-3.9-1.4.7-3.1.6-3.2-5.5-5.9-10.4-13.2-16.2-18.5-2.9-2.6-19.5-12.2-19.8-13.4s3.7-6.9,4.2-7h0Z"/>
  <path class="st4" d="M1134.6,579.6c7.9,15.4,21.7,17.3,36.6,21.1-12.5,22-37.1-3-36.6-21.1Z"/>
  <path class="st60" d="M654.6,815l-4.2,3.8c-1.5-11-36.5-32-37.8-35.2s.9-4.6,1.2-5.8c10.9,6.1,23,13.9,31.8,23,3.7,3.8,5.8,11.3,9,14.1h0Z"/>
  <path class="st12" d="M1142.4,603.9c-1-.7-5.2-1.1-5.4-1.3-5.8-5.8-4.8-16.3-12.6-15.4-1.9-9.8-1.2-20.1-1.2-30.1s-5.4-3.2,1.8-5.8c5.2,17.6,5.3,38.1,17.4,52.5h0Z"/>
  <path class="st7" d="M661.8,809.9c.4,1.7-.2,7.2-1.8,7.7-3.6,1.2-3.6-1-5.4-2.6-3.2-2.8-5.3-10.3-9-14.1-8.8-9.2-20.8-17-31.8-23,.2-.8,1.9-3.3,2.4-3.8,17.5,7.8,30.6,23.5,42,39l3.6-3.2h0Z"/>
  <path class="st14" d="M661.2,721.6c1.3.4,2.3,3,1.8,4.5l-33,42.9c0-9.2,24.5-49.5,31.2-47.3h0Z"/>
  <path class="st42" d="M622.2,808.6c4.3,3.9,10.4,11.8,14.4,16.6.3,2.1,1.4,3.5,1.2,5.1s0,.9,0,1.3c-8.5-4.7-26.9-14.6-22.8-25.6,0,0-.2-1.5,1.2-1.3,1.4,1.2,5.6,3.5,6,3.8h0Z"/>
  <path class="st80" d="M674.4,706.2c5.6-1.3,32.5,2.8,31.8,10.9s-16.2-6.6-18.6-7c-7.2-1.2-14.8,2-21.6,3.8,0-2.9,6.8-7.3,8.4-7.7h0Z"/>
  <path class="st1" d="M796.6,560.4c10.3,25.5,10.6,55.7,9.6,83.2-2.1-27.9-3.4-55.8-9.6-83.2Z"/>
  <path class="st46" d="M810.4,614.1v7.7l-9.6-61.4c8.4,10.5,7.7,40.2,9.6,53.7Z"/>
  <path class="st94" d="M1122,582.1c-6.5-2.3-3.9-18.5-4.8-24.3-1.3-5,4.4.5,4.8,1.9,1.3,4.8-.9,16.4,0,22.4h0Z"/>
  <path class="st13" d="M636.6,825.2c-4-4.8-10.1-12.7-14.4-16.6-.7-3.9,2.6-1.5,3.6-.6,4.6,3.8,9.8,11,10.8,17.3h0Z"/>
  <path class="st75" d="M636.6,745.9c-2.9,7.4-6.6,14.2-9,21.7-3-7.1,4.3-17.4,9-21.7Z"/>
  <path class="st77" d="M682.7,711.4c1.3,0,3.4,1,2.4,2.6l-19.8,5.8c-1.6-3.5,16-8.4,17.4-8.3h0Z"/>
  <path class="st42" d="M1184.4,493.9h-2.4c-.3-2.8-1.9-5.1-1.2-8.3,1.2-1.2,2-2.6,3.6-3.2-3.6,7.1,2,6.7,2.4,9.6s-2.9.3-2.4,1.9Z"/>
  <path class="st20" d="M717.5,733.1c1,0,4.8,5.6,2.4,7.7-2.9,2.5-6.2-7.1-2.4-7.7Z"/>
  <path class="st82" d="M645.6,829.1c2.9-.5,5.9,5.6,2.4,6.4s-5.3-5.9-2.4-6.4Z"/>
  <path class="st82" d="M1199.9,478.5l-3.6,1.3c.4-1.8-.7-3.6,1.8-5.1,3-.4,1.3,2.8,1.8,3.8h0Z"/>
  <path class="st83" d="M614.4,767.6c3.9-1.1-.4,6.7-1.2,6.4l1.2-6.4Z"/>
  <path class="st13" d="M637.8,830.3c.2-1.6-.9-3-1.2-5.1,1.5,1.8,8.7,5.6,1.2,5.1Z"/>
  <path class="st38" d="M1198.7,538.7c-1.5.2-26.9,11.8-28.2,12.8-6,4.7-9.3,18.4-17.4,23-.8-.5-3.7.5-4.2,0-9.9-8.5-7.6-25.4-1.8-35.8,10-5.7,29.4-7.5,27.6-25.6,15.5-5.2,8.5,2.4,13.2,8.3,3.5,4.4,13.6,9.9,10.8,17.3Z"/>
  <path class="st72" d="M1153.2,574.5c8.1-4.7,11.4-18.3,17.4-23,1.2-1,26.6-12.6,28.2-12.8,3.7-.4,13.9,5.6,13.2,9.6-4.8,8.7-13,18.2-21,23.7-14.3,9.7-25.8,9.5-37.8,2.6h0Z"/>
  <path class="st72" d="M1214.9,547.6c1.6-1,5.5,3.2,5.4,4.5-.2,2.7-32,38.9-34.2,40.3-9.5,6.3-26.7,5.1-36-1.3-7.5-5.2-6.4-10.1-8.4-17.9,6.8,14,30.6,21.6,41.4,10.9s-1-3.3,1.8-5.8c10.5-9.2,25.9-15.6,30-30.7h0Z"/>
  <path class="st53" d="M1147.2,538.7c-15.8,9-5.2,31.1-6.6,33.3-9.6,6.7-10.9-13.1-12.6-21.1,6.4,3.2,3.2-1.9,4.8-3.8,3.2-3.7,4-.5,4.2-.6,1.8-1.8-.7-3.1-.6-3.2,8.3-8.3,28.3-26.7,38.4-30.1,1.8,18.1-17.6,19.9-27.6,25.6h0Z"/>
  <path class="st57" d="M1184.4,493.9c0,.4,0,.9,0,1.3.3,1.3,9,17.8,10.8,10.2,3.9,6.2,28.3,28.1,27.6,30.1s-6.3.5-6.6.6c-.9.5-.2,4.4-2.4,5.1s-10.7-7.8-12-9c-9.6-8.8-18.3-24.7-19.8-38.4h2.4Z"/>
  <path class="st38" d="M1227.5,531c.5-3.4-1.2-2-2.4-2.6-14.4-6.5-29.6-24.3-35.4-39.7-3.7-.2-1,3.6-.6,5.1l-4.8,1.3c0-.4,0-.9,0-1.3-.5-1.6,2.5-1.1,2.4-1.9-.4-2.9-6-2.5-2.4-9.6,9.4-3.7,6.8,2.8,7.2,3.2,9,8.9,11.5,19.8,23.4,28.8,7.8,5.9,11,4.7,14.4,6.4,10.3,5.2,9.8,17.4-1.8,10.2h0Z"/>
  <path class="st53" d="M1180.2,500.3c2.3.6-.3,6.6,3,7-21.9,5-35.4,25.5-53.9,38.4-.2-11.2,46.3-46.6,50.9-45.4h0Z"/>
  <path class="st26" d="M1226.3,511.8c-1-3.5.9-3.4,2.4-5.1s3.1.1,3.6-1.9c1.4-6.1-12.7-15.8-14.4-22.4,3.2,2.7,23.6,18.3,24,19.8.6,2.3-3.9,15.4-5.4,16-4.6,0-6.9-4-10.2-6.4h0Z"/>
  <path class="st17" d="M1205.9,478.5c.7,2.4,3.6,4.7,4.8,6.4,5.6,7.9,11.7,14.5,18,21.7-1.5,1.8-3.4,1.6-2.4,5.1-6.2-4.6-25-23.6-24-31.3s3.2-1.4,3.6-1.9h0Z"/>
  <path class="st42" d="M1217.9,482.4c1.7,6.6,15.8,16.3,14.4,22.4-.5,2-3.5,1.8-3.6,1.9-6.3-7.2-12.3-13.9-18-21.7l3.6-5.1c1.1.9,2.5,1.7,3.6,2.6h0Z"/>
  <path class="st73" d="M1201.1,579.6c-2.7,4.9,2.3,3.5,2.4,4.5s-11.7,9.2-12,13.4c0-.2-4.5,0-3.6-3.8,4-8.8,9-9.1,13.2-14.1h0Z"/>
  <path class="st38" d="M1196.3,479.8l3.6-1.3c2.1,4.3,1.1,9.1,1.2,9.6s6.4,4.8,6,7.7c-1.3,9.1-13.1-6.6-10.8-16h0Z"/>
  <path class="st33" d="M1189.2,493.9c.6,2.3,4.5,9.1,6,11.5-1.7,7.6-10.5-8.9-10.8-10.2l4.8-1.3Z"/>
  <path class="st82" d="M1214.3,479.8l-3.6,5.1c-1.2-1.7-4.1-4-4.8-6.4.4-.5.7-4.3,3-5.1.9,0,4.5,5.7,5.4,6.4Z"/>
  <path class="st14" d="M1224.5,537.4c3.4,2-3.1,9-3.6,9-4.5,0-2.5-13.4,0-3.8l3.6-5.1h0Z"/>
  <path class="st73" d="M1232.3,539.9c0,3.4.5,4.6-2.4,2.6,1.2-1.5-.8-.5,2.4-2.6Z"/>
  <path class="st75" d="M636.6,745.9c0,0-.5-4.3,2.4-1.9-.4,1.1-2.3,1.8-2.4,1.9Z"/>
  <path class="st49" d="M1227.5,531c-1-.6-2.3-1-2.4-2.6,1.2.5,2.9-.9,2.4,2.6Z"/>
  <path class="st19" d="M663,802.2c4.9.2,8.2-4.1,12-6.4,11.5-7.1,21-14.3,28.8-26.2l-15.6,12.8c16.6-16.1,12.9-34.8,13.2-55.6,0-.4,1.6,0,1.8-5.1,35.2,35.4-11.7,69.7-38.4,88.3-3-1-1.2-6.7-1.8-7.7h0Z"/>
  <path class="st18" d="M675,795.8c-3.8,2.3-7.1,6.6-12,6.4,1.7-.8,10.7-11.7,12-6.4Z"/>
  <path class="st85" d="M706.7,733.1c3.3,10.4,2.8,24.4-3.6,33.3l3.6-33.3Z"/>
  <path class="st11" d="M610.8,766.4c3.1.5-2.1,9.1-3.6,9-2.4-1.2,2-8.2,3.6-9Z"/>
  <path class="st100" d="M708.5,712.6c-3.2-3.8-5.6-11.3-11.4-12.8s-22.7,3.7-25.8-3.8c9.6-11.2,44.8,8.6,46.7,19.8,1.9,11.1-6.7.2-9.6-3.2h0Z"/>
  <path class="st48" d="M1045.3,546.3l25.8,7.7c9.5-1.6,23.8,3.3,31.8-2.6,4,.6,8,1.4,12,1.9-7.7,6.7-6.8,17.4-6,27.5-29,10.5-53.9,25.7-83.9,7.7-1.8-15.3-5.7-33.2-14.4-45.4l34.8,3.2h-.1Z"/>
  <path class="st54" d="M844,577c-14.2,36.6-18.4,81.6,8.4,113.2,19.5,23,32.6,2.3,44.9,7s17.5,39.9,21,46.1c0,1.6.3,3.7,0,5.1-16.5,9.7-17.7-20.4-29.4-26.9-1.9,7.1,4.1,18.3,10.2,24.9-9.6,8.1-21.6-2.2-26.4-11.5s-3.2-14.6-3.6-15.4c-2-3.6-11.6-7.4-15-10.9-16.4-16.6-22-24.8-31.8-46.7-1.3-3-.8-5.3-4.8-4.5,2-22.1,5.4-44.2,7.2-66.5,10.2-4.2,7.6-9.7,19.2-14.1v.2Z"/>
  <path class="st16" d="M1113.6,601.3c2.7,6.3,8.3,12.6,13.2,17.3l-1.8,3.2c-31.6,12.2-64.8,16.8-98.3,17.9-2-.9-.3-27.3-.6-32,28,15.4,61.1,10,87.5-6.4h0Z"/>
  <path class="st16" d="M918.3,748.5c-.4,1.9.7,3.6-1.8,5.1-21.6,1.7-41.1,0-60.5-10.2l-40.8-69.1c-.2-4.8,1.9-11.3,2.4-16.6,4-.8,3.5,1.5,4.8,4.5,9.7,21.9,15.4,30.1,31.8,46.7,3.4,3.4,13,7.2,15,10.9s2,12.2,3.6,15.4c4.7,9.3,16.8,19.7,26.4,11.5-6.1-6.7-12.1-17.8-10.2-24.9,11.7,6.5,12.9,36.6,29.4,26.9v-.2Z"/>
  <path class="st54" d="M1108.9,580.9c.3,3.9,3.4,17.1,4.8,20.5-26.4,16.4-59.5,21.8-87.5,6.4-.4-6.1-.5-13.2-1.2-19.2,30,18,54.9,2.8,83.9-7.7h0Z"/>
  <path class="st57" d="M859.5,807.3l-15-2.6c-3.1,1.9,29.8,20.7,32.4,21.7,4,1.6,3.6,2,5.4-2.6,3.7,3.6,6.5,8.4,10.8,10.2,6.9,7.4,14.4,14,19.8,23l3-2.6c8.5,14.9,11.8,27.3,16.8,43.5-3.8.3-1.9,2.3-4.8-.6-38-38.9-26-55-85.1-80-6.4-2.7-12.3-6.9-19.2-8.3l12.6-18.5c1.6-.3,20.3,14.5,23.4,16.6v.2Z"/>
  <path class="st54" d="M992.6,767.6c1.9,12-7.5,11.2-12.6,16.6-12.5,13.5-7.3,29.9-5.4,46.7l4.8-4.5c-2.9,16.7-1,28.1-2.4,42.2s-2.5,23.3-4.8,31.3c-.5,1.8-3.5,11.7-6,11.5l-4.8-124.1c1.5-5.3,25.6-17.3,31.2-19.8h0Z"/>
  <path class="st51" d="M985.4,557.8c41.1,45.5,43.9,76.4,20.4,131.8-7.6-8.3,4.3-19.2,6-27.5l-9,13.4c-3.2-1.4,10.7-21.5,11.4-24.9,1.8-9.4-7.2-50.5-12-58.8-4-7-6.3-8.1-9.6-1.3-4.3-6-4.2-16.2-7.2-21.7s-24.6-22.6-16.2-23.7l16.2,12.8h0Z"/>
  <path class="st57" d="M971,912.2c2.8.9,4.8-2.5,6-4.5,13.2-22.5,13-80,18-107.5s9.3-22.8,8.4-35.2c6.4.8,8.6,8.9,8.4,14.7-.6,14.2-22.4,114.6-27.6,125.4s-12.3,14.9-13.8,14.7c-3.8-2.7,0-5.1.6-7.7h0Z"/>
  <path class="st60" d="M932.7,898.1c1.5,4.8,12.1,32.2,9,34.5l-3.6-1.3c-11.9-17.8-19.5-38.7-31.8-56.3-10.4-14.9-45.6-50.1-62.3-53.7l-1.2-3.8c59.1,24.9,47.1,41.1,85.1,80,2.9,3,1,.9,4.8.6Z"/>
  <path class="st52" d="M764.3,570.6c7.7-.7,5.3,3.6,11.4,5.8-10.2,8.5-25.2,33.6-36.6,37.7-.7.3-.5-2.8-1.2-2.6-3.1.8-5.6,3.8-6,3.8-4.3.2-1.4-3.4-7.2,0l-1.8-3.2c5.9-10.2,30.8-40.6,41.4-41.6h0Z"/>
  <path class="st53" d="M1003.4,765.1c.9,12.4-6.2,23.1-8.4,35.2-5,27.5-4.8,85-18,107.5s-3.2,5.4-6,4.5c8.3-42.5,13.8-93.6,26.4-133.7.6-1.9,4.4-13.6,6-13.4h0Z"/>
  <path class="st54" d="M979.4,826.5l-4.8,4.5c-1.9-16.8-7.1-33.2,5.4-46.7,5.1-5.5,14.5-4.6,12.6-16.6.3,0,2.2-2.3,3.6-2.6-4.8,20.8-13.2,40.2-16.8,61.4h0Z"/>
  <path class="st95" d="M782.2,583.4c3.4,1.9-28.3,42.1-31.2,43.5-5,2.5-40.5,5.4-33.6-5.1,34.8,12,41.5-20.7,64.7-38.4h0Z"/>
  <path class="st85" d="M844,821.4c16.7,3.6,51.9,38.8,62.3,53.7l-3.6,1.3c-13.5-18.5-39.8-36.7-58.7-48.6-1.9-2.4-4.2-4.5-6-7,1.9-1.5,3.8.2,6,.6Z"/>
  <path class="st60" d="M1010.6,575.7c-1.9-6.1-5.1-17.7-8.4-22.4s-18.5-14.2-12.6-16c5.2-1.8,7.9,4.2,9.6,5.1s.7-3.8,2.4-2.6,9.8,15.1,10.2,16c5.7,13.9,8.1,38.5,9.6,53.7-2.9-5.5-6.8-14.6-8.4-20.5s3.1,0,2.4-2.6c-.9-3.4-4-8.2-4.8-10.9v.2Z"/>
  <path class="st54" d="M866.7,569.4c-1.7,6.9-10.2,2.8-15,3.8-2,.4-5.6,3-7.8,3.8-11.5,4.4-9,9.9-19.2,14.1.7-8.5-1.3-17.3,1.8-25.6,13.2,2.6,26.7,4,40.2,3.8h0Z"/>
  <path class="st51" d="M977,868.7c1.4-14.1-.5-25.5,2.4-42.2,3.6-21.2,12-40.6,16.8-61.4,1.7-.4,1.5-2.3,3.6.6l-22.8,103h0Z"/>
  <path class="st95" d="M784.6,588.5c14-2.8-12.9,20-13.8,21.1-9.5,11.5-12.9,25.4-29.4,27.5-8.4,1.1-35.4-6.1-22.8-7.7,9.9-1.2,23.8,5.6,34.8-1.3,4.9-3.1,28.8-39.2,31.2-39.7h0Z"/>
  <path class="st52" d="M902.7,876.4c2.8,3.8,8.5,12.9,9,17.9-12.1-12.1-23.8-29.3-36-40.9-9.8-9.3-22.7-14.1-31.8-25.6,18.9,11.9,45.2,30.1,58.7,48.6h0Z"/>
  <path class="st54" d="M855.9,743.3c-17.2-9.1-39.9-49-40.8-69.1l40.8,69.1Z"/>
  <path class="st95" d="M778.6,577c2.6,0,1.3,2,3,3.2-9.1,4.7-29.2,36.1-35.4,39-3,1.4-28.2,2.7-28.2-.6,7.4-4.4,16.5,0,24.6-3.2,7.6-2.9,33.2-38.3,36-38.4h0Z"/>
  <path class="st53" d="M859.5,807.3c8.4,5.7,15.1,9.3,22.8,16.6-1.8,4.6-1.4,4.2-5.4,2.6s-35.5-19.8-32.4-21.7l15,2.6h0Z"/>
  <path class="st57" d="M897.9,830.3l-9.6-3.8c-6.1-6-15.4-14-22.2-19.2-.9-.7-23.6-13.5-14.4-11.5,13.1,2.9,36.7,24.1,46.1,34.5h.1Z"/>
  <path class="st60" d="M1013,813.7c-3.6,18.5-9.1,36.8-13.8,55-6,0,3.9-23.2,4.2-24.9,1.9-10.2,2.6-22,4.8-32.6l4.8,2.6h0Z"/>
  <path class="st51" d="M1102.9,551.4c-7.9,5.8-22.3,1-31.8,2.6l-25.8-7.7c19,2,38.6,2.1,57.5,5.1h.1Z"/>
  <path class="st54" d="M970.4,536.1c18.5,9.4,32.4,28.8,38.4,49.9l-38.4-49.9Z"/>
  <path class="st100" d="M1142.4,603.9c3.8,2.8,11.6,9.2,1.8,10.2-8.5.9-18.3-18.9-19.8-26.9,7.8-1,6.8,9.6,12.6,15.4s4.4.5,5.4,1.3Z"/>
  <path class="st27" d="M897.9,830.3c7.1,7.9,12.6,14.9,18,24.3l-3,2.6c-5.3-9.1-12.8-15.7-19.8-23-.4-.4-3.1-6-4.8-7.7l9.6,3.8h0Z"/>
  <path class="st17" d="M1013,813.7l-4.8-2.6c1.3-6.3,4.4-26.1,6-30.1s-.7-4.8,3-3.2-3.4,31.7-4.2,35.8h0Z"/>
  <path class="st51" d="M1013,845.7c-2,2.8-4.6,10-7.2,7.7.9-3.4,6.5-26.7,7.8-26.9,9.4,6.6,1.2,10.2-.6,19.2Z"/>
  <path class="st16" d="M1010.6,575.7c0,.3,2,7.6,0,7-6.4-18.7-17.4-32-30.6-45.4,11.7,7.5,25.4,25.1,30.6,38.4Z"/>
  <path class="st59" d="M770.2,564.2c11.1,2.8,20.8,17.1,20.4,29.4-3.6-12.8-12.2-20.2-20.4-29.4Z"/>
  <path class="st48" d="M691.7,683.2c-.5-.2-1.9.5-2.4-.6,3.3-6.8,7.5-13.1,10.8-19.8,5.2,6.6-4.6,15.8-8.4,20.5h0Z"/>
  <path class="st54" d="M844.6,739.5l12.6,8.3c-3.8.2-13.6-3-12.6-8.3Z"/>
  <path class="st74" d="M1147.8,614.1c.9,0,2.5-.3,3,.6l-6.6,4.5c-2.2-2.1,3.1-5,3.6-5.1Z"/>
  <path class="st48" d="M985.4,557.8l-16.2-12.8c-8.4,1,15.1,21.6,16.2,23.7,3,5.5,2.9,15.7,7.2,21.7,3.2-6.8,5.6-5.7,9.6,1.3,4.8,8.3,13.7,49.5,12,58.8-.6,3.4-14.6,23.5-11.4,24.9l9-13.4c-1.6,8.3-13.6,19.2-6,27.5-8.4,19.6-12.5,36.7-30,47.3-4.3,2.1-4.5,2.2-8.4,5.1l5.4-43.5c-8.3,13.5-9.4,31.2-9,46.7,1.6,1.3,3.2-2.9,3.6-3.2,3.5.5,6.5-4,8.4-5.1,2.4-1.2,21.8-10.1,13.8-1.3-1.9,2.1-38,21.3-34.8,5.1l-34.2,4.5-7.8-87.6c.8,27.7,7.4,58,5.4,85.7-3.5-6.2-17-44.5-21-46.1-12.4-4.8-25.5,16-44.9-7-26.8-31.6-22.6-76.7-8.4-113.2,2.2-.8,5.8-3.4,7.8-3.8,4.8-1,13.3,3,15-3.8,17.7,0,36.3-2.6,53.3-7.7s41.9-21.6,44.3-21.7c7.4-.5,16.5,13,21,17.9h.1Z"/>
  <path class="st54" d="M959,655.1c-1.1,26.8-4.9,53.7-4.8,80.6-1.5.7-4.7-2.5-4.8-3.2-2.1-13.5,1.3-43.3,3.6-57.6.8-4.8,3.5-15.7,6-19.8Z"/>
  <path class="st76" d="M961.4,644.8l-7.2,90.8c0-26.9,3.7-53.8,4.8-80.6,0-2.6-.3-7.7-1.2-10.2.9-.3,2.7.3,3.6,0h0Z"/>
  <path class="st54" d="M967.4,742.1c-.4.3-2,4.5-3.6,3.2-.4-15.5.7-33.2,9-46.7l-5.4,43.5Z"/>
  <path class="st18" d="M975.8,736.9c-1.9,1.1-4.9,5.6-8.4,5.1,3.9-3,4-3,8.4-5.1Z"/>
  <path class="st12" d="M593.5,841.8c-3.6,4.4,8.7,8.3,8.4,9.6l-4.8,3.2c-6-4.2-8-6.4-14.4-6.4s-2.2.4-3.6,1.3-2.5-3.1-2.4.6c2.7.8,3.3,2.5,4.8,4.5,0,2-1.8.5-2.4,2.6-3.6-.7-7.1-5.8-10.8-6.4,2.8-6-.3-4.1-3.6-3.8l-1.2-1.3c5.4-2.7,14.9-10.9,19.2-15.4,1.9,4.8,7,8.6,10.8,11.5h0Z"/>
  <path class="st57" d="M818.8,560.4c-2.5-.7-2.3-1.2-2.4-1.3v-3.8c22.8,6,75.4,5.2,97.7-2.6,2.4-.8,18.4-7.3,14.4-10.2s-44.3,10.6-53.3,11.5l-2.4-3.8c47.6-4,85.9-24.5,124.7-52.5,1.6,2.2,3.2,4,2.4,7s-26.8,27.4-30.6,30.1c-43,30.9-100.7,39-150.4,25.6h-.1Z"/>
  <path class="st52" d="M971,747.2c3.6,7.2,21.5-11.4,19.2.6-1.5,7.6-72.5,32-49.7.6-9.3,2.5-16,14.9-25.2,16.6-6,1.2-24.3,1.8-21-9,5.9,0,19.7,1,24.6-1.3s4.1-6.7,9.6-9c2.9-1.2,21.8-3.5,24-2.6,6.1,2.6-3.5,12,18.6,3.8v.3Z"/>
  <path class="st60" d="M802,538.7c-1.8,1.4,1.6,5,1.8,5.1,12.9,7.7,53.1,7.7,68.9,6.4l2.4,3.8c-21.4,2.2-42.8,1.3-64.1-1.3,0,2.7,4.3,2.3,5.4,2.6v3.8c-16.9-5.1-29.6-10.4-43.1-23,7.8-6.9,19.1.8,28.8,2.6h-.1Z"/>
  <path class="st57" d="M808,561.7c1.8,1.5,2.9,1,4.8,1.3,2.5,24.7,3.9,50.5,2.4,75.5-.3,4.9-.6,12.9-1.2,17.3s-2.6,14.5-4.8,15.4c-1.2-16.4,1.1-33,1.2-49.3s0-5.1,0-7.7c0-5.3,1.5-11.3,1.2-17.3-.4-8.9-5.9-25.8-6-32s-.5-3.6,2.4-3.2h0Z"/>
  <path class="st39" d="M616.2,853.4c-8.5-6-31.4-15.3-30-26.9,3.7-12.3,34.3,15,34.8,17.3s-3.7,7.3-4.8,9.6h0Z"/>
  <path class="st85" d="M773.2,536.1c13.5,12.6,26.2,18,43.1,23,0,0,0,.6,2.4,1.3l-10.8,1.3c-2.9-.4-2.4.8-2.4,3.2,0,6.2,5.6,23.1,6,32,.3,5.9-1.2,12-1.2,17.3-1.9-13.5-1.2-43.2-9.6-53.7-2.7-3.4-12.1-2.8-18-5.1s-9-3.9-10.8-5.1c-1.2-4.9-5.3-4.2-3.6-10.9s4.5-3,4.8-3.2h0Z"/>
  <path class="st78" d="M653.4,715.2c0,2.8,2,3.1.6,6.4-3.5,8.2-30.5,30.6-35.4,42.2l-6.6-2.6c5.4-12.1,16.2-21.7,24.6-32,.7,2,2.3,1.7,3.6.6l12-12.8-10.2,7c-2.4-2.8,5-9.8,6-10.2,4.2-2,3.2,1,5.4,1.3h0Z"/>
  <path class="st60" d="M815.2,638.4c1.5-25,0-50.8-2.4-75.5,1.7.3,9,.9,9.6,1.9,3.5,6.2-5.1,49.6-2.4,60.1-6.6,1.2,3,12.1-4.8,13.4h0Z"/>
  <path class="st74" d="M1247.9,487.5c-5.6,16.9-8,8.8-16.8,2.6,5.2.6,8-6.1,10.8-10.2,2.5,2.8,3.9,5.3,6,7.7h0Z"/>
  <path class="st43" d="M854.7,534.8c-1.2,1.6-2.6,3.3-3.6,5.1h-7.2v-5.1c3.1,0,6.5-2.8,10.8,0Z"/>
  <path class="st25" d="M582.7,848.2c2.8-.9,3.8,3.1,4.8,3.8l-8.4-2.6c1.4-.8.9-1.3,3.6-1.3h0Z"/>
  <path class="st40" d="M586.3,826.5c-1.4,11.6,21.5,20.8,30,26.9-.2.3.2.9,0,1.3-1.8,3.7-7.1,9-7.2,9.6-.4,2.1,2.1,10.6,1.2,15.4-4,20.8-19.3,23.4-16.8,51.2.4,4.9,12.2,27.5-9,16-19.3-10.5-7.4-42.2-10.8-44.8-23.7-8.3-61.8,35.4-80.3,29.4-13.2-4.2,7.3-18.5,6.6-19.8-22.3,5.4-17.2-6.9-3.6-16.6-50.1,1-14.4-11.8-14.4-14.1s-6.1-1.6-4.8-7.7,39.2-11.8,46.7-13.4l.6,2.6c-3.8,0-7.7.6-11.4,1.3-5.9,1.1-36.7,4.9-33.6,13.4s11.2,1.1,14.4.6c12.3-1.9,23.7-7.6,36-10.2-14.2,11-33.7,9.5-49.1,16.6-1.4.6-9,4-7.8,6.4,9,4.7,22.4,2.8,31.2-1.3,3.7-1.7,5.6-7.4,6-7.7s9.3,1.3,9-5.1c3.1-.9,5.7-4,10.2-2.6-8.1,7.8-18.6,12.5-28.2,20.5-1,.9-2.6,1.7-3.6,2.6-2.1,1.9-16.6,12.4-7.8,14.1,11.9.3,17.1-7.1,25.8-12.8,5.3-3.5,9.7-5.5,14.4-10.2,4,0,15.3-9.9,17.4-2.6-13.3,2-29.8,14.1-40.2,23-2.8,2.5-21.2,17-13.8,20.5,15.1,7.1,62.1-42.5,83.3-27.5.7,8.4-2,16.5-1.2,24.9.7,8.2,4.9,17.3,13.2,19.2.2,0,1.6,2.6,4.2,1.3,6.2-5.2-1.3-9.5-1.8-16-2.5-29.4,15.2-33.4,16.8-52.5,1.1-12.9-3.2-12.5-10.8-19.8-1.5-1.5-3.1-2.6-4.8-3.8s-4.3-2.2-4.8-2.6c-1-.8-2-4.7-4.8-3.8,6.4,0,8.4,2.2,14.4,6.4s6,14.7,16.8,1.9c0-2.4-17.8-12.8-20.4-14.7-3.8-2.9-8.9-6.7-10.8-11.5.2-.2.8-1.9,2.4-3.8h1.2v-.2Z"/>
  <path class="st49" d="M568.3,850.8c3.6.6,7.2,5.7,10.8,6.4-4.6,15.7-15.3,13.9-29.4,11.5-1.8-.3-5.6-5.1-6-5.1-.7,0-10.8,3.2-13.8,3.8-12.2,2.6-23.6,8.3-36,10.2l-5.4-2.6c5.6.9,12.4-6.4,15.6-7.7s9.1,2.9,9-3.8c3.7-.7,7.6-1.3,11.4-1.3l-.6-2.6c1.1-.2,2.5.2,3.6,0,9.1-1.9,12.6-4.6,20.4-6.4,3.6-.8,17.5-3.1,20.4-2.6v.2Z"/>
  <path class="st23" d="M597,858.5c7.6,7.3,11.9,6.9,10.8,19.8-1.6,19-19.3,23.1-16.8,52.5s8,10.7,1.8,16c-2.6,1.3-4-1.2-4.2-1.3-5.8-4.8-5.9-17.7-13.2-19.2-.8-8.4,1.9-16.5,1.2-24.9-21.2-14.9-68.2,34.6-83.3,27.5-7.4-3.5,10.9-18,13.8-20.5,11.3-2.5,21-15.6,31.8-19.2,3.4-1.2,8.9-2,12.6-2.6,18.2-2.8,51.8,6.3,43.1-28.1h2.4Z"/>
  <path class="st103" d="M551.5,886.6c-3.7.6-9.2,1.4-12.6,2.6-10.7,3.6-20.4,16.7-31.8,19.2,10.3-8.9,26.9-21,40.2-23-2.1-7.3-13.4,2.7-17.4,2.6,2-2,3.1-3.6,6-4.5-6.5-11.7-24.6,9.8-34.8,10.9,9.6-8,20-12.7,28.2-20.5-4.4-1.4-7,1.7-10.2,2.6-12,3.3-25.7,7.8-38.4,7.7,15.4-7.1,34.9-5.6,49.1-16.6,2.9-.6,13.1-3.9,13.8-3.8s4.2,4.8,6,5.1c14.1,2.4,24.8,4.2,29.4-11.5.6-2.1,2.3-.6,2.4-2.6,2.5,3.4,5.4,6.6,8.4,9.6,0,4.8-31.2,13.9-36.6,17.3-1.6,1-3.6,3-1.8,5.1v-.2Z"/>
  <path class="st28" d="M579.1,849.5l8.4,2.6c.5.4,3.3,1.4,4.8,2.6-2.9,3.3,2.1,2.8,2.4,3.8,8.7,34.4-25,25.3-43.1,28.1-1.8-2.1.2-4.1,1.8-5.1,5.4-3.3,36.4-12.4,36.6-17.3-3-3-5.9-6.2-8.4-9.6s-2.1-3.7-4.8-4.5c0-3.7,1.6-.2,2.4-.6h-.1Z"/>
  <path class="st52" d="M519.1,876.4c.3,6.4-8.5,4.8-9,5.1s-2.3,6-6,7.7c-8.7,4.1-22.2,5.9-31.2,1.3-1.2-2.4,6.4-5.8,7.8-6.4,12.7,0,26.4-4.4,38.4-7.7h0Z"/>
  <path class="st28" d="M529.9,887.9c-4.7,4.7-9.1,6.7-14.4,10.2l-18-1.3c1-.9,2.6-1.7,3.6-2.6,10.2-1.1,28.2-22.6,34.8-10.9-2.9.9-4,2.5-6,4.5h0Z"/>
  <path class="st23" d="M515.5,898.1c-8.6,5.7-13.9,13.1-25.8,12.8-8.8-1.7,5.7-12.2,7.8-14.1l18,1.3Z"/>
  <path class="st28" d="M513.1,863.6c0,6.7-8.5,3.6-9,3.8-3.2,1.3-10,8.6-15.6,7.7l5.4,2.6c-3.1.5-12.6,4.1-14.4-.6-3.1-8.5,27.7-12.3,33.6-13.4h0Z"/>
  <path class="st49" d="M588.7,945.5c-8.3-1.9-12.4-11-13.2-19.2,7.3,1.5,7.4,14.4,13.2,19.2Z"/>
  <path class="st39" d="M597,858.5h-2.4c-.3-1.1-5.2-.6-2.4-3.8,1.6,1.3,3.3,2.4,4.8,3.8h0Z"/>
  <path class="st51" d="M568.3,850.8c-2.9-.5-16.8,1.7-20.4,2.6,4.2-3.1,11.8-6,16.8-6.4s6.4-2.2,3.6,3.8h0Z"/>
  <path class="st41" d="M636.6,729.3c-.5-1.5,2.5-6.6,3-6.4,2.5,3.5-1.5,4.6-3,6.4Z"/>
  <path class="st57" d="M995,761.2c-2.2.4-4.4.9-6.6,1.3-3.3,2.4-6.9,5.4-10.2,7.7s-18.5,14.2-19.2,17.3l6,138.2c-.7,2.1-15,9.7-16.8,9.6.4-20.8.2-41.4-2.4-62-1.9-15.3-13.8-73.8-20.4-82.5s-2.3-4.9-3-5.1c-2-.6-17,2.1-21-1.3,1.3.2,11.5,0,12-.6-1.1-2.7,1.8-7.4,1.2-9-1.6-3.8-61.1-12.2-69.5-13.4,0-2.6-.6-14.4.6-15.4,15.5,8.8,31.4,10.3,48.5,10.2-3.3,10.8,15,10.1,21,9,9.1-1.8,15.9-14.1,25.2-16.6-22.7,31.4,48.3,6.9,49.7-.6,2.3-12.1-15.6,6.5-19.2-.6,6.3-2.3,11.7-7.8,18.6-9,2.6.8,6.9,18.6,5.4,23v-.2Z"/>
  <path class="st37" d="M948.2,935.2c-1.2,0-1.3-1.4-2.4-1.3,2.2-43.3-5.9-86.4-16.8-127.9-1.4-5.2-3.1-9.2-4.8-14.1-.3-.8.4-1.5,1.2-1.3,6.6,8.7,18.5,67.2,20.4,82.5,2.6,20.7,2.8,41.2,2.4,62h0Z"/>
  <path class="st34" d="M999.8,760l-21.6,10.2c3.3-2.2,6.9-5.3,10.2-7.7,2.2-.4,4.4-.8,6.6-1.3s2.5-2.1,4.8-1.3h0Z"/>
  <path class="st27" d="M964.4,768.9c1.5-.2,5.7-.9,5.4,1.9-4,1.3-9.8,5.3-12,9-10.6,17.9,1.2,72.6-4.2,95.3l-3-88.9c.9-6.9,7.1-16.2,13.8-17.3Z"/>
  <path class="st53" d="M816.4,555.3c-1.1-.3-5.5,0-5.4-2.6,21.3,2.6,42.8,3.4,64.1,1.3s51.1-13.1,53.3-11.5c4.1,2.9-12,9.4-14.4,10.2-22.3,7.8-74.9,8.5-97.7,2.6h.1Z"/>
  <path class="st40" d="M1241.9,461.9c-.7-2.7-12.9-10.3-13.8-10.2s-6.5,6.5-6.6,7c-.3,2.8,14.2,9.9,16.8,12.2s9.9,14.2,11.4,14.1,6.6-11.5,6.6-12.2-2-3.2-2.4-5.8c6.3-2.4,7.4-6,13.2-6.4l-9.6,9.6c16.6,9.5,36.2-8.5,50.3-17.3,3.2-2,1.1-3.2,6-6.4,0,1.4-1.7,2.2-2.4,3.2l3.6-.6c-6.1,12.3-33.7,23.8-46.1,26.9-3.7.9-10.3-1.4-10.8-1.3-.8.2-8.4,13-9,14.1.2-1.5-1.1-1.2-1.2-1.3-2.1-2.4-3.5-4.9-6-7.7-2.9-3.3-5-6.2-8.4-9-3.4-2.7-11.5-8.8-15.6-9h-1.2c-.9-8.3,11.9-11.4,16.8-16.6-.9,1.9-2.4,3.5-2.4,5.8l13.2,10.2c-.2,1-1.6.5-2.4.6h0Z"/>
  <path class="st100" d="M1251.5,460.6c.7,1.6,2.3,6,2.4,6.4.4,2.6,2.4,5.4,2.4,5.8,0,.7-5.9,12.1-6.6,12.2-1.5.2-9.4-12.3-11.4-14.1,7.2-4.8-1.5-8.7-1.2-9.6.5-1.8,3.1.9,4.8.6s2.2.4,2.4-.6l-13.2-10.2c0-2.3,1.4-3.8,2.4-5.8s1-2.5,2.4-2.6c3.2,7.4,10.3,12.5,15.6,17.9h0Z"/>
  <path class="st78" d="M1235.9,538.7c-4.7,23.6-20.2,45.7-36,62-.4.4.6,8.5-7.8,1.9-3.7-2.9-.2-4.3-.6-5.1,19.1-9.4,24.7-28.7,33.6-46.1,1.5-2.9,2.8-6.5,4.8-9,2.9,2.1,2.5.9,2.4-2.6,1.3-.8,1.9-1.2,3.6-1.3v.2Z"/>
  <path class="st68" d="M924.3,519.5c0,1.4-.3,3.5,0,4.5s1.9.4,2.4.6-.2,1.5,1.2,1.3c-18.3,6.8-35.6,12.2-55.1,14.1.8-1.2,9.1-6.2,9.6-6.4,13.1-5.1,29-6.3,42-14.1h-.1Z"/>
  <path class="st100" d="M1233.5,470.8c3.4,2.8,5.5,5.7,8.4,9-2.8,4.2-5.6,10.8-10.8,10.2-2.7-1.9-19.9-16-20.4-17.3-1.5-3.8,1.6-4.6,2.4-5.8,3.2,1.6,23.8,20.1,24,10.9l-3.6-7h0Z"/>
  <path class="st92" d="M1191.6,597.5c.3-4.2,12.1-12.5,12-13.4s-5.1.4-2.4-4.5c7.9-9.3,14.7-20.2,24-28.1-8.9,17.3-14.4,36.7-33.6,46.1h0Z"/>
  <path class="st25" d="M1233.5,470.8l3.6,7c-.2,9.2-20.8-9.2-24-10.9.7-1,4.6-2.9,4.8-5.1,4.1.1,12.2,6.2,15.6,9Z"/>
  <path class="st28" d="M1311.4,433.7c-3.6-.9-3.5-7.7-8.4-3.8-1.5-1.9-7.4-5.7-10.2-5.1-11.5,6.5-1.8,20,6.6,24.3-16.4,8-17.9-21.7-24-33.9s-2.2,1.6-4.8.6c-1.7-8.1-7-15.1-9.6-23h1.2c10.2-12.3,15.4-29.2,24-43.5,8.2,1.5,14.2-14.9,18-20.5,4.5,1.6,2.6,9.1,1.2,13.4-2.5,7.7-18.1,39.8-22.8,46.1s-5.1,2.3-8.4,6.4c18.2,7,31.2,19,37.2,39h0Z"/>
  <path class="st40" d="M1261.1,392.8c2.6,7.9,7.9,14.9,9.6,23s1.5,13,1.2,19.8l-4.2,9.6c-2.1-.6,1.7-7.8,1.8-9,.5-7.4,0-15-1.2-22.4l-13.2-30.1c-.7-2.9,0-5.8-1.2-10.2s-6.1-16.8-12.6-16.6c-9.8.3,1.1,12.3,1.8,16.6,2.4,14.4-9.9,37.3-8.4,55.6,1.3,15.1,11.4,19.9,16.8,31.3-5.3-5.4-12.4-10.5-15.6-17.9-11.1-25.9,8.2-50.1,4.8-68.4-.6-3.2-13.1-18.3-.6-19.8,14.9-1.9,17.9,29,21,38.4h0Z"/>
  <path class="st28" d="M1245.5,395.4c-10.1,11.8-4.1,55.2,15,48.6,3.4-1.2,2.7-9.7,9-7.7,0,1.1-3.9,8.3-1.8,9l4.2-9.6c.3-6.8.2-13.1-1.2-19.8,2.5,1,2.7-4.8,4.8-.6,6.1,12.2,7.6,41.9,24,33.9,8.8-4.3,9.8-11.4,3.6-19.2,4.9-3.9,4.8,2.9,8.4,3.8,2.1,6.9,2.8,5,2.4,12.8-4.9,3.2-2.8,4.4-6,6.4-2.1-.2,1.6-3.9-2.4-1.9-6.9,3.4-14.2,9.7-22.2,10.9s-11.8-1.6-16.2-1.3-6.9,4-13.2,6.4c0-.4-1.6-4.8-2.4-6.4-5.4-11.4-15.5-16.2-16.8-31.3-1.6-18.3,10.8-41.3,8.4-55.6,7.2-3.3,2.2,17.7,2.4,21.7h0Z"/>
  <path class="st103" d="M1303,429.9c6.2,7.7,5.3,14.9-3.6,19.2-8.4-4.3-18.1-17.8-6.6-24.3,2.8-.6,8.7,3.2,10.2,5.1h0Z"/>
  <path class="st40" d="M1315,446.5c-.3.2-.9-.2-1.2,0,.4-7.8-.3-5.9-2.4-12.8-6-20-18.9-32-37.2-39,3.3-4.1,4.4-1.1,8.4-6.4s20.3-38.3,22.8-46.1c1.4-4.3,3.3-11.9-1.2-13.4-6.8-2.4-15.2,15.8-18,20.5-8.5,14.3-13.8,31.2-24,43.5,6.9-12.3,11.1-26.8,18-39s20-36.8,28.8-25.6c6.8,8.8-23.6,56.3-27,67.2,11.7-7.2,44.3-62.1,57.5-57.6,1.6,1,4.1,5.7,4.2,7,1.1,18.1-45.1,58.8-44.3,62.7.8,4.1,6,.4,7.8-.6,3.7-2.1,53.7-53.9,50.9-24.9s-34.6,36.1-45.5,43.5c6.4,2.7,46.8-28.9,42-3.8-2,10.2-30.6,19.1-39.6,24.9h0Z"/>
  <path class="st99" d="M1304.2,328.8c-3.8,5.6-9.8,21.9-18,20.5,2.8-4.7,11.2-22.8,18-20.5Z"/>
  <path class="st28" d="M1334.8,340.4c1.5-.3,4.1-.3,5.4.6,6,11.2-38.8,64.1-42.6,64.6s-11.5-7.7-11.4-9.6c8.7-8.4,39.3-54,48.5-55.6h0Z"/>
  <path class="st28" d="M1348,376.2c24.3-4.3-13,30.8-18,34.5-10.6,8-22.3,20.6-25.8.6,10-4,35.9-33.8,43.7-35.2h.1Z"/>
  <path class="st28" d="M1343.2,414.6c31.6-3.8-20.7,31.2-27,26.2-.4-.3-2-9.2-3.6-10.2.5-1.7,28.8-15.8,30.6-16Z"/>
  <path class="st28" d="M1269.5,436.3c-6.2-2-5.6,6.5-9,7.7-19.1,6.6-25.1-36.8-15-48.6.3,6.8,8.2,58.7,16.8,30.7,2-6.6-5.1-33.2-7.2-42.2l13.2,30.1c1.1,7.3,1.7,15,1.2,22.4h0Z"/>
  <path class="st99" d="M1253.9,373.6c-4.4,17.8-.6,35.5,2.4,53.1l6-.6c-8.6,28-16.4-23.9-16.8-30.7s4.8-25-2.4-21.7c-.7-4.4-11.6-16.3-1.8-16.6,6.5-.2,11.2,11.4,12.6,16.6h0Z"/>
  <path class="st42" d="M1255.1,383.9c2.1,9,9.2,35.7,7.2,42.2l-6,.6c-3-17.6-6.8-35.3-2.4-53.1,1.2,4.4.5,7.3,1.2,10.2h0Z"/>
  <path class="st52" d="M1307.8,452.9c-14.2,8.8-33.8,26.7-50.3,17.3l9.6-9.6c4.4-.3,10.8,2.1,16.2,1.3,8-1.2,15.2-7.4,22.2-10.9s.3,1.8,2.4,1.9h0Z"/>
  <path class="st39" d="M1241.9,461.9c-1.6.2-4.3-2.4-4.8-.6s8.4,4.8,1.2,9.6c-2.6-2.3-17.1-9.4-16.8-12.2s6.1-7,6.6-7c.8-.1,13.1,7.5,13.8,10.2h0Z"/>
  <path class="st98" d="M737.3,260l24.6,22.6c-10.6,14.2-17.5,33-27.4,47.2s-19.6,20.7-27.8,31.9c-20.1,27.5-24,62.4-4.8,92.4s4.3,6.4,5.3,7.1c1.4,1,1.6-2.5,1.8-2.4,5.1,3,3.8,9.6,8.8,12.2.6,2.1,0,1,1.4,4.2,3.6,7.8,9.4,12.1,15.9,16.9,2.1,1.6,5.2,3.2,7.6,4.7,10.8,6.7,19.7,8.9,30.9,13.2,8.1,3.1,15.9,7,24.4,8.9l-10.5,8.2c-4.5,2.2-9.5,3.1-13.7,6.9-1.2-.3-2.8,0-5.2-.6-25.7-7.4-48.1-22.1-67.3-41.1,18.4-12.1-3.3-23.4-11.4-34.4-40.2-54.3-46.5-112.9-17.2-174.9,2.7.7,2.2,1.8,1.9,4.2-1.4,12.9-19.4,63.8,7.2,56.1,13.7-3.9,43.5-67.2,55.3-83.5l.2.2Z"/>
  <path class="st61" d="M1015.2,506.5c-10.8,5.5-21.1,10.3-32.5,14.4.5-6.7,7.4-12.7.4-17.5,10-4.9,20.9-11,30.2-17.4,3.8-2.6,8.5-4,11.6-7.8,8.1-4.3,17.2-10.9,23.5-17.8,6.4-6.9,23-33.8,24.2-43,4.6,6,10-16.7,10.5-19.2,11.8-52.2,3.8-101.7-14.9-149.9-1.3-3.3-2.1-11.9-3.4-15,64.9,88.9,45.1,219.4-49.6,273.2h0Z"/>
  <path class="st104" d="M901.9,134.4l-2.2,3.5c6.7,1.1,15.9,5.5,16.1,13.6-13.6-2.8-29.8-3.6-40.8-3.4-35.6.7-73.1,7.8-103.4,29.5-15.7,6.1-43.2,30.1-56.4,44.2l-7.1-10.2c50.9-56.7,119.6-84,193.8-77.2h0Z"/>
  <path class="st98" d="M708.2,211.6l7.1,10.2c-16.4,17.5-32,39.2-42.5,61.3-29.4,62-23.1,120.5,17.2,174.9,8.1,10.9,29.8,22.3,11.4,34.4-80.5-79.2-64.1-201.7,6.9-280.8h-.1Z"/>
  <path class="st98" d="M980.1,159l74.2,60c3.4,4.7,8.1,8.7,10.5,14.2,1.3,3.1,2.1,11.6,3.4,15-1.7,1.9-3,.2-4.2-1.2-42.7-49.7-84.5-82.5-148.2-95.5-.2-8.1-9.5-12.5-16.1-13.6l2.2-3.5c27.4,2.5,53.5,12.2,78.1,24.6h0Z"/>
  <path class="st61" d="M1054.3,219l-74.2-60c28.6,14.4,54.6,33,74.2,60Z"/>
  <path class="st104" d="M737.3,260c-11.8,16.2-41.6,79.5-55.3,83.5-26.6,7.6-8.6-43.2-7.2-56.1.3-2.4.8-3.5-1.9-4.2,10.5-22.2,26.1-43.8,42.5-61.3s40.7-38.1,56.4-44.2c34.8-13.6,48.9,26.9,18.3,48.4-21.2,14.9-33.8,8.1-52.7,34h0Z"/>
  <path class="st104" d="M915.8,151.5c63.7,12.9,105.5,45.8,148.2,95.5,1.2,1.4,2.5,3.1,4.2,1.2,18.7,48.3,26.7,97.8,14.9,149.9-.6,2.5-6,25.1-10.5,19.2,1.5-11.7-2.5-25.4-7.4-35.9-9.9-21.2-83.7-91.1-104.2-102.3-6.8-3.7-20.2-6.4-25-9.4-4.7-2.9-8.6-13.8-13-18.9-9.8-11.2-21.9-15.8-35.5-18.7-19.3-4.1-47.6-3.8-65.6,5.8-1.8,1-4.2,1.6-3.2,4.7-5.5,1.9-9.9,5.6-14.5,9.2.2-.2-.7-2.2.2-3.3s6.6-2.2,7.3-4.6c-10.4,1.7-19.8,9.7-28.2,16.6-7.8,6.4-15.4,13.7-21.5,22l-24.6-22.6c18.9-25.9,31.5-19.1,52.7-34,30.6-21.5,16.5-62-18.3-48.4,30.3-21.7,67.7-28.8,103.4-29.5,11-.2,27.2.6,40.8,3.4h-.2Z"/>
  <path class="st104" d="M953.1,238.4c24.6-6.8,31.9,16.8,16.4,22.3-22.1,7.9-36.5-16.8-16.4-22.3h0Z"/>
  <path class="st84" d="M982.7,520.8c-21.2,7.5-39,11.6-61.1,15.2l25.4-19.1c.7.9,1.6,1.3,2.6.8,11-5.3,22.5-9.1,33.5-14.5,6.9,4.8,0,10.8-.4,17.5h0Z"/>
  <path class="st50" d="M1072.6,417.3c-1.2,9.3-17.8,36.1-24.2,43-6.3,6.8-15.4,13.5-23.5,17.8.2-.3,3.3-5.3,3.6-5.8l15.3-11.5c18.6-13.3,25.3-43.1,3-56.1-.6-1.9.8-2.7.8-2.8-.3-.5-7.2-7.3-8.8-6.7,3.3,10,5.8,20.4,5.9,31.1,0,3.4-.9,13.1-3.7,15.7-.5-20.9-2.3-42.8-12.8-61l9.8.6c6.3-2.8-18.4-24.4-20.4-26.8-1.3-1.6.9-2.7.8-2.8,15.8,8.2,28,22.9,36.9,38.8,7.2-21.5-40.3-43.4-44.4-53.9s2.3-3.2-5.4-14.2c-13-18.7-32.7-36.9-53.4-45.3,3.5,6.7,10.9,10.2,17.9,16.2-5.3,5.9,12.6,9.8,9.8,17.6-.8-.6-11.7-8.7-10.6-3.8,10.4,7.9,23.9,22.1,28.8,34.7,3,7.6,4.2,16.5,5.3,24.6-.5,1.5-2,14.1-5.6,11.5-6-28.5-5.4-.9-3.7,10.2h-1c-.5-5.5-2.4-12.5-3.7-18.1-1.4-8.8-2.5-14-5.1-22.4-7-22.2-19.3-40.6-36.4-55.3-1.6-1.4-8.8-4.1-9.1-4.5-1.9-2.6-2.9-14.3-2.7-18.3,4.8,3,18.1,5.7,25,9.4,20.6,11.2,94.4,81,104.2,102.3,4.9,10.5,8.9,24.2,7.4,35.9h0Z"/>
  <path class="st97" d="M1028.4,472.3c-.3.5-3.3,5.6-3.6,5.8-3.1,3.8-7.8,5.2-11.6,7.8-7.6,1.7-14.2,6.5-21.7,8.8-.3-11,9.3-21.9,5.2-32.3,1.3-6.9.6-13.8,0-20.8-.2-1.8,2.5-4.9,2.6-5.2,3.6-19.4-2.8-30.9-5.5-48.1-1.7-11.1-2.3-38.7,3.7-10.2,3.6,2.6,5.1-10.1,5.6-11.5,1.4-4.3,2.3-6.6,3.1-11.3,2.8.4,8.3,10.4,9.4,12.7,14.5,31.4,30.9,69.5,12.7,104.2h0Z"/>
  <path class="st93" d="M1013.3,485.9c-9.2,6.4-20.1,12.5-30.2,17.4-11,5.4-22.5,9.2-33.5,14.5l27.4-24.8h1c-.9,1.1-3.1,4.1-3.1,5.7,5.4-1.2,11.3-2.3,16.5-3.9,7.5-2.4,14.1-7.2,21.7-8.8h.2Z"/>
  <path class="st10" d="M1018.3,351.9c0,.1-2.1,1.2-.8,2.8,2.1,2.5,26.7,24,20.4,26.8l-9.8-.6c10.5,18.2,12.3,40.1,12.8,61,2.8-2.6,3.7-12.3,3.7-15.7-.2-10.7-2.7-21.1-5.9-31.1,1.6-.5,8.6,6.2,8.8,6.7s-1.4.9-.8,2.8c5.8,18.4,1.7,38.1-3,56.1l-15.3,11.5c18.2-34.7,1.8-72.8-12.7-104.2s-6.5-12.3-9.4-12.7c.9-5.5,1-10.9,1-16.5,2.6,6.2,7.2,8.5,10.9,13.1h.1Z"/>
  <path class="st62" d="M969.9,293.5c5.9,5.1,30.6,31.3,32.7,32.1s3.1-1,2.8-3c7.7,11,2.5,6.7,5.4,14.2s51.7,32.4,44.4,53.9c-8.9-15.8-21.1-30.6-36.9-38.8-3.7-4.6-8.3-6.9-10.9-13.1,0,5.6,0,11-1,16.5-.8,4.7-1.7,7-3.1,11.3-1.1-8.1-2.4-17-5.3-24.6,2.3-1.7,2.8-.4,2.2-3.5-1.4-8.2-14-22.5-20.5-27.4,2.8-7.8-15.1-11.6-9.8-17.6h0Z"/>
  <path class="st10" d="M1043.8,460.8c4.7-18,8.8-37.7,3-56.1,22.3,13.1,15.6,42.8-3,56.1Z"/>
  <path class="st81" d="M1005.4,322.6c.3,2.1-.5,3.9-2.8,3s-26.7-27-32.7-32.1c-6.9-6-14.4-9.4-17.9-16.2,20.7,8.4,40.3,26.5,53.4,45.3h0Z"/>
  <path class="st10" d="M994,388.4c2.7,17.2,9,28.7,5.5,48.1s-2.8,3.3-2.6,5.2c-.8-12.8-3.3-27-4.7-40,.5-3,1.1-10.6.8-13.2h1Z"/>
  <path class="st81" d="M979.7,311.1c6.5,4.9,19,19.1,20.5,27.4.5,3.1,0,1.8-2.2,3.5-5-12.7-18.4-26.8-28.8-34.7-1.1-4.9,9.9,3.2,10.6,3.8h0Z"/>
  <path class="st22" d="M991.6,494.7c-5.3,1.7-11.1,2.7-16.5,3.9,0-1.6,2.1-4.6,3.1-5.8,7.3-9.7,16.2-16.9,18.7-30.4,4.1,10.4-5.5,21.3-5.2,32.3h0Z"/>
  <path class="st79" d="M774.1,392.9c-1.4.4-6.6,4.8-7.6,6.3-4.9,6.9-3,12.1-1.2,19.8.9,3.9,6.3,19,8.2,22.1,7.1,11.6,19.5,8,24.3-3.6,3.1,27,16.6,51.4,36.9,67.2,9.3,11.8,24.9,18.1,38,23.4-11.7,0-23.9-.3-35.5-1.7-23.1-2.9-27-10-49.6.8l10.5-8.2c-8.5-1.9-16.3-5.8-24.4-8.9,4.1-.8,1.2-1.8.2-3.3-20.3-29.4-31.8-57.8-29.8-95.3,0-.6,1.4-3,1.7-3.5,3-3.7,22.9-13.9,28.3-15h0Z"/>
  <path class="st10" d="M786.9,342.3c-3.7,14.9-6.8,29.1-7.2,44.5-8.1,3.4-9.7-26.3-11.1-26.2-3,7.1-1.7,23.7-5,29.5s-14.1,10.4-17.7,13.3c-1.5,1.3-4.8,4.1,0,4.4-.3.4-1.6,2.8-1.7,3.5l-22.5,11.1-5.2-6c-4.7,17.8-3.8,37,1.4,54.5-5-2.6-3.7-9.2-8.8-12.2-.2-.1-.4,3.4-1.8,2.4s-4.3-5.7-5.3-7.1c.7-.1,1.4,0,2-.2,1.7-.4,3.1-29.9,4.9-36.1s8.3-18.6,13-25.4c-6,3.2-14,14.4-16.5,20.9.3-13.2,13.5-23.7,22.8-30.3-3.1-1.7-6.3-2.3-9.6-3.9,9-5.3,13.7-11.1,16.4-22-.2-.3-5.6,3.1-5.8,3.3-1.6-4,6.2-5.5,3.3-9.1,5-5.6,10.2-10.9,14.8-16.9,1.4,2.5-8.5,25.8-4.3,25.6,5.3-.8,11.3-20.6,12.4-21s3.6,4.5,5.6,4.9c7.8,1.6,11.3-7.7,14.7,3.9,1.8.4,13.3-17.4,15-20.2-.4,5.1-2.6,9.8-3.8,14.6v.2Z"/>
  <path class="st22" d="M744,411.3c-2,37.5,9.5,65.9,29.8,95.3,1,1.5,3.9,2.5-.2,3.3-11.2-4.3-20.2-6.5-30.9-13.2-8.1-16.5-15.2-33.9-19.2-52.1-1.2-5.5,2-15.5-2-22.2l22.5-11.1h0Z"/>
  <path class="st29" d="M745.4,325.9c-16.1,18.8-48.2,44.4-47.9,69.6s-1.7,4.3-.5,6.1l2-.2c.6,5.3-2.9,11.3-2.6,16.7.4,6.4,3.6,7.7,4,10.5s-3.6,10,1,11.4c.3,4.8,1.2,9.3,2.3,14-.6.2-1.4.1-2,.2-19.2-29.9-15.3-64.9,4.8-92.4l21.1-20.8c6.8-7.3,11.2-16.4,16.7-24.7,4.4,3.8-3.8,9.9.9,9.8l.2-.2Z"/>
  <path class="st97" d="M721.5,422.5c4,6.7.9,16.7,2,22.2,4,18.2,11,35.6,19.2,52.1-2.4-1.5-5.5-3.1-7.6-4.7-2.1-6.3-10.4-30-15.9-16.9-1.5-3.2-.8-2.1-1.4-4.2-5.2-17.5-6.1-36.8-1.4-54.5l5.2,6h0Z"/>
  <path class="st97" d="M746.2,312.7c-.9,1.4-1.1,2.5-1.7,3.5-5.5,8.3-9.9,17.4-16.7,24.7l-21.1,20.8c8.2-11.2,19.7-20.4,27.8-31.9s16.8-33,27.4-47.2c6.2-8.2,13.7-15.5,21.5-22,1.8.4-.6,4-1.1,4.5-20.8,18.2-21.7,25.8-36.1,47.5h0Z"/>
  <path class="st10" d="M735.1,492.1c-6.5-4.8-12.3-9.2-15.9-16.9,5.5-13.1,13.8,10.7,15.9,16.9Z"/>
  <path class="st62" d="M887.4,232.2l2.2,2c-2.1.5-33.1,25.8-33.3,28.1s7.1,3.2,6.5,14.6c-.2,3.4-7.4,16-1.4,18.2-2.2,3.3-7.2,18.1-10.1,23.5s-6.6,12.4-7.5,7.9c.7-2.1,5.7-26.4,4.2-26.7-3.9,26.1-14.7,38.6-29,57.7-1.9-2.1-3.9-1.2-5.3-1.6,7.9-17.3,17.4-33.6,26.1-50.3.9-1.8,1.2-6.9,1.4-7.3,4.8-9,26.5-18.8,4.9-25.1l9.4-9.7-15.2-3.3,1-6.1-9.4-2.3,25.2-15.8-6.3,3.4c-9.2.3-23.8.6-32,3.4-1.1-3.2,1.3-3.7,3.2-4.7,18-9.6,46.2-9.9,65.6-5.8h-.2Z"/>
  <path class="st3" d="M804.1,251.9c-27.1,30-3.2,8.9,13.2,4.1-9,30.4,7.3,6.7,19.8,3.4l-6.4,14.3c3.2,2.7,15.2-8.2,14.4.7s-10.9,12.3-11.6,12.7c-1.5.8-30.7,6-32.3,5.6-2.9-.9,1.2-6.1-2.6-6.3-.4,0-4.3,5.4-5.1,6-1.6,1.3-11.3,10.4-11.9,10-2.4-1.7,1.3-10.4-3-10.6-8.7.5-20.5,27.8-14.2,1.5-6.6,4.7-10.2,13.6-15.1,19.6-1.6,2-1.6,2.4-3.1-.2,14.4-21.7,15.3-29.3,36.1-47.5.5-.5,2.9-4,1.1-4.5,8.4-6.9,17.8-14.9,28.2-16.6-.6,2.4-6.9,4.1-7.3,4.6-.9,1.1,0,3.1-.2,3.3h0Z"/>
  <path class="st2" d="M841.2,298.3c-8.8-19.6-8.4-7.9-14.2,1.5s-6.4,13.9-11.8,5.1c-2.3-3.8-.4-11.1-4.6-11-3.4,2.5-5.6,5.9-7.8,9.6-.9,1.4-1.9,3.2-2.6,4.7l-5.9,2.3c.7-6.2,9.5-18.3-.6-18,.8-.6,4.7-6,5.1-6,3.8.1-.3,5.4,2.6,6.3s30.8-4.8,32.3-5.6,11.6-11.8,11.6-12.7c.8-8.8-11.2,2-14.4-.7l6.4-14.3c-12.5,3.3-28.8,27-19.8-3.4-16.4,4.8-40.3,26-13.2-4.1,4.6-3.5,9-7.3,14.5-9.2,8.1-2.8,22.8-3.1,32-3.4l6.3-3.4-25.2,15.8,9.4,2.3-1,6.1,15.2,3.3-9.4,9.7c21.6,6.3,0,16.1-4.9,25.1h0Z"/>
  <path class="st10" d="M779.7,386.8c0,2.8,1.2,3.3-1.5,5.6-1.3.3-2.8,0-4.1.4-5.4,1.1-25.4,11.3-28.3,15-4.7-.3-1.4-3.1,0-4.4,3.6-3,15.9-10,17.7-13.3,3.2-5.8,2-22.4,5-29.5,1.4-.1,3,29.6,11.1,26.2h0Z"/>
  <path class="st62" d="M793.5,292.4c10.1-.3,1.4,11.8.6,18l5.9-2.3c-1.8,3.6-3.4,12.7-5.7,16.5-1.7,2.8-1.8,0-3.8,3.1s-13.2,20.6-15,20.2c-3.4-11.7-6.9-2.3-14.7-3.9s-5-5.1-5.6-4.9c-1.1.4-7.1,20.2-12.4,21-4.2.2,5.7-23.1,4.3-25.6,5.5-7,12-15.5,15.2-24-6.7,1.8-12.3,10-17,15.5-4.7.2,3.5-5.9-.9-9.8.6-.9.8-2.1,1.7-3.5,1.5,2.7,1.5,2.2,3.1.2,4.9-6,8.5-14.9,15.1-19.6-6.3,26.4,5.5-1,14.2-1.5,4.3.2.7,9,3,10.6.6.4,10.3-8.7,11.9-10h.1Z"/>
  <path class="st90" d="M805.3,353.5c-1.5.7-14.3,29.1-14.5,31.6s1,23.2,5.5,20.8,2.5-21.4,7.5-23.8c-3,8-3.9,16.1-4.9,24.6s-2.4,15.1-2.2,21l-2,.2c-.2-3.2-3.2-7.4-4-10.5l-12.5-24.9c2.7-2.3,1.5-2.8,1.5-5.6.4-15.4,3.4-29.6,7.2-44.5l18.5,11.2h0Z"/>
  <path class="st35" d="M806.3,353.4c-.4,0-.8,0-1,.1l-18.5-11.2c1.2-4.8,3.4-9.5,3.8-14.6,2-3.2,2.2-.3,3.8-3.1,2.2-3.8,3.8-12.9,5.7-16.5s1.8-3.2,2.6-4.7c4.7,1.3,1.8,13.5,2.8,13.9,2,.9,10.7-5.8,13.9-4.7,6.7,2.3-14.4,34.1-13.2,40.8h.1Z"/>
  <path class="st50" d="M732.4,351.3c2.9,3.6-4.8,5-3.3,9.1-4.2,3.3-10.2,14.3-12.6,19.4.8,1.2,1.2-1.1,2-.8,3.3,1.6,6.4,2.2,9.6,3.9-9.3,6.6-22.6,17.1-22.8,30.3-3.1,8.1-4.3,17.9-3.7,26.6-4.6-1.3-1-10.8-1-11.4-.4-2.8-3.6-4.1-4-10.5-.4-5.3,3.2-11.4,2.6-16.7l-2,.2c-1.2-1.8.5-5.8.5-6.1,5.8-12,11.8-24.3,21-33.9,2.2-2.3,11.5-7.5,13.9-10.2h-.2Z"/>
  <path class="st81" d="M747.2,334.4c-4.7,6-9.8,11.3-14.8,16.9-2.4,2.7-11.7,7.9-13.9,10.2-9.1,9.7-15.1,21.9-21,33.9-.3-25.2,31.8-50.8,47.9-69.6,4.7-5.5,10.3-13.7,17-15.5-3.2,8.5-9.8,17-15.2,24h0Z"/>
  <path class="st97" d="M703.9,453.8c-1.1-4.7-2-9.1-2.3-14-.6-8.7.6-18.5,3.7-26.6,2.5-6.5,10.5-17.7,16.5-20.9-4.7,6.9-10.7,17.4-13,25.4s-3.2,35.7-4.9,36.1Z"/>
  <path class="st29" d="M718.5,379c-.7-.4-1.2,2-2,.8,2.4-5.1,8.4-16.1,12.6-19.4.3-.2,5.7-3.7,5.8-3.3-2.7,10.8-7.4,16.6-16.4,22h0Z"/>
  <path class="st89" d="M806.3,353.4c1.9-.3,3.6,1.2,5.3,1.6s1.3.6,2.1.9c1.4.4,3.4-.4,5.3,1.6-2.8,3.8-14.4,18.5-14.3,22.3s.2,1.5.2,2.2c-.3,0-.8,0-1,.1-5,2.4-5.7,22.8-7.5,23.8-4.5,2.4-5.7-18.3-5.5-20.8s13-30.9,14.5-31.6.7,0,1-.1h0Z"/>
  <path class="st10" d="M934.5,276.5c-1.3,13.2-7.3,28.2-17.1,36.8,2.7-6,11.4-36.6,8.5-40.8-4.1-6.2-2.9,25.7-9.5,19.6-1.1-1.6,4.2-35.8-2.6-39.1,2.1,14.7,0,29.1-2.1,43.4-5.6-2.6-7.7,11.5-9.8,15.8-1.5,2.9-7.9,10.6-8.2,11.3l-4.4-2.8c4.1-8.2,8.3-17.2,6.7-27s.3-4-2-5.3l-14.2,23.4-1.9-9.6c-9.3,21-18.8,35.1-37.1,47.7,9.1-8.3,30.1-46.5,27.4-58.1-.9-3.8-6.3,2.6-6.9,3.5-6-2.2,1.2-14.8,1.4-18.2.6-11.4-6.5-13.7-6.5-14.6.2-2.3,31.2-27.6,33.3-28.1,5.9-1.4,25.6,11.1,30.2,16,5.1,5.4,12.9,19.1,14.7,26.3v-.2Z"/>
  <path class="st21" d="M896.1,293.6c-15.3,25.3-31.6,52.2-56.3,67.7,6.9,0,11.3-7.1,19.4-5.9.9.1,6,2.7,4.6,5-16.9-1.5-33.8,13-49.6,12.3,3.8-3.2,5.6-7.1,8.2-11.3s3.1-4.7,4.5-7c.6-.2,1.6,0,2-.2l1.3,2.6c4.3-.9,7.1-4.7,10.6-7.1,18.3-12.6,27.8-26.7,37.1-47.7l1.9,9.6,14.2-23.4c2.3,1.3,1.7,3.1,2,5.3h0Z"/>
  <path class="st29" d="M840.8,349.8c-3.5,2.4-6.3,6.2-10.6,7.1l-1.3-2.6c2.7-1.5,13.6-23.8,14.9-27.8.9,4.5,7.2-7.4,7.5-7.9,2.9-5.4,7.9-20.2,10.1-23.5.6-.8,6-7.2,6.9-3.5,2.7,11.6-18.4,49.8-27.4,58.1h-.1Z"/>
  <path class="st90" d="M881.5,346.6c5-.1,13.6-5.3,17.7-8.4l1.3,3.1c-4.5,3.8-8.4,8.3-13.8,11.3-10.2,5.7-18.3,10.3-27,1.2,0-.9,12-9.3,13.4-10.7l5.3-3.8c4.3,3.6-3.4,7.4,3.2,7.3h-.1Z"/>
  <path class="st97" d="M900.5,341.3l-1.3-3.1c6.6-5.2,14.6-16.9,18.2-24.9,9.8-8.6,15.8-23.6,17.1-36.8,6.3,25.2-16.7,50.4-34,64.8Z"/>
  <path class="st22" d="M881.5,346.6c-6.6,0,1-3.7-3.2-7.3l-5.3,3.8c5.9-6.2,12.5-14.7,16.4-22.5l4.4,2.8c-.7,1.7-2.3,9.5.4,9.8,7.5-7.7,13.8-16.2,18.6-26,1.7-3.5,2.2-8.5,3.5-12.4,5.4.3-3.6,18.8-4.7,20.7-7.4,12.9-20.4,20.3-29.9,31h-.2Z"/>
  <path class="st67" d="M936,269.8c-.2,4.1.8,15.7,2.7,18.3-1.1,0-.8.6-.9,1.2-.5,2.3-.7,7.4-1.2,8.9-14.6,43.4-51,56.3-87.1,67.1-15,4.5-29.6,10.7-44.8,14.5,0-3.8,11.5-18.5,14.3-22.3,14.3-19.1,25.1-31.6,29-57.7,1.5.3-3.5,24.6-4.2,26.7-1.3,4-12.2,26.3-14.9,27.8-.4.2-1.4,0-2,.2,1.6-2.7,5.4-6,4.8-9.3-4.2,4.7-7.5,10.5-11.4,15.4-3.8,4.8-8.5,8.7-12,13.8l13.2-12.9h1c-2.6,4-4.4,7.9-8.2,11.1,15.8.6,32.7-13.8,49.6-12.3,1.4-2.3-3.7-4.9-4.6-5-8.1-1.2-12.5,5.8-19.4,5.9,24.7-15.5,41-42.5,56.3-67.7,1.6,9.7-2.6,18.8-6.7,27-3.9,7.8-10.5,16.3-16.4,22.5-1.4,1.4-13.4,9.8-13.4,10.7,8.7,9.1,16.8,4.5,27-1.2s9.3-7.5,13.8-11.3c17.3-14.4,40.3-39.7,34-64.8-1.8-7.3-9.7-20.9-14.7-26.3-4.6-4.9-24.3-17.4-30.2-16l-2.2-2c13.6,2.9,25.8,7.4,35.5,18.7,4.4,5.1,8.3,16,13,18.9h.1Z"/>
  <path class="st97" d="M893.4,302.7c-4.4,21.6-22.4,40.6-39.3,52.3l39.3-52.3Z"/>
  <path class="st29" d="M821.4,361.6l-13.2,12.9c3.5-5.1,8.2-9.1,12-13.8l1.1,1h.1Z"/>
  <path class="st29" d="M826.9,354.5c-1.4,2.3-3,4.7-4.5,7h-1c0,.1-1.1-.9-1.1-.9,3.9-4.9,7.2-10.7,11.4-15.4.6,3.2-3.2,6.5-4.8,9.3h0Z"/>
  <path class="st81" d="M841.2,298.3c-.2.3-.4,5.4-1.4,7.3-8.7,16.8-18.3,33.1-26.1,50.3-.8-.3-1.3-.7-2.1-.9-1.1-3.6-.9-3.9.4-7.1,4.1-10.5,14.6-22.9,17.3-34.6,1.2-5.1,3.8-13.2-2.3-13.4,5.8-9.4,5.4-21.1,14.2-1.5h0Z"/>
  <path class="st50" d="M827,299.8c6.1.2,3.4,8.4,2.3,13.4-2.7,11.8-13.2,24.1-17.3,34.6-1.3,3.2-1.5,3.6-.4,7.1-1.7-.4-3.4-2-5.3-1.6-1.2-6.7,19.8-38.4,13.2-40.8-3.2-1.1-11.9,5.6-13.9,4.7-1-.4,1.8-12.7-2.8-13.9,2.2-3.6,4.4-7.1,7.8-9.6,4.2-.1,2.3,7.2,4.6,11,5.4,8.8,9-.5,11.8-5.1v.2Z"/>
  <path class="st29" d="M917.4,313.3c-3.6,7.9-11.6,19.7-18.2,24.9-4,3.1-12.6,8.3-17.7,8.4,9.6-10.8,22.5-18.1,29.9-31s10.1-20.4,4.7-20.7c-1.3,3.8-1.7,8.9-3.5,12.4-5.9,1.7-1.6-6.8-1-10.8,2.1-14.3,4.2-28.7,2.1-43.4,6.7,3.3,1.5,37.5,2.6,39.1,6.6,6.1,5.3-25.8,9.5-19.6,2.8,4.2-5.8,34.8-8.5,40.8h.1Z"/>
  <path class="st29" d="M911.8,296.4c-.6,4.1-4.9,12.5,1,10.8-4.8,9.8-11.1,18.3-18.6,26-2.7-.3-1.1-8.1-.4-9.8.3-.7,6.7-8.4,8.2-11.3,2.2-4.3,4.2-18.4,9.8-15.8h0Z"/>
  <path class="st96" d="M1024.1,503.3c0,.7,0,1.5.2,2.2-71.6,36.7-164.8,48.6-242.9,33.2-5.8-1.1-10.1-2.1-15.7-3.8l2.9-1.4c2.4.7,4,.2,5.2.6,43.4,11,88.6,9.1,132.5,3.6,5-.6,10.2-.8,15.2-1.6,22.2-3.5,39.9-7.7,61.1-15.2s21.7-8.9,32.5-14.4c2.1-1.1,7-2,8.9-3.1h.1Z"/>
  <path class="st56" d="M872.7,528c10.3,4.1,19.2,8.8,30.5,8.8s2.9-1,3.1.8c-44,5.5-89.2,7.4-132.5-3.6,4.2-3.8,9.2-4.7,13.7-6.9,22.6-10.8,26.5-3.7,49.6-.8,11.6,1.4,23.9,1.8,35.5,1.7h.1Z"/>
  <path class="st97" d="M993,388.5c.2,2.6-.4,10.2-.8,13.2v-1.1c-.5-4.3-.6-8.7-1.2-13-.8-5.7-.7-11.7-1.6-17.3,1.3,5.6,3.2,12.6,3.7,18.2h-.1Z"/>
  <path class="st64" d="M982,347l8.9,40.6c.6,4.3.7,8.7,1.2,13,.2,33.7,12.1,66.5-15.1,92.4-10,8-20.1,16-30.1,23.9-21.7,15.8-30.1,20-33,19.9h-10.8c-2.3-1-3.7-2.4-5.5-3.8,14.4,2.6,13.1,4.3,26.9-2.8,13.1-6.8,52.2-39.1,59.3-51.6,9.8-17.2,6.9-30.9,3.6-49.6-.6-3.4-1.5-12.8-4.4-14.3.8-3.1,1-5.7,1.2-8.9,2.4-3.4,2.7-7.2,3.1-11.3.2-2.2,1.7-4.8,1.6-5.1-.3-1.1-5.2-3.4-6.5-4.2-1.1-7.9-1.2-17.2-3.3-24.8-.6-2.3-1.8-4-2.6-6.3-3.8-10.8-28-54.3-37.9-55.1-.9,0-2,.7-2.1-.9.5-1.5.7-6.6,1.2-8.9,22.4,11.2,35.1,34,44.3,57.7h0Z"/>
  <path class="st15" d="M938.7,299c.4,36.2-37.4,63.6-67,73.2l11.1,20.7,1.3,25.6c-1.4-5.4-2.9-9.8-5.5-14.7,1.8-1.7-3.2-8.9-4-10-10.5-13.5-24.8-16.3-40.1-12.7-1.1-6.6,7.2-4.2,10.3-5.5s2.1-4.5,2.6-4.7c1.9-.7,10.3,3.4,11.6-1.8l-9.6-3.9c36.1-10.8,72.5-23.7,87.1-67.1,0,1.6,1.2.8,2.1.9h.1Z"/>
  <path class="st69" d="M972.9,381.8c3.1.7,6.8,1.8,9.5,3.4,5.3,3.1,6.4,3.3,6.5,4.2.3,2.2-3.4,2.7-4.9,6.8-1,2.8.7,3.6.2,9.5-.3,3.1-.4,5.8-1.2,8.9-2.2,8.6-5,10.3-12.1,13.3,33.9-25.7-19.4-69.7-32.6-31.6-.2.6-.8,2.2-.8,2.3l-1.9,1.3c.2-.5-.4-1.7-.2-2.2,6.4-18.6,21.7-19.6,37.5-16h0Z"/>
  <path class="st64" d="M897.7,533c1.8,1.4,3.2,2.8,5.5,3.8-11.3,0-20.3-4.7-30.5-8.8-13.1-5.2-28.8-11.6-38-23.4,16.6,12.9,42.8,24.7,63.1,28.4h0Z"/>
  <path class="st97" d="M992.2,401.7c1.5,13,3.9,27.2,4.7,40,.4,7,1.2,13.9,0,20.8-2.5,13.5-11.4,20.7-18.7,30.4h-1c27.2-25.7,15.2-58.6,15.1-92.3v1.1h0Z"/>
  <path class="st86" d="M984.2,347.8l-2.1-.9c-9.1-23.7-21.9-46.5-44.3-57.7,0-.6-.2-1.2.9-1.2.3.4,7.5,3.1,9.1,4.5,17,14.6,29.4,33,36.4,55.3h0Z"/>
  <path class="st86" d="M984.2,347.8c2.6,8.4,3.8,13.7,5.1,22.4s.8,11.6,1.6,17.3l-8.9-40.6,2.1.9h.1Z"/>
  <path class="st15" d="M987.4,394.5c-.4,4-.7,7.9-3.1,11.3.4-4.8-3.4-10.2,3.1-11.3Z"/>
  <path class="st64" d="M897,530.1c.7.4,3.8,2.3,8.3,3.9,1.6.6,2.9.9,3.9,1.2-11-1.6-26.7-5-44.4-12.9-10.7-4.8-19.5-9.4-30.2-17.6-20.3-15.8-33.8-40.2-36.9-67.2-.4-3.2-.8-6.6-.9-9.8-.2-5.9,1.4-14.9,2.2-21,1.9,11.5-1.1,22.5,1.1,34.3,1.5,8.3,5.3,27.9,18.5,44.8,23.7,30.3,67,37.6,78.4,44.3h0Z"/>
  <path class="st15" d="M894.4,530.1c-45-19.7-82.9-27.5-94.3-89.1-2.2-11.8.8-22.8-1.1-34.3,1-8.5,1.9-16.5,4.9-24.6.2-.1.7-.1,1-.1.5,0,3,0,3.1.2.4,1.2-3.8,20.9-3.8,25.6.6,78.7,40,84.8,88.2,117.1,3.3,2.2,2.8.7,2,5.3h0Z"/>
  <path class="st104" d="M971,428c-14.7,6.1-22.9,1.7-37.4-.4-4.3-2.3.8-23.4,2.1-27.6l1.9-1.3c-1.9,8.4-1.4,15.9,4.1,22.5s20.5,7.7,26.4-2.8c12.8-22.6-13.9-49.4-29.7-22,13.3-38.1,66.5,5.9,32.6,31.6h0Z"/>
  <path class="st15" d="M972.9,381.8c-15.7-3.6-31.1-2.7-37.5,16-9.4-4.9,5.1-25,11.3-27.4,8.6-3.5,24.8.5,26.2,11.5h0Z"/>
  <path class="st22" d="M963.7,347.8c.5.2,8.8,5.6,8.8,6.2-9.8,1.7-21.7-2-32,2.8.2-2.2,4.5-7.6,5.9-8.3,3.8-2,13.2-2.1,17.4-.7h-.1Z"/>
  <path class="st24" d="M976.5,354.1c-3.9-2.7-7.4-5.9-12-7.5-7-2.4-12.8-2.9-19.4.9-3.6,2.1-10.1,9-7.4,13.9,15-6.7,26.2-6.8,41.4-1.1,2.1,7.6,2.3,16.9,3.3,24.8-2.7-1.6-6.5-2.7-9.5-3.4-1.4-11-17.5-14.9-26.2-11.5-6.2,2.5-20.8,22.6-11.3,27.4-.2.5.4,1.7.2,2.2-1.3,4.2-6.3,25.3-2.1,27.6,14.5,2.2,22.8,6.6,37.4.4,7.1-3,9.9-4.7,12.1-13.3,2.9,1.5,3.8,10.9,4.4,14.3,3.3,18.7,6.2,32.4-3.6,49.6-7.1,12.5-46.2,44.8-59.3,51.6-13.8,7.2-12.5,5.4-26.9,2.8-.2,0-1.8,0-2.7-1.4-.4-.6-.6-1.2-.6-1.6.8-4.6,1.3-3-2-5.3-48.2-32.3-87.6-38.4-88.2-117.1,0-4.7,4.1-24.3,3.8-25.6,0-.2-2.6-.2-3.1-.2,0-.7-.2-1.5-.2-2.2,15.2-3.9,29.7-10,44.8-14.5l9.6,3.9c-1.3,5.2-9.7,1.1-11.6,1.8-.5.2.3,3.4-2.6,4.7-3,1.3-11.4-1.2-10.3,5.5-7.2,1.7-12.8,4.3-18.6,9.1,10.9,5.1,4.8,7.8,7.6,15.6,4.3,11.9,14,25.4,26.9,25.1,5.7,1.2,23.2,1,28-1.8,4.6-2.7,2.1-8.3,5.7-10.4l-1.3-25.6-11.1-20.7c29.6-9.6,67.5-37,67-73.2,9.9.8,34.1,44.3,37.9,55.1h-.1Z"/>
  <path class="st67" d="M946.3,348.5c-1.4.7-5.7,6.1-5.9,8.3,10.3-4.8,22.3-1.1,32-2.8,0-.6-8.3-6-8.8-6.2l.9-1.2c4.6,1.6,8,4.8,12,7.5.8,2.2,2,4,2.6,6.3-15.2-5.8-26.4-5.6-41.4,1.1-2.7-4.9,3.8-11.8,7.4-13.9l1.1,1h.1Z"/>
  <path class="st64" d="M919.7,430.5c2.4,6,5.1,10.9,7.6,14.7-.2,2.4-.5,3.6-1,3.8-1.4.4-4.2-7.3-8.3-23.1.5,1.5,1.1,3,1.7,4.5h0Z"/>
  <path class="st102" d="M918.5,428c-1.7-5.7-2.1-10.8-2.2-14,0,3.6.5,6.4.9,8,1.4,6,3.8,8.5,9.4,19.3,2.7,5.2,2.8,6,2.7,6.8-.6,4.9-10.5,5.2-20.6,4.4,14.5,0,17.7-3.1,18-6,.4-4-4.9-7.5-8.2-18.6h0Z"/>
  <path class="st67" d="M964.6,346.6l-.9,1.2c-4.1-1.3-13.5-1.3-17.4.7l-1.1-1c6.6-3.9,12.4-3.3,19.4-.9h0Z"/>
  <path class="st9" d="M866,460.9c6.5-2.5,8.8,4.7,15,7.2,5.8,2.3,19,5.6,25.2,6.1,11.4,1,22.9-.8,34.2-1.9-15.3,39.3-48.9,49.4-69,7.3-.9-2-7-17.7-5.3-18.6h-.1Z"/>
  <path class="st104" d="M872.7,469.6l54.7,10.1c-.2,10.9-53.1,6.5-54.7-10.1Z"/>
  <path class="st66" d="M879.5,485.7c14.4-.3,21.9,2,30.6,14.8-3.7,6.9-11.6,3.7-16.8,1.2-.3-.2-1-3.4-3.5-5.1s0,2.9-1.4,1.8c-1.8-1.4-11.9-9.7-8.9-12.7h0Z"/>
  <path class="st44" d="M778.2,392.4l12.5,24.9c-7.2-1.8-11-13.4-16.6-8.1l.8-2.3-6.4,2.3c-.6,14.6,8.1,21.9,14.3,33s1.3,1.1.3,3.3c-4.9.3-6-2.3-9.6-4.5-1.9-3.1-7.3-18.2-8.2-22.1-1.3-7.2-.9-13,1.2-19.8,1.1-1.5,6.2-5.9,7.6-6.3,1.3-.3,2.8-.2,4.1-.4h0Z"/>
  <path class="st65" d="M796.8,427.7c0,3.2.5,6.6.9,9.8-4.8,11.6-17.2,15.3-24.3,3.6,3.7,2.2,4.7,4.7,9.6,4.5,7.5-.4,12.2-10.2,11.7-17.6l2-.2h0Z"/>
  <path class="st6" d="M765.2,419c-1.8-7.7-3.7-12.9,1.2-19.8-2.1,6.8-2.5,12.7-1.2,19.8Z"/>
  <path class="st87" d="M790.7,417.4c.8,3.1,3.8,7.3,4,10.5.5,7.4-4.2,17.2-11.7,17.6,1-2.1.7-1.6-.3-3.3,10.5-8.2,1.4-39-10.4-23.5,13.7-9.9,15.4,13.9,10.4,23.5-6.2-11.1-14.9-18.3-14.3-33l6.4-2.3-.8,2.3c5.6-5.3,9.5,6.3,16.6,8.1h0Z"/>
  <path class="st63" d="M782.8,442.3c5-9.7,3.4-33.4-10.4-23.5,11.8-15.5,20.9,15.3,10.4,23.5Z"/>
  <path class="st31" d="M968.1,418.4c-8.9,6.5-16.5,8.7-26.4,2.8-5.5-6.7-6-14.2-4.1-22.5s.6-1.7.8-2.3c15.8-27.3,42.5-.5,29.7,22Z"/>
  <path class="st30" d="M968.1,418.4c-5.9,10.4-18.6,12.2-26.4,2.8,9.9,6,17.5,3.8,26.4-2.8Z"/>
  <path class="st104" d="M961.6,403.8c-4.1.7-9-4.7-8-9,.2-.7.7-2.2,2-3.4.3-.2,1-.9,2.1-1.4,0,0,1.3-.5,2.4-.5,2.2,0,4.3,1.8,5.4,3.8,1.3,2.5,1.6,6.2-.5,8.6-1.3,1.5-2.9,1.8-3.6,1.9h.2Z"/>
  <path class="st32" d="M953.6,394.8c-1,4.3,3.9,9.7,8,9,1.1,4.9.7,6.7,0,7.2s-2-.9-2.8-.3c-1,.7.3,2.9-.5,4.7-1.2,2.6-6.7,3.6-10.7,1.4-3.2-1.8-4.4-5-4.8-6.1-1.2-3.4-1.6-9.1,2-12.9,3.5-3.7,8.3-3.1,9-3h-.1Z"/>
  <path class="st104" d="M950.8,413.7c2.3-.1,2.2,2.5,1.3,3.1-1.9,1.3-3.4-3-1.3-3.1Z"/>
  <path class="st104" d="M878.6,403.8c2.6,4.9,4,9.4,5.5,14.7-3.6,2.1-1.1,7.7-5.7,10.4s-22.3,3.1-28,1.8c-51.4-10.9-2.8-86.8,28.3-27h0Z"/>
  <path class="st69" d="M878.6,403.8c-31.1-59.8-79.6,16.2-28.3,27-12.9.3-22.6-13.1-26.9-25.1s3.4-10.5-7.6-15.6c5.8-4.8,11.5-7.4,18.6-9.1,15.3-3.6,29.6-.8,40.1,12.7.8,1.1,5.8,8.3,4,10h.1Z"/>
  <path class="st35" d="M868.6,395c4.3,8.5,6,21.6-2.5,28.7-3.2.4-5.3,2-9,2l-.6-6.5c4.3-1.4,8.6-9.4,3.9-13.5,4.9-.5,7.6-6.1,6.2-10.5.2.2,2.3,1.5,2-.2h0Z"/>
  <path class="st30" d="M868.6,395c.2,1.8-1.8.4-2,.2-2.3-2-1.8-3.1-5.5-3.8-.6-.6-6.1-6.9-12.3-5.3-.8.2-1.9.6-2.9,1.4-15.2,11.8-8.6,38.3,11.2,38.2,3.8,0,5.8-1.6,9-2-19,15.9-39.6-14.6-26.6-32.8,8-11.1,23.4-7,29.1,4.1h0Z"/>
  <path class="st89" d="M861.1,391.4c-5.6-1-5.4,1.6-8.8,4.2-2.3,1.8-7.6,5-8.5,8-1.9,7,4.3,18.3,12.7,15.6l.6,6.5c-19.9.1-26.4-26.4-11.2-38.2,1.1-.8,2.1-1.2,2.9-1.4,6.2-1.6,11.7,4.6,12.3,5.3Z"/>
  <path class="st32" d="M865.1,407.1c.2,5.8-4.2,10.8-8.6,12.1-2.1.6-3.7.3-4.1.2-3.5-.7-5.5-3.5-6.3-4.6-.4-.6-3.7-5.4-2.3-11.2.2-1,.9-3.4,3-5.4,2.2-2.1,4.6-2.5,5.5-2.6.8,0,6.4-.1,10.2,4.6.6.8,2.5,3.3,2.7,7h-.1Z"/>
  <path class="st98" d="M851.5,415.4c.7-.7,3.3-.3,2.7,1.4s-4.7.6-2.7-1.4Z"/>
  <g>
    <polygon class="st5" points="946.9 628.7 927.9 619.1 913.5 635.5 916.2 613.2 897.2 603.6 917.8 599.5 920.5 577.2 930.6 596.9 951.2 592.8 936.8 609.1 946.9 628.7"/>
    <path class="st8" d="M946.9,628.7c-5.3-2.6-13.7-6.5-19.2-9.1h.7c-5.3,6.3-10.8,12.6-16.2,19l.4-3.3,2.4-22.3.7,1.3c-2.6-1.3-20.6-10.2-22.8-11.3l4.1-.8,20.6-4.2-1.2,1.3c.4-3.4,3-24.1,3.3-27,1.2,2.5,10.6,21,12.1,24l-1.4-.7,20.7-3.9,3.1-.6c-5.6,6.1-11.2,12.3-16.8,18.3v-.7c2.8,5.8,6.9,14.4,9.6,19.9h0ZM946.9,628.7c-3.1-5.9-7.6-13.8-10.8-19.7l.3-.3c4.7-5.6,9.4-11.1,14.1-16.6l1,1.7-20.6,4.4-.9.2-.5-.9-10.2-19.6,2.7-.5-2.6,22.2v1.1c0,0-1.2.2-1.2.2l-20.7,4.1.4-2.7,18.9,9.7.8.4v.9c0,0-3.1,22.2-3.1,22.2l-1.8-.8c4.9-5.3,9.8-10.7,14.7-16l.3-.3c5.7,3.1,13.3,7.3,19.1,10.3h0Z"/>
  </g>
  <path class="st104" d="M959.2,410.3c2.3-.1,2.2,2.5,1.3,3.1-1.9,1.3-3.4-3-1.3-3.1Z"/>
  <path class="st104" d="M861.1,390.6c3.3.9,5,3.8,5.5,4.6,0,.5,1,3.7-.7,6.7-1.4,2.5-4.1,3.9-6.9,3.8-.3,0-4.2-.5-6.1-4.2-1.4-2.7-.8-5.3-.6-5.9.2-.7.7-1.9,1.7-3,1.1-1.3,2.3-1.8,2.6-1.9,2-.8,3.8-.3,4.6-.1h0Z"/>
  <path class="st30" d="M939.9,394.5c-.2,1.7,1.8.4,2,.2,2.3-1.9,1.8-3,5.5-3.6.5-.6,6.1-6.5,12.2-4.9.8.2,1.9.6,3,1.3,15.2,11.3,8.8,36.5-11,36.2-3.8,0-5.8-1.6-9-2,19,15.2,39.5-13.6,26.4-31-8-10.6-23.5-6.8-29,3.7h-.1Z"/>
  <g>
    <g>
      <path class="st55" d="M1114.6,515.2c3.3,0,6-2.5,6-5.5s-2.7-5.5-6-5.5-6,2.5-6,5.5,2.7,5.5,6,5.5Z"/>
      <path class="st55" d="M1004.9,90.9c3.3,0,6-2.5,6-5.5s-2.7-5.5-6-5.5-6,2.5-6,5.5,2.7,5.5,6,5.5Z"/>
      <path class="st55" d="M475.4,414.6c3.3,0,6-2.5,6-5.5s-2.7-5.5-6-5.5-6,2.5-6,5.5,2.7,5.5,6,5.5Z"/>
      <path class="st55" d="M513.6,782c3.3,0,6-2.5,6-5.5s-2.7-5.5-6-5.5-6,2.5-6,5.5,2.7,5.5,6,5.5Z"/>
      <path class="st55" d="M130.2,889.1c3.3,0,6-2.5,6-5.5s-2.7-5.5-6-5.5-6,2.5-6,5.5,2.7,5.5,6,5.5Z"/>
      <path class="st55" d="M1124.1,1027c3.3,0,6-2.5,6-5.5s-2.7-5.5-6-5.5-6,2.5-6,5.5,2.7,5.5,6,5.5Z"/>
      <path class="st55" d="M599.5,1447c3.3,0,6-2.5,6-5.5s-2.7-5.5-6-5.5-6,2.5-6,5.5,2.7,5.5,6,5.5Z"/>
      <path class="st55" d="M1562.9,532.7c3.3,0,6-2.5,6-5.5s-2.7-5.5-6-5.5-6,2.5-6,5.5,2.7,5.5,6,5.5Z"/>
      <path class="st55" d="M345.6,275.2c3.3,0,6-2.5,6-5.5s-2.7-5.5-6-5.5-6,2.5-6,5.5,2.7,5.5,6,5.5Z"/>
      <path class="st55" d="M1438.9,82.1c3.3,0,6-2.5,6-5.5s-2.7-5.5-6-5.5-6,2.5-6,5.5,2.7,5.5,6,5.5Z"/>
      <path class="st55" d="M947.6,1062c3.3,0,6-2.5,6-5.5s-2.7-5.5-6-5.5-6,2.5-6,5.5,2.7,5.5,6,5.5Z"/>
      <path class="st55" d="M1092.8,1171.9c1.8,0,3.3-1.4,3.3-3s-1.5-3-3.3-3-3.3,1.4-3.3,3,1.5,3,3.3,3Z"/>
      <path class="st55" d="M1445.7,1040.7c1.8,0,3.3-1.4,3.3-3s-1.5-3-3.3-3-3.3,1.4-3.3,3,1.5,3,3.3,3Z"/>
      <path class="st55" d="M1579.3,1517.5c1.8,0,3.3-1.4,3.3-3s-1.5-3-3.3-3-3.3,1.4-3.3,3,1.5,3,3.3,3Z"/>
      <path class="st55" d="M682.6,1500c1.8,0,3.3-1.3,3.3-3s-1.5-3-3.3-3-3.3,1.4-3.3,3,1.5,3,3.3,3Z"/>
      <path class="st55" d="M964,1495.6c1.8,0,3.3-1.4,3.3-3s-1.5-3-3.3-3-3.3,1.4-3.3,3,1.5,3,3.3,3Z"/>
      <path class="st55" d="M649.2,1001.3c1.8,0,3.3-1.3,3.3-3s-1.5-3-3.3-3-3.3,1.4-3.3,3,1.5,3,3.3,3Z"/>
      <path class="st55" d="M534.8,1250.6c1.8,0,3.3-1.4,3.3-3s-1.5-3-3.3-3-3.3,1.4-3.3,3,1.5,3,3.3,3Z"/>
      <path class="st55" d="M234.3,1040.7c1.8,0,3.3-1.4,3.3-3s-1.5-3-3.3-3-3.3,1.4-3.3,3,1.5,3,3.3,3Z"/>
      <path class="st55" d="M152.8,1338c1.8,0,3.3-1.4,3.3-3s-1.5-3-3.3-3-3.3,1.4-3.3,3,1.5,3,3.3,3Z"/>
      <path class="st55" d="M410.8,1513.1c1.8,0,3.3-1.4,3.3-3s-1.5-3-3.3-3-3.3,1.4-3.3,3,1.5,3,3.3,3Z"/>
      <path class="st55" d="M5.4,883.2c1.8,0,3.3-1.3,3.3-3s-1.5-3-3.3-3-3.3,1.4-3.3,3,1.5,3,3.3,3Z"/>
      <path class="st55" d="M367.8,524.5c1.8,0,3.3-1.4,3.3-3s-1.5-3-3.3-3-3.3,1.4-3.3,3,1.5,3,3.3,3Z"/>
      <path class="st55" d="M86.4,467.6c1.8,0,3.3-1.4,3.3-3s-1.5-3-3.3-3-3.3,1.4-3.3,3,1.5,3,3.3,3Z"/>
      <path class="st55" d="M93.3,223.6c1.8,0,3.3-1.4,3.3-3s-1.5-3-3.3-3-3.3,1.4-3.3,3,1.5,3,3.3,3Z"/>
      <path class="st55" d="M334.5,78.3c1.8,0,3.3-1.4,3.3-3s-1.5-3-3.3-3-3.3,1.4-3.3,3,1.5,3,3.3,3Z"/>
      <path class="st55" d="M563.4,222.6c1.8,0,3.3-1.4,3.3-3s-1.5-3-3.3-3-3.3,1.4-3.3,3,1.5,3,3.3,3Z"/>
      <path class="st55" d="M711.2,82.7c1.8,0,3.3-1.3,3.3-3s-1.5-3-3.3-3-3.3,1.4-3.3,3,1.5,3,3.3,3Z"/>
      <path class="st55" d="M654,533.2c1.8,0,3.3-1.3,3.3-3s-1.5-3-3.3-3-3.3,1.4-3.3,3,1.5,3,3.3,3Z"/>
      <path class="st55" d="M959.2,555.1c1.8,0,3.3-1.4,3.3-3s-1.5-3-3.3-3-3.3,1.4-3.3,3,1.5,3,3.3,3Z"/>
      <path class="st55" d="M1107.1,314.5c1.8,0,3.3-1.4,3.3-3s-1.5-3-3.3-3-3.3,1.4-3.3,3,1.5,3,3.3,3Z"/>
      <path class="st55" d="M1011.7,170.2c1.8,0,3.3-1.4,3.3-3s-1.5-3-3.3-3-3.3,1.4-3.3,3,1.5,3,3.3,3Z"/>
      <path class="st55" d="M1588.8,358.3c1.8,0,3.3-1.4,3.3-3s-1.5-3-3.3-3-3.3,1.4-3.3,3,1.5,3,3.3,3Z"/>
      <path class="st55" d="M1417.1,555.1c1.8,0,3.3-1.4,3.3-3s-1.5-3-3.3-3-3.3,1.4-3.3,3,1.5,3,3.3,3Z"/>
      <path class="st55" d="M1345.1,791.9c1.8,0,3.3-1.4,3.3-3s-1.5-3-3.3-3-3.3,1.4-3.3,3,1.5,3,3.3,3Z"/>
      <path class="st55" d="M1040.3,725.7c1.8,0,3.3-1.3,3.3-3s-1.5-3-3.3-3-3.3,1.4-3.3,3,1.5,3,3.3,3Z"/>
      <path class="st55" d="M1283.6,1027.6c1.8,0,3.3-1.4,3.3-3s-1.5-3-3.3-3-3.3,1.4-3.3,3,1.5,3,3.3,3Z"/>
      <path class="st55" d="M1264.5,1530.6c1.8,0,3.3-1.4,3.3-3s-1.5-3-3.3-3-3.3,1.4-3.3,3,1.5,3,3.3,3Z"/>
      <path class="st55" d="M1598.3,1224.4c1.8,0,3.3-1.4,3.3-3s-1.5-3-3.3-3-3.3,1.4-3.3,3,1.5,3,3.3,3Z"/>
    </g>
    <g>
      <path class="st55" d="M518.9,130.1c0-1.6,1.5-3,3.3-3s3.3,1.3,3.3,3v3.6h3.9c1.8,0,3.3,1.3,3.3,3s-1.5,3-3.3,3h-3.9v3.6c0,1.6-1.5,3-3.3,3s-3.3-1.3-3.3-3v-3.6h-3.9c-1.8,0-3.3-1.3-3.3-3s1.5-3,3.3-3h3.9v-3.6Z"/>
      <path class="st55" d="M1229,558.9c0-1.6,1.5-3,3.3-3s3.3,1.3,3.3,3v3.6h3.9c1.8,0,3.2,1.3,3.2,3s-1.5,3-3.2,3h-3.9v3.6c0,1.7-1.5,3-3.3,3s-3.3-1.3-3.3-3v-3.6h-3.9c-1.8,0-3.3-1.3-3.3-3s1.5-3,3.3-3h3.9v-3.6Z"/>
      <path class="st55" d="M547,1053.2c0-1.7,1.5-3,3.3-3s3.3,1.3,3.3,3v3.6h3.9c1.8,0,3.3,1.3,3.3,3s-1.5,3-3.3,3h-3.9v3.6c0,1.6-1.5,3-3.3,3s-3.3-1.3-3.3-3v-3.6h-3.9c-1.8,0-3.3-1.3-3.3-3s1.5-3,3.3-3h3.9v-3.6Z"/>
      <path class="st55" d="M1043,1460.1c0-1.7,1.5-3,3.3-3s3.3,1.3,3.3,3v3.6h3.9c1.8,0,3.3,1.3,3.3,3s-1.5,3-3.3,3h-3.9v3.6c0,1.7-1.5,3-3.3,3s-3.3-1.3-3.3-3v-3.6h-3.9c-1.8,0-3.3-1.3-3.3-3s1.5-3,3.3-3h3.9v-3.6Z"/>
      <path class="st55" d="M79.6,567.7c0-1.7,1.5-3,3.3-3s3.3,1.3,3.3,3v3.6h3.9c1.8,0,3.3,1.3,3.3,3s-1.5,3-3.3,3h-3.9v3.6c0,1.6-1.5,3-3.3,3s-3.3-1.3-3.3-3v-3.6h-3.9c-1.8,0-3.3-1.3-3.3-3s1.5-3,3.3-3h3.9v-3.6Z"/>
      <path class="st55" d="M1103.1,89.2c0-1.7,1.5-3,3.3-3s3.3,1.3,3.3,3v3.6h3.9c1.8,0,3.3,1.3,3.3,3s-1.5,3-3.3,3h-3.9v3.6c0,1.6-1.5,3-3.3,3s-3.3-1.3-3.3-3v-3.6h-3.9c-1.8,0-3.3-1.3-3.3-3s1.5-3,3.3-3h3.9v-3.6Z"/>
      <path class="st55" d="M46.2,1525.7c0-1.6,1.5-3,3.3-3s3.3,1.3,3.3,3v3.6h3.9c1.8,0,3.3,1.3,3.3,3s-1.5,3-3.3,3h-3.9v3.6c0,1.6-1.5,3-3.3,3s-3.3-1.3-3.3-3v-3.6h-3.9c-1.8,0-3.3-1.3-3.3-3s1.5-3,3.3-3h3.9v-3.6Z"/>
      <path class="st55" d="M1577.2,1005.1c0-1.7,1.5-3,3.3-3s3.3,1.3,3.3,3v3.6h3.9c1.8,0,3.3,1.3,3.3,3s-1.5,3-3.3,3h-3.9v3.6c0,1.6-1.5,3-3.3,3s-3.3-1.3-3.3-3v-3.6h-3.9c-1.8,0-3.3-1.3-3.3-3s1.5-3,3.3-3h3.9v-3.6Z"/>
      <path class="st55" d="M1591.5,152.1c0-1.6,1.5-3,3.3-3s3.2,1.3,3.2,3v3.6h3.9c1.8,0,3.3,1.3,3.3,3s-1.5,3-3.3,3h-3.9v3.6c0,1.7-1.5,3-3.2,3s-3.3-1.3-3.3-3v-3.6h-3.9c-1.8,0-3.3-1.3-3.3-3s1.5-3,3.3-3h3.9v-3.6Z"/>
    </g>
  </g>
</svg>