<?xml version="1.0" encoding="UTF-8"?>
<svg id="Layer_1" data-name="Layer 1" xmlns="http://www.w3.org/2000/svg" viewBox="0 0 4000 4000">
  <defs>
    <style>
      .cls-1 {
        fill: #5dd7f4;
      }

      .cls-2 {
        fill: #650000;
      }

      .cls-3 {
        fill: #d68650;
      }

      .cls-4 {
        fill: #ffb98a;
      }

      .cls-5 {
        fill: #fff;
      }

      .cls-6 {
        opacity: .7;
      }

      .cls-7 {
        opacity: .4;
      }

      .cls-8 {
        opacity: .2;
      }

      .cls-9 {
        opacity: .3;
      }

      .cls-10 {
        fill: #f90030;
      }

      .cls-11 {
        fill: #3aaaff;
      }

      .cls-12 {
        fill: #bcfa7b;
      }

      .cls-13 {
        fill: #069ab2;
      }
    </style>
  </defs>
  <rect class="cls-12" width="4000" height="4000"/>
  <g>
    <ellipse class="cls-1" cx="2000.84" cy="1515.94" rx="1128.45" ry="1035.94"/>
    <g class="cls-8">
      <ellipse class="cls-2" cx="2000.84" cy="3402.38" rx="900.47" ry="172.01"/>
    </g>
    <g>
      <path class="cls-11" d="M1241.22,2704.14s-192.84,37.9-192.84,265.3c0,0-17.27,164.98,248.58,164.98l-55.74-430.28Z"/>
      <g class="cls-9">
        <path class="cls-2" d="M1055.57,2898.23c-4.53,21.41-7.19,45-7.19,71.21,0,0-17.27,164.98,248.58,164.98l-15.53-119.86c-158.28-4.01-209.55-69.17-225.86-116.33Z"/>
      </g>
      <path class="cls-2" d="M1296.96,3157.83c-107.17,0-184.74-25.79-230.55-76.64-43.6-48.4-42.12-102.72-41.44-112.66.28-126.29,57.41-197.72,105.36-235.41,52.04-40.91,104.18-51.51,106.37-51.94,6.36-1.25,12.94.19,18.19,3.97,5.25,3.78,8.71,9.57,9.54,15.99l55.74,430.28c.87,6.68-1.19,13.4-5.63,18.46-4.44,5.06-10.85,7.95-17.58,7.95ZM1221.55,2734.47c-47.99,18.07-149.76,75.22-149.76,234.97,0,.82-.04,1.63-.13,2.44-.13,1.53-3.29,42.12,30.21,78.72,32.57,35.57,90.46,56.04,168.37,59.79l-48.69-375.91Z"/>
    </g>
    <g>
      <path class="cls-11" d="M2758.85,2704.14s192.84,37.9,192.84,265.3c0,0,17.27,164.98-248.58,164.98l55.74-430.28Z"/>
      <g class="cls-9">
        <path class="cls-2" d="M2944.5,2898.23c4.53,21.41,7.19,45,7.19,71.21,0,0,17.27,164.98-248.58,164.98l15.53-119.86c158.28-4.01,209.55-69.17,225.86-116.33Z"/>
      </g>
      <path class="cls-2" d="M2703.11,3157.83c-6.73,0-13.14-2.9-17.58-7.95-4.44-5.06-6.5-11.78-5.63-18.46l55.73-430.28c.83-6.42,4.28-12.21,9.54-15.99,5.25-3.78,11.85-5.22,18.19-3.97,2.19.43,54.33,11.03,106.37,51.94,47.95,37.7,105.09,109.12,105.37,235.41.68,9.93,2.16,64.26-41.44,112.66-45.81,50.85-123.37,76.64-230.55,76.64ZM2778.5,2734.62l-48.67,375.77c77.91-3.74,135.8-24.22,168.37-59.79,33.5-36.59,30.34-77.19,30.19-78.9-.06-.68-.11-1.57-.11-2.25,0-86.76-29.43-153.89-87.48-199.52-23.01-18.09-45.87-29.02-62.3-35.3Z"/>
    </g>
    <g>
      <rect class="cls-5" x="1222.46" y="2239.31" width="1555.02" height="946.39" rx="130.33" ry="130.33"/>
      <g class="cls-9">
        <path class="cls-2" d="M2647.15,2894.39h-1294.36c-71.98,0-130.33-58.35-130.33-130.33v291.31c0,71.98,58.35,130.33,130.33,130.33h1294.36c71.98,0,130.33-58.35,130.33-130.33v-291.31c0,71.98-58.35,130.33-130.33,130.33Z"/>
      </g>
      <path class="cls-2" d="M2647.15,3209.1h-1294.36c-84.78,0-153.74-68.96-153.74-153.74v-685.73c0-84.77,68.96-153.74,153.74-153.74h1294.36c84.78,0,153.74,68.96,153.74,153.74v685.73c0,84.77-68.96,153.74-153.74,153.74ZM1352.79,2262.71c-58.96,0-106.92,47.97-106.92,106.92v685.73c0,58.96,47.96,106.92,106.92,106.92h1294.36c58.96,0,106.92-47.96,106.92-106.92v-685.73c0-58.96-47.97-106.92-106.92-106.92h-1294.36Z"/>
    </g>
    <g>
      <path class="cls-5" d="M1999.97,3118.81c743.02,0,553.85-636.19,553.85-636.19-97.88-94.44-553.85-104.54-553.85-104.54,0,0-455.97,10.1-553.85,104.54,0,0-189.17,636.19,553.85,636.19Z"/>
      <g class="cls-9">
        <path class="cls-2" d="M1898.9,3026.29s99.68,28.43,202,0c0,0,7.76,34.93,65.07,56.48,0,0-159.52,36.88-330.48-.74,0,0,47.34-9.31,63.41-55.74Z"/>
      </g>
      <path class="cls-2" d="M2004.13,3006.22c-51.26,0-90.63-8.6-93.1-9.15-12.62-2.82-20.56-15.33-17.74-27.95,2.82-12.61,15.28-20.54,27.93-17.74h0c.82.18,82.23,17.81,157.82.06,12.57-2.95,25.18,4.85,28.14,17.44,2.96,12.59-4.85,25.19-17.44,28.14-29.4,6.91-59.1,9.21-85.62,9.21Z"/>
      <path class="cls-2" d="M1999.97,3142.22c-241.45,0-413.16-66.08-510.37-196.4-145.36-194.87-69.23-458.73-65.92-469.87,1.15-3.87,3.28-7.37,6.18-10.17,101.54-97.97,521.98-110.04,569.59-111.1.34,0,.69,0,1.04,0,47.61,1.05,468.04,13.13,569.59,111.1,2.9,2.8,5.03,6.31,6.18,10.17,3.32,11.14,79.44,275-65.91,469.87-97.21,130.32-268.93,196.4-510.37,196.4ZM1466.92,2495.41c-10.11,39.56-59.52,262.2,60.39,422.66,87.93,117.67,246.96,177.34,472.67,177.34s384.73-59.67,472.66-177.34c119.88-160.43,70.5-383.04,60.39-422.66-83.02-68.97-410.71-91.16-533.05-93.91-122.34,2.76-450.06,24.98-533.05,93.91Z"/>
    </g>
    <g>
      <path class="cls-5" d="M1556.68,2474.51s31.21,89.18,51.28,208.45h125.96s-19.51-156.52-61.31-224.06l-115.93,15.61Z"/>
      <g class="cls-9">
        <path class="cls-2" d="M1677.45,2467.36c-1.58-2.93-3.19-5.78-4.84-8.45l-115.93,15.61s31.21,89.18,51.28,208.45h67.63c-20.06-119.27-51.28-208.45-51.28-208.45l53.14-7.15Z"/>
      </g>
      <path class="cls-2" d="M1733.92,2706.37h-125.96c-11.43,0-21.19-8.25-23.09-19.52-19.47-115.7-49.99-203.73-50.29-204.61-2.32-6.64-1.53-13.97,2.14-19.97,3.68-5.99,9.86-10.02,16.83-10.96l115.93-15.61c9.2-1.23,18.17,3.03,23.03,10.88,43.99,71.06,63.81,226.88,64.63,233.48.83,6.66-1.24,13.36-5.68,18.39-4.44,5.03-10.83,7.91-17.54,7.91ZM1627.62,2659.55h79.22c-6.74-42.33-22.35-125.78-46.95-175.32l-72.34,9.74c10.02,32.72,26.71,92.39,40.07,165.58Z"/>
    </g>
    <g>
      <path class="cls-5" d="M1416.81,2448.29s-276.47,209.04-32.35,468.21c244.12,259.17,472.08,196.75,514.44,109.8,42.36-86.95,64.39-302.09-365.76-444.77l18-59.2-134.33-74.04Z"/>
      <g class="cls-9">
        <path class="cls-2" d="M1431.28,2822.86c-105.21-111.69-113.69-214.05-89.32-294.4-59.43,84.07-109.86,226.29,42.5,388.04,244.12,259.17,472.08,196.75,514.44,109.8,7.75-15.9,14.8-36.1,18.54-59.35-78.29,63.84-276.25,78.77-486.16-144.08Z"/>
      </g>
      <path class="cls-2" d="M1738.25,3125.02c-78.86,0-216.97-29.12-370.84-192.48-77.88-82.68-113.57-169.59-106.11-258.32,12.23-145.4,136.12-240.63,141.39-244.61,10.31-7.81,24.99-5.76,32.79,4.55,7.79,10.31,5.76,24.97-4.53,32.77-1.46,1.12-112.75,87.31-123.02,211.55-6.18,74.8,25.3,149.48,93.57,221.95,172.44,183.07,318.02,183.51,372.63,175.19,49.01-7.46,89.73-30.85,103.73-59.59,11.52-23.64,34.83-86.88,2.65-163.31-42.06-99.86-164.72-185.96-354.73-248.99-12.27-4.07-18.92-17.32-14.85-29.59,4.07-12.27,17.32-18.91,29.58-14.85,206.1,68.37,335.01,160.98,383.14,275.26,39.62,94.09,10.61,172.6-3.71,201.98-21.17,43.45-73.05,75.37-138.77,85.38-11.14,1.69-25.61,3.1-42.92,3.1Z"/>
      <path class="cls-2" d="M1518.29,3053.29c-12.67,0-23.09-10.11-23.39-22.85-6.89-289.51,194.34-391.67,202.91-395.88,11.62-5.69,25.63-.91,31.33,10.7,5.68,11.59.92,25.59-10.64,31.3-7.59,3.79-182.94,94.31-176.79,352.76.31,12.92-9.92,23.65-22.85,23.96-.19,0-.38,0-.57,0Z"/>
    </g>
    <g>
      <path class="cls-5" d="M2443.11,2474.51s-31.21,89.18-51.28,208.45h-125.96s19.51-156.52,61.31-224.06l115.93,15.61Z"/>
      <g class="cls-9">
        <path class="cls-2" d="M2322.35,2467.36c1.58-2.93,3.19-5.78,4.84-8.45l115.93,15.61s-31.21,89.18-51.28,208.45h-67.63c20.07-119.27,51.28-208.45,51.28-208.45l-53.14-7.15Z"/>
      </g>
      <path class="cls-2" d="M2391.84,2706.37h-125.96c-6.71,0-13.1-2.88-17.54-7.91-4.45-5.03-6.51-11.73-5.68-18.39.82-6.6,20.64-162.41,64.63-233.48,4.85-7.85,13.82-12.11,23.03-10.88l115.93,15.61c6.97.94,13.15,4.97,16.83,10.96,3.68,6,4.47,13.33,2.14,19.97-.3.88-30.82,88.9-50.28,204.61-1.9,11.27-11.66,19.52-23.09,19.52ZM2292.95,2659.55h79.23c13.35-73.18,30.04-132.86,40.06-165.58l-72.34-9.74c-24.63,49.57-40.22,133-46.95,175.32Z"/>
    </g>
    <g>
      <path class="cls-5" d="M2582.99,2448.29s276.47,209.04,32.35,468.21c-244.12,259.17-472.08,196.75-514.44,109.8-42.36-86.95-64.39-302.09,365.76-444.77l-18-59.2,134.33-74.04Z"/>
      <g class="cls-9">
        <path class="cls-2" d="M2568.52,2822.86c105.21-111.69,113.69-214.05,89.32-294.4,59.43,84.07,109.86,226.29-42.5,388.04-244.12,259.17-472.08,196.75-514.44,109.8-7.75-15.9-14.8-36.1-18.54-59.35,78.29,63.84,276.25,78.77,486.16-144.08Z"/>
      </g>
      <path class="cls-2" d="M2261.54,3125.02c-17.32,0-31.77-1.4-42.91-3.1-65.73-10-117.61-41.92-138.78-85.37-14.32-29.38-43.33-107.89-3.71-201.98,48.13-114.28,177.04-206.89,383.14-275.26,12.23-4.07,25.52,2.57,29.58,14.85,4.07,12.27-2.58,25.52-14.85,29.59-190.01,63.03-312.67,149.13-354.73,248.99-32.19,76.43-8.87,139.67,2.65,163.31,14,28.74,54.72,52.13,103.74,59.59,54.58,8.31,200.18,7.88,372.62-175.19,68.27-72.48,99.75-147.15,93.57-221.95-10.28-124.43-121.89-210.7-123.02-211.55-10.28-7.82-12.29-22.5-4.49-32.79,7.8-10.29,22.46-12.33,32.75-4.54,5.27,3.98,129.15,99.21,141.39,244.61,7.47,88.73-28.24,175.64-106.11,258.32-153.85,163.34-291.97,192.47-370.84,192.48Z"/>
      <path class="cls-2" d="M2481.51,3053.29c-.19,0-.38,0-.57,0-12.92-.31-23.15-11.04-22.85-23.96,6.15-258.55-169.32-349.04-176.8-352.77-11.54-5.75-16.29-19.78-10.57-31.35,5.72-11.56,19.68-16.35,31.26-10.65,8.57,4.21,209.79,106.36,202.91,395.88-.3,12.73-10.72,22.85-23.39,22.85Z"/>
    </g>
    <g>
      <path class="cls-3" d="M1999.97,2425.84c1171.28,0,856.67-796.45,775.48-967.71-9.12-19.24-6.4-42.12,7.4-58.34,109.75-128.99,111.71-243.67,84.49-327.7-31.43-97.02-111.21-170.1-208.98-199.1-197.58-58.6-324.8,76.99-371.07,139.22-12.74,17.14-34.35,25.04-55.23,20.55-114.13-24.53-232.08-23.16-232.08-23.16,0,0-117.95-1.37-232.08,23.16-20.88,4.49-42.49-3.41-55.23-20.55-46.27-62.23-173.49-197.82-371.07-139.22-97.77,29-177.55,102.08-208.98,199.1-27.23,84.03-25.27,198.71,84.49,327.7,13.8,16.22,16.52,39.1,7.4,58.34-81.19,171.26-395.81,967.71,775.48,967.71Z"/>
      <ellipse class="cls-4" cx="1999.89" cy="2030.46" rx="351.13" ry="243.73"/>
      <path class="cls-4" d="M1338.26,1286.06c38.12-43.43,116.88-124.72,224.41-191.95,16.97-10.61,20.16-33.91,7.01-49-39.73-45.58-129.46-115.6-257.11-22.69,0,0-133.68,99.04-25.83,260.38,11.88,17.77,37.42,19.33,51.52,3.27Z"/>
      <path class="cls-4" d="M2661.68,1286.06c-38.12-43.43-116.88-124.72-224.41-191.95-16.97-10.61-20.16-33.91-7.01-49,39.73-45.58,129.46-115.6,257.11-22.69,0,0,133.68,99.04,25.83,260.38-11.88,17.77-37.42,19.33-51.52,3.27Z"/>
      <g class="cls-9">
        <path class="cls-2" d="M1999.97,2269.78c-645.76,0-839.84-242.09-870.42-488.02-31.82,287.32,86.48,644.08,870.42,644.08s902.24-356.77,870.42-644.08c-30.58,245.94-224.66,488.02-870.42,488.02Z"/>
      </g>
      <g class="cls-6">
        <path class="cls-5" d="M2658.34,872.99c-197.58-58.6-324.8,76.99-371.07,139.22-12.74,17.14-34.35,25.04-55.23,20.55-114.13-24.53-232.08-23.17-232.08-23.17,0,0-117.95-1.37-232.08,23.17-20.88,4.49-42.49-3.41-55.23-20.55-46.27-62.24-173.49-197.82-371.07-139.22-84.24,24.98-155.03,82.75-193.14,160.29,41.68-53.38,100.24-93.03,166.98-112.82,205.43-60.93,337.71,80.05,385.81,144.75,12.3,16.54,32.55,24.79,52.76,22.15,11.32,22.98,61.58,36.68,120.18,31.26,61.22-5.66,109.69-30.16,113.1-56.09,8.13-.1,12.68-.04,12.68-.04,0,0,122.64-1.42,241.3,24.09,21.71,4.67,44.18-3.55,57.42-21.37,48.11-64.71,180.38-205.68,385.81-144.75,66.74,19.79,125.3,59.44,166.98,112.82-38.11-77.54-108.91-135.31-193.14-160.29Z"/>
      </g>
      <g class="cls-9">
        <path class="cls-2" d="M2251.8,1891.05s-11.92,73.37-95.3,83.38c-96.3,11.56-87.94-65.08-87.94-65.08l-68.66-18.3h0l-68.66,18.3s8.36,76.64-87.94,65.08c-83.38-10.01-95.3-83.38-95.3-83.38,0,0-90.14,94.94,17.71,195.26,0,0,22.79,161.35,234.2,161.35h0c211.41,0,234.2-161.35,234.2-161.35,107.85-100.32,17.71-195.26,17.71-195.26Z"/>
      </g>
      <g>
        <path class="cls-2" d="M2156.49,2154.49c-24.09,37.25-69.86,70.33-156.58,70.33s-132.49-33.08-156.63-70.33c-31.11-48.17-26.06-103.31-26.06-103.31,0,0,148.78,42.86,182.69-84.58,33.86,127.45,182.69,84.58,182.69,84.58,0,0,5.05,55.14-26.11,103.31Z"/>
        <path class="cls-10" d="M2156.49,2154.49c-24.09,37.25-69.86,70.33-156.58,70.33s-132.49-33.08-156.63-70.33c0,0,142.74-128.28,313.21,0Z"/>
        <path class="cls-2" d="M1999.9,2248.22c-69.92,0-123.67-20.06-159.78-59.63-53.03-58.11-46.53-136.24-46.23-139.53.63-6.95,4.34-13.25,10.1-17.19,5.76-3.94,12.97-5.1,19.68-3.17.58.16,64.83,17.87,110.79-8.3,21.33-12.15,35.34-31.73,42.81-59.84,2.72-10.26,12.01-17.4,22.62-17.4h0c10.61,0,19.9,7.14,22.62,17.4,7.5,28.2,21.56,47.81,42.99,59.95,45.6,25.82,109.97,8.38,110.6,8.2,6.7-1.93,13.92-.77,19.68,3.17s9.47,10.24,10.1,17.19c.3,3.3,6.8,81.43-46.23,139.53-36.1,39.57-89.86,59.63-159.77,59.63ZM1841.56,2079.58c2.62,21.7,10.55,52.88,33.45,77.78,26.88,29.23,68.9,44.05,124.9,44.05s98.02-14.82,124.89-44.05c22.9-24.9,30.82-56.06,33.45-77.78-29.82,3.69-76.1,4.15-115.8-18.34-17.16-9.72-31.37-22.62-42.54-38.59-11.18,15.96-25.39,28.87-42.54,38.59-39.7,22.49-86.01,22.03-115.8,18.34Z"/>
      </g>
      <path class="cls-2" d="M1999.97,1966.58c89.79-4.46,113.7-55.23,119.66-88.59,3.76-21.06-7.83-41.48-27.85-49.01-37.35-14.06-91.81-13.44-91.81-13.44,0,0-56.13-.64-93.5,14.09-18.72,7.38-29.7,26.97-26.43,46.82,5.5,33.31,28.74,85.6,119.92,90.13Z"/>
      <path class="cls-2" d="M2023.13,1958.89l-.63,4.71-.69,4c-.49,2.63-1.03,5.18-1.64,7.72-1.2,5.07-2.62,10.06-4.4,14.94-3.45,9.79-7.77,19.4-13.36,28.48-5.53,9.09-12.14,17.76-19.85,25.58-7.75,7.76-16.62,14.59-26.17,20.2-19.22,11.22-40.98,16.53-61.68,17.76-20.84,1.2-40.67-1.54-59.79-6.06-19.19-4.51-38.62-11.94-56.16-23.81-17.57-11.67-32.82-28.55-41.94-47.92-9.18-19.43-11.85-40.55-10.19-60.08,1.79-19.61,7.48-38.12,16.87-54.49,1.32-2.31,4.27-3.11,6.57-1.78,1.48.85,2.34,2.36,2.41,3.95v.12c.74,18.05,1.71,35.15,4.81,51.07,2.96,15.9,7.9,30.4,15.27,42.51,7.29,12.16,17.34,21.98,29.97,29.02,6.33,3.48,12.99,6.58,20.23,8.9,3.49,1.36,7.3,2.23,10.94,3.37,3.84.81,7.52,1.9,11.45,2.52,15.59,2.9,31.42,4.01,46.07,2.96,14.69-1.25,28.12-5.29,39.77-11.83,11.49-6.81,21.31-16.4,29.09-28.35,3.83-5.99,7.33-12.43,10.1-19.29,1.41-3.41,2.68-6.9,3.84-10.39.58-1.74,1.1-3.51,1.56-5.22l1.11-4.39.76-3.01c3.15-12.48,15.82-20.05,28.3-16.9,11.61,2.93,18.97,14.11,17.39,25.71Z"/>
      <path class="cls-2" d="M2023.13,1953.08l1.11,4.39c.46,1.71.98,3.47,1.56,5.22,1.16,3.49,2.43,6.98,3.84,10.39,2.76,6.86,6.27,13.3,10.09,19.29,7.78,11.95,17.6,21.55,29.09,28.35,11.65,6.55,25.07,10.58,39.77,11.83,14.66,1.05,30.48-.06,46.07-2.96,3.93-.62,7.61-1.71,11.45-2.52,3.63-1.14,7.45-2.02,10.94-3.37,7.25-2.32,13.9-5.42,20.23-8.9,12.63-7.04,22.68-16.86,29.97-29.02,7.37-12.11,12.31-26.61,15.27-42.51,3.11-15.93,4.07-33.02,4.81-51.07v-.09c.11-2.66,2.35-4.73,5.01-4.62,1.7.07,3.18,1.04,3.98,2.41,9.39,16.38,15.08,34.89,16.87,54.49,1.66,19.53-1,40.65-10.19,60.08-9.12,19.38-24.37,36.25-41.94,47.92-17.54,11.87-36.97,19.3-56.16,23.81-19.12,4.52-38.95,7.26-59.79,6.06-20.7-1.23-42.46-6.53-61.69-17.76-9.56-5.6-18.42-12.43-26.17-20.2-7.71-7.82-14.32-16.49-19.85-25.58-5.59-9.08-9.91-18.69-13.36-28.48-1.77-4.89-3.2-9.87-4.4-14.94-.61-2.53-1.15-5.09-1.64-7.72l-.69-4-.63-4.71c-1.72-12.76,7.23-24.49,19.99-26.21,11.87-1.6,22.86,6.04,25.71,17.39l.76,3.01Z"/>
      <path class="cls-2" d="M1999.97,2449.24c-418.67,0-695.07-101.34-821.5-301.21-162.81-257.36-22.12-600.8,24.87-699.93,5.24-11.06,3.65-24.07-4.07-33.15-121.13-142.36-115.21-268.95-88.93-350.08,33.16-102.33,117.12-182.45,224.6-214.33,212.05-62.88,347.92,82.35,396.51,147.7,7.17,9.64,19.53,14.21,31.52,11.63,113.75-24.46,229.06-23.79,237-23.69,7.94-.08,123.24-.77,237,23.69,12,2.59,24.36-1.99,31.53-11.63,48.58-65.35,184.49-210.56,396.5-147.7,107.48,31.88,191.44,112,224.6,214.33,26.28,81.13,32.2,207.72-88.93,350.08-7.71,9.07-9.32,22.08-4.07,33.15,47,99.13,187.68,442.57,24.88,699.93-126.44,199.87-402.83,301.21-821.5,301.21ZM1435.97,882.21c-27.36,0-56.61,4-87.72,13.23-92.68,27.49-164.97,96.23-193.37,183.87-32.89,101.51-5.96,204.23,80.04,305.31,19.63,23.07,23.84,55.86,10.72,83.54-44.4,93.67-177.63,417.7-27.61,654.84,117.29,185.42,380.38,279.43,781.94,279.43s664.64-94.01,781.94-279.43c150.01-237.14,16.79-561.18-27.62-654.84-13.12-27.68-8.91-60.47,10.72-83.54,86.01-101.08,112.93-203.81,80.04-305.31-28.4-87.65-100.69-156.39-193.37-183.87-183.72-54.47-302.91,73.29-345.62,130.75-18.1,24.32-49.1,35.89-78.95,29.47-110.07-23.66-225.78-22.68-226.88-22.64h-.54c-1.13-.05-116.81-1.03-226.89,22.64-29.86,6.43-60.85-5.14-78.94-29.47-35.49-47.73-123.75-143.97-257.91-143.97Z"/>
      <g class="cls-7">
        <ellipse class="cls-5" cx="1976.06" cy="1857.69" rx="44.71" ry="15.65" transform="translate(-133.57 153.2) rotate(-4.29)"/>
      </g>
      <g>
        <ellipse class="cls-5" cx="1671.5" cy="1630.19" rx="195.73" ry="154.31" transform="translate(-161.25 3076.72) rotate(-82.57)"/>
        <path class="cls-2" d="M1661.99,1845.29c-6.1,0-12.24-.39-18.41-1.2-95.29-12.43-160.3-118.51-144.92-236.46h0c15.4-117.95,105.42-203.75,200.74-191.36,95.29,12.43,160.3,118.51,144.92,236.46-14.4,110.32-94.11,192.55-182.33,192.55ZM1538.31,1612.81c-12.54,96.09,37.01,182.07,110.45,191.65,73.36,9.55,143.39-60.8,155.93-156.89,12.54-96.09-37.01-182.07-110.45-191.65-73.38-9.61-143.39,60.8-155.93,156.89h0Z"/>
        <ellipse class="cls-2" cx="1694.13" cy="1652.18" rx="159.79" ry="123.63" transform="translate(-163.36 3118.3) rotate(-82.57)"/>
        <ellipse class="cls-5" cx="1672.44" cy="1594.59" rx="42.4" ry="28.96" transform="translate(-125.14 3046.65) rotate(-82.57)"/>
      </g>
      <g>
        <ellipse class="cls-5" cx="2337.35" cy="1630.19" rx="154.31" ry="195.73" transform="translate(-191.27 316.12) rotate(-7.43)"/>
        <path class="cls-2" d="M2346.86,1845.29c-88.23,0-167.93-82.23-182.33-192.55-15.39-117.95,49.62-224.02,144.92-236.46,95.4-12.45,185.35,73.41,200.74,191.36h0c15.39,117.95-49.62,224.02-144.92,236.46-6.16.8-12.31,1.2-18.41,1.2ZM2328.04,1455.05c-4.46,0-8.94.29-13.43.87-73.44,9.58-122.99,95.55-110.45,191.65,12.54,96.09,82.57,166.53,155.93,156.89,73.44-9.58,122.99-95.55,110.45-191.65h0c-11.77-90.21-74.15-157.76-142.5-157.76Z"/>
        <ellipse class="cls-2" cx="2314.73" cy="1652.18" rx="123.63" ry="159.79" transform="translate(-194.31 313.38) rotate(-7.43)"/>
        <ellipse class="cls-5" cx="2336.42" cy="1594.59" rx="28.96" ry="42.4" transform="translate(-186.68 315.7) rotate(-7.43)"/>
      </g>
    </g>
    <g>
      <path class="cls-11" d="M2000.03,2570.38c340.93,0,496.79-59.6,540.33-80.11,12.48-5.88,23.77-14.18,32.3-25.02,43.95-55.81,1.04-139.05,1.04-139.05,0,0-179.87,99.64-573.74,99.64s-573.74-99.64-573.74-99.64c0,0-42.91,83.24,1.04,139.05,8.53,10.84,19.83,19.14,32.3,25.02,43.54,20.51,199.4,80.11,540.33,80.11"/>
      <g class="cls-9">
        <path class="cls-2" d="M2572.66,2402.82c-8.53,10.84-19.83,19.14-32.3,25.02-43.54,20.51-199.4,80.11-540.33,80.11h-.14c-340.93,0-496.79-59.6-540.33-80.11-12.48-5.88-23.77-14.18-32.3-25.02-7.98-10.14-13.07-21.18-16.1-32.46-6.09,28.45-7.06,65.48,16.1,94.89,8.53,10.84,19.83,19.14,32.3,25.02,43.54,20.51,199.4,80.11,540.33,80.11h.14c340.93,0,496.79-59.6,540.33-80.11,12.48-5.88,23.77-14.18,32.3-25.02,23.16-29.41,22.19-66.44,16.1-94.89-3.03,11.28-8.12,22.33-16.1,32.46Z"/>
      </g>
      <path class="cls-2" d="M2000.03,2593.78c-.06,0-.09,0-.13,0-338.91,0-497.74-57.59-550.3-82.34-16.61-7.82-30.31-18.49-40.72-31.71-52.66-66.87-5.49-160.32-3.46-164.26,2.9-5.63,7.95-9.84,14.01-11.68,6.05-1.84,12.6-1.15,18.13,1.93,1.72.94,180.7,96.71,562.4,96.71s560.67-95.77,562.44-96.73c5.53-3.03,12.08-3.72,18.12-1.88,6.04,1.85,11.1,6.04,13.99,11.65,2.04,3.95,49.21,97.4-3.46,164.27-10.41,13.22-24.11,23.89-40.72,31.71-52.55,24.76-211.37,82.34-550.3,82.34ZM1438.68,2358.08c-7.85,24.25-15.37,64.3,6.98,92.69,5.88,7.46,13.92,13.63,23.89,18.32,38.79,18.27,191.66,77.88,530.36,77.88.04,0,.08,0,.13,0,338.72,0,491.57-59.61,530.35-77.88,9.98-4.7,18.01-10.86,23.89-18.32,22.2-28.19,14.71-68.34,6.91-92.66-61.37,26.86-241.65,91.14-561.22,91.14s-500-64.33-561.29-91.17Z"/>
    </g>
    <g>
      <path class="cls-5" d="M1999.97,3370.74c100.7,0,138.97-17.84,138.97-17.84,295.96,326.05,486.57,40.13,486.57,40.13,16.72-21.74,250.81-321.04,0-456.47-250.81-135.44-397.95,145.47-397.95,145.47-131.26,18.39-227.59,19.78-227.59,19.78,0,0-96.33-1.38-227.59-19.78,0,0-147.14-280.91-397.95-145.47-250.81,135.44-16.72,434.74,0,456.47,0,0,190.62,285.92,486.57-40.13,0,0,38.27,17.84,138.97,17.84Z"/>
      <g class="cls-9">
        <path class="cls-2" d="M2625.5,3315s-141.15,267.52-418.23-10.06c-18.14-18.18-43.95-26.57-69.34-22.73-32.45,4.92-81.67,10.49-137.97,10.49s-108.78-6.79-142.95-12.68c-26.06-4.49-52.76,3.77-71.46,22.48-276.1,276.33-411.14,12.5-411.14,12.5-9.81-12.75-94.42-121.07-112.04-235.78-24.68,138.66,100,298.16,112.04,313.81,0,0,190.62,285.92,486.57-40.13,0,0,38.27,17.84,138.97,17.84s138.97-17.84,138.97-17.84c295.96,326.05,486.57,40.13,486.57,40.13,12.04-15.65,136.72-175.15,112.04-313.81-17.62,114.7-102.23,223.02-112.04,235.78Z"/>
      </g>
      <g>
        <path class="cls-2" d="M1794.34,3073.93c1.41,4.59,2.11,9.24,2.61,14.04.52,4.77.67,9.68.68,14.62-.05,4.97-.3,10.01-.97,15.18-.6,5.14-1.67,10.47-3.61,15.94-.8,2.25-3.27,3.43-5.52,2.64-.57-.2-1.07-.51-1.48-.89l-.36-.33c-3.8-3.53-7.51-7-10.79-10.65-3.39-3.61-6.49-7.29-9.47-11.03-2.92-3.76-5.78-7.53-8.31-11.42-2.56-3.86-4.96-7.86-6.71-11.89-5.15-11.88.3-25.69,12.18-30.84,11.88-5.15,25.69.3,30.84,12.18.34.8.64,1.6.89,2.41v.05Z"/>
        <path class="cls-2" d="M1852.93,3374.88c-2.03-.84-3.11-1.44-4.5-2.24-1.3-.75-2.56-1.56-3.76-2.4-2.43-1.67-4.72-3.51-6.92-5.48-4.38-3.94-8.32-8.46-11.98-13.11-3.62-4.75-6.8-9.89-9.37-15.27-2.59-5.39-4.36-11.23-5.08-16.97-.31-2.49,1.46-4.77,3.95-5.08,1.12-.14,2.19.14,3.06.71l.41.27c4.24,2.79,8.46,4.84,12.68,6.59,4.37,1.63,8.68,2.92,13.03,3.99,4.36,1.09,8.79,1.81,13.06,2.59l6.26,1.22,5.31,1.23c12.67,2.93,20.57,15.58,17.64,28.25-2.93,12.67-15.58,20.57-28.25,17.64-1.25-.29-2.46-.67-3.61-1.15l-1.92-.8Z"/>
        <path class="cls-2" d="M2249.52,3090.13c-1.75,4.04-4.15,8.03-6.71,11.89-2.53,3.89-5.39,7.66-8.31,11.42-2.98,3.74-6.08,7.42-9.47,11.03-3.28,3.65-6.99,7.12-10.79,10.65l-.34.32c-1.75,1.63-4.49,1.52-6.12-.23-.41-.44-.72-.96-.91-1.5-1.94-5.47-3.01-10.81-3.61-15.94-.67-5.16-.92-10.21-.97-15.18.01-4.94.16-9.85.69-14.62.5-4.8,1.2-9.45,2.61-14.04v-.03c3.82-12.38,16.94-19.32,29.32-15.51,12.38,3.81,19.32,16.93,15.51,29.31-.25.83-.56,1.65-.9,2.43Z"/>
        <path class="cls-2" d="M2130.87,3330.93l5.31-1.23,6.26-1.22c4.27-.78,8.7-1.5,13.06-2.59,4.36-1.07,8.66-2.36,13.04-3.99,4.22-1.75,8.43-3.8,12.68-6.59l.4-.26c2.1-1.38,4.92-.8,6.3,1.3.62.94.84,2.03.71,3.07-.72,5.74-2.49,11.58-5.08,16.97-2.56,5.38-5.75,10.52-9.37,15.27-3.66,4.65-7.6,9.16-11.98,13.11-2.2,1.97-4.48,3.8-6.92,5.48-1.21.84-2.47,1.65-3.77,2.4-1.4.8-2.47,1.39-4.5,2.24l-1.8.74c-12.01,4.99-25.79-.7-30.78-12.71-4.99-12.01.71-25.79,12.72-30.78,1.19-.49,2.52-.91,3.73-1.2Z"/>
      </g>
      <g>
        <g class="cls-9">
          <ellipse class="cls-2" cx="1533.14" cy="3202.83" rx="167.21" ry="221.11" transform="translate(-1475.99 1317.69) rotate(-32.35)"/>
        </g>
        <g>
          <path class="cls-2" d="M1349.06,3158.61c-5.46,0-10.76-2.87-13.62-7.96-4.22-7.51-1.55-17.03,5.96-21.25l223.12-125.37c7.51-4.23,17.03-1.55,21.25,5.96,4.22,7.51,1.56,17.03-5.96,21.25l-223.12,125.37c-2.42,1.36-5.04,2-7.63,2Z"/>
          <path class="cls-2" d="M1364.26,3251.68c-5.46,0-10.76-2.87-13.62-7.96-4.22-7.51-1.55-17.03,5.96-21.25l283.01-159.02c7.51-4.22,17.03-1.56,21.25,5.96,4.22,7.51,1.55,17.03-5.96,21.25l-283.01,159.02c-2.42,1.36-5.04,2-7.63,2Z"/>
          <path class="cls-2" d="M1406.87,3329.34c-5.46,0-10.76-2.87-13.62-7.96-4.22-7.51-1.55-17.03,5.96-21.25l288.09-161.88c7.51-4.22,17.03-1.56,21.25,5.96,4.22,7.51,1.55,17.03-5.96,21.25l-288.09,161.88c-2.42,1.36-5.04,2-7.63,2Z"/>
          <path class="cls-2" d="M1476.61,3391.76c-5.46,0-10.76-2.87-13.62-7.96-4.22-7.51-1.55-17.03,5.96-21.25l240.42-135.09c7.51-4.22,17.03-1.56,21.25,5.96,4.22,7.51,1.55,17.03-5.96,21.25l-240.42,135.09c-2.42,1.36-5.04,2-7.63,2Z"/>
        </g>
        <path class="cls-2" d="M1579.05,3425.68c-21.84,0-44.62-4.28-67.59-12.89-52.19-19.56-99.34-59.38-132.75-112.13-69.85-110.26-57.4-243.86,27.75-297.8,85.15-53.95,211.26-8.13,281.11,102.14,69.85,110.26,57.4,243.86-27.75,297.8-24.01,15.21-51.55,22.88-80.78,22.88ZM1487.48,3011.22c-23.03,0-45.02,5.78-64.32,18.01-70.62,44.74-78.73,159.01-18.09,254.73,29.8,47.04,71.47,82.41,117.34,99.61,44.34,16.61,87.2,14.08,120.71-7.14,70.62-44.74,78.73-159.01,18.09-254.73-44.07-69.56-112.51-110.48-173.73-110.48Z"/>
      </g>
      <g>
        <g class="cls-9">
          <ellipse class="cls-2" cx="2466.79" cy="3202.83" rx="221.11" ry="167.21" transform="translate(-1558.93 3572.66) rotate(-57.65)"/>
        </g>
        <g>
          <path class="cls-2" d="M2650.87,3158.61c-2.59,0-5.21-.64-7.63-2l-223.12-125.37c-7.51-4.22-10.18-13.74-5.96-21.25,4.22-7.51,13.71-10.19,21.25-5.96l223.12,125.37c7.51,4.22,10.18,13.74,5.96,21.25-2.86,5.1-8.16,7.96-13.62,7.96Z"/>
          <path class="cls-2" d="M2635.67,3251.68c-2.59,0-5.21-.64-7.63-2l-283.01-159.02c-7.51-4.22-10.18-13.74-5.96-21.25,4.21-7.52,13.72-10.19,21.25-5.96l283.01,159.02c7.51,4.22,10.18,13.74,5.96,21.25-2.86,5.1-8.16,7.96-13.62,7.96Z"/>
          <path class="cls-2" d="M2593.06,3329.34c-2.59,0-5.21-.64-7.63-2l-288.09-161.88c-7.51-4.22-10.18-13.74-5.96-21.25,4.21-7.52,13.72-10.19,21.25-5.96l288.09,161.88c7.51,4.22,10.18,13.74,5.96,21.25-2.86,5.1-8.16,7.96-13.62,7.96Z"/>
          <path class="cls-2" d="M2523.32,3391.76c-2.59,0-5.21-.64-7.63-2l-240.42-135.09c-7.51-4.22-10.18-13.74-5.96-21.25,4.21-7.52,13.73-10.18,21.25-5.96l240.42,135.09c7.51,4.22,10.18,13.74,5.96,21.25-2.86,5.1-8.16,7.96-13.62,7.96Z"/>
        </g>
        <path class="cls-2" d="M2420.56,3425.43c-28.64,0-56.21-7.27-80.45-22.63-85.16-53.95-97.61-187.54-27.75-297.8,69.85-110.26,195.98-156.08,281.11-102.14,85.16,53.95,97.61,187.54,27.75,297.8-49.96,78.87-128.71,124.77-200.66,124.77ZM2512.45,3011.22c-61.22,0-129.65,40.92-173.73,110.48-60.64,95.72-52.53,210,18.09,254.73,70.61,44.73,177.4,3.26,238.05-92.47,60.64-95.72,52.53-210-18.09-254.73-19.3-12.22-41.3-18.01-64.32-18.01Z"/>
      </g>
      <path class="cls-2" d="M2415.36,3532.42c-92.9,0-188.06-51.2-283.3-152.46-20.95,5.96-62.48,14.18-132.09,14.18s-111.15-8.23-132.1-14.18c-101.66,108.09-203.22,159.15-302.06,151.76-128.09-9.56-202.96-114.17-210.36-124.96l-.1-.13c-34.32-44.53-144-200.54-114.63-338.66,13.68-64.32,54.92-115.47,122.58-152,75.12-40.56,149.17-50.15,220.08-28.47,113.52,34.69,183.33,138.81,203.64,172.92,121.93,16.25,211.62,14.96,212.55,14.94.26,0,.54,0,.8,0,.93,0,90.65,1.31,212.54-14.94,20.31-34.11,90.12-138.23,203.64-172.92,70.91-21.67,144.96-12.09,220.08,28.47,67.66,36.54,108.91,87.68,122.58,152,29.37,138.12-80.31,294.13-114.63,338.66l-.1.13c-7.39,10.78-82.27,115.4-210.36,124.97-6.25.47-12.5.7-18.76.7ZM2138.99,3329.41c6.43,0,12.71,2.72,17.28,7.76,94.96,104.62,187.2,154.39,274.38,147.87,109.65-8.19,174.74-104.02,175.39-104.99.29-.44.6-.87.92-1.29l.55-.72c31.22-40.5,131.11-181.87,105.91-300.34-10.69-50.28-44.01-90.84-99.03-120.55-63.6-34.34-125.47-42.74-183.88-24.98-114.8,34.92-181.57,159.48-182.23,160.74-3.51,6.66-10.02,11.25-17.48,12.3-128.62,18.02-222.9,17.07-230.83,16.95-7.88.11-102.22,1.07-230.84-16.95-7.48-1.05-13.99-5.63-17.49-12.32-.64-1.23-67.41-125.79-182.21-160.71-58.41-17.78-120.28-9.37-183.88,24.98-55.02,29.71-88.34,70.27-99.03,120.55-25.2,118.48,74.7,259.84,105.91,300.34l.55.72c.32.42.63.85.92,1.29.62.93,66.58,97.11,175.84,105.02,86.92,6.29,179.12-43.46,273.92-147.9,6.89-7.59,17.92-9.81,27.22-5.49.11.04,36.78,15.64,129.08,15.64s128.96-15.6,129.33-15.76c3.13-1.46,6.43-2.16,9.69-2.16Z"/>
    </g>
    <g>
      <g class="cls-6">
        <path class="cls-5" d="M1528.65,778.79c6.72-18.98,16.34-32.39,26.89-43.92,10.65-11.3,22.44-20.25,35.05-26.95,12.59-6.74,25.96-11.31,39.98-13.14,7-.93,14.19-1.05,21.52-.36,7.37.85,14.82,2.25,22.67,5.89,35.73,16.59,51.24,59.01,34.65,94.73-2.12,4.57-4.67,8.81-7.57,12.69l-2.88,3.78c-2.43,3.21-4.93,5.94-7.51,8.23-2.56,2.41-5.18,4.43-7.82,6.35-5.3,3.74-10.72,6.76-16.29,9.12-11.13,4.76-22.76,7.3-35.01,8.21-12.24.96-25.11.19-38.95-2.39-13.94-2.81-28.61-6.96-45.97-16.16l-.98-.52c-16.63-8.81-23.89-28.37-17.77-45.59Z"/>
      </g>
      <g class="cls-6">
        <path class="cls-5" d="M1066.83,1384.36c-1.36-25.3-.1-50.28,2.48-75.14,2.64-24.84,6.63-49.59,12.21-74.04,10.94-48.98,27.29-97.16,49.32-143.62,21.87-46.5,49.77-91.31,85.16-131.18,17.77-19.81,37.06-38.6,58.51-55.15,21.4-16.54,44.39-31.43,69.47-42.54,39.94-17.69,86.66.34,104.36,40.28,13.02,29.39,6.69,62.45-13.47,84.92l-4.05,4.47c-13.62,15.13-27.62,28.94-41.37,43.23-13.83,14.14-27.33,28.81-40.84,43.71-27.21,29.62-53.85,61.3-80.19,94.86-26.2,33.65-51.32,69.56-76.24,106.92-12.38,18.72-24.77,37.79-37.16,57.21-12.45,19.41-24.79,39.19-37.95,59.13l-.32.48c-8.28,12.55-25.17,16.01-37.72,7.73-7.44-4.91-11.7-13-12.19-21.26Z"/>
      </g>
      <path class="cls-13" d="M2000.84,2577.89c-307.95,0-597.57-110.19-815.52-310.27-218.56-200.65-338.94-467.6-338.94-751.68s120.37-551.03,338.94-751.68c217.95-200.08,507.57-310.27,815.52-310.27s597.57,110.19,815.52,310.27c218.56,200.65,338.94,467.6,338.94,751.68s-120.37,551.03-338.94,751.68c-217.95,200.08-507.57,310.27-815.52,310.27ZM2000.84,506.01c-607.89,0-1102.44,453.05-1102.44,1009.93s494.55,1009.93,1102.44,1009.93,1102.44-453.05,1102.44-1009.93-494.55-1009.93-1102.44-1009.93Z"/>
    </g>
  </g>
</svg>