<?xml version="1.0" encoding="UTF-8"?>
<svg id="Livello_2" data-name="Livello 2" xmlns="http://www.w3.org/2000/svg" viewBox="0 0 1728.06 2004.37">
  <defs>
    <style>
      .cls-1 {
        fill: #21102b;
      }

      .cls-2 {
        fill: #293856;
      }

      .cls-3 {
        fill: #848484;
      }

      .cls-4 {
        fill: #fff;
      }

      .cls-5 {
        opacity: .35;
      }

      .cls-6 {
        opacity: .5;
      }

      .cls-7 {
        opacity: .25;
      }

      .cls-8 {
        fill: #22a7f0;
      }

      .cls-9 {
        fill: #371a45;
      }
    </style>
  </defs>
  <g id="Layer_1" data-name="Layer 1">
    <g>
      <path class="cls-4" d="M659.48,929.54l-9.9,132.85-10.15,136.35-186.25,51.75c-46.85,13-90.2,35.55-129.2,64.55-49.15,36.55-109.3,59.05-179.55,68.7l-5.75-35.35-34.25-209.65c3.75-16.7,17-31.35,35-45,110-85,340-120,520.05-164.2Z"/>
      <path class="cls-9" d="M144.42,1395.6c-5.72,0-10.73-4.14-11.68-9.94l-40-245c-.24-1.49-.2-3.02.13-4.49,4.05-18.09,16.56-34.56,39.37-51.83,89.09-68.81,250.56-104.64,406.7-139.28,41.24-9.15,80.2-17.79,117.73-27,3.68-.91,7.58,0,10.48,2.46,2.9,2.45,4.44,6.14,4.16,9.93l-20.06,269.19c-.37,4.98-3.83,9.2-8.64,10.54l-186.26,51.74c-43.51,12.08-85.66,33.16-125.28,62.64-49.84,37.08-112.09,60.95-185.01,70.94-.55.08-1.09.11-1.63.11ZM116.53,1139.27l37.72,231.03c63.98-10.28,118.66-32.04,162.66-64.78,41.98-31.23,86.76-53.59,133.09-66.46l178.24-49.51,18.23-244.65c-32.86,7.86-66.78,15.38-102.4,23.28-153.63,34.08-312.49,69.33-397.39,134.93-.03.02-.06.05-.09.07-16.86,12.76-26.72,24.58-30.06,36.08ZM139.43,1093.74h.05-.05Z"/>
      <path class="cls-9" d="M476.99,1255.72c-.97,0-1.96-.12-2.95-.37-6.34-1.62-10.17-8.08-8.54-14.42,20.64-80.7-8.9-192.97-64.52-245.15-4.77-4.48-5.01-11.98-.53-16.75,4.48-4.78,11.98-5.01,16.75-.53,62.21,58.37,94.17,178.73,71.25,268.31-1.37,5.36-6.19,8.92-11.47,8.92Z"/>
      <g class="cls-7">
        <path class="cls-9" d="M649.58,1062.39l-10.15,136.35-186.25,51.75c-46.85,13-90.2,35.55-129.2,64.55-49.15,36.55-109.3,59.05-179.55,68.7l-5.75-35.35c1.75-1,3.4-2.15,5.05-3.4,4.7-3.55,9-8.2,10.35-13.9,1.35-5.75-1.2-12.7-6.7-14.75,15.55,4.2,32-8.25,37.05-23.55,5.05-15.35,1.35-32.2-4.45-47.3-4.85-12.65-11.25-25.2-11.3-38.75-.05-13.55,9.1-28.45,22.6-28.9,8.85,23.15,17.65,46.25,26.45,69.4,1.95,5.2,4.2,10.7,8.75,13.8,6.5,4.5,15.25,2.65,22.85.5,142.25-39.8,273.45-118.15,376-224.45l6.85,13.6c6.35,3.2,12.1,7.1,17.4,11.7Z"/>
      </g>
      <g>
        <g>
          <path class="cls-4" d="M1376.58,792.06c76.91,60.48,142.14,341.46,120.14,507.54-22,166.08-316.6,171.71-484.79,162.4-168.19-9.31-158.77-389.87-154.19-491.76,7.14-159.11,404.88-267.79,518.84-178.18Z"/>
          <g class="cls-7">
            <path class="cls-9" d="M1011.93,1462c168.19,9.31,462.78,3.66,484.81-162.41,2.86-21.75,4.26-45.45,4.3-70.39-47.33,35.47-111.34,1.44-118.11-43.43-41.81-276.96-142.07-385.21-190.92-422.59-151.91,17.71-329.53,101.2-334.24,207.06-4.6,101.88-14.02,482.44,154.17,491.75Z"/>
          </g>
          <path class="cls-9" d="M1108.07,1477.38c-32.67,0-65.24-1.05-96.84-2.8-78.24-4.33-129.92-78.92-153.61-221.68-16.38-98.71-15.82-208.51-12.47-283.23,2.8-62.37,58.39-121.49,156.53-166.47,124.4-57.02,306.07-81.27,382.68-21.04h0c80.29,63.14,147.96,344.52,124.84,519.09-18.62,140.62-211.35,176.13-401.14,176.13ZM1248.12,772.28c-71.6,0-158.93,18.53-235.93,53.82-87.84,40.26-139.54,93-141.87,144.7-4.95,110.16-9.3,470.23,142.3,478.62,167.39,9.26,451.29,1.91,471.61-151.48,21.35-161.19-43.39-439.29-115.44-495.98h0c-25.44-20.01-68.96-29.69-120.67-29.69Z"/>
          <path class="cls-4" d="M1353.57,1071.04l75.39-28.04c17.04-6.34,35.82,3.66,39.97,21.36,14.29,60.9,35.54,186.93-25.97,211.2-74.54,29.41-98.73-56.35-108.99-173.65-1.18-13.51,6.88-26.14,19.6-30.87Z"/>
          <g class="cls-7">
            <path class="cls-9" d="M1334.12,1101.73c9.98,117.32,33.98,203.16,108.58,173.89,30.65-11.98,40.84-49.27,41.57-91.19-6.43,11.85-15.48,20.94-27.95,25.81-66.79,26.17-93.06-39.89-104.92-138.28-11.39,5.23-18.4,17.13-17.28,29.76Z"/>
          </g>
          <path class="cls-9" d="M1415.38,1291.9c-11.28,0-21.65-2.91-31.01-8.73-33.13-20.6-51.88-76.28-60.75-180.55-1.55-18.15,9.35-35.25,26.5-41.58l75.45-27.87c10.98-4.06,23.19-3.2,33.5,2.36,10.27,5.54,17.68,15.23,20.31,26.58,16.73,72.03,34.71,196.83-32.86,223.31-11.03,4.32-21.43,6.48-31.15,6.48ZM1439.72,1051.68c-2.31,0-4.63.41-6.85,1.23l-75.45,27.87c-8.3,3.07-13.58,11.32-12.83,20.07,5.13,60.21,15.98,142.77,50.9,164.47,11.64,7.23,25.83,7.4,43.38.52,56.35-22.09,29.59-157.88,20.04-198.97-1.29-5.56-4.77-10.11-9.8-12.82-2.91-1.57-6.14-2.37-9.38-2.37ZM1353.77,1070.91h.05-.05Z"/>
          <path class="cls-9" d="M1397.97,826.94c-36.81,7.95-73.85,17.34-109.31,30.07-3.28,1.23-6.94-.46-8.13-3.75-1.11-3.04.31-6.4,3.13-7.81,17.42-8.6,35.25-16.14,53.24-23.19,18.11-7.05,36.1-13.59,54.63-19.68,6.62-2.17,13.75,1.45,15.92,8.07,2.38,7.1-2.14,14.84-9.48,16.29h0Z"/>
        </g>
        <path class="cls-4" d="M672.31,923.42l3.1-122.26c1.95,42.19.59,83.16-3.1,122.26Z"/>
        <path class="cls-4" d="M480.4,1767.29s58.75-75,129.92-134.59c46.66-39.09,98.65-71.53,142.92-71.88,0,0,384.26,110.06,444.78-350.96,19.2-146.23,5.8-248.65-27.64-319.17-4.7-9.92-9.79-19.16-15.25-27.84-5.73-9.18-11.91-17.66-18.43-25.52-17.94-21.67-38.58-38.56-61.09-51.51-17.08-9.79-35.23-17.33-54.04-22.97-174.41-52.05-409.02,60.17-409.02,60.17,3.02,19.15,5.47,37.83,7.36,56.02,3.65,34.52,5.42,67.23,5.7,98.09.07,8.9.04,17.61-.13,26.18-1.84,100.97-19.38,180.42-37.07,235.63-19.01,59.39-38.19,90.79-38.19,90.79-236.25,22.4-226.93,223.55-226.93,223.55,0,0-190.34-58.57-146.9,90.12,32.11,110.01,232.28,206.21,304.03,123.88Z"/>
        <g class="cls-7">
          <path class="cls-9" d="M480.4,1767.29s161.02-205.61,272.84-206.47c0,0,384.26,110.06,444.78-350.96,19.2-146.23,5.8-248.65-27.64-319.17-9.65-20.38-20.97-38.06-33.68-53.36-5.02-6.06-10.22-11.74-15.62-17.05,3.11,5.51,6.09,11.24,8.91,17.2,33.44,70.51,46.84,172.93,27.64,319.17-60.51,461.02-445.94,308.24-445.94,308.24-191.6-3.06-196.02,200.87-258.02,256.18-62,55.31-195.36,15.53-268.3-55.06,50.23,99.89,228.26,177.9,295.05,101.28Z"/>
        </g>
        <path class="cls-9" d="M628.78,1030.54c10.84,92.15-14.63,184.87-49.81,269.41-6.03,13.9-12.93,28.02-21.12,41.71-30.49,2.51-60.91,8.29-89.08,19.04-81.71,28.95-132.84,106.14-132.9,192.01,0,0,.47,17.42.47,17.42l-16.75-4.8c-36.4-9.57-100.52-22.51-128.08,8.41-12.76,16.57-9.49,41.15-4.4,60.74,20.08,74.32,105.45,129.58,177.15,146.58,36.84,8.13,80.58,7.63,106.9-22.37,49.14-60.42,103.05-116.29,165.82-163.16,26.66-19.9,57.99-38.14,92.13-40.91,8.08-.4,16.26.08,24.11,2.01,2.32.49,3.8,2.77,3.31,5.09-.37,1.71-1.66,2.9-3.24,3.31-37.16,12.01-68.78,30.47-101.16,51.83-60.13,42.15-110.89,97.02-157.8,153.22-3.28,4.38-7.23,8.44-11.11,12.31-79.25,70.04-224.57-2.31-282.62-71.52-20.57-23.77-36.63-53.97-41.25-85.79-17.86-107.28,94.27-105.67,167.66-83.83,0,0-16.29,12.62-16.29,12.62-.24-8.52.28-15.74,1.09-23.91,13.97-129.82,112.46-202.44,237.23-212.76,0,0-9.56,5.97-9.56,5.97,24.6-43.95,39.48-93.13,50.87-142.08,5.46-24.51,10.62-50.24,14.9-75.01,4.82-25.38,8.5-50.71,15.17-75.93.55-2.34,2.97-3.83,5.31-3.16,1.69.47,2.86,1.91,3.08,3.55h0Z"/>
        <path class="cls-4" d="M578.4,1939.38c49.01,61.02,159.4,74.91,232.31,9.2,48.19-43.42,67.76-100.78,74.71-146.24,8.1-53.15,8.82-105.27,42.99-139.38,38.97-38.88,149.85,19.61,280.3-118.92,40.7-43.17,79.6-120.75,95.36-222.78,5.1-32.9,7.76-68.32,7.29-105.98-.97-81.35-16.58-173.07-54.03-271.79-16.27-42.82-36.67-86.99-61.76-132.17-11.63-20.99-24.3-42.18-38.04-63.57-18.45-28.73-38.82-57.85-61.3-87.23l-15.39,93.53-5.24,31.76-3.78,22.86-23.56,143.11-36.02,218.72-42.06,255.31-2.91,17.7c-15.17-8.17-30.99-15.03-47.21-20.5-49.4-16.6-102.6-20.27-153.77-8.95-1.09.23-2.14.47-3.22.73-23.85,5.59-47.62,14.46-68.59,28.26-59.78,39.36-89.63,125.19-84.17,189.64,1.51,18.14,5.82,34.57,13.05,47.8,13,23.73,26.83,50,26.83,50-15.66,14.95-127.76,139.19-71.8,208.87Z"/>
        <g class="cls-7">
          <path class="cls-9" d="M578.4,1939.38c49.01,61.02,159.4,74.91,232.31,9.2,48.19-43.42,67.76-100.78,74.71-146.24,8.1-53.15,8.82-105.27,42.99-139.38,38.97-38.88,149.85,19.61,280.3-118.92,40.7-43.17,79.6-120.75,95.36-222.78.7-4.6,1.38-9.26,1.98-13.98.48-3.69.94-7.41,1.35-11.17.24-2.13.49-4.27.72-6.43.72-7.04,1.3-14.19,1.83-21.44.11-1.78.22-3.59.31-5.39.13-2.08.26-4.11.35-6.13.1-2.27.21-4.52.29-6.77.28-6.84.45-13.77.48-20.75.06-4.61.03-9.24-.02-13.91-1.86-155.1-56.82-347.77-215.12-554.76l-1.43,8.64c147.03,222.73,177.16,424.87,156.56,575.87-85.82,27.74-186.13,10.99-214.8,5.19l1.58-27.14c1.27-21.54-9.23-41.17-25.92-52.57-5.47-3.78-11.61-6.62-18.22-8.39-3.78-1.04-7.72-1.64-11.78-1.88l-275.75-16.06c-32.69-1.92-60.99,23.23-62.87,55.94l-1.64,28.1c-1.88-.24-3.76-.34-5.69-.33-28.88.04-52.25,23.46-52.18,52.33.03,28.67,23.16,51.95,51.79,52.19l-.85,14.48c-1.89,32.68,23.3,60.92,55.95,62.82l75.29,4.37,153.77,8.95,46.72,2.73c1.14.06,2.27.1,3.4.07,31.2.08,57.59-24.44,59.44-55.99l1.29-22.05c86.04,9.99,151.57,4.87,198.05-4-19.35,59.03-46.49,104.99-74.48,134.7-130.45,138.52-241.33,80.04-280.27,118.9-34.2,34.13-34.92,86.24-43.02,139.39-6.95,45.45-26.52,102.82-74.71,146.24-56.99,51.38-136.94,54.1-192.51,23.65,1.88,11.72,6.44,22.78,14.44,32.71Z"/>
        </g>
        <path class="cls-9" d="M965.27,1447.23c-69.44-27.35-144.06-36.51-215.05-14.95-46.88,13.07-83.77,44.54-104.53,88.35-21.95,45-33.88,107.1-11.36,153.6,5.69,10.74,21.1,39.35,27.01,50.42,0,0,4.4,8.2,4.4,8.2l-6.84,6.78c-37.4,39.84-85.55,103.14-83.11,159.42,1,19.18,12.14,34.78,26.49,46.69,51.14,44.31,134.54,43.62,188.22,3.03,43.35-32.66,69.94-82.82,80.29-136.08,10.48-53.24,7.02-117.8,49.86-159.63,18.68-17.33,46.09-17.79,69.27-20.08,31.51-2.31,63.01-6.24,92.49-17.04,189.71-70.41,234.52-303.11,210.3-483.16-10.99-84.71-36.97-167.21-72.55-245.11-36.12-78.74-86.32-147.98-127.25-224.56-1.13-2.08-.33-4.72,1.78-5.8,1.65-.85,3.61-.51,4.89.7,112.31,109.75,198.35,316.29,218.11,471.52,21.66,170.58-11.04,379.36-166.1,479.65-37.47,25.2-82.01,40.63-126.68,45.73-22.08,2.93-44.46,3.29-63.92,6.74-9.63,1.81-17.92,4.8-23.08,9.78-21.53,21.2-28.29,50.82-32.95,81.21-3.26,21.06-5.14,42.58-9.46,64.96-12.75,66.53-50.79,132.2-112.23,165.37-64.34,34.91-150.6,27.35-204.19-24.13-72.64-68.76,9.67-182.08,62.42-237.42,0,0-2.45,14.98-2.45,14.98-6.01-11.16-21.08-39.36-26.85-50.14-9.78-18.73-13.84-39.88-14.94-60.45-1.79-78.38,35.01-167.18,107.61-204.32,82.46-41.45,189.26-34.12,264.39,18.36,4.05,2.87.59,9.2-3.98,7.39h0Z"/>
        <path class="cls-9" d="M916.21,1687.37c-.33,0-.66-.02-1-.05-5.19-.55-8.95-5.2-8.4-10.39,8.97-85.07-51.82-155.64-112.1-185.21-55.02-26.99-108.26-23.56-142.43,9.16-3.77,3.6-9.75,3.47-13.35-.29-3.61-3.77-3.48-9.75.29-13.36,39.55-37.86,102.32-42.64,163.82-12.47,68.2,33.46,132.55,109.56,122.57,204.16-.51,4.85-4.61,8.46-9.38,8.46Z"/>
        <path class="cls-9" d="M656.85,1722.36c36.66,31.32,88.81,64.82,138.48,45.16-5.67,3.33-11.8,5.97-18.23,7.82-47.16,11.39-94.59-11.4-133.56-36.69-12.02-8.97,2.06-26.3,13.31-16.29h0Z"/>
        <path class="cls-9" d="M572.37,1676.23c-.77,0-1.55-.1-2.32-.29-5.06-1.28-8.12-6.42-6.84-11.48,19.8-78.1,13.71-143.19-18.12-193.46-45.39-71.7-128.92-88.81-129.76-88.97-5.12-1-8.46-5.96-7.46-11.08,1-5.11,5.96-8.45,11.06-7.47,3.74.72,92.11,18.63,141.99,97.21,34.82,54.85,41.75,124.97,20.6,208.41-1.08,4.28-4.93,7.13-9.15,7.13Z"/>
        <g>
          <circle class="cls-4" cx="621.17" cy="1235.49" r="52.26" transform="translate(-562.93 521.2) rotate(-32.21)"/>
          <g class="cls-7">
            <path class="cls-9" d="M568.92,1235.55c.04,28.86,23.44,52.25,52.31,52.22,28.86-.04,52.25-23.49,52.22-52.35-.01-7.97-1.81-15.57-5.05-22.33-8.37,17.66-26.37,29.93-47.22,29.96s-38.88-12.2-47.25-29.84c-3.23,6.77-5.01,14.37-5,22.35Z"/>
          </g>
          <path class="cls-9" d="M621.17,1298.26c-34.58,0-62.73-28.11-62.78-62.69h0c-.02-16.77,6.49-32.54,18.33-44.41,11.84-11.87,27.6-18.42,44.37-18.44h.08c34.58,0,62.72,28.11,62.77,62.69.04,34.61-28.09,62.81-62.7,62.85h-.08ZM621.17,1193.75h-.05c-11.15.01-21.63,4.37-29.5,12.26-7.88,7.9-12.2,18.38-12.19,29.53h0c.02,23,18.75,41.69,41.74,41.69h.05c23.02-.03,41.72-18.78,41.69-41.8-.03-23-18.75-41.69-41.74-41.69Z"/>
          <path class="cls-4" d="M675.8,1365.06l275.8,16.06c32.64,1.91,60.93-23.25,62.84-55.93l8.54-146.76c1.67-28.61-17.43-53.84-44.14-60.95-3.78-1.03-7.73-1.65-11.8-1.9l-275.75-16.06c-32.68-1.91-60.97,23.25-62.84,55.93l-6.79,116.24-1.79,30.52c-1.91,32.68,23.29,60.93,55.93,62.84Z"/>
          <g class="cls-7">
            <path class="cls-9" d="M675.8,1365.06l275.8,16.06c32.64,1.91,60.93-23.25,62.84-55.93l8.54-146.76c1.67-28.61-17.43-53.84-44.14-60.95-16.27,9.49-26.6,15.56-26.6,15.56-20.29,117.03-20.19,204.66-202.28,181.9-62.77-7.85-103.91-28.83-128.31-43.25l-1.79,30.52c-1.91,32.68,23.29,60.93,55.93,62.84Z"/>
          </g>
          <path class="cls-9" d="M955.1,1393.5c-1.41,0-2.81-.04-4.23-.12l-275.78-16.06c-19.07-1.11-36.61-9.63-49.38-23.98-12.77-14.35-19.19-32.76-18.08-51.83l8.55-146.78c1.11-19.07,9.62-36.6,23.97-49.38,14.36-12.77,32.75-19.19,51.83-18.09l275.77,16.06c19.07,1.11,36.61,9.63,49.38,23.98,12.77,14.35,19.19,32.76,18.08,51.83l-8.55,146.78c-1.11,19.07-9.62,36.6-23.97,49.38-13.29,11.83-30.05,18.21-47.6,18.21ZM952.3,1368.88c12.59.7,24.63-3.51,34.09-11.92,9.46-8.42,15.06-19.95,15.8-32.47l8.55-146.78c.73-12.53-3.51-24.63-11.92-34.09-8.42-9.46-19.95-15.07-32.48-15.79l-275.77-16.06c-12.58-.74-24.63,3.51-34.09,11.92-9.46,8.42-15.06,19.95-15.8,32.47l-8.55,146.78c-.73,12.53,3.51,24.63,11.92,34.09,8.42,9.46,19.95,15.07,32.48,15.79l275.78,16.06Z"/>
          <path class="cls-4" d="M664.8,1363.33c3.53.95,7.19,1.53,11.01,1.73l275.8,16.06c23.92,1.38,45.5-11.73,56.06-31.75,3.85-7.27,6.25-15.46,6.74-24.18l3.82-65.2,1.26-21.51,3.5-60.05c1.91-32.68-23.29-60.93-55.93-62.84l-59.59-3.46c27.17,6.78,46.67,32.21,45.01,61.11l-4.59,79.28-3.94,67.53c-1.91,32.64-30.2,57.84-62.84,55.93l-216.28-12.64Z"/>
          <g class="cls-7">
            <path class="cls-9" d="M664.8,1363.33c3.53.95,7.19,1.53,11.01,1.73l275.8,16.06c32.64,1.91,60.93-23.25,62.8-55.93l5.08-86.71c-7.83,14.92-21.39,33-41.44,33.81-11,.47-21.31-8.03-30.17-19.77l-3.94,67.53c-1.91,32.64-30.2,57.84-62.84,55.93l-216.28-12.64Z"/>
          </g>
          <path class="cls-9" d="M955.13,1393.5c-1.41,0-2.83-.04-4.25-.12l-275.79-16.07c-4.47-.24-9.01-.94-13.41-2.09l3.82-24.12,216.31,12.62c12.46.73,24.6-3.49,34.06-11.91,9.46-8.42,15.07-19.95,15.8-32.48l8.54-146.79c1.32-22.61-13.71-43.02-35.72-48.53l3.69-24.15,59.57,3.46c19.08,1.12,36.61,9.64,49.38,23.99,12.78,14.36,19.19,32.77,18.07,51.83l-8.54,146.77c-1.1,19.07-9.61,36.6-23.96,49.38-13.29,11.82-30.03,18.21-47.56,18.21ZM934.64,1367.85l17.68,1.03c12.57.76,24.61-3.5,34.07-11.91,9.46-8.42,15.06-19.95,15.79-32.47h0s8.54-146.79,8.54-146.79c.74-12.53-3.49-24.63-11.91-34.09-8.42-9.46-19.96-15.07-32.49-15.81l-15.78-.92c9.84,13.17,15.18,29.69,14.16,47.07l-8.54,146.78c-1.04,17.95-8.64,34.56-21.52,47.1Z"/>
          <path class="cls-8" d="M839.38,1241.5c-.28,5.43,5.05,49.66,5.05,49.66,0,0,13.88.73,30.93,1.62,21.3,1.12,39.72-20.03,41.15-47.23,1.43-27.2-14.68-50.16-35.98-51.28-14.37-.75-30.93-1.62-30.93-1.62,0,0-9.75,40.01-10.22,48.86Z"/>
          <g class="cls-5">
            <path class="cls-9" d="M839.38,1241.5c-.28,5.43,5.05,49.66,5.05,49.66,0,0,13.88.73,30.93,1.62,21.3,1.12,39.72-20.03,41.15-47.23,1.43-27.2-14.68-50.16-35.98-51.28-14.37-.75-30.93-1.62-30.93-1.62,0,0-9.75,40.01-10.22,48.86Z"/>
          </g>
          <path class="cls-9" d="M876.94,1302.27c-.69,0-1.38-.02-2.08-.06l-38.87-2.04-.95-7.89c-1.63-13.54-5.4-45.64-5.1-51.28h0c.49-9.26,8.81-43.77,10.47-50.6l1.86-7.61,38.75,2.03c13.27.69,25.25,7.75,33.75,19.86,8,11.41,11.97,26.09,11.17,41.35-1.66,31.51-23.43,56.23-49,56.23ZM852.86,1282.14l22.99,1.21c15.93.84,30.06-16.34,31.22-38.3.58-11.06-2.18-21.54-7.77-29.5-5.09-7.26-11.94-11.46-19.27-11.85l-23.09-1.21c-3.54,15.02-7.86,34.48-8.13,39.47-.06,3.13,1.88,21.63,4.05,40.18Z"/>
          <ellipse class="cls-8" cx="847.01" cy="1241.9" rx="49.32" ry="38.62" transform="translate(-437.57 2022.66) rotate(-87)"/>
          <g class="cls-5">
            <path class="cls-9" d="M885.57,1243.93c-1.42,27.19-19.84,48.35-41.14,47.23-21.32-1.11-37.43-24.08-35.98-51.3.18-3.67.7-7.25,1.5-10.68,4.5,18.97,17.91,33.03,34.45,33.87,18.39.96,34.67-14.67,39.64-36.53,1.3,5.46,1.83,11.32,1.53,17.4Z"/>
          </g>
          <path class="cls-4" d="M885.57,1243.93c-.09,1.85-.27,3.67-.55,5.46-3.11-21.54-17.42-38.09-35.41-39.02-19.84-1.02-37.22,17.27-40.59,41.8-.59-3.98-.78-8.08-.57-12.31,1.42-27.19,19.84-48.35,41.14-47.23,21.29,1.15,37.4,24.08,35.98,51.3Z"/>
          <path class="cls-9" d="M846.08,1300.65c-.72,0-1.43-.02-2.15-.06-13.27-.7-25.25-7.75-33.75-19.87-8-11.41-11.96-26.09-11.16-41.35h0c.8-15.25,6.28-29.44,15.43-39.95,9.72-11.16,22.42-16.93,35.64-16.22,13.27.69,25.25,7.75,33.75,19.87,8,11.4,11.97,26.09,11.17,41.34-.8,15.25-6.28,29.44-15.43,39.95-9.19,10.55-21.02,16.28-33.5,16.28ZM848,1202.05c-6.96,0-13.77,3.45-19.31,9.8-6.39,7.34-10.23,17.47-10.81,28.53h0c-.58,11.06,2.18,21.54,7.76,29.5,5.09,7.26,11.94,11.46,19.27,11.85,7.27.38,14.59-3.08,20.41-9.77,6.4-7.34,10.23-17.47,10.82-28.53.58-11.06-2.18-21.54-7.77-29.5-5.09-7.26-11.94-11.46-19.27-11.85-.37-.02-.74-.03-1.1-.03ZM808.44,1239.87h.05-.05Z"/>
          <path class="cls-9" d="M761.6,1377.76c-.1,0-.21,0-.31,0-4.84-.17-8.62-4.22-8.46-9.06l3.19-92.46c.11-2.99-1.29-5.81-3.72-7.55l-29.87-21.3c-7.41-5.29-11.53-13.87-11.04-22.96l6.74-123.23c.26-4.83,4.48-8.58,9.23-8.27,4.83.26,8.54,4.4,8.27,9.23l-6.74,123.23c-.17,3.06,1.22,5.95,3.72,7.73l29.87,21.3c7.24,5.16,11.37,13.54,11.06,22.42l-3.19,92.46c-.17,4.73-4.05,8.46-8.75,8.46Z"/>
          <path class="cls-4" d="M1305.56,1163.36s27.8,19.95,25.97,52.63c-2.11,37.78-30.06,54.26-30.06,54.26,0,0-95.14,59.01-303.59,30.62,0,0-48.82-59.52,15.49-97.01,0,0,189.05,45.56,292.19-40.49Z"/>
          <g class="cls-7">
            <path class="cls-9" d="M1331.57,1215.26s0,0,0,0c-1.79,38.3-30.12,54.99-30.12,54.99,0,0-95.12,59-303.58,30.62,0,0-37.3-45.5-3.74-81.99.02.23.04.47.06.7,2.2,23.84,21.43,42.68,45.24,45.17,189.19,19.79,275.9-33.96,275.9-33.96,0,0,8.36-4.92,16.24-15.54Z"/>
          </g>
          <path class="cls-9" d="M1106.99,1320.9c-29.04,0-61.37-1.79-97.13-6.12-13.38-1.62-25.09-9.65-31.33-21.48-18.43-34.96-12.8-68.12,15.46-90.99,9.18-7.43,21.24-10.38,33.09-8.11,37.45,7.21,166.28,26.63,251.72-26.61h0c10.26-6.39,22.71-8.04,34.16-4.54,11.1,3.39,20.16,11.39,24.87,21.93,4.56,10.2,6.56,20.87,5.96,31.7-2.45,43.84-34.71,63.34-36.08,64.15-2.98,1.85-66.49,40.08-200.72,40.08ZM1019.22,1217.98c-3.61,0-7.07,1.18-9.8,3.4-19.11,15.46-22.2,35.81-9.19,60.48,2.48,4.71,7.18,7.91,12.57,8.56,191.5,23.19,281.36-30.08,282.24-30.62,1.04-.63,22.55-14.12,24.24-44.49.39-6.89-.91-13.73-3.86-20.32-1.85-4.13-5.27-7.13-9.64-8.47-4.67-1.42-9.78-.73-14.01,1.9h0c-93.03,57.97-229.68,37.52-269.35,29.88-1.07-.2-2.14-.31-3.2-.31Z"/>
        </g>
        <g class="cls-5">
          <path class="cls-9" d="M748.31,1408.19h-.04s0-.26-.02-.73c.07.48.06.73.06.73Z"/>
        </g>
        <path class="cls-9" d="M327.78,1543.78c12.69,8.16,24.33,16.77,35.76,26.4,11.15,9.53,21.92,19.89,29.9,32-16.04-14.51-35.46-23.65-55.05-31.98-6.49-2.67-13.23-5.29-19.62-7.41-5.55-1.84-8.56-7.84-6.72-13.39,2.05-6.48,10.05-9.31,15.73-5.62h0Z"/>
        <path class="cls-4" d="M1017.72,763.64l54.1,45.04,53.88,44.84,21.53,17.91,23.15,19.26,46.74,38.89c14.38,4.45,27.75,9.09,40.23,13.92,174.35,67.4,168.56,166.56,168.56,166.56,0,0-16.56,50.06-7.57,74.65,8.9,24.22,42.22,28.37,42.22,28.37,0,0,12.46,79.24,69.4,94.89,38.82,10.64,121.23-34.26,144.62-51.98,57.79-43.72,41.52-204.79,26.8-243.87-79.74-211.76-299.41-260.97-468.42-265.21-17.6-.46-34.6-.42-50.88-.03-8.41.2-16.58.49-24.53.88-29.19,1.38-55.24,3.76-76.7,6.3-29.99,3.49-51.04,7.25-59.29,8.8-2.52.5-3.84.78-3.84.78Z"/>
        <g class="cls-7">
          <path class="cls-9" d="M1460.55,1213.08s12.46,79.24,69.4,94.89c38.82,10.64,121.23-34.26,144.62-51.98,15.52-11.76,25.72-31.99,32.01-56.05-.8.71-1.62,1.37-2.49,2.02-23.4,17.72-134.98,78.51-173.8,67.87-28.58-7.86-40.2-26.16-44.68-42.43-4.44-16.13-18.49-27.53-35.2-28.2-12.53-.5-24.98-2.97-30.08-10.05,11.05,20.3,40.22,23.94,40.22,23.94Z"/>
        </g>
        <g class="cls-7">
          <path class="cls-9" d="M1217.11,929.58h0c215.42,66.63,208.79,180.48,208.79,180.48,0,0-16.56,50.06-7.57,74.65-13.25-53.21,24.49-58.23,39.16-98.68,12.06-33.24-25.44-192.04-231.62-182.24-13.35.63-19.03,17.25-8.76,25.8Z"/>
        </g>
        <g class="cls-5">
          <path class="cls-9" d="M1418.33,1184.71c.42,1.71,1.07,3.11,1.94,4.32-.73-1.36-1.37-2.8-1.94-4.32Z"/>
        </g>
        <path class="cls-9" d="M1016.85,759.53c95.72-34.82,222.21-29.46,322.39-16.43,128.37,18.22,260.79,73.81,333.53,186.15,3.3,5.15,8.81,12.62,11.52,18.07,5.78,10.86,15.05,26.72,19.37,38.16.73,1.33,8.97,21.23,9.46,22.12,4.68,13.05,7.21,26.81,9.34,40.34,7.57,56.96,9.77,114.39-8.3,170.28-5.14,13.99-11.91,28.2-23.42,40.1-10.49,10.85-24.11,18.13-36.88,25.69-24.91,13.78-50.63,25.84-79.13,33.51-33.88,9.86-63.51,3.84-88.2-21.76-21.36-22.74-32.4-50.72-38.41-80.71,0,0,10.88,10.54,10.88,10.54-3.83-.56-6.5-1.21-9.64-2.02-22.89-5.47-44.9-23.86-45.86-48.77-1.63-24.61,3.68-45.78,10.48-68.7,0,0-.62,3.23-.62,3.23-.38-15.75-6.64-31.33-13.88-45.2-15.56-27.39-38.94-49.36-65.43-67.06-24.84-15.54-51.95-28.43-78.1-41.53-13.58-7.17-27.22-13.04-40.29-22.09-3.56-2.26-1.57-8.34,2.7-7.87,47.18,3.37,91.69,23.44,130.2,50.13,36.55,26.07,70.94,59.9,84.79,103.69,3.23,10.99,5.51,20.87,5.12,32.78-3.24,10.03-6.02,20.87-7.89,31.44-2.08,13.58-4.42,27.65.82,39.44,7.69,13.23,25.71,17.27,39.97,18.88,2.34,15.17,6.54,31.23,13.08,45.38,15.76,35.4,43.42,59.07,84,45.8,33.95-9.46,68.46-26.37,97.97-46.75,30.71-25.52,34.18-75.62,36.16-114.24.23-38.93-1.47-81.27-14.02-117.95,0,0-7.91-18.43-7.91-18.43-4.01-10.66-12.69-25.53-18.1-35.69-2.51-5.05-7.65-12.04-10.75-16.84-66.94-103.2-188.06-155.37-306.16-173.51-53.75-8.88-108.46-11.08-162.87-9.19-54.61,1.14-108.77,6.57-164.2,7.24-2.37.08-4.38-1.83-4.4-4.21-.02-1.81,1.1-3.38,2.69-4.01h0Z"/>
        <g>
          <path class="cls-4" d="M519.14,895.83c560.96,296.38,1000.27-467.79,493.9-809.7C446.02-230.89-7.35,559.45,519.14,895.83Z"/>
          <path class="cls-4" d="M519.14,895.83c560.96,296.38,1000.27-467.79,493.9-809.7C446.02-230.89-7.35,559.45,519.14,895.83Z"/>
          <g class="cls-7">
            <path class="cls-9" d="M574.28,953.74c17.22,8.79,34.32,16.57,51.31,23.4,28.22,11.41,56.09,20.18,83.42,26.49,128,29.52,244.89,5.39,339.25-51.84,36.59-22.18,69.8-49.37,98.97-80.36,2.66-2.83,5.31-5.69,7.9-8.58,14.59-16.27,28.1-33.49,40.46-51.52,14.01-20.53,26.52-42.08,37.37-64.42-17.6-.46-34.6-.42-50.88-.03-8.41.2-16.58.49-24.53.88-18.45-28.73-38.82-57.85-61.3-87.23l-15.39,93.53c-29.99,3.49-51.04,7.25-59.29,8.8-174.41-52.05-409.02,60.17-409.02,60.17,3.02,19.15,5.47,37.83,7.36,56.02l-3.3,1.24s-9.92,31.24-42.31,73.44Z"/>
          </g>
          <path class="cls-4" d="M519.14,895.83c560.96,296.38,1000.27-467.79,493.9-809.7C446.02-230.89-7.35,559.45,519.14,895.83Z"/>
          <path class="cls-9" d="M771.29,971.72c-84.15,0-170.9-22.81-256.34-67.95l-.64-.37c-124.87-79.78-204.02-190.46-228.89-320.07-22.2-115.65.57-237.82,64.11-344.02,63.4-105.97,159.88-182.91,271.66-216.66,126.04-38.05,263.07-18.82,396.24,55.64l.64.4c120.27,81.21,196.13,191.69,219.38,319.49,20.79,114.31-2.16,234.65-64.63,338.85-62.31,103.96-157.18,180.08-267.14,214.35-43.59,13.58-88.6,20.34-134.38,20.34ZM523.67,888.07c282.17,148.9,521.59,26.83,633.74-160.27,109.57-182.79,109.6-459.11-149.08-634.01C724.67-64.61,475.98,62.93,364.93,248.54c-112.14,187.43-110.27,467.45,158.74,639.53Z"/>
          <g class="cls-7">
            <path class="cls-9" d="M519.13,895.82c480.06,264.43,936.76-310,601.94-716.66,61.13,160.54,14.82,196.71-16.44,316.51-86.44,383.27-560.78,429.63-784.8,166.51,39.15,99.35,110.3,180.79,199.29,233.64Z"/>
          </g>
          <path class="cls-2" d="M771.28,975.34c-84.72,0-172.06-22.95-258.02-68.37l-.9-.52c-125.73-80.33-205.43-191.83-230.5-322.43-22.36-116.52.57-239.6,64.56-346.56,63.87-106.74,161.07-184.26,273.72-218.27C747.16-19.15,885.14.19,1019.19,75.14l.9.55c121.1,81.77,197.49,193.06,220.91,321.84,20.94,115.17-2.17,236.4-65.08,341.36-62.77,104.72-158.36,181.41-269.17,215.94-43.95,13.7-89.33,20.51-135.47,20.51ZM525.49,884.94c280.04,147.68,517.57,26.6,628.82-159,108.71-181.35,108.76-455.49-147.88-629.07C724.92-60.23,478.2,66.27,368.04,250.4c-111.25,185.94-109.38,463.75,157.45,634.54Z"/>
          <path class="cls-9" d="M771.28,975.34c-84.72,0-172.06-22.95-258.02-68.37l-.9-.52c-125.73-80.33-205.43-191.83-230.5-322.43-22.36-116.52.57-239.6,64.56-346.56,63.87-106.74,161.07-184.26,273.72-218.27C747.16-19.15,885.14.19,1019.19,75.14l.9.55c121.1,81.77,197.49,193.06,220.91,321.84,20.94,115.17-2.17,236.4-65.08,341.36-62.77,104.72-158.36,181.41-269.17,215.94-43.95,13.7-89.33,20.51-135.47,20.51ZM525.49,884.94c280.04,147.68,517.57,26.6,628.82-159,108.71-181.35,108.76-455.49-147.88-629.07C724.92-60.23,478.2,66.27,368.04,250.4c-111.25,185.94-109.38,463.75,157.45,634.54Z"/>
          <path class="cls-9" d="M630.72,943.98c556.54,23.38,651.69-662.33,177.68-777.07C269.66,70.65,93.45,763.94,630.72,943.98Z"/>
          <path class="cls-1" d="M362.07,713.56c235.56,444.95,890.26,142.4,741.66-299.74-75.63,347.75-507.78,450.93-741.66,299.74Z"/>
          <path class="cls-9" d="M758.47,976.11c-80.32,0-163.71-23.37-245.5-69.3l-.08-.05c-187.68-107.27-310.99-379.82-195.42-614.56l1.1-1.83c75.25-103.79,196.77-173.08,333.39-190.1,136.13-16.95,270.22,20.04,367.85,101.53,92.49,81.32,146,185.13,155,300.42,8.15,104.51-21.3,209.97-82.93,296.94-59.72,84.28-145.16,143.26-240.58,166.09-30.28,7.24-61.32,10.84-92.84,10.84ZM525.35,884.87c250.79,140.8,450.85,34,545.98-100.26,109.34-154.3,121.12-397.47-67.9-563.67-92.05-76.83-219.12-111.76-348.35-95.66-129.34,16.12-244.26,81.34-315.48,179.02-108.49,221.8,8.28,479.11,185.75,580.57Z"/>
          <path class="cls-4" d="M1281.1,320.19c77.8,209.74-125.86,305.37-220.32,112.62-89.61-216.84,128.09-319.08,220.32-112.62Z"/>
          <g class="cls-7">
            <path class="cls-9" d="M1233.73,529.12c-60.84,29.11-143.25-19.46-177.37-106.68,83.87,65.06,96.48-124.98,80.68-168.8,172.65-44.76,209.58,224.41,96.69,275.48Z"/>
          </g>
          <path class="cls-9" d="M1192.91,549.85c-48.99,0-104.45-31.93-143.45-111.49l-.33-.73c-48.53-117.43-10.06-206.33,53.03-233.45,56.92-24.48,140.8-.21,190.43,110.88l.31.76c44.16,119.04,1.49,200.2-56.84,225.24-13.3,5.71-27.92,8.8-43.16,8.8ZM1072.26,427.63c43.84,89.16,108.86,109.6,153.87,90.27,47.67-20.46,81.5-89.54,43.3-192.94-42.68-95.2-111.41-117.38-157.32-97.64-51.68,22.22-81.92,98.14-39.85,200.31Z"/>
          <path class="cls-4" d="M1294.66,326.83c62.87,170.04-88.5,244.26-164.92,88.37-74.26-177.35,90.33-257.82,164.92-88.37Z"/>
          <path class="cls-9" d="M1233.73,513.17c-38.44,0-82.99-26.51-115.31-92.43l-.31-.68c-41.13-98.24-12.29-171.27,37.47-192.63,44.17-18.98,110.16,2.45,150.61,94.33l.29.71c36.54,98.83,4.21,164.83-41.29,184.33-9.67,4.15-20.3,6.37-31.45,6.37ZM1141.21,409.99c34.39,69.9,82.06,87.37,114.04,73.65,34.85-14.94,58.36-68.89,27.72-152.09-33.54-75.89-84.37-95.19-117.46-80.98-38.3,16.45-58.91,76.47-24.31,159.41Z"/>
          <g class="cls-6">
            <path class="cls-4" d="M986.53,379.01c21.25,91.75-82.66,117.52-114.4,41.3-34.6-98.39,87.38-130.73,114.4-41.3Z"/>
          </g>
          <g class="cls-6">
            <path class="cls-4" d="M1006.86,530.23c6.1,35.56-39.13,47.7-49.33,9.68-6.1-35.56,39.13-47.7,49.33-9.68Z"/>
          </g>
          <g class="cls-6">
            <path class="cls-4" d="M443.72,722.73c-209.85-260.69,67.73-465.14,192.42-454.67-183.97,120.22-202.56,285.77-192.42,454.67Z"/>
          </g>
          <g class="cls-7">
            <path class="cls-9" d="M1141.67,455.06c-15.17-20.5-24.77-45.23-28.72-70.55,87.02,90.18,167.33-15.97,149.59-105.64,110.92,143.31-7.24,305.28-120.88,176.19Z"/>
          </g>
        </g>
        <path class="cls-9" d="M1342.08,997.43c-4.98,0-9.39-3.54-10.33-8.61-10.76-58.27-1.39-104.96,27.87-138.75,51.14-59.07,143.64-56.18,147.55-56.02,5.8.22,10.32,5.11,10.1,10.92-.23,5.79-5.04,10.32-10.91,10.1h0c-.81-.03-86.47-2.58-130.91,48.85-24.81,28.71-32.55,69.45-23.02,121.08,1.05,5.71-2.72,11.2-8.43,12.25-.64.12-1.29.18-1.92.18Z"/>
        <path class="cls-3" d="M449.07,1789.68c3.84-8.94,3.67-20.68-3.32-36.17-33.66-74.69-217.19-210.08-275.68-144.09.54,9.9,2.53,21.17,6.29,33.99,28.21,96.66,186.13,182.63,272.7,146.26Z"/>
        <g class="cls-5">
          <path class="cls-9" d="M256.71,1745.07c60.26,43.47,139.6,66.77,192.36,44.6,3.84-8.94,3.67-20.68-3.32-36.17-15.35-34.08-61.91-80.79-113.58-115.23,22.2,24.81,67.63,90.66,41.3,116.2-26.32,25.54-79.81-1.23-116.77-9.41Z"/>
        </g>
        <path class="cls-9" d="M402.53,1810.81c-31.56,0-67.21-8.81-103.41-26.06-67.79-32.29-119.45-85.09-134.83-137.81-3.89-13.24-6.17-25.64-6.78-36.83l-.28-5.17,3.43-3.87c11.14-12.57,32.58-26.33,71.29-20.43,81.28,12.36,197.72,106.47,225.3,167.7,7.92,17.56,9.07,33.15,3.4,46.31l-2.01,4.67-4.69,1.97c-15.17,6.37-32.57,9.52-51.42,9.52ZM449.07,1789.68h.05-.05ZM183.11,1614.24c.86,7.84,2.65,16.44,5.35,25.63,13.24,45.35,60.92,93.29,121.49,122.14,47.94,22.84,95.5,29.43,128.81,18.11.83-5.79-.67-12.97-4.49-21.43-24.63-54.68-133.09-142.04-206.12-153.14-19.68-2.99-34.78-.07-45.04,8.69Z"/>
        <path class="cls-9" d="M183.75,1658.67c-2.64,0-5.17-.19-7.54-.59-5.44-.93-9.11-6.09-8.18-11.54.92-5.44,6.07-9.11,11.54-8.18,20.84,3.59,70.2-21.04,96.32-37.39,4.69-2.93,10.85-1.51,13.78,3.17,2.93,4.68,1.51,10.85-3.17,13.78-7.06,4.42-66.19,40.75-102.75,40.75Z"/>
        <path class="cls-9" d="M216.18,1704.72c-4.63,0-9.33-.24-14.1-.75-5.49-.59-9.47-5.51-8.88-11.01.59-5.49,5.52-9.47,11-8.88,67.21,7.17,123.3-50.11,123.85-50.69,3.84-3.97,10.17-4.09,14.14-.27,3.98,3.83,4.11,10.15.28,14.13-2.39,2.49-56.05,57.47-126.29,57.47Z"/>
        <path class="cls-9" d="M249.94,1750.03c-4.97,0-9.28-3.7-9.91-8.77-.68-5.48,3.21-10.48,8.69-11.16,98.3-12.22,121.53-59.44,121.75-59.91,2.34-5,8.31-7.15,13.3-4.8,5,2.35,7.15,8.3,4.8,13.3-1.1,2.35-28.26,57.7-137.39,71.27-.42.05-.83.08-1.25.08Z"/>
        <path class="cls-9" d="M326.08,1792.62c-5.07,0-9.41-3.84-9.94-8.99-.56-5.49,3.45-10.4,8.94-10.96,64.48-6.54,89.39-54.68,90.42-56.73,2.48-4.92,8.49-6.93,13.4-4.47,4.93,2.46,6.95,8.43,4.51,13.36-1.21,2.45-30.51,60.04-106.31,67.73-.34.03-.68.05-1.02.05Z"/>
      </g>
    </g>
    <path class="cls-4" d="M169.43,1073.74c-38.33,19.17-64.91,55.97-93.26,87.87-15.52,17.47-8.86,45.21,13.04,53.35,35.29,13.12,68.6-2.12,100.22-41.22"/>
    <path class="cls-4" d="M199.43,1373.74c-57.3,12.2-111.85,15.35-162,4.55-12.5-2.7-22-13.05-23.8-25.7-.5-3.55-.7-6.95-.6-10.15.95-54.85,79.85-63.75,143.25-25.45,8.05,4.8,15.8,10.4,23.15,16.75l20,40Z"/>
    <path class="cls-9" d="M174.73,1084.34c-32.89,17.78-56.06,48.1-80.54,76.02-7.74,9.3-14.26,13.61-13.93,24.56.06,15.45,15.97,21.5,29.05,22.81,17.02,1.79,32.14-4.79,46.79-14.42,10.03-6.5,19.56-14.52,29.65-22.64,2.11-1.7,5.2-1.37,6.9.74,1.26,1.56,1.4,3.66.53,5.34-6.19,11.96-14.67,22.76-25.09,32.1-31.31,31.87-107.95,32.8-112.72-22.62-1.15-12.81,4.49-26.19,13.27-35.3,0,0,6.24-7.24,6.24-7.24,25.78-30.34,52.21-62.88,89.26-80.57,13.99-6.23,23.99,13.75,10.6,21.2h0Z"/>
    <path class="cls-9" d="M176.35,1337.3c-28.11-15.93-58.91-29.66-91.21-31.71-27.48-1.99-61.78,8.19-59.23,40.3.42,2.39.42,6.5,1.55,8.68,2.27,6.09,8.01,10.52,14.42,11.35,34.48,7.18,70.09,7.15,105.17,3.69,16.68-1.75,33.32-4.38,49.95-7.47,15.02-2.47,19.7,19.32,4.89,23.19-54.44,12.77-111.79,17.51-166.97,5.69-33.76-6.73-42.92-47.58-28.03-75.36,14.5-28.47,81.86-83.21,109.63-80.33,18.67,1.66,50.16,18.45,66.58,26.59,16.39,8.09-11.91,54.23-.6,68.26,3.32,4.06-1.72,9.82-6.16,7.1h0Z"/>
    <g class="cls-7">
      <path class="cls-9" d="M199.43,1373.74c-57.3,12.2-111.85,15.35-162,4.55-12.5-2.7-22-13.05-23.8-25.7-.5-3.55-.7-6.95-.6-10.15,2.55-5.9,5.4-11.75,8.35-17.45,1.95,20.35,26.6,29.05,46.85,31.75,25.9,3.45,54.65,4.05,75.5-11.75,4.7-3.55,9-8.2,10.35-13.9,1.35-5.75-1.2-12.7-6.7-14.75,2.95.8,5.95,1,8.9.65,8.05,4.8,15.8,10.4,23.15,16.75l20,40Z"/>
    </g>
  </g>
</svg>