<?xml version="1.0" encoding="UTF-8"?>
<svg id="Livello_2" data-name="Livello 2" xmlns="http://www.w3.org/2000/svg" viewBox="0 0 3500.18 2581.61">
  <defs>
    <style>
      .cls-1 {
        fill: #21102b;
      }

      .cls-2 {
        fill: #220f2d;
      }

      .cls-3 {
        fill: #232333;
      }

      .cls-4 {
        fill: #293856;
      }

      .cls-5 {
        fill: #848484;
      }

      .cls-6 {
        fill: #fff;
      }

      .cls-7 {
        fill: #ff0068;
      }

      .cls-8 {
        opacity: .7;
      }

      .cls-9 {
        opacity: .35;
      }

      .cls-10 {
        opacity: .6;
      }

      .cls-11 {
        opacity: .5;
      }

      .cls-12 {
        opacity: .25;
      }

      .cls-13 {
        fill: #22a7f0;
      }

      .cls-14 {
        fill: #371a45;
      }

      .cls-15 {
        fill: #ff67a0;
      }
    </style>
  </defs>
  <g id="Layer_1" data-name="Layer 1">
    <path class="cls-6" d="M1728.03,1661.91c-64.25-13.7-152,41.55-252.7,73.4-14.55,4.6-29.6,7.5-44.75,9.05-143.6,14.5-264.2,4.25-332.55-62.45l-1.85-93.8-3.15-161.2,125,10,151.15,31.8c25.45,5.35,51.8,4.35,76.8-2.85,67.3-19.35,132.4-36.75,189.7-46.75,52.2-9.15,106.15-4.4,154.85,16.4,6.85,2.9,13.4,6.05,19.6,9.4,42.5,22.6,68.6,53.5,57.9,82,50,60,40,160-140,135Z"/>
    <path class="cls-14" d="M1326.92,1761.92c-111.26,0-187.82-23.36-237.16-71.53-2.23-2.18-3.51-5.14-3.57-8.25l-5-255c-.06-3.35,1.29-6.56,3.73-8.86,2.44-2.29,5.71-3.45,9.07-3.19l125,10c.5.04,1,.11,1.49.22l151.13,31.82c23.37,4.91,47.95,4,71.08-2.65,59.68-17.18,129.04-36.21,190.98-47.05,56.25-9.84,112.09-3.9,161.5,17.19,60.99,26.04,93.77,64.5,85.96,99.73,25.92,34.11,32.05,74.56,15.4,104.52-16.09,28.97-58.7,60.25-170.13,44.78-.28-.04-.56-.09-.84-.15-39.76-8.47-91.7,12.79-151.85,37.41-30.26,12.38-61.55,25.19-94.8,35.71-14.66,4.64-30.52,7.84-47.15,9.53-37.94,3.83-72.84,5.77-104.85,5.77ZM1109.78,1676.73c58.72,54.17,160.49,71.91,319.6,55.84,15.01-1.52,29.27-4.39,42.37-8.54,32.32-10.23,63.16-22.85,92.98-35.05,63.58-26.02,118.55-48.5,165.33-38.74,76.35,10.53,128.12-1.14,145.75-32.87,12.67-22.82,6.04-55.34-16.89-82.86-2.73-3.28-3.49-7.77-1.99-11.76,8.77-23.33-20.45-54.71-71.07-76.32-45.18-19.28-96.39-24.69-148.12-15.64-60.84,10.65-129.43,29.47-188.51,46.48-26.83,7.72-55.35,8.78-82.52,3.07l-150.39-31.66-111.2-8.9,4.65,236.96Z"/>
    <path class="cls-14" d="M1448.04,1748.76c-3.83,0-7.59-1.85-9.87-5.28-49.78-74.66-64.96-172.83-41.66-269.36,1.53-6.36,7.94-10.27,14.3-8.74,6.36,1.54,10.28,7.94,8.74,14.3-21.75,90.11-7.77,181.47,38.34,250.64,3.63,5.45,2.16,12.81-3.29,16.44-2.02,1.35-4.3,1.99-6.56,1.99Z"/>
    <g class="cls-12">
      <path class="cls-14" d="M1728.03,1661.91c-64.25-13.7-152,41.55-252.7,73.4-14.55,4.6-29.6,7.5-44.75,9.05-143.6,14.5-264.2,4.25-332.55-62.45l-1.85-93.8c9.2-11.65,19.25-22.65,30.1-32.8l10.85-16.7c78.4,72.75,190.95,97.6,297.9,96.25,106.9-1.35,212.05-25.75,318.2-38.45,17.85-2.15,36.4-4.15,51.6-13.65,27.9-17.4,36.4-55.8,28.55-87.75-4.45-18.05-13-34.5-23.25-50.1,42.5,22.6,68.6,53.5,57.9,82,50,60,40,160-140,135Z"/>
    </g>
    <g>
      <g>
        <path class="cls-6" d="M2431.6,1252.12l-9.9,132.85-10.15,136.35-186.25,51.75c-46.85,13-90.2,35.55-129.2,64.55-49.15,36.55-109.3,59.05-179.55,68.7l-5.75-35.35-34.25-209.65c3.75-16.7,17-31.35,35-45,110-85,340-120,520.05-164.2Z"/>
        <path class="cls-14" d="M1916.54,1718.17c-5.72,0-10.73-4.14-11.68-9.94l-40-245c-.24-1.49-.2-3.02.13-4.49,4.05-18.09,16.56-34.56,39.37-51.83,89.09-68.81,250.56-104.64,406.7-139.28,41.24-9.15,80.2-17.79,117.73-27,3.68-.91,7.58,0,10.48,2.46,2.9,2.45,4.44,6.14,4.16,9.93l-20.06,269.19c-.37,4.98-3.83,9.2-8.64,10.54l-186.26,51.74c-43.51,12.08-85.66,33.16-125.28,62.64-49.84,37.08-112.09,60.95-185.01,70.94-.55.08-1.09.11-1.63.11ZM1888.65,1461.85l37.72,231.03c63.98-10.28,118.66-32.04,162.66-64.78,41.98-31.23,86.76-53.59,133.09-66.46l178.24-49.51,18.23-244.65c-32.86,7.86-66.78,15.38-102.4,23.28-153.63,34.08-312.49,69.33-397.39,134.93-.03.02-.06.05-.09.07-16.86,12.76-26.72,24.58-30.06,36.08ZM1911.55,1416.32h.05-.05Z"/>
        <path class="cls-14" d="M2249.11,1578.3c-.97,0-1.96-.12-2.95-.37-6.34-1.62-10.17-8.08-8.54-14.42,20.64-80.7-8.9-192.97-64.52-245.15-4.77-4.48-5.01-11.98-.53-16.75,4.48-4.78,11.98-5.01,16.75-.53,62.21,58.37,94.17,178.73,71.25,268.31-1.37,5.36-6.19,8.92-11.47,8.92Z"/>
        <g class="cls-12">
          <path class="cls-14" d="M2421.7,1384.97l-10.15,136.35-186.25,51.75c-46.85,13-90.2,35.55-129.2,64.55-49.15,36.55-109.3,59.05-179.55,68.7l-5.75-35.35c1.75-1,3.4-2.15,5.05-3.4,4.7-3.55,9-8.2,10.35-13.9,1.35-5.75-1.2-12.7-6.7-14.75,15.55,4.2,32-8.25,37.05-23.55,5.05-15.35,1.35-32.2-4.45-47.3-4.85-12.65-11.25-25.2-11.3-38.75-.05-13.55,9.1-28.45,22.6-28.9,8.85,23.15,17.65,46.25,26.45,69.4,1.95,5.2,4.2,10.7,8.75,13.8,6.5,4.5,15.25,2.65,22.85.5,142.25-39.8,273.45-118.15,376-224.45l6.85,13.6c6.35,3.2,12.1,7.1,17.4,11.7Z"/>
        </g>
        <g>
          <g>
            <path class="cls-6" d="M3148.7,1114.64c76.91,60.48,142.14,341.46,120.14,507.54-22,166.08-316.6,171.71-484.79,162.4-168.19-9.31-158.77-389.87-154.19-491.76,7.14-159.11,404.88-267.79,518.84-178.18Z"/>
            <g class="cls-12">
              <path class="cls-14" d="M2784.05,1784.58c168.19,9.31,462.78,3.66,484.81-162.41,2.86-21.75,4.26-45.45,4.3-70.39-47.33,35.47-111.34,1.44-118.11-43.43-41.81-276.96-142.07-385.21-190.92-422.59-151.91,17.71-329.53,101.2-334.24,207.06-4.6,101.88-14.02,482.44,154.17,491.75Z"/>
            </g>
            <path class="cls-14" d="M2880.19,1799.96c-32.67,0-65.24-1.05-96.84-2.8-78.24-4.33-129.92-78.92-153.61-221.68-16.38-98.71-15.82-208.51-12.47-283.23,2.8-62.37,58.39-121.49,156.53-166.47,124.4-57.02,306.07-81.27,382.68-21.04h0c80.29,63.14,147.96,344.52,124.84,519.09-18.62,140.62-211.35,176.13-401.14,176.13ZM3020.24,1094.86c-71.6,0-158.93,18.53-235.93,53.82-87.84,40.26-139.54,93-141.87,144.7-4.95,110.16-9.3,470.23,142.3,478.62,167.39,9.26,451.29,1.91,471.61-151.48,21.35-161.19-43.39-439.29-115.44-495.98h0c-25.44-20.01-68.96-29.69-120.67-29.69Z"/>
            <path class="cls-6" d="M3125.68,1393.62l75.39-28.04c17.04-6.34,35.82,3.66,39.97,21.36,14.29,60.9,35.54,186.93-25.97,211.2-74.54,29.41-98.73-56.35-108.99-173.65-1.18-13.51,6.88-26.14,19.6-30.87Z"/>
            <g class="cls-12">
              <path class="cls-14" d="M3106.24,1424.3c9.98,117.32,33.98,203.16,108.58,173.89,30.65-11.98,40.84-49.27,41.57-91.19-6.43,11.85-15.48,20.94-27.95,25.81-66.79,26.17-93.06-39.89-104.92-138.28-11.39,5.23-18.4,17.13-17.28,29.76Z"/>
            </g>
            <path class="cls-14" d="M3187.5,1614.48c-11.28,0-21.65-2.91-31.01-8.73-33.13-20.6-51.88-76.28-60.75-180.55-1.55-18.15,9.35-35.25,26.5-41.58l75.45-27.87c10.98-4.06,23.19-3.2,33.5,2.36,10.27,5.54,17.68,15.23,20.31,26.58,16.73,72.03,34.71,196.83-32.86,223.31-11.03,4.32-21.43,6.48-31.15,6.48ZM3211.84,1374.26c-2.31,0-4.63.41-6.85,1.23l-75.45,27.87c-8.3,3.07-13.58,11.32-12.83,20.07,5.13,60.21,15.98,142.77,50.9,164.47,11.64,7.23,25.83,7.4,43.38.52,56.35-22.08,29.59-157.88,20.04-198.97-1.29-5.56-4.77-10.11-9.8-12.82-2.91-1.57-6.14-2.37-9.38-2.37ZM3125.89,1393.49h.05-.05Z"/>
            <path class="cls-14" d="M3170.09,1149.52c-36.81,7.95-73.85,17.34-109.31,30.07-3.28,1.23-6.94-.46-8.13-3.75-1.11-3.04.31-6.4,3.13-7.81,17.42-8.6,35.25-16.14,53.24-23.19,18.11-7.05,36.1-13.59,54.63-19.68,6.62-2.17,13.75,1.45,15.92,8.07,2.38,7.1-2.14,14.84-9.48,16.29h0Z"/>
          </g>
          <path class="cls-6" d="M2444.42,1246l3.1-122.26c1.95,42.19.59,83.16-3.1,122.26Z"/>
          <path class="cls-6" d="M2252.52,2089.87s58.75-75,129.92-134.59c46.66-39.09,98.65-71.53,142.92-71.88,0,0,384.26,110.06,444.78-350.96,19.2-146.23,5.8-248.65-27.64-319.17-4.7-9.92-9.79-19.16-15.25-27.84-5.73-9.18-11.91-17.66-18.43-25.52-17.94-21.67-38.58-38.56-61.09-51.51-17.08-9.79-35.23-17.33-54.04-22.97-174.41-52.05-409.02,60.17-409.02,60.17,3.02,19.15,5.47,37.83,7.36,56.02,3.65,34.52,5.42,67.23,5.7,98.09.07,8.9.04,17.61-.13,26.18-1.84,100.97-19.38,180.42-37.07,235.63-19.01,59.39-38.19,90.79-38.19,90.79-236.25,22.4-226.93,223.55-226.93,223.55,0,0-190.34-58.57-146.9,90.12,32.11,110.01,232.28,206.21,304.03,123.88Z"/>
          <g class="cls-12">
            <path class="cls-14" d="M2252.52,2089.87s161.02-205.61,272.84-206.47c0,0,384.26,110.06,444.78-350.96,19.2-146.23,5.8-248.65-27.64-319.17-9.65-20.38-20.97-38.06-33.68-53.36-5.02-6.06-10.22-11.74-15.62-17.05,3.11,5.51,6.09,11.24,8.91,17.2,33.44,70.51,46.84,172.93,27.64,319.17-60.51,461.02-445.94,308.24-445.94,308.24-191.6-3.06-196.02,200.87-258.02,256.18-62,55.31-195.36,15.53-268.3-55.06,50.23,99.89,228.26,177.9,295.05,101.28Z"/>
          </g>
          <path class="cls-14" d="M2400.9,1353.12c10.84,92.15-14.63,184.87-49.81,269.41-6.03,13.9-12.93,28.02-21.12,41.71-30.49,2.51-60.91,8.29-89.08,19.04-81.71,28.95-132.84,106.14-132.9,192,0,0,.47,17.42.47,17.42l-16.75-4.79c-36.4-9.57-100.52-22.51-128.08,8.41-12.76,16.57-9.49,41.15-4.4,60.74,20.08,74.32,105.45,129.58,177.15,146.58,36.84,8.13,80.58,7.63,106.9-22.37,49.14-60.42,103.05-116.29,165.82-163.16,26.66-19.9,57.99-38.14,92.13-40.91,8.08-.4,16.26.08,24.11,2.01,2.32.49,3.8,2.77,3.31,5.09-.37,1.71-1.66,2.9-3.24,3.31-37.16,12.01-68.78,30.47-101.16,51.83-60.13,42.15-110.89,97.02-157.8,153.22-3.28,4.38-7.23,8.44-11.11,12.31-79.25,70.04-224.57-2.31-282.62-71.52-20.57-23.77-36.63-53.97-41.25-85.79-17.86-107.28,94.27-105.67,167.66-83.83,0,0-16.29,12.62-16.29,12.62-.24-8.52.28-15.74,1.09-23.91,13.97-129.82,112.46-202.44,237.23-212.76,0,0-9.56,5.97-9.56,5.97,24.6-43.95,39.48-93.13,50.87-142.08,5.46-24.51,10.62-50.24,14.9-75.01,4.82-25.38,8.5-50.71,15.17-75.93.55-2.34,2.97-3.83,5.31-3.16,1.69.47,2.86,1.91,3.08,3.55h0Z"/>
          <path class="cls-6" d="M2350.52,2261.96c49.01,61.02,159.4,74.91,232.31,9.2,48.19-43.42,67.76-100.78,74.71-146.24,8.1-53.15,8.82-105.27,42.99-139.38,38.97-38.88,149.85,19.61,280.3-118.92,40.7-43.17,79.6-120.75,95.36-222.78,5.1-32.9,7.76-68.32,7.29-105.98-.97-81.35-16.58-173.07-54.03-271.79-16.27-42.82-36.67-86.99-61.76-132.17-11.63-20.99-24.3-42.18-38.04-63.57-18.45-28.73-38.82-57.85-61.3-87.23l-15.39,93.53-5.24,31.76-3.78,22.86-23.56,143.11-36.02,218.72-42.06,255.31-2.91,17.7c-15.17-8.17-30.99-15.03-47.21-20.5-49.4-16.6-102.6-20.27-153.77-8.95-1.09.23-2.14.47-3.22.73-23.85,5.59-47.62,14.46-68.59,28.26-59.78,39.36-89.63,125.19-84.17,189.64,1.51,18.14,5.82,34.57,13.05,47.8,13,23.73,26.83,50,26.83,50-15.66,14.95-127.76,139.19-71.8,208.87Z"/>
          <g class="cls-12">
            <path class="cls-14" d="M2350.52,2261.96c49.01,61.02,159.4,74.91,232.31,9.2,48.19-43.42,67.76-100.78,74.71-146.24,8.1-53.15,8.82-105.27,42.99-139.38,38.97-38.88,149.85,19.61,280.3-118.92,40.7-43.17,79.6-120.75,95.36-222.78.7-4.6,1.38-9.26,1.98-13.98.48-3.69.94-7.41,1.35-11.17.24-2.13.49-4.27.72-6.43.72-7.04,1.3-14.19,1.83-21.44.11-1.78.22-3.59.31-5.39.13-2.08.26-4.11.35-6.13.1-2.27.21-4.52.29-6.77.28-6.84.45-13.77.48-20.75.06-4.61.03-9.24-.02-13.91-1.86-155.1-56.82-347.77-215.12-554.76l-1.43,8.64c147.03,222.73,177.16,424.87,156.56,575.87-85.82,27.74-186.13,10.99-214.8,5.19l1.58-27.14c1.27-21.54-9.23-41.17-25.92-52.57-5.47-3.78-11.61-6.62-18.22-8.39-3.78-1.04-7.72-1.64-11.78-1.88l-275.75-16.06c-32.69-1.92-60.99,23.23-62.87,55.94l-1.64,28.1c-1.88-.24-3.76-.34-5.69-.33-28.88.04-52.25,23.46-52.18,52.33.03,28.67,23.16,51.95,51.79,52.19l-.85,14.48c-1.89,32.68,23.3,60.92,55.95,62.82l75.29,4.37,153.77,8.95,46.72,2.73c1.14.06,2.27.1,3.4.07,31.2.08,57.59-24.44,59.44-55.99l1.29-22.05c86.04,9.99,151.57,4.87,198.05-4-19.35,59.03-46.49,104.99-74.48,134.7-130.45,138.52-241.33,80.04-280.27,118.9-34.2,34.13-34.92,86.24-43.02,139.39-6.95,45.45-26.52,102.82-74.71,146.24-56.99,51.38-136.94,54.1-192.51,23.65,1.88,11.72,6.44,22.78,14.44,32.71Z"/>
          </g>
          <path class="cls-14" d="M2737.39,1769.8c-69.44-27.35-144.06-36.51-215.05-14.95-46.88,13.07-83.77,44.54-104.53,88.35-21.95,45-33.88,107.1-11.36,153.6,5.69,10.74,21.1,39.35,27.01,50.42,0,0,4.4,8.2,4.4,8.2l-6.84,6.78c-37.4,39.84-85.55,103.14-83.11,159.42,1,19.18,12.14,34.78,26.49,46.69,51.14,44.31,134.54,43.62,188.22,3.03,43.35-32.66,69.94-82.82,80.29-136.08,10.48-53.24,7.02-117.8,49.86-159.63,18.68-17.33,46.09-17.79,69.27-20.08,31.51-2.31,63.01-6.24,92.49-17.04,189.71-70.41,234.52-303.11,210.3-483.16-10.99-84.71-36.97-167.21-72.55-245.11-36.12-78.74-86.32-147.98-127.25-224.56-1.13-2.08-.33-4.72,1.78-5.8,1.65-.85,3.61-.51,4.89.7,112.31,109.75,198.35,316.29,218.11,471.52,21.66,170.58-11.04,379.36-166.1,479.65-37.47,25.2-82.01,40.63-126.68,45.73-22.08,2.93-44.46,3.29-63.92,6.74-9.63,1.81-17.92,4.8-23.08,9.78-21.53,21.2-28.29,50.82-32.95,81.21-3.26,21.06-5.14,42.58-9.46,64.96-12.75,66.53-50.79,132.2-112.23,165.37-64.34,34.91-150.6,27.35-204.19-24.13-72.64-68.76,9.67-182.08,62.42-237.42,0,0-2.45,14.98-2.45,14.98-6.01-11.16-21.08-39.36-26.85-50.14-9.78-18.73-13.84-39.88-14.94-60.45-1.79-78.38,35.01-167.18,107.61-204.32,82.46-41.45,189.26-34.12,264.39,18.36,4.05,2.87.59,9.2-3.98,7.39h0Z"/>
          <path class="cls-14" d="M2688.33,2009.95c-.33,0-.66-.02-1-.05-5.19-.55-8.95-5.2-8.4-10.39,8.97-85.07-51.82-155.64-112.1-185.21-55.02-26.99-108.26-23.56-142.43,9.16-3.77,3.6-9.75,3.47-13.35-.29-3.61-3.77-3.48-9.75.29-13.36,39.55-37.86,102.32-42.64,163.82-12.47,68.2,33.46,132.55,109.56,122.57,204.16-.51,4.85-4.61,8.46-9.38,8.46Z"/>
          <path class="cls-14" d="M2428.96,2044.94c36.66,31.32,88.81,64.82,138.48,45.16-5.67,3.33-11.8,5.97-18.23,7.82-47.16,11.39-94.59-11.4-133.56-36.69-12.02-8.97,2.06-26.3,13.31-16.29h0Z"/>
          <path class="cls-14" d="M2344.49,1998.81c-.77,0-1.55-.1-2.32-.29-5.06-1.28-8.12-6.42-6.84-11.48,19.8-78.1,13.71-143.19-18.12-193.46-45.39-71.7-128.92-88.81-129.76-88.97-5.12-1-8.46-5.96-7.46-11.08,1-5.11,5.96-8.45,11.06-7.47,3.74.72,92.11,18.63,141.99,97.21,34.82,54.85,41.75,124.97,20.6,208.41-1.08,4.28-4.93,7.13-9.15,7.13Z"/>
          <g>
            <circle class="cls-6" cx="2393.28" cy="1558.07" r="52.26" transform="translate(-462.16 1515.38) rotate(-32.21)"/>
            <g class="cls-12">
              <path class="cls-14" d="M2341.04,1558.13c.04,28.86,23.44,52.25,52.31,52.22,28.86-.04,52.25-23.49,52.22-52.35,0-7.97-1.81-15.57-5.05-22.33-8.37,17.66-26.37,29.93-47.22,29.96s-38.88-12.2-47.25-29.84c-3.23,6.77-5.01,14.37-5,22.35Z"/>
            </g>
            <path class="cls-14" d="M2393.29,1620.84c-34.58,0-62.73-28.11-62.78-62.69h0c-.02-16.77,6.49-32.54,18.33-44.41,11.84-11.87,27.6-18.42,44.37-18.44h.08c34.58,0,62.72,28.11,62.77,62.69.04,34.61-28.09,62.81-62.7,62.85h-.08ZM2393.29,1516.33h-.05c-11.15.01-21.63,4.37-29.5,12.26-7.88,7.9-12.2,18.38-12.19,29.53h0c.02,23,18.75,41.69,41.74,41.69h.05c23.02-.03,41.72-18.78,41.69-41.8-.03-23-18.75-41.69-41.74-41.69Z"/>
            <path class="cls-6" d="M2447.92,1687.64l275.8,16.06c32.64,1.91,60.93-23.25,62.84-55.93l8.54-146.76c1.67-28.61-17.43-53.84-44.14-60.95-3.78-1.03-7.73-1.65-11.8-1.9l-275.75-16.06c-32.68-1.91-60.97,23.25-62.84,55.93l-6.79,116.24-1.79,30.52c-1.91,32.68,23.29,60.93,55.93,62.84Z"/>
            <g class="cls-12">
              <path class="cls-14" d="M2447.92,1687.64l275.8,16.06c32.64,1.91,60.93-23.25,62.84-55.93l8.54-146.76c1.67-28.61-17.43-53.84-44.14-60.95-16.27,9.49-26.6,15.56-26.6,15.56-20.29,117.03-20.19,204.66-202.28,181.9-62.77-7.85-103.91-28.83-128.31-43.25l-1.79,30.52c-1.91,32.68,23.29,60.93,55.93,62.84Z"/>
            </g>
            <path class="cls-14" d="M2727.22,1716.08c-1.41,0-2.81-.04-4.23-.12l-275.78-16.06c-19.07-1.11-36.61-9.63-49.38-23.98-12.77-14.35-19.19-32.76-18.08-51.83l8.55-146.78c1.11-19.07,9.62-36.6,23.97-49.38,14.36-12.77,32.75-19.19,51.83-18.09l275.77,16.06c19.07,1.11,36.61,9.63,49.38,23.98,12.77,14.35,19.19,32.76,18.08,51.83l-8.55,146.78c-1.11,19.07-9.62,36.6-23.97,49.38-13.29,11.83-30.05,18.21-47.6,18.21ZM2724.42,1691.46c12.59.7,24.63-3.51,34.09-11.92,9.46-8.42,15.06-19.95,15.8-32.47l8.55-146.78c.73-12.53-3.51-24.63-11.92-34.09-8.42-9.46-19.95-15.07-32.48-15.79l-275.77-16.06c-12.58-.74-24.63,3.51-34.09,11.92-9.46,8.42-15.06,19.95-15.8,32.47l-8.55,146.78c-.73,12.53,3.51,24.63,11.92,34.09,8.42,9.46,19.95,15.07,32.48,15.79l275.78,16.06Z"/>
            <path class="cls-6" d="M2436.92,1685.91c3.53.95,7.19,1.53,11.01,1.73l275.8,16.06c23.92,1.38,45.5-11.73,56.06-31.75,3.85-7.27,6.25-15.46,6.74-24.18l3.82-65.2,1.26-21.51,3.5-60.05c1.91-32.68-23.29-60.93-55.93-62.84l-59.59-3.46c27.17,6.78,46.67,32.21,45.01,61.11l-4.59,79.28-3.94,67.53c-1.91,32.64-30.2,57.84-62.84,55.93l-216.28-12.64Z"/>
            <g class="cls-12">
              <path class="cls-14" d="M2436.92,1685.91c3.53.95,7.19,1.53,11.01,1.73l275.8,16.06c32.64,1.91,60.93-23.25,62.8-55.93l5.08-86.71c-7.83,14.92-21.39,33-41.44,33.81-11,.47-21.31-8.03-30.17-19.77l-3.94,67.53c-1.91,32.64-30.2,57.84-62.84,55.93l-216.28-12.64Z"/>
            </g>
            <path class="cls-14" d="M2727.25,1716.08c-1.41,0-2.83-.04-4.25-.12l-275.79-16.07c-4.47-.24-9.01-.94-13.41-2.09l3.82-24.12,216.31,12.62c12.46.73,24.6-3.49,34.06-11.91,9.46-8.42,15.07-19.95,15.8-32.48l8.54-146.79c1.32-22.61-13.71-43.02-35.72-48.53l3.69-24.15,59.57,3.46c19.08,1.12,36.61,9.64,49.38,23.99,12.78,14.36,19.19,32.77,18.07,51.83l-8.54,146.77c-1.1,19.07-9.61,36.6-23.96,49.38-13.29,11.82-30.03,18.21-47.56,18.21ZM2706.76,1690.43l17.68,1.03c12.57.76,24.61-3.5,34.07-11.91,9.46-8.42,15.06-19.95,15.79-32.47h0s8.54-146.79,8.54-146.79c.74-12.53-3.49-24.63-11.91-34.09-8.42-9.46-19.96-15.07-32.49-15.81l-15.78-.92c9.84,13.17,15.18,29.69,14.16,47.07l-8.54,146.78c-1.04,17.95-8.64,34.56-21.52,47.1Z"/>
            <path class="cls-13" d="M2611.49,1564.08c-.28,5.43,5.05,49.66,5.05,49.66,0,0,13.88.73,30.93,1.62,21.3,1.12,39.72-20.03,41.15-47.23,1.43-27.2-14.68-50.16-35.98-51.28-14.37-.75-30.93-1.62-30.93-1.62,0,0-9.75,40.01-10.22,48.86Z"/>
            <g class="cls-9">
              <path class="cls-14" d="M2611.49,1564.08c-.28,5.43,5.05,49.66,5.05,49.66,0,0,13.88.73,30.93,1.62,21.3,1.12,39.72-20.03,41.15-47.23,1.43-27.2-14.68-50.16-35.98-51.28-14.37-.75-30.93-1.62-30.93-1.62,0,0-9.75,40.01-10.22,48.86Z"/>
            </g>
            <path class="cls-14" d="M2649.06,1624.85c-.69,0-1.38-.02-2.08-.06l-38.87-2.04-.95-7.89c-1.63-13.54-5.4-45.64-5.1-51.28h0c.49-9.26,8.81-43.77,10.47-50.6l1.86-7.61,38.75,2.03c13.27.69,25.25,7.75,33.75,19.86,8,11.41,11.97,26.09,11.17,41.35-1.66,31.51-23.43,56.23-49,56.23ZM2624.98,1604.72l22.99,1.21c15.93.84,30.06-16.34,31.22-38.3.58-11.06-2.18-21.54-7.77-29.5-5.09-7.26-11.94-11.46-19.27-11.85l-23.09-1.21c-3.54,15.02-7.86,34.48-8.13,39.47-.06,3.13,1.88,21.63,4.05,40.18Z"/>
            <ellipse class="cls-13" cx="2619.13" cy="1564.48" rx="49.32" ry="38.62" transform="translate(919.55 4098.02) rotate(-87)"/>
            <g class="cls-9">
              <path class="cls-14" d="M2657.69,1566.51c-1.42,27.19-19.84,48.35-41.14,47.23-21.32-1.12-37.43-24.08-35.98-51.3.18-3.67.7-7.25,1.5-10.68,4.5,18.97,17.91,33.03,34.45,33.87,18.39.96,34.67-14.67,39.64-36.53,1.3,5.46,1.84,11.32,1.53,17.4Z"/>
            </g>
            <path class="cls-6" d="M2657.69,1566.51c-.09,1.85-.27,3.67-.55,5.46-3.11-21.54-17.42-38.09-35.41-39.02-19.84-1.02-37.22,17.27-40.59,41.8-.59-3.98-.78-8.08-.57-12.31,1.42-27.19,19.84-48.35,41.14-47.23,21.29,1.15,37.4,24.08,35.98,51.3Z"/>
            <path class="cls-14" d="M2618.2,1623.22c-.72,0-1.43-.02-2.15-.06-13.27-.7-25.25-7.75-33.75-19.87-8-11.41-11.96-26.09-11.16-41.35h0c.8-15.25,6.28-29.44,15.43-39.95,9.72-11.16,22.42-16.93,35.64-16.22,13.27.69,25.25,7.75,33.75,19.87,8,11.4,11.97,26.09,11.17,41.34-.8,15.25-6.28,29.44-15.43,39.95-9.19,10.55-21.02,16.28-33.5,16.28ZM2620.11,1524.62c-6.96,0-13.77,3.45-19.31,9.8-6.39,7.34-10.23,17.47-10.81,28.53h0c-.58,11.06,2.18,21.54,7.76,29.5,5.09,7.26,11.94,11.46,19.27,11.85,7.27.38,14.59-3.08,20.41-9.77,6.4-7.34,10.23-17.47,10.82-28.53.58-11.06-2.18-21.54-7.77-29.5-5.09-7.26-11.94-11.46-19.27-11.85-.37-.02-.74-.03-1.1-.03ZM2580.56,1562.45h.05-.05Z"/>
            <path class="cls-14" d="M2533.72,1700.33c-.1,0-.21,0-.31,0-4.84-.17-8.62-4.22-8.46-9.06l3.19-92.46c.11-2.99-1.29-5.81-3.72-7.55l-29.87-21.3c-7.41-5.29-11.53-13.87-11.04-22.96l6.74-123.23c.26-4.83,4.48-8.58,9.23-8.27,4.83.26,8.54,4.4,8.27,9.23l-6.74,123.23c-.17,3.06,1.22,5.95,3.72,7.73l29.87,21.3c7.24,5.16,11.37,13.54,11.06,22.42l-3.19,92.46c-.17,4.73-4.05,8.46-8.75,8.46Z"/>
            <path class="cls-6" d="M3077.68,1485.94s27.8,19.95,25.97,52.63c-2.11,37.78-30.06,54.26-30.06,54.26,0,0-95.14,59.01-303.59,30.62,0,0-48.82-59.52,15.49-97.01,0,0,189.05,45.56,292.19-40.49Z"/>
            <g class="cls-12">
              <path class="cls-14" d="M3103.69,1537.84s0,0,0,0c-1.79,38.3-30.12,54.99-30.12,54.99,0,0-95.12,59-303.58,30.62,0,0-37.3-45.5-3.74-81.99.02.23.04.47.06.7,2.2,23.84,21.43,42.68,45.24,45.17,189.19,19.8,275.9-33.96,275.9-33.96,0,0,8.36-4.92,16.24-15.54Z"/>
            </g>
            <path class="cls-14" d="M2879.1,1643.48c-29.04,0-61.37-1.79-97.13-6.12-13.38-1.62-25.09-9.65-31.33-21.48-18.43-34.96-12.8-68.12,15.46-90.99,9.18-7.43,21.24-10.38,33.09-8.11,37.45,7.21,166.28,26.63,251.72-26.61h0c10.26-6.39,22.71-8.04,34.16-4.54,11.1,3.39,20.16,11.39,24.87,21.93,4.56,10.2,6.56,20.87,5.96,31.7-2.45,43.84-34.71,63.33-36.08,64.15-2.98,1.85-66.49,40.08-200.72,40.08ZM2791.34,1540.56c-3.61,0-7.07,1.18-9.8,3.4-19.11,15.46-22.2,35.81-9.19,60.48,2.48,4.71,7.18,7.91,12.57,8.56,191.5,23.19,281.36-30.08,282.24-30.62,1.04-.63,22.55-14.12,24.24-44.49.39-6.89-.91-13.73-3.86-20.32-1.85-4.13-5.27-7.13-9.64-8.47-4.67-1.42-9.78-.73-14.01,1.9h0c-93.03,57.97-229.68,37.52-269.35,29.88-1.07-.21-2.14-.31-3.2-.31Z"/>
          </g>
          <g class="cls-9">
            <path class="cls-14" d="M2520.43,1730.77h-.04s0-.26-.02-.73c.07.48.06.73.06.73Z"/>
          </g>
          <path class="cls-14" d="M2099.9,1866.36c12.69,8.16,24.33,16.77,35.76,26.4,11.15,9.53,21.92,19.89,29.9,32-16.04-14.51-35.46-23.65-55.05-31.98-6.49-2.67-13.23-5.29-19.62-7.41-5.55-1.84-8.56-7.84-6.72-13.39,2.05-6.48,10.05-9.31,15.73-5.62h0Z"/>
          <path class="cls-6" d="M2789.84,1086.22l54.1,45.04,53.88,44.84,21.53,17.91,23.15,19.26,46.74,38.89c14.38,4.45,27.75,9.09,40.23,13.92,174.35,67.4,168.56,166.56,168.56,166.56,0,0-16.56,50.06-7.57,74.65,8.9,24.22,42.22,28.37,42.22,28.37,0,0,12.46,79.24,69.4,94.89,38.82,10.64,121.23-34.26,144.62-51.98,57.79-43.72,41.52-204.79,26.8-243.87-79.74-211.76-299.41-260.97-468.42-265.21-17.6-.46-34.6-.42-50.88-.03-8.41.2-16.58.49-24.53.88-29.19,1.38-55.24,3.76-76.7,6.3-29.99,3.49-51.04,7.25-59.29,8.8-2.52.5-3.84.78-3.84.78Z"/>
          <g class="cls-12">
            <path class="cls-14" d="M3232.67,1535.66s12.46,79.24,69.4,94.89c38.82,10.64,121.23-34.26,144.62-51.98,15.52-11.76,25.72-31.99,32.01-56.05-.8.71-1.62,1.37-2.49,2.02-23.4,17.72-134.98,78.51-173.8,67.87-28.58-7.86-40.2-26.16-44.68-42.43-4.44-16.13-18.49-27.53-35.2-28.2-12.53-.5-24.98-2.97-30.08-10.05,11.05,20.3,40.22,23.94,40.22,23.94Z"/>
          </g>
          <g class="cls-12">
            <path class="cls-14" d="M2989.23,1252.16h0c215.42,66.63,208.79,180.48,208.79,180.48,0,0-16.56,50.06-7.57,74.65-13.25-53.21,24.49-58.23,39.16-98.68,12.06-33.24-25.44-192.04-231.62-182.24-13.35.63-19.03,17.25-8.76,25.8Z"/>
          </g>
          <g class="cls-9">
            <path class="cls-14" d="M3190.45,1507.29c.42,1.71,1.07,3.11,1.94,4.32-.73-1.36-1.37-2.8-1.94-4.32Z"/>
          </g>
          <path class="cls-14" d="M2788.97,1082.11c95.72-34.82,222.21-29.46,322.39-16.43,128.37,18.22,260.79,73.81,333.53,186.15,3.3,5.15,8.81,12.62,11.52,18.07,5.78,10.86,15.05,26.72,19.37,38.16.73,1.33,8.97,21.23,9.46,22.12,4.68,13.05,7.21,26.81,9.34,40.34,7.57,56.96,9.77,114.39-8.3,170.28-5.14,13.99-11.91,28.2-23.42,40.1-10.49,10.85-24.11,18.13-36.88,25.69-24.91,13.78-50.63,25.84-79.13,33.51-33.88,9.86-63.51,3.84-88.2-21.76-21.36-22.74-32.4-50.72-38.41-80.71,0,0,10.88,10.54,10.88,10.54-3.83-.56-6.5-1.21-9.64-2.02-22.89-5.47-44.9-23.86-45.86-48.77-1.63-24.61,3.68-45.78,10.48-68.7,0,0-.62,3.23-.62,3.23-.38-15.76-6.64-31.33-13.88-45.2-15.56-27.39-38.94-49.36-65.43-67.06-24.84-15.54-51.95-28.43-78.1-41.53-13.58-7.17-27.22-13.04-40.29-22.09-3.56-2.26-1.57-8.34,2.7-7.87,47.18,3.37,91.69,23.44,130.2,50.13,36.55,26.07,70.94,59.9,84.79,103.69,3.23,10.99,5.51,20.87,5.12,32.78-3.24,10.03-6.02,20.87-7.89,31.44-2.08,13.58-4.42,27.65.82,39.44,7.69,13.23,25.71,17.27,39.97,18.88,2.34,15.17,6.54,31.23,13.08,45.38,15.76,35.4,43.42,59.07,84,45.8,33.95-9.46,68.46-26.37,97.97-46.75,30.71-25.52,34.18-75.62,36.16-114.24.23-38.93-1.47-81.27-14.02-117.95,0,0-7.91-18.43-7.91-18.43-4.01-10.66-12.69-25.53-18.1-35.69-2.51-5.05-7.65-12.04-10.75-16.84-66.94-103.2-188.06-155.37-306.16-173.51-53.75-8.88-108.46-11.08-162.87-9.19-54.61,1.14-108.77,6.57-164.2,7.24-2.37.08-4.38-1.83-4.4-4.21-.02-1.81,1.1-3.38,2.69-4.01h0Z"/>
          <g>
            <path class="cls-6" d="M2291.26,1218.41c560.96,296.38,1000.27-467.79,493.9-809.7-567.03-317.02-1020.39,473.32-493.9,809.7Z"/>
            <path class="cls-6" d="M2291.26,1218.41c560.96,296.38,1000.27-467.79,493.9-809.7-567.03-317.02-1020.39,473.32-493.9,809.7Z"/>
            <g class="cls-12">
              <path class="cls-14" d="M2346.4,1276.32c17.22,8.79,34.32,16.57,51.31,23.4,28.22,11.41,56.09,20.18,83.42,26.49,128,29.52,244.89,5.39,339.25-51.84,36.59-22.18,69.8-49.37,98.97-80.36,2.66-2.83,5.31-5.69,7.9-8.58,14.59-16.27,28.1-33.49,40.46-51.52,14.01-20.53,26.52-42.08,37.37-64.42-17.6-.46-34.6-.42-50.88-.03-8.41.2-16.58.49-24.53.88-18.45-28.73-38.82-57.85-61.3-87.23l-15.39,93.53c-29.99,3.49-51.04,7.25-59.29,8.8-174.41-52.05-409.02,60.17-409.02,60.17,3.02,19.15,5.47,37.83,7.36,56.02l-3.3,1.24s-9.92,31.24-42.31,73.44Z"/>
            </g>
            <path class="cls-6" d="M2291.26,1218.41c560.96,296.38,1000.27-467.79,493.9-809.7-567.03-317.02-1020.39,473.32-493.9,809.7Z"/>
            <path class="cls-14" d="M2543.41,1294.3c-84.15,0-170.9-22.81-256.34-67.95l-.64-.37c-124.87-79.78-204.02-190.46-228.89-320.07-22.2-115.65.57-237.82,64.11-344.02,63.4-105.97,159.88-182.91,271.66-216.66,126.04-38.05,263.07-18.82,396.24,55.64l.64.4c120.27,81.21,196.13,191.69,219.38,319.49,20.79,114.31-2.16,234.65-64.63,338.85-62.31,103.96-157.18,180.08-267.14,214.35-43.59,13.58-88.6,20.34-134.38,20.34ZM2295.79,1210.64c282.17,148.9,521.59,26.83,633.74-160.27,109.57-182.79,109.6-459.11-149.08-634.01-283.66-158.4-532.34-30.86-643.39,154.75-112.14,187.43-110.27,467.45,158.74,639.53Z"/>
            <g class="cls-12">
              <path class="cls-14" d="M2291.25,1218.4c480.06,264.43,936.76-310,601.94-716.66,61.13,160.54,14.82,196.71-16.44,316.51-86.44,383.27-560.78,429.63-784.8,166.51,39.15,99.35,110.3,180.79,199.29,233.64Z"/>
            </g>
            <path class="cls-4" d="M2543.4,1297.92c-84.72,0-172.06-22.95-258.02-68.37l-.9-.52c-125.73-80.33-205.43-191.83-230.5-322.43-22.36-116.52.57-239.6,64.56-346.56,63.87-106.74,161.07-184.26,273.72-218.27,127.02-38.34,265-19,399.05,55.95l.9.55c121.1,81.77,197.49,193.06,220.91,321.84,20.94,115.17-2.17,236.4-65.08,341.36-62.77,104.72-158.36,181.41-269.17,215.94-43.95,13.7-89.33,20.51-135.47,20.51ZM2297.61,1207.52c280.04,147.68,517.57,26.6,628.82-159,108.71-181.35,108.76-455.49-147.88-629.07-281.51-157.09-528.23-30.59-638.39,153.53-111.25,185.94-109.38,463.75,157.45,634.54Z"/>
            <path class="cls-14" d="M2543.4,1297.92c-84.72,0-172.06-22.95-258.02-68.37l-.9-.52c-125.73-80.33-205.43-191.83-230.5-322.43-22.36-116.52.57-239.6,64.56-346.56,63.87-106.74,161.07-184.26,273.72-218.27,127.02-38.34,265-19,399.05,55.95l.9.55c121.1,81.77,197.49,193.06,220.91,321.84,20.94,115.17-2.17,236.4-65.08,341.36-62.77,104.72-158.36,181.41-269.17,215.94-43.95,13.7-89.33,20.51-135.47,20.51ZM2297.61,1207.52c280.04,147.68,517.57,26.6,628.82-159,108.71-181.35,108.76-455.49-147.88-629.07-281.51-157.09-528.23-30.59-638.39,153.53-111.25,185.94-109.38,463.75,157.45,634.54Z"/>
            <path class="cls-14" d="M2402.84,1266.56c556.54,23.38,651.69-662.33,177.68-777.07-538.74-96.27-714.95,597.03-177.68,777.07Z"/>
            <path class="cls-1" d="M2134.19,1036.14c235.56,444.95,890.26,142.4,741.66-299.74-75.63,347.75-507.78,450.93-741.66,299.74Z"/>
            <path class="cls-14" d="M2530.59,1298.69c-80.32,0-163.71-23.37-245.5-69.3l-.08-.05c-187.68-107.27-310.99-379.82-195.42-614.56l1.1-1.83c75.25-103.79,196.77-173.08,333.39-190.1,136.13-16.95,270.22,20.04,367.85,101.53,92.49,81.32,146,185.13,155,300.42,8.15,104.51-21.3,209.97-82.93,296.94-59.72,84.28-145.16,143.26-240.58,166.09-30.28,7.24-61.32,10.84-92.84,10.84ZM2297.47,1207.45c250.79,140.8,450.85,34,545.98-100.26,109.34-154.3,121.12-397.47-67.9-563.67-92.05-76.83-219.12-111.76-348.35-95.66-129.34,16.12-244.26,81.34-315.48,179.02-108.49,221.8,8.28,479.11,185.75,580.57Z"/>
            <path class="cls-6" d="M3053.22,642.77c77.8,209.74-125.86,305.37-220.32,112.62-89.61-216.84,128.09-319.08,220.32-112.62Z"/>
            <g class="cls-12">
              <path class="cls-14" d="M3005.85,851.7c-60.84,29.11-143.25-19.46-177.37-106.68,83.87,65.05,96.48-124.98,80.68-168.8,172.65-44.76,209.58,224.41,96.69,275.48Z"/>
            </g>
            <path class="cls-14" d="M2965.03,872.43c-48.99,0-104.45-31.93-143.45-111.49l-.33-.73c-48.53-117.43-10.06-206.33,53.03-233.45,56.92-24.48,140.8-.21,190.43,110.88l.31.76c44.16,119.04,1.49,200.2-56.84,225.24-13.3,5.71-27.92,8.8-43.16,8.8ZM2844.38,750.21c43.84,89.16,108.86,109.6,153.87,90.27,47.67-20.46,81.5-89.54,43.3-192.94-42.68-95.2-111.41-117.38-157.32-97.64-51.68,22.22-81.92,98.14-39.85,200.31Z"/>
            <path class="cls-6" d="M3066.77,649.41c62.87,170.04-88.5,244.26-164.92,88.37-74.26-177.35,90.33-257.82,164.92-88.37Z"/>
            <path class="cls-14" d="M3005.85,835.75c-38.44,0-82.99-26.51-115.31-92.43l-.31-.68c-41.13-98.24-12.29-171.27,37.47-192.63,44.17-18.98,110.16,2.45,150.61,94.33l.29.71c36.54,98.83,4.21,164.83-41.29,184.33-9.67,4.15-20.3,6.37-31.45,6.37ZM2913.33,732.57c34.39,69.9,82.06,87.37,114.04,73.65,34.85-14.94,58.36-68.89,27.72-152.09-33.54-75.89-84.37-95.19-117.46-80.98-38.3,16.45-58.91,76.47-24.31,159.41Z"/>
            <g class="cls-11">
              <path class="cls-6" d="M2758.65,701.59c21.25,91.75-82.66,117.52-114.4,41.3-34.6-98.39,87.38-130.73,114.4-41.3Z"/>
            </g>
            <g class="cls-11">
              <path class="cls-6" d="M2778.98,852.81c6.1,35.56-39.13,47.7-49.33,9.68-6.1-35.56,39.13-47.7,49.33-9.68Z"/>
            </g>
            <g class="cls-11">
              <path class="cls-6" d="M2215.84,1045.31c-209.85-260.69,67.73-465.14,192.42-454.67-183.97,120.22-202.56,285.77-192.42,454.67Z"/>
            </g>
            <g class="cls-12">
              <path class="cls-14" d="M2913.79,777.64c-15.17-20.5-24.77-45.23-28.72-70.55,87.02,90.18,167.33-15.97,149.59-105.64,110.92,143.31-7.24,305.28-120.88,176.19Z"/>
            </g>
          </g>
          <path class="cls-14" d="M3114.2,1320.01c-4.98,0-9.39-3.54-10.33-8.61-10.76-58.27-1.39-104.96,27.87-138.75,51.14-59.07,143.64-56.18,147.55-56.02,5.8.22,10.32,5.11,10.1,10.92-.23,5.79-5.04,10.32-10.91,10.1h0c-.81-.03-86.47-2.58-130.91,48.85-24.81,28.71-32.55,69.45-23.02,121.08,1.05,5.71-2.72,11.2-8.43,12.25-.64.12-1.29.18-1.92.18Z"/>
          <path class="cls-5" d="M2221.19,2112.26c3.84-8.94,3.67-20.68-3.32-36.17-33.66-74.69-217.19-210.08-275.68-144.09.54,9.9,2.53,21.17,6.29,33.99,28.21,96.66,186.13,182.63,272.7,146.26Z"/>
          <g class="cls-9">
            <path class="cls-14" d="M2028.83,2067.65c60.26,43.47,139.6,66.77,192.36,44.6,3.84-8.94,3.67-20.68-3.32-36.17-15.35-34.08-61.91-80.79-113.58-115.23,22.2,24.81,67.63,90.66,41.3,116.2-26.32,25.54-79.81-1.23-116.77-9.41Z"/>
          </g>
          <path class="cls-14" d="M2174.65,2133.39c-31.56,0-67.21-8.81-103.41-26.06-67.79-32.29-119.45-85.09-134.83-137.81-3.89-13.24-6.17-25.64-6.78-36.83l-.28-5.17,3.43-3.87c11.14-12.57,32.58-26.33,71.29-20.43,81.28,12.36,197.72,106.47,225.3,167.7,7.92,17.56,9.07,33.15,3.4,46.31l-2.01,4.67-4.69,1.97c-15.17,6.37-32.57,9.52-51.42,9.52ZM2221.19,2112.25h.05-.05ZM1955.23,1936.81c.86,7.84,2.65,16.44,5.35,25.63,13.24,45.35,60.92,93.29,121.49,122.14,47.94,22.84,95.5,29.43,128.81,18.11.83-5.79-.67-12.97-4.49-21.43-24.63-54.68-133.09-142.04-206.12-153.14-19.68-2.99-34.78-.07-45.04,8.69Z"/>
          <path class="cls-14" d="M1955.87,1981.25c-2.64,0-5.17-.19-7.54-.59-5.44-.93-9.11-6.09-8.18-11.54.92-5.44,6.07-9.11,11.54-8.18,20.84,3.59,70.2-21.04,96.32-37.39,4.69-2.93,10.85-1.51,13.78,3.17,2.93,4.68,1.51,10.85-3.17,13.78-7.06,4.42-66.19,40.75-102.75,40.75Z"/>
          <path class="cls-14" d="M1988.3,2027.3c-4.63,0-9.33-.24-14.1-.75-5.49-.59-9.47-5.51-8.88-11.01.59-5.49,5.52-9.47,11-8.88,67.21,7.17,123.3-50.11,123.85-50.69,3.84-3.97,10.17-4.09,14.14-.27,3.98,3.83,4.11,10.15.28,14.13-2.39,2.49-56.05,57.47-126.29,57.47Z"/>
          <path class="cls-14" d="M2022.06,2072.61c-4.97,0-9.28-3.7-9.91-8.77-.68-5.48,3.21-10.48,8.69-11.16,98.3-12.22,121.53-59.44,121.75-59.91,2.34-5,8.31-7.15,13.3-4.8,5,2.35,7.15,8.3,4.8,13.3-1.1,2.35-28.26,57.7-137.39,71.27-.42.05-.83.08-1.25.08Z"/>
          <path class="cls-14" d="M2098.2,2115.2c-5.07,0-9.41-3.84-9.94-8.99-.56-5.49,3.45-10.4,8.94-10.96,64.48-6.54,89.39-54.68,90.42-56.73,2.48-4.92,8.49-6.93,13.4-4.47,4.93,2.46,6.95,8.43,4.51,13.36-1.21,2.45-30.51,60.04-106.31,67.73-.34.03-.68.05-1.02.05Z"/>
        </g>
      </g>
      <path class="cls-6" d="M1941.55,1396.32c-38.33,19.17-64.91,55.97-93.26,87.87-15.52,17.47-8.86,45.21,13.04,53.35,35.29,13.12,68.6-2.12,100.22-41.22"/>
      <path class="cls-6" d="M1971.55,1696.32c-57.3,12.2-111.85,15.35-162,4.55-12.5-2.7-22-13.05-23.8-25.7-.5-3.55-.7-6.95-.6-10.15.95-54.85,79.85-63.75,143.25-25.45,8.05,4.8,15.8,10.4,23.15,16.75l20,40Z"/>
      <path class="cls-14" d="M1946.85,1406.92c-32.89,17.78-56.06,48.1-80.54,76.02-7.74,9.3-14.26,13.61-13.93,24.56.06,15.45,15.97,21.5,29.05,22.81,17.02,1.79,32.14-4.79,46.79-14.42,10.03-6.5,19.56-14.52,29.65-22.64,2.11-1.7,5.2-1.37,6.9.74,1.26,1.56,1.4,3.66.53,5.34-6.19,11.96-14.67,22.76-25.09,32.1-31.31,31.87-107.95,32.8-112.72-22.62-1.15-12.81,4.49-26.19,13.27-35.3,0,0,6.24-7.24,6.24-7.24,25.78-30.34,52.21-62.88,89.26-80.57,13.99-6.23,23.99,13.75,10.6,21.2h0Z"/>
      <path class="cls-14" d="M1948.47,1659.87c-28.11-15.93-58.91-29.66-91.21-31.71-27.48-1.99-61.78,8.19-59.23,40.3.42,2.39.42,6.5,1.55,8.68,2.27,6.09,8.01,10.52,14.42,11.35,34.48,7.18,70.09,7.15,105.17,3.69,16.68-1.75,33.32-4.38,49.95-7.47,15.02-2.47,19.7,19.32,4.89,23.19-54.44,12.77-111.79,17.51-166.97,5.69-33.76-6.73-42.92-47.58-28.03-75.36,14.5-28.47,81.86-83.21,109.63-80.33,18.67,1.66,50.16,18.45,66.58,26.59,16.39,8.09-11.91,54.23-.6,68.26,3.32,4.06-1.72,9.82-6.16,7.1h0Z"/>
      <g class="cls-12">
        <path class="cls-14" d="M1971.55,1696.32c-57.3,12.2-111.85,15.35-162,4.55-12.5-2.7-22-13.05-23.8-25.7-.5-3.55-.7-6.95-.6-10.15,2.55-5.9,5.4-11.75,8.35-17.45,1.95,20.35,26.6,29.05,46.85,31.75,25.9,3.45,54.65,4.05,75.5-11.75,4.7-3.55,9-8.2,10.35-13.9,1.35-5.75-1.2-12.7-6.7-14.75,2.95.8,5.95,1,8.9.65,8.05,4.8,15.8,10.4,23.15,16.75l20,40Z"/>
      </g>
    </g>
    <g>
      <path class="cls-6" d="M1093.03,1886.91c-.8,38.75-2.25,76.5-4.75,112.45-1.8,26.2-4.2,51.45-7.3,75.4-8.65,66.2-38.6,127.85-85.65,175.2-40.5,40.8-86.25,73.15-137.3,96.95,2.25,42.15,2.1,82.8-11.1,115.1-2.8,6.8-6.5,12.9-11,18.25-19.45,23.4-52.85,32.5-82.45,20.65-17.95-7.2-38-19.15-55.45-39-44.35-50.45-36.3-111.35-35-120l155-440,275-15Z"/>
      <path class="cls-14" d="M780.46,2517.99c-10.47,0-21.11-1.96-31.41-6.09-23.43-9.4-43.58-23.59-59.92-42.17-46.52-52.93-39.67-117.22-37.82-129.58.11-.74.29-1.47.54-2.19l155-440c1.59-4.52,5.75-7.63,10.53-7.9l275-15c3.26-.19,6.51,1.02,8.88,3.32,2.37,2.3,3.68,5.47,3.61,8.77-1.67,78.27-5.53,138.37-12.14,189.13-8.95,68.61-40.56,133.26-89.01,182.03-39.51,39.77-84.38,72-133.47,95.89,1.78,39.32,1.01,79.56-12.38,112.3-13.1,32.03-44.39,51.47-77.42,51.48ZM674.6,2344.74c-1.73,12.77-6.07,65.65,32.33,109.34,13.86,15.77,31,27.82,50.94,35.82,30.71,12.32,65.73-2.19,78.06-32.36,12.52-30.62,12.33-70.97,10.26-110.01-.25-4.83,2.45-9.33,6.83-11.37,49.38-23.02,94.42-54.83,133.89-94.55,44.81-45.11,74.05-104.91,82.32-168.39,6.14-47.1,9.87-102.59,11.66-173.78l-254.31,13.87-151.98,431.43Z"/>
      <path class="cls-14" d="M858.91,2358.73c-34.85,1.72-66.98-20.61-85.14-48.38-3.88-5.47,3.95-11.83,8.49-6.9,19.32,21.56,45.96,36.82,74.89,31.64,16.77-1.98,18.69,23.09,1.76,23.64h0Z"/>
      <path class="cls-14" d="M993.07,2238.55c-54.25,0-112.86-19.71-155.25-53.26-33.3-26.34-52.86-58.19-56.57-92.1-.71-6.51,3.99-12.36,10.49-13.07,6.53-.73,12.36,3.98,13.07,10.49,3.79,34.69,28.04,60.53,47.71,76.09,43.78,34.65,109.43,53.43,163.32,46.78,6.52-.81,12.42,3.81,13.22,10.31.8,6.5-3.81,12.41-10.31,13.22-8.39,1.04-16.98,1.55-25.68,1.55Z"/>
      <g class="cls-12">
        <path class="cls-14" d="M1093.03,1886.91c-.8,38.75-2.25,76.5-4.75,112.45-16.3-6.2-35.15-6.7-52.2-2.2-27.15,7.15-50.2,25.05-70.1,44.85-50.1,49.8-84.95,114.05-139.1,159.45-24.15,20.2-54.55,41.5-54.45,73,.05,16.8,9.6,32.45,22.15,43.65,12.5,11.2,27.85,18.65,43,25.95-21,3.3-35-22.45-55.45-28.1-15.1-4.15-31.25,3.7-42.25,14.9-23.85,24.25-28.5,64.15-13.6,94.7,14.85,30.6,47.05,51.1,80.85,55,9.6,1.1,19.25.95,28.8-.3-19.45,23.4-52.85,32.5-82.45,20.65-17.95-7.2-38-19.15-55.45-39-44.35-50.45-36.3-111.35-35-120l155-440,275-15Z"/>
      </g>
    </g>
    <g>
      <path class="cls-6" d="M914.08,2032.26c-34.2,7.7-72.4,11.05-114.8,9.7-.4,0-.85-.05-1.25-.05-20,170-25,245-165,345,12.8,79.85-.95,143.35-41.25,169.65-22.75,15-54,18-93.75,5.35-110-35-158.2-222.9-105-315l91.95-144.45c8.65-13.6,12.9-29.55,12.3-45.65-5.1-141.6-25.15-276.5-8.2-391.95.1-.6.2-1.25.3-1.85,4.75-31.7,12.3-61.95,23.8-90.45,10.05-24.95,23.1-48.55,39.85-70.65l200-280,370,225,10,80c42.6,268.4-20.05,460.55-218.95,505.35Z"/>
      <path class="cls-14" d="M1135.98,1526.44c28.61,115.73,28.51,253.71-22,364.17-41.92,89.43-126.48,144.7-223.01,158.11-31,4.85-62.3,6.13-93.35,5.02l12.18-10.46c-8.54,66.85-12.9,134.66-37.21,198.86-24.41,65.28-77.51,114.95-132.67,154.39,0,0,4.81-11.52,4.81-11.52,15.69,87-2.37,209.88-118.66,195.4-131-15.56-189.13-190.38-158.28-303.25,3.89-14.03,10.04-28.62,18-40.98,2.33-3.71,63.24-99.35,67.36-105.86,5.11-8.16,17.47-27.36,22.34-35.14,8.97-14.18,10.99-30.12,9.59-46.81,0,0-.59-13.83-.59-13.83-4.89-167.88-49.4-376.08,48.35-524.68,51.13-72.04,158.41-221.67,210.54-294.86,3.62-5.08,10.55-6.41,15.8-3.24l370,225c13.08,8.62,1.26,27.97-12.31,20.25,0,0-370-225-370-225l15.8-3.24-129.53,181.33c-18.1,25.61-71.98,99.47-87.77,124.19-49.53,82.79-53.32,182.6-50.35,276.96,2.71,78.22,10.67,157.09,13.75,236.16,1.21,14.92-.05,31.65-5.94,45.88-3.28,8.61-9.68,18.46-14.7,26.19,0,0-14.92,23.45-14.92,23.45-9.51,15.76-65.95,101.96-73.56,116.76-11.35,23.44-15.92,49.65-16.38,75.91-.94,81.71,36.83,188.33,120.65,215.64,54.48,17.43,100.22,1.63,115.49-56.97,8.94-33.38,7.41-70.09,1.91-105.54-.71-4.58,1.31-8.97,4.81-11.52,138.52-97.34,141.58-180.35,160.11-336.73.69-6.19,6.07-10.72,12.18-10.47,29.82.72,59.62-.57,88.82-5.1,209.41-30.3,260.34-221.65,247.93-406.75-1.62-30.15-4.05-60.26-5.1-90.84-.08-1.67,1.23-3.09,2.9-3.15,1.42-.05,2.64.9,3,2.21h0Z"/>
      <path class="cls-14" d="M846.42,2053.32c-44.04,8.46-99.59-4.3-125.42-43.59-2.74-3.14.2-7.68,4.05-5.64,18.13,11.3,37.85,19.57,58.19,23.82,20.34,4.31,41.17,4.64,61.48,1.77,16.57-1.42,18.27,22.12,1.69,23.64h0Z"/>
      <path class="cls-14" d="M634.7,2398.64c-26.26,1.65-51.84-5.48-72.7-20.76-4.42-3.58-24.38-19.28-16.32-24.57,1.95-1.29,4.53-.87,6,.85,9.77,10.57,23.58,17.15,37.56,20.56,14.07,3.39,28.7,3.53,42.12.45,6.4-1.47,12.78,2.53,14.25,8.93,1.7,7.08-3.64,14.18-10.9,14.53h0Z"/>
      <path class="cls-14" d="M710.17,2203.48c-80.27,0-173.82-36.21-227.2-109.49-3.85-5.29-2.69-12.7,2.6-16.56,5.29-3.85,12.71-2.69,16.56,2.6,63.5,87.19,194.41,117.26,272.2,89.72,6.15-2.18,12.93,1.04,15.13,7.22,2.18,6.17-1.04,12.94-7.22,15.13-21.41,7.58-46.04,11.39-72.07,11.39Z"/>
      <g class="cls-12">
        <path class="cls-14" d="M937.13,2022.51c-7.5,3.7-15.2,6.95-23.05,9.75-36.55,13.15-76.55,16.5-114.8,9.7-9.6-1.7-19.1-4.05-28.4-7.05-40.7-13.1-84.65-38.05-123.1-19.35-34.4,16.8-44.75,59.55-58.3,95.35-11.65,30.8-28.3,59.7-49.2,85.2-25.1,30.63-36.74,38.8-40.1,61.1-4.2,27.85,10.74,51.8,20.35,67.2,18.75,30.04,44.14,46.62,60,55-17.29-3.26-40.87-9.92-65-25-27.29-17.05-37.67-33.85-50.55-30.45-18.23,4.81-23.37,44.93-23.3,56.7.25,44.9,7.75,92.25,36.05,127.1,27.05,33.35,71.2,51,114.05,48.8-22.75,15-54,18-93.75,5.35-110-35-158.2-222.9-105-315l91.95-144.45c8.65-13.6,12.9-29.55,12.3-45.65-5.1-141.6-25.15-276.5-8.2-391.95,71.4,50.25,160.15,75.6,247.35,69.85,11.9-.8,25.3-1.7,34.2,6.25,5.4,4.75,8.05,11.95,9,19.1,3.1,23.6-12.55,48.3-35.2,55.55l-13.4-1.9c-29.15-11.85-64.85,7.55-76.6,36.75-11.75,29.2-2.85,63.8,16.4,88.7s47.45,41.4,76.4,53.75c59.5,25.45,125.45,35.7,189.9,29.6Z"/>
      </g>
    </g>
    <g class="cls-12">
      <path class="cls-14" d="M784.13,1614.21c-17.05,26.05-29.2,55.35-35.65,85.8-83.9,6.7-169.2-4.8-248.35-33.45-3.55-1.3-7.1-2.6-10.75-3.55,4.75-31.7,12.3-61.95,23.8-90.45,52.25-32.65,102.4-68.55,142.4-115.05,7.05-8.2,13.95-16.85,23.2-22.4,9.25-5.55,21.7-7.35,30.65-1.3,7.1,4.8,10.6,13.45,11.9,21.95,3.65,24.1-7.5,47.65-15.7,70.65-8.25,23-13.05,50.6,1.4,70.3,16.5,22.5,49.85,23.6,77.1,17.5Z"/>
    </g>
    <g>
      <circle class="cls-6" cx="1114.37" cy="1790.43" r="49.7" transform="translate(-498.12 431.26) rotate(-17.97)"/>
      <g class="cls-12">
        <path class="cls-14" d="M1163.08,1800.26c-5.43,26.91-31.64,44.34-58.54,38.91s-44.33-31.68-38.9-58.58c1.5-7.43,4.6-14.18,8.89-19.88,4.5,18.03,18.99,32.85,38.43,36.77s38.54-4.1,49.65-18.99c1.75,6.92,1.98,14.34.48,21.77Z"/>
      </g>
      <path class="cls-14" d="M1114.49,1850.09c-3.96,0-7.95-.4-11.93-1.2-15.61-3.15-29.06-12.2-37.88-25.47-8.81-13.27-11.93-29.18-8.78-44.79,6.51-32.24,38-53.16,70.26-46.66,15.62,3.15,29.07,12.2,37.88,25.47,8.81,13.27,11.92,29.18,8.77,44.79h0c-3.15,15.62-12.2,29.07-25.47,37.88-9.89,6.57-21.25,9.97-32.87,9.97ZM1114.36,1750.66c-18.53,0-35.16,13.05-38.96,31.9-2.1,10.41-.03,21.02,5.85,29.87,5.87,8.85,14.84,14.88,25.26,16.98,10.42,2.11,21.02.03,29.87-5.85,8.85-5.88,14.88-14.85,16.98-25.26h0c2.1-10.41.03-21.02-5.85-29.87-5.87-8.85-14.84-14.88-25.26-16.98-2.64-.53-5.28-.79-7.88-.79Z"/>
      <path class="cls-6" d="M1039.18,1901.04l-260.19-36.62c-30.8-4.32-52.47-33.08-48.14-63.91l19.49-138.46c3.8-26.99,26.32-46.94,52.56-48.58,3.72-.26,7.51-.09,11.35.44l260.15,36.61c30.84,4.33,52.51,33.08,48.14,63.91l-15.41,109.67-4.04,28.8c-4.33,30.84-33.12,52.46-63.91,48.14Z"/>
      <g class="cls-12">
        <path class="cls-14" d="M1039.18,1901.04l-260.19-36.62c-30.8-4.32-52.47-33.08-48.14-63.91l19.49-138.46c3.8-26.99,26.32-46.94,52.56-48.58,13.39,11.89,21.89,19.49,21.89,19.49-2.97,112.92,20.88,172.8,158.57,194.47,59.44,9.34,98.32,5.55,123.77-3.34l-4.04,28.8c-4.33,30.84-33.12,52.46-63.91,48.14Z"/>
      </g>
      <path class="cls-14" d="M1047.11,1911.54c-3.08,0-6.19-.21-9.32-.65l-260.17-36.61c-17.53-2.47-33.09-11.66-43.8-25.88-10.72-14.23-15.26-31.72-12.79-49.25l19.48-138.48c5.11-36.32,38.79-61.69,75.14-56.6l260.17,36.61c17.53,2.47,33.09,11.66,43.8,25.88,10.72,14.23,15.26,31.72,12.79,49.25l-19.48,138.48c-4.67,33.19-33.22,57.25-65.82,57.25ZM806.35,1623.28c-22.86,0-42.88,16.87-46.16,40.15l-19.48,138.48c-1.73,12.28,1.46,24.54,8.98,34.52,7.52,9.99,18.42,16.44,30.7,18.16h0l260.17,36.61c25.51,3.59,49.1-14.22,52.69-39.69l19.48-138.48c1.73-12.28-1.46-24.54-8.99-34.52-7.52-9.99-18.42-16.44-30.7-18.16l-260.17-36.61c-2.19-.31-4.38-.46-6.53-.46Z"/>
      <path class="cls-6" d="M1049.77,1901.48c-3.47.23-6.99.08-10.59-.45l-260.19-36.62c-22.57-3.19-40.23-19.45-46.34-40.1-2.23-7.5-2.94-15.58-1.76-23.81l8.63-61.52,2.85-20.3,7.97-56.65c4.33-30.83,33.12-52.46,63.91-48.14l56.22,7.93c-26.6,1.24-49.55,21.3-53.4,48.57l-10.55,74.79-8.95,63.71c-4.32,30.8,17.34,59.59,48.14,63.91l204.05,28.67Z"/>
      <g class="cls-12">
        <path class="cls-14" d="M1049.77,1901.48c-3.47.23-6.99.08-10.59-.45l-260.19-36.62c-30.8-4.32-52.47-33.08-48.1-63.9l11.48-81.81c4.51,15.38,13.77,34.77,32.32,39.28,10.17,2.5,21.38-3.5,31.83-12.79l-8.95,63.71c-4.32,30.8,17.34,59.59,48.14,63.91l204.05,28.67Z"/>
      </g>
      <path class="cls-14" d="M1046.77,1911.52c-3.02,0-6.04-.22-9.02-.65l-260.14-36.6c-17.52-2.45-33.07-11.64-43.79-25.87-10.72-14.23-15.26-31.73-12.78-49.26l19.49-138.47c2.46-17.53,11.65-33.09,25.87-43.81,14.22-10.71,31.73-15.27,49.25-12.8l56.21,7.92-.92,19.76c-22.39,1.06-40.9,17.91-44.02,40.07l-19.48,138.47c-1.74,12.28,1.45,24.54,8.97,34.53,7.52,9.99,18.42,16.44,30.68,18.16l204.07,28.7-.81,19.76c-1.19.07-2.39.1-3.58.1ZM806.38,1623.28c-10.04,0-19.81,3.26-28.03,9.45-9.99,7.52-16.44,18.42-18.15,30.69l-19.49,138.49c-1.73,12.27,1.46,24.53,8.98,34.52,7.52,9.99,18.42,16.43,30.67,18.15l20.73,2.92c-.19-.25-.38-.5-.57-.75-10.72-14.23-15.26-31.73-12.78-49.26l19.48-138.47c2.44-17.31,11.46-32.35,24.37-42.67l-18.72-2.64c-2.17-.31-4.34-.45-6.5-.45ZM730.88,1800.52h.05-.05Z"/>
      <path class="cls-13" d="M909.76,1755.21c-.75,5.12-14,45.36-14,45.36,0,0-13.08-1.92-29.15-4.27-20.07-2.94-33.3-26.11-29.54-51.74,3.76-25.64,23.07-44.03,43.15-41.09,13.55,1.99,29.15,4.27,29.15,4.27,0,0,1.61,39.14.39,47.47Z"/>
      <g class="cls-12">
        <path class="cls-14" d="M909.76,1755.21c-.75,5.12-14,45.36-14,45.36,0,0-13.08-1.92-29.15-4.27-20.07-2.94-33.3-26.11-29.54-51.74,3.76-25.64,23.07-44.03,43.15-41.09,13.55,1.99,29.15,4.27,29.15,4.27,0,0,1.61,39.14.39,47.47Z"/>
      </g>
      <path class="cls-14" d="M901.22,1809.41l-35.76-5.24c-24.38-3.57-40.63-30.83-36.25-60.76,4.39-29.93,27.86-51.36,52.16-47.8l35.67,5.23.27,6.58c.17,4.08,1.61,40.13.32,48.95h0c-.79,5.38-11.16,37.1-14.32,46.69l-2.09,6.35ZM875.95,1711.11c-14.56,0-28.1,14.76-31.01,34.6-3.12,21.26,7.12,40.42,22.83,42.73l22.52,3.3c5.64-17.32,11.12-34.83,11.61-37.7.69-4.82.29-24.55-.22-39.39l-22.61-3.32c-1.04-.15-2.08-.23-3.12-.23ZM909.76,1755.21h.05-.05Z"/>
      <ellipse class="cls-13" cx="902.57" cy="1754.16" rx="46.91" ry="36.73" transform="translate(-963.94 2392.79) rotate(-81.66)"/>
      <g class="cls-12">
        <path class="cls-14" d="M895.75,1800.57c-20.05-2.93-33.27-26.1-29.52-51.73.87-5.88,2.53-11.41,4.87-16.34.71,21.1,12.93,38.49,30.11,41.02,15.47,2.26,30.49-8.14,38.28-24.75.13,3.48-.06,7.08-.59,10.72-3.75,25.66-23.07,44.03-43.15,41.09Z"/>
      </g>
      <g class="cls-8">
        <path class="cls-6" d="M935.91,1771.34c1.21-23.28-11.5-43.32-30.07-46.04-16.8-2.48-33.1,10.04-40.16,29.26.09-1.87.28-3.8.55-5.72,3.75-25.63,23.07-44.03,43.15-41.09,20.08,2.94,33.3,26.11,29.52,51.73-.61,4.16-1.61,8.14-3,11.86Z"/>
      </g>
      <path class="cls-14" d="M900.07,1808.84c-1.82,0-3.64-.13-5.46-.4-12.18-1.78-22.64-9.34-29.45-21.28-6.46-11.31-8.87-25.33-6.8-39.48,2.08-14.15,8.41-26.88,17.84-35.86,9.96-9.48,22.17-13.72,34.32-11.94,12.18,1.78,22.64,9.34,29.46,21.28,6.46,11.31,8.87,25.33,6.79,39.48-2.08,14.15-8.41,26.88-17.84,35.86-8.47,8.06-18.55,12.34-28.87,12.34ZM905.15,1715.39c-6.25,0-12.54,2.75-17.99,7.94-6.87,6.54-11.51,16.01-13.07,26.66-1.56,10.65.17,21.05,4.87,29.29,4.34,7.61,10.72,12.38,17.95,13.44,7.29,1.06,14.72-1.68,21.06-7.72,6.87-6.54,11.51-16.01,13.07-26.66h0c1.56-10.65-.17-21.05-4.87-29.29-4.34-7.6-10.72-12.38-17.95-13.44-1.02-.15-2.04-.22-3.07-.22Z"/>
      <path class="cls-14" d="M958.45,1896.6c-.43,0-.86-.03-1.3-.11-4.33-.71-7.26-4.8-6.55-9.14l11.03-66.89c3.4-20.63,14.51-38.87,31.26-51.37l4.12-3.07c13.8-10.3,23.05-26,25.36-43.07l10.57-78.15c.59-4.35,4.6-7.39,8.94-6.81,4.35.59,7.4,4.59,6.81,8.94l-10.57,78.16c-2.88,21.28-14.4,40.84-31.6,53.68l-4.12,3.07c-13.44,10.03-22.34,24.66-25.08,41.22l-11.03,66.89c-.64,3.89-4.01,6.66-7.83,6.66Z"/>
      <path class="cls-6" d="M457.91,1667.95c-6.39,38.14,28.24,60.18,28.24,60.18,0,0,46.51,37.43,264.72,61.3,0,0,73.12-49.79,5.67-102.99,0,0-153.71-8.09-247.57-55.2-16.92-8.49-45.35,2.63-51.06,36.71Z"/>
      <g class="cls-12">
        <path class="cls-14" d="M457.93,1667.96c-6.41,38.13,28.22,60.18,28.22,60.18,0,0,44.37,35.71,249.76,59.6,10.64,1.24,21.26-2.54,28.7-10.24,11.2-11.6,24.42-30.68,19.43-52.85,0,0,0,0,0,0-10.54,17.3-30.49,26.55-50.56,24.11-196.77-23.9-239.69-58.43-239.69-58.43,0,0-24.23-15.43-28.4-42.78-3.47,5.54-6.09,12.32-7.45,20.42Z"/>
      </g>
      <path class="cls-14" d="M735.5,1797.32c-2.13,0-4.28-.12-6.42-.38-192.16-22.9-242.88-56.44-248.63-60.68-4.31-2.86-39.42-27.62-32.33-69.95h0c3.27-19.54,13.84-35.15,28.99-42.85,11.99-6.1,25.57-6.5,36.33-1.1,76.34,38.31,195.7,50.42,230.46,53.23,12.77,1.03,24.48,6.76,32.96,16.12,23.81,26.28,24.39,56.48,1.62,85.04-10.37,13.01-26.41,20.56-42.97,20.56ZM467.71,1669.6h0c-5.19,30.99,22.62,49.4,23.81,50.17l.86.62c.34.25,46.22,33.84,239.04,56.82,12.02,1.43,24.05-3.49,31.5-12.84,16.67-20.91,16.41-40.31-.81-59.31-5.08-5.61-12.12-9.04-19.83-9.66-45.71-3.68-160.4-16.44-237.78-55.27-5.07-2.54-12.13-2.14-18.41,1.06-5.56,2.82-15.35,10.28-18.39,28.41Z"/>
    </g>
    <path class="cls-6" d="M708.28,1433.11c-7.9,19.75-18,39.35-30.25,58.8-67.25,96.05-189.8,164.4-319,218.4-6.3,2.65-12.2,6.05-17.6,10.3-.25.15-.5.35-.75.55-3.3,2.6-6.4,5.45-9.25,8.6l-1.2,1.35-77.4,85.5c-4.6,5.05-10.6,8.9-17.4,9.85-16.4,2.4-28.8-10.4-31.8-30.3-2.15-13.9.4-31.25,9.4-49.25-107.25,26.8-206.55-6.3-201.4-81.5,1.1-16.35,11.5-30.5,26.25-37.7,38.75-18.9,77.1-42.85,115.15-70.8,210-130,400-290,560-315,22.95,65.2,20.2,128.9-4.75,191.2Z"/>
    <path class="cls-14" d="M687.43,1498.49c-75.17,104.29-192.36,164.75-306.87,215.15-10.01,4.39-25.77,9.97-33.85,17.34-4.1,3.46-9.71,9.55-13.27,13.64-8.93,9.9-32.52,35.92-41.72,46.11-6.16,6.2-30,34.51-36.78,39.44-21.45,16.85-50.9,5.59-59.18-18.99-8.63-22.97-3.26-48.66,7.04-69.39,0,0,13.02,16.22,13.02,16.22-36.35,8.9-74.42,12.44-112.25,6.71C55.19,1758.52-.22,1727.37.08,1672.2c-1.2-22.63,12-44.75,32.36-54.47,40.15-19.65,77.89-43.24,114.09-69.67,45.88-28.34,91.08-57.95,136.04-88.06,112.53-74,222.79-155.99,350.26-203.22,25.78-8.9,52.36-15.84,79.47-19.57,2.6-.36,5.01,1.46,5.37,4.07.34,2.48-1.29,4.77-3.69,5.3-52.19,11.14-101.11,33.16-147.88,58.53-141.18,77.96-268.63,178.56-406.33,262.69-24.95,18.64-61.06,42.07-92.12,58.76-15.85,9.45-38.39,14.42-42.86,34.85-8.84,47.96,40.79,74.73,82.37,80.16,33.78,5.24,69.2,2.2,103.03-6.03,6.32-1.59,12.72,2.28,14.26,8.61.68,2.81.29,5.64-.91,8.03-5.51,11-8.95,22.99-8.97,34.55-.91,17.55,11.73,39.31,29.13,22.86,21.42-23.65,51.38-56.75,72.73-80.35,4.48-5.15,10.46-11.7,15.69-15.95,10.17-8.99,26.94-15.53,39.39-20.72,62.69-27.02,124.54-57.81,180.54-96.38,44.67-30.8,85.83-67.11,116.63-110.89,8.62-12.01,27.34.42,18.76,13.21h0Z"/>
    <path class="cls-14" d="M509.3,1648.36c-.44,0-.88-.02-1.33-.08-6.29-.73-10.81-6.42-10.08-12.71,7.56-65.53-40.51-183.41-130.22-211.77-6.04-1.91-9.39-8.36-7.49-14.4s8.38-9.39,14.4-7.48c94.21,29.78,155.9,151.47,146.1,236.28-.67,5.85-5.63,10.16-11.38,10.16Z"/>
    <g class="cls-12">
      <path class="cls-14" d="M27.45,1634.6c-10.46,16.24-8.19,39.55,5.21,53.47,8.29,8.61,19.74,13.41,31.15,17,33.37,10.48,69.39,12.37,103.67,5.45,15.49-3.13,31.22-8.04,46.77-5.27,2.94.53,6.07,1.48,7.81,3.9,2.11,2.93,1.5,6.94.8,10.48-1.8,9.13-3.61,18.26-5.41,27.39-.37,1.88-.82,3.9-2.28,5.14-2.45,2.09-6.14.87-9.22-.09-13.73-4.29-28.5-1.12-42.85-.06-16.42,1.21-32.9-.42-49.25-2.34-19.45-2.28-39.29-5.12-56.68-14.11-17.39-8.99-32.16-25.37-34.09-44.86-.78-7.9.64-16.14,4.76-22.93"/>
    </g>
    <g class="cls-12">
      <path class="cls-14" d="M708.28,1433.11c-7.9,19.75-18,39.35-30.25,58.8-67.25,96.05-189.8,164.4-319,218.4-6.3,2.65-12.2,6.05-17.6,10.3-.25.15-.5.35-.75.55-1.6,1.05-3.1,2.25-4.55,3.55-2.15,1.95-4.1,4.1-5.9,6.4l-77.4,85.5c-4.6,5.05-10.6,8.9-17.4,9.85-16.4,2.4-28.8-10.4-31.8-30.3l6.6-.05c.55,8.8,12.4,13,20.5,9.4,8.05-3.55,12.85-11.75,17.15-19.45,9.6-17.15,19.2-34.35,28.8-51.5,5.5-9.9,11.15-19.9,18.9-28.15,8.9-9.45,20.2-16.2,31.4-22.85,43.4-25.7,86.8-51.45,130.2-77.2,71.45-42.35,144.25-85.85,198.4-148.85,7.05-8.2,13.95-16.85,23.2-22.4,8.85-5.3,20.65-7.2,29.5-2Z"/>
    </g>
    <g>
      <g>
        <g>
          <g>
            <path class="cls-6" d="M1639.32,1152.54c-36.84,82.96-94.88,157.13-171.43,213.96-15.62,11.58-31.94,22.44-49.02,32.49-8.3,4.92-16.84,9.62-25.53,14.2-26.27,13.67-53.15,25-80.43,34.09-23.5,7.89-47.33,14.08-71.23,18.67-28.87,5.56-57.93,8.72-86.9,9.64-10.57.3-21.11.32-31.63.07-192.52-5.02-377.02-109.6-473.7-289.52-142.47-265.01-40.36-593.01,227.97-732.64,51.7-26.86,105.83-44.87,160.51-54.35,6.38-1.17,12.82-2.16,19.27-3.01,17.24-2.4,34.5-3.98,51.74-4.74,39.86-1.74,79.61.85,118.5,7.53,38.88,6.63,76.98,17.38,113.5,31.99,11.61,4.64,23.07,9.65,34.38,15.09,16.94,8.16,33.48,17.12,49.6,27.02,80.34,49.09,148.97,119.22,196.41,207.52,81.96,152.44,82.97,325.7,18.02,471.99Z"/>
            <path class="cls-14" d="M1137.58,1477.08c-4.84,0-9.67-.06-14.48-.17-199.46-5.2-381.37-116.39-474.76-290.17-68.79-127.94-83.21-274.55-40.62-412.81,42.93-139.37,138.51-253.55,269.11-321.51,50.97-26.47,105.1-44.8,160.87-54.47,6.1-1.12,12.42-2.11,19.32-3.02,17.2-2.4,34.65-3.99,51.85-4.75,39.57-1.73,79.53.81,118.76,7.54,38.87,6.63,77.14,17.41,113.75,32.06,11.76,4.69,23.35,9.78,34.46,15.12,17.29,8.32,34.01,17.44,49.71,27.09,82.88,50.64,150.95,122.56,196.85,207.99,79.4,147.67,85.99,320.1,18.06,473.08l-1.13-.5,1.13.5c-37.65,84.8-97.07,158.96-171.83,214.45-15.84,11.75-32.37,22.7-49.13,32.56-7.68,4.55-16.04,9.2-25.59,14.23-25.95,13.5-53.08,25-80.62,34.17-23.05,7.74-47.07,14.04-71.39,18.71-28.46,5.48-57.76,8.73-87.1,9.66-5.71.16-11.46.24-17.22.24ZM1133.01,392.12c-8.02,0-16.03.18-24.03.52-17.12.75-34.49,2.35-51.62,4.73-6.87.91-13.15,1.89-19.22,3-55.54,9.63-109.42,27.87-160.17,54.23-130,67.65-225.14,181.31-267.88,320.04-42.4,137.62-28.04,283.55,40.43,410.91,92.97,173,274.07,283.69,472.64,288.87,10.47.25,21.1.23,31.56-.07,29.2-.93,58.37-4.16,86.7-9.62,24.21-4.65,48.12-10.92,71.07-18.63,27.42-9.14,54.42-20.58,80.26-34.02,9.5-5.01,17.84-9.64,25.48-14.17,16.69-9.82,33.14-20.73,48.92-32.42,74.41-55.24,133.55-129.06,171.04-213.47,67.61-152.27,61.06-323.9-17.97-470.9-45.69-85.03-113.46-156.63-195.96-207.05-15.62-9.61-32.28-18.68-49.49-26.97-11.06-5.32-22.6-10.38-34.31-15.05-36.45-14.58-74.55-25.31-113.25-31.92-31.13-5.34-62.72-8.03-94.2-8.03Z"/>
          </g>
          <g class="cls-12">
            <path class="cls-14" d="M649.43,1186.13c96.66,179.94,281.19,284.53,473.71,289.52,10.52.27,21.05.24,31.61-.06,28.98-.91,58.04-4.09,86.9-9.63,23.91-4.61,47.75-10.78,71.23-18.67,27.31-9.08,54.17-20.42,80.46-34.09,8.67-4.61,17.21-9.29,25.53-14.19,17.08-10.06,33.39-20.95,49.01-32.52,76.56-56.83,134.61-130.98,171.44-213.97,20.24-45.57,34.09-93.8,41.07-143.18-36.98,78.38-93.18,148.35-166.21,202.57-15.6,11.61-31.93,22.46-49.01,32.52-8.28,4.91-16.83,9.6-25.53,14.19-26.29,13.67-53.15,25.01-80.43,34.1-23.52,7.87-47.32,14.05-71.23,18.67-28.87,5.54-57.96,8.71-86.9,9.63-10.58.3-21.12.32-31.64.05-192.52-4.99-377.01-109.57-473.71-289.52-56.44-104.96-74.46-219.8-59.02-328.87-70.25,148.66-71.38,327.03,12.72,483.45Z"/>
          </g>
          <path class="cls-14" d="M1137.58,1485.38c-4.91,0-9.8-.06-14.68-.18-202.45-5.28-387.08-118.14-481.87-294.54-69.85-129.92-84.49-278.79-41.24-419.19,43.6-141.51,140.62-257.44,273.21-326.43,51.73-26.87,106.67-45.47,163.29-55.28,6.16-1.13,12.62-2.14,19.65-3.07,17.41-2.42,35.12-4.05,52.57-4.82,40.17-1.76,80.71.82,120.53,7.66,39.43,6.73,78.27,17.67,115.42,32.53,11.92,4.76,23.69,9.92,34.98,15.35,17.55,8.45,34.52,17.7,50.45,27.5,84.12,51.4,153.22,124.41,199.81,211.13,80.62,149.95,87.3,325.04,18.33,480.37l-8.72-3.87,8.72,3.87c-38.23,86.1-98.56,161.4-174.46,217.75-16.08,11.92-32.86,23.04-49.87,33.05-7.77,4.6-16.26,9.32-25.93,14.42-26.38,13.72-53.91,25.39-81.87,34.7-23.38,7.85-47.76,14.24-72.45,18.99-28.89,5.56-58.63,8.86-88.4,9.81-5.81.17-11.65.25-17.49.25ZM1133.01,400.42c-7.91,0-15.79.17-23.67.52-16.86.74-33.96,2.31-50.84,4.66-6.78.9-12.93,1.86-18.87,2.95-54.78,9.49-107.85,27.47-157.83,53.43-128.02,66.62-221.69,178.53-263.77,315.12-41.74,135.49-27.6,279.15,39.81,404.54,91.56,170.39,269.94,279.4,465.54,284.5,10.31.24,20.79.22,31.11-.07,28.74-.91,57.47-4.1,85.37-9.47,23.86-4.59,47.41-10.76,70-18.34,27.03-9,53.62-20.28,79.07-33.51,9.34-4.92,17.56-9.49,25.08-13.95,16.46-9.69,32.67-20.43,48.21-31.95,73.26-54.39,131.49-127.07,168.39-210.17,66.56-149.9,60.11-318.88-17.7-463.6-45-83.74-111.72-154.25-192.98-203.89-15.4-9.47-31.8-18.4-48.75-26.57-10.89-5.23-22.26-10.22-33.78-14.82-35.91-14.36-73.44-24.94-111.56-31.44-30.68-5.27-61.8-7.92-92.81-7.92Z"/>
          <path class="cls-14" d="M1137.58,1487.31c-4.92,0-9.83-.06-14.72-.17-203.14-5.3-388.41-118.55-483.53-295.56-70.09-130.38-84.79-279.77-41.38-420.67,43.75-142.01,141.11-258.34,274.16-327.58,51.91-26.96,107.04-45.63,163.85-55.47,6.17-1.13,12.66-2.15,19.72-3.08,17.45-2.43,35.22-4.06,52.74-4.83,40.28-1.77,80.98.82,120.94,7.68,39.57,6.75,78.54,17.73,115.82,32.64,11.96,4.78,23.77,9.96,35.09,15.4,17.61,8.48,34.64,17.76,50.63,27.59,84.4,51.57,153.75,124.84,200.5,211.86,80.91,150.48,87.61,326.19,18.4,482.08l-10.49-4.66,10.49,4.66c-38.37,86.41-98.91,161.97-175.08,218.52-16.14,11.96-32.97,23.12-50.04,33.17-7.79,4.62-16.31,9.35-26.01,14.46-26.48,13.77-54.1,25.48-82.15,34.83-23.46,7.88-47.92,14.29-72.69,19.05-28.99,5.58-58.83,8.9-88.71,9.84-5.83.16-11.68.25-17.54.25ZM1133.01,402.36c-7.87,0-15.74.17-23.58.51-16.8.74-33.84,2.3-50.66,4.64-6.76.9-12.88,1.85-18.78,2.93-54.6,9.46-107.49,27.37-157.29,53.24-127.55,66.37-220.89,177.88-262.82,313.97-41.58,134.99-27.5,278.13,39.67,403.05,91.23,169.78,268.98,278.4,463.89,283.49,10.28.24,20.73.22,31.01-.07,28.63-.91,57.26-4.08,85.06-9.44,23.77-4.57,47.23-10.72,69.75-18.28,26.93-8.97,53.44-20.21,78.79-33.4,9.3-4.9,17.49-9.46,24.98-13.89,16.41-9.65,32.56-20.36,48.04-31.84,72.99-54.19,131.01-126.6,167.77-209.4,66.32-149.36,59.89-317.71-17.64-461.9-44.83-83.44-111.32-153.69-192.28-203.16-15.35-9.44-31.69-18.34-48.59-26.47-10.84-5.21-22.17-10.19-33.66-14.77-35.79-14.31-73.18-24.85-111.17-31.33-30.57-5.25-61.58-7.89-92.48-7.89Z"/>
          <path class="cls-14" d="M1566.76,1271.47c-302.21,247.07-752.62,124.36-808.41-255.78-37.95-258.62,189.49-494.14,443.68-513.41,185-14.02,372.09,52.09,473.54,329.27,0,0,25.71,129.48-2.75,219.34-28.46,89.86-71.54,172.47-71.54,172.47l-34.53,48.1Z"/>
          <g class="cls-11">
            <path class="cls-6" d="M1598.46,1001.29c38.3-3.61,33.85-239.17-139.19-352.74-243-159.49-487.37,56.91-475.17,90.96,12.35,34.45,228.69-104.94,408.56,4.05,139.4,84.47,171.68,260.95,205.8,257.73Z"/>
          </g>
          <path class="cls-2" d="M758.36,1015.7c55.78,380.12,506.2,502.83,808.4,255.79l6.99-9.76c-348.06,90.56-718.08-89.82-781.74-473.14-31.82,69.7-45.35,147.3-33.65,227.11Z"/>
          <path class="cls-14" d="M1215.14,1466.89c-119.02,0-233.85-35.48-325.43-102.22-110.03-80.18-179.19-197.5-200.01-339.28-19.11-130.18,19.38-263.13,108.36-374.38,98.88-123.61,248.73-204.29,400.82-215.82,84.56-6.41,161.88,2.69,229.88,27.04l2.11,1.01c84.43,51.59,153.77,124.86,200.53,211.88,80.91,150.48,87.61,326.19,18.4,482.08l-10.49-4.66,10.49,4.66c-38.37,86.41-98.91,161.97-175.08,218.52-16.14,11.96-32.97,23.12-50.04,33.17-7.79,4.62-16.31,9.35-26.01,14.46-26.48,13.77-54.11,25.48-82.16,34.83l-1.74.43c-33.27,5.55-66.62,8.29-99.64,8.29ZM1250.43,456.15c-16.28,0-32.9.64-49.81,1.92-145.87,11.05-289.66,88.54-384.64,207.28-84.97,106.22-121.75,232.9-103.57,356.7,19.9,135.54,85.89,247.6,190.82,324.07,111.83,81.5,260.08,114.28,406.89,89.99,26.62-8.92,52.82-20.05,77.91-33.11,9.3-4.9,17.49-9.46,24.98-13.89,16.41-9.65,32.56-20.36,48.04-31.84,72.99-54.19,131.01-126.6,167.77-209.4h0c66.32-149.36,59.89-317.71-17.64-461.9-44.64-83.09-110.77-153.11-191.27-202.54-51.15-18.15-107.98-27.29-169.49-27.29Z"/>
          <path class="cls-6" d="M513.21,1011.42c2.51,106.96,68.66,195.37,147.78,197.45,79.12,2.08,141.22-82.96,138.71-189.92,0-.67-.04-1.38-.08-2.06-3.28-106.04-69.14-193.34-147.7-195.39-61.12-1.61-112.08,48.78-130.96,121.08-5.55,21.29-8.32,44.51-7.75,68.84Z"/>
          <g class="cls-12">
            <path class="cls-14" d="M513.21,1011.42c2.51,106.96,68.66,195.37,147.78,197.45,79.12,2.08,141.22-82.96,138.71-189.92,0-.67-.04-1.38-.08-2.06-8.44,10.75-21.73,21.2-40.15,17.08-32.27-7.24-91.54-77.53-91.54-77.53,0,0-63.7-6.42-146.97-13.85-5.55,21.29-8.32,44.51-7.75,68.84Z"/>
          </g>
          <path class="cls-14" d="M663.87,1220.37c-1.06,0-2.12-.01-3.19-.04-85-2.23-156.32-95.82-158.96-208.64h0c-1.53-65.19,19.57-124.49,57.87-162.68,26.47-26.4,58.6-39.87,92.62-38.98,85,2.23,156.31,95.82,158.96,208.64,1.53,65.19-19.56,124.48-57.86,162.68-25.64,25.57-56.5,39.02-89.43,39.02ZM524.66,1011.15c2.37,100.78,63.66,184.32,136.63,186.23,27.64.76,53.9-10.44,75.81-32.29,33.38-33.28,52.49-87.82,51.13-145.89-2.37-100.78-63.65-184.32-136.63-186.23-27.58-.69-53.9,10.44-75.81,32.29-33.37,33.28-52.49,87.82-51.13,145.89h0Z"/>
          <g>
            <path class="cls-6" d="M505.35,1089.59c28.1,78.67,98.07,116.77,156.28,85.1,58.22-31.67,82.63-121.11,54.54-199.77-28.1-78.67-98.07-116.77-156.28-85.1-58.22,31.67-82.63,121.11-54.54,199.77Z"/>
            <path class="cls-14" d="M618.69,1187.19c-11.26,0-22.66-2.15-33.97-6.47-35.46-13.54-64.83-46.6-80.58-90.69-28.26-79.11-3.52-169.43,55.13-201.34,24.38-13.26,51.19-14.95,77.53-4.89,35.46,13.54,64.83,46.6,80.58,90.69,28.26,79.11,3.52,169.43-55.13,201.34-13.91,7.56-28.61,11.36-43.56,11.36ZM602.84,879.9c-14.54,0-28.82,3.69-42.34,11.04-57.59,31.33-81.79,120.24-53.94,198.21,15.49,43.38,44.32,75.88,79.07,89.15,25.62,9.78,51.69,8.14,75.39-4.75,57.59-31.33,81.79-120.24,53.94-198.21-15.49-43.38-44.32-75.88-79.07-89.15-11.01-4.2-22.1-6.3-33.05-6.3Z"/>
          </g>
          <g class="cls-12">
            <path class="cls-14" d="M722.3,1095.27c6.55-28.42,5.21-58.74-2.41-87.08-20.47,63.55-78.09,90.45-133.69,60.08-35.93-19.61-62.73-58.66-74.49-102.53-1.32,4-2.45,8.2-3.45,12.51-16.64,72.38,17.78,157.26,76.9,189.57,59.11,32.31,120.5-.2,137.13-72.55Z"/>
          </g>
          <path class="cls-14" d="M616.98,1197.67c-1,0-1.99-.02-2.99-.05-65.59-2.23-121.02-79.72-123.57-172.73-1.51-55.22,16.02-106.51,46.91-137.19,19.83-19.7,43.56-29.64,68.79-28.8,65.59,2.23,121.03,79.72,123.57,172.73,1.51,55.22-16.02,106.51-46.9,137.19-19.04,18.92-41.74,28.85-65.81,28.85ZM603.19,881.79c-17.91,0-35.04,7.64-49.69,22.18-26.48,26.31-41.48,71.27-40.14,120.28,2.23,81.12,47.72,148.6,101.42,150.42,18.7.63,36.61-7.02,51.84-22.15,26.48-26.31,41.48-71.27,40.14-120.28-2.22-81.12-47.71-148.59-101.42-150.42-.72-.02-1.44-.04-2.15-.04Z"/>
        </g>
        <g class="cls-11">
          <ellipse class="cls-6" cx="900.74" cy="965.92" rx="44.61" ry="79.05" transform="translate(-43.32 42.29) rotate(-2.63)"/>
        </g>
        <g class="cls-11">
          <ellipse class="cls-6" cx="916.96" cy="1107.25" rx="28.41" ry="32.65" transform="translate(-213.51 219.07) rotate(-12.21)"/>
        </g>
      </g>
      <g>
        <path class="cls-15" d="M853.5,755.02c-23.18,15.63-29.85,60.55-62.7,92.43-9.49,9.21-24.14,10.32-35.24,3.14-29.71-19.2-49.41-45.71-48.02-71.42-24.61-17.74-45.42-39.19-48.97-62.78-2.38-15.79,5.54-31.27,18.96-39.91,33.03-21.26,84.96-8.91,117.64-10.43,26.16,23,45.8,52.46,58.34,88.97Z"/>
        <path class="cls-14" d="M771.37,864.46c-7.14,0-14.36-2.04-20.78-6.19-32.09-20.74-51.25-48.24-52.23-74.49-29.1-21.79-45.52-43.99-48.84-66.03-2.85-18.89,6.2-38.11,23.06-48.96,26.27-16.91,61.14-14.74,91.9-12.81,11.1.7,21.57,1.35,30.25.94,2.4-.13,4.68.7,6.46,2.27,27.62,24.28,48.12,55.52,60.95,92.87,1.34,3.91-.11,8.24-3.54,10.55-9.35,6.3-16.18,19.83-24.08,35.49-9.13,18.07-19.46,38.55-37.36,55.92-7.12,6.91-16.38,10.45-25.79,10.45ZM733.52,672.99c-18.84,0-37.18,2.25-51.04,11.18-10.82,6.96-16.66,19.07-14.88,30.86,2.71,17.94,17.94,37.03,45.28,56.73,2.52,1.82,3.95,4.8,3.78,7.91-1.15,21.12,15.25,44.77,43.85,63.25,7.7,4.98,17.54,4.16,23.92-2.02,15.7-15.23,25.3-34.26,33.77-51.04,7.69-15.22,14.48-28.68,24.48-37.89-11.41-30.44-28.51-56.19-50.9-76.66-8.74.16-18.33-.44-28.44-1.08-9.69-.6-19.83-1.24-29.82-1.24Z"/>
        <path class="cls-14" d="M825.92,715.93c-23.43-1.02-48.35,3.81-62.81,23.98-1.57,2.24-5.19-.07-3.79-2.44,6.2-11.45,16.39-20.86,28.24-26.44,11.97-5.77,25.03-8.36,37.81-9.72,4.03-.43,7.64,2.48,8.07,6.51.51,4.38-3.11,8.27-7.51,8.11h0Z"/>
        <path class="cls-15" d="M857.82,647.13c25.03-36.18,42.57-77.3,63.68-96.78,7.41-6.84,17.47-10.42,27.34-8.34,29.76,6.27,46.45,52.41,49.37,90.41,26.4,30.4,32.57,66.25,16.32,91.6-4.35,6.79-11.81,11.08-19.87,11.38-33.79,1.23-71.87-7.88-103.79-22l-33.04-66.26Z"/>
        <path class="cls-14" d="M988.59,744.64c-31.67,0-68.24-8.22-101.43-22.9-1.95-.86-3.54-2.38-4.48-4.28l-33.04-66.26c-1.49-2.98-1.24-6.54.66-9.28,9.58-13.85,18.04-28.43,26.21-42.52,12.82-22.1,24.93-42.98,38.79-55.78,9.96-9.19,23.2-13.15,35.42-10.57,33.43,7.05,52.44,53.93,56.35,95.66,27.29,32.87,33.29,71.94,15.16,100.22-5.99,9.35-16.17,15.18-27.23,15.58-2.11.08-4.24.11-6.4.11ZM897.55,706.33c32.19,13.75,67.24,20.98,96.76,19.93,5.07-.19,9.75-2.87,12.5-7.17,14.07-21.95,7.98-53.62-15.52-80.68-1.29-1.48-2.07-3.34-2.22-5.29-2.77-36.11-18.49-77.17-42.14-82.16-6.45-1.36-13.63.93-19.25,6.11-11.84,10.92-23.27,30.64-35.37,51.51-7.49,12.92-15.21,26.23-23.94,39.26l29.17,58.49Z"/>
        <path class="cls-14" d="M870.83,680.88c17.01-23.44,45.27-37.22,73.8-39.11.93-.07,1.75.63,1.82,1.56.06.79-.45,1.5-1.17,1.74-12.66,4.24-24.95,9.61-35.75,17.25-10.62,7.27-19.51,16.59-26.83,27.08-5.7,7.92-17.58-.57-11.88-8.53h0Z"/>
        <path class="cls-15" d="M792.7,663.85c26.85,23.56,48.1,52.94,60.8,91.17,14.99-2.72,27.05-9.99,36.18-21.81,10.49-13.59,13.26-31.43,8.64-47.96-17.74-63.49-73.94-94.37-105.61-21.39Z"/>
        <path class="cls-14" d="M853.49,764.16c-3.88,0-7.41-2.47-8.67-6.26-11.41-34.34-30.43-62.85-58.15-87.18-2.98-2.62-3.94-6.87-2.35-10.51,18.96-43.67,44.6-48.64,58.18-47.69,27.44,1.88,53.41,30.12,64.62,70.27,5.5,19.67,1.68,40.61-10.21,56.01-10.52,13.62-24.58,22.1-41.79,25.22-.55.1-1.09.15-1.64.15ZM803.83,661.58c25.38,23.56,43.63,50.69,55.52,82.56,9.3-3.06,16.9-8.51,23.09-16.52,8.38-10.85,11.02-25.77,7.07-39.91-9-32.2-28.85-55.62-48.27-56.95-13.95-.98-27.05,9.93-37.42,30.82Z"/>
        <g class="cls-12">
          <path class="cls-14" d="M852.29,623.96c-10.8,2.89-23.18,7.21-26.69,17.82-2.39,7.25.31,15.11,3.24,22.16,3.92,9.43,8.3,18.66,13.12,27.67,5.73,10.71,12.57,21.57,23.23,27.41,10.66,5.84,26.08,4.63,32.62-5.61-3.05,20.8-22.14,38.08-43.14,39.05-2.62-18.47-11.65-35.55-23.13-50.24-11.49-14.69-25.43-27.25-39.29-39.73,4.86-9.44,9.8-19,16.96-26.83,7.16-7.83,16.93-13.86,27.54-14.22.99-.03,2.27-.24,2.45-1.22.18-.98-1.99-.57-1.19.01"/>
        </g>
        <g class="cls-12">
          <path class="cls-14" d="M944.97,545.33c-7.35-2.68-14.83,3.25-20.26,8.89-9.85,10.24-19.26,21.34-24.45,34.57-5.19,13.23-5.57,29.02,2.06,41.01s24.41,18.33,36.98,11.69c-12.76,4.4-20,19.27-18.19,32.65,1.81,13.37,11.13,24.85,22.5,32.13,13.35,8.55,29.97,12.05,45.52,8.98,15.55-3.07,29.78-12.83,37.7-26.56,4.14,19.17-12.46,37.87-31.32,43.28-18.86,5.4-38.97,1.09-58.11-3.24-13.85-3.13-27.7-6.26-41.55-9.4,11.24-27.57,1.69-62.15-22.1-80.04-1.36-1.02-2.86-2.13-3.28-3.79-.3-1.2.04-2.47.39-3.66,6.39-21.5,17.79-41.5,33.04-57.95"/>
        </g>
        <g class="cls-12">
          <path class="cls-14" d="M813.04,807.42c12.55-15.52,17.85-37.49,10.86-56.18s-27.44-32.27-47.08-28.75c12.96-5.78,16.41-24.34,9.2-36.57-7.21-12.22-21.88-18.39-36.04-19.4,9.18-1.03,18.36-2.05,27.54-3.08,2.83-.32,5.73-.63,8.49.04,4.37,1.06,7.78,4.38,10.86,7.65,22.23,23.58,39.77,51.57,51.3,81.85.63,1.67,1.26,3.41,1.09,5.19-.2,2.07-1.43,3.87-2.63,5.57-9.43,13.35-18.86,26.71-28.29,40.06"/>
        </g>
        <g class="cls-10">
          <path class="cls-6" d="M871.28,678.14c-3.29,2.35-11.66-3.74-18.7-13.6-7.04-9.86-10.09-19.76-6.8-22.1,3.29-2.35,11.66,3.74,18.7,13.6,7.04,9.86,10.09,19.76,6.8,22.1Z"/>
        </g>
        <g class="cls-10">
          <path class="cls-6" d="M967.48,608.97c-4.41,2.48-14.02-6.22-21.47-19.44-7.45-13.22-9.92-25.95-5.51-28.43,4.41-2.48,14.02,6.22,21.47,19.44,7.45,13.22,9.92,25.95,5.51,28.43Z"/>
        </g>
      </g>
    </g>
    <path class="cls-6" d="M1804.73,372.61c37.59-9.18,72.6-30.27,98.82-62.68,63.64-78.66,51.47-194.01-27.18-257.66-78.66-63.64-194.01-51.47-257.66,27.18-63.64,78.66-51.47,194.01,27.18,257.66,21.88,17.7,46.6,29.52,72.25,35.69l46.71,73.26,39.87-73.46Z"/>
    <g class="cls-11">
      <path class="cls-6" d="M1794.99,50.16c91.71,22.84,149.88,111.1,137.22,202.66,2.21-6.07,4.17-12.29,5.76-18.7,24.46-98.18-35.31-197.6-133.49-222.05-98.18-24.46-197.6,35.31-222.05,133.49-1.6,6.44-2.82,12.88-3.72,19.3,31.73-86.85,124.53-137.55,216.28-114.7Z"/>
    </g>
    <path class="cls-14" d="M1764.86,457.55c-3.91,0-7.56-1.99-9.67-5.31l-44.26-69.43c-26.48-7.04-50.76-19.39-72.25-36.78-40.42-32.71-65.69-79.2-71.15-130.92-5.46-51.71,9.55-102.46,42.26-142.88,32.71-40.42,79.2-65.69,130.91-71.15,51.73-5.44,102.46,9.56,142.88,42.26,40.42,32.71,65.69,79.2,71.15,130.92,5.46,51.71-9.55,102.46-42.26,142.88-25.94,32.06-60.44,54.57-100.04,65.32l-37.49,69.07c-1.94,3.57-5.62,5.85-9.68,5.99-.14,0-.27,0-.41,0ZM1761.46,22.95c-6.08,0-12.21.32-18.34.97-45.62,4.81-86.63,27.1-115.48,62.76-28.86,35.66-42.09,80.42-37.29,126.04,4.81,45.62,27.1,86.63,62.76,115.48,20.03,16.21,42.82,27.47,67.72,33.46,2.89.69,5.39,2.48,6.99,4.99l36.24,56.84,30.59-56.35c1.54-2.84,4.21-4.9,7.36-5.67,36.76-8.98,68.79-29.29,92.62-58.75,28.86-35.66,42.09-80.42,37.29-126.04-4.81-45.62-27.1-86.63-62.76-115.48-30.86-24.97-68.54-38.25-107.7-38.25Z"/>
    <g class="cls-12">
      <path class="cls-3" d="M1806.7,372.09c-65.51-5.29-127.64-40.85-164.27-101.37-40.62-67.12-39.52-147.78-4.21-211.9-6.92,6.28-13.45,13.15-19.51,20.64-63.64,78.66-51.47,194.01,27.18,257.66,21.88,17.7,46.6,29.52,72.25,35.69l46.71,73.26,39.87-73.46c.66-.16,1.31-.35,1.97-.52Z"/>
    </g>
    <path class="cls-7" d="M1818.02,135.02h0c-17.87-15.93-45.09-11.32-61.02,6.55l-2.48,2.78-2.78-2.48c-17.87-15.93-45.44-17.38-61.37.49h0c-15.93,17.87-14.35,45.27,3.52,61.19l2.78,2.48,56.18,50.07c4.71,4.2,11.93,3.78,16.13-.93l50.07-56.18,2.48-2.78c15.93-17.87,14.35-45.27-3.52-61.19Z"/>
  </g>
</svg>