<?xml version="1.0" encoding="utf-8"?>
<!-- Generator: Adobe Illustrator 27.5.0, SVG Export Plug-In . SVG Version: 6.00 Build 0)  -->
<svg version="1.1" id="Layer_1" xmlns="http://www.w3.org/2000/svg" xmlns:xlink="http://www.w3.org/1999/xlink" x="0px" y="0px"
	 viewBox="0 0 334.845 256.455" style="enable-background:new 0 0 334.845 256.455;" xml:space="preserve">
<g>
	<g>
		<g>
			<path style="fill:#ACD01F;" d="M103.253,34.19c-1.242-0.226-1.955-1.467-2.43-2.521c-0.324-0.718-0.595-1.407-0.724-2.184
				c-0.314-1.887-0.392-3.817-0.844-5.681c-0.143-0.587-0.317-1.425-0.804-1.811c-0.507-0.4-1.141,0.12-1.515,0.477
				c-0.051,0.049-0.156,0.037-0.206-0.006c-1.299-1.096-1.888-2.662-2.474-4.207c-0.649-1.711-1.428-3.245-2.973-4.315
				c-0.394-0.273-0.799-0.436-1.281-0.408c-0.555,0.033-1.099,0.141-1.658,0.15c-0.57,0.009-1.147,0.035-1.717,0.026
				c-0.229-0.004-0.402-0.039-0.574-0.193c-0.31-0.277-0.572-0.604-0.884-0.881c-0.525-0.467-1.064-0.919-1.592-1.382
				c-0.212-0.186-0.436-0.421-0.737-0.41c-0.402,0.014-0.837,0.215-1.223,0.312c-0.688,0.173-1.391,0.277-2.082,0.442
				c-0.384,0.092-0.781,0.199-1.18,0.151c-0.433-0.052-0.804-0.317-1.124-0.597c-0.565-0.495-1.075-1.077-1.533-1.672
				c-1.15-1.494-1.99-3.349-3.196-4.826c-1.119,0.009-2.09,0.134-2.775,0.387c-3.007,1.111-5.164-1.765-11.831,0
				c-6.667,1.765-4.58,5.786-5.871,7.238c-2.421,2.582-5.972,6.94-1.453,15.817c5.649,8.393,15.01,6.295,16.14,8.716
				c2.26,5.003,14.365,8.393,19.529,9.684c5.165,1.291,10.491,2.905,10.491,2.905c2.098,1.775,6.295,9.2,6.295,9.2l1.277,0.299
				c0,0-0.915-4.641-3.922-9.87c3.268-0.784,4.183-10.131,4.771-12.68c0.305-1.322,0.428-2.342,0.29-3.213
				C105.004,33.909,104.325,34.385,103.253,34.19z"/>
			<path style="fill:#709E05;" d="M104.77,59.387l-1.982-0.465l-0.078-0.139c-0.042-0.073-4.113-7.255-6.157-9.052
				c-0.66-0.199-5.63-1.686-10.4-2.879c-7.872-1.968-17.692-5.28-19.773-9.887c-0.321-0.688-1.732-0.973-3.518-1.333
				c-3.53-0.712-8.864-1.789-12.592-7.328c-4.846-9.513-0.567-14.076,1.489-16.269c0.297-0.334,0.379-0.925,0.474-1.608
				c0.259-1.866,0.614-4.421,5.57-5.733c3.916-1.037,6.299-0.51,8.213-0.086c1.344,0.297,2.405,0.532,3.584,0.097
				c0.698-0.258,1.7-0.4,2.898-0.41l0.174-0.001l0.111,0.135c0.656,0.803,1.208,1.717,1.74,2.6c0.46,0.761,0.935,1.549,1.463,2.235
				c0.509,0.662,0.995,1.192,1.484,1.62c0.246,0.215,0.573,0.467,0.927,0.509c0.306,0.038,0.627-0.041,0.967-0.124l0.085-0.02
				c0.33-0.079,0.663-0.144,0.995-0.209c0.362-0.071,0.725-0.142,1.083-0.232c0.122-0.03,0.248-0.072,0.377-0.114
				c0.296-0.097,0.603-0.197,0.921-0.209c0.411-0.019,0.71,0.248,0.925,0.442l0.066,0.058c0.227,0.199,0.455,0.395,0.684,0.592
				c0.305,0.262,0.61,0.525,0.91,0.792c0.165,0.146,0.317,0.306,0.469,0.465c0.135,0.143,0.27,0.285,0.416,0.416
				c0.075,0.067,0.141,0.097,0.337,0.1c0.382,0.006,0.763-0.004,1.145-0.013l0.561-0.012c0.305-0.005,0.605-0.041,0.905-0.077
				c0.245-0.029,0.49-0.058,0.737-0.073c0.518-0.032,1.001,0.119,1.51,0.471c1.675,1.161,2.483,2.841,3.106,4.485
				c0.574,1.514,1.108,2.922,2.236,3.943c0.725-0.636,1.345-0.759,1.844-0.363c0.556,0.439,0.758,1.282,0.905,1.897l0.027,0.113
				c0.283,1.164,0.423,2.362,0.558,3.52c0.084,0.72,0.171,1.465,0.291,2.187c0.12,0.721,0.365,1.359,0.697,2.094
				c0.439,0.973,1.082,2.115,2.163,2.312l0,0c0.811,0.148,1.385-0.13,1.81-0.872l0.514-0.896l0.161,1.02
				c0.137,0.86,0.048,1.863-0.295,3.351c-0.104,0.449-0.221,1.134-0.357,1.928c-0.628,3.659-1.656,9.652-4.239,10.868
				c2.833,5.068,3.74,9.557,3.749,9.603L104.77,59.387z M103.265,58.285l0.553,0.13c-0.342-1.379-1.41-5.128-3.751-9.201
				l-0.243-0.422l0.473-0.114c2.446-0.587,3.546-6.996,4.136-10.439c0.138-0.805,0.257-1.5,0.365-1.969
				c0.207-0.895,0.315-1.594,0.335-2.182c-0.524,0.44-1.184,0.598-1.946,0.459l0,0l0,0c-1.415-0.257-2.185-1.593-2.697-2.729
				c-0.307-0.681-0.611-1.428-0.752-2.274c-0.123-0.739-0.211-1.493-0.296-2.222c-0.133-1.137-0.271-2.313-0.543-3.433l-0.028-0.115
				c-0.123-0.512-0.291-1.213-0.648-1.496c-0.203-0.161-0.554-0.008-1.038,0.455c-0.204,0.194-0.518,0.156-0.692,0.009
				c-1.363-1.15-1.976-2.766-2.568-4.328c-0.593-1.562-1.339-3.125-2.851-4.173c-0.373-0.259-0.698-0.365-1.053-0.343
				c-0.233,0.014-0.464,0.042-0.694,0.069c-0.316,0.037-0.643,0.076-0.979,0.082l-0.555,0.012c-0.391,0.01-0.784,0.021-1.174,0.014
				c-0.247-0.004-0.537-0.041-0.811-0.285c-0.161-0.144-0.31-0.3-0.459-0.457c-0.137-0.145-0.274-0.29-0.424-0.423
				c-0.297-0.264-0.599-0.524-0.901-0.784c-0.23-0.198-0.46-0.396-0.689-0.597l-0.072-0.064c-0.149-0.134-0.269-0.262-0.413-0.256
				c-0.216,0.008-0.473,0.092-0.721,0.173c-0.146,0.048-0.289,0.094-0.426,0.129c-0.37,0.093-0.745,0.167-1.12,0.24
				c-0.323,0.063-0.646,0.127-0.966,0.203l-0.083,0.02c-0.371,0.089-0.793,0.188-1.225,0.139c-0.553-0.066-0.996-0.401-1.32-0.685
				c-0.525-0.459-1.043-1.023-1.582-1.724C74.856,8.987,74.37,8.182,73.9,7.403c-0.49-0.811-0.994-1.647-1.572-2.379
				c-1.035,0.02-1.889,0.145-2.476,0.362c-1.38,0.51-2.591,0.241-3.994-0.069c-1.838-0.406-4.124-0.912-7.87,0.079
				c-4.488,1.188-4.792,3.374-5.035,5.129c-0.107,0.768-0.207,1.493-0.657,1.999c-5.992,6.391-3.005,12.258-1.4,15.41
				c3.539,5.253,8.697,6.294,12.11,6.983c2.065,0.417,3.557,0.718,4.035,1.743c1.532,3.391,8.381,6.758,19.287,9.485
				c5.114,1.278,10.455,2.894,10.508,2.91l0.129,0.07C98.955,50.808,102.66,57.225,103.265,58.285z"/>
		</g>
		<g>
			<path style="fill:#EB203B;" d="M12.32,88.947c0,0-20.982,38.736,10.007,81.345c32.28,44.546,41.964,57.458,59.718,58.427
				c17.754,0.968,21.337-5.385,27.129-5.235c5.792,0.15,10.638,5.074,24.035,4.589c13.396-0.484,27.599-6.779,55.683-47.129
				c28.083-40.35,23.242-75.535,13.235-96.517s-30.989-39.381-68.756-30.989c-23.564,4.196-42.932,1.291-57.781-0.968
				C60.74,50.211,30.397,51.502,12.32,88.947z"/>
			<path style="fill:#B50F46;" d="M85.618,229.184c-1.131,0-2.325-0.032-3.593-0.102c-17.544-0.957-26.919-12.935-59.993-58.576
				C5.958,148.404,4.083,127.365,5.34,113.608c1.346-14.727,6.478-24.492,6.655-24.826c18.82-38.975,50.779-38.631,63.648-36.671
				c14.361,2.185,34.03,5.178,57.662,0.97c42.695-9.487,61.651,15.469,69.149,31.19c4.155,8.712,8.864,22.928,7.701,41.175
				c-1.191,18.687-8.245,37.429-20.966,55.706c-26.909,38.663-41.365,46.757-55.968,47.285c-8.426,0.305-13.471-1.503-17.526-2.955
				c-2.366-0.847-4.41-1.579-6.532-1.634c-1.984-0.074-3.731,0.704-5.941,1.663C99.584,227.088,94.747,229.183,85.618,229.184z
				 M66.528,52.157c-15.167,0-38.785,5.682-53.88,36.949l-0.007,0.015c-0.052,0.096-5.235,9.814-6.578,24.587
				c-1.24,13.625,0.627,34.464,16.559,56.371c32.913,45.419,42.232,57.338,59.443,58.277c11.338,0.621,16.846-1.77,20.868-3.512
				c2.293-0.994,4.09-1.761,6.25-1.723c2.239,0.058,4.333,0.808,6.758,1.676c3.996,1.432,8.967,3.219,17.254,2.913
				c14.379-0.52,28.661-8.559,55.397-46.972c12.644-18.167,19.655-36.785,20.837-55.337c1.153-18.091-3.514-32.181-7.632-40.816
				c-7.405-15.526-26.132-40.172-68.349-30.79c-23.767,4.232-43.504,1.23-57.914-0.964C73.134,52.465,70.058,52.157,66.528,52.157z"
				/>
		</g>
		<path style="fill:#C10C2A;" d="M197.635,165.162c-4.621,7.408-9.673,14.588-15.464,21.134
			c-5.539,6.261-12.221,11.675-19.749,15.361c-7.202,3.526-15.193,5.346-23.221,4.801c-7.914-0.537-15.775-3.245-22.237-7.855
			c-6.276-4.477-11.244-10.538-15.55-16.87c-2.208-3.246-4.26-6.596-6.269-9.968c-2.171-3.645-4.319-7.3-6.257-11.076
			c-3.976-7.747-7.201-15.886-9.395-24.319c-2.223-8.543-3.377-17.345-3.522-26.169c-0.067-4.045,0.154-8.066,0.484-12.096
			c0.314-3.837,0.766-7.675,1.62-11.432c1.696-7.457,5.217-14.875,12.428-18.358c7.16-3.458,15.201-1.565,22.684-0.498
			c7.262,1.035,15.08,1.264,21.947-1.712c6.362-2.757,11.271-7.801,16.501-12.186c1.051-0.881,2.157-1.694,3.307-2.437
			c-6.492-0.371-13.659,0.198-21.572,1.956c-23.564,4.196-42.932,1.291-57.781-0.968c-14.848-2.26-45.192-0.968-63.268,36.476
			c0,0-20.982,38.736,10.007,81.345c32.28,44.546,41.964,57.458,59.718,58.427c17.754,0.968,21.337-5.385,27.129-5.235
			c5.792,0.15,10.638,5.074,24.035,4.589c13.396-0.484,27.599-6.779,55.683-47.129c5.2-7.471,9.268-14.764,12.387-21.824
			C200.092,161.151,198.879,163.166,197.635,165.162z"/>
		<path style="fill:#C10C2A;" d="M150.673,220.327c-6.127,0.976-12.411,0.384-18.281-1.604c-3.239-1.097-6.571-2.509-9.398-4.456
			c-2.676-1.843-4.803-4.362-7.469-6.219c-3.184-2.218-7.093-3.042-10.8-1.733c-3.534,1.248-6.606,3.599-10.329,4.34
			c-5.927,1.179-12.246,0.105-17.636-2.532c-5.551-2.717-10.216-6.986-14.146-11.7c-4.219-5.06-7.704-10.699-10.809-16.497
			c-3.009-5.62-5.54-11.45-8.248-17.214c-4.032-8.582-7.007-17.68-8.531-27.047c-1.467-9.017-1.568-18.241-0.267-27.284
			c0.688-4.783,1.761-9.507,3.182-14.125c1.209-3.93,2.657-7.746,4.627-11.361c3.071-5.634,7.298-10.588,12.652-14.165
			c5.162-3.448,11.078-5.524,17.139-6.728c5.915-1.175,11.999-1.667,18.025-1.613c4.766,0.042,9.538,0.019,14.29-0.402
			c5.116-0.453,10.511-1.256,15.146-3.589c0.838-0.421,1.657-0.902,2.428-1.448c-18.599,1.758-34.217-0.586-46.659-2.479
			c-14.848-2.26-45.192-0.968-63.268,36.476c0,0-20.982,38.736,10.007,81.345c32.28,44.546,41.964,57.458,59.718,58.427
			c17.754,0.968,21.337-5.385,27.129-5.235c5.792,0.15,10.638,5.074,24.035,4.589c6.816-0.246,13.842-2.001,22.799-8.976
			C154.264,219.614,152.489,220.037,150.673,220.327z"/>
		<path style="opacity:0.56;fill:#EB203B;" d="M96,57.297c0,0,7.964,4.977,22.813-0.498C115.66,63.518,98.654,64.763,96,57.297z"/>
		<path style="fill:#F44563;" d="M159.332,61.97c0,0,32.01,13.204,32.81,57.217c-0.4,14.404,21.443,5.935,10.403-25.608
			C188.54,53.568,146.928,50.767,159.332,61.97z"/>
		<path style="fill:#FFFFFF;" d="M165.734,61.318c0,0,17.605,5.602,25.208,28.008c3.601,12.004,12.489,2.966,0.8-12.404
			C176.176,56.454,159.063,57.964,165.734,61.318z"/>
		<path style="fill:#C10C2A;" d="M114.037,57.55c0,0.875-3.575,1.585-7.986,1.585c-4.411,0-7.986-0.71-7.986-1.585
			c0-0.875,3.575-0.47,7.986-0.47C110.462,57.081,114.037,56.675,114.037,57.55z"/>
		<path style="fill:#C10C2A;" d="M118.973,56.35c-3.629,1.686-7.505,2.113-11.465,2.204c-3.905,0.089-8.137,0.271-11.682-1.646
			c-0.138-0.074-0.435,0.279-0.313,0.361c3.372,2.271,7.516,2.205,11.427,2.206c4.052,0.001,8.396-0.067,11.931-2.308
			C119.11,57.015,119.545,56.084,118.973,56.35z"/>
		<g>
			<g>
				<path style="fill:#ACD01F;" d="M103.027,58.604c0,0-4.196-7.424-6.295-9.2c0,0-5.326-1.614-10.491-2.905
					c-5.165-1.291-17.27-4.681-19.529-9.684c-1.13-2.421-10.491-0.323-16.14-8.716c-4.519-8.877-0.968-13.235,1.453-15.817
					c1.291-1.453-0.796-5.473,5.871-7.238c6.667-1.765,8.824,1.111,11.831,0C72.733,3.933,81.1,5.175,84.499,8.769
					c1.438,1.765,1.373,1.961,3.399,1.373c2.026-0.588,3.922,0.915,6.602,3.791c2.68,2.876,2.092,2.222,3.987,3.334
					c1.896,1.111,2.941,3.987,3.791,7.19c0.85,3.203,0.654,5.164,2.026,6.536c1.373,1.373,1.438,2.811,0.85,5.36
					c-0.588,2.549-1.503,11.896-4.771,12.681c3.007,5.229,3.922,9.87,3.922,9.87L103.027,58.604z"/>
				<path style="fill:#709E05;" d="M104.77,59.387l-1.982-0.465l-0.078-0.139c-0.042-0.073-4.113-7.255-6.157-9.052
					c-0.66-0.199-5.63-1.686-10.4-2.879c-7.872-1.968-17.692-5.28-19.773-9.887c-0.321-0.688-1.732-0.973-3.518-1.333
					c-3.53-0.712-8.864-1.789-12.593-7.328c-4.846-9.513-0.567-14.076,1.489-16.269c0.297-0.334,0.379-0.925,0.474-1.609
					c0.259-1.865,0.614-4.421,5.57-5.733c3.915-1.037,6.298-0.51,8.213-0.086c1.344,0.297,2.405,0.532,3.584,0.097
					C72.82,3.511,81.36,4.919,84.763,8.52l0.344,0.424c1.061,1.322,1.061,1.322,2.689,0.849c2.203-0.639,4.222,0.944,6.97,3.892
					c2.129,2.285,2.146,2.295,3.043,2.783c0.223,0.122,0.497,0.271,0.862,0.485c2.074,1.216,3.128,4.28,3.959,7.41
					c0.283,1.068,0.451,1.993,0.599,2.81c0.297,1.639,0.493,2.722,1.333,3.563c1.545,1.545,1.525,3.195,0.947,5.699
					c-0.104,0.449-0.221,1.134-0.357,1.928c-0.628,3.659-1.656,9.652-4.239,10.868c2.833,5.068,3.74,9.557,3.749,9.603
					L104.77,59.387z M103.265,58.285l0.553,0.13c-0.342-1.379-1.41-5.128-3.751-9.201l-0.243-0.422l0.473-0.114
					c2.446-0.587,3.546-6.996,4.136-10.439c0.138-0.805,0.257-1.5,0.365-1.969c0.606-2.625,0.423-3.845-0.752-5.021
					c-1.001-1.001-1.225-2.237-1.535-3.948c-0.145-0.803-0.31-1.713-0.586-2.753c-0.753-2.837-1.772-5.884-3.623-6.97
					c-0.357-0.209-0.624-0.354-0.842-0.473c-0.998-0.544-1.059-0.599-3.227-2.926c-2.555-2.741-4.396-4.223-6.234-3.69
					c-2.016,0.586-2.248,0.415-3.46-1.092L84.216,9c-3.215-3.4-11.313-4.743-14.364-3.614c-1.38,0.51-2.591,0.241-3.994-0.069
					c-1.838-0.406-4.125-0.912-7.87,0.079c-4.488,1.188-4.791,3.374-5.035,5.129c-0.107,0.768-0.207,1.493-0.657,1.999
					c-3.115,3.323-5.436,7.484-1.4,15.41c3.539,5.253,8.697,6.294,12.11,6.983c2.065,0.417,3.557,0.718,4.035,1.743
					c1.532,3.391,8.381,6.758,19.287,9.485c5.114,1.278,10.455,2.894,10.508,2.91l0.129,0.07
					C98.955,50.808,102.66,57.225,103.265,58.285z"/>
			</g>
			<path style="opacity:0.57;fill:#ACD01F;" d="M73.81,5.367c0.919,1.277,1.611,2.7,2.618,3.916c0.62,0.749,1.516,1.986,2.627,1.849
				c0.506-0.063,1-0.232,1.499-0.337c0.672-0.141,1.332-0.281,1.992-0.471c0.278-0.08,0.576-0.181,0.863-0.085
				c0.347,0.116,0.63,0.443,0.895,0.679c0.54,0.48,1.116,0.923,1.635,1.427c0.187,0.182,0.385,0.499,0.625,0.617
				c0.244,0.12,0.636,0.028,0.894,0.016c0.688-0.03,1.372-0.018,2.055-0.114c0.414-0.058,0.829-0.144,1.245-0.054
				c0.566,0.121,1.06,0.54,1.486,0.906c1.223,1.051,1.842,2.479,2.391,3.958c0.508,1.368,0.992,2.833,2.087,3.851
				c0.471-0.445,1.108-0.814,1.727-0.419c0.691,0.442,0.998,1.403,1.21,2.147c0.563,1.973,0.669,4.039,0.986,6.057
				c0.05,0.321,0.107,0.641,0.19,0.955c0.038,0.143,0.024,0.091,0.105,0.285c0.094,0.226,0.188,0.451,0.285,0.675
				c0.445,1.025,1.077,2.243,2.393,2.071c0.75-0.098,1.145-0.72,1.372-1.418c-0.179-0.304-0.398-0.597-0.686-0.885
				c-1.373-1.373-1.177-3.333-2.026-6.536c-0.85-3.203-1.895-6.079-3.791-7.19c-1.896-1.111-1.307-0.458-3.987-3.334
				c-2.68-2.876-4.576-4.379-6.602-3.791c-2.026,0.588-1.961,0.392-3.399-1.373c-2.459-2.6-7.509-3.963-11.258-4.101
				C73.439,4.889,73.631,5.118,73.81,5.367z"/>
			<path style="opacity:0.56;fill:#ACD01F;" d="M103.545,44.183c-0.489-0.083-0.985-0.241-1.487-0.497
				c-5.111-2.604-2.662-11.471-3.389-16.313c-1.126,2.621-1.92,8.088-4.111,10.039c-0.093,0.083-0.268-0.038-0.333-0.097
				c-1.192-1.084-2.219-2.343-2.839-3.842c-0.902-2.182-0.622-4.514-0.138-6.758c0.372-1.725,0.584-6.807,0.671-8.557
				c-0.357,1.075-1.229,3.477-1.723,4.493c-0.369,0.76-0.285,4.114-1.299,4.114c-1.302,0-2.066-1.951-2.454-2.908
				c-1.485-3.663-1.688-10.569-2.597-14.349c-1.012,8.387-1.017,8.651-2.507,11.352c-0.051,0.092-0.154,0.155-0.256,0.088
				c-2.117-1.384-3.742-3.266-5.146-5.348c-1.195-1.771-2.262-3.631-3.635-5.275c-1.57-1.88-3.535-3.295-5.795-4.233
				c-0.993-0.412-1.988-0.835-2.931-1.355c-0.135-0.075-0.271-0.155-0.407-0.235c-1.402-0.113-3.094-0.036-5.272,0.541
				c-6.667,1.765-4.58,5.786-5.871,7.238c-2.421,2.582-5.972,6.94-1.453,15.817c5.649,8.393,15.01,6.295,16.14,8.716
				c2.26,5.003,14.365,8.393,19.529,9.684c5.165,1.291,10.491,2.905,10.491,2.905c2.098,1.775,6.295,9.2,6.295,9.2l1.277,0.299
				c0,0-0.915-4.641-3.922-9.87C101.85,48.681,102.843,46.599,103.545,44.183z"/>
			<path style="fill:#ACD01F;" d="M101.785,48.051c-1.103,0.518-2.295,0.807-3.544,0.682c-0.815-0.081-1.592-0.397-2.351-0.69
				c-1.03-0.397-2.038-0.85-3.042-1.307c-1.004-0.458-2.004-0.924-3.02-1.355c-0.919-0.39-1.872-0.677-2.779-1.102
				c-1.812-0.848-3.534-1.932-5.492-2.43c-2.047-0.521-4.242-0.057-6.179-1.041c-1.473-0.748-2.517-1.971-3.594-3.188
				c-0.534-0.604-1.085-1.196-1.728-1.687c-0.696-0.533-1.514-0.908-2.339-1.194c-1.836-0.637-3.825-0.614-5.713-1.013
				c-1.734-0.366-3.464-1.055-5.007-1.924c-2.471-1.393-4.468-3.457-5.612-6.066c-1.119-2.55-1.399-5.382-1.309-8.14
				c0.036-1.105,0.132-2.207,0.271-3.303c-1.922,2.728-3.292,6.898,0.225,13.806c5.649,8.393,15.01,6.295,16.14,8.716
				c2.26,5.003,14.365,8.393,19.529,9.684c5.165,1.291,10.491,2.905,10.491,2.905c2.098,1.775,6.295,9.2,6.295,9.2l1.277,0.299
				c0,0-0.915-4.641-3.922-9.87C100.908,48.907,101.372,48.557,101.785,48.051z"/>
			<path style="fill:#709E05;" d="M98.306,29.081c-0.346,2.428-0.93,4.836-1.643,7.181c-0.352,1.159-0.741,2.306-1.149,3.446
				c-0.203,0.567-0.399,1.135-0.597,1.704c-0.102,0.291-0.247,0.605-0.325,0.921c-0.327-0.543-0.661-1.08-0.988-1.605
				c-0.913-1.464-1.878-2.895-2.875-4.302c-0.576-0.813-1.164-1.616-1.759-2.415c0.202-0.116,0.374-0.357,0.454-0.53
				c0.491-1.061,0.75-2.271,1.015-3.406c0.278-1.193,0.523-2.395,0.728-3.603c0.415-2.439,0.689-4.896,0.862-7.364
				c0.019-0.267-0.432,0.146-0.458,0.305c-0.383,2.368-0.688,4.75-1.129,7.109c-0.229,1.225-0.487,2.445-0.827,3.644
				c-0.277,0.976-0.648,1.926-0.955,2.891c-0.34-0.305-0.7-0.583-1.07-0.848c-1.106-1.438-2.229-2.863-3.382-4.264
				c-0.368-0.447-0.738-0.895-1.107-1.343c0.101-0.082,0.188-0.179,0.22-0.228c0.687-1.054,0.628-2.746,0.747-3.973
				c0.131-1.351,0.204-2.707,0.246-4.064c0.083-2.684-0.067-5.368-0.392-8.032c-0.012-0.098-0.263,0.112-0.257,0.204
				c0.192,2.747,0.189,5.501,0.001,8.248c-0.097,1.42-0.266,2.834-0.486,4.24c-0.104,0.666-0.219,1.33-0.347,1.991
				c-0.061,0.316-0.183,0.675-0.219,1.022c-4.02-4.858-8.208-9.704-13.155-13.605c-3.237-2.552-6.728-4.712-10.322-6.718
				c-0.125-0.07-0.391,0.257-0.284,0.326c3.007,1.939,6.016,3.914,8.832,6.125c2.85,2.238,5.469,4.753,7.926,7.413
				c3.333,3.608,6.577,7.375,9.612,11.278c-3.408-1.603-7.466-2.177-11.017-2.596c-1.324-0.156-2.653-0.295-3.98-0.446
				c0.001-0.034-0.003-0.065-0.019-0.093c-0.276-0.47-1.008-0.675-1.473-0.944c-0.544-0.315-1.078-0.648-1.593-1.009
				c-1.051-0.736-1.994-1.617-2.877-2.546c-1.74-1.829-3.244-3.911-4.659-5.997c-0.028-0.041-0.154,0.091-0.133,0.136
				c1.127,2.35,2.559,4.476,4.336,6.385c0.875,0.94,1.827,1.798,2.811,2.622c0.477,0.4,0.97,0.783,1.483,1.135
				c0.029,0.02,0.059,0.042,0.088,0.062c-3.463-0.454-6.882-1.108-10.124-2.524c-2.598-1.136-5.028-2.766-6.802-5
				c-0.043-0.054-0.21,0.122-0.164,0.189c6.42,9.329,19.172,7.484,28.814,10.004c2.585,0.676,4.888,1.73,7.156,3.051
				c0.661,0.891,1.315,1.787,1.951,2.692c1.183,1.684,2.315,3.404,3.382,5.163c0.998,1.647,1.839,3.441,2.958,5.006
				c0.216,0.302,0.85-0.48,0.752-0.753c-0.303-0.846-0.721-1.665-1.178-2.463c0.081-0.051,0.154-0.113,0.194-0.163
				c0.689-0.876,0.953-2.211,1.29-3.269c0.373-1.172,0.733-2.35,1.057-3.537c0.639-2.342,1.106-4.696,1.227-7.124
				C98.715,28.583,98.326,28.942,98.306,29.081z"/>
		</g>
		<g>
			<g>
				<path style="fill:#D96F3E;" d="M110.371,58.98c0,0-1.431-24.477,12.31-36.501c5.439-4.581,8.159-5.296,9.304-6.728
					c1.145-1.431-4.151-5.726-9.018-8.732s-8.302-3.722-8.302-1.575s-2.29,10.879-3.579,13.742
					c-1.288,2.863-7.443,15.173-6.012,39.793H110.371z"/>
				<path style="fill:#B7481D;" d="M110.757,59.344h-6.026l-0.02-0.343c-0.916-15.75,1.059-29.067,5.869-39.581l0.174-0.382
					c1.292-2.873,3.546-11.511,3.546-13.593c0-0.792,0.395-1.178,0.727-1.363c1.298-0.723,4.259,0.236,8.131,2.628
					c3.28,2.026,8.935,6.057,9.326,8.315c0.08,0.466-0.072,0.776-0.215,0.954c-0.537,0.67-1.343,1.165-2.564,1.914
					c-1.574,0.966-3.73,2.288-6.79,4.864c-13.447,11.766-12.196,35.959-12.181,36.201L110.757,59.344z M105.418,58.616h4.574
					c-0.103-3.185-0.323-25.236,12.449-36.411c3.108-2.617,5.29-3.955,6.883-4.932c1.156-0.709,1.92-1.178,2.377-1.749
					c0.046-0.058,0.104-0.16,0.066-0.375c-0.25-1.447-4.116-4.809-8.991-7.82c-4.229-2.611-6.625-3.039-7.394-2.612
					c-0.151,0.085-0.353,0.252-0.353,0.727c0,2.139-2.294,10.967-3.61,13.891l-0.176,0.386
					C106.517,30.051,104.558,43.135,105.418,58.616z"/>
			</g>
			<path style="opacity:0.6;fill:#D96F3E;" d="M110.376,54.623c-0.474,0.158-0.949,0.026-1.362-0.404
				c-0.59-0.616-0.697-1.536-0.77-2.347c-0.238-2.658-0.06-5.305,0.439-7.926c0.551-2.893,1.513-5.701,2.008-8.602
				c0.458-2.686,0.531-5.439,1.261-8.076c0.51-1.844,1.314-3.639,2.369-5.236c1.009-1.527,2.352-2.995,4.088-3.686
				c0.946-0.376,1.945-0.414,2.951-0.406c1.243,0.009,2.483,0.119,3.723,0.2c1.154,0.075,2.31,0.113,3.464,0.042
				c1.728-1.085,2.817-1.655,3.438-2.431c1.145-1.431-4.151-5.726-9.018-8.732c-4.867-3.006-8.302-3.722-8.302-1.575
				s-2.29,10.879-3.578,13.742c-1.288,2.863-7.443,15.173-6.012,39.793h5.296C110.371,58.98,110.275,57.303,110.376,54.623z"/>
			<path style="opacity:0.6;fill:#D96F3E;" d="M107.135,56.872c-0.348-0.631-0.455-1.382-0.496-2.092
				c-0.069-1.206-0.014-2.419-0.059-3.626c-0.108-2.906-0.283-5.799-0.083-8.705c0.19-2.759,0.63-5.499,1.244-8.194
				c0.63-2.761,1.431-5.49,2.311-8.181c0.811-2.479,1.599-5.031,2.693-7.403c0.893-1.936,2.246-4.046,4.488-4.52
				c2.218-0.469,4.57,0.5,6.618,1.254c1.848,0.68,3.709,1.373,5.674,1.622c0.254,0.032,0.512,0.055,0.773,0.071
				c0.758-0.479,1.31-0.875,1.686-1.345c1.145-1.431-4.151-5.726-9.018-8.732c-4.867-3.006-8.302-3.722-8.302-1.575
				s-2.29,10.879-3.578,13.742c-1.288,2.863-7.443,15.173-6.012,39.793h5.296c0,0-0.014-0.254-0.026-0.713
				C109.111,58.254,107.785,58.05,107.135,56.872z"/>
			<g>
				<g>
					<path style="fill:#F2A283;" d="M122.967,7.02c-4.677-2.889-8.023-3.655-8.277-1.805c0.161,0.761,0.651,1.719,1.658,2.927
						c3.682,4.419,12.507,8.53,15.655,7.573C133.04,14.25,127.796,10.003,122.967,7.02z"/>
					<path style="fill:#B7481D;" d="M130.921,16.216c-3.955,0-11.554-3.883-14.852-7.841c-0.963-1.155-1.547-2.193-1.735-3.084
						l-0.013-0.062l0.008-0.063c0.072-0.523,0.351-0.912,0.805-1.126c1.334-0.629,4.259,0.345,8.025,2.671
						c3.241,2.001,8.848,5.994,9.309,8.261c0.075,0.369,0.018,0.69-0.168,0.953l-0.073,0.102l-0.119,0.036
						C131.766,16.166,131.367,16.216,130.921,16.216z M115.06,5.204c0.179,0.761,0.706,1.67,1.568,2.704
						c3.671,4.405,12.143,8.201,15.126,7.496c0.018-0.062,0.028-0.154,0-0.288c-0.301-1.485-4.077-4.76-8.977-7.786l0,0
						c-4.121-2.546-6.491-3.028-7.331-2.632C115.231,4.798,115.108,4.96,115.06,5.204z"/>
				</g>
			</g>
			<g style="opacity:0.6;">
				<path style="fill:#D96F3E;" d="M123.11,7.984c-3.181-1.965-5.457-2.485-5.63-1.228c0.109,0.518,0.443,1.169,1.128,1.991
					c2.504,3.005,8.506,5.802,10.647,5.15C129.961,12.901,126.394,10.012,123.11,7.984z"/>
			</g>
			<g>
				<g>
					<path style="fill:#B7481D;" d="M115.786,12.966c-4.663,7.946-7.621,17.097-7.949,26.339c-0.012,0.338,0.562-0.156,0.581-0.38
						c0.777-9.117,3.171-17.921,7.585-25.968C116.113,12.757,115.849,12.859,115.786,12.966z"/>
					<path style="fill:#B7481D;" d="M118.178,14.928c-2.459,4.629-5.657,8.927-6.844,14.125c-0.648,2.838-0.744,5.774-1.291,8.632
						c-0.566,2.958-1.395,5.853-2.122,8.773c-0.09,0.359,0.418-0.029,0.473-0.207c0.863-2.793,1.638-5.618,2.209-8.486
						c0.559-2.807,0.695-5.676,1.258-8.479c1.045-5.209,4.18-9.717,6.521-14.402C118.478,14.692,118.227,14.834,118.178,14.928z"/>
					<path style="fill:#B7481D;" d="M119.644,17.559c-2.832,3.586-5.966,7.729-5.818,12.541c0.01,0.323,0.526-0.152,0.537-0.353
						c0.252-4.651,2.871-8.421,5.458-12.108C119.957,17.444,119.764,17.407,119.644,17.559z"/>
					<path style="fill:#B7481D;" d="M126.291,15.895c-1.654,1.867-3.718,3.309-5.625,4.896c-1.726,1.437-3.424,3.096-4.203,5.251
						c-0.13,0.359,0.41-0.003,0.48-0.149c1.021-2.14,2.69-3.738,4.516-5.2c1.81-1.448,3.684-2.781,5.014-4.715
						C126.614,15.773,126.419,15.75,126.291,15.895z"/>
					<path style="fill:#B7481D;" d="M107.06,44.673c0.108-3.394,0.289-6.785,0.591-10.167c0.006-0.07-0.124,0.041-0.13,0.089
						c-0.421,3.423-0.718,6.864-0.828,10.313c-0.054,1.68-0.076,3.361-0.068,5.043c0.008,1.729,0,3.473,0.171,5.194
						c0.017,0.167,0.272-0.076,0.273-0.179c0.02-1.75-0.069-3.5-0.077-5.249C106.984,48.035,107.007,46.354,107.06,44.673z"/>
					<path style="fill:#B7481D;" d="M109.522,46.633c0.017-0.078-0.094,0.009-0.103,0.049c-0.749,3.155-0.975,6.451-0.477,9.663
						c0.012,0.078,0.204-0.082,0.196-0.153C108.771,52.995,108.837,49.783,109.522,46.633z"/>
					<path style="fill:#B7481D;" d="M113.052,28.621c-0.338,2.649-0.532,5.331-0.953,7.968c-0.408,2.553-1.462,4.847-2.45,7.212
						c-0.104,0.248,0.2,0.082,0.262-0.042c1.159-2.324,2.154-4.737,2.55-7.318c0.401-2.618,0.553-5.286,0.746-7.926
						C113.214,28.429,113.059,28.565,113.052,28.621z"/>
					<path style="fill:#B7481D;" d="M122.991,14.815c-1.155,2.273-2.72,4.281-4.595,6.003c-0.102,0.094-0.111,0.286,0.051,0.153
						c2.021-1.655,3.633-3.811,4.709-6.188C123.227,14.627,123.03,14.738,122.991,14.815z"/>
					<path style="fill:#B7481D;" d="M117.952,11.894c-1.115,2.331-2.284,4.637-3.453,6.941c-0.127,0.25,0.208,0.086,0.278-0.044
						c1.219-2.259,2.317-4.578,3.344-6.93C118.191,11.702,117.991,11.813,117.952,11.894z"/>
				</g>
				<path style="fill:#B7481D;" d="M129.333,14.092c-1.363-0.306-2.645-0.699-3.899-1.323c-1.182-0.588-2.339-1.248-3.469-1.929
					c-1.101-0.664-2.183-1.396-3.07-2.336c-0.884-0.936-1.454-2.017-1.808-3.248c-0.02-0.07-0.16,0.08-0.152,0.137
					c0.334,2.592,2.674,4.492,4.753,5.766c1.17,0.716,2.368,1.411,3.596,2.023c1.198,0.596,2.492,1.166,3.845,1.221
					C129.235,14.406,129.479,14.125,129.333,14.092z"/>
				<path style="fill:#B7481D;" d="M126.663,12.434c-0.541-0.397-1.195-0.664-1.791-0.971c-0.608-0.313-1.219-0.619-1.83-0.925
					c-0.989-0.496-2.028-0.972-2.732-1.859c-0.026-0.033-0.123,0.072-0.097,0.112c0.628,0.965,1.637,1.539,2.626,2.074
					c0.598,0.323,1.196,0.647,1.797,0.964c0.589,0.31,1.173,0.682,1.804,0.901C126.536,12.761,126.759,12.505,126.663,12.434z"/>
				<path style="fill:#B7481D;" d="M126.611,10.682c-1.934-1.137-3.927-2.153-5.968-3.084c-0.065-0.03-0.21,0.165-0.15,0.196
					c2,1.014,3.97,2.103,5.892,3.259c1.659,0.998,3.126,2.115,4.284,3.683c0.072,0.098,0.335-0.181,0.28-0.282
					C130.013,12.753,128.238,11.639,126.611,10.682z"/>
				<path style="fill:#B7481D;" d="M122.768,7.864c-0.463-0.396-1.024-0.657-1.594-0.861c-0.593-0.212-1.215-0.321-1.842-0.357
					c-0.056-0.003-0.168,0.147-0.105,0.156c0.587,0.082,1.158,0.243,1.711,0.455c0.573,0.22,1.098,0.535,1.629,0.839
					C122.653,8.146,122.846,7.931,122.768,7.864z"/>
			</g>
			<g>
				<path style="fill:#D96F3E;" d="M125.256,19.438c-4.338,2.941-8.313,6.594-10.869,11.219c-1.204,2.178-2.14,4.484-2.907,6.85
					c-0.741,2.287-1.634,4.842-1.7,7.265c-0.012,0.449,0.633-0.132,0.694-0.284c0.859-2.154,1.251-4.507,1.92-6.726
					c0.731-2.423,1.637-4.816,2.851-7.042c2.47-4.528,6.327-7.597,10.035-11.046C125.369,19.592,125.474,19.29,125.256,19.438z"/>
				<path style="fill:#D96F3E;" d="M109.942,49.281c0.046-1.165,0.153-2.329,0.3-3.485c0.017-0.131-0.127-0.089-0.192-0.062
					c-0.12,0.05-0.216,0.195-0.256,0.312c-0.425,1.237-0.689,2.507-0.781,3.813c-0.087,1.236-0.103,2.508,0.198,3.717
					c0.053,0.213,0.368,0.045,0.458-0.021c0.175-0.128,0.364-0.361,0.36-0.59C110.007,51.737,109.893,50.512,109.942,49.281z"/>
			</g>
		</g>
		<path style="fill:#FFFFFF;" d="M201.45,103.079c0.405,3.108-0.984,5.852-3.103,6.128c-2.119,0.276-4.166-2.019-4.571-5.127
			c-0.405-3.108,0.984-5.852,3.103-6.128C198.998,97.675,201.044,99.971,201.45,103.079z"/>
		<g>
			<path style="fill:none;" d="M31.886,183.441c-2.957-4.043-6.129-8.415-9.559-13.149
				C22.327,170.292,26.092,175.861,31.886,183.441z"/>
			<path style="fill:#C10C2A;" d="M119.389,221.947c-15.406-8.642-17.284,3.382-37.951,3.382c-14.072,0-37.189-25.715-49.552-41.888
				c24.868,34.003,34.291,44.413,50.159,45.278c17.754,0.968,21.337-5.385,27.129-5.235c5.792,0.15,10.639,5.074,24.035,4.589
				c9.363-0.338,19.121-3.519,33.736-19.177C151.671,223.12,133.176,229.681,119.389,221.947z"/>
		</g>
		<path style="fill:#F44563;" d="M111.719,59.343c-1.761,0.358-3.52,0.69-5.324,0.697c-1.875,0.007-3.733-0.283-5.55-0.729
			c-0.222-0.055-0.672,0.493-0.402,0.609c3.349,1.445,7.577,1.611,10.982,0.255c0.203-0.081,0.405-0.294,0.466-0.505
			C111.931,59.536,111.939,59.299,111.719,59.343z"/>
	</g>
	<g>
		<g>
			<path style="fill:#ACD01F;" d="M180.921,97.449c-1.005,0.579-2.242,0.131-3.201-0.326c-0.653-0.311-1.253-0.634-1.804-1.102
				c-1.341-1.137-2.541-2.445-3.964-3.484c-0.449-0.327-1.068-0.812-1.639-0.793c-0.593,0.02-0.729,0.761-0.78,1.234
				c-0.007,0.065-0.087,0.118-0.148,0.118c-1.562,0.003-2.904-0.746-4.233-1.482c-1.471-0.815-2.928-1.428-4.647-1.262
				c-0.438,0.042-0.819,0.168-1.141,0.475c-0.37,0.353-0.687,0.751-1.074,1.089c-0.395,0.345-0.784,0.705-1.189,1.038
				c-0.163,0.133-0.305,0.211-0.517,0.206c-0.381-0.01-0.76-0.084-1.143-0.093c-0.645-0.016-1.292-0.013-1.937-0.025
				c-0.259-0.005-0.555-0.036-0.76,0.15c-0.274,0.249-0.459,0.648-0.673,0.945c-0.38,0.53-0.812,1.02-1.198,1.546
				c-0.215,0.293-0.43,0.603-0.738,0.806c-0.335,0.221-0.752,0.255-1.142,0.249c-0.69-0.012-1.394-0.117-2.068-0.263
				c-1.693-0.366-3.384-1.168-5.107-1.488c-0.779,0.67-1.387,1.334-1.717,1.918c-1.449,2.564-4.67,1.827-8.299,7.023
				c-3.629,5.196,0.222,6.777,0.178,8.563c-0.165,3.249-0.069,8.413,8.371,11.957c8.945,2.534,14.266-4.495,16.495-3.468
				c4.555,2.168,15.058-2.64,19.448-4.801c4.389-2.16,9.083-4.19,9.083-4.19c2.526,0,9.877,2.716,9.877,2.716l1.074-0.548
				c0,0-3.397-2.712-8.61-4.595c1.827-2.49-3.08-9.59-4.181-11.727c-0.571-1.109-1.09-1.897-1.703-2.426
				C181.983,96.212,181.79,96.949,180.921,97.449z"/>
			<path style="fill:#709E05;" d="M144.235,125.338c-1.238,0-2.562-0.166-3.973-0.566c-9.046-3.796-8.754-9.537-8.614-12.297
				c0.01-0.411-0.283-0.873-0.622-1.409c-0.926-1.463-2.194-3.465,0.503-7.328c2.132-3.052,4.116-4.097,5.711-4.936
				c1.119-0.589,2.003-1.055,2.571-2.06c0.336-0.595,0.955-1.289,1.789-2.007l0.122-0.105l0.158,0.029
				c0.937,0.174,1.866,0.487,2.765,0.79c0.774,0.261,1.575,0.532,2.352,0.699c0.748,0.162,1.403,0.245,2.003,0.256
				c0.302,0.001,0.679-0.013,0.952-0.193c0.237-0.156,0.417-0.403,0.608-0.664l0.045-0.061c0.184-0.252,0.379-0.494,0.573-0.737
				c0.213-0.265,0.424-0.53,0.623-0.806c0.068-0.094,0.132-0.199,0.197-0.305c0.15-0.244,0.305-0.496,0.522-0.693
				c0.284-0.257,0.648-0.247,0.909-0.239l0.083,0.002c0.283,0.005,0.566,0.007,0.849,0.01c0.363,0.003,0.727,0.006,1.091,0.015
				c0.203,0.005,0.404,0.027,0.605,0.049c0.179,0.02,0.359,0.04,0.539,0.044c0.089,0.005,0.156-0.015,0.295-0.129
				c0.274-0.224,0.54-0.461,0.804-0.697l0.377-0.334c0.212-0.185,0.402-0.389,0.592-0.593c0.154-0.165,0.308-0.33,0.471-0.486
				c0.348-0.331,0.774-0.511,1.34-0.566c1.859-0.18,3.428,0.52,4.841,1.302c1.302,0.721,2.513,1.391,3.909,1.438
				c0.131-0.876,0.493-1.33,1.078-1.349c0.65-0.031,1.292,0.449,1.761,0.793l0.086,0.063c0.89,0.649,1.7,1.407,2.483,2.14
				c0.485,0.455,0.988,0.925,1.5,1.359c0.545,0.461,1.155,0.78,1.732,1.055c0.886,0.422,2.017,0.842,2.891,0.337
				c0.655-0.377,0.894-0.913,0.751-1.687l-0.171-0.934l0.719,0.62c0.607,0.523,1.14,1.279,1.782,2.526
				c0.194,0.376,0.518,0.927,0.894,1.564c1.732,2.939,4.569,7.754,3.478,10.14c4.996,1.873,8.297,4.483,8.331,4.51l0.405,0.323
				l-1.667,0.851l-0.137-0.051c-0.073-0.027-7.192-2.648-9.693-2.695c-0.582,0.253-4.951,2.16-9.004,4.155
				c-6.689,3.292-15.545,6.8-19.739,4.802c-0.636-0.29-1.792,0.346-3.259,1.153C151.239,123.651,148.175,125.338,144.235,125.338z
				 M141.915,95.348c-0.715,0.629-1.239,1.223-1.521,1.723c-0.665,1.177-1.674,1.708-2.842,2.323
				c-1.531,0.805-3.435,1.809-5.474,4.727c-2.443,3.498-1.359,5.21-0.487,6.587c0.381,0.602,0.741,1.17,0.725,1.792
				c-0.212,4.18,0.631,8.477,8.166,11.641c5.6,1.584,9.837-0.747,12.64-2.291c1.696-0.933,2.922-1.606,3.865-1.172
				c3.088,1.47,9.892-0.234,19.16-4.797c4.347-2.139,9.052-4.177,9.099-4.197l0.133-0.027c0,0,0,0,0.001,0
				c2.393,0,8.8,2.302,9.854,2.687l0.465-0.237c-1.058-0.764-4.033-2.76-8.094-4.227l-0.42-0.152l0.264-0.361
				c1.368-1.864-1.667-7.013-3.296-9.779c-0.381-0.646-0.71-1.204-0.912-1.598c-0.386-0.75-0.725-1.305-1.061-1.729
				c-0.107,0.62-0.475,1.122-1.092,1.477v0c-1.145,0.659-2.478,0.179-3.512-0.313c-0.619-0.295-1.275-0.638-1.877-1.149
				c-0.525-0.445-1.033-0.921-1.525-1.381c-0.769-0.719-1.563-1.462-2.42-2.088l-0.088-0.064c-0.389-0.286-0.918-0.654-1.342-0.664
				c-0.239,0.008-0.393,0.323-0.459,0.936c-0.029,0.261-0.289,0.414-0.489,0.417c-1.634,0-3.02-0.767-4.36-1.51
				c-1.343-0.745-2.789-1.4-4.478-1.236c-0.414,0.04-0.705,0.158-0.943,0.384c-0.154,0.147-0.299,0.302-0.444,0.458
				c-0.205,0.221-0.411,0.441-0.641,0.641l-0.372,0.33c-0.272,0.242-0.544,0.485-0.825,0.715c-0.176,0.145-0.419,0.281-0.738,0.281
				c-0.198-0.005-0.395-0.027-0.594-0.048c-0.182-0.02-0.364-0.04-0.548-0.045c-0.36-0.009-0.72-0.012-1.08-0.015
				c-0.285-0.003-0.57-0.005-0.855-0.01l-0.09-0.002c-0.182-0.005-0.356-0.01-0.44,0.066c-0.146,0.133-0.276,0.344-0.402,0.549
				c-0.074,0.12-0.147,0.239-0.223,0.345c-0.205,0.285-0.424,0.559-0.643,0.834c-0.188,0.236-0.378,0.472-0.557,0.715l-0.043,0.06
				c-0.208,0.284-0.442,0.605-0.78,0.828c-0.426,0.281-0.932,0.307-1.332,0.304c-0.645-0.011-1.342-0.1-2.133-0.271
				c-0.813-0.176-1.632-0.452-2.424-0.719C143.606,95.806,142.755,95.519,141.915,95.348z"/>
		</g>
		<g>
			<path style="fill:#EB203B;" d="M149.643,189.84c0,0,8.277,39.627,55.309,51.12c49.087,12.084,63.545,15.393,76.574,5.533
				c13.028-9.86,11.77-16.444,15.922-19.777c4.152-3.333,10.474-2.757,19.584-11.049c9.109-8.292,15.336-21.139,11.081-66.114
				c-4.254-44.975-28.538-66.781-48.013-75.559s-45.116-9.228-66.625,19.079c-14.038,16.932-29.348,26.392-41.106,33.622
				C160.612,133.924,140.094,152.843,149.643,189.84z"/>
			<path style="fill:#B50F46;" d="M263.175,252.609c-11.543,0.001-28.49-3.985-58.303-11.324
				c-24.396-5.961-38.201-19.606-45.485-30.003c-7.796-11.125-9.995-21.018-10.069-21.365
				c-9.936-38.511,12.688-57.241,22.877-63.507c11.37-6.992,26.943-16.568,41.023-33.55c24.316-32,52.429-25.747,67.021-19.171
				c8.086,3.645,19.829,10.821,29.846,24.311c10.258,13.815,16.435,31.149,18.362,51.522c4.077,43.094-1.258,57.354-11.188,66.393
				c-5.729,5.214-10.342,6.943-14.048,8.331c-2.163,0.811-4.03,1.511-5.551,2.732c-1.423,1.142-2.199,2.709-3.181,4.694
				c-1.816,3.671-4.303,8.697-12.749,15.089C276.485,250.727,271.105,252.608,263.175,252.609z M256.835,69.056
				c-13.305,0-28.852,5.475-43.094,24.219c-14.159,17.078-29.786,26.688-41.197,33.705c-10.062,6.188-32.407,24.692-22.577,62.776
				l0.004,0.016c0.021,0.098,2.154,9.991,9.981,21.152c7.219,10.293,20.9,23.802,45.079,29.711
				c50.049,12.321,63.662,15.149,76.292,5.591c8.32-6.297,10.767-11.242,12.553-14.852c1.018-2.059,1.823-3.685,3.361-4.919
				c1.605-1.288,3.519-2.006,5.736-2.836c3.653-1.369,8.199-3.072,13.832-8.199c9.778-8.9,15.024-23.018,10.974-65.835
				c-1.915-20.249-8.05-37.47-18.234-51.186c-9.931-13.374-21.569-20.487-29.583-24.1C274.088,71.65,265.992,69.056,256.835,69.056z
				"/>
		</g>
		<path style="fill:#C10C2A;" d="M324.876,133.291c1.156,7.94,1.875,15.975,1.699,24.005c-0.168,7.68-1.641,15.444-4.734,22.499
			c-2.959,6.749-7.484,12.769-13.438,17.152c-5.87,4.321-12.992,7.088-20.262,7.691c-7.06,0.586-14.143-0.717-20.922-2.602
			c-3.476-0.966-6.904-2.098-10.315-3.271c-3.686-1.268-7.363-2.557-10.964-4.055c-7.388-3.074-14.482-6.869-21.027-11.481
			c-6.631-4.673-12.665-10.162-18.006-16.266c-2.448-2.798-4.68-5.749-6.841-8.772c-2.057-2.878-4.019-5.838-5.65-8.981
			c-3.237-6.238-5.171-13.531-2.18-20.255c2.969-6.676,9.734-10.122,15.616-13.816c5.709-3.585,11.328-8.066,14.379-14.229
			c2.826-5.71,3.275-12.163,4.34-18.343c0.214-1.242,0.507-2.469,0.873-3.672c-4.774,3.594-9.464,8.247-13.97,14.178
			c-14.038,16.932-29.348,26.392-41.106,33.622c-11.757,7.23-32.275,26.148-22.726,63.145c0,0,8.277,39.627,55.309,51.12
			c49.087,12.085,63.545,15.393,76.574,5.533c13.028-9.86,11.77-16.444,15.922-19.777c4.152-3.333,10.474-2.756,19.583-11.049
			c9.109-8.292,15.335-21.139,11.081-66.114c-0.788-8.327-2.264-15.858-4.267-22.662
			C324.219,129.019,324.565,131.152,324.876,133.291z"/>
		<path style="fill:#C10C2A;" d="M324.683,199.865c-3.718,4.321-8.477,7.637-13.775,9.727c-2.923,1.153-6.099,2.141-9.237,2.454
			c-2.972,0.296-5.958-0.209-8.931,0.072c-3.55,0.335-6.781,2.076-8.605,5.196c-1.738,2.973-2.497,6.446-4.669,9.176
			c-3.458,4.345-8.528,7.343-13.874,8.693c-5.507,1.39-11.313,1.164-16.868,0.191c-5.963-1.044-11.756-2.931-17.375-5.155
			c-5.447-2.156-10.683-4.743-16.005-7.179c-7.923-3.626-15.41-8.242-22.04-13.908c-6.381-5.454-11.928-11.864-16.384-18.98
			c-2.356-3.763-4.408-7.715-6.153-11.797c-1.485-3.474-2.735-7.011-3.499-10.716c-1.19-5.775-1.167-11.759,0.466-17.447
			c1.574-5.483,4.492-10.451,8.028-14.893c3.452-4.336,7.428-8.292,11.686-11.832c3.368-2.8,6.702-5.649,9.785-8.765
			c3.32-3.355,6.627-7.121,8.494-11.509c0.338-0.793,0.627-1.616,0.843-2.457c-12.003,12.274-24.349,19.901-34.201,25.96
			c-11.757,7.23-32.275,26.148-22.726,63.145c0,0,8.277,39.627,55.309,51.12c49.087,12.085,63.545,15.393,76.574,5.533
			c13.028-9.86,11.77-16.444,15.922-19.777c4.152-3.333,10.474-2.756,19.583-11.049c4.635-4.219,8.522-9.621,10.664-19.831
			C326.779,197.233,325.785,198.583,324.683,199.865z"/>
		<path style="opacity:0.56;fill:#EB203B;" d="M189.551,117.963c0,0,8.541-1.236,15.707-13.892
			C207.036,110.656,195.845,121.624,189.551,117.963z"/>
		<path style="fill:#F44563;" d="M236.75,83.645c0,0,30.292-9.74,56.981,20.658c8.27,10.342,18.565-8.566-7.905-24.138
			C252.25,60.411,221.398,83.149,236.75,83.645z"/>
		<path style="fill:#FFFFFF;" d="M240.854,79.387c0,0,15.675-6.522,34.309,4.682c9.652,6.282,10.521-5.333-6.802-9.176
			C245.291,69.776,234.183,80.994,240.854,79.387z"/>
		<path style="fill:#C10C2A;" d="M202.354,107.433c0.52,0.614-1.567,3.234-4.661,5.852c-3.094,2.618-6.023,4.243-6.543,3.629
			c-0.52-0.614,2.229-2.452,5.323-5.07S201.835,106.819,202.354,107.433z"/>
		<path style="fill:#C10C2A;" d="M205.104,103.661c-1.545,3.337-4.01,5.938-6.734,8.352c-2.686,2.381-5.547,5.02-9.171,5.78
			c-0.141,0.029-0.14,0.454-0.006,0.439c3.714-0.409,6.581-2.915,9.325-5.236c2.843-2.405,5.849-5.032,6.999-8.702
			C205.594,104.046,205.348,103.135,205.104,103.661z"/>
		<g>
			<g>
				<path style="fill:#ACD01F;" d="M195.256,114.708c0,0-7.351-2.717-9.877-2.716c0,0-4.694,2.03-9.083,4.19
					c-4.389,2.16-14.893,6.969-19.448,4.801c-2.23-1.027-7.55,6.001-16.495,3.468c-8.44-3.544-8.536-8.709-8.371-11.957
					c0.043-1.785-3.807-3.367-0.178-8.563c3.629-5.196,6.849-4.459,8.299-7.023c1.45-2.564,8.055-6.66,12.574-6.156
					c2.056,0.384,2.127,0.561,3.199-1.055c1.072-1.616,3.294-1.686,6.881-1.26s2.786,0.317,4.776-0.029
					c1.989-0.346,4.43,1.051,6.928,2.793c2.497,1.742,3.524,3.234,5.302,3.382c1.778,0.148,2.677,1.118,3.778,3.255
					c1.101,2.137,6.008,9.237,4.181,11.727c5.213,1.883,8.61,4.595,8.61,4.595L195.256,114.708z"/>
				<path style="fill:#709E05;" d="M144.235,125.338c-1.238,0-2.562-0.166-3.973-0.566c-9.046-3.796-8.754-9.537-8.614-12.297
					c0.01-0.411-0.283-0.873-0.622-1.409c-0.926-1.463-2.194-3.465,0.503-7.328c2.132-3.052,4.116-4.097,5.711-4.936
					c1.119-0.589,2.003-1.055,2.571-2.06c1.553-2.747,8.375-6.83,12.902-6.324l0.493,0.093c1.529,0.297,1.529,0.297,2.39-1
					c1.164-1.754,3.523-1.844,7.199-1.407c2.852,0.339,2.869,0.334,3.787,0.145c0.228-0.047,0.509-0.105,0.892-0.172
					c2.182-0.379,4.736,1.145,7.176,2.848c0.833,0.581,1.499,1.13,2.088,1.615c1.181,0.974,1.962,1.617,3.05,1.708
					c2.001,0.166,2.967,1.336,4.048,3.435c0.194,0.376,0.518,0.927,0.894,1.564c1.732,2.939,4.569,7.754,3.478,10.14
					c4.996,1.873,8.297,4.483,8.331,4.51l0.405,0.323l-1.667,0.851l-0.137-0.051c-0.073-0.027-7.192-2.648-9.693-2.695
					c-0.582,0.253-4.951,2.16-9.004,4.155c-6.689,3.292-15.545,6.8-19.739,4.802c-0.636-0.29-1.792,0.346-3.259,1.153
					C151.239,123.651,148.175,125.338,144.235,125.338z M151.865,91.04c-4.245,0-10.084,3.578-11.471,6.032
					c-0.665,1.177-1.674,1.708-2.842,2.323c-1.531,0.805-3.435,1.809-5.474,4.727c-2.443,3.498-1.359,5.21-0.487,6.587
					c0.381,0.602,0.741,1.17,0.725,1.792c-0.212,4.18,0.631,8.477,8.166,11.641c5.6,1.584,9.837-0.747,12.64-2.291
					c1.696-0.933,2.922-1.606,3.865-1.172c3.088,1.47,9.892-0.234,19.16-4.797c4.347-2.139,9.052-4.177,9.099-4.197l0.133-0.027
					c0,0,0,0,0.001,0c2.393,0,8.8,2.302,9.854,2.687l0.465-0.237c-1.058-0.764-4.033-2.76-8.094-4.227l-0.42-0.152l0.264-0.361
					c1.368-1.864-1.667-7.013-3.296-9.779c-0.381-0.646-0.71-1.204-0.912-1.598c-1.133-2.201-1.986-2.948-3.509-3.075
					c-1.297-0.108-2.188-0.842-3.42-1.858c-0.579-0.477-1.234-1.018-2.045-1.583c-2.212-1.544-4.741-3.077-6.678-2.738
					c-0.375,0.065-0.649,0.122-0.872,0.168c-1.022,0.21-1.097,0.209-4.001-0.136c-3.417-0.406-5.588-0.355-6.562,1.113
					c-1.067,1.607-1.331,1.626-3.075,1.288l-0.464-0.089C152.372,91.053,152.121,91.04,151.865,91.04z"/>
			</g>
			<path style="opacity:0.57;fill:#ACD01F;" d="M143.159,94.709c1.402,0.35,2.733,0.938,4.161,1.193
				c0.879,0.157,2.242,0.493,2.94-0.263c0.318-0.344,0.564-0.757,0.851-1.126c0.388-0.497,0.767-0.988,1.118-1.513
				c0.148-0.221,0.297-0.469,0.555-0.572c0.312-0.125,0.705-0.063,1.031-0.055c0.664,0.016,1.331-0.015,1.994,0.03
				c0.24,0.016,0.566,0.121,0.805,0.062c0.243-0.06,0.462-0.358,0.637-0.519c0.465-0.429,0.951-0.827,1.374-1.299
				c0.256-0.286,0.496-0.593,0.841-0.777c0.469-0.251,1.064-0.25,1.581-0.246c1.482,0.011,2.764,0.646,4.027,1.357
				c1.169,0.658,2.378,1.398,3.75,1.462c0.067-0.592,0.294-1.229,0.962-1.319c0.747-0.101,1.533,0.392,2.123,0.788
				c1.566,1.05,2.867,2.436,4.287,3.663c0.226,0.195,0.455,0.386,0.7,0.557c0.111,0.078,0.071,0.049,0.243,0.138
				c0.2,0.103,0.4,0.205,0.601,0.305c0.921,0.455,2.088,0.934,2.908,0.032c0.468-0.514,0.375-1.185,0.121-1.809
				c-0.306-0.107-0.633-0.183-1.007-0.214c-1.778-0.148-2.804-1.64-5.301-3.382s-4.938-3.139-6.928-2.793
				c-1.989,0.346-1.189,0.455-4.776,0.029s-5.809-0.356-6.881,1.26c-1.072,1.616-1.143,1.439-3.199,1.055
				c-3.268-0.365-7.62,1.678-10.331,3.807C142.614,94.594,142.885,94.641,143.159,94.709z"/>
			<path style="opacity:0.56;fill:#ACD01F;" d="M187.059,104.285c-0.392,0.232-0.834,0.415-1.338,0.534
				c-5.131,1.207-8.677-6.466-12.061-9.431c0.766,2.507,3.455,6.813,3.076,9.482c-0.016,0.114-0.21,0.133-0.291,0.13
				c-1.48-0.053-2.947-0.326-4.272-1.01c-1.928-0.995-3.116-2.798-4.109-4.658c-0.763-1.431-3.631-5.121-4.609-6.4
				c0.388,0.965,1.202,3.168,1.459,4.175c0.192,0.752,2.242,3.055,1.531,3.657c-0.914,0.773-2.608-0.142-3.448-0.583
				c-3.217-1.688-7.458-6.412-10.34-8.523c4.269,6.484,4.422,6.672,4.981,9.451c0.019,0.095-0.016,0.2-0.128,0.214
				c-2.306,0.286-4.564-0.07-6.784-0.696c-1.89-0.533-3.742-1.204-5.682-1.542c-2.218-0.386-4.436-0.214-6.578,0.471
				c-0.941,0.301-1.89,0.594-2.86,0.789c-0.139,0.028-0.282,0.052-0.425,0.077c-1.051,0.753-2.191,1.812-3.377,3.509
				c-3.629,5.196,0.222,6.777,0.178,8.563c-0.165,3.249-0.069,8.413,8.371,11.957c8.945,2.534,14.266-4.495,16.495-3.468
				c4.555,2.168,15.058-2.64,19.448-4.801c4.389-2.16,9.083-4.19,9.083-4.19c2.526,0,9.877,2.716,9.877,2.716l1.074-0.548
				c0,0-3.397-2.712-8.61-4.595C188.54,108.446,188.001,106.397,187.059,104.285z"/>
			<path style="fill:#ACD01F;" d="M188.12,108.044c-0.467,1.018-1.131,1.928-2.081,2.582c-0.62,0.427-1.352,0.667-2.059,0.912
				c-0.958,0.333-1.934,0.614-2.91,0.889c-0.976,0.275-1.954,0.541-2.923,0.842c-0.876,0.272-1.715,0.636-2.603,0.877
				c-1.775,0.48-3.626,0.743-5.294,1.556c-1.745,0.85-3.009,2.478-4.953,2.938c-1.477,0.35-2.936,0.111-4.414-0.103
				c-0.733-0.106-1.471-0.195-2.213-0.158c-0.805,0.04-1.601,0.262-2.35,0.551c-1.666,0.643-3.047,1.84-4.609,2.681
				c-1.434,0.773-3.056,1.317-4.654,1.622c-2.56,0.49-5.186,0.227-7.538-0.923c-2.298-1.124-4.177-2.945-5.75-4.933
				c-0.631-0.797-1.217-1.626-1.77-2.478c0.271,3.054,1.786,6.793,8.353,9.551c8.945,2.534,14.266-4.495,16.495-3.468
				c4.555,2.168,15.058-2.64,19.448-4.801c4.389-2.16,9.083-4.19,9.083-4.19c2.526,0,9.877,2.716,9.877,2.716l1.074-0.548
				c0,0-3.397-2.712-8.61-4.595C188.014,109.164,188.131,108.643,188.12,108.044z"/>
			<path style="fill:#709E05;" d="M174.419,96.802c1.198,1.909,2.218,3.944,3.11,6.013c0.441,1.022,0.849,2.057,1.24,3.099
				c0.194,0.518,0.395,1.033,0.593,1.549c0.102,0.265,0.186,0.572,0.319,0.839c-0.552-0.187-1.105-0.365-1.646-0.539
				c-1.509-0.485-3.036-0.916-4.571-1.311c-0.886-0.228-1.776-0.443-2.668-0.65c0.073-0.201,0.051-0.472,0.004-0.641
				c-0.286-1.036-0.822-2.038-1.31-2.991c-0.513-1.002-1.055-1.99-1.628-2.959c-1.157-1.957-2.423-3.844-3.767-5.677
				c-0.145-0.198-0.217,0.359-0.14,0.486c1.137,1.889,2.337,3.74,3.428,5.657c0.566,0.995,1.109,2.004,1.583,3.047
				c0.385,0.849,0.688,1.736,1.047,2.595c-0.419-0.012-0.837,0.007-1.254,0.041c-1.63-0.352-3.264-0.685-4.903-0.984
				c-0.523-0.095-1.049-0.19-1.574-0.285c0.022-0.118,0.026-0.238,0.019-0.29c-0.144-1.147-1.189-2.299-1.834-3.23
				c-0.71-1.026-1.464-2.02-2.24-2.997c-1.535-1.932-3.234-3.725-5.044-5.401c-0.067-0.062-0.118,0.235-0.059,0.295
				c1.766,1.813,3.398,3.747,4.898,5.785c0.775,1.053,1.496,2.146,2.176,3.262c0.322,0.529,0.635,1.063,0.939,1.603
				c0.145,0.258,0.273,0.582,0.453,0.847c-5.703-1.021-11.519-1.934-17.304-1.734c-3.786,0.131-7.516,0.689-11.228,1.415
				c-0.129,0.025-0.122,0.412-0.005,0.397c3.26-0.424,6.544-0.826,9.831-0.946c3.328-0.122,6.658,0.087,9.96,0.495
				c4.48,0.553,8.992,1.268,13.437,2.205c-3.342,0.899-6.529,2.905-9.269,4.719c-1.022,0.677-2.036,1.368-3.057,2.05
				c-0.019-0.024-0.041-0.044-0.069-0.054c-0.472-0.166-1.108,0.125-1.594,0.212c-0.569,0.102-1.141,0.185-1.717,0.238
				c-1.174,0.108-2.359,0.049-3.529-0.078c-2.306-0.25-4.598-0.817-6.828-1.441c-0.044-0.012-0.054,0.156-0.012,0.174
				c2.185,0.979,4.452,1.621,6.832,1.905c1.171,0.14,2.349,0.177,3.528,0.171c0.572-0.003,1.145-0.026,1.714-0.084
				c0.032-0.003,0.066-0.006,0.099-0.009c-2.699,1.738-5.485,3.309-8.6,4.239c-2.497,0.746-5.169,1.044-7.739,0.531
				c-0.062-0.012-0.075,0.21-0.003,0.23c10.042,2.732,17.891-6.132,26.151-10.088c2.214-1.061,4.455-1.688,6.831-2.108
				c0.993,0.232,1.983,0.473,2.966,0.73c1.829,0.479,3.645,1.013,5.437,1.614c1.678,0.563,3.332,1.322,5.047,1.756
				c0.331,0.084,0.311-0.841,0.081-0.974c-0.715-0.413-1.494-0.74-2.289-1.028c0.027-0.084,0.041-0.171,0.039-0.229
				c-0.036-1.023-0.644-2.117-1.036-3.059c-0.434-1.044-0.881-2.083-1.359-3.108c-0.942-2.022-2.012-3.951-3.368-5.726
				C174.41,96.21,174.351,96.693,174.419,96.802z"/>
		</g>
		<g>
			<g>
				<path style="fill:#D96F3E;" d="M200.631,110.613c0,0-15.535-16.32-13.034-32.912c1.096-6.442,2.579-8.559,2.533-10.243
					c-0.046-1.684-6.311-1.552-11.509-0.771c-5.198,0.781-8.033,2.318-6.758,3.824c1.275,1.506,4.852,8.991,5.647,11.764
					c0.796,2.773,3.786,15.062,19.406,31.482L200.631,110.613z"/>
				<path style="fill:#B7481D;" d="M196.892,114.216l-0.218-0.229c-9.993-10.506-16.514-21.02-19.38-31.25l-0.104-0.37
					c-0.799-2.783-4.347-10.181-5.582-11.64c-0.47-0.555-0.422-1.061-0.299-1.388c0.48-1.275,3.127-2.362,7.263-2.983
					c3.504-0.525,9.863-1.056,11.478,0.296c0.333,0.279,0.41,0.587,0.415,0.797c0.022,0.789-0.25,1.615-0.663,2.866
					c-0.53,1.611-1.258,3.818-1.874,7.442c-2.446,16.23,12.792,32.463,12.946,32.625l0.245,0.257L196.892,114.216z M185.328,66.471
					c-1.893,0-4.22,0.181-6.657,0.547c-4.518,0.678-6.452,1.802-6.736,2.557c-0.056,0.15-0.098,0.387,0.183,0.72
					c1.269,1.499,4.901,9.054,5.714,11.887l0.106,0.375c2.816,10.05,9.209,20.391,19.003,30.74l3.208-2.715
					c-1.962-2.174-15.207-17.51-12.882-32.931c0.626-3.679,1.362-5.913,1.9-7.545c0.39-1.184,0.648-1.967,0.629-2.638
					c-0.002-0.068-0.022-0.174-0.176-0.302C189.07,66.705,187.48,66.471,185.328,66.471z"/>
			</g>
			<path style="opacity:0.6;fill:#D96F3E;" d="M198.048,107.554c-0.238,0.393-0.65,0.582-1.195,0.525
				c-0.78-0.081-1.401-0.664-1.933-1.189c-1.745-1.723-3.191-3.686-4.397-5.821c-1.331-2.356-2.323-4.898-3.698-7.225
				c-1.273-2.156-2.856-4.13-3.91-6.413c-0.737-1.596-1.239-3.333-1.446-5.079c-0.198-1.67-0.128-3.498,0.68-5.012
				c0.44-0.825,1.119-1.445,1.829-2.037c0.878-0.732,1.812-1.39,2.73-2.07c0.854-0.632,1.687-1.292,2.454-2.027
				c0.568-1.787,0.994-2.833,0.968-3.746c-0.046-1.684-6.311-1.552-11.509-0.771c-5.198,0.781-8.033,2.318-6.758,3.824
				c1.275,1.506,4.852,8.991,5.647,11.763c0.796,2.773,3.786,15.062,19.406,31.482l3.715-3.144
				C200.631,110.613,199.568,109.493,198.048,107.554z"/>
			<path style="opacity:0.6;fill:#D96F3E;" d="M197.11,111.055c-0.619-0.236-1.14-0.7-1.59-1.173
				c-0.764-0.805-1.445-1.689-2.194-2.509c-1.801-1.974-3.641-3.899-5.226-6.057c-1.504-2.048-2.823-4.231-3.992-6.486
				c-1.198-2.31-2.255-4.701-3.235-7.111c-0.903-2.221-1.865-4.478-2.506-6.792c-0.523-1.888-0.827-4.172,0.465-5.835
				c1.277-1.645,3.503-2.362,5.387-3.049c1.7-0.619,3.417-1.239,4.943-2.231c0.197-0.128,0.392-0.265,0.584-0.409
				c0.247-0.786,0.399-1.391,0.384-1.944c-0.046-1.684-6.311-1.552-11.509-0.771c-5.198,0.781-8.033,2.318-6.758,3.824
				c1.275,1.506,4.852,8.991,5.647,11.763c0.796,2.773,3.786,15.062,19.406,31.482l3.715-3.144c0,0-0.16-0.17-0.441-0.485
				C199.317,110.851,198.265,111.495,197.11,111.055z"/>
			<g>
				<g>
					<path style="fill:#F2A283;" d="M178.621,66.687c-4.995,0.75-7.797,2.199-6.878,3.648c0.564,0.439,1.477,0.819,2.901,1.069
						c5.206,0.914,13.837-1.441,15.476-3.981C189.979,65.779,183.779,65.913,178.621,66.687z"/>
					<path style="fill:#B7481D;" d="M177.153,71.935c-0.915,0-1.782-0.064-2.566-0.202c-1.362-0.239-2.388-0.621-3.049-1.134
						l-0.077-0.085c-0.26-0.41-0.296-0.848-0.104-1.268c0.562-1.233,3.192-2.286,7.214-2.89l0.05,0.331l-0.05-0.331
						c3.46-0.521,9.763-1.048,11.434,0.269c0.272,0.215,0.423,0.473,0.449,0.768l0.01,0.114l-0.063,0.096
						C188.909,69.916,182.293,71.934,177.153,71.935z M171.997,70.107c0.577,0.428,1.486,0.753,2.704,0.967
						c5.189,0.911,13.382-1.452,15.06-3.722c-0.024-0.054-0.072-0.124-0.171-0.202c-1.094-0.862-5.686-0.919-10.92-0.132l0,0
						c-4.402,0.661-6.35,1.728-6.705,2.506C171.876,69.721,171.885,69.908,171.997,70.107z"/>
				</g>
			</g>
			<g style="opacity:0.6;">
				<path style="fill:#D96F3E;" d="M179.293,67.279c-3.398,0.51-5.303,1.496-4.678,2.481c0.384,0.298,1.005,0.557,1.973,0.727
					c3.541,0.621,9.411-0.98,10.526-2.708C187.018,66.661,182.801,66.752,179.293,67.279z"/>
			</g>
			<g>
				<g>
					<path style="fill:#B7481D;" d="M177.114,75.121c1.446,8.342,4.803,16.517,10.061,23.194c0.193,0.244,0.301-0.443,0.182-0.611
						c-4.867-6.857-8.414-14.453-10.095-22.718C177.219,74.78,177.095,75.009,177.114,75.121z"/>
					<path style="fill:#B7481D;" d="M179.956,75.078c1.023,4.706,1.331,9.62,3.585,13.971c1.23,2.376,2.906,4.492,4.219,6.822
						c1.359,2.411,2.497,4.934,3.719,7.413c0.15,0.305,0.276-0.268,0.209-0.426c-1.053-2.471-2.186-4.913-3.488-7.264
						c-1.274-2.301-2.882-4.394-4.151-6.694c-2.359-4.274-2.837-9.297-3.975-13.973C180.027,74.734,179.935,74.982,179.956,75.078z"
						/>
					<path style="fill:#B7481D;" d="M182.546,76.052c0.142,4.197,0.404,8.963,3.364,12.251c0.199,0.221,0.279-0.419,0.167-0.566
						c-2.584-3.412-2.986-7.611-3.359-11.733C182.698,75.786,182.54,75.874,182.546,76.052z"/>
					<path style="fill:#B7481D;" d="M186.221,70.94c-0.052,2.292-0.644,4.528-1.039,6.773c-0.358,2.033-0.564,4.205,0.169,6.178
						c0.122,0.329,0.286-0.246,0.248-0.389c-0.554-2.107-0.333-4.219,0.081-6.329c0.409-2.09,0.933-4.138,0.718-6.284
						C186.375,70.662,186.225,70.761,186.221,70.94z"/>
					<path style="fill:#B7481D;" d="M189.816,102.542c-1.939-2.445-3.825-4.931-5.621-7.483c-0.037-0.053-0.063,0.102-0.038,0.139
						c1.737,2.651,3.571,5.241,5.541,7.725c0.96,1.21,1.942,2.403,2.946,3.578c1.032,1.208,2.062,2.436,3.204,3.542
						c0.111,0.107,0.145-0.215,0.085-0.288c-1.025-1.239-2.126-2.414-3.171-3.636C191.758,104.946,190.776,103.753,189.816,102.542z
						"/>
					<path style="fill:#B7481D;" d="M192.706,102.455c-0.035-0.065-0.061,0.062-0.043,0.096c1.347,2.658,3.146,5.104,5.402,7.061
						c0.055,0.048,0.095-0.179,0.047-0.224C195.956,107.364,194.096,105.072,192.706,102.455z"/>
					<path style="fill:#B7481D;" d="M184.49,87.725c1.335,2.059,2.792,4.055,4.062,6.154c1.23,2.033,1.852,4.268,2.563,6.514
						c0.074,0.235,0.189-0.061,0.159-0.185c-0.567-2.318-1.301-4.602-2.556-6.647c-1.273-2.074-2.75-4.036-4.181-6.003
						C184.489,87.495,184.461,87.681,184.49,87.725z"/>
					<path style="fill:#B7481D;" d="M183.265,72.141c0.539,2.28,0.633,4.617,0.341,6.939c-0.016,0.127,0.092,0.266,0.127,0.077
						c0.435-2.361,0.286-4.83-0.37-7.136C183.319,71.869,183.247,72.064,183.265,72.141z"/>
					<path style="fill:#B7481D;" d="M177.997,73.083c0.602,2.297,1.151,4.608,1.699,6.919c0.059,0.25,0.197-0.063,0.169-0.196
						c-0.486-2.308-1.092-4.587-1.768-6.846C178.05,72.806,177.976,73.003,177.997,73.083z"/>
				</g>
				<path style="fill:#B7481D;" d="M187.285,67.869c-1.138,0.594-2.27,1.08-3.521,1.386c-1.178,0.289-2.381,0.513-3.579,0.706
					c-1.167,0.188-2.36,0.317-3.54,0.184c-1.176-0.132-2.218-0.552-3.196-1.205c-0.056-0.037-0.064,0.151-0.026,0.186
					c1.773,1.62,4.542,1.564,6.757,1.223c1.246-0.192,2.499-0.416,3.723-0.716c1.194-0.293,2.44-0.661,3.422-1.426
					C187.402,68.147,187.407,67.806,187.285,67.869z"/>
				<path style="fill:#B7481D;" d="M184.427,68.291c-0.615,0.042-1.233,0.244-1.832,0.382c-0.612,0.141-1.223,0.29-1.833,0.437
					c-0.988,0.239-2,0.522-3.02,0.318c-0.038-0.008-0.044,0.123-0.002,0.136c1.014,0.304,2.062,0.108,3.073-0.104
					c0.611-0.128,1.223-0.256,1.833-0.391c0.597-0.132,1.228-0.218,1.8-0.439C184.533,68.596,184.537,68.283,184.427,68.291z"/>
				<path style="fill:#B7481D;" d="M183.351,67.093c-2.032,0.351-4.033,0.821-6.017,1.379c-0.063,0.018-0.049,0.24,0.011,0.226
					c2.005-0.476,4.033-0.882,6.067-1.212c1.757-0.285,3.449-0.372,5.191,0.04c0.109,0.026,0.128-0.326,0.029-0.364
					C186.967,66.526,185.06,66.798,183.351,67.093z"/>
				<path style="fill:#B7481D;" d="M178.983,67.398c-0.56-0.003-1.108,0.147-1.63,0.342c-0.542,0.203-1.042,0.496-1.504,0.843
					c-0.041,0.031-0.031,0.203,0.019,0.172c0.46-0.291,0.957-0.517,1.47-0.696c0.533-0.186,1.088-0.276,1.641-0.379
					C179.069,67.663,179.077,67.398,178.983,67.398z"/>
			</g>
			<g>
				<path style="fill:#D96F3E;" d="M187.598,74.039c-1.297,4.638-1.917,9.561-0.964,14.322c0.449,2.243,1.161,4.416,2.027,6.53
					c0.837,2.044,1.729,4.366,3.12,6.105c0.258,0.322,0.366-0.469,0.318-0.611c-0.676-2.021-1.798-3.904-2.646-5.858
					c-0.926-2.134-1.711-4.35-2.181-6.632c-0.956-4.643-0.072-9.085,0.482-13.706C187.769,74.08,187.663,73.806,187.598,74.039z"/>
				<path style="fill:#D96F3E;" d="M194.573,104.064c-0.659-0.844-1.275-1.724-1.858-2.622c-0.066-0.101-0.142,0.013-0.172,0.07
					c-0.055,0.106-0.036,0.265,0.005,0.371c0.436,1.12,1.005,2.168,1.716,3.139c0.673,0.918,1.417,1.821,2.346,2.49
					c0.164,0.118,0.285-0.187,0.309-0.286c0.047-0.193,0.042-0.469-0.097-0.628C196.076,105.747,195.269,104.956,194.573,104.064z"
					/>
			</g>
		</g>
		<path style="fill:#FFFFFF;" d="M290.698,87.478c2.13,1.94,2.784,4.689,1.461,6.141c-1.323,1.452-4.121,1.057-6.25-0.883
			c-2.13-1.94-2.784-4.689-1.461-6.141C285.77,85.143,288.568,85.538,290.698,87.478z"/>
		<g>
			<path style="fill:none;" d="M219.463,244.508c-4.474-1.081-9.295-2.265-14.511-3.549
				C204.952,240.959,210.899,242.631,219.463,244.508z"/>
			<path style="fill:#C10C2A;" d="M303.701,219.573c-15.937,3.083-10.117,12.633-24.613,24.901
				c-9.871,8.354-41.352,4.039-59.625,0.034c37.629,9.089,50.419,10.796,62.063,1.984c13.028-9.86,11.77-16.444,15.922-19.777
				c4.152-3.333,10.474-2.757,19.584-11.049c6.367-5.796,11.324-13.82,12.28-33.479
				C327.042,201.231,317.963,216.814,303.701,219.573z"/>
		</g>
		<path style="fill:#F44563;" d="M201.793,110.067c-1.023,1.297-2.06,2.573-3.321,3.649c-1.311,1.119-2.787,2.018-4.326,2.784
			c-0.188,0.094-0.178,0.745,0.08,0.666c3.207-0.974,6.271-3.368,7.855-6.34c0.095-0.178,0.109-0.447,0.027-0.631
			C202.056,110.077,201.92,109.905,201.793,110.067z"/>
	</g>
</g>
</svg>
