<?xml version="1.0" encoding="UTF-8"?>
<svg xmlns="http://www.w3.org/2000/svg" xmlns:xlink="http://www.w3.org/1999/xlink" viewBox="0 0 112.98 151.83">
  <defs>
    <style>
      .cls-1, .cls-2, .cls-3 {
        opacity: .4;
      }

      .cls-1, .cls-3 {
        mix-blend-mode: multiply;
      }

      .cls-2 {
        fill: url(#linear-gradient);
      }

      .cls-2, .cls-4, .cls-5 {
        mix-blend-mode: screen;
      }

      .cls-3, .cls-6 {
        fill: #f9b38f;
      }

      .cls-7, .cls-5 {
        fill: #fbd4b8;
      }

      .cls-8 {
        isolation: isolate;
      }

      .cls-9 {
        fill: #e37e5a;
      }

      .cls-4 {
        fill: #ea9398;
        opacity: .7;
      }

      .cls-5 {
        opacity: .8;
      }

      .cls-10 {
        fill: #efc7b0;
      }
    </style>
    <linearGradient id="linear-gradient" x1="51.1" y1="139.8" x2="74.99" y2="139.8" gradientUnits="userSpaceOnUse">
      <stop offset="0" stop-color="#ffc6a5"/>
      <stop offset="1" stop-color="#f9b09b"/>
    </linearGradient>
  </defs>
  <g class="cls-8">
    <g id="Livello_2" data-name="Livello 2">
      <g id="Layer_1" data-name="Layer 1">
        <g>
          <g>
            <g>
              <path class="cls-10" d="M52.88,120.52l-3.75,23.5s-.25,4.75,6,6.25,21.25,1.75,31-1.5c0,0,3-1.75,3-3.5,0,0-1.5-25.5-2.25-25.25s-34,.5-34,.5Z"/>
              <path class="cls-7" d="M52.88,120.52l-3.75,23.5s-.25,4.75,6,6.25,21.25,1.75,31-1.5c0,0,3-1.75,3-3.5,0,0-1.5-25.5-2.25-25.25s-34,.5-34,.5Z"/>
              <path class="cls-3" d="M86.88,120.02c-.53.18-17.04.35-26.85.44.98,2.93,2.89,5.51,5.69,7.05,3.6,1.98,7.62,2.21,11.56,3.03,6.87,1.43,5.62-18.69,5.92,15.08.02,1.86-1.05,3.29-2.23,4.46,1.82-.36,3.56-.79,5.16-1.32,0,0,3-1.75,3-3.5,0,0-1.5-25.5-2.25-25.25Z"/>
              <path class="cls-2" d="M69.12,132.6c4,0,5.17,4.33,5.17,4.33,0,0,1.33-5.83.33,4.5-1,10.33-17.83,7.33-17.83,7.33-6.17-1.17-5.67-6.67-5.67-6.67l2.5-6.83s-.08-5.17,2.58-4.83c2.49.31,12.92,2.17,12.92,2.17Z"/>
              <path class="cls-4" d="M54.95,133.85s-2.75,2.92-2.92,9.25c0,0,3.75,6.92,2.92-9.25Z"/>
            </g>
            <g>
              <path class="cls-7" d="M44.18,22.68c-2.81-14.5-10.42-17.14-14.37-12.86-4.81,5.23,2.8,26.68,5.04,41.78,2.1,14.19,2.83,26.33,2.83,26.33l17.48-8.08s-7.67-30.11-10.99-47.17Z"/>
              <path class="cls-7" d="M72.97,71.06s-.84-13.65-1.45-27.95c-.61-14.3.25-39.49-4.66-41.93-4.91-2.44-10.26,1.43-10.22,13.73.04,15.34-.18,51.27-.18,51.27l16.52,4.88Z"/>
              <path class="cls-7" d="M93.17,6.63c-4.45-3.19-10.36-.23-12.29,11.91-2.41,15.15-8.39,50.58-8.39,50.58l16.12,7.4s.76-13.54,2.45-27.76c1.69-14.21,6.57-38.95,2.12-42.13Z"/>
              <path class="cls-7" d="M111.3,24.04c-3.81-3.28-9.45-1.05-12.2,9.9-3.43,13.66-11.75,45.57-11.75,45.57l14.14,8.06s1.79-12.32,4.48-25.18c2.69-12.86,9.14-35.08,5.33-38.36Z"/>
              <path class="cls-7" d="M100.93,72.18c-4.36-5.82-11.5-7.08-11.5-7.08-.38-2.72-3.04-4.62-7.58-5.49-4.54-.87-7.92,1.57-7.92,1.57-3.33,2.83-4.13-7.31-8.96-7.51-2.81-.12-6.1,3.76-8.35,7.01-.02.41-.02.82-.08,1.22-.28,1.81-.75,1.7-1.73,2.08-1.42.55-1.94-1.06-2.75-1.81-.94-.87-2.53-1.58-3.84-1.75-3.72-.47-9.93,2.97-10.74,17.73-.81,14.76,2.33,31.23,12.71,43.02,10.38,11.78,27.11,7.77,27.11,7.77,17.65-2.88,21.89-17.1,23.13-24.34,1.24-7.25,4.86-26.6.5-32.42Z"/>
              <path class="cls-7" d="M54.53,89.09c-.34-.58-.73-1.14-1.18-1.66-3.49-4.11-9.2-4.48-13.67-6.99-7.06-3.96-10.62-13.71-16.76-18.72-5.14-4.19-20.75-6.88-22.39,2.37-.29,1.61,1.84,2.63,2.94,3.29,16.8,10.14,24.65,30.66,36.46,45.56,3.15,3.97,11.98,11.33,16,10.5,6.01-1.24.69-16.16.78-20.66.09-4.49.15-9.68-2.18-13.68Z"/>
            </g>
            <g class="cls-1">
              <path class="cls-6" d="M111.3,24.04c-3.81-3.28-9.45-1.05-12.2,9.9-1.93,7.71-5.43,21.24-8.1,31.56-.95-.29-1.56-.4-1.56-.4,0-.01,0-.03,0-.04.39-4.72.93-10.46,1.62-16.3,1.69-14.21,6.57-38.95,2.12-42.13-4.45-3.19-10.36-.23-12.29,11.91-1.7,10.68-5.17,31.43-7.07,42.75-.51.39-.96.47-1.38.33-.28-5.1-.62-11.73-.91-18.5-.61-14.3.25-39.49-4.66-41.93-4.91-2.44-10.26,1.43-10.22,13.73.04,12.26-.1,37.64-.16,47.36-.28,1.43-.75,1.38-1.67,1.74-.46.18-.82.12-1.13-.05-2.4-9.63-7.1-28.88-9.5-41.26-2.81-14.5-10.42-17.14-14.37-12.86-4.81,5.23,2.8,26.68,5.04,41.78,1.68,11.35,2.49,21.39,2.74,24.95-.04.52-.08,1.05-.12,1.61-.01.24-.02.49-.03.74-5.65-4.55-9.07-12.73-14.53-17.19-5.14-4.19-20.75-6.88-22.39,2.37-.29,1.61,1.84,2.63,2.94,3.29,16.8,10.14,24.65,30.66,36.46,45.56,2.18,2.75,7.08,7.12,11.22,9.27,10.42,10.51,26.14,6.74,26.14,6.74,17.65-2.88,21.89-17.1,23.13-24.34.93-5.4,3.17-17.53,2.45-25.77.77-4.57,1.83-10.44,3.08-16.44,2.69-12.86,9.14-35.08,5.33-38.36ZM77.88,49.85c.93-6.64,2.47-13.16,3.55-19.78.45-2.77.8-5.66,1.25-8.52.28-4.04.76-8.34,3.14-11.41,2.62-3.37,6.01-1.54,5.51,2.53-.85,6.85-2.39,13.6-3.71,20.37-1.3,6.64-1.46,13.94-3.9,20.28-.46,1.19-3.11,8.05-5.47,5.84-2.04-1.91-.71-6.94-.37-9.31ZM58.02,48.17c.38-9.55.17-19.13.37-28.68.03-1.28-.08-5.24.42-8.81.08-3.32.88-6.88,4.03-7.51,3.5-.7,3.61,5.96,3.65,7.86.11,5.07.12,10.11.3,15.19.26,7.52.6,15.25-.21,22.75-.33,3.03-.79,6.32-2.14,9.09-1.05,2.15-3.23,3.75-5.18,1.42-2.24-2.67-1.37-8.11-1.24-11.29ZM36.88,55.65c-.48-3.77-1.17-7.54-1.78-11.3-.93-5.73-2.4-11.3-3.56-16.96-.88-2.76-1.52-5.56-1.54-8.46-.01-2.06.06-5.88,2.13-7.11.06-.04.11-.05.17-.08.07-.06.15-.1.24-.11,1.53-.65,2.93.16,4.04,1.37,1.84,2.02,2.43,5.32,2.91,7.9.63,3.35,1.44,6.59,2.31,9.88,1.63,6.15,3.22,12.32,4.68,18.52,1,4.23,4.26,16.09-2.38,17.63-3.76.87-5.71-1.63-6.42-5.09-.42-2.05-.53-4.12-.79-6.19ZM95.83,91.53c-.11.79-.22,1.59-.33,2.39-.58,13.18-2.78,27.58-16.47,32.22-6.84,2.32-15.55,2.45-21.83-1.57-4.21-2.7-7.71-6.51-11.27-9.98-.99-.96-1.95-1.96-2.87-2.97-7.9-7.08-12.98-16.63-19.14-25.22-4.06-5.65-8.2-11.52-13.87-15.64-.73-.53-1.58-1.14-2.41-1.81-.91-.47-1.77-1-2.53-1.69-1.17-1.07-2.98-3.27-1.71-4.91,2.5-3.23,9.6-1.73,12.63-.24,6.78,3.34,10.83,10.02,15.19,15.88,5.65,7.6,12.92,12.62,20.83,17.63.42.27.85.54,1.28.81,3.1,1.6,6.21,3.17,9.15,4.93,3.99,2.39,8.26,5.2,10.54,9.22-.7-4.24-2.38-8.18-5.71-11.57-4.62-4.72-10.48-7.69-15.82-11.47-3.96-2.8-7.13-6.2-6.43-11.4.6-4.46,4.3-7.54,8.4-8.75,6.69-1.99,13.77-2.16,20.67-1.32,5.54.68,11.48,1.65,16.47,4.38,6.57,3.59,5.71,17.62,5.23,21.11ZM102.63,52.41c-.88,3.26-1.96,6.42-3.4,9.47-.52,1.1-1.57,3.37-3.01,3.57-4.47.63-1.63-6.36-1.18-8.1,1.71-6.6,3.48-13.18,5.19-19.77.12-.45.23-.91.35-1.39.47-2.45,1.03-4.88,1.79-7.22.55-1.7,1.3-3.29,3.12-3.84.91-.28,2.23-.04,2.79.79,1.69,2.49-.28,6.74-1.17,9.19-2.03,5.62-2.93,11.55-4.48,17.31Z"/>
            </g>
            <g class="cls-1">
              <path class="cls-6" d="M111.3,24.04c-1.01-.87-2.14-1.33-3.32-1.37,3.49,1.01,2.96,6.35,2.22,9.03-1.91,6.95-3.88,13.89-5.66,20.88-.93,3.64-1.82,7.29-2.62,10.96-.53,2.41-.56,5.23-1.74,7.43-.16.3-.55.3-.79.1-2.66-2.24-5.05-4.61-8.35-5.76-.02.06-.03.13-.05.2-.95-.29-1.56-.4-1.56-.4,0-.01,0-.03,0-.04.39-4.72.93-10.46,1.62-16.3,1.69-14.21,6.57-38.95,2.12-42.13-2.28-1.63-4.93-1.64-7.24.34,1.62-.85,3.48-1.04,5.19.04,3.78,2.37,2.25,9.24,1.58,12.7-1.27,6.48-2.18,13.08-2.91,19.65-.48,4.29-.63,8.62-1.11,12.91-.32,2.79-.69,6.15-2.53,8.42-2.53,3.14-6.63,1.44-10.11,1.62-1.35.07-2.22-.18-2.77-.73-.3.11-.58.12-.84.04-.28-5.1-.62-11.73-.91-18.5-.61-14.3.25-39.49-4.66-41.93-2.08-1.04-4.25-.92-6.04.48,1.58-.77,3.44-.85,4.87.54,2.29,2.23,2.48,5.83,2.57,8.84.17,5.39.5,10.78.66,16.17.19,6.45.42,12.9.6,19.34.09,3.17.07,6.32-.27,9.48-.17,1.56-.52,3.4-1.8,4.47-2.28,1.91-6.22,2.69-9.12,3.11-.91.13-1.64,0-2.22-.32-.29.41-.7.47-1.29.71-.46.18-.82.12-1.13-.05-2.4-9.63-7.1-28.88-9.5-41.26-2.81-14.5-10.42-17.14-14.37-12.86-.54.58-.91,1.37-1.16,2.32.8-1.56,1.96-2.75,3.55-3,6.71-1.06,7.93,9.28,9.17,13.61,3,10.55,5.13,21.27,7.74,31.91.62,2.54,1.35,5.06,1.83,7.63.2,1.03,0,2.33-.72,3.14-.92,1.06-2,1.88-3.1,2.68.91-.37,1.82-.71,2.7-1.05,5.19-2.03,10.93-2.93,16.49-3,5.89-.07,11.81.73,17.58,1.83,1.34.25,2.72.57,4.03,1.05,11.9,3.28,11.78,18.41,11.09,28.54-.48,7.13-1.02,14.52-3.71,21.21-.62,1.53-1.4,2.92-2.3,4.19,4.91-5.36,6.68-12.01,7.41-16.27.93-5.4,3.17-17.53,2.45-25.77.77-4.57,1.83-10.44,3.08-16.44,2.69-12.86,9.14-35.08,5.33-38.36Z"/>
              <path class="cls-6" d="M50.03,89.29c-4.24-2.82-8.04-6.46-10.11-11.2-1.5-3.44-2.24-7.08-3.12-10.69.42,4.18.67,7.43.79,9.15-.04.52-.08,1.05-.12,1.61-.01.24-.02.49-.03.74-5.65-4.55-9.07-12.73-14.53-17.19-5.11-4.17-20.57-6.84-22.36,2.22.18-.58.47-1.15.91-1.71,1.97-2.55,5.89-3.42,8.94-3.34,10.23.3,17.19,10.61,22.68,18.01,3.84,5.17,7.81,10.73,13.29,14.3,5.56,3.62,12.04,5.52,17.5,9.28,2.56,1.76,4.87,3.67,6.77,5.93-3.89-7.94-13.5-12.37-20.64-17.12Z"/>
              <path class="cls-6" d="M51.34,95.15c.23.15.46.3.7.45.42.27.85.54,1.28.81,3.1,1.6,6.21,3.17,9.15,4.93,1.99,1.19,4.05,2.49,5.89,3.98-2.3-2.29-5.03-4.2-7.87-5.76-2.96-1.63-6.11-2.92-9.15-4.4Z"/>
            </g>
            <path class="cls-9" d="M63.35,98.19c-3.92-2.53-8.21-4.66-12.37-6.78-2.17-1.11-4.05-2.35-5.91-3.93-1.78-1.52-3.92-3.08-4.92-5.25-.01-.03-.1.04-.09.07,1.19,3.19,4.79,6.27,7.55,8.14,3.59,2.43,7.77,4.16,11.54,6.3,4.05,2.3,7.8,4.59,10.6,8.41,2.63,3.6,4.83,8.47,3.79,12.99-.02.07.12-.02.14-.06,2.25-7.69-4.32-16-10.33-19.88Z"/>
            <path class="cls-5" d="M58.64,122.86c-11.43-6.64-19.74-17.48-26.84-28.39-1.81-2.79-3.54-5.62-5.56-8.27-.97-1.27-1.69-2.71-2.62-4.01-1.05-1.47-2.35-2.79-3.44-4.24-1.87-2.46-4.2-4.8-6.57-6.78-2.12-1.77-4.56-3.97-7.12-5.04-.04-.02-.13.07-.09.09,2.55,1.54,4.87,4.09,7.06,6.12,2.33,2.16,4.53,4.53,6.44,7.05,4.09,5.38,7.87,10.88,11.56,16.56,6.85,10.53,15.84,21.01,27.04,27.04.06.03.21-.11.14-.15Z"/>
            <path class="cls-5" d="M36.95,45.92c-.58-3.68-1.31-7.34-2.13-10.97-.79-3.48-1.42-7.02-2.08-10.52-.66-3.48-1.41-6.96-1.23-10.53,0-.04-.1.03-.11.06-.94,6.84,1.14,13.92,2.5,20.59.74,3.62,1.54,7.22,2.3,10.84.36,1.75.78,3.48,1.1,5.23.28,1.51.48,3.15.96,4.61.02.05.15-.04.13-.09-.72-3-.96-6.17-1.44-9.22Z"/>
            <path class="cls-5" d="M61.38,4.72c-1.95,5.97-2.02,12.17-2.1,18.42-.08,7.14,0,14.35.45,21.48,0,.07.19-.05.19-.12.02-6.62-.03-13.24.09-19.86.11-6.67.07-13.46,1.51-19.99.02-.07-.13.02-.14.06Z"/>
            <path class="cls-5" d="M86.01,11.95c-1.69,3.99-2.11,8.18-2.84,12.42-.83,4.81-1.42,9.65-2.08,14.49-.01.1.19-.02.2-.09.79-4.61,1.7-9.19,2.5-13.79.76-4.35.93-8.87,2.34-13.07.02-.06-.11.01-.12.04Z"/>
            <path class="cls-5" d="M105.54,25.92c-3.61,4.21-4.71,10.62-5.82,15.94-.02.11.19-.03.21-.1.76-2.72,1.62-5.32,2.59-7.98.98-2.67,1.45-5.48,3.11-7.85.05-.08-.06-.05-.09-.01Z"/>
            <path class="cls-5" d="M86.98,69.52c-8.38-2.93-17.89-2.88-26.62-2.25-.03,0-.11.09-.06.09,8.89-.08,17.63.97,26.38,2.49.12.02.46-.27.31-.33Z"/>
            <path class="cls-9" d="M92.2,65.78c-6.28-2.15-12.99-3.63-19.61-3.73-4.22-.06-8.46.38-12.64.91-3.17.4-6.09,1.32-9.16,2.02-.03,0-.08.07-.03.06,2.99-.54,5.88-1.35,8.93-1.72,3.86-.46,7.73-.77,11.62-.84,7.55-.13,16.04,2.43,23.21,4.7-.75-.5-1.53-.96-2.31-1.41Z"/>
          </g>
          <path class="cls-5" d="M93.13,107.39s-3.33,15.83-18,18.33c0,0,11.5-2.83,18-18.33Z"/>
          <path class="cls-9" d="M67.01,151.83h0c-4.7,0-9.18-.4-11.99-1.08-6.58-1.58-6.39-6.71-6.38-6.76l3.53-20.17c-.49-.42-.91-.81-1.3-1.2-4.11-2.16-9.06-6.53-11.31-9.37-3.88-4.89-7.39-10.48-10.79-15.89-7.04-11.2-14.33-22.79-25.54-29.56l-.37-.22c-1.24-.72-3.12-1.81-2.8-3.59.75-4.22,4.47-6.64,10.21-6.64,4.71,0,10.17,1.67,12.99,3.97,2.75,2.24,5.01,5.44,7.2,8.53,2.02,2.85,4.09,5.79,6.56,8,.03-.46.06-.91.1-1.34-.27-3.66-1.07-13.56-2.74-24.84-.69-4.67-1.92-10.02-3.1-15.2-2.73-11.93-5.31-23.2-1.81-27,1.22-1.32,2.73-2.02,4.37-2.02,3.83,0,8.69,3.97,10.85,15.12,2.35,12.13,6.9,30.79,9.44,41,.16.04.32.03.52-.05.13-.05.26-.09.37-.13.63-.22.8-.28.99-1.23.05-10.11.18-35.14.15-47.26-.02-7.7,2-11.35,3.7-13.06,1.98-1.98,4.67-2.39,7.24-1.11,3.84,1.91,4.36,14.52,4.68,32.12.07,3.71.13,7.21.26,10.24.29,6.89.64,13.56.89,18.08.14-.02.28-.08.44-.18,1.91-11.4,5.34-31.88,7.04-42.54,1.35-8.47,4.84-13.52,9.33-13.52,1.27,0,2.57.44,3.74,1.29,3.49,2.5,1.98,15.02-.53,32.44-.53,3.68-1.03,7.15-1.39,10.16-.58,4.89-1.12,10.23-1.59,15.88.18.04.41.1.68.17,2.61-10.08,6.07-23.45,7.97-31.06,1.83-7.3,5.28-11.66,9.22-11.66,1.33,0,2.65.52,3.79,1.51,3,2.58.62,13.92-3.08,29.67-.78,3.31-1.51,6.45-2.08,9.17-1.05,5.03-2.08,10.53-3.07,16.35.67,7.79-1.24,18.83-2.27,24.77l-.18,1.07c-1.65,9.61-6.15,16.86-13.03,21.01.76,14.33,1.73,19.18,1.74,19.55,0,1.99-2.92,3.75-3.25,3.95-.03.02-.06.03-.09.04-6.76,2.25-14.98,2.59-19.29,2.59ZM10.25,58.36c-3.06,0-8.33.75-9.23,5.81-.19,1.09,1.26,1.94,2.32,2.55l.39.23c11.42,6.89,18.76,18.58,25.87,29.88,3.38,5.38,6.88,10.95,10.73,15.8,2.2,2.77,7.05,7.05,11.06,9.14.05.02.09.05.12.09.44.44.92.88,1.49,1.36.12.1.19.26.18.41l-3.54,20.42c0,.17-.13,4.35,5.62,5.73,2.74.66,7.13,1.05,11.75,1.05,4.23,0,12.31-.33,18.92-2.52.79-.47,2.71-1.87,2.71-3.04,0-.36-.99-5.72-1.75-19.82-.01-.19.08-.36.25-.46,6.76-3.97,11.19-11.05,12.81-20.48l.18-1.07c1.03-5.91,2.93-16.91,2.26-24.57,0-.04,0-.09,0-.13.99-5.86,2.03-11.39,3.09-16.45.57-2.73,1.31-5.87,2.09-9.19,2.61-11.1,6.18-26.3,3.41-28.68-.96-.83-2.05-1.27-3.14-1.27-3.45,0-6.53,4.08-8.25,10.91-1.94,7.73-5.48,21.43-8.11,31.56-.03.13-.12.24-.24.31-.12.07-.26.08-.39.04-.91-.28-1.5-.39-1.5-.39-.21-.04-.37-.21-.4-.42,0-.04-.02-.12-.01-.16.48-5.82,1.03-11.31,1.63-16.32.36-3.03.86-6.5,1.39-10.19,1.87-12.98,4.19-29.14.93-31.48-1.02-.73-2.08-1.1-3.16-1.1-3.06,0-6.86,3.33-8.35,12.68-1.71,10.73-5.17,31.39-7.07,42.75-.02.12-.09.24-.19.31-.62.47-1.25.61-1.84.41-.19-.07-.33-.24-.34-.45-.25-4.52-.61-11.4-.91-18.51-.13-3.04-.19-6.55-.26-10.26-.24-13.12-.53-29.46-4.12-31.24-2.21-1.1-4.4-.77-6.09.92-2.22,2.22-3.43,6.61-3.41,12.35.04,12.12-.1,37.16-.16,47.36-.29,1.53-.82,1.78-1.65,2.07-.11.04-.22.08-.34.12-.54.21-1.07.18-1.55-.08-.12-.07-.21-.18-.24-.32-2.53-10.16-7.13-29.04-9.51-41.29-2.05-10.56-6.6-14.31-9.87-14.31-1.36,0-2.61.59-3.64,1.7-3.14,3.41-.5,14.94,2.05,26.1,1.19,5.19,2.42,10.56,3.11,15.27,1.68,11.31,2.48,21.24,2.75,24.99-.04.59-.08,1.12-.12,1.67,0,.14-.01.28-.02.42v.32c-.02.19-.13.36-.3.43-.17.08-.37.05-.52-.07-2.91-2.35-5.25-5.65-7.52-8.85-2.15-3.04-4.37-6.18-7.01-8.34-2.62-2.13-7.93-3.74-12.36-3.74Z"/>
        </g>
      </g>
    </g>
  </g>
</svg>