<?xml version="1.0" encoding="UTF-8"?>
<svg xmlns="http://www.w3.org/2000/svg" xmlns:xlink="http://www.w3.org/1999/xlink" viewBox="0 0 77.59 151.83">
  <defs>
    <style>
      .cls-1 {
        fill: url(#linear-gradient);
      }

      .cls-1, .cls-2 {
        opacity: .4;
      }

      .cls-1, .cls-3, .cls-4 {
        mix-blend-mode: screen;
      }

      .cls-2 {
        fill: #f9b38f;
        mix-blend-mode: multiply;
      }

      .cls-5, .cls-4 {
        fill: #fbd4b8;
      }

      .cls-6 {
        isolation: isolate;
      }

      .cls-7 {
        fill: #e37e5a;
      }

      .cls-3 {
        fill: #ea9398;
        opacity: .7;
      }

      .cls-4 {
        opacity: .8;
      }
    </style>
    <linearGradient id="linear-gradient" x1="24.12" y1="139.8" x2="48" y2="139.8" gradientUnits="userSpaceOnUse">
      <stop offset="0" stop-color="#ffc6a5"/>
      <stop offset="1" stop-color="#f9b09b"/>
    </linearGradient>
  </defs>
  <g class="cls-6">
    <g id="Livello_2" data-name="Livello 2">
      <g id="Layer_1" data-name="Layer 1">
        <g>
          <g>
            <path class="cls-5" d="M25.9,120.52l-3.75,23.5s-.25,4.75,6,6.25,21.25,1.75,31-1.5c0,0,3-1.75,3-3.5,0,0-1.5-25.5-2.25-25.25s-34,.5-34,.5Z"/>
            <path class="cls-2" d="M59.9,120.02c-.53.18-17.04.35-26.85.44.98,2.93,2.89,5.51,5.69,7.05,3.6,1.98,7.62,2.21,11.56,3.03,6.87,1.43,5.62-18.69,5.92,15.08.02,1.86-1.05,3.29-2.23,4.45,1.82-.36,3.56-.79,5.16-1.32,0,0,3-1.75,3-3.5,0,0-1.5-25.5-2.25-25.25Z"/>
            <path class="cls-1" d="M42.13,132.6c4,0,5.17,4.33,5.17,4.33,0,0,1.33-5.83.33,4.5s-17.83,7.33-17.83,7.33c-6.17-1.17-5.67-6.67-5.67-6.67l2.5-6.83s-.08-5.17,2.58-4.83c2.49.31,12.92,2.17,12.92,2.17Z"/>
            <path class="cls-3" d="M27.96,133.85s-2.75,2.92-2.92,9.25c0,0,3.75,6.92,2.92-9.25Z"/>
          </g>
          <g>
            <path class="cls-5" d="M16.44,22.85C13.62,8.35,6.01,5.71,2.07,9.99c-4.81,5.23,2.69,27.24,5.53,41.3,2.83,14.06,3.05,25.79,3.05,25.79l16.78-7.06s-7.67-30.11-10.99-47.17Z"/>
            <path class="cls-5" d="M45.27,63.75c.03-.21.04-.41.06-.62-.1-.98-.1-1.96-.06-2.94-.26-4.88-.57-10.91-.83-17.07-.61-14.3.25-39.49-4.66-41.93-4.91-2.44-10.26,1.43-10.23,13.73.04,12.24-.1,37.55-.16,47.31.02.24.03.48.04.71.02.64.06,1.41-.06,2.13,0,.72,0,1.12,0,1.12l16.52,4.88s-.17-2.68-.4-6.9c-.14-.08-.24-.22-.22-.41Z"/>
            <path class="cls-5" d="M68.49,17.24c.09-3.23.4-8.62-2.31-10.99-3.1-2.71-6.94-.89-8.99,2.11-1.03,1.98-1.89,4.54-2.47,7.79-1.84,10.34-5.54,30.15-7.69,41.62-.18,2.05-.4,4.09-.78,6.11-.04.23-.23.33-.43.35-.28,1.49-.44,2.34-.44,2.34l15.97,7.7s1.01-13.53,2.97-27.71c1.04-7.58,3.06-18.14,4.03-26.84.05-.83.1-1.65.12-2.48Z"/>
            <path class="cls-5" d="M74.88,70.6c-1.89-4.5-5-7.42-9.58-7-1.24.11-2.94,1.5-2.94,1.5-.39-2.72-3.04-4.62-7.58-5.49-4.54-.87-7.27,1.29-7.27,1.29-.29.09-.56.13-.82.13-.12.95-.26,1.9-.44,2.85-.1.55-1.06.43-.98-.13.03-.2.04-.41.06-.61-.09-.85-.1-1.7-.07-2.55-2.38-1.56-3.56-6.76-7.36-6.91-3.12-.13-6.48,5.13-8.48,8.87,0,.12.02.25.02.37.03,1.04.13,2.46-.53,3.35-.54.72-1.57.5-2.05-.17-.4-.56-.63-1.21-.79-1.89-1.36-1.59-3.35-3.59-4.93-3.79-3.72-.47-9.93,2.97-10.74,17.73-.81,14.76,2.33,31.23,12.71,43.01,10.38,11.78,27.11,7.77,27.11,7.77,17.65-2.88,22.14-19.26,23.38-26.51,1.24-7.25,6.35-19.75,1.27-31.83Z"/>
            <path class="cls-7" d="M40.02,151.83h0c-4.7,0-9.18-.4-11.99-1.08-6.58-1.58-6.39-6.71-6.38-6.76l3.52-20.1c-.89-.76-1.69-1.54-2.43-2.38-12.46-14.14-13.39-33.24-12.84-43.37.05-.88.12-1.71.2-2.51-.16-3.54-.76-13.16-3-24.23-.7-3.49-1.68-7.41-2.71-11.56C1.2,27.02-2.1,13.78,1.7,9.65c1.22-1.32,2.73-2.02,4.37-2.02,3.83,0,8.69,3.97,10.85,15.12,2.36,12.14,6.92,30.89,9.45,41.06l.07.08c.05.06.09.13.11.21.17.73.4,1.28.71,1.71.3.42.96.55,1.24.16.18-.25.31-.58.38-1,.03-.16.04-.31.05-.47.01-.22.02-.36.02-.49v-.12c0-.13,0-.27,0-.4l.5-.13-.5.02-.05-1.13c.06-10.23.19-35.25.16-47.34-.02-7.7,2-11.35,3.7-13.06,1.98-1.98,4.67-2.39,7.24-1.11,3.84,1.91,4.36,14.51,4.68,32.12.07,3.71.13,7.21.26,10.24.22,5.27.5,11.01.83,17.07,0,.22,0,.39-.01.56v.27c0,.26-.01.52,0,.78,0,.42.03.84.07,1.25,0,.03,0,.13,0,.17l-.02.22c-.01.13-.02.27-.04.4.15-.87.29-1.77.43-2.84.14-1.08.25-2.16.34-3.24,2.08-11.12,5.84-31.25,7.69-41.66.56-3.12,1.4-5.79,2.52-7.94,1.57-2.3,3.89-3.7,6.08-3.7,1.34,0,2.58.49,3.68,1.45,2.75,2.41,2.6,7.52,2.49,10.9v.48c-.04.84-.08,1.67-.14,2.5-.59,5.28-1.54,11.11-2.46,16.75-.6,3.66-1.16,7.12-1.58,10.12-.74,5.38-1.43,11.28-2.06,17.55.65-.44,1.63-1,2.49-1.08,4.45-.4,7.92,2.14,10.09,7.3,4.11,9.77,1.66,19.79-.12,27.11-.45,1.82-.87,3.54-1.12,5-1.02,5.96-4.1,16.79-13.21,22.85.76,14.1,1.75,19.5,1.75,19.88,0,1.99-2.92,3.75-3.25,3.95-.03.02-.06.03-.09.04-6.76,2.25-14.98,2.59-19.29,2.59ZM6.08,8.63c-1.36,0-2.61.59-3.64,1.7-3.43,3.73-.06,17.29,2.92,29.26,1.04,4.16,2.02,8.1,2.72,11.61,2.25,11.15,2.86,20.82,3.01,24.46-.09.86-.15,1.68-.2,2.54-.55,9.98.36,28.79,12.59,42.66.76.86,1.58,1.66,2.52,2.44.12.1.19.26.18.42l-3.54,20.35c0,.17-.13,4.35,5.62,5.73,2.74.66,7.13,1.05,11.75,1.05,4.23,0,12.31-.33,18.92-2.52.79-.47,2.71-1.87,2.71-3.04,0-.37-1-6.27-1.77-20.13,0-.18.08-.35.23-.45,8.98-5.82,12.01-16.5,13.01-22.34.26-1.49.68-3.23,1.13-5.07,1.75-7.18,4.16-17.02.17-26.49-2.02-4.8-5.04-7.07-9.08-6.7-.89.08-2.23,1.03-2.66,1.39-.14.11-.33.14-.5.08-.17-.07-.29-.22-.31-.39-.01-.11-.05-.2-.08-.3l-.05-.17c-.02-.06-.02-.12-.01-.18.64-6.45,1.35-12.51,2.11-18.03.41-3.01.98-6.48,1.58-10.15.92-5.63,1.87-11.45,2.45-16.68.05-.8.1-1.62.12-2.44v-.49c.11-3.19.26-8.02-2.14-10.11-.91-.8-1.93-1.2-3.02-1.2-1.87,0-3.87,1.23-5.23,3.22-1.03,2-1.85,4.58-2.39,7.6-1.86,10.41-5.61,30.54-7.69,41.62-.09,1.05-.2,2.14-.34,3.23-.14,1.1-.28,2.01-.44,2.88-.04.21-.15.4-.32.53-.21.15-.38.21-.56.22-.28.02-.45-.04-.61-.13-.13-.07-.24-.18-.33-.31-.14-.25-.17-.42-.15-.61.02-.12.03-.24.04-.36l.02-.24c-.05-.41-.07-.86-.08-1.3,0-.27,0-.55,0-.82v-.26c0-.18,0-.36.02-.55-.33-6.01-.61-11.76-.83-17.03-.13-3.04-.19-6.55-.26-10.26-.24-13.12-.53-29.46-4.12-31.24-2.21-1.1-4.4-.77-6.09.93-2.22,2.22-3.43,6.61-3.41,12.35.04,12.1-.1,37.12-.16,47.31l.03.45c0,.08.01.16.01.25v.39s.01.11.01.11c0,.19,0,.33,0,.48v.13c0,.14,0,.29-.02.44v.1c-.02.2-.04.38-.07.57-.1.59-.28,1.06-.56,1.44-.67.9-2.18.77-2.86-.17-.37-.52-.64-1.14-.84-1.94h0c-.05-.07-.15-.21-.17-.29-2.53-10.16-7.12-29.02-9.49-41.23-2.05-10.56-6.6-14.31-9.87-14.31Z"/>
            <path class="cls-2" d="M74.88,70.6c-1.89-4.5-5-7.42-9.58-7-1.24.11-2.94,1.5-2.94,1.5-.03-.18-.09-.35-.13-.53.5-5.01,1.2-11.44,2.1-18.01,1.04-7.58,3.06-18.14,4.03-26.84.05-.83.1-1.65.12-2.48.09-3.23.4-8.62-2.31-10.99-3.1-2.71-6.94-.89-8.99,2.11-1.03,1.98-1.89,4.54-2.47,7.79-1.85,10.34-5.54,30.15-7.69,41.61-.18,2.05-.4,4.09-.78,6.12-.1.55-1.06.43-.98-.13.03-.2.04-.41.06-.61-.1-.98-.1-1.97-.06-2.96-.26-4.88-.57-10.91-.83-17.07-.61-14.3.25-39.49-4.66-41.93-4.91-2.44-10.26,1.43-10.23,13.73.04,12.24-.1,37.55-.16,47.31,0,.11.01.23.02.34h0c0,.12.02.25.02.38,0,.14,0,.29.01.44,0,.04,0,.08,0,.11,0,.14,0,.27,0,.41,0,.04,0,.08,0,.12,0,.14,0,.28-.01.43,0,.03,0,.07,0,.1-.01.17-.03.35-.06.51h0c-.08.45-.21.88-.47,1.22-.54.72-1.57.5-2.05-.17-.4-.56-.63-1.21-.79-1.89-.05-.05-.1-.11-.15-.17-2.4-9.65-7.09-28.84-9.49-41.21C13.62,8.35,6.01,5.71,2.07,9.99c-4.81,5.23,2.69,27.24,5.53,41.3,2.25,11.17,2.85,20.87,3,24.38-.08.79-.15,1.62-.2,2.49-.81,14.76,2.33,31.23,12.71,43.01,10.38,11.78,27.11,7.77,27.11,7.77,17.65-2.88,22.14-19.26,23.38-26.51,1.24-7.25,6.35-19.75,1.27-31.83ZM65.87,64.99c1.28-.05,2.79.86,2.98,2.23.26,1.88-.77,3.7-1.83,5.17-1.77,2.46-5.35,6.86-8.91,5.64-1.65-.56-1.31-2.91-.82-4.14.45-1.13,1.08-2.14,1.78-3.09,1.54-2.4,4.03-5.71,6.79-5.82ZM50.04,55.84c.71-3.51.85-7.16,1.45-10.7.66-3.85,1.28-7.7,2-11.54,1.14-5.99,2.16-12.03,3.39-18,.08-.38.17-.79.26-1.21.18-1.58.46-3.2,1.26-4.54.87-1.47,2.23-3.24,4.14-2.78,1.39.34,2.06,2.53,2.24,3.72.96,6.34-.67,13.31-2.04,19.47-1.5,6.75-2.98,13.4-3.87,20.26-.55,4.23-1.24,9.99-5.47,12.21-1.57.82-2.98.06-3.71-1.38-.79-1.57.03-3.93.35-5.52ZM32.48,6.3c1.21-2.89,4.99-5.42,6.34-1.09,1.05,3.36.79,7.24.7,10.71-.1,3.78-.3,7.56-.23,11.34.16,7.8-.16,15.57-.2,23.37-.01,3.13.91,10.86-3.16,12.29-5.11,1.78-4.82-8.77-4.9-11.34-.25-7.65-.13-15.35.24-22.99.12-2.46.23-4.94.34-7.41-.33-4.95-1.02-10.37.86-14.88ZM12.93,68.72c-1.74-2.45-1.28-5.78-1.78-8.6-1.23-7.05-2.65-14.11-4.55-21.01-1.48-5.41-2.97-10.86-3.81-16.41-.46-3.06-1.73-8.77.75-11.36,1.63-1.69,4.1-.76,5.35.92,2.37,3.16,3.07,7.53,3.68,11.34.89,5.53,2.22,10.91,3.57,16.35,1.76,7.1,3.79,14.65,3.64,22.03-.03,1.65-.26,4.36-1.36,5.96.05.12.05.26-.04.41-1.14,1.85-4.1,2.27-5.46.36ZM17.53,73.41s.01,0,.02-.01c2.39-2.77,5.9-4.37,9.42-5.3,5.94-1.57,12.31-2.16,18.43-2.26,1.03-.02,8.92-.76,7.6,2.04-.71,1.51-2.75,2.12-4.17,2.74-3.09,1.36-6.2,2.67-9.28,4.05-5.94,2.66-12.55,5.46-17.42,9.88-1.27,1.16-6,5.81-7.32,2.22-1.48-4.04-.88-10.55,2.71-13.36ZM29.13,110.32c-.79,1.75-2.02,5.12-4.34,5.36-2.05.21-3.75-1.24-4.99-2.73-3-3.61-6.1-8.95-5.56-13.84.05-.47.15-.91.27-1.35-.09-.17-.09-.38.1-.55l.1-.09c1.41-3.91,5.42-6.52,8.85-8.66,2.71-1.7,5.4-3.5,8.38-4.7.1-.04.19-.07.29-.11.67-.31,1.36-.59,2.06-.85,3.22-1.15,6.42-1.43,9.81-1.66,3.53-.24,7.21-.73,10.75-.58,1.69.07,3.35.37,3.73,2.24.28,1.39-1.12,2.69-2.16,3.34-2.16,1.37-4.68,2.33-7.11,3.08-3.34,1.03-7.69,1.55-10.57,3.62-5.62,4.04-6.92,11.54-9.6,17.47ZM51.54,93.41c.02-.18.04-.34.04-.47.02-.33.29-.48.54-.48.41-.43.98-.7,1.76-.69.92,0,2.52-.1,3.06.86.59,1.04.35,2.34.04,3.43-.42,1.47-.98,2.95-1.58,4.37-.32.76-1.12,2.05-2.13,1.94-1.9-.2-2.24-2.57-2.14-4.95-.06-1.26-.07-2.84.4-4.01ZM70.64,105.8c-1.57,7.99-8.08,17.44-16.31,20-2.77.86-6.5,1.05-9.02-.61-2.89-1.9-2.74-6.91-.88-9.44,2.74-3.74,8.06-3.85,11.83-6.08,2.39-1.41,4.62-3.28,5.91-5.74.94-1.79,1.81-3.63,2.9-5.34.86-1.35,2.92-4.12,4.3-1.62,1.58,2.87,1.85,5.87,1.27,8.82Z"/>
            <path class="cls-2" d="M74.88,70.6c-1.57-3.73-3.97-6.36-7.34-6.92,6.03,5.33.5,15.22-3.43,20.8-2.18,3.1-3.2,6.36-4.09,10-.51,2.08-.87,4.89-2.32,6.58-1.32,1.54-3.61,2.63-5.41,2.09.54,1.13,2.1,1.53,3.41,1.41,1.87-.18,3.24-1.32,4.16-2.94,1.39-2.45,2.03-5.29,3.51-7.68,1.34-2.16,5.71-7.53,8.63-5.52,1.37.94,1.38,3.38,1.38,4.83-.01,3.03.05,6.08-.14,9.11-.07,1.12-.18,2.23-.3,3.34.3-1.21.52-2.31.68-3.26,1.24-7.25,6.35-19.75,1.27-31.83Z"/>
            <path class="cls-2" d="M67.2,13.16c.13,4.36-.26,8.77-.82,13.09-1.23,9.43-3.54,18.7-4.55,28.16-.31,2.88-.15,7.32-2.58,9.32-1.23,1-2.98,1.19-4.68,1.29,1.48,0,3.02-.12,4.41.36.81.28,2.46,1.51,3.11.4.14-.24.24-.48.35-.72-.06.04-.09.07-.09.07-.03-.18-.09-.35-.13-.53.5-5.01,1.2-11.44,2.1-18.01,1.04-7.58,3.06-18.14,4.03-26.84.05-.83.1-1.65.12-2.48.09-3.23.4-8.62-2.31-10.99-.87-.76-1.8-1.16-2.73-1.28.42.19.83.47,1.21.85,1.92,1.91,2.46,4.71,2.54,7.33Z"/>
            <path class="cls-2" d="M34.59,127.41c-6.09-2.48-11.36-6.92-15.76-12.01,1.27,2.02,2.68,3.96,4.29,5.78,5.9,6.69,13.84,8.29,19.6,8.42-2.76-.4-5.5-1.11-8.13-2.19Z"/>
            <path class="cls-2" d="M22.53,66.34c-.88,1.39-2.09,2.41-3.39,3.32,2.37-.78,4.87-1.17,7.26-1.92.54-.37.85-.76,1.01-1.18-.21-.11-.41-.26-.55-.46-.4-.56-.63-1.21-.79-1.89-.05-.05-.1-.11-.15-.17-2.4-9.65-7.09-28.84-9.49-41.21C14.02,10.39,8.06,6.69,3.93,8.61c.96-.19,2.07-.08,3.32.46,6.14,2.61,6.73,12.17,8.06,17.72,2.36,9.88,4.74,19.76,7.23,29.61.75,2.98,1.79,7.12-.01,9.94Z"/>
            <path class="cls-2" d="M36.61,1.48c2.88.69,4.48,3.1,4.98,5.94.84,4.79.71,9.87.85,14.71.17,5.56.26,11.13.41,16.69.15,5.5.56,11.01.41,16.51-.08,3.02.63,7.38-2.75,8.88-.72.32-1.47.54-2.23.71,1.85-.04,5.51.07,7-1.04,0-.04-.02-.09-.01-.14.03-.2.04-.41.06-.61-.1-.98-.1-1.97-.06-2.96-.26-4.88-.57-10.91-.83-17.07-.61-14.3.25-39.49-4.66-41.93-2.07-1.03-4.21-.92-6,.45.9-.3,1.85-.38,2.82-.15Z"/>
            <path class="cls-2" d="M71.36,75.3c-1.83,1.98-4,3.69-6.68,3.75-2.17.05-6.51.27-7.87-1.91-2.41-3.85,1.8-8.72,5.55-12.04-.02-.12-.05-.23-.09-.35-2.66,1.81-4.94,4.61-6.32,7.3-1.09,2.12-2.1,5.19-4.78,5.69-4.15.78-8.21.2-12.32,1.49-4.62,1.44-9.23,3.37-13.44,5.76-2.13,1.21-4.14,2.52-6.04,4.06-.97.78-2.17,1.73-3.44,1.99-1.88.38-3.4.15-4.65-1.4-.29-.36-.54-.74-.75-1.14.26,3.33.74,6.68,1.48,9.96.27-.95.66-1.86,1.3-2.65,1.84-2.27,4.38-4.08,6.82-5.65,2.88-1.85,5.76-3.76,8.71-5.49,5.8-3.39,11.87-5.08,18.61-5.14,4.17-.04,9.41-.7,13.36.94,2.71,1.13,3.5,4.65,1.21,6.66-3.01,2.65-7.15,3-10.94,3.61-6.5,1.04-12.01,3.33-15.32,9.38-1.82,3.32-3.07,6.91-4.41,10.45-.46,1.22-.92,2.35-1.62,3.43,3.55-1.59,6.13-8.65,7.68-11.17.14-.23.44-.32.68-.18,2.83,1.62,2.26,6.26,1.85,8.92-.05.34-.11.7-.17,1.06.8-1.37,1.19-3.76,1.32-4.54.36-2.03.27-3.7.19-5.74-.17-4.3,4.17-6.88,7.93-7.88.31-.08.64.15.63.48-.03,2.64-.72,7.59,2.25,8.66-1.31-2.27-1.66-5.73-.92-8.34.05-.66.16-1.3.38-1.85.02-.18.04-.34.04-.47.02-.33.29-.48.54-.48.36-.38.85-.62,1.5-.67,2.21-1.37,5.3-1.36,7.7-2.33.37-.15.7.28.62.62-.83,3.36-2.21,6.5-3.57,9.65,2.25-1.94,3.14-5.92,4.41-8.29,1.12-2.1,2.7-3.78,4.04-5.72,1.24-1.79,2.35-3.64,3.5-5.48.49-1.61.84-3.26,1.04-4.94Z"/>
            <path class="cls-7" d="M65,88.26c1.09-1.43,2.28-2.79,3.4-4.27.91-1.2,1.91-2.91,2.4-4.62-.09-.06-.17-.15-.19-.3-.02-.11-.03-.22-.04-.33-.85,2.9-3.13,5.4-4.85,7.7-.87,1.17-1.61,2.16-2.23,3.25-.97,1.19-1.48,2.65-2.08,4.08-.98,2.37-2.06,5.06-3.4,7.25-1,1.63-2.63,2.57-4.15,2.28-1.37-.03-2.44-1.18-2.89-2.81-.2-1.47-.21-2.94-.06-4.46.12-1.25.66-3.03.5-4.34.08-.02.17-.03.25-.05,0,0,0,.02,0,.03.12-.03.23-.05.34-.06,0-.01,0-.02,0-.04,3.09-.65,6.06-1.52,8.63-3.55.44-.35.84-.76,1.17-1.21,1.52-1.5,2.37-3.39.94-5.23-.44-.78-1.2-1.34-2.32-1.63-1.93-.5-3.98-.71-6.03-.81.1-.43.22-.85.36-1.26-.06.12-.13.25-.18.37.77-2.63,1.83-5.07,3.49-7.52,1.04-1.52,2.22-2.89,3.43-4.27.14-.16.48-.5.72-.83.03-.1.04-.2.06-.3-.14.09-.28.18-.42.27-.82,1.06-1.82,2-2.7,2.99-1.17,1.33-2.12,2.9-3.06,4.4-1.14,1.83-1.93,3.95-2.38,6.11-1.34-.04-2.67-.04-3.97-.05-2.43,0-4.79.11-7.11.4-.75,0-1.33.03-1.65.07-1.75.18-3.47.59-5.15,1.17-8.02,2.19-14.98,8.61-21.53,13.25-.04.03-.09.13,0,.09,3.45-1.82,6.58-4.48,9.84-6.64,2.7-1.79,5.52-3.54,8.49-4.94,1.38-.55,2.79-1,4.22-1.36.06-.02.11-.03.17-.05,1.91-.45,3.84-.77,5.82-.97.83-.05,1.66-.08,2.49-.08,1.45,0,7.2.08,8.62.06.44,0,.89-.01,1.34,0,.37.04.74.07,1.11.11,1.47.19,3,.22,4.21.63.08.03.16.05.23.08.2.08.38.18.55.27.09.05.17.1.25.16.01,0,.02.02.04.02.6.45,1.02,1.12,1.16,2.14-.01.2-.04.41-.1.62-.74,2.64-3.42,4.52-5.78,5.51-1.12.47-2.27.79-3.43,1.06-1.96.37-3.9.47-5.96.76-2.27.31-4.28,1.48-6.11,2.79-1.73,1.24-3.15,2.99-4.31,4.92-.72,1.03-1.35,2.1-1.83,3.17-1.59,3.54-2.78,7.36-4.96,10.61-.04.15-.08.29-.11.44,2.5-3.31,4.22-7.45,5.77-11.24.38-.95.91-1.75,1.49-2.51.33.36.61.75.87,1.16.03.07.07.13.11.19.03.05.05.1.08.15,1.69,3.46,1.88,7.59,1.81,11.49.01-.06.02-.12.03-.18.26-1.39.42-2.79.58-4.19-.1-2.71-.64-5.38-2.04-7.49-.32-.56-.67-1.09-1.11-1.54.64-.8,1.34-1.56,2-2.39,2.65-3.31,5.49-3.92,9.36-4.67.53-.1,1.05-.2,1.57-.31-.11.41-.2,1.27-.26,2.29-.31,1.75-.38,3.66-.16,5.42,0,.46,0,.78,0,.88.06.86.36,1.66.84,2.27,0,0,0,0,0,0,0,0,0,0,0,0,.56.73,1.36,1.2,2.31,1.21.92.15,1.93-.05,2.69-.55,1.73-1.13,2.75-2.78,3.57-4.65.83-1.91,1.58-4.11,2.58-6.11.03-.02.06-.04.06-.05.12-.29.26-.56.39-.83.74-1.31,1.63-2.5,2.78-3.39.02-.02.05-.04.07-.06.04-.03.08-.04.11-.07.47-.38.96-.74,1.43-1.13-.02,0-.04,0-.05.01.38-.32.75-.65,1.1-.98.65-.67,1.22-1.39,1.62-2.21-.2.15-.4.3-.6.45-1.33,1.44-2.77,2.64-4.28,3.93Z"/>
          </g>
          <g>
            <path class="cls-4" d="M49.96,64.35c-5.03-.11-10.13-.16-15.11.69-2.34.4-4.58,1.15-6.87,1.73-2.06.53-3.91,1.53-5.93,2.11-.03,0-.12.11-.04.09,1.67-.37,3.2-1.17,4.89-1.53,2.25-.47,4.48-1.03,6.73-1.49,5.26-1.09,10.86-1.29,16.22-1.44.06,0,.21-.16.12-.16Z"/>
            <path class="cls-4" d="M5.74,31.06c-1.24-6.04-2.94-12.73-2.16-18.89,0-.05-.08.01-.08.04-1.4,5.71.23,11.76,1.33,17.43,1.38,7.08,3.43,14.09,5.12,21.11.02.08.2-.05.19-.12-1.23-6.57-3.05-13.02-4.4-19.57Z"/>
            <path class="cls-4" d="M34.74,4.52c-1.61,2.47-2.3,4.19-2.49,7.19-.22,3.4-.02,6.79-.08,10.19-.12,6.98-.3,13.94-.46,20.92,0,.06.16-.04.17-.11.35-6.07.59-12.17.71-18.25.06-3.2.12-6.43.23-9.63.13-3.84.25-6.87,2.03-10.34.04-.08-.09-.01-.11.02Z"/>
            <path class="cls-4" d="M61.69,8.07c-3.69,2.81-4.29,8.38-5,12.61-1.01,6.01-2.81,11.98-3.41,18.05-.01.1.18-.02.19-.09.77-4.92,2.1-9.78,3.2-14.63.54-2.41.92-4.86,1.44-7.28.64-2.98,1.19-6.5,3.62-8.6.07-.06.03-.12-.05-.06Z"/>
            <path class="cls-4" d="M46.43,81.86c-2.85.13-5.52.22-8.31.9-2.85.7-5.69,1.68-8.39,2.83-2.56,1.09-4.81,2.89-7.05,4.51-1.14.82-2.18,1.79-3.23,2.73-.91.81-1.82,2.02-2.83,2.66-.03.02-.07.1,0,.07,1.58-.78,2.92-2.43,4.29-3.57,2.43-2.01,5.13-3.9,7.9-5.4,5.31-2.88,11.72-3.45,17.54-4.58.05,0,.19-.16.09-.16Z"/>
            <path class="cls-4" d="M64.05,66.39c-1.4.75-2.39,2.01-3.48,3.13-1.06,1.09-2.54,2.54-2.65,4.13-.01.14.21-.04.23-.09.73-1.4,1.77-2.75,2.86-3.89,1.02-1.08,1.88-2.29,3.05-3.22.03-.02.05-.1,0-.06Z"/>
            <path class="cls-4" d="M52.04,97.06c-.02-1.2.15-2.39.07-3.58,0-.05-.11.03-.11.06-.55,2.65-1.02,5.26.03,7.88.04.1.23-.07.22-.14-.11-1.4-.18-2.81-.2-4.22Z"/>
            <path class="cls-4" d="M66.75,114.11c-3.11,6.04-10.84,10.16-17.43,10.62-.03,0-.1.08-.06.08,6.66.04,14.94-4.29,17.57-10.72.02-.06-.07,0-.08.02Z"/>
            <path class="cls-4" d="M31.4,68.14c-2.48.59-5.12.92-7.38,2.16-2.58,1.41-4.29,2.87-6.21,5.11-.14.16.05.14.15.05,2.1-2.03,4.17-3.62,6.77-4.95,2.06-1.06,4.46-1.49,6.63-2.27.03-.01.13-.12.05-.1Z"/>
          </g>
        </g>
      </g>
    </g>
  </g>
</svg>