<?xml version="1.0" encoding="UTF-8"?>
<svg xmlns="http://www.w3.org/2000/svg" xmlns:xlink="http://www.w3.org/1999/xlink" viewBox="0 0 67.46 148.96">
  <defs>
    <style>
      .cls-1 {
        fill: url(#linear-gradient);
      }

      .cls-1, .cls-2 {
        opacity: .4;
      }

      .cls-1, .cls-3, .cls-4 {
        mix-blend-mode: screen;
      }

      .cls-2 {
        fill: #f9b38f;
        mix-blend-mode: multiply;
      }

      .cls-5, .cls-4 {
        fill: #fbd4b8;
      }

      .cls-6 {
        isolation: isolate;
      }

      .cls-7 {
        fill: #e37e5a;
      }

      .cls-3 {
        fill: #ea9398;
        opacity: .7;
      }

      .cls-4 {
        opacity: .8;
      }

      .cls-8 {
        fill: #e47f5a;
      }

      .cls-9 {
        fill: #efc7b0;
      }
    </style>
    <linearGradient id="linear-gradient" x1="13.41" y1="136.93" x2="37.29" y2="136.93" gradientUnits="userSpaceOnUse">
      <stop offset="0" stop-color="#ffc6a5"/>
      <stop offset="1" stop-color="#f9b09b"/>
    </linearGradient>
  </defs>
  <g class="cls-6">
    <g id="Livello_2" data-name="Livello 2">
      <g id="Layer_1" data-name="Layer 1">
        <g>
          <g>
            <g>
              <path class="cls-9" d="M15.19,117.65l-3.75,23.5s-.25,4.75,6,6.25c6.25,1.5,21.25,1.75,31-1.5,0,0,3-1.75,3-3.5,0,0-1.5-25.5-2.25-25.25s-34,.5-34,.5Z"/>
              <path class="cls-5" d="M15.19,117.65l-3.75,23.5s-.25,4.75,6,6.25c6.25,1.5,21.25,1.75,31-1.5,0,0,3-1.75,3-3.5,0,0-1.5-25.5-2.25-25.25s-34,.5-34,.5Z"/>
              <path class="cls-2" d="M49.19,117.15c-.53.17-17.04.35-26.85.44.98,2.93,2.89,5.51,5.69,7.06,3.6,1.98,7.62,2.21,11.56,3.03,6.87,1.43,5.62-18.69,5.92,15.08.02,1.86-1.05,3.29-2.23,4.46,1.82-.35,3.56-.78,5.16-1.32,0,0,3-1.75,3-3.5,0,0-1.5-25.5-2.25-25.25Z"/>
              <path class="cls-1" d="M31.42,129.73c4,0,5.17,4.33,5.17,4.33,0,0,1.33-5.83.33,4.5s-17.83,7.33-17.83,7.33c-6.17-1.17-5.67-6.67-5.67-6.67l2.5-6.83s-.08-5.17,2.58-4.83c2.49.31,12.92,2.17,12.92,2.17Z"/>
              <path class="cls-3" d="M17.25,130.98s-2.75,2.92-2.92,9.25c0,0,3.75,6.92,2.92-9.25Z"/>
            </g>
            <g>
              <path class="cls-5" d="M21.49,53.76c-.07-.06-.12-.13-.13-.22-.05-.33-.08-.72-.08-1.14-.47-5.02-1.43-9.99-1.52-15.04-.1-5.63-.11-11.26-.28-16.89-.15-5.15.15-11.54-2.46-16.16-1.11-1.96-2.9-4.07-5.43-3.78-1.11.13-2.16.58-3.06,1.24-4.07,5.17-3.4,27-3.86,40.21-.5,14.33-2.25,27.12-2.25,27.12l19.58-3.46s-.04-4.87-.12-11.69c-.15,0-.29-.09-.38-.21Z"/>
              <path class="cls-5" d="M65.66,73.9c-3.5-6.38-10.25-5.38-10.25-5.38,0-2.75-2.5-8.25-6.87-9.75s-7.37.25-7.37.25c-1-3.88-3.75-7.62-8.5-8.5-2.43-.45-4.96.05-6.86.65-.01,0-.02.01-.03.02-1.14.57-1.99,1.45-3.02,2.12-.04.04-.08.07-.13.11-.12.15-.25.29-.38.42-.25.25-.6.15-.76-.09-.06-.06-.11-.13-.12-.21-.05-.33-.08-.71-.08-1.11-.04-.42-.08-.85-.12-1.27-1.19-.78-2.95-1.63-4.99-1.63-3.75,0-11.29,6.88-14.17,21.38S-.09,102.15,8.54,115.27s25.75,11.5,25.75,11.5c17.87-.38,25.87-15.54,28.12-22.54s6.75-23.96,3.25-30.33Z"/>
              <path class="cls-2" d="M65.66,73.9c-3.5-6.38-10.25-5.38-10.25-5.38,0-2.75-2.5-8.25-6.87-9.75s-7.37.25-7.37.25c-1-3.88-3.75-7.62-8.5-8.5-2.43-.45-4.96.05-6.86.65-.01,0-.02.01-.03.02-1.14.57-1.99,1.45-3.02,2.12-.04.04-.08.07-.13.11-.12.15-.25.29-.38.42-.25.25-.6.15-.76-.09-.06-.06-.11-.13-.12-.21-.05-.33-.08-.72-.08-1.14-.47-5.02-1.43-9.99-1.52-15.04-.1-5.63-.11-11.26-.28-16.89-.15-5.15.15-11.54-2.46-16.16-1.11-1.96-2.9-4.07-5.43-3.78-1.11.13-2.16.58-3.06,1.24-4.07,5.17-3.4,27-3.86,40.21-.47,13.46-2.04,25.56-2.23,26.98-.15.63-.3,1.27-.43,1.93-2.88,14.5-2.08,31.25,6.54,44.38s25.75,11.5,25.75,11.5c17.87-.38,25.87-15.54,28.12-22.54s6.75-23.96,3.25-30.33ZM42.25,60.65c2.78-2.75,7.29.25,9.01,2.88,1.4,2.14,1.33,4.18.58,6.14-.44,1.89-1.39,3.77-2.19,5.11-1.73,2.89-3.75,5.71-5.19,8.76-.87,1.85-.62.47-1.27,2.38-1.14,3.36-3.66,1.28-4.06-.88-.36-1.91.39-2.84.44-2.98.87-2.17,2.36-3.85,3.78-5.62,2.28-3.34,4.75-7.41-.44-9.34-.64-.24-1.1-.53-1.41-.87-.34-.22-.49-.56-.5-.97-.07-.35-.06-.72.01-1.11-.18-1.18.33-2.6,1.22-3.49ZM24.09,60.28c.28-3.58,1.25-6.68,4.14-8.09.7-.4,1.39-.61,2.04-.64.09-.02.17-.04.27-.05.13-.02.25.01.34.07,2.38.26,4.16,2.75,4.17,5.64,0,4.32-.49,9.19-5.54,9.97-1.69.26-3.35.31-4.61-.99-1.25-1.29-.94-4.34-.81-5.91ZM4.02,67.37c1.25-8.25,1.67-16.53,1.76-24.87.09-8.08.15-16.14.7-24.2.17-2.48.36-4.98.59-7.47-.24-2.63-.05-5.3,1.22-7.24,1.96-3,4.98-2.35,6.19.81,1.17,3.07,1.35,6.36,1.51,9.59.42,8.06.32,16.13.22,24.19-.16,12.2,1.44,26.79-8.99,35.56-4.36,3.66-3.52-4.33-3.21-6.37ZM31.6,77.09c-3.59,1.09-7.73,2.49-10.15,5.57-2.87,3.64-1.34,7.24,1.27,10.45,3.64,4.49,6.09,9.99,6.01,15.89-.06,4.5-1.42,10.37-6.6,11.25-4.39.74-9.31-2.66-11.82-5.94-3.5-4.58-5.32-10.54-6.78-16.06-1.18-4.48-2.05-9.6-.05-13.92.77-2.32,2.16-4.44,4.32-6.15,5.84-4.63,12.98-7.73,20.34-8.26,2.94-.21,9.25-1.57,11.3,1.49,2,2.98-6.52,5.28-7.83,5.68ZM58.27,103.61c-.46,4.6-3.87,9.44-7.02,12.62-2.87,2.9-8.07,7.15-12.3,4.36-1.96-1.29-2.68-4.4-2.51-7.19-.11-1.13-.06-2.24.14-3.18,1.36-6.06,8.5-4.8,12.97-6.96,1.76-.85,9.21-4.62,8.71.34ZM56.77,84.68c-1.81,1.98-4.29,5.45-7,6.24-1.57.46-4.21.09-4.61-1.91-.51-2.53,1.33-5.13,2.62-7.15,1.52-2.38,3.17-4.65,4.83-6.92.3-.56.6-1.13.92-1.7.9-1.62,2.66-4.56,4.99-3.09,5.9,3.71,1.84,10.6-1.75,14.54Z"/>
              <path class="cls-2" d="M45.01,68.34c-1.28-.88-2.93-1.03-4.51-.98-.29,0-.48-.23-.5-.5-.17-2.79.82-6.18,2.81-8.43-1.05.25-1.65.6-1.65.6-.58-2.27-1.78-4.49-3.61-6.12.33.48.61.99.81,1.53,1,2.7.39,5.7-.36,8.4-.57,2.06-1.42,4.24-3.88,4.34-2.47.1-5,.52-7.47.37-5.09-.32-3.61-7.29-3.2-10.62.33-2.76,1.61-4.7,3.43-6.04-.37.1-.74.2-1.08.3-.01,0-.02.01-.03.02-1.14.57-1.99,1.45-3.02,2.12-.04.04-.08.07-.13.11-.12.15-.25.29-.38.42-.25.25-.6.15-.76-.09-.06-.06-.11-.13-.12-.21-.05-.33-.08-.72-.08-1.14-.47-5.02-1.43-9.99-1.52-15.04-.1-5.63-.11-11.26-.28-16.89-.14-4.87.11-10.86-2.07-15.41,1.67,5.46,1.55,11.17,1.38,17.12-.29,9.83-.08,19.64.04,29.46.03,2.62.06,5.24.06,7.86,0,1.8.18,3.72-.19,5.5-.7,3.38-2.38,3.97-5.19,5.48-5.34,2.87-10,7.87-11.41,13.72.91-1.99,2.28-3.79,3.91-5.32,1.11-1.38,2.38-2.65,3.84-3.77,7.51-5.75,17.77-6.78,26.96-7.03,1.96-.05,6.35-.38,6.86,2.3.14.25.25.52.32.79.21.84.21,1.64.06,2.42.25-.21.5-.42.75-.63.28-.9.43-1.86.46-2.9,0-.34.3-.5.56-.47-.15-.45-.41-.87-.81-1.25Z"/>
              <path class="cls-2" d="M66.35,75.7c-.12,3.66-2.22,7.09-5.6,9.47-.35.25-.89-.16-.73-.56.49-1.27.44-2.44.19-3.6-1.01,4.25-4.55,6.45-7.64,9.74-1.77,1.88-1.42,4.47-2.96,6.39-.67.83-1.97.76-2.76.24-2.36-1.54-2.13-6.85-1.91-9.2.06-.68.18-1.36.32-2.02-.04.07-.08.13-.12.19-.84,1.54-1.42,3.17-2.7,4.4-1.93,1.85-4.49-.22-5.08-2.26-.67-2.31-1.12-6.88.93-8.67,1.47-1.29,3.34-2.1,4.65-3.58.35-.39.64-.8.9-1.21-1.58,1.29-3.14,2.44-5.2,3.16-2.51.87-5.12,1.36-7.63,2.18-2.54.83-5.5,2.06-6.79,4.59-1.11,2.18-1.33,4.43-.86,6.59.8,1.81,2.04,3.53,3.48,5.22,2.28,2.69,4.14,5.88,5.02,9.33.84,3.3,1.23,6.58,1.13,9.96.95-2.92,1-6.4.7-9.21-.5-4.8-2.71-8.8-5.13-12.87-.19-.32.05-.77.43-.75,2.6.11,4.42-.04,5.69-2.63.17-.34.68-.31.86,0,1.19,2.04,3.91,7.39,6.71,4.65.21-.2.65-.2.79.1.82,1.91,1.74,3.97,3.02,5.5,4.35.97,6.78-4.15,8.69-8.05,1.72-3.5,4.68-5.14,8.11-6.76.26-.12.69-.05.73.3.72,5.28.44,10.57-.54,15.74,2.13-7.14,5.14-19.8,3.28-26.39ZM28.84,89.91c-.99-.64-2.53-2.73-1.92-4.04,0-.16.06-.31.25-.4.02,0,.04-.02.06-.03.69-.7,1.72-1.18,2.79-1.5.87-.43,1.79-.75,2.82-.71.26,0,.51.22.5.5-.1,2.07-.9,8.52-4.5,6.18Z"/>
              <path class="cls-8" d="M34.71,82.76c.04.34.07.69.1,1.03-.15,2.05-.31,4.09-1.42,5.84-1.37,2.16-4.96,1.63-6.64.31-1.03-.81-1.6-2.65-2.09-4.01.57-.84,1.31-1.63,2.23-2.46,1.9-1.7,4.29-2.14,6.7-2.63.52-.1,1.05-.23,1.58-.37-.2.75-.37,1.52-.47,2.29ZM62.16,85.3c-.5.24-1.01.41-1.54.57.04-.06-.09-.03-.13,0-.01.01-.03.03-.04.04-.4.11-.8.22-1.2.33-.12.03-.26.14-.38.26,0,0-.02,0-.03.01.57-.32,1.06-1.71,1.28-2.3.33-.87.78-2.33.12-3.14-.42,2.1-.94,3.83-2.24,5.71-.55.8-1.24,1.44-1.95,2.04-1.38,1.16-2.8,2.22-3.36,4.02-.63,2.02-.53,4.02-2.07,5.67-.42.45-1.06.87-1.65,1.04.09-.05.17-.12.25-.18-.01,0-.03,0-.04,0-.83.31-1.78.46-2.58-.02-.55-.33-.91-.81-1.16-1.36-1.13-1.62-1.3-4.55-1.44-5.99-.53-5.28,3.38-9.96,5.77-14.32,1.07-1.95,2.34-3.75,3.55-5.6.24-.36.48-.75.73-1.13.06-.09.13-.17.2-.26.09-.13.18-.27.28-.41.15-.19.3-.37.46-.55.02-.07.05-.14.08-.21.22-.28.46-.54.73-.73.02-.02.12-.09.08-.13-.01-.02-.03-.04-.04-.05-.04-.06-.13-.03-.18-.02-.57.17-.94.62-1.29,1.08-.73.95-1.4,1.93-1.99,2.98-.01.03,0,.03,0,.05-1.62,2.38-3.03,4.88-4.59,7.3-2.65,4.1-4.89,8.41-4.41,13.17-.42.68-.98,1.51-1.73,1.51-.69,0-1.33-.46-1.87-.83-3.15-2.14-4.69-6.54-4.53-10.17.05-1.13.29-2.25.52-3.37,1.49-.43,2.97-1.03,4.24-1.86.27-.16.55-.33.81-.51,1.14-.65,2.15-1.45,2.77-2.46,1.36-2.21,3.57-5.72.9-7.92-1-.82-2.97-.3-4.2-.16-.5.09-1,.06-1.51.12,0,.02-.04.04-.06.05.01-.17.04-.34.05-.5.04-.1.08-.2.11-.3.07-.18.12-.37.21-.55.12-.36.26-.72.39-1.07.09-.19.15-.38.18-.58.06-.18.12-.35.17-.53.08-.31.18-.62.26-.94.49-1.32,1.01-2.65,1.12-4.05-.12.19-.25.37-.36.56-.33,1.15-.8,2.28-1.25,3.39-.4.99-.91,2.06-1.21,3.13-.06.14-.11.28-.17.41-.17.37-.38.76-.48,1.16-.44,0-.89-.02-1.02-.01-1.32.06-2.63.2-3.95.27-1.26.07-2.5.15-3.73.23-.37.09-.75.13-1.13.09-1.36.18-2.92.47-4.33.47-.23.05-.47.09-.71.13,0-4.96-.93-10.09.84-14.89.03-.09-.11,0-.13.04-1.04,1.92-1.56,4.05-1.74,6.25-.1-1.52-.14-3.04-.31-4.55,0-.05-.11.03-.11.07-.02,2.2-.77,4.99.36,7.04.05,2.07.34,4.15.7,6.09-.21.02-.43.04-.64.03-1.06.16-2.11.34-3.17.59-.26.06-.51.15-.76.22-.6.21-1.2.46-1.82.75-2.77,1.32-5.34,3.17-7.66,5.22-3.01,2.37-5.45,5.26-6.92,8.56-.11.38-.22.77-.32,1.15-.03.55-.05,1.09-.05,1.64.17-.38.34-.75.53-1.12.21-.74.45-1.48.76-2.19,2.28-5.12,7.49-8.93,12.27-11.56,1.5-.83,3.13-1.53,4.79-2,1.02-.29,2.08-.5,3.15-.67.02,0,.04,0,.06,0,2.06-.34,4.16-.53,6.2-.65,2.03-.12,4.07-.2,6.1-.34.92-.06,1.83-.16,2.74-.26.01,0,.03,0,.04,0,.91-.1,1.82-.2,2.73-.27,2.31-.17,3.87-.41,4.45,2.31.49,2.27-1.48,5-3.26,6.43-.11.09-.22.17-.34.26-.09.06-.18.13-.27.18-1.88,1.21-4.08,1.88-6.2,2.51-2.33.7-4.86.89-7.01,2.13-1.81,1.04-3.64,2.58-4.65,4.43-2.97,5.44,4.01,8.82,6.26,12.78,3.03,5.33,3.85,11.44,3.88,17.46.11-.31.22-.63.32-.95.35-4.88-.04-9.63-1.99-14.23-.17-.4-.35-.8-.53-1.19-1.1-1.88-2.38-3.64-3.98-5.2-2.57-2.5-4.99-4.86-2.8-8.56.08,1.61,1.17,3.74,2.26,4.38,1.75,1.01,3.81,1.06,5.65.24,1.2-.54,1.86-1.81,2.29-2.97.15-.41.26-.85.35-1.31.08.57.16,1.15.26,1.72.18.54.38,1.06.61,1.57.79,1.8,1.7,3.28,3.33,4.41,1.81,1.26,3.4.98,4.3-.58.1.69.26,1.38.49,2.08.33,1.02.65,1.93,1.19,2.64.87,2.14,3.61,1.73,5.24.75.76-.45,1.21-1.17,1.56-1.94.48-.88.78-1.89,1.06-2.89.38-1.35.66-2.43,1.24-3.44.17-.16.34-.32.54-.47.22-.3.45-.59.74-.87.67-.68,1.45-1.27,2.2-1.86.2-.21.41-.41.59-.63.18-.21.73-.27.98-.34.86-.23,1.8-.55,2.58-.97.26-.14.49-.31.7-.49.03-.09.05-.18.07-.27-.2.08-.37.15-.48.21Z"/>
            </g>
            <path class="cls-4" d="M10.12,4.02c-1.83,3.42-1.99,6.22-2.19,10.09-.3,5.52-.86,11.02-1.03,16.54-.35,11.6-1.09,23.23-1.21,34.82,0,.13.36-.08.36-.2.67-11.09.92-22.22,1.67-33.3.32-4.8,1.02-9.59,1.28-14.39.25-4.61.11-9.19,1.39-13.66.04-.15-.24.04-.27.1Z"/>
            <path class="cls-4" d="M4.68,95.1c-.33-3.3-.4-6.53.35-9.78.83-3.58,3-5.88,5.5-8.4.05-.05,0-.07-.05-.03-1.9,1.75-3.67,3.33-4.97,5.61-1.68,2.95-2.13,6.22-2.07,9.56.06,3.91,1.25,7.76,2.43,11.45,1.07,3.36,2.58,6.48,4.74,9.28.03.04.15-.06.12-.1-3.62-5.27-5.42-11.26-6.05-17.59Z"/>
            <path class="cls-4" d="M26.96,53.91c-1.74,2.91-2.84,7.33-2.05,10.69.04.16.34-.11.36-.2.72-3.52.49-7.09,1.78-10.51.02-.06-.07,0-.09.02Z"/>
            <path class="cls-4" d="M43.25,61.58c-.63.63-1.31,1.52-1.41,2.43-.03.28.4-.05.45-.12.9-1.11,1.45-2.7,2.87-3.29.02,0,.1-.07.05-.09-.63-.21-1.58.68-1.97,1.07Z"/>
            <path class="cls-4" d="M56.13,71.73c-1.68,2.2-3.5,4.22-5.02,6.55-1.25,1.91-2.98,3.85-3.78,6-.09.24.26.03.32-.05,2.86-4.14,5.86-8.26,8.56-12.5.05-.08-.06-.03-.08,0Z"/>
            <path class="cls-4" d="M54.53,110.85c-3.37,3.54-6.88,7.37-11.58,9.13-.05.02-.17.18-.05.15,5.04-1.5,8.53-5.31,11.71-9.27.05-.06-.05-.04-.07,0Z"/>
          </g>
          <path class="cls-7" d="M29.31,148.96h0c-4.7,0-9.18-.4-11.99-1.08-6.58-1.58-6.38-6.71-6.38-6.76l3.45-19.1c-2.5-1.76-4.61-3.94-6.27-6.47C-2.23,99.8-.47,80.75,1.51,70.8c.12-.62.26-1.21.4-1.8l.04-.15c.17-1.29,1.75-13.42,2.22-26.88.09-2.66.14-5.66.19-8.84.2-12.85.43-27.41,3.78-31.67.03-.03.06-.07.1-.09C9.23.63,10.38.16,11.53.03c2.29-.26,4.3,1.15,5.92,4.03,2.31,4.09,2.4,9.47,2.48,14.21.01.75.03,1.48.05,2.18.1,3.55.15,7.17.19,10.66.03,2.08.05,4.16.09,6.24.06,3.2.48,6.44.88,9.57.18,1.36.35,2.72.5,4.09,0,.03.01.06.02.09.03.25.05.5.07.74l.05.51c0,.39.03.74.07,1.05.02.02.03.04.04.06,0,0,.02,0,.03,0,.11-.11.21-.23.31-.35.02-.03.05-.05.08-.08.01,0,.15-.12.16-.13.39-.25.76-.54,1.14-.84.59-.46,1.2-.94,1.93-1.31.02-.01.08-.04.11-.05,2.6-.81,5.03-1.04,7.1-.66,4.16.77,7.39,3.85,8.73,8.29.67-.27,1.9-.65,3.53-.65,1.22,0,2.46.21,3.68.63,4.44,1.52,6.89,6.8,7.18,9.68.15,0,.34-.01.55-.01,1.97,0,6.85.55,9.67,5.69,4,7.29-1.97,26.87-3.21,30.73-.86,2.67-4.3,11.79-12.72,17.75.77,13.81,1.76,19.86,1.77,20.25,0,1.99-2.92,3.75-3.25,3.94-.03.02-.06.03-.09.04-6.76,2.25-14.98,2.59-19.29,2.59ZM8.88,2.13c-3.1,4.07-3.34,19-3.52,31.01-.05,3.18-.1,6.18-.19,8.86-.47,13.51-2.06,25.69-2.23,27.03l-.04.2c-.14.58-.28,1.16-.39,1.77-1.94,9.8-3.69,28.55,6.47,44,1.65,2.5,3.75,4.65,6.24,6.36.15.1.23.27.22.45l-3.47,19.38c0,.17-.13,4.35,5.62,5.73,2.74.66,7.13,1.05,11.75,1.05,4.23,0,12.31-.33,18.92-2.52.79-.47,2.71-1.87,2.71-3.04,0-.38-1.02-6.92-1.79-20.48-.01-.17.07-.34.21-.44,8.33-5.78,11.73-14.78,12.57-17.4.75-2.32,7.17-22.87,3.29-29.94-2.56-4.67-7-5.17-8.79-5.17-.58,0-.94.05-.95.05-.15.02-.29-.02-.4-.12-.11-.09-.17-.23-.17-.38,0-2.39-2.31-7.83-6.54-9.28-1.12-.38-2.25-.58-3.36-.58-2.2,0-3.59.78-3.6.79-.14.08-.3.09-.44.03-.14-.06-.25-.19-.29-.34-1.13-4.37-4.16-7.41-8.11-8.13-1.91-.35-4.18-.13-6.62.63-.6.3-1.14.73-1.72,1.18-.39.3-.79.62-1.22.9l-.04.03c-.12.15-.26.29-.4.43-.22.21-.51.33-.8.26-.27-.03-.51-.17-.68-.4-.1-.11-.21-.25-.23-.46-.05-.36-.08-.78-.08-1.2l-.05-.47c-.02-.21-.04-.43-.06-.64,0-.03-.01-.06-.02-.09-.15-1.38-.33-2.77-.51-4.15-.41-3.16-.83-6.43-.89-9.68-.04-2.08-.06-4.16-.09-6.25-.04-3.49-.09-7.1-.19-10.64-.02-.71-.03-1.44-.05-2.19-.08-4.62-.16-9.86-2.35-13.73-.97-1.72-2.63-3.79-4.94-3.53-.96.11-1.91.49-2.77,1.11Z"/>
        </g>
      </g>
    </g>
  </g>
</svg>