<?xml version="1.0" encoding="UTF-8"?>
<svg id="Livello_2" data-name="Livello 2" xmlns="http://www.w3.org/2000/svg" viewBox="0 0 3043.4 3211.3">
  <defs>
    <style>
      .cls-1 {
        fill: #fff2e8;
      }

      .cls-2 {
        fill: #f9d6b6;
      }

      .cls-3 {
        fill: #a05f3c;
      }

      .cls-4 {
        fill: #591224;
      }

      .cls-5 {
        fill: #10be10;
      }

      .cls-6 {
        fill: #fbc20b;
      }

      .cls-7 {
        fill: #e09d0a;
      }

      .cls-8 {
        fill: #f8af0d;
      }

      .cls-9 {
        fill: #262f6a;
      }

      .cls-10 {
        fill: #198bfd;
      }

      .cls-11 {
        fill: #fcd807;
      }

      .cls-12 {
        fill: #febd1c;
      }

      .cls-13 {
        fill: #f44a4a;
      }

      .cls-14 {
        fill: #fff;
      }

      .cls-15 {
        fill: #f9f9f9;
      }

      .cls-16 {
        fill: #f28475;
      }

      .cls-17 {
        opacity: .7;
      }

      .cls-18 {
        opacity: .4;
      }

      .cls-19 {
        opacity: .35;
      }

      .cls-20 {
        opacity: .5;
      }

      .cls-21 {
        opacity: .2;
      }

      .cls-22 {
        opacity: .3;
      }

      .cls-23 {
        opacity: .25;
      }

      .cls-24 {
        fill: #31c0ff;
      }

      .cls-25 {
        fill: #0e980e;
      }

      .cls-26 {
        fill: #d3613c;
      }

      .cls-27 {
        fill: #cce2ed;
      }

      .cls-28 {
        fill: #3386ff;
      }

      .cls-29 {
        fill: #e2b28a;
      }
    </style>
  </defs>
  <g id="Layer_1" data-name="Layer 1">
    <g>
      <g>
        <g>
          <path class="cls-14" d="M2482.59,2698.39c-7.45,12.32-19.45,21.98-34.48,26.18-31.23,8.62-63.59-9.61-72.26-40.84-38.59-138.96-132.24-228.69-250.58-240.01-96.72-9.25-182.7,37.1-224.44,120.96-32.9,66.12-81.33,119.69-140,154.85-50.1,30.06-103.49,45.18-155.53,45.18-40.8,0-80.79-9.25-117.89-28.03-82.82-41.84-137.74-124.48-146.95-221.06-3.07-32.27,20.58-60.88,52.85-63.95,32.22-3.07,60.88,20.58,63.95,52.85,5.37,56.24,36.42,103.85,83.09,127.45,48.38,24.46,105.25,19.81,160.13-13.09,39.4-23.6,72.39-60.43,95.27-106.51,24.15-48.56,58.76-89.18,100.37-120.05,66.8-49.51,151.65-73.88,240.33-65.4,77.94,7.45,151.19,39.4,211.94,92.39,65.44,57.09,114.05,137.65,140.54,233.02,4.51,16.2,1.71,32.72-6.36,46.08Z"/>
          <g class="cls-23">
            <path class="cls-4" d="M2482.59,2698.39c-7.45,12.32-19.45,21.98-34.48,26.18-31.23,8.62-63.59-9.61-72.26-40.84-38.59-138.96-132.24-228.69-250.58-240.01-96.72-9.25-182.7,37.1-224.44,120.96-32.9,66.12-81.33,119.69-140,154.85-50.1,30.06-103.49,45.18-155.53,45.18-40.8,0-80.79-9.25-117.89-28.03-82.82-41.84-137.74-124.48-146.95-221.06-3.07-32.27,20.58-60.88,52.85-63.95,32.22-3.07,60.88,20.58,63.95,52.85,5.37,56.24,36.42,103.85,83.09,127.45,48.38,24.46,105.25,19.81,160.13-13.09,39.4-23.6,72.39-60.43,95.27-106.51,24.15-48.56,58.76-89.18,100.37-120.05,0,20.08,8.98,40.26,27.03,48.16,23.42,10.2,49.65-3.39,73.07-13.58,70.81-30.87,154.22-31.32,225.35-1.31,71.08,30.06,128.94,90.18,156.16,162.39,8.44,22.39,14.13,45.9,25.36,66.98,11.28,21.08,29.65,40.08,53.12,44.5,9.16,1.72,17.96,1.22,26.36-1.04Z"/>
          </g>
          <path class="cls-4" d="M1605.29,2778.25c-43.54,0-85.24-9.92-123.96-29.48-87.01-43.97-144.71-130.66-154.35-231.87-1.83-19.2,3.93-37.97,16.21-52.84,12.29-14.87,29.62-24.07,48.83-25.9,19.19-1.83,37.95,3.93,52.83,16.21,14.87,12.29,24.07,29.63,25.9,48.83,4.91,51.57,33.22,95.19,75.72,116.67,44.09,22.28,96.31,17.8,147.05-12.61,37.21-22.3,68.37-57.2,90.14-100.92,65.46-131.5,204.38-207.22,354.1-192.91,80.76,7.74,156.67,40.82,219.55,95.66,67.45,58.83,117.47,141.68,144.67,239.61,5.16,18.58,2.78,38.07-6.71,54.86-9.49,16.79-24.95,28.88-43.54,34.05-38.4,10.62-78.26-11.92-88.9-50.26-37.04-133.33-126.32-219.37-238.83-230.14-91.05-8.72-171.86,34.79-211.04,113.5-34.07,68.45-84.27,123.93-145.18,160.44-51.43,30.82-107.61,47.12-162.49,47.12ZM1398.96,2464.92c-1.45,0-2.91.07-4.37.21-12,1.14-22.84,6.89-30.52,16.18-7.68,9.29-11.28,21.02-10.14,33.02,8.75,91.91,60.94,170.51,139.61,210.27,34.89,17.63,72.49,26.57,111.74,26.57,49.97,0,101.34-14.96,148.56-43.26,56.46-33.84,103.1-85.46,134.86-149.27,44.3-88.99,135.43-138.18,237.86-128.4,124.12,11.89,222.19,105.29,262.35,249.86,6.64,23.96,31.56,38.05,55.57,31.41,11.61-3.23,21.27-10.78,27.21-21.27,5.93-10.49,7.42-22.67,4.19-34.28-25.78-92.81-72.93-171.12-136.38-226.45-58.58-51.1-129.24-81.91-204.32-89.11-138.43-13.26-266.86,56.64-327.29,178.02-24.07,48.36-58.81,87.11-100.45,112.08-59,35.36-120.51,40.17-173.18,13.55-50.85-25.7-84.67-77.39-90.46-138.27-1.14-12-6.89-22.83-16.19-30.52-8.16-6.74-18.2-10.34-28.65-10.34Z"/>
        </g>
        <g>
          <path class="cls-14" d="M1838.85,2370.14l49.67-76.99c27.65-42.86,44.05-92.04,47.24-142.95,9.22-147.03,3.73-304.77-6.64-466.08H812.14c-10.37,161.3-15.86,319.05-6.64,466.08,3.19,50.9,19.59,100.09,47.24,142.95l49.67,76.99h936.45Z"/>
          <g class="cls-23">
            <path class="cls-4" d="M1838.85,2370.14l49.67-76.99c27.65-42.86,44.05-92.04,47.24-142.95,9.22-147.03,3.73-304.77-6.64-466.08H812.14c-10.37,161.3-15.86,319.05-6.64,466.08,3.19,50.9,19.59,100.09,47.24,142.95l49.67,76.99h936.45Z"/>
          </g>
          <path class="cls-4" d="M1838.85,2383.97h-936.45c-4.7,0-9.07-2.39-11.62-6.33l-49.67-76.99c-29.01-44.97-46.1-96.7-49.41-149.58-8-127.63-5.96-271.92,6.64-467.83.47-7.28,6.5-12.94,13.79-12.94h1116.98c7.29,0,13.33,5.66,13.79,12.94,12.59,195.88,14.64,340.16,6.64,467.83-3.32,52.89-20.41,104.61-49.41,149.58l-49.67,76.99c-2.55,3.95-6.92,6.33-11.62,6.33ZM909.94,2356.32h921.38l45.59-70.66c26.46-41,42.04-88.14,45.06-136.32,7.74-123.64,5.96-263.29-5.82-451.39H825.12c-11.78,188.13-13.57,327.78-5.82,451.39,3.02,48.17,18.6,95.31,45.06,136.32l45.59,70.66Z"/>
        </g>
        <g>
          <path class="cls-14" d="M1506.57,1591.5l153.52,194.09,114.26,144.47c12.26,2.14,24.53,3.73,36.82,4.77,264.33,23.37,543.3-184.65,554.72-354.79,2.86-42.34-19.18-150.87-71.84-197.86-128.78-114.85-158.2,42.2-187.71,80.97-45.04,59.08-161.59,116.8-328.86,134.55-47.58,4.96-99.27,6.76-154.64,4.36-37.16-1.53-75.93-4.98-116.26-10.56Z"/>
          <g class="cls-23">
            <path class="cls-4" d="M1774.35,1930.06h0c274.6,47.64,579.56-171.96,591.54-350.01,1.74-26.1-5.92-77.4-24.46-123.88,5.81,26.89-21.24,51.99-21.52,67.51-2.86,154.86-245.91,301.25-504.58,315.24-45.54,2.46-69.27,55.36-40.98,91.13Z"/>
          </g>
          <path class="cls-4" d="M1852.6,1950.51c-26.69,0-53.64-2.16-80.65-6.85-7.52-1.3-12.56-8.46-11.25-15.98,1.31-7.52,8.43-12.57,15.98-11.25,167.19,29,333.68-44.61,433.72-123.2,84.15-66.11,137.11-146.14,141.67-214.1,2.83-42.13-20.54-144.98-67.23-186.61-32.41-28.91-59.86-41.35-81.67-36.93-31.31,6.34-50.61,46.98-66.11,79.65-7,14.74-13.04,27.46-19.74,36.26-60.55,79.48-225.63,145.36-447.1,145.37-52.26,0-107.63-3.66-165.54-11.68-7.56-1.05-12.85-8.02-11.8-15.59,1.04-7.57,8.13-12.84,15.59-11.79,289.75,40.13,518.6-33.45,586.86-123.05,4.96-6.51,10.69-18.58,16.76-31.36,17.19-36.21,40.74-85.81,85.61-94.89,31.22-6.32,65.73,7.88,105.55,43.39,56.04,49.97,79.53,162.69,76.42,209.1-5.16,76.77-60.63,162.05-152.18,233.98-88.66,69.65-227.48,135.54-374.87,135.54Z"/>
          <path class="cls-4" d="M2158.74,1859.63c-2.38,0-4.8-.62-6.99-1.91-132.65-78.03-146.88-315.38-147.42-325.44-.41-7.62,5.43-14.13,13.06-14.54,7.68-.33,14.14,5.44,14.55,13.05.13,2.32,13.99,232.61,133.82,303.11,6.58,3.87,8.78,12.34,4.91,18.92-2.58,4.38-7.19,6.82-11.93,6.82Z"/>
        </g>
        <g>
          <path class="cls-14" d="M351.53,1508.83c66.04,207.08,435.62,429.19,631.69,444.22,5.57.49,10.94.75,16.21.84l82.5-121.95,113.97-168.48,3.78-5.61c-107.36.87-201.15-23.46-277.36-54.93-136.45-56.4-216.42-136.01-216.42-136.01,0,0-14-127.87-62.65-141.94-61.85-17.93-66.81,70.77-72.07,70.52-5.21-.25-117.7-182.02-200.64-48.9-19.07,30.58-31.39,123.63-19.01,162.24Z"/>
          <g class="cls-23">
            <path class="cls-4" d="M351.53,1508.83c67.9,212.92,456.73,441.74,647.9,445.06h0c27.23-40.26,5.6-95.36-41.79-106.15-210.64-47.98-496.9-196.76-606.45-436.65-5.75,35.8-6.76,75.65.34,97.74Z"/>
          </g>
          <path class="cls-4" d="M999.41,1967.72c-.08,0-.16,0-.24,0-96.7-1.68-241.33-57.68-377.44-146.15-148.29-96.39-251.58-208.84-283.39-308.52-13.06-40.93-1.59-138.37,20.46-173.77,21.76-34.93,47.94-53.47,77.82-55.12,54.4-2.97,104.25,52.42,129.21,83.22,5.65-17.93,15.52-40.57,35.59-51.89,13.24-7.47,28.61-8.75,45.69-3.8,51.6,14.95,68.44,121.3,71.94,148.64,26.74,24.72,209.22,183.74,475.21,183.74,1.76,0,3.52,0,5.29-.02h.11c7.59,0,13.76,6.12,13.82,13.71.06,7.63-6.08,13.87-13.72,13.93-1.88.01-3.8.02-5.67.02-298.59.02-489.89-186.98-497.93-194.98-2.24-2.22-3.64-5.15-3.99-8.29-5.43-49.29-25.4-122.27-52.77-130.2-9.8-2.84-17.79-2.4-24.42,1.33-15.7,8.86-22.68,34.86-26.43,48.83-2.7,10.07-5.74,21.49-18.04,20.91-7.04-.33-9.91-3.97-18.42-14.77-18.39-23.34-67.13-85.28-113.97-82.78-20.36,1.13-39.16,15.3-55.88,42.14-16.51,26.5-29,114.99-17.59,150.75,67.54,211.66,456.19,432.33,634.98,435.44,7.63.13,13.72,6.43,13.58,14.06-.13,7.55-6.29,13.58-13.81,13.58Z"/>
          <path class="cls-4" d="M582.53,1791.77c-5.34,0-10.42-3.11-12.68-8.32-3.04-7,.17-15.14,7.17-18.19,138.72-60.28,170.53-252.77,170.84-254.7,1.19-7.54,8.2-12.7,15.81-11.5,7.54,1.19,12.69,8.26,11.5,15.81-1.34,8.52-34.63,209.48-187.13,275.76-1.79.78-3.66,1.15-5.5,1.15Z"/>
        </g>
        <g>
          <path class="cls-14" d="M2206.78,2644.59c-4.6,15.93-12.86,30.46-23.24,43.37-61.11,75.69-183.06,151.83-281.22,164.46-40.89,5.28-81.96-7.76-112.74-35.2-99.92-88.91-192.67-193.35-286.95-264.61-.86-.68-1.72-1.31-2.57-1.94-23.56,2.98-47.25,5.05-71.08,6.32-.18.05-.32.05-.5.05-42.92,2.39-86.25,2.08-129.94-.77h-.14c-18.73-1.17-37.6-2.84-56.46-5.01-1.85-.18-3.7-.36-5.55-.59-95.18,71.31-188.65,176.83-289.48,266.55-30.83,27.44-71.85,40.48-112.74,35.2-98.21-12.64-220.16-88.78-281.22-164.46-10.38-12.91-18.68-27.44-23.24-43.37-9.61-33.44-3.16-64.58,13.95-87.15,23.24-30.69,66.12-45.63,115.04-29.34,66.07-93.51,141.49-176.33,230.18-243.72-1.62-46.17-1.81-89.27-.63-129.62,1.4-48.83,4.74-93.6,9.84-134.77,9.48-76.86,24.96-141.13,44.95-195.97l76.73-221.15,686.2,22.57,87.47,198.58c39.54,108.41,61.47,253.78,54.16,460.35,88.73,67.38,164.1,150.2,230.18,243.72,46.67-15.57,87.87-2.66,111.75,25.18l.05.05c19.54,22.84,27.44,55.74,17.24,91.26Z"/>
          <path class="cls-4" d="M947,1825.49c-11.4,36.95-20.25,74.52-27.03,112.43-6.48,37.98-11.23,76.23-14.24,114.65-2.95,38.43-4.39,76.96-5.12,115.54-.83,38.58-.56,77.2-.53,115.89v.63c0,3.55-1.77,6.74-4.43,8.7h0c-43.91,33.83-84.44,71.88-122.16,112.51-37.72,40.66-72.32,84.24-104.25,129.73-3.33,4.74-9.28,6.55-14.52,4.84l-.11-.04c-20.04-6.57-41.52-8.05-60.77-2.14-19.29,5.61-35.81,18.82-45.28,36.18-9.72,17.32-11.93,38.36-7.78,58.4,2.01,10.18,5.56,19.61,10.61,28.73,4.99,9.19,11.36,17.27,18.81,25.87,29.4,33.67,65.3,62.4,103.5,86.76,38.31,24.2,79.59,44.31,122.65,56.46,10.75,3,21.61,5.46,32.49,7.2,5.53.86,10.76,1.56,15.95,1.82,5.23.27,10.49.35,15.72-.09,20.96-1.31,41.5-8.12,59.36-19.21,4.48-2.76,8.74-5.85,12.87-9.11,2.03-1.76,3.96-3.28,6.1-5.21l6.42-5.8c8.59-7.69,17.07-15.53,25.52-23.41,16.89-15.78,33.61-31.79,50.23-47.98,33.27-32.32,66.28-65.16,100.24-97.28,17.01-16.04,34.3-31.86,51.97-47.33,17.78-15.38,35.99-30.36,54.86-44.65,2.92-2.21,6.44-3.07,9.81-2.69h.1c86.51,10.09,174.12,10.8,260.35-.06h.05c3.71-.47,7.28.6,10.05,2.68,18.88,14.27,37.11,29.25,54.9,44.61,17.69,15.46,34.98,31.28,52.01,47.3,33.99,32.1,67.02,64.91,100.31,97.21,16.63,16.18,33.36,32.17,50.25,47.94,8.46,7.87,16.94,15.7,25.54,23.38l6.42,5.8c2.14,1.93,4.06,3.44,6.09,5.19,4.12,3.24,8.38,6.32,12.84,9.07,17.82,11.04,38.3,17.82,59.19,19.1,5.21.43,10.45.35,15.67.07,5.18-.27,10.39-.97,15.91-1.83,10.86-1.74,21.7-4.21,32.43-7.21,42.99-12.16,84.21-32.28,122.47-56.48,38.14-24.36,73.98-53.08,103.34-86.67,7.45-8.59,13.77-16.61,18.75-25.76,5.02-9.08,8.55-18.44,10.56-28.56,4.15-19.93,1.82-40.82-7.84-57.93-9.44-17.17-25.81-30.17-44.91-35.66-19.06-5.79-40.31-4.27-60.16,2.3h-.04c-5.99,2-12.37-.31-15.83-5.21-63.94-90.69-139-173.87-227.08-240.78h-.02c-3.6-2.77-5.48-6.95-5.46-11.16v-.34c.46-38.63,1.07-77.21.66-115.76-.34-38.55-1.41-77.09-4.06-115.53-2.74-38.43-7.1-76.74-13.37-114.79-6.53-37.99-15.14-75.67-26.41-112.74v-.02c-.49-1.6.41-3.28,2-3.77,1.49-.45,3.07.32,3.67,1.73,15.06,36.06,26.99,73.52,36.23,111.62,9.37,38.09,15.89,76.83,20.76,115.74,4.91,38.9,8.16,78.02,9.32,117.17,1.17,39.14.91,78.3-1.16,117.34l-5.45-11.49h.02c45.36,34.44,87.45,73.01,126.22,114.51,38.79,41.5,74.31,85.9,107.02,132.13l-15.88-5.21c24.09-8.03,51.39-10.38,77.05-2.65,25.64,7.32,48.55,25.25,61.52,48.9,13.34,23.57,16.22,51.84,10.91,77.29-2.48,12.7-7.22,25.36-13.48,36.6-6.12,11.34-14.31,21.66-22.08,30.61-31.86,36.53-69.46,66.45-109.59,92.08-40.27,25.4-83.47,46.59-130.06,59.76-11.65,3.25-23.52,5.95-35.61,7.88-5.96.93-12.29,1.78-18.72,2.12-6.38.34-12.8.41-19.17-.1-25.55-1.61-50.52-9.88-72.19-23.34-5.43-3.35-10.61-7.09-15.61-11.05-2.38-2.03-5-4.16-7.18-6.12l-6.52-5.89c-8.73-7.82-17.32-15.76-25.88-23.73-17.09-15.96-33.95-32.11-50.64-48.37-33.42-32.48-66.35-65.23-99.95-97-16.82-15.85-33.83-31.43-51.14-46.58-17.38-15.04-35.09-29.6-53.29-43.38l10.1,2.68c-88.68,11.11-178.57,10.3-267.03-.08l9.91-2.67c-18.21,13.77-35.93,28.32-53.33,43.35-17.32,15.14-34.34,30.7-51.17,46.55-33.63,31.75-66.57,64.48-100.02,96.94-16.7,16.24-33.57,32.38-50.67,48.33-8.56,7.96-17.16,15.9-25.89,23.71l-6.52,5.89c-2.17,1.96-4.79,4.08-7.17,6.11-4.99,3.94-10.16,7.67-15.58,11.01-21.62,13.41-46.54,21.65-72.02,23.24-6.36.5-12.75.43-19.12.09-6.41-.34-12.72-1.19-18.67-2.13-12.07-1.94-23.92-4.64-35.56-7.89-46.51-13.19-89.67-34.39-129.88-59.79-40.07-25.63-77.61-55.55-109.43-92-7.77-8.94-15.92-19.21-22.02-30.5-6.24-11.2-10.95-23.78-13.43-36.43-5.32-25.33-2.32-53.45,10.97-76.81,12.94-23.46,35.7-41.18,61.14-48.38,25.46-7.61,52.54-5.21,76.44,2.82l-14.63,4.8c32.81-46.11,68.4-90.37,107.25-131.72,38.81-41.37,81.25-79.42,126.68-113.48h0s-4.43,9.33-4.43,9.33c-2.5-38.98-3.1-78.1-2.35-117.22.78-39.12,3.64-78.24,8.26-117.17,4.6-38.91,10.74-77.72,19.89-115.88,8.99-38.17,20.67-75.75,35.6-111.93.89-2.16,3.37-3.19,5.53-2.3,2.03.84,3.07,3.08,2.44,5.15l-.02.05Z"/>
          <path class="cls-4" d="M621.31,2508c23.56,4.45,47.36,11.91,68.31,24.42,21.03,12.42,38.31,29.1,53.67,46.48,1.74,1.97,1.55,4.98-.41,6.72-1.75,1.55-4.32,1.57-6.09.18l-.22-.17c-4.49-3.53-9-6.99-13.59-10.28-4.53-3.35-9.11-6.57-13.77-9.58-9.31-6.02-18.77-11.47-28.73-15.57-9.82-4.37-20.06-7.48-30.51-9.92-5.22-1.25-10.53-2.24-15.88-3.09-5.33-.95-10.75-1.66-16.19-2.32l-.75-.09c-7.43-.9-12.72-7.66-11.82-15.09.9-7.43,7.66-12.72,15.09-11.82.28.03.6.08.88.14Z"/>
          <path class="cls-4" d="M1087.67,2696.52c-5.74,0-11.06-3.68-12.9-9.44-41.94-131.91-170.12-240.4-318.95-269.96-7.33-1.46-12.1-8.58-10.64-15.92,1.46-7.33,8.6-12.09,15.92-10.64,158.22,31.42,294.65,147.29,339.49,288.31,2.27,7.13-1.67,14.74-8.8,17.01-1.36.43-2.74.64-4.11.64Z"/>
          <path class="cls-4" d="M2118.56,2534.87c-21.93,1.33-43.39,5.16-63.35,13.82-19.99,8.55-38.24,21.95-55.32,36.94-1.98,1.73-4.98,1.54-6.72-.44-1.56-1.77-1.56-4.37-.12-6.14l.12-.14c3.68-4.54,7.44-9.05,11.36-13.47,4.01-4.33,8.18-8.55,12.54-12.65,8.75-8.15,18.48-15.52,28.99-21.87,10.62-6.13,21.94-11.26,33.61-14.99,5.84-1.86,11.73-3.43,17.65-4.79,5.94-1.25,11.88-2.22,17.83-3.13l.54-.08c7.41-1.13,14.32,3.95,15.46,11.36,1.13,7.41-3.96,14.32-11.36,15.46-.4.06-.83.11-1.23.13Z"/>
          <path class="cls-4" d="M1648.8,2696.52c-1.36,0-2.74-.21-4.11-.64-7.13-2.27-11.07-9.88-8.8-17.01,44.84-141.03,181.27-256.89,339.49-288.31,7.34-1.45,14.46,3.31,15.92,10.64,1.46,7.33-3.31,14.46-10.64,15.92-148.83,29.56-277.01,138.05-318.96,269.96-1.84,5.76-7.16,9.44-12.9,9.44Z"/>
          <g class="cls-23">
            <path class="cls-4" d="M1119.04,1968.46v112.83c-85.84,11.46-162.25,36.69-230.81,73.48,1.4-48.83,4.74-93.6,9.84-134.77l220.97-51.54Z"/>
          </g>
          <g class="cls-23">
            <path class="cls-4" d="M1615.5,1968.46v112.83c85.84,11.46,162.25,36.69,230.81,73.48-1.4-48.83-4.74-93.6-9.84-134.77l-220.97-51.54Z"/>
          </g>
          <path class="cls-4" d="M1264.48,2567.15c-16.93-4.95-33.65-10.53-50.02-17-16.35-6.5-32.42-13.82-47.57-22.85-1.96-1.17-2.6-3.71-1.43-5.67,1.04-1.74,3.16-2.44,4.99-1.76l.05.02c15.87,5.89,32.36,10.02,48.97,13.32,16.63,3.27,33.42,5.64,50.23,7.36,7.47.77,12.9,7.45,12.14,14.92s-7.45,12.9-14.92,12.14c-.81-.08-1.68-.26-2.44-.48Z"/>
          <path class="cls-4" d="M1468.47,2540.58c16.81-1.73,33.6-4.09,50.23-7.36,16.61-3.3,33.11-7.43,48.97-13.32l.05-.02c2.14-.8,4.52.3,5.32,2.44.71,1.9-.08,3.99-1.76,4.99-15.15,9.03-31.22,16.35-47.57,22.85-16.37,6.47-33.09,12.05-50.02,17-7.21,2.11-14.76-2.01-16.87-9.22-2.11-7.21,2.01-14.76,9.22-16.87.78-.23,1.65-.39,2.44-.48Z"/>
          <g class="cls-23">
            <path class="cls-4" d="M2189.54,2553.34l15.12,29.52c-20.22-31.37-63.64-41.43-99.7-31.86s-65.85,34.89-91.3,62.15c-25.45,27.26-48.2,57.41-77.13,80.97-28.93,23.56-66.07,40.35-102.95,34.8-29.2-4.38-54.57-21.93-77.85-40.08-63.5-49.42-120.82-106.74-170.15-170.33,8.78-5.56,15.95-12.79,19.37-22.56,5.64-16.1-1.05-33.98-10.36-48.27-20.77-31.9-53.99-53.8-88.73-69.35-98.56-44.11-216.83-41.61-313.44,6.62-18.57,9.27-36.76,20.48-49.63,36.76-12.87,16.29-19.69,38.52-13.39,58.3,5.32,16.68,18.2,28.34,33.64,37.19-49.55,64.09-107.19,121.9-171.14,171.63-23.29,18.14-48.65,35.7-77.85,40.08-36.92,5.55-74.06-11.24-102.99-34.8-28.93-23.56-51.63-53.71-77.13-80.97-25.45-27.26-55.2-52.58-91.3-62.15-36.06-9.57-79.43.5-99.7,31.86l19.09-37.14c-6.36,3.57-12.5,7.49-18.37,11.73-17.11,22.57-23.56,53.71-13.95,87.15,4.56,15.93,12.86,30.46,23.24,43.37,61.06,75.69,183.01,151.83,281.22,164.46,40.89,5.28,81.92-7.76,112.74-35.2,100.83-89.72,194.3-195.24,289.48-266.55,1.85.23,3.7.41,5.55.59-5.78-2.53-11.51-5.05-17.24-7.58,0,0,0,0,0,0,104.01,24.2,214.18,21.38,316.81-8.16-.13.06-.26.11-.38.17-12.82,5.64-25.68,11.28-38.5,16.92,94.28,71.26,187.03,175.7,286.95,264.61,30.78,27.44,71.85,40.48,112.74,35.2,98.16-12.64,220.11-88.78,281.22-164.46,10.38-12.91,18.64-27.44,23.24-43.37,10.2-35.52,2.3-68.42-17.24-91.26Z"/>
          </g>
        </g>
        <g class="cls-18">
          <path class="cls-24" d="M2203.08,941.07c0,434.75-265.93,702.33-826.78,702.33s-826.78-254.31-826.78-702.33S919.68,153.89,1376.3,153.89s826.78,352.43,826.78,787.18Z"/>
        </g>
        <g class="cls-17">
          <path class="cls-24" d="M1376.3,1608.01c-525.13,0-791.39-224.39-791.39-666.94,0-208.95,82-400.52,230.91-539.42,146.82-136.95,345.87-212.37,560.48-212.37,436.37,0,791.38,337.25,791.38,751.79,0,436.32-273.66,666.94-791.38,666.94Z"/>
        </g>
        <g class="cls-17">
          <path class="cls-28" d="M2167.68,941.06c0,436.32-273.63,666.95-791.38,666.95s-791.38-224.39-791.38-666.95c0-51.4,4.96-101.77,14.67-150.55,62.29,331.31,322.79,498.99,776.71,498.99s710.96-171.21,775.71-497.65c10.27,48.25,15.67,98.15,15.67,149.21Z"/>
        </g>
        <g>
          <g>
            <path class="cls-2" d="M856.87,1063.69s-33.81-98.4-142.63-80.73c-104.53,16.97-135.04,126.08-110.68,200.48,25.59,78.16,74.57,114.02,140.51,123.46,68.88,9.85,134.63-16.82,134.63-16.82l-21.83-226.38Z"/>
            <path class="cls-2" d="M878.7,1290.06s-65.76,26.68-134.62,16.84c-49.55-7.07-89.54-29.11-117.17-72.77-9.2-14.45-17.01-31.26-23.35-50.7-24.39-74.38,6.13-183.5,110.66-200.48,108.85-17.65,142.63,80.72,142.63,80.72l6.4,66.5,15.43,159.88Z"/>
            <path class="cls-29" d="M878.7,1290.06s-65.76,26.68-134.62,16.84c-49.55-7.07-89.54-29.11-117.17-72.77,13.88,2.43,30.39,1.41,37.12-14.15,6.37-14.65-9.05-40.34-6.33-89.61,2.9-52.46,101.06-117.54,205.56-.2l15.43,159.88Z"/>
            <path class="cls-4" d="M776,1320.71c-10.92,0-22.19-.69-33.58-2.32-75.47-10.79-124.51-53.76-149.91-131.35-15.78-48.18-9.5-104.53,16.39-147.06,22.85-37.54,58.63-61.23,103.48-68.51,117.11-19,155.12,87.36,155.49,88.43l.44,1.3,22.78,236.37-8.03,3.26c-2.35.95-49.77,19.87-107.06,19.87ZM739.49,992.48c-7.34,0-15.12.62-23.4,1.96-37.93,6.15-68.13,26.09-87.33,57.65-22.11,36.33-27.67,86.47-14.16,127.73,22.69,69.29,64.35,106.02,131.1,115.56,51.22,7.33,101.43-6.82,120.54-13.2l-20.81-215.88c-3.85-10.03-31.27-73.82-105.95-73.82Z"/>
            <path class="cls-4" d="M776,1320.71c-10.92,0-22.19-.69-33.58-2.32-75.47-10.79-124.51-53.76-149.91-131.35-15.78-48.18-9.5-104.53,16.39-147.06,22.85-37.54,58.63-61.23,103.48-68.51,117.11-19,155.12,87.36,155.49,88.43l.44,1.3,22.78,236.37-8.03,3.26c-2.35.95-49.77,19.87-107.06,19.87ZM739.49,992.48c-7.34,0-15.12.62-23.4,1.96-37.93,6.15-68.13,26.09-87.33,57.65-22.11,36.33-27.67,86.47-14.16,127.73,22.69,69.29,64.35,106.02,131.1,115.56,51.22,7.33,101.43-6.82,120.54-13.2l-20.81-215.88c-3.85-10.03-31.27-73.82-105.95-73.82Z"/>
            <path class="cls-16" d="M659.83,1175.3c26.1,83.94,177.7,104.57,192.46,10.66v-29.98c-34.97-133.25-187.41-135.08-194.57-25.6,0,0-.42,9.83,0,21.9.38,10.8,2.11,23.02,2.11,23.02Z"/>
            <path class="cls-16" d="M852.28,1155.98v29.98c-14.75,93.89-166.35,73.27-192.46-10.68,0,0-1.72-12.19-2.12-23.01-.4-12.06,0-21.9,0-21.9.27-3.98.71-7.82,1.38-11.49.81-4.99,1.99-9.7,3.5-14.15,27.49-82.57,157.73-70.64,189.7,51.24Z"/>
            <path class="cls-13" d="M852.28,1155.98v29.98c-14.75,93.89-166.35,73.27-192.46-10.68,0,0-1.72-12.19-2.12-23.01-.4-12.06,0-21.9,0-21.9.27-3.98.71-7.82,1.38-11.49,0,0-.17,68.39,55.25,64.34,54.71-4.01,62.79-71.59,36.18-93.01-49.92-40.12-87.89,14.52-87.89,14.52h-.03c27.49-82.57,157.73-70.64,189.7,51.24Z"/>
            <path class="cls-4" d="M659.83,1175.3c8.41,19.63,23.4,34.89,40.76,45.26,17.4,10.43,37.16,16.39,56.89,18.01,19.65,1.59,39.73-1.72,55.39-11.08,15.83-9.18,25.57-25.05,28.07-43.32l-.14,1.78-.12-29.98.38,2.95c-5.78-22.03-15.6-42.86-30-59.87-14.25-17.05-33.32-29.99-54.67-35.86-10.66-2.93-21.85-3.76-32.82-2.46-10.98,1.2-21.7,4.97-31.06,11.11-9.43,6.05-17.39,14.64-23.17,24.8-5.85,10.14-9.5,21.73-11.63,33.73-.49-12.18,1.2-24.69,5.73-36.52,4.46-11.85,12.19-22.7,22.14-31.25,10.11-8.36,22.4-14.21,35.34-17.03,12.96-2.87,26.48-2.68,39.47-.22,26.17,4.8,49.77,19.65,67.33,39.1,8.83,9.76,16.1,20.77,22.11,32.31,5.85,11.63,10.4,23.81,13.67,36.26v.04c.26.95.38,1.97.38,2.91l-.12,29.98v.16c0,.53-.06,1.11-.14,1.62-1.98,11.76-6.21,23.57-13.21,33.82-6.98,10.25-16.64,18.55-27.26,24.23-21.49,11.41-45.61,12.91-67.71,9.46-11.14-1.7-21.93-4.98-32.15-9.4-10.2-4.43-19.93-9.96-28.55-16.89-17.33-13.55-30.82-32.64-34.92-53.66Z"/>
            <g>
              <path class="cls-2" d="M847.85,1221.55c-20.42-5.26-56.61-25.04-56.72-54.83-.16-40.55,54.27-40.55,54.27-40.55"/>
              <path class="cls-4" d="M845.67,1229.99c-24.39-6.29-63.13-29.02-63.27-63.25-.05-12.36,4.09-22.81,12.3-31.05,17.97-18.04,49.36-18.25,50.69-18.25v17.44c-1.85,0-45.67.53-45.55,31.79.08,22.87,30,41.22,50.18,46.42l-4.36,16.89Z"/>
            </g>
          </g>
          <g>
            <path class="cls-2" d="M1895.87,1063.69s33.81-98.4,142.63-80.73c104.53,16.97,135.04,126.08,110.68,200.48-25.59,78.16-74.57,114.02-140.51,123.46-68.88,9.85-134.63-16.82-134.63-16.82l21.83-226.38Z"/>
            <path class="cls-2" d="M1874.04,1290.06s65.76,26.68,134.62,16.84c49.55-7.07,89.54-29.11,117.17-72.77,9.2-14.45,17.01-31.26,23.35-50.7,24.39-74.38-6.13-183.5-110.66-200.48-108.85-17.65-142.63,80.72-142.63,80.72l-6.4,66.5-15.43,159.88Z"/>
            <path class="cls-29" d="M1874.04,1290.06s65.76,26.68,134.62,16.84c49.55-7.07,89.54-29.11,117.17-72.77-13.88,2.43-30.39,1.41-37.12-14.15-6.37-14.65,9.05-40.34,6.33-89.61-2.9-52.46-101.06-117.54-205.56-.2l-15.43,159.88Z"/>
            <path class="cls-4" d="M1976.73,1320.71c-57.29,0-104.71-18.92-107.07-19.87l-8.03-3.26,22.79-236.37.44-1.3c.38-1.08,38.32-107.41,155.49-88.43,44.85,7.28,80.63,30.97,103.48,68.51,25.89,42.53,32.17,98.88,16.39,147.06-25.41,77.59-74.44,120.55-149.91,131.35-11.39,1.63-22.67,2.32-33.58,2.32ZM1886.48,1282.18c19.11,6.38,69.33,20.53,120.55,13.2,66.75-9.55,108.41-46.27,131.1-115.56,13.52-41.26,7.96-91.4-14.16-127.73-19.2-31.56-49.4-51.49-87.33-57.65-92.5-15.01-125.12,60.84-129.35,71.86l-20.82,215.88Z"/>
            <path class="cls-4" d="M1976.73,1320.71c-57.29,0-104.71-18.92-107.07-19.87l-8.03-3.26,22.79-236.37.44-1.3c.38-1.08,38.32-107.41,155.49-88.43,44.85,7.28,80.63,30.97,103.48,68.51,25.89,42.53,32.17,98.88,16.39,147.06-25.41,77.59-74.44,120.55-149.91,131.35-11.39,1.63-22.67,2.32-33.58,2.32ZM1886.48,1282.18c19.11,6.38,69.33,20.53,120.55,13.2,66.75-9.55,108.41-46.27,131.1-115.56,13.52-41.26,7.96-91.4-14.16-127.73-19.2-31.56-49.4-51.49-87.33-57.65-92.5-15.01-125.12,60.84-129.35,71.86l-20.82,215.88Z"/>
            <path class="cls-16" d="M2092.9,1175.3c-26.1,83.94-177.7,104.57-192.46,10.66v-29.98c34.97-133.25,187.41-135.08,194.57-25.6,0,0,.42,9.83,0,21.9-.38,10.8-2.11,23.02-2.11,23.02Z"/>
            <path class="cls-16" d="M1900.45,1155.98v29.98c14.75,93.89,166.35,73.27,192.46-10.68,0,0,1.72-12.19,2.12-23.01.4-12.06,0-21.9,0-21.9-.27-3.98-.71-7.82-1.38-11.49-.81-4.99-1.99-9.7-3.5-14.15-27.49-82.57-157.73-70.64-189.7,51.24Z"/>
            <path class="cls-13" d="M1900.45,1155.98v29.98c14.75,93.89,166.35,73.27,192.46-10.68,0,0,1.72-12.19,2.12-23.01.4-12.06,0-21.9,0-21.9-.27-3.98-.71-7.82-1.38-11.49,0,0,.17,68.39-55.25,64.34-54.71-4.01-62.79-71.59-36.18-93.01,49.92-40.12,87.89,14.52,87.89,14.52h.03c-27.49-82.57-157.73-70.64-189.7,51.24Z"/>
            <path class="cls-4" d="M2092.9,1175.3c-4.1,21.02-17.59,40.12-34.92,53.66-8.63,6.93-18.35,12.46-28.56,16.89-10.22,4.41-21,7.7-32.15,9.4-22.11,3.45-46.22,1.95-67.71-9.46-10.62-5.68-20.28-13.98-27.26-24.23-6.99-10.25-11.23-22.07-13.21-33.82-.09-.53-.13-1.05-.14-1.57v-.22s-.12-29.98-.12-29.98c0-.99.12-1.94.35-2.85l.03-.09c3.27-12.44,7.82-24.62,13.67-36.26,6.01-11.54,13.28-22.55,22.11-32.31,17.56-19.46,41.16-34.31,67.33-39.1,12.99-2.46,26.51-2.65,39.47.22,12.94,2.83,25.23,8.68,35.34,17.03,9.96,8.55,17.69,19.4,22.14,31.25,4.53,11.84,6.22,24.34,5.73,36.52-2.12-12-5.78-23.6-11.63-33.73-5.78-10.15-13.74-18.74-23.17-24.8-9.36-6.14-20.07-9.91-31.06-11.11-10.96-1.3-22.16-.47-32.82,2.46-21.35,5.87-40.42,18.81-54.67,35.86-14.4,17-24.23,37.84-30,59.87l.38-2.95-.12,29.98-.14-1.78c2.5,18.27,12.24,34.13,28.07,43.32,15.66,9.37,35.74,12.67,55.39,11.08,19.73-1.62,39.49-7.58,56.89-18.01,17.36-10.37,32.36-25.63,40.76-45.26Z"/>
            <g>
              <path class="cls-2" d="M1904.89,1221.55c20.42-5.26,56.61-25.04,56.72-54.83.16-40.55-54.27-40.55-54.27-40.55"/>
              <path class="cls-4" d="M1907.07,1229.99l-4.36-16.89c20.19-5.2,50.1-23.55,50.18-46.42.12-31.26-43.7-31.79-45.56-31.79v-17.44c1.34,0,32.73.21,50.7,18.25,8.21,8.24,12.35,18.68,12.3,31.05-.13,34.23-38.88,56.96-63.27,63.24Z"/>
            </g>
          </g>
          <g class="cls-19">
            <path class="cls-14" d="M1904.22,1224.57c-1.67-.83-3.34-1.64-5.08-2.4,16.19-24.43,29.23-53.27,39.2-84.51-8.4,31.44-19.74,61.08-34.13,86.91Z"/>
          </g>
          <path class="cls-26" d="M1376.23,1605.66c441.68-26.15,578.74-182.26,595.43-283.55,10.87-65.92-12.79-118.9-59.78-151.17,172.15-399.86-94.79-723.77-535.7-723.77s-707.85,323.91-535.7,723.77c-46.99,32.28-70.65,85.25-59.78,151.17,16.7,101.29,153.75,257.4,595.43,283.55h.1Z"/>
          <path class="cls-26" d="M1971.68,1322.1c-16.7,101.29-153.76,257.4-595.45,283.55h-.1c-441.69-26.15-578.74-182.26-595.44-283.55-3.99-24.29-3.3-46.81,1.5-67.2,8.24-34.94,28.6-63.57,58.28-83.97-172.16-399.85,94.79-723.77,535.69-723.77s707.85,323.92,535.73,723.77c29.58,20.36,49.94,48.87,58.21,83.68,4.87,20.46,5.59,43.11,1.57,67.5Z"/>
          <g class="cls-19">
            <path class="cls-14" d="M1964.39,949.51c-9.74-273.29-246.81-467.48-588.22-467.48s-578.48,194.19-588.19,467.45c-10.03-291.46,232.46-502.32,588.19-502.32s598.26,210.86,588.22,502.35Z"/>
          </g>
          <path class="cls-3" d="M1971.68,1322.1c-16.7,101.29-153.76,257.4-595.45,283.55h-.1c-441.69-26.15-578.74-182.26-595.44-283.55-3.99-24.29-3.3-46.81,1.5-67.2,52.27,53.7,160,67.01,593.81-60.4,434.63,127.64,541.94,114.04,594.11,60.11,4.87,20.46,5.59,43.11,1.57,67.5Z"/>
          <path class="cls-4" d="M1376.23,1617.28h-.1c-.23,0-.46,0-.69-.02-415.37-24.59-585.5-167.62-606.22-293.27-10.56-64.07,10.15-120.75,56.95-157.02-74.31-178.57-65.83-351.71,24.16-488.42,101.66-154.45,293.33-243.03,525.84-243.03s424.18,88.58,525.84,243.03c89.99,136.71,98.47,309.85,24.16,488.42,46.81,36.27,67.51,92.95,56.95,157.02-20.71,125.65-190.84,268.68-606.22,293.27-.23.01-.46.02-.69.02ZM1376.18,458.78c-224.56,0-409.14,84.77-506.42,232.56-86.98,132.14-93.58,300.83-18.6,474.99,2.2,5.1.48,11.04-4.1,14.18-45.13,31.01-64.63,80.62-54.89,139.7,6.65,40.32,66.07,242.97,584.01,273.8,517.94-30.83,577.36-233.48,584.01-273.8,9.74-59.08-9.76-108.69-54.89-139.7-4.58-3.14-6.29-9.08-4.1-14.18,74.98-174.17,68.37-342.85-18.61-474.99-97.28-147.8-281.87-232.56-506.42-232.56Z"/>
          <path class="cls-26" d="M1568.02,503.53c21.79-31.05,87.3-27.1,72.18-52.03-30.34-50.02-149.97-22.16-148.18-30.1,14.17-63.06-9.53-110.45-38.13-104.19-8.47,1.86-85.87,82.27-199.18,123.67-45.09,16.47-87.16,25.6-181.46,67.13l494.77-4.49Z"/>
          <path class="cls-26" d="M1568.01,503.53l-390.93,3.53-103.84.95c94.3-41.51,136.4-50.63,181.47-67.1,113.32-41.41,190.69-121.82,199.19-123.68,9.9-2.19,19.22,2.09,26.57,11.24,13.89,17.19,20.82,51.71,11.54,92.93-1.77,7.94,117.87-19.91,148.2,30.1,15.1,24.94-50.4,20.98-72.2,52.04Z"/>
          <g class="cls-19">
            <path class="cls-14" d="M1480.47,328.47c-26.74-26.34-43.54,46.74-118.72,94.95-75.18,48.21-187.38,83.67-187.38,83.67l-101.14.92c94.3-41.51,136.4-50.63,181.47-67.1,113.32-41.41,190.69-121.82,199.19-123.68,9.9-2.19,19.22,2.09,26.57,11.24Z"/>
          </g>
          <path class="cls-4" d="M1568.02,503.53c3.09-8.26,9.68-15.27,16.85-20.67,3.59-2.77,7.4-5.2,11.27-7.38,3.85-2.23,7.76-4.27,11.66-6.1l11.36-5.46c3.63-1.72,7.13-3.53,9.62-5.33,1.21-.88,2.13-1.78,2.33-2.16.3-.5-.58.16-.82,1.35-.26,1.19.03,1.43-.36.82-.24-.38-1.41-2.1-2.29-3.15-7.24-9.53-20.75-16.57-35.94-19.66-15.2-3.16-31.52-3.72-47.89-3.41-8.21.17-16.46.61-24.84,1.14l-12.76.79c-2.19.12-4.39.22-6.78.26-1.23,0-2.43.02-3.9-.05-.68-.02-1.54-.1-2.42-.19l-1.59-.25c-.85-.2-1.28-.26-2.45-.66-.61-.22-1.21-.48-1.79-.76-.83-.41-2.11-1.28-2.99-2.1-.32-.26-1.27-1.29-1.87-2.24-.64-.98-1.15-2.06-1.49-3.12-.33-1.06-.51-2.26-.52-3.46-.08-.95.29-2.9.29-2.9l.3-1.45.6-2.91c.41-1.94.69-3.89,1.05-5.83.62-3.9,1.11-7.8,1.45-11.71.65-7.82.7-15.64.04-23.3-.72-7.64-2.12-15.16-4.48-22.07-2.35-6.86-5.67-13.29-9.83-17.65-4.28-4.37-8.41-6.13-12.54-5.45l-.81.12c-.49.15,1.64-.46,1.46-.47.25-.11.42-.21.34-.16-.08.04-.8.5-1.47,1-1.39,1.01-2.98,2.28-4.56,3.54l-9.68,7.96c-52.18,43.79-110.25,82.89-174.98,108.01-32.48,12.43-64.86,21.39-96.31,32.82-31.54,11.18-62.58,23.88-93.34,37.39l-9.37-21.28c31.14-13.68,62.73-26.6,94.92-38.01,32.11-11.64,64.99-20.81,95.67-32.58,30.72-11.94,60.18-27.3,88.23-44.99,28.11-17.7,54.57-37.77,80.36-59.27l9.91-8.14c1.72-1.38,3.43-2.75,5.46-4.23,1.04-.75,2.06-1.5,3.81-2.5.37-.22,1.02-.55,1.75-.88.3-.23,2.93-1.01,2.97-.95l2.31-.39c6.21-.99,12.95-.03,18.6,2.44,5.71,2.43,10.38,6.07,14.13,10.02,7.49,8,11.8,17.1,14.96,26.15,3.09,9.1,4.76,18.32,5.63,27.5.8,9.18.72,18.32-.03,27.35-.39,4.51-.95,8.99-1.66,13.44-.4,2.21-.73,4.44-1.2,6.64l-.69,3.3-.34,1.65c-.01.18.36-1.68.28-2.5,0-1.07-.21-2.13-.5-3.07-.27-.95-.71-1.92-1.29-2.79-.53-.84-1.43-1.74-1.63-1.94-.65-.68-1.74-1.37-2.34-1.66-.34-.19-.69-.34-1.06-.47-.68-.22-.58-.19-.92-.25-.02-.01-.03,0-.03,0l.74.05c.65.04,1.55.03,2.44.03,1.83-.03,3.85-.12,5.88-.23l12.55-.78c8.49-.54,17.13-1,25.81-1.18,17.39-.34,35.08.27,53.06,3.81,8.96,1.84,18.11,4.17,27.1,8.3,8.92,4.08,17.88,10.2,24.32,19.04.83,1.07,1.56,2.22,2.26,3.38.66,1.07,1.51,2.47,2.26,4.13,1.44,3.16,2.96,7.65,2.13,13.06-.76,5.41-3.95,9.89-6.69,12.31-2.8,2.61-5.46,4.04-7.93,5.22-9.74,4.35-17.9,5.78-26.18,7.69l-12.09,2.75c-3.96,1-7.86,2.06-11.73,3.27-7.65,2.56-15.11,5.79-21.81,11.43Z"/>
          <path class="cls-2" d="M1376.04,1605.49c251.32,0,539.16-135.78,533.77-305.84-2.09-66.35-53.25-105.22-71.75-115.64,24.65-53.93,53.25-202.59-21.15-327.55-116.69-196.05-365.69-170.92-440.87,12.91h.14c-75.18-183.83-324.18-208.96-440.87-12.91-74.39,124.96-45.79,273.62-21.15,327.55-18.5,10.43-69.65,49.29-71.75,115.64-5.39,170.07,282.44,305.84,533.77,305.84h-.14Z"/>
          <path class="cls-29" d="M1376.17,1605.49h-.13c-251.29-.03-539.03-135.81-533.64-305.84.26-8.34,1.31-16.21,2.94-23.67,30.82,153.59,296.56,271.46,530.69,271.49h.13c234.13-.03,499.87-117.9,530.69-271.49,1.63,7.45,2.68,15.33,2.94,23.67,5.39,170.03-282.34,305.81-533.64,305.84Z"/>
          <path class="cls-4" d="M1376.17,1617.12h-.16c-184.66-.04-382.23-70.89-480.49-172.33-44.56-45.99-66.34-94.95-64.74-145.51,2.1-66.64,48.37-105.73,68.81-119.8-27.86-70.05-43.71-212.35,25.72-328.97,57.12-95.98,151.14-148.82,251.36-141.35,84.88,6.32,159.27,56.39,199.43,132.59,40.16-76.22,114.55-126.27,199.44-132.59,100.32-7.46,194.23,45.38,251.36,141.35,69.43,116.62,53.57,258.92,25.72,328.97,20.44,14.07,66.7,53.16,68.81,119.81,1.6,50.56-20.18,99.52-64.74,145.52-98.26,101.43-295.84,172.28-480.49,172.32h-.02ZM1158.07,731.71c-84.91,0-163.5,47.91-212.77,130.69-76.35,128.24-39.49,275.35-20.56,316.77,2.51,5.49.4,11.99-4.87,14.96-2.6,1.46-63.66,36.66-65.84,105.88-1.4,44.03,18.18,87.3,58.19,128.6,94.25,97.29,285,165.23,463.88,165.25,178.89-.02,369.63-67.97,463.88-165.25,40.01-41.3,59.59-84.57,58.2-128.6-2.18-69.23-63.24-104.42-65.84-105.88-5.26-2.97-7.38-9.47-4.87-14.96,18.93-41.42,55.79-188.53-20.56-316.77-52.51-88.23-138.34-136.87-229.65-130.06-85.11,6.34-155.94,58.56-189.81,139.83-.32,1.29-.87,2.54-1.63,3.67-2.16,3.22-5.78,5.14-9.65,5.14s-7.56-1.93-9.72-5.15c-.69-1.04-1.22-2.16-1.55-3.33-33.82-81.46-104.73-133.83-189.95-140.17-5.64-.42-11.28-.63-16.88-.63Z"/>
          <path class="cls-4" d="M1399.29,1225.94c-2.78.89-5.51-1.38-5.19-4.27.96-8.69,4.45-23.69,16.97-26.04,16.58-3.12,18.82,11.28,17.45,15.64-1.59,5.08-5.72,8.36-13.98,10.35-5.07,1.22-10.97,2.96-15.25,4.33Z"/>
          <path class="cls-4" d="M1353.65,1225.52c2.82.72,5.42-1.7,4.92-4.58-1.48-8.61-5.86-23.38-18.5-24.98-16.74-2.12-18.11,12.39-16.48,16.66,1.89,4.97,6.21,8,14.57,9.49,5.13.92,11.13,2.29,15.48,3.4Z"/>
          <ellipse class="cls-16" cx="979.59" cy="1230.29" rx="65.73" ry="35.81"/>
          <ellipse class="cls-16" cx="1772.78" cy="1230.29" rx="65.73" ry="35.81"/>
          <g>
            <ellipse class="cls-4" cx="1172.66" cy="1126.01" rx="87.22" ry="100.72"/>
            <ellipse class="cls-14" cx="1196.36" cy="1096.88" rx="28.44" ry="36"/>
            <g class="cls-21">
              <ellipse class="cls-14" cx="1140.14" cy="1159.95" rx="15.75" ry="24.36"/>
            </g>
          </g>
          <g>
            <ellipse class="cls-4" cx="1581.4" cy="1126.01" rx="87.22" ry="100.72"/>
            <ellipse class="cls-14" cx="1557.71" cy="1096.88" rx="28.44" ry="36"/>
            <g class="cls-21">
              <path class="cls-14" d="M1598.18,1159.94c0,13.45,7.04,24.37,15.73,24.37,8.7,0,15.76-10.9,15.76-24.35,0-13.45-7.04-24.37-15.73-24.37-8.7,0-15.76,10.9-15.76,24.35Z"/>
            </g>
          </g>
          <g>
            <path class="cls-4" d="M1376.12,1449.58c164.38,0,181.69-176.4,181.69-176.4,0,0-55.68,56.55-181.69,56.55s-181.69-56.55-181.69-56.55c0,0,17.31,176.4,181.69,176.4Z"/>
            <path class="cls-16" d="M1489.8,1409.82c-26.51,23.11-63.14,39.77-113.68,39.77s-87.19-16.69-113.71-39.8c15.24-19.78,39.17-32.53,66.1-32.53,17.7,0,34.1,5.51,47.61,14.96,13.51-9.45,29.91-14.96,47.58-14.96,26.92,0,50.89,12.75,66.1,32.56Z"/>
            <path class="cls-4" d="M1376.12,1461.21c-172.92,0-193.08-185.02-193.27-186.89-.48-4.9,2.18-9.58,6.65-11.67,4.47-2.09,9.76-1.14,13.21,2.37.5.5,54.48,53.08,173.41,53.08s172.91-52.58,173.44-53.11c3.47-3.47,8.75-4.4,13.21-2.3,4.43,2.1,7.09,6.74,6.62,11.63-.19,1.87-20.34,186.89-193.27,186.89ZM1211.4,1300.31c12.25,47.48,50.54,137.64,164.72,137.64s152.47-90.15,164.72-137.64c-28.58,17.6-82.15,41.04-164.72,41.04s-136.14-23.44-164.72-41.04Z"/>
            <path class="cls-4" d="M1417.84,1377.48c-7.84.82-36.09,7.56-41.72,33-5.64-25.44-33.88-32.18-41.72-33l8.53-25.51,33.19,9.42,33.19-9.42,8.53,25.51Z"/>
            <path class="cls-4" d="M1534.58,1253.37c5.51-3.53,11.76-4.39,17.93-3.86,6.16.62,12.45,3.05,17.64,7.36,1.23,1.17,2.57,2.19,3.63,3.53,1.03,1.37,2.08,2.71,3.02,4.11,1.53,3.04,3.07,6.08,3.47,9.39,1.35,6.46-.08,12.96-3.44,18.33-3.9-5.33-6.23-9.74-9.27-13.19-2.73-3.55-5.44-6.25-8.58-8.78-3.08-2.56-6.56-5.07-10.62-7.72-4.07-2.68-8.53-5.46-13.77-9.16Z"/>
            <path class="cls-4" d="M1217.63,1253.37c-5.25,3.7-9.7,6.48-13.77,9.16-4.06,2.65-7.54,5.16-10.62,7.72-3.14,2.54-5.84,5.23-8.58,8.78-3.03,3.44-5.37,7.86-9.27,13.19-3.36-5.36-4.79-11.87-3.44-18.33.4-3.31,1.94-6.35,3.47-9.39.94-1.4,1.99-2.74,3.02-4.11,1.07-1.34,2.41-2.36,3.63-3.53,5.19-4.31,11.47-6.73,17.64-7.36,6.17-.53,12.42.33,17.93,3.86Z"/>
          </g>
        </g>
        <path class="cls-4" d="M1376.3,1656.94c-278.42,0-491.26-62.75-632.63-186.51-137.81-120.65-207.69-298.76-207.69-529.37s87.53-426.95,246.46-575.2c155.91-145.43,366.82-225.52,593.86-225.52,463.35,0,840.32,359.2,840.32,800.72,0,225.63-69.85,402.04-207.62,524.32-143.19,127.1-356.06,191.55-632.7,191.55ZM1376.3,167.43c-463.62,0-813.24,332.59-813.24,773.64,0,222.46,66.77,393.71,198.45,508.99,136.28,119.31,343.12,179.81,614.79,179.81,532.03,0,813.24-238.18,813.24-688.8,0-426.58-364.81-773.64-813.24-773.64Z"/>
        <polygon class="cls-9" points="1383.07 1239.86 1381.51 1240.11 1381.51 1239.61 1383.07 1239.86"/>
        <g>
          <path class="cls-27" d="M1679.88,1611.59c-89.43,20.99-190.69,31.92-303.97,31.92s-214.54-10.94-303.97-31.92c-8.81-4.57-23.5-31.21-4.11-47.28,19.85,3.22,180.71,27.18,308.08,27.18s288.22-23.96,308.08-27.18c19.39,16.07,4.71,42.72-4.11,47.28Z"/>
          <path class="cls-4" d="M1375.91,1656.55c-112.44,0-215.71-10.86-306.95-32.27-1.05-.25-2.07-.62-3.02-1.12-10.13-5.25-18.92-19.97-20.45-34.25-1.46-13.64,3.52-25.95,14.03-34.66,2.9-2.4,6.69-3.43,10.41-2.83,1.66.27,172.41,27.01,305.99,27.01s304.32-26.74,305.99-27.01c3.73-.6,7.51.43,10.41,2.83,10.51,8.71,15.49,21.02,14.03,34.66-1.53,14.28-10.33,29-20.45,34.25-.96.5-1.97.87-3.02,1.12-91.24,21.41-194.51,32.27-306.95,32.27ZM1077.43,1599.47c88.68,20.57,189.08,30.99,298.48,30.99s209.8-10.43,298.48-30.99c2.17-2.24,5.83-8.25,6.1-14.49.11-2.55-.37-4.76-1.47-6.73-33.9,5.07-183.11,26.27-303.11,26.27s-269.21-21.21-303.11-26.27c-1.1,1.97-1.58,4.18-1.47,6.73.26,6.24,3.93,12.25,6.1,14.49ZM1679.88,1611.59h.05-.05Z"/>
        </g>
        <g class="cls-20">
          <path class="cls-14" d="M1574.48,412.89c-21.17-9.93-266.61-128.03-171.06-161.06,84.34-29.15,271.6,22.86,338.57,60.75,61.9,35.03,205.65,149.39,185.59,214.27-20.05,64.88-295.3-86.87-353.11-113.97Z"/>
        </g>
        <g class="cls-20">
          <path class="cls-14" d="M1953.83,695.67c-18.33-27.7-53.83-119.37,5.98-121.19,37.69-1.15,103.69,41.33,121.97,98.57,17.94,56.17-.26,108.97-23.41,115.08-47.71,12.6-78.23-52.7-104.55-92.45Z"/>
        </g>
        <g>
          <path class="cls-4" d="M914.72,2085.83c-8.61,0-17.17-2-25.13-5.95-14-6.96-24.42-19.09-29.35-34.17-10-30.57,6.21-63.84,36.12-74.16,317.03-109.38,637-109.35,951.01.06,29.88,10.41,45.99,43.73,35.9,74.27-7.9,23.89-29.78,39.94-54.46,39.94-6.31,0-12.56-1.06-18.58-3.16-289.5-100.87-584.58-100.85-877.05.06-6.04,2.08-12.26,3.12-18.46,3.12ZM1372.91,1979.91c149.48,0,298.54,25.72,446.23,77.18,3.15,1.1,6.41,1.65,9.67,1.65,12.98,0,24.53-8.58,28.75-21.35,5.48-16.59-3.09-34.63-19.09-40.21-308.12-107.36-622.12-107.37-933.27-.03-16.03,5.53-24.64,23.54-19.21,40.15,2.65,8.12,8.22,14.63,15.66,18.34,7.13,3.54,15.18,4.07,22.7,1.48,149.18-51.47,299.08-77.21,448.56-77.21Z"/>
          <path class="cls-14" d="M1828.81,2072.28c-4.68,0-9.44-.78-14.12-2.41-292.43-101.89-590.5-101.88-885.92.04-23.01,7.93-47.92-4.78-55.65-28.41-7.73-23.63,4.66-49.22,27.66-57.16,314.08-108.35,631.07-108.34,942.14.04,22.98,8.01,35.29,33.63,27.49,57.24-6.21,18.8-23.3,30.65-41.61,30.65Z"/>
          <g class="cls-23">
            <path class="cls-4" d="M1828.81,2036.18c-4.68,0-9.44-.78-14.12-2.41-292.43-101.89-590.5-101.88-885.92.04-21.77,7.51-45.22-3.48-54.23-24.7-4.21,9.9-5.03,21.35-1.42,32.39,7.72,23.63,32.64,36.34,55.65,28.41,295.42-101.92,593.49-101.94,885.92-.04,4.68,1.63,9.44,2.41,14.12,2.41,18.31,0,35.4-11.85,41.61-30.65,3.66-11.07,2.85-22.56-1.37-32.49-7.1,16.69-23.13,27.03-40.24,27.03Z"/>
          </g>
          <path class="cls-4" d="M914.72,2085.83c-8.61,0-17.17-2-25.13-5.95-14-6.96-24.42-19.09-29.35-34.17-10-30.57,6.21-63.84,36.12-74.16,317.03-109.38,637-109.35,951.01.06,29.88,10.41,45.99,43.73,35.9,74.27-7.9,23.89-29.78,39.94-54.46,39.94-6.31,0-12.56-1.06-18.58-3.16-289.5-100.87-584.58-100.85-877.05.06-6.04,2.08-12.26,3.12-18.46,3.12ZM1372.91,1979.91c149.48,0,298.54,25.72,446.23,77.18,3.15,1.1,6.41,1.65,9.67,1.65,12.98,0,24.53-8.58,28.75-21.35,5.48-16.59-3.09-34.63-19.09-40.21-308.12-107.36-622.12-107.37-933.27-.03-16.03,5.53-24.64,23.54-19.21,40.15,2.65,8.12,8.22,14.63,15.66,18.34,7.13,3.54,15.18,4.07,22.7,1.48,149.18-51.47,299.08-77.21,448.56-77.21Z"/>
          <g class="cls-21">
            <path class="cls-9" d="M1538.87,1918.82v52.54h-.14c-1.44,21.03-23.11,37.73-49.6,37.73s-48.06-16.69-49.51-37.73h-.05v-.79c-.02-.48-.09-.96-.09-1.44,0-.84.05-1.64.09-2.48v-47.82h99.29Z"/>
          </g>
          <path class="cls-14" d="M1668.85,2062.75v.23c-.99,5.01-2.75,9.84-5.33,14.35l-25.82,44.77c-5.42,9.43-16.02,14.49-26.76,12.91-158.87-23.06-320.8-22.16-485.54.23-10.65,1.44-21.17-3.61-26.54-12.95l-25.91-44.95c-2.62-4.56-4.38-9.48-5.33-14.53v-.04c-.99-5.28-1.08-10.7-.23-16.07,12.01-74.74,29.97-142.8,56.82-200.93,5.1-11.06,15.07-19,26.9-21.84,144.74-34.89,289.48-34.89,434.22,0,11.82,2.84,21.8,10.79,26.9,21.84,26.85,58.13,44.82,126.19,56.82,200.93.86,5.37.77,10.79-.23,16.07Z"/>
          <path class="cls-4" d="M1121.74,2149.02c-14.23,0-27.42-7.48-34.61-20l-25.89-44.93c-3.34-5.81-5.65-12.13-6.91-18.8-.03-.17-.06-.34-.08-.51-1.21-6.72-1.27-13.53-.2-20.24,13.12-81.63,32.05-148.51,57.9-204.47,6.82-14.77,19.95-25.46,36.03-29.33,146.16-35.23,294.39-35.23,440.56,0,16.07,3.87,29.2,14.56,36.02,29.34,25.84,55.94,44.79,122.82,57.9,204.45,1.05,6.6,1.01,13.26-.13,19.81-.04.42-.11.84-.19,1.25-1.29,6.53-3.59,12.73-6.84,18.43l-25.85,44.83c-8.2,14.27-24.11,21.94-40.46,19.54-153.98-22.35-316.05-22.27-481.74.25-1.84.25-3.68.37-5.49.37ZM1081.02,2060.66c.7,3.54,1.94,6.88,3.69,9.93l25.89,44.93c2.61,4.55,7.7,7.03,12.99,6.3,168.17-22.85,332.81-22.92,489.29-.21,5.31.77,10.45-1.67,13.09-6.25l25.83-44.79c1.66-2.91,2.89-6.13,3.63-9.54.03-.27.07-.54.12-.78.71-3.78.77-7.63.16-11.43-12.71-79.13-30.95-143.7-55.74-197.38-3.33-7.21-9.8-12.44-17.77-14.36-141.96-34.22-285.93-34.22-427.88,0-7.98,1.92-14.45,7.15-17.78,14.36-24.8,53.68-43.03,118.25-55.75,197.4-.61,3.77-.55,7.62.16,11.42.03.14.05.27.07.41ZM1668.85,2062.97h.05-.05Z"/>
          <path class="cls-4" d="M1121.74,2146.76c-13.42,0-25.86-7.05-32.65-18.86l-25.9-44.94c-3.21-5.59-5.44-11.66-6.64-18.09-.13-.69-.2-1.38-.2-2.08,0-5.32,3.72-9.96,8.92-11.08,201.05-43.15,404.92-43.14,605.95,0,5.2,1.12,8.92,5.71,8.92,11.03v.22c0,.73-.07,1.47-.21,2.19-1.25,6.29-3.46,12.27-6.59,17.75l-25.84,44.82c-7.73,13.47-22.72,20.72-38.18,18.43-154.18-22.38-316.48-22.3-482.37.25-1.74.23-3.47.35-5.19.35ZM1082.45,2071.16c.1.18.2.36.3.54l25.9,44.93c3.07,5.34,9.07,8.28,15.25,7.41,167.97-22.83,332.39-22.89,488.67-.21,6.23.93,12.27-1.98,15.36-7.36l25.83-44.79c.1-.17.2-.35.29-.52-189.71-38.99-381.87-38.99-571.6,0Z"/>
          <g class="cls-23">
            <path class="cls-4" d="M1668.85,2062.75v.23c-.99,5.01-2.75,9.84-5.33,14.35l-25.82,44.77c-5.42,9.43-16.02,14.49-26.76,12.91-158.87-23.06-320.8-22.16-485.54.23-10.65,1.44-21.17-3.61-26.54-12.95l-25.91-44.95c-2.62-4.56-4.38-9.48-5.33-14.53v-.04c200.39-43.01,400.82-43.01,601.21,0Z"/>
          </g>
          <path class="cls-4" d="M1239.74,2047.67c-6,0-11-4.73-11.26-10.79-1.59-36.07,2.05-72.24,11.12-110.12l-42.95,3.31c-3.33.25-6.65-.99-8.98-3.41-2.33-2.42-3.47-5.75-3.1-9.09,4.38-39.19,12.88-75.64,25.97-111.42,2.14-5.85,8.63-8.86,14.47-6.72,5.85,2.14,8.86,8.62,6.72,14.47-10.95,29.91-18.52,60.34-23.03,92.61l44.89-3.45c3.64-.29,7.23,1.24,9.57,4.07,2.33,2.83,3.15,6.63,2.17,10.17-11.33,41.24-16.01,80.03-14.3,118.59.27,6.23-4.55,11.49-10.78,11.77-.17,0-.34.01-.51.01Z"/>
          <path class="cls-10" d="M1538.87,1889.66v48.49h-.14c-1.44,19.41-23.11,34.82-49.6,34.82s-48.06-15.41-49.51-34.82h-.05v-.73c-.02-.45-.09-.88-.09-1.33,0-.78.05-1.51.09-2.29v-44.14h99.29Z"/>
          <g class="cls-21">
            <path class="cls-9" d="M1538.87,1889.66v48.49h-.14c-1.44,19.41-23.11,34.82-49.6,34.82s-48.06-15.41-49.51-34.82h-.05v-.73c-.02-.45-.09-.88-.09-1.33,0-.78.05-1.51.09-2.29v-44.14h99.29Z"/>
          </g>
          <path class="cls-4" d="M1489.13,1982c-30.55,0-55.95-18.41-58.41-42.12-.11-.56-.17-1.14-.17-1.74v-.73c-.05-.27-.09-.8-.09-1.33,0-.92.05-1.79.1-2.7v-43.73c0-4.99,4.03-9.03,9.02-9.03h99.29c4.99,0,9.03,4.04,9.03,9.03v48.49c0,.85-.12,1.68-.34,2.46-2.9,23.35-28.13,41.39-58.42,41.39ZM1448.59,1937.14c.01.11.02.22.03.34,1.08,14.59,19.25,26.47,40.5,26.47s39.52-11.88,40.6-26.47c.02-.3.06-.6.11-.9v-37.9h-81.24v35.11c0,.17,0,.34-.01.51-.04.67-.07,1.21-.07,1.78l.08,1.05Z"/>
          <ellipse class="cls-10" cx="1489.13" cy="1884.97" rx="49.65" ry="42.88"/>
          <ellipse class="cls-10" cx="1489.13" cy="1884.97" rx="49.65" ry="42.88"/>
          <g class="cls-20">
            <path class="cls-14" d="M1489.13,1864.66c22.89,0,42.11,13.4,47.85,31.59,1.14-3.6,1.8-7.37,1.8-11.28,0-23.68-22.23-42.88-49.65-42.88s-49.65,19.2-49.65,42.88c0,3.91.66,7.68,1.8,11.28,5.74-18.2,24.96-31.59,47.85-31.59Z"/>
          </g>
          <path class="cls-4" d="M1489.13,1936.87c-32.35,0-58.67-23.28-58.67-51.9s26.32-51.9,58.67-51.9,58.68,23.28,58.68,51.9-26.32,51.9-58.68,51.9ZM1489.13,1851.12c-22.4,0-40.62,15.19-40.62,33.85s18.22,33.85,40.62,33.85,40.62-15.19,40.62-33.85-18.22-33.85-40.62-33.85Z"/>
        </g>
        <g>
          <path class="cls-12" d="M961.58,1580.54h0c-.31,22.38,12.47,42.82,32.62,52.57,260.32,125.93,514.12,126.51,761.31.38,19.54-9.97,31.81-30.1,31.51-52.03v-.92c-278.5,83.81-553.64,83.81-825.44,0Z"/>
          <path class="cls-7" d="M1787.01,1580.54c-3.47,1.05-6.94,2.02-10.42,3.04-5.33,7.59-12.51,13.93-21.09,18.31-247.2,126.14-500.99,125.55-761.31-.38-8.57-4.15-15.79-10.24-21.26-17.59-3.78-1.13-7.57-2.22-11.35-3.39-.31,22.38,12.47,42.82,32.62,52.57,260.32,125.93,514.12,126.51,761.31.38,19.54-9.97,31.81-30.1,31.51-52.03v-.92Z"/>
          <path class="cls-4" d="M1380.49,1738.72c-128.95,0-259.65-31.82-391.21-95.46-24.05-11.63-39.35-36.32-38.99-62.88.05-3.55,1.77-6.88,4.65-8.97,2.87-2.09,6.56-2.71,9.96-1.66,268.35,82.74,543.86,82.74,818.85-.02,3.41-1.02,7.08-.38,9.94,1.71,2.86,2.1,4.56,5.42,4.6,8.97v.92c.38,26.31-14.05,50.16-37.65,62.2-124.36,63.46-251.39,95.19-380.15,95.19ZM975.47,1596.51c4.01,11.35,12.41,21,23.64,26.44,256.23,123.94,508.99,124.11,751.28.48,11.33-5.78,19.53-15.6,23.2-27.17-267.94,77.42-536.29,77.5-798.12.25Z"/>
        </g>
        <path class="cls-15" d="M2212.63,1835.24s-9.78-.02-24.78-1.81c-15-1.79-24.51-4.07-24.51-4.07l163.42-1367.52,49.28,5.89-163.42,1367.52Z"/>
        <path class="cls-15" d="M2376.04,467.72l-163.42,1367.51s-9.78-.02-24.78-1.81c-15-1.79-24.51-4.08-24.51-4.08l163.42-1367.51,49.29,5.89Z"/>
        <path class="cls-15" d="M2376.04,467.72l-163.42,1367.51s-9.78-.02-24.78-1.81c-15-1.79-24.51-4.08-24.51-4.08l163.42-1367.51,49.29,5.89Z"/>
        <g class="cls-23">
          <path class="cls-4" d="M2307.51,982.69l-7.12,59.61c-14.83-4.47-30.43-3.41-44.58-.04l7.75-64.82,43.96,5.25Z"/>
        </g>
        <g class="cls-23">
          <path class="cls-4" d="M2369.14,466.9l-17.99,150.54c-14.38-2.21-29.6-2.61-44.35-2.02l18.38-153.78,43.96,5.25Z"/>
        </g>
        <path class="cls-4" d="M2193.2,1845.72c-2.05,0-4.16-.12-6.3-.38-.04,0-.53-.06-.58-.07-20.9-2.53-35.03-15.76-33.23-30.83l160.05-1339.31c1.81-15.16,18.88-24.7,39.68-22.23,20.81,2.49,35.14,15.8,33.33,30.95l-160.05,1339.31c-1.62,13.49-15.3,22.55-32.91,22.55ZM2176.92,1816.43c1.03,1.32,4.96,4.23,11.92,5.07.03,0,.51.06.54.07l.45.05c6.88.81,11.33-1.1,12.65-2.14l159.85-1337.63c-1.05-1.35-5.11-4.36-12.34-5.22-7.24-.86-11.88,1.1-13.22,2.17l-159.85,1337.63Z"/>
        <path class="cls-14" d="M2982.93,1123.02c3.4-160.54,45.94-354.94,49.18-502.68-51.7-32.88-108.69-44.57-169.07-44.04-60.08.53-119.14,11.3-178.72,16.9-49.24,4.62-98.32,6.5-147.15-4.84-45.35-10.53-113.86-58.06-119.9-62.01-6.04-3.95-47.65-29.42-98.22-13.34-3.41,2.27-14.15,34.87-6.46,54.06,39.98-19.59,85.69-1.86,89.17,10.66,15.61,56.23-40.1,241.7-45.18,386.03-.12,3.39-61.76-27.05-91.73,2.72-8.98,8.92-10.91,46.8-6.04,50.58,62.09-19.52,93.52.15,99.76,5.67,56.03,49.64,122.66,69.36,196.09,69.91,61.85.46,122.67-10.67,183.94-16.77,58.73-5.85,117.16-7.13,174.24,11.73,24.33,8.04,46.85,19.74,70.08,35.42Z"/>
        <path class="cls-14" d="M2982.92,1123.02c-23.22-15.68-45.73-27.37-70.06-35.41-57.08-18.88-115.52-17.58-174.25-11.74-18.87,1.87-37.7,4.24-56.56,6.58-42.29,5.28-84.58,10.52-127.38,10.2-7.92-.05-15.79-.32-23.55-.86-64.16-4.28-122.56-24.78-172.53-69.05-6.24-5.52-37.68-25.18-99.78-5.66-4.86-3.79-2.92-41.68,6.04-50.58,29.98-29.77,91.61.66,91.73-2.74,5.09-144.33,60.81-329.8,45.18-386.02-3.48-12.52-49.18-30.25-89.18-10.66-7.68-19.21,3.06-51.79,6.46-54.05,50.59-16.09,92.18,9.37,98.23,13.33,6.04,3.95,74.56,51.47,119.91,61.99,17.7,4.12,35.45,6.49,53.19,7.61,31.24,2.01,62.55.16,93.94-2.76,19.02-1.78,38-4.1,56.98-6.45,40.44-4.99,80.86-10.09,121.74-10.44,60.38-.56,117.37,11.15,169.08,44.04-3.24,147.74-45.79,342.14-49.19,502.68Z"/>
        <path class="cls-14" d="M2982.92,1123.02c-23.22-15.68-45.73-27.37-70.06-35.41-57.08-18.88-115.52-17.58-174.25-11.74-18.87,1.87-37.7,4.24-56.56,6.58-42.29,5.28-84.58,10.52-127.38,10.2-7.92-.05-15.79-.32-23.55-.86-64.16-4.28-122.56-24.78-172.53-69.05-6.24-5.52-37.68-25.18-99.78-5.66-4.86-3.79-2.92-41.68,6.04-50.58,29.98-29.77,91.61.66,91.73-2.74,5.09-144.33,60.81-329.8,45.18-386.02-3.48-12.52-49.18-30.25-89.18-10.66-7.68-19.21,3.06-51.79,6.46-54.05,50.59-16.09,92.18,9.37,98.23,13.33,6.04,3.95,74.56,51.47,119.91,61.99,17.7,4.12,35.45,6.49,53.19,7.61,31.24,2.01,62.55.16,93.94-2.76,19.02-1.78,38-4.1,56.98-6.45,40.44-4.99,80.86-10.09,121.74-10.44,60.38-.56,117.37,11.15,169.08,44.04-3.24,147.74-45.79,342.14-49.19,502.68Z"/>
        <g>
          <path class="cls-11" d="M2550.09,701.9s-48.92,19.1-52.78,68.9c-3.01,38.86,8.31,105.5,70.48,165.72,38.55,37.34,81.4,60.06,130.78,65.04,58.34,5.88,99.43-12.68,116.88-34.64,3.76-1.21,7.11-2.49,8.25-4.91,1.16-2.47.87-11.4-.71-14.72-1.24-2.61-5.79-6.62-10.32-7.09-30.16-44.14-84.98-32.78-145.83-92.49-37.44-36.74-54.88-110.85-75.24-133.05-2.01-2.19-6.52-7.32-10.94-11.15,3.59-14.95,14.13-25.71,15.38-34.52,1.56-10.98-23.83-23.05-45.09-17.05-7.9,2.23-11.08,7.08-9.5,14.7l8.65,35.26Z"/>
          <path class="cls-11" d="M2541.44,666.65l8.65,35.26s-16.54,6.46-31.14,21.66c-10.51,10.93-20.02,26.4-21.64,47.24-3.01,38.86,8.3,105.5,70.48,165.73,38.55,37.34,81.4,60.06,130.78,65.04,58.34,5.88,99.43-12.68,116.88-34.64,3.76-1.21,7.11-2.49,8.24-4.91,1.16-2.46.87-11.4-.71-14.72-1.24-2.6-5.79-6.62-10.32-7.09-30.16-44.14-84.98-32.78-145.83-92.49-33.22-32.6-50.7-94.61-68.44-123.69-2.25-3.7-4.52-6.86-6.81-9.36-2-2.18-6.52-7.31-10.94-11.15,3.59-14.95,14.14-25.71,15.39-34.52,1.56-10.98-23.83-23.05-45.09-17.06-7.9,2.23-11.08,7.08-9.51,14.71Z"/>
          <path class="cls-11" d="M2541.44,666.65l8.65,35.26s-16.54,6.46-31.14,21.66c-10.51,10.93-20.02,26.4-21.64,47.24-3.01,38.86,8.3,105.5,70.48,165.73,38.55,37.34,81.4,60.06,130.78,65.04,37.53,3.78,67.91-2.55,89.47-13.39,0,0,0,0,.01-.01,11.95-6.01,21.17-13.41,27.4-21.24,3.76-1.21,7.11-2.49,8.24-4.91,1.16-2.46.87-11.4-.71-14.72-1.24-2.6-5.79-6.62-10.32-7.09-10.59-15.51-24.24-24.16-40.11-31.46-29.31-13.47-66.24-22.3-105.72-61.03-33.22-32.6-50.7-94.61-68.44-123.69-2.25-3.7-4.52-6.86-6.81-9.36-2-2.18-6.52-7.31-10.94-11.15,3.59-14.95,14.14-25.71,15.39-34.52,1.56-10.98-23.83-23.05-45.09-17.06-7.9,2.23-11.08,7.08-9.51,14.71Z"/>
          <path class="cls-11" d="M2541.44,666.65l8.65,35.26s-16.54,6.46-31.14,21.66c-10.51,10.93-20.02,26.4-21.64,47.24-3.01,38.86,8.3,105.5,70.48,165.73,38.55,37.34,81.4,60.06,130.78,65.04,37.53,3.78,67.91-2.55,89.47-13.39,0,0,0,0,.01-.01,11.95-6.01,21.17-13.41,27.4-21.24,3.76-1.21,7.11-2.49,8.24-4.91,1.16-2.46.87-11.4-.71-14.72-1.24-2.6-5.79-6.62-10.32-7.09-10.59-15.51-24.24-24.16-40.11-31.46-29.31-13.47-66.24-22.3-105.72-61.03-33.22-32.6-50.7-94.61-68.44-123.69-2.25-3.7-4.52-6.86-6.81-9.36-2-2.18-6.52-7.31-10.94-11.15,3.59-14.95,14.14-25.71,15.39-34.52,1.56-10.98-23.83-23.05-45.09-17.06-7.9,2.23-11.08,7.08-9.51,14.71Z"/>
          <path class="cls-6" d="M2639.24,970.97c42.24,20.81,82.55,20.59,114.63,14.13,17.23-3.47,31.51-11.81,22.06-16.65-12.39-6.34-48.05-3.59-91.31-26.28-21.58-11.32-6.26,17.06-45.38,28.79Z"/>
          <path class="cls-11" d="M2580.23,664.93l2.3,9.35c1.2-2.17,2.27-4.25,2.76-5.76-.46-.52-1.31-1.34-2.75-2.27-.71-.46-1.48-.91-2.31-1.32Z"/>
          <path class="cls-5" d="M2767.54,952.14c14.54,6.19,35.16.42,39.15,10.48,3.4,8.57-18.09,25.08-18.64,25.53,11.95-6.01,21.17-13.41,27.4-21.24,3.76-1.21,7.11-2.49,8.24-4.91,1.16-2.46.87-11.4-.71-14.72-1.24-2.6-5.79-6.62-10.32-7.09-10.59-15.51-24.24-24.16-40.11-31.46,12.05,8.32,33.47,27.84,30.85,38.21-2.94,11.62-27.76,4.44-35.87,5.2Z"/>
          <path class="cls-5" d="M2541.44,666.65l8.65,35.26s-16.54,6.46-31.14,21.66c12.15-4.48,44.03-30.95,42.92,16.77,4.88-38.78,23.55-29.15,36.53-16.3-2.25-3.7-4.52-6.86-6.81-9.36-2-2.18-6.52-7.31-10.94-11.15,3.59-14.95,14.14-25.71,15.39-34.52,1.56-10.98-23.83-23.05-45.09-17.06-7.9,2.23-11.08,7.08-9.51,14.71Z"/>
          <g class="cls-22">
            <path class="cls-14" d="M2584.51,676.44c2.74-.49,6.54-7.03,5.42-10.04-2.52-6.74-15.68-11.99-16.83-8.75s7.41,6.87,8.06,11.31c.61,4.19,1,7.91,3.36,7.48Z"/>
          </g>
          <path class="cls-25" d="M2555.69,697.53c2.52,3,7.84,5.9,9.3.61,1.48-5.33-2.45-16.55,6.36-23.17,7.52-5.65-15.56-5.77-8.44-17.3,2.7-4.37-10.82-2.9-14.01,1.95-3.65,5.55,3.7,34.25,6.78,37.92Z"/>
          <path class="cls-4" d="M2720.32,1009.45c-7.14,0-14.62-.37-22.43-1.15-49.37-4.97-93.47-26.86-134.82-66.91-74.04-71.72-74.22-149.1-72.51-171.11,3.39-43.69,37.95-65.31,51.62-72.19l-7.31-29.83c-2.36-11.38,2.85-19.62,14.24-22.83,17.82-5.02,37.37.96,46.71,9.13,5.22,4.57,7.68,10.03,6.92,15.39-.77,5.4-3.79,10.66-7,16.24-2.62,4.57-5.53,9.64-7.43,15.2,2.92,2.84,5.58,5.76,7.35,7.71l.9.99c9.18,10.01,17.26,28.43,26.61,49.75,12.83,29.26,27.37,62.42,48.39,83.04,30.19,29.62,58.77,41.17,83.99,51.36,24.31,9.82,45.41,18.34,61.14,39.95,5.58,1.78,10.53,6.27,12.4,10.2,2.18,4.6,2.95,15.79.72,20.52-2.11,4.5-6.67,6.55-10.39,7.84-16.02,18.88-49.41,36.73-99.11,36.73ZM2552.56,708.2h0c-1.84.73-45.03,18.29-48.51,63.12-1.59,20.52-1.37,92.72,68.44,160.34,39.07,37.85,80.54,58.51,126.75,63.17,58.35,5.89,96.21-13.63,110.9-32.12.83-1.04,1.95-1.82,3.22-2.23,2.14-.69,3.57-1.25,4.25-1.66.23-1.83-.11-7.14-.76-8.64-.53-.93-3.12-3.05-4.9-3.24-1.98-.21-3.77-1.27-4.89-2.92-13.57-19.86-32.55-27.52-56.58-37.23-26.39-10.66-56.3-22.74-88.41-54.25-22.89-22.45-37.98-56.89-51.3-87.27-8.5-19.38-16.52-37.68-24.18-46.03l-.95-1.04c-2.21-2.44-5.91-6.51-9.44-9.57-1.91-1.66-2.73-4.24-2.14-6.69,2.14-8.93,6.46-16.45,9.94-22.5,2.53-4.41,4.93-8.58,5.33-11.4.04-.28-.46-1.58-2.42-3.3-6.62-5.79-21.54-9.83-34.13-6.29-4.98,1.41-5.47,3.16-4.71,6.82l8.59,35.02c.81,3.29-.95,6.67-4.1,7.91Z"/>
          <g class="cls-20">
            <path class="cls-14" d="M2592.71,893.06c3.57-4.43-12.04-20.48-25.3-44.28-22.67-40.71-31.46-87.49-40.47-89.65-11.18-2.68-12.82,52.97,22.12,102.68,18.63,26.5,40.08,35.68,43.65,31.25Z"/>
          </g>
          <g class="cls-20">
            <path class="cls-14" d="M2623.63,826.38c3.34-3.97.18-13.73-11.76-35.51-9.78-17.83-18.3-30.15-24.71-28.55-6.44,1.61-3.79,20.82,7.72,40.05,15.17,25.33,25.41,27.97,28.74,24.01Z"/>
          </g>
          <path class="cls-8" d="M2598.63,714.89s-.02-.05-.02-.06c.04-.05.04-.03.02.06Z"/>
          <path class="cls-4" d="M2561.62,734.85c1.31,16.36,4.21,32.3,8.32,47.86,4.14,15.53,9.5,30.7,16.57,45.04,6.85,14.42,14.99,28.28,24.73,41.05,4.57,6.64,9.99,12.59,15.23,18.78,2.47,3.26,5.52,5.93,8.31,8.89,2.85,2.91,5.66,5.89,8.47,8.92-3.39-2.29-6.77-4.63-10.12-7.04-3.33-2.43-6.79-4.75-9.77-7.61l-9.15-8.4c-3.2-2.69-5.62-6.09-8.46-9.12-5.78-6.03-10.35-13-15.21-19.78-2.42-3.4-4.24-7.17-6.39-10.74l-3.1-5.43-2.7-5.64c-3.65-7.51-6.53-15.34-9.31-23.19l-3.37-12.02c-1.07-4.02-1.77-8.13-2.6-12.19-2.93-16.31-3.9-33.08-1.47-49.38Z"/>
          <path class="cls-4" d="M2706.37,937.02c6.95.59,13.56,1.75,20.13,2.97,6.57,1.16,13.03,2.59,19.52,3.89,6.45,1.46,12.93,2.79,19.4,4.42,6.49,1.57,13,3.23,19.58,5.56-6.84,1.42-13.72,1.7-20.55,1.42-6.85-.23-13.62-1.22-20.32-2.57-6.66-1.51-13.26-3.37-19.6-5.97-6.35-2.54-12.51-5.61-18.16-9.71Z"/>
          <path class="cls-4" d="M2572.78,673.69c-3.67.76-7.42.66-11.08.23-3.67-.45-7.32-1.24-10.93-2.52-3.54-1.42-7.35-2.77-10.35-7.19-.33-.6-.7-1.17-.95-1.84-.18-.74-.33-1.51-.43-2.29-.2-1.51.32-3.1.77-4.46.63-1.1,1.33-2.45,2.12-3.29l2.44-2.46c1.77-1.78,4.64-1.79,6.42-.02,1.78,1.77,1.79,4.64.02,6.42-.16.16-.33.31-.5.44l-.62.46c-.5.37-1.02.72-1.58,1.08-.53.36-.62.67-1.07.99-.18.55-.77.7-.31,1.62.57,1.87,3.42,4.19,6.23,5.75,2.9,1.65,6.1,2.98,9.41,3.99,3.31,1,6.77,1.69,10.19,1.59h.04c.42-.01.76.31.77.73.01.37-.25.69-.6.76Z"/>
        </g>
        <g class="cls-23">
          <path class="cls-4" d="M2982.92,1123.02c-11.54-7.79-22.88-14.59-34.39-20.48,5.8-156.08,46.69-357.47,50.94-499.93,11.09,5.07,21.99,10.94,32.64,17.73-3.24,147.74-45.79,342.14-49.19,502.68Z"/>
        </g>
        <g class="cls-23">
          <path class="cls-4" d="M2745.81,586.75l-59.24,495.71c-42.29,5.28-84.58,10.52-127.38,10.2-7.92-.05-15.79-.32-23.55-.86l59.25-495.83c31.24,2.01,62.55.16,93.94-2.76,19.02-1.78,38-4.1,56.98-6.45Z"/>
        </g>
        <path class="cls-4" d="M2982.93,1134.31c-2.21,0-4.41-.65-6.31-1.93-23.38-15.79-44.77-26.61-67.3-34.06-57.58-19.02-118.04-16.34-169.58-11.21-18.41,1.83-37.16,4.17-55.29,6.43-42.28,5.27-85.95,10.77-129.85,10.4-82.36-.61-148.92-24.4-203.49-72.74-.26-.23-26.8-22.87-88.9-3.36-3.54,1.11-7.39.42-10.31-1.86-4.21-3.28-6.25-8.63-6.81-17.88-.56-9.27.41-38.26,11.83-49.61,25.66-25.47,67.07-15.49,89.04-8.97,3.62-65.41,16.4-137.59,27.76-201.77,12.64-71.4,24.58-138.86,17.34-166.43-4.81-6.48-40.25-20.38-73.49-4.1-2.82,1.39-6.09,1.53-9.01.4-2.93-1.13-5.26-3.42-6.43-6.34-8.62-21.51.83-61.09,10.68-67.65.87-.58,1.83-1.04,2.83-1.36,54.71-17.41,99.41,9.15,107.82,14.65l2.25,1.5c47.62,32,88.12,52.94,114.03,58.96,48.7,11.31,97.76,8.89,143.54,4.6,19.83-1.86,40.03-4.36,59.56-6.77,39.12-4.83,79.57-9.82,120.12-10.18,68.38-.6,125.81,14.38,175.22,45.8,3.33,2.12,5.31,5.82,5.22,9.77-1.6,72.83-12.41,154.95-23.85,241.9-11.61,88.16-23.6,179.32-25.33,260.78-.09,4.13-2.42,7.88-6.09,9.78-1.64.84-3.41,1.26-5.19,1.26ZM2805.95,1060.78c35.84,0,73.47,3.89,110.44,16.11,18.94,6.26,37.04,14.64,55.87,25.94,3.07-77.36,14.16-161.61,24.91-243.29,11.03-83.74,21.46-162.98,23.5-233.02-44.42-26.74-95.88-39.44-157.53-38.95-39.26.35-79.06,5.26-117.55,10.01-19.69,2.43-40.05,4.94-60.21,6.84-47.66,4.48-98.91,6.96-150.75-5.08-36.55-8.49-86.25-38.52-121.51-62.21l-2.01-1.35c-4.12-2.69-40.45-25.28-84.63-13.21-2.26,5.61-5.53,18.06-5.34,28.99,26.89-8.38,53.94-3.81,70.52,3.64,8.12,3.65,18.35,9.99,21,19.5,8.93,32.14-2.39,96.05-16.71,176.96-12.04,68.02-25.69,145.12-28.06,212.49-.12,3.51-1.96,6.93-4.82,8.97-5.09,3.64-9.54,2.28-18.38-.43-16.02-4.91-53.53-16.4-71.85,1.8-3.09,3.57-5.34,18.29-5.41,28.41,64.67-16.46,95.22,8.35,98.66,11.4,50.31,44.57,112.03,66.5,188.69,67.07,42.64.31,85.35-5.05,126.89-10.22,18.27-2.28,37.16-4.63,55.85-6.49,21.54-2.14,44.6-3.87,68.46-3.87Z"/>
        <g>
          <path class="cls-14" d="M2196.19,1474.53s-22.86,40.64-57.12,13.43c-30.11-23.92-28.52-131.77.75-157.77,29.28-26,91.17,10.03,91.17,10.03l-34.81,134.31Z"/>
          <g class="cls-23">
            <path class="cls-4" d="M2119.11,1440.2c3.02,21.36,9.59,39.5,19.96,47.76,34.23,27.23,57.1-13.44,57.1-13.44l34.83-134.32s-17.88-10.38-38.97-15.98l-25.04,96.65s-18.84,33.4-47.87,19.32Z"/>
          </g>
          <path class="cls-4" d="M2162.61,1511.15c-8.8,0-20.01-2.73-32.14-12.37-22.91-18.2-26.54-62.39-27.04-80.55-.91-33.42,5.66-79.24,27.21-98.38,35.74-31.74,100.08,4.21,107.3,8.42,5.36,3.12,7.98,9.42,6.43,15.41l-34.8,134.31c-.3,1.16-.75,2.27-1.33,3.31-1.4,2.5-14.39,24.52-37.55,29.06-2.38.47-5.09.78-8.07.78ZM2168.19,1334.55c-7.57,0-14.35,1.67-19.19,5.98-11.16,9.91-18.87,42.99-17.93,76.96.9,32.82,8.98,53.61,16.6,59.66,6.47,5.14,12.23,7.14,17.61,6.12,8.17-1.55,15.14-9.82,18.06-14.21l31.52-121.64c-12.41-5.87-31.19-12.86-46.66-12.86ZM2196.19,1474.53h.05-.05Z"/>
          <path class="cls-14" d="M2312.83,1309.5c-33.9-.16-81.02,24.02-101.87,89.88-21.47,67.8-10.94,196.01,54.65,231.99,50.3,27.59,102.92,7.83,128.36-40.36,23.62-44.73,52.61-280.87-81.13-281.51Z"/>
          <g class="cls-23">
            <path class="cls-4" d="M2406.35,1550.18c-3.61,18.23-8.09,32.69-12.4,40.85-25.4,48.15-78.05,67.91-128.33,40.36-65.6-36-76.12-164.18-54.66-231.99,6.39-20.3,15.28-36.62,25.6-49.47-15.5,70.29-2.01,182.94,58.82,216.27,40.68,22.35,82.95,13.67,110.97-16.02Z"/>
          </g>
          <path class="cls-4" d="M2346.61,1650.54c-5.32,0-10.39-3.09-12.67-8.27-3.07-6.99.11-15.14,7.09-18.22,16.9-7.42,30.97-21.08,40.7-39.51,15.62-29.59,35.07-157.97-4.65-224.22-14.85-24.77-35.9-36.88-64.33-37.01-.1,0-.2,0-.29,0-29.1,0-69.58,20.98-88.34,80.23-17.26,54.51-13.38,158.34,32.16,203.62,5.42,5.38,5.44,14.14.05,19.55-5.38,5.42-14.14,5.44-19.55.06-55.02-54.71-58-171.65-39.02-231.57,23.28-73.49,76.25-99.53,114.72-99.53h.4c37.83.18,68.23,17.62,87.91,50.44,44.93,74.94,25.58,213.09,5.38,251.34-12.67,24-31.35,41.95-54.02,51.91-1.81.79-3.7,1.17-5.55,1.17Z"/>
        </g>
      </g>
      <g>
        <path class="cls-1" d="M1154.02,3010.72c-1.04,4.72-11.64,6.7-26.6,5.77-7.56-.47-14.58,4.01-17.34,11.06-5.47,13.96-11.73,22.73-16.45,21.69-4.72-1.04-6.7-11.64-5.77-26.6.47-7.56-4.01-14.58-11.06-17.34-13.97-5.47-22.77-11.73-21.72-16.46,1.05-4.75,11.66-6.73,26.62-5.78,7.56.48,14.6-4,17.36-11.06,5.47-13.98,11.73-22.75,16.45-21.7,4.72,1.04,6.7,11.64,5.77,26.62-.47,7.56,4.02,14.59,11.08,17.35,13.95,5.45,22.72,11.71,21.67,16.46Z"/>
        <path class="cls-1" d="M2268.89,2107.08c-1.04,4.72-11.64,6.7-26.6,5.77-7.56-.47-14.58,4.01-17.34,11.06-5.47,13.96-11.73,22.73-16.45,21.69-4.72-1.04-6.7-11.64-5.77-26.6.47-7.56-4.01-14.58-11.06-17.34-13.97-5.47-22.77-11.73-21.72-16.46,1.05-4.75,11.66-6.73,26.62-5.78,7.56.48,14.6-4,17.36-11.06,5.47-13.98,11.73-22.75,16.45-21.7,4.72,1.04,6.7,11.64,5.77,26.62-.47,7.56,4.02,14.59,11.08,17.35,13.95,5.45,22.72,11.71,21.67,16.46Z"/>
        <path class="cls-1" d="M2843.89,92.08c-1.04,4.72-11.64,6.7-26.6,5.77-7.56-.47-14.58,4.01-17.34,11.06-5.47,13.96-11.73,22.73-16.45,21.69-4.72-1.04-6.7-11.64-5.77-26.6.47-7.56-4.01-14.58-11.06-17.34-13.97-5.47-22.77-11.73-21.72-16.46,1.05-4.75,11.66-6.73,26.62-5.78,7.56.48,14.6-4,17.36-11.06,5.47-13.98,11.73-22.75,16.45-21.7,4.72,1.04,6.7,11.64,5.77,26.62-.47,7.56,4.02,14.59,11.08,17.35,13.95,5.45,22.72,11.71,21.67,16.46Z"/>
        <circle class="cls-1" cx="530.37" cy="80.28" r="16.74"/>
        <path class="cls-1" d="M2334.3,216.4c-6.69,5.45-16.53,4.45-21.98-2.23-5.45-6.69-4.45-16.53,2.23-21.98,6.69-5.45,16.53-4.45,21.98,2.23,5.45,6.69,4.45,16.53-2.23,21.98Z"/>
        <circle class="cls-1" cx="2113.28" cy="100.46" r="19.84" transform="translate(516.28 1488.13) rotate(-43.71)"/>
        <circle class="cls-1" cx="326.59" cy="2086.63" r="23.63" transform="translate(-1507.49 1039.33) rotate(-51.38)"/>
        <circle class="cls-1" cx="1453.63" cy="2952.67" r="23.63" transform="translate(-348.99 199.15) rotate(-7)"/>
        <circle class="cls-1" cx="1293.63" cy="3187.67" r="23.63" transform="translate(-378.82 181.41) rotate(-7)"/>
        <circle class="cls-1" cx="548.63" cy="3162.67" r="23.63" transform="translate(-381.33 90.43) rotate(-7)"/>
        <circle class="cls-1" cx="1988.63" cy="3047.67" r="23.63" transform="translate(-356.58 265.06) rotate(-7)"/>
        <circle class="cls-1" cx="2943.63" cy="1592.67" r="23.63" transform="translate(-172.15 370.6) rotate(-7)"/>
        <circle class="cls-1" cx="23.63" cy="1917.67" r="23.63" transform="translate(-233.52 17.17) rotate(-7)"/>
        <circle class="cls-1" cx="2753.63" cy="2002.67" r="23.63" transform="translate(-223.53 350.5) rotate(-7)"/>
        <circle class="cls-1" cx="2325.2" cy="8.61" r="8.61" transform="translate(1944.25 2302.4) rotate(-80.78)"/>
        <circle class="cls-1" cx="432.48" cy="2248.06" r="12.15" transform="translate(-1525.01 1061.03) rotate(-47.88)"/>
        <path class="cls-1" d="M2605.1,1732.26c0,4.93-10.11,9.23-25.21,11.6-7.62,1.2-13.63,7.2-14.82,14.82-2.37,15.1-6.67,25.21-11.6,25.21s-9.23-10.11-11.6-25.21c-1.2-7.62-7.2-13.63-14.83-14.82-15.11-2.37-25.25-6.67-25.25-11.6s10.13-9.27,25.23-11.62c7.63-1.19,13.65-7.2,14.84-14.83,2.37-15.12,6.67-25.22,11.6-25.22s9.23,10.11,11.6,25.22c1.2,7.63,7.21,13.64,14.84,14.83,15.09,2.35,25.19,6.66,25.19,11.62Z"/>
        <path class="cls-1" d="M239.58,726.43c0,4.93-10.11,9.23-25.21,11.6-7.62,1.2-13.63,7.2-14.82,14.82-2.37,15.1-6.67,25.21-11.6,25.21s-9.23-10.11-11.6-25.21c-1.2-7.62-7.2-13.63-14.83-14.82-15.11-2.37-25.25-6.67-25.25-11.6s10.13-9.27,25.23-11.62c7.63-1.19,13.65-7.2,14.84-14.83,2.37-15.12,6.67-25.22,11.6-25.22s9.23,10.11,11.6,25.22c1.2,7.63,7.21,13.64,14.84,14.83,15.09,2.35,25.19,6.66,25.19,11.62Z"/>
        <path class="cls-1" d="M2737.46,2306.31c0,4.93-10.11,9.23-25.21,11.6-7.62,1.2-13.63,7.2-14.82,14.82-2.37,15.1-6.67,25.21-11.6,25.21s-9.23-10.11-11.6-25.21c-1.2-7.62-7.2-13.63-14.83-14.82-15.11-2.37-25.25-6.67-25.25-11.6s10.13-9.27,25.23-11.62c7.63-1.19,13.65-7.2,14.84-14.83,2.37-15.12,6.67-25.22,11.6-25.22s9.23,10.11,11.6,25.22c1.2,7.63,7.21,13.64,14.84,14.83,15.09,2.35,25.19,6.66,25.19,11.62Z"/>
        <path class="cls-1" d="M187.46,2281.31c0,4.93-10.11,9.23-25.21,11.6-7.62,1.2-13.63,7.2-14.82,14.82-2.37,15.1-6.67,25.21-11.6,25.21s-9.23-10.11-11.6-25.21c-1.2-7.62-7.2-13.63-14.83-14.82-15.11-2.37-25.25-6.67-25.25-11.6s10.13-9.27,25.23-11.62c7.63-1.19,13.65-7.2,14.84-14.83,2.37-15.12,6.67-25.22,11.6-25.22s9.23,10.11,11.6,25.22c1.2,7.63,7.21,13.64,14.84,14.83,15.09,2.35,25.19,6.66,25.19,11.62Z"/>
        <circle class="cls-1" cx="346" cy="352.96" r="18.8" transform="translate(-77.02 608.61) rotate(-76.72)"/>
      </g>
    </g>
  </g>
</svg>