<?xml version="1.0" encoding="UTF-8"?>
<svg id="Livello_2" data-name="Livello 2" xmlns="http://www.w3.org/2000/svg" viewBox="0 0 2535.7 3023.11">
  <defs>
    <style>
      .cls-1 {
        fill: none;
      }

      .cls-2 {
        fill: #ffd848;
      }

      .cls-3 {
        fill: #f9d6b6;
      }

      .cls-4 {
        fill: #261c1c;
      }

      .cls-5 {
        fill: #110c0c;
      }

      .cls-6 {
        fill: #5373a0;
      }

      .cls-7 {
        fill: #8bd126;
      }

      .cls-8 {
        fill: #57b7ff;
      }

      .cls-9 {
        fill: #f44a4a;
      }

      .cls-10 {
        fill: #ff9831;
      }

      .cls-11 {
        fill: #fff;
      }

      .cls-12 {
        fill: #f28475;
      }

      .cls-13 {
        fill: #bc462f;
      }

      .cls-14 {
        fill: #f4b68c;
      }

      .cls-15 {
        opacity: .4;
      }

      .cls-16 {
        opacity: .5;
      }

      .cls-17 {
        opacity: .2;
      }

      .cls-18 {
        opacity: .25;
      }

      .cls-19 {
        fill: #ffcc29;
      }

      .cls-20 {
        fill: #6ce0ff;
      }

      .cls-21 {
        fill: #371a45;
      }

      .cls-22 {
        fill: #ff2727;
      }

      .cls-23 {
        fill: #d2623a;
      }
    </style>
  </defs>
  <g id="Layer_1" data-name="Layer 1">
    <g>
      <g class="cls-17">
        <ellipse class="cls-21" cx="1264.95" cy="2932.02" rx="1012.14" ry="91.09"/>
      </g>
      <g>
        <g>
          <path class="cls-7" d="M39.61,2610.25c2.32,3.23,4.86,6.28,7.7,9.06,39.07,38.35,86.85,55.96,124.75,45.96,27.68-7.32,54.14-60.78,63.47-84.23-20.93-26.83-35.07-56.44-44.24-86.54-66.11,32.38-136.24,100.35-151.67,115.74Z"/>
          <path class="cls-7" d="M176.17,2394.08c-40.69,14.18-126.97,47.83-139.65,69.61-14.13,24.28-25.66,92.93-2.94,136.69,19.47-19.33,88.19-84.92,154.61-116.78-8.09-30.45-11.43-61.08-12.01-89.52Z"/>
          <path class="cls-19" d="M564.04,2470.92c46.45-13.78,93.81-34.9,143.96-57.27,156.67-69.88,351.66-156.87,726.21-134.08,479.52,29.15,712.41,168.98,995.68,433.72,42.55-38.24,66.27-96.75,66.8-165.56,1.14-148.44-98.2-320.97-272.56-473.36-292.13-255.32-699.29-333.46-1320.2-253.36-312.35,40.29-488.82,170.32-581.85,272.3-98.49,107.97-126.87,208.15-128.36,213.62-5.61,35.02-12.47,105.3,6.15,174.96,25.92,5.72,194.48,39.35,364.16-10.98Z"/>
          <path class="cls-2" d="M2438.52,2720.63l41.02,32.28c18.95-23.02,35.04-46.18,35.47-53.2-2.63-7.26-19.37-25.29-32.37-38.09-11.22,22.66-26.05,42.54-44.12,59.01Z"/>
          <path class="cls-2" d="M2345.36,2773.76c26.26,16.28,63.92,35.96,77.45,33.17,9.05-1.85,29.92-22.54,49.51-45.42l-42.47-33.42c-25.17,20.52-53.69,35.53-84.49,45.68Z"/>
          <path class="cls-19" d="M1433.5,2290.69c-371.72-22.6-565.29,63.73-720.82,133.1-50.5,22.53-98.2,43.8-145.37,57.79-162.27,48.12-323.4,20.72-363.94,12.45,9.32,29.87,23.63,59.25,45.11,85.27,47.54,57.59,121.86,89.35,220.92,94.41,153.54,7.87,272.45-25.34,398.34-60.47,104.02-29.03,211.59-59.06,347.19-68.8,43.64-3.13,86.45-4.69,128.22-4.69,233.94,0,435.89,48.68,577.67,140.62,152.43,98.85,371.94,143.58,500.48,40.29-280.93-262.41-512.21-401.05-987.8-429.96Z"/>
          <path class="cls-10" d="M867.74,2613.23c104.02-29.03,211.59-59.06,347.19-68.8,43.64-3.13,86.45-4.69,128.22-4.69,233.94,0,435.89,48.68,577.67,140.62,152.43,98.85,371.94,143.58,500.48,40.29-47.77-44.62-94.1-85.65-140.44-123.18-187.31-118.13-566.25-258.17-974.46-271.1-408.24-12.93-640.4,175.72-784.78,203.54-142.97,27.54-309.19-18.24-312.39-19.13,9.16,24.03,21.8,47.39,39.25,68.51,47.54,57.58,121.86,89.35,220.92,94.41,153.54,7.87,272.45-25.34,398.34-60.47Z"/>
          <path class="cls-10" d="M2332.39,2470.01c-87.53,31.6-369-228.39-898.68-305.95-529.69-77.57-911.59,241.32-1062.3,222.18-150.71-19.14-79.01-166.88-79.01-166.88-77.67,55.77-102.16,197.1-102.97,201.9,1.75,19.67,4.98,40.17,10.45,60.64,25.92,5.72,194.48,39.35,364.16-10.98,46.45-13.78,93.81-34.9,143.96-57.27,156.67-69.88,351.66-156.87,726.21-134.08,479.52,29.15,712.41,168.98,995.68,433.72,42.55-38.24,66.27-96.75,66.8-165.56.69-90.42-35.96-189.78-104.07-288.08.73,4.91,26.07,179.19-60.22,210.35Z"/>
          <ellipse class="cls-10" cx="1322.64" cy="1901.22" rx="483.43" ry="70.26"/>
          <g class="cls-15">
            <path class="cls-11" d="M177.1,2414.84c-.48-7.02-.79-13.96-.93-20.76-40.69,14.18-126.97,47.83-139.65,69.61-9.19,15.79-17.27,50.34-15.55,84.6,8.83-19.43,31.13-67.52,39.84-76.92,9.5-10.26,93.84-46.89,116.29-56.53Z"/>
          </g>
          <path class="cls-10" d="M2345.36,2773.76c26.26,16.28,63.92,35.96,77.45,33.17,7.12-1.46,21.56-14.59,36.93-31.26l-41.62-38.65c-22.19,15.99-46.64,28.14-72.76,36.74Z"/>
          <g>
            <path class="cls-21" d="M2233.92,2799.84c-110.16,0-229.87-40.96-324.39-102.25-163.33-105.91-409.47-153-693.11-132.65-133.52,9.59-240.07,39.33-343.11,68.09-127.57,35.6-248.05,69.23-404.98,61.21-106.19-5.43-186.06-40.36-237.39-103.81-75.3-93.1-68.4-219.78-57.59-287.02.07-.46.17-.92.29-1.37,1.12-4.35,28.71-107.86,132.68-222.05,95.37-104.74,276-238.23,594.95-279.37,313.07-40.39,568.83-40.74,781.88-1.06,220.48,41.05,401.89,125.89,554.61,259.37,178.84,156.31,280.75,334.51,279.59,488.91-.58,76.92-28.22,142.45-77.83,184.51-55.86,47.36-128.38,67.48-205.6,67.48ZM1343.05,2530.32c235.78,0,439.53,49.2,582.81,142.1,151.48,98.23,369.9,142.5,494.27,37.06,42.84-36.33,66.72-93.81,67.23-161.86,1.1-145.66-97.07-315.54-269.33-466.1-289.95-253.42-694.86-330.88-1312.91-251.14-308.94,39.85-483.43,168.01-575.4,268.5-95.6,104.45-124.46,201.56-126.86,210.09-8.05,50.67-18.72,175.88,51.42,262.6,45.74,56.55,118.27,87.74,215.6,92.72,152.02,7.78,270.24-25.22,395.38-60.15,104.47-29.16,212.49-59.3,349.02-69.11,43.82-3.15,86.82-4.71,128.78-4.71Z"/>
            <path class="cls-21" d="M150.34,2688.55c-38.86,0-81.83-19.54-117.55-54.61-50.07-49.16-32.62-148.85-14.16-180.57,18.93-32.51,126.06-70.5,158.44-81.36,7.86-2.63,16.36,1.59,18.99,9.45,2.63,7.85-1.59,16.36-9.45,18.99-61.25,20.56-132.97,52.41-142.06,68.02-14.84,25.5-27.01,108.47,9.25,144.07,36.75,36.07,81.16,52.78,115.89,43.6,22.2-5.87,47.5-52.99,58.22-81.31,2.93-7.74,11.59-11.66,19.33-8.72,7.75,2.93,11.66,11.58,8.73,19.32-3.39,8.97-34.38,88.02-78.62,99.71-8.67,2.29-17.73,3.41-27.02,3.41Z"/>
            <path class="cls-21" d="M2480.42,2775.74c-3.25,0-6.52-1.05-9.27-3.21l-50.61-39.82c-.34-.27-.67-.55-.98-.84-281.4-263.69-511.26-402.86-986.62-431.76-369.46-22.44-561.89,63.36-716.49,132.31-50.79,22.65-98.75,44.05-146.51,58.21-173.6,51.48-341.09,18.81-373.21,11.67-73.23,35.31-152.8,116.9-153.61,117.74-5.77,5.95-15.27,6.09-21.21.33-5.95-5.76-6.1-15.26-.33-21.21,3.54-3.65,87.62-89.89,167.25-126.29,3.08-1.41,6.55-1.73,9.83-.92,1.79.44,181.78,43.59,362.76-10.08,45.87-13.6,90.8-33.64,142.82-56.85,157.59-70.29,353.72-157.76,730.53-134.86,484.23,29.43,718.42,171.06,1004.84,439.37l50.1,39.42c6.51,5.12,7.64,14.56,2.51,21.06-2.96,3.76-7.36,5.73-11.8,5.73Z"/>
            <path class="cls-21" d="M2420.78,2827.64c-29.16,0-80.66-32.45-96.66-43.02-6.91-4.57-8.81-13.87-4.25-20.78,4.56-6.92,13.87-8.81,20.78-4.25,33.51,22.13,70.99,39.9,80.31,38.08,15.76-4.93,75.07-76.31,83.96-97.13-4.67-7.16-19.37-23.35-34.25-37.44-6.01-5.7-6.27-15.19-.58-21.2,5.7-6.02,15.19-6.27,21.2-.58,11.57,10.96,38.98,38.02,43.55,52.61,2.24,7.15.11,15.05-7.62,28.16-14.09,23.91-72.09,99.22-100.26,104.98-1.92.39-3.99.58-6.19.58Z"/>
          </g>
          <g class="cls-15">
            <path class="cls-11" d="M552.09,1974.73c-11.49,2.62-215.09,110.1-185.83,177.14,29.26,67.05,344.77-213.4,185.83-177.14Z"/>
          </g>
          <g class="cls-15">
            <path class="cls-11" d="M764.26,1954.62c-28.85,6.63-112.67,45.97-71.7,56.02,40.97,10.05,140.47-71.82,71.7-56.02Z"/>
          </g>
          <g>
            <path class="cls-1" d="M177.1,2414.84c-22.46,9.64-106.79,46.27-116.29,56.53-8.71,9.41-31.02,57.5-39.84,76.92.92,18.43,4.67,36.78,12.61,52.08,19.47-19.33,88.19-84.92,154.61-116.78-6.16-23.17-9.55-46.43-11.08-68.76Z"/>
            <path class="cls-1" d="M292.39,2219.36s-71.7,147.74,79.01,166.88c150.71,19.14,532.61-299.75,1062.3-222.18,529.69,77.57,811.16,337.56,898.68,305.95,86.29-31.16,60.95-205.44,60.22-210.35-13.98-20.17-29.28-40.3-45.87-60.3,9.18,28.11-178.24-135.79-476.29-276.35-295.1-139.16-939.1-104.42-953.74-103.61-4.26.54-8.5,1.05-12.78,1.61-312.35,40.29-488.82,170.32-581.85,272.3-98.49,107.97-126.87,208.15-128.36,213.62-3.96,24.73-8.5,67.06-4.3,114.33.81-4.8,25.3-146.13,102.97-201.9Z"/>
            <path class="cls-1" d="M144.61,2621.31c45.36-15.32,67.2-76.89,67.2-76.89,0,0,.08.09.2.22-8.69-16.29-15.53-33.12-20.72-50.14-66.11,32.38-136.24,100.35-151.67,115.74,2.32,3.23,4.86,6.28,7.7,9.06,4.94,4.85,10.01,9.35,15.19,13.52,16.75.33,50.03-.68,82.1-11.52Z"/>
            <path class="cls-1" d="M521.63,2529.91c144.37-27.81,376.54-216.46,784.78-203.54,408.2,12.93,787.15,152.97,974.46,271.1-134.2-108.69-268.51-187.93-437.97-239.43-75.51-19.14-144.59-34.53-208.53-46.51-62.01-9.51-128.6-16.45-200.86-20.84-218.06-13.26-374.8,10.98-498.53,47.28-50.35,16.19-100.16,34.63-146.3,52.64-26.6,11.15-51.76,22.37-75.99,33.18-50.5,22.53-98.2,43.8-145.37,57.79-162.27,48.12-323.4,20.72-363.94,12.45,1.75,5.61,3.74,11.2,5.86,16.75,3.21.89,169.42,46.68,312.39,19.13Z"/>
            <path class="cls-1" d="M2438.52,2720.63l41.02,32.28c18.95-23.02,35.04-46.18,35.47-53.2-2.63-7.26-19.37-25.29-32.37-38.09-11.22,22.66-26.05,42.54-44.12,59.01Z"/>
            <path class="cls-1" d="M2418.12,2737.01l41.62,38.65c4.17-4.52,8.4-9.29,12.58-14.17l-42.47-33.42c-3.83,3.12-7.75,6.07-11.73,8.94Z"/>
            <g class="cls-18">
              <path class="cls-4" d="M144.61,2621.31c-32.08,10.84-65.35,11.85-82.1,11.52,35.8,28.83,76.45,41.17,109.56,32.44,27.68-7.32,54.14-60.78,63.47-84.23-9.1-11.66-16.84-23.87-23.53-36.4-.12-.13-.2-.22-.2-.22,0,0-21.84,61.56-67.2,76.89Z"/>
            </g>
            <g class="cls-18">
              <path class="cls-4" d="M1867.32,2661.86c-26.32-14.06-54.36-26.81-83.91-38.26,29.82,12.28,57.2,25.1,83.91,38.26Z"/>
            </g>
            <g class="cls-18">
              <path class="cls-4" d="M788.67,2390.61c46.14-18.01,95.95-36.45,146.3-52.64-54.33,15.94-102.31,34.2-146.3,52.64Z"/>
            </g>
            <g class="cls-18">
              <path class="cls-4" d="M1634.36,2311.53c63.94,11.98,133.02,27.37,208.53,46.51-63.88-19.42-132.77-34.89-208.53-46.51Z"/>
            </g>
            <g class="cls-15">
              <path class="cls-11" d="M1870.45,1923.02c298.05,140.56,485.47,304.46,476.29,276.35-35.27-42.53-76.26-84.47-122.62-124.98-290.11-253.56-693.72-332.34-1307.41-254.97,14.63-.81,658.64-35.56,953.74,103.61Z"/>
            </g>
          </g>
        </g>
        <g>
          <path class="cls-12" d="M1742.74,649.43c19.35-11.17,37.59-31.95,30.74-56.77-2.95-10.65-9-18.27-18.52-23.28-25.86-13.62-68.39-3.04-80.18.31-.15.8-.33,1.55-.47,2.36-5.82,32.58-11.13,57.54-15.49,76.74,22.64,19.13,58.9,15.08,83.93.63Z"/>
          <path class="cls-3" d="M1580.97,808.06c6.49-22.99,6.42-59.56-30.82-103.2-.66-.77-1.16-1.36-1.49-1.77-6.49-8.11,1.55-22.64,14.87-46.7,9.93-17.94,22.29-40.27,28.79-61.75,29.36-97.14,20.39-230.25-101.57-285.67-113.11-51.41-212.36,72.51-213.34,73.77-1.13,1.43-2.85,2.27-4.72,2.16-1.83-.07-3.52-1.01-4.53-2.53-34.39-51.91-114.87-88.64-183.19-83.65-36.8,2.69-86.35,18.14-113.44,76.46-46.07,99.16-4.89,206.06,14.89,257.43,7.19,18.68,10.35,27.16,9.72,32.48-.95,8.09-7.98,14.14-16.12,21.15-15.63,13.46-37.04,31.89-31.44,75.92,7.89,61.97,116.14,140.75,129.58,150.3,133.81,33.6,291.94,23.84,294.59,23.66,13.63-.92,26.7-2.2,39.22-3.8,98.27-33.39,155.13-75.2,168.99-124.27ZM1195.33,619.57c4.21-4.66,9.19-8.78,14.88-12.11,2.77-1.78,5.93-3,9.06-4.28,1.59-.57,3.31-.89,4.97-1.33,1.65-.5,3.37-.69,5.12-.81,1.73-.07,3.49-.41,5.2-.21l5.15.42c3.34.71,6.76,1.33,9.84,2.72,6.28,2.48,11.91,6.14,16.49,10.6,9.31,8.76,15.87,19.6,19.33,31.22-7.6-9.43-15.78-18-24.97-24.53-4.62-3.22-9.5-5.81-14.56-7.38-5-1.62-10.31-2.42-15.38-1.77-5.08.42-10.18,2.01-15.02,4.55-4.89,2.41-9.55,5.6-14.03,9.18-8.94,7.21-17.06,15.84-25.05,24.97,3.96-11.46,10.4-22.11,18.98-31.25ZM1084.02,498.53c-7.61.61-15.08,3.8-21.86,8.37-6.9,4.43-13.02,10.33-18.87,16.51-11.53,12.61-21.5,26.97-30.83,41.93,5.07-16.89,13.11-32.98,24.02-47.43,2.72-3.62,5.65-7.14,8.94-10.38,3.24-3.28,6.71-6.41,10.55-9.21,7.6-5.59,16.88-9.82,27.02-10.88,10.13-.83,20.39,1.86,28.72,6.85,8.28,5.1,15.15,11.68,20.6,19.03,5.61,7.25,9.97,15.17,13.69,23.26,3.57,8.16,6.61,16.52,8.39,25.17-8.27-15.52-17.51-30.41-28.91-42.91-5.78-6.13-12.04-11.71-19.13-15.41-6.98-3.82-14.72-5.65-22.33-4.9ZM1365.64,755.06c-9.29,10.86-20.29,20.5-32.73,28.06-12.44,7.6-26.17,12.92-40.22,16.93-14.22,3.24-28.74,5.51-43.27,5.56l-10.9.09-10.87-.8c-3.61-.35-7.25-.36-10.85-1.01l-10.77-1.81c-1.79-.35-3.59-.57-5.36-1.02l-5.28-1.43c-3.51-.99-7.05-1.85-10.52-2.95-6.84-2.57-13.74-4.95-20.13-8.51-12.99-6.54-24.89-15.23-34.69-25.75-9.63-10.59-17.72-22.73-21.76-36.19,6.35,12.48,15.4,23.24,25.67,32.34,10.26,9.16,22.11,16.33,34.62,21.81,6.17,2.95,12.82,4.78,19.27,7.03,3.3.92,6.68,1.59,10.01,2.4l5.01,1.17c1.67.36,3.4.5,5.1.77l10.21,1.5c3.39.58,6.88.52,10.31.82l10.33.64,10.35-.22c13.84.14,27.48-1.95,40.9-4.66,13.32-3.2,26.18-7.95,38.36-14.21,12.05-6.47,23.19-14.65,33.09-24.25,10.07-9.48,18.36-20.71,26.25-32.33-5.66,12.77-12.85,25.12-22.14,36.02ZM1480.91,521.34c-5.91-7.03-12.4-13.57-20.18-17.62-7.59-4.32-16.2-6.13-24.86-5.39-8.86.56-17.45,3.3-25.17,7.71-7.75,4.43-14.54,10.62-20.58,17.62-5.98,7.06-11.27,14.89-16.05,23.11-2.47,4.08-4.74,8.29-7.13,12.49-1.2,2.1-2.4,4.21-3.67,6.28-1.37,1.97-2.58,4.31-4.76,5.56,1.77-1.66,2.36-4.08,3.22-6.28l2.35-6.8c1.53-4.56,3.22-9.1,5.01-13.62,3.71-8.99,8.16-17.85,14.03-26,5.71-8.26,13.19-15.55,21.96-21.3,8.92-5.58,19.33-8.97,29.92-9.86,10.77-.78,22.06,1.77,31.17,7.4,9.15,5.58,16.33,13.29,21.92,21.62,5.6,8.36,9.81,17.35,13.07,26.56,3.13,9.25,5.59,18.68,6.61,28.29-6.94-17.93-15.38-35.24-26.85-49.76Z"/>
          <path class="cls-23" d="M887.96,468.74c2.46,30.98,7.16,58.67,10.84,80.37,3.98,23.42,5.08,45.92,4.76,67.38.04.39.03.78-.01,1.17-.4,23.24-2.45,45.27-4.39,65.86-3.31,35.25-6.43,68.55-.43,98.9,16.99,61.57,77.36,99.03,149.59,121.67-37.38-29.44-104.4-88.81-110.99-140.54-6.35-49.88,18.66-71.42,35.21-85.67,6.38-5.49,11.89-10.23,12.34-14.06.3-2.97-4.46-15.32-9.06-27.27-20.33-52.78-62.63-162.61-14.61-265.99,22.93-49.37,66.59-78.82,122.92-82.94,70.58-5.16,150.34,30,189.23,82.54,22.14-24.92,115.84-119.61,222.15-71.29,56.29,25.58,95.18,69.88,112.44,128.11,14.97,50.49,13.28,111.16-4.76,170.84-6.84,22.59-19.51,45.49-29.7,63.89-7.58,13.69-17.01,30.73-15.74,34.8.1.05.53.55,1.09,1.2,40.4,47.35,40.28,87.76,33.05,113.33-12.09,42.77-53.29,79.99-122.7,111.01,86.35-20.35,140.13-56.83,172.08-87.7,36.97-35.72,51.95-70.33,56.45-82.71-19.43-7.16-61.46-24.56-62.47-41.36-.52-8.7,2.15-19.95,7-40.38,4.92-20.72,12.36-52.05,20.87-99.76.33-1.86.72-3.61,1.09-5.4.04-.33.1-.66.2-.97,15.92-75.08,64.78-88.53,80.95-90.92,1.22-19.7,3.26-102.05-37.94-193.97-78.4-193.09-371.17-237.15-374.12-237.57-.45-.07-.9-.18-1.32-.36-.73-.29-73.82-29.07-149.47-21.64-62.39,6.13-71.41,47.11-72.71,59.18.97.41,1.95.83,2.99,1.18,2.33.86,4.79,1.51,7.28,2.12,5,1.16,10.21,1.79,15.48,2.1,5.28.37,10.61.16,15.97-.15,2.68-.19,5.34-.52,8.03-.78l8.02-1.2-7.72,2.56c-2.62.72-5.23,1.52-7.88,2.17-5.32,1.24-10.72,2.4-16.24,2.97-5.52.62-11.14.91-16.83.6-2.85-.19-5.71-.44-8.6-.96-1.44-.23-2.89-.56-4.36-.91-.65-.18-1.25-.34-1.87-.52-79.88,29.81-94.05,73.56-96.44,85.26.63.28,1.24.56,1.93.82,2.04.75,4.22,1.39,6.43,1.96,4.44,1.1,9.04,1.88,13.68,2.37,9.3.96,18.8.75,28.18-.58,9.38-1.36,18.64-3.88,27.5-7.51,8.86-3.64,17.28-8.4,25.15-14.01-7.27,6.32-15.26,11.95-23.93,16.52-8.67,4.57-17.96,8.1-27.62,10.46-9.66,2.33-19.67,3.53-29.75,3.46-5.04-.04-10.11-.4-15.19-1.15-2.54-.41-5.09-.88-7.67-1.56-1.3-.35-2.61-.74-3.99-1.26-.16-.06-.31-.13-.47-.19-108.73,79.03-120.91,195.35-114.06,284.83.13.55.17,1.11.13,1.66Z"/>
          <path class="cls-12" d="M846.93,535.82c.51,35.56,30.42,60.68,45.38,71.04-.12-17.95-1.4-36.5-4.7-55.92-3.43-20.18-7.7-45.4-10.34-73.61-11.05,6.98-30.84,24.29-30.35,58.49Z"/>
          <path class="cls-23" d="M887.43,687.25c.15-1.58.3-3.16.44-4.75,1.91-20.28,3.84-40.9,4.34-62.32-12.07-7.28-55.94-36.96-56.62-84.2-.64-44.58,29.66-64.96,40.67-70.89-1.64-22.58-2.06-46.79-.09-71.69-20.7,6.86-76.19,32.11-87.09,108.07-12.51,87.31,30.4,167.37,98.34,185.77Z"/>
          <path class="cls-23" d="M1677.53,557.39c17.75-4.49,56.41-11.69,82.77,2.17,12.26,6.45,20.37,16.6,24.12,30.19,7.13,25.82-6.63,52.36-35.93,69.28-14.59,8.43-33.02,14.05-51.25,14.05-14.55,0-28.94-3.66-41.2-12.26-.98,4.19-1.9,8.06-2.74,11.6-4.61,19.42-7.15,30.12-6.73,37.21.4,6.62,27.78,21.9,58.91,32.94,94.13-10.36,146.45-67.42,140-152.86-7.17-95.05-89.96-105.68-95.04-106.23-4.3.12-54.24,3.12-72.91,73.93Z"/>
          <path class="cls-9" d="M846.92,559.99s10.31-29.45,19.09-42.73c8.78-13.29,12.86-15.44,14.66-16.88,1.8-1.44-2.59-26.57-2.59-26.57l-12.44,6.46s-13.53,18.67-16.1,24.42c-2.56,5.75-7.44,16.16-8.29,18.67-.85,2.51-1.69,10.77-1.69,10.77l7.36,25.86Z"/>
          <g class="cls-15">
            <path class="cls-11" d="M959.66,423.42s38.04-98.36,135.59-106.77c97.55-8.42,162.07,51.55,162.07,51.55l13.02,7.34,15.01,3.83s94.74-82.83,182.53-58.89c87.79,23.94,117.06,100.55,125.84,180.51,8.78,79.96-14.14,121.14-14.14,121.14,0,0,53.16-126.49,18.05-201.1-35.12-74.61-73.16-111.17-121.94-124.53-48.77-13.36-121.45,6.75-148.76,29.73-27.31,22.98-49.9,46.68-49.9,46.68,0,0-18.51-8.98-20.7-10.77s-105.76-99.68-195-65.64c-89.24,34.04-100.21,99.39-100.21,99.39l-1.46,27.53Z"/>
          </g>
          <path class="cls-14" d="M1187.68,634.22l-9.35,13.21s17.89,11.67,52.51,12.03c34.62.36,49.23-18.78,49.62-20.11.39-1.33-25.25-28.65-46.46-28.01-21.21.64-46.33,22.88-46.33,22.88Z"/>
          <path class="cls-14" d="M1183.04,822.74s42.43,12.93,106.33,0c0,0-31.22,20.11-63.89,24.42-32.68,4.31-42.43-24.42-42.43-24.42Z"/>
          <g>
            <path class="cls-1" d="M1720.04,585.25c-24.12,1.01-42.59,11.09-51.38,16.92-3.61,18.43-6.94,33.84-9.85,46.62,22.64,19.13,58.9,15.08,83.93.63,13.52-7.8,26.46-20.3,30.72-35.58-9.84-10.58-28.68-29.64-53.41-28.6Z"/>
            <path class="cls-1" d="M1135.55,83.89c5.28.37,10.61.16,15.97-.15.54-.04,1.08-.1,1.61-.15l-19.07.16c.5.04.99.11,1.49.14Z"/>
            <path class="cls-1" d="M877.28,477.33c-11.05,6.98-30.84,24.29-30.35,58.49.51,35.56,30.42,60.68,45.38,71.04-.12-17.95-1.4-36.5-4.7-55.92-3.43-20.18-7.7-45.4-10.34-73.61Z"/>
            <path class="cls-1" d="M841.25,613.07c23.19,15.61,39.99,23.25,50.08,26.93.39-6.54.72-13.13.88-19.82-12.07-7.28-55.94-36.96-56.62-84.2-.64-44.58,29.66-64.96,40.67-70.89-1.24-17.02-1.77-34.97-1.12-53.44-5.68,2.65-14.77,7.45-28.21,16.06-25.8,16.53-54.93,60.96-55.73,62.19-.8,3.66-1.51,7.43-2.08,11.36,5.33,27.06,20.86,90.75,52.14,111.8Z"/>
            <path class="cls-1" d="M1737.6,700.16c50.99-5.8,89.08-43.74,104.57-61.8,3.45-14.94,4.63-31.2,3.31-48.67-.47-6.17-1.26-11.97-2.33-17.45-35.47-71.8-116.03-82.2-116.6-82.27-10.6,5.1-22.95,14.2-33.37,30.46,6.16,10.29,51.45,7.23,77.1,27.95,20.57,16.61,19.56,44.07,15.7,59.94-1.97,19.43-15.23,37.85-37.5,50.7-14.59,8.43-33.02,14.05-51.25,14.05-14.55,0-28.94-3.66-41.2-12.26-.98,4.19-1.9,8.06-2.74,11.6-.75,3.17-1.43,6.02-2.06,8.75,9.79,8.45,35.78,24.75,86.37,19Z"/>
            <path class="cls-1" d="M965.85,683.76c2.31-2.11,4.57-4.06,6.69-5.88,6.38-5.49,11.89-10.23,12.34-14.06.3-2.97-4.46-15.32-9.06-27.27-4.37-11.34-9.75-25.33-15.03-41.31,2.12,18.13,3.47,36.8,3.75,55.57.17,11.36.58,22.34,1.32,32.94Z"/>
            <path class="cls-1" d="M902.5,416.71c3.8-11.58,21.57,20.93,37.13,74.16-2.11-38.57,2.83-79.93,21.59-120.31,22.93-49.37,66.59-78.82,122.92-82.94,70.58-5.16,150.34,30,189.23,82.54,22.14-24.92,115.84-119.61,222.15-71.29,56.29,25.58,95.18,69.88,112.44,128.11,14.97,50.49,13.28,111.16-4.76,170.84-6.84,22.59-19.51,45.49-29.7,63.89-7.58,13.69-17.01,30.73-15.74,34.8.1.05.53.55,1.09,1.2,13.51,15.83,22.47,30.88,28.16,44.86,0,0,0,0,0-.01,34.99-53.89,65.23-239.67,80.35-262.17,15.12-22.5,60.48-34.47,60.48-34.47l6.6,29.41h0c4.38-1.32,8.14-2.07,10.92-2.48.68-10.99,1.61-41.48-4.85-82.24-11.18-33.26-32.7-88.21-65.83-136.21-51.64-74.82-189.73-154.65-265.82-172.64-76.09-17.99-141.44-45.22-181.44-46.17-39.99-.96-86.09,16.04-91.69,28.97-5.55,12.81,17.12,18.93,17.51,19.03,2.09-.19,4.19-.42,6.29-.62l8.02-1.2-7.72,2.56c-2.62.72-5.23,1.52-7.88,2.17-5.32,1.24-10.72,2.4-16.24,2.97-5.52.62-11.14.91-16.83.6-1.21-.08-2.42-.18-3.63-.3,0,0,0,0-.01,0-10,3.9-76.09,54.75-81.21,66.21-5.12,11.46.98,19.42.98,19.42l-.68,3.01c7.8.48,15.7.19,23.52-.92,9.38-1.36,18.64-3.88,27.5-7.51,8.86-3.64,17.28-8.4,25.15-14.01-5.43,4.73-11.28,9.07-17.51,12.87,0,.04-2.25,15.55-42.98,27.74-40.79,12.21-66.21,4.31-66.39.18,0-.04.03-.08.03-.12-91.83,78.3-102.26,186.25-95.81,270.44.13.55.17,1.11.13,1.66,2.46,30.98,7.16,58.67,10.84,80.37,3.98,23.42,5.08,45.92,4.76,67.38.04.39.03.78-.01,1.17-.15,8.73-.58,17.24-1.1,25.61,0,0,.05,0,.05,0l-.07.26c-.87,13.82-2.07,27.21-3.27,39.98-.88,9.33-1.72,18.51-2.41,27.54.36-1.11,22.42-69.86,21.93-96.77-.49-27.13-23.11-176.52-16.19-197.58Z"/>
            <path class="cls-1" d="M896.73,711.37c-1.29,17.19-1.9,33.81-.75,49.75l.75-49.75Z"/>
            <path class="cls-1" d="M980.02,686.25c-4.1,3.53-8.6,7.43-12.91,12.02,10.85,102.53,61.21,166.29,263.73,180.49,216.52,15.18,308.51-69.53,348.31-124.73-4.92-14.94-13.91-31.47-29.01-49.17-.66-.77-1.16-1.36-1.49-1.77-6.49-8.11,1.55-22.64,14.87-46.7,9.93-17.94,22.29-40.27,28.79-61.75,29.36-97.14,20.39-230.25-101.57-285.67-113.11-51.41-212.36,72.51-213.34,73.77-1.13,1.43-2.85,2.27-4.72,2.16-1.83-.07-3.52-1.01-4.53-2.53-34.39-51.91-114.87-88.64-183.19-83.65-36.8,2.69-86.35,18.14-113.44,76.46-46.07,99.16-4.89,206.06,14.89,257.43,7.19,18.68,10.35,27.16,9.72,32.48-.95,8.09-7.98,14.14-16.12,21.15Z"/>
            <g class="cls-18">
              <path class="cls-4" d="M902.45,643.28c0,.09-.01.18-.02.27l.07-.26s-.04,0-.05,0Z"/>
            </g>
            <path class="cls-13" d="M841.25,613.07c-31.28-21.05-46.81-84.74-52.14-111.8-.01.07-.02.14-.04.21-12.51,87.31,30.4,167.37,98.34,185.77.15-1.58.3-3.16.44-4.75,1.31-13.95,2.6-28.08,3.46-42.5-10.08-3.69-26.88-11.32-50.08-26.93Z"/>
            <path class="cls-9" d="M1754.95,569.38c-25.86-13.62-68.39-3.04-80.18.31-.15.8-.33,1.55-.47,2.36-1.94,10.89-3.83,20.86-5.64,30.12,8.8-5.84,27.27-15.91,51.38-16.92,24.73-1.04,43.57,18.01,53.41,28.6,1.84-6.6,2.09-13.7.02-21.19-2.95-10.65-9-18.27-18.52-23.28Z"/>
            <path class="cls-14" d="M1230.85,878.76c-202.52-14.2-252.88-77.96-263.73-180.49-12.1,12.9-22.67,31.43-18.53,63.9,7.89,61.97,116.14,140.75,129.58,150.3,133.81,33.6,291.94,23.84,294.59,23.66,13.63-.92,26.7-2.2,39.22-3.8,98.27-33.39,155.13-75.2,168.99-124.27,3.86-13.67,5.4-32.14-1.81-54.03-39.8,55.2-131.79,139.91-348.31,124.73Z"/>
            <path class="cls-13" d="M898.73,782.42c16.99,61.57,77.36,99.03,149.59,121.67-37.38-29.44-104.4-88.81-110.99-140.54-5.54-43.5,26.08-65.21,41.83-79.56-.74-10.6-.81-21.81-.98-33.17-.28-18.78-15.29-37.44-17.41-55.57-9.7-29.33-19.03-65.42-21.16-104.36-15.56-53.24-18.11-88.08-21.91-76.5-6.92,21.07.98,153.62.98,199.92,0,41.82-22.95,123.96-23.31,125.07,0,.1,1.37-28.1,1.36-28l-.75,49.75c.53,7.24,1.37,14.36,2.75,21.31Z"/>
            <path class="cls-13" d="M1727.85,445.92s-45.36,11.97-60.48,34.47c-15.12,22.5-45.36,208.28-80.35,262.17,0,0,0,0,0,.01,11.34,27.84,9.7,51.45,4.89,68.46-12.09,42.77-53.29,79.99-122.7,111.01,86.35-20.35,140.13-56.83,172.08-87.7,36.97-35.72,51.95-70.33,56.45-82.71-19.43-7.16-61.46-24.56-62.47-41.36-.52-8.7,2.15-19.95,7-40.38,4.92-20.72,12.36-52.05,20.87-99.76.33-1.86.72-3.61,1.09-5.4.04-.33.1-.66.2-.97,13.18-62.18,48.94-82.07,70.03-88.44h0l-6.6-29.41Z"/>
            <path class="cls-13" d="M1705.48,742.56c74.88-8.25,123.27-46.07,136.69-104.2-15.48,18.06-53.58,56-104.57,61.8-50.59,5.76-76.57-10.54-86.37-19-3.27,13.99-5.02,22.52-4.66,28.46.4,6.62,27.78,21.9,58.91,32.94Z"/>
            <path class="cls-13" d="M1770.28,548.38c-25.65-20.72-70.94-17.66-77.1-27.95-6.16,9.61-11.63,21.7-15.65,36.96,17.75-4.49,56.41-11.69,82.77,2.17,12.26,6.45,20.37,16.6,24.12,30.19,1.71,6.2,2.19,12.43,1.57,18.57,3.85-15.87,4.87-43.33-15.7-59.94Z"/>
            <path class="cls-13" d="M1050.01,196.58c40.74-12.19,42.98-27.71,42.98-27.74-2.1,1.28-4.24,2.5-6.42,3.65-8.67,4.57-17.96,8.1-27.62,10.46-9.66,2.33-19.67,3.53-29.75,3.46-5.04-.04-10.11-.4-15.19-1.15-2.54-.41-5.09-.88-7.67-1.56-1.3-.35-2.61-.74-3.99-1.26-.16-.06-.31-.13-.47-.19-6.42,4.67-12.48,9.47-18.24,14.39,0,.04-.03.09-.03.12.18,4.13,25.61,12.03,66.39-.18Z"/>
            <g class="cls-15">
              <path class="cls-11" d="M846.92,427.72c13.45-8.61,22.53-13.42,28.21-16.06.21-6.03.55-12.12,1.03-18.25-19.61,6.5-70.41,29.53-84.98,96.5.8-1.23,29.94-45.66,55.73-62.19Z"/>
            </g>
            <g class="cls-15">
              <path class="cls-11" d="M1034.04,155.97c5.12-11.46,71.21-62.31,81.21-66.21,0,0,0,0,.01,0-1.65-.16-3.3-.36-4.97-.66-1.44-.23-2.89-.56-4.36-.91-.65-.18-1.25-.34-1.87-.52-79.88,29.81-94.05,73.56-96.44,85.26.63.28,1.24.56,1.93.82,2.04.75,4.22,1.39,6.43,1.96,4.44,1.1,9.04,1.88,13.68,2.37,1.55.16,3.11.24,4.66.33l.68-3.01s-6.1-7.96-.98-19.42Z"/>
            </g>
            <g class="cls-15">
              <path class="cls-11" d="M1843.15,572.24c-15.28-78.92-87.97-88.26-92.72-88.78-1.8.05-11.67.63-23.88,6.51.57.07,81.13,10.47,116.6,82.27Z"/>
            </g>
            <g class="cls-15">
              <path class="cls-11" d="M1707.42,278.87c-28.63-70.52-85.86-121.14-147.12-157.04-10.42-11.64-26.65-23.5-46.4-32.92-21.49-10.25-42.7-15.46-59.09-15.55-66.96-23.87-120.25-31.89-121.5-32.07-.45-.07-.9-.18-1.32-.36-.73-.29-73.82-29.07-149.47-21.64-62.38,6.13-71.41,47.11-72.71,59.18.97.41,1.95.83,2.99,1.18,2.33.86,4.79,1.51,7.28,2.12,4.53,1.05,9.23,1.62,13.99,1.96l19.07-.16s.08,0,.13-.01c-.4-.11-23.07-6.22-17.52-19.03,5.6-12.93,51.69-29.93,91.69-28.97,40,.96,105.35,28.19,181.44,46.17,5.28,1.25,10.88,2.82,16.71,4.64-6.31,17.1,19,45.21,58,63.81,36.66,17.48,72.57,20.43,84.89,7.89,43.74,29.24,83.41,63.25,106.22,96.3,33.13,48,54.65,102.95,65.83,136.21-5.12-32.32-14.87-71.08-33.09-111.73Z"/>
            </g>
            <g class="cls-15">
              <ellipse class="cls-11" cx="1408.34" cy="133.04" rx="9.12" ry="15.4" transform="translate(650.48 1327.51) rotate(-63)"/>
            </g>
          </g>
          <g>
            <path class="cls-21" d="M1309.83,955.94c-124.19,0-387.32-18.14-428.68-168.95-.08-.29-.15-.57-.2-.86-6.57-32.98-3.32-67.61.12-104.28,3.82-40.71,7.78-82.81-.19-129.72-14.93-87.93-45.84-270.05,109.09-383.63,3.68-17.07,21.04-63.73,102.45-95.75,3.52-19.55,19.12-64.63,88.3-71.42,75.13-7.35,145.49,18.05,156.62,22.31,25.53,3.87,306.67,50.8,386.85,248.29,39.59,88.32,40.86,166.86,39.67,195.72,27.56,6.58,93.01,31.53,99.73,120.7,7.12,94.29-48.59,157.87-149.42,171.37-13.42,36.23-81.93,177.07-340.19,194.44h0c-4.01.27-28.3,1.78-64.15,1.78ZM1373.14,941.69h.05-.05ZM905.38,780.8c48.48,174.31,462.75,148.7,466.93,148.41,142.35-9.57,221.9-59.24,263.57-99.23,44.93-43.12,56.76-84.6,56.87-85.02,1.37-4.96,5.64-8.61,10.75-9.15,43.6-4.58,144.04-27.95,135.17-145.59-6.88-91.18-85.77-99.58-89.13-99.89-3.33-.31-6.43-1.95-8.55-4.55-2.12-2.6-3.13-5.94-2.76-9.27.1-.89,9.17-91.72-37.02-194.79-76.98-189.59-365.94-233.16-368.85-233.58-.98-.14-1.95-.4-2.87-.77-.72-.29-72.39-28.44-146.32-21.19-64.13,6.29-66.68,50.61-66.76,55.64-.08,5.18-3.34,9.87-8.21,11.65-89.26,32.64-94.08,80.87-94.25,82.91-.29,3.69-2.22,7.24-5.24,9.39-146.97,104.25-117.4,278.43-103.19,362.14,8.52,50.16,4.22,95.9.43,136.25-3.25,34.62-6.32,67.33-.58,96.62Z"/>
            <path class="cls-21" d="M1413.24,950.3c-5.21,0-10.07-3.28-11.84-8.49-2.22-6.54,1.29-13.64,7.83-15.85,95.36-32.31,152.53-73.92,165.31-120.32,8.39-30.47-1.83-63.75-29.56-96.24-.72-.84-1.27-1.49-1.62-1.94-9.42-11.77-.53-27.84,14.21-54.46,9.77-17.66,21.94-39.63,28.21-60.39,29.92-98.97,19.93-223.79-97.82-277.31-108.08-49.12-204.27,70.55-205.23,71.77-2.48,3.14-6.27,4.92-10.33,4.75-4-.17-7.69-2.24-9.9-5.58-33.24-50.17-111.2-85.56-177.38-80.58-34.86,2.62-81.79,17.33-107.41,72.48-44.81,96.46-4.36,201.48,15.08,251.96,7.82,20.31,10.96,28.83,10.14,35.83-1.27,10.79-9.63,17.99-18.49,25.62-15.24,13.12-34.21,29.45-29.08,69.74,6.62,51.96,94.68,123.34,128.05,146.46,5.67,3.93,7.09,11.72,3.16,17.39-3.93,5.68-11.71,7.09-17.39,3.16-5.27-3.65-129.25-90.22-138.62-163.85-6.83-53.62,20.97-77.55,37.57-91.84,3.64-3.13,8.52-7.34,9.81-9.49-.77-3.99-4.85-14.59-8.49-24.02-20.68-53.68-63.71-165.39-14.42-271.47,23.97-51.6,69.5-82.45,128.2-86.87,69.94-5.24,148.68,28,190.54,78.82,30.34-32.07,121.47-113.84,224.52-67,132.59,60.26,142.89,203.2,111.41,307.3-7.05,23.31-19.92,46.57-30.27,65.26-5.52,9.96-12.85,23.21-14.55,29.11,41.26,48.95,41.16,91.18,33.76,118.06-15.3,55.54-76.33,101.76-181.39,137.36-1.33.45-2.68.66-4.01.66Z"/>
            <path class="cls-21" d="M1112.64,724.75c25.4,43.95,77.89,62.2,126.38,63.01,60.4,1.67,110.91-19.84,145.91-70.38,2.11-3.05,7.24-.25,5.75,3.19-5.1,13.28-12.34,26.5-21.7,38.09-30.64,39.07-82.25,55.62-130.61,53.97-26.13-1.17-52.81-5.88-76.06-18.35-26.98-13.81-49.8-37.06-58.35-66.58-1.43-5.58,6.35-8.21,8.69-2.95h0Z"/>
            <path class="cls-21" d="M1176.34,650.82c3.45-26.65,24.18-53.74,52.41-56.68,29.38-3.24,54.8,24.06,56.6,51.66-10.12-8.1-19.28-15.28-28.45-20.32-30.26-18.92-56.2,7.64-80.56,25.35h0Z"/>
            <path class="cls-21" d="M1009.7,564.18c8.8-35.85,32.15-78.09,72.7-83.63,43.63-3.2,70.09,42.77,76.4,79.71.44,2.56-1.29,5-3.85,5.44-2.08.36-4.02-.7-4.97-2.44-51.02-84.64-81.66-69.49-134.76,3.27-1.72,2.81-6.37.83-5.53-2.34h0Z"/>
            <path class="cls-21" d="M1352.76,570.33c14.71-36.64,38.05-83,81.76-89.9,47.74-2.73,71.38,50.5,77.8,89.67.45,2.54-1.25,4.96-3.79,5.41-2.42.43-4.71-1.1-5.33-3.41-2.84-8.7-6.65-17.52-10.95-25.67-22.15-44.49-60.31-58.32-97.06-17.49-12.26,13.45-22.77,29.75-31.07,46.36-3.51,6.87-14,2.31-11.35-4.97h0Z"/>
            <path class="cls-21" d="M1704.81,760.75c-1.37,0-2.76-.23-4.13-.71-32.29-11.3-71.03-29.04-72.24-49.36-.58-9.73,2.17-21.35,7.18-42.43,4.9-20.65,12.31-51.85,20.79-99.37,18.2-101.96,93.43-103.5,94.18-103.51h.06c6.88,0,12.46,5.56,12.5,12.44.03,6.9-5.54,12.53-12.44,12.56-2.15.05-55.28,2.16-69.7,82.9-8.61,48.21-16.11,79.83-21.08,100.75-4.06,17.11-6.61,27.82-6.58,34.06,4.48,6.34,29.88,19.34,55.58,28.35,6.51,2.28,9.94,9.41,7.66,15.93-1.8,5.15-6.64,8.37-11.8,8.37Z"/>
            <path class="cls-21" d="M1697.18,680.07c-19.16,0-38.21-5.8-53.28-20.22-4.99-4.77-5.17-12.68-.39-17.67,4.76-4.99,12.68-5.17,17.67-.39,20.42,19.53,55.33,15.29,79.25.99,8.01-4.79,33.6-22.41,26.46-48.24-2.38-8.6-7.22-14.77-14.81-18.85-22.77-12.24-64.29-3.04-78.36,1.55-6.56,2.13-13.62-1.44-15.76-8-2.14-6.56,1.43-13.61,7.98-15.76,2.48-.81,61.02-19.63,97.93.16,13.76,7.38,22.88,18.9,27.12,34.24,7.87,28.49-6.59,57.74-37.74,76.36-15.87,9.48-36.04,15.83-56.07,15.83Z"/>
            <path class="cls-21" d="M892.49,706.71c-.85,0-1.72-.09-2.59-.27-80.86-17.02-133.05-108.17-118.81-207.5,14.97-104.4,108.08-125.2,109.02-125.4,6.76-1.43,13.39,2.9,14.81,9.65,1.42,6.74-2.88,13.36-9.61,14.8h0c-3.14.69-77.03,17.76-89.47,104.49-12.38,86.34,31.2,165.18,99.21,179.49,6.76,1.42,11.08,8.05,9.66,14.81-1.24,5.89-6.43,9.93-12.22,9.93Z"/>
            <path class="cls-21" d="M897.9,629.53c-2,0-4.03-.48-5.91-1.5-2.55-1.37-62.4-34.28-63.23-91.95-.85-58.94,46.92-78.56,48.95-79.37,6.4-2.55,13.68.59,16.23,7.01,2.55,6.42-.59,13.68-7.01,16.23-1.3.54-33.77,14.43-33.17,55.77.62,42.88,49.62,70.04,50.11,70.31,6.05,3.29,8.31,10.87,5.03,16.94-2.26,4.18-6.56,6.56-11,6.56Z"/>
            <path class="cls-21" d="M1012.49,169.67c-.79-1.48-2-2.98-3.52-3.75,14.24,6.99,31.81,7.5,47.73,5.97,18.22-2.1,35.74-8.99,50.99-19.43,4.49-3.19,9.75,3.34,5.6,7.03-22.76,20.92-53.35,33.06-84.46,33.23-11.01-.16-22.62-.6-32.84-5.67-8.88-4.8-9.54-17.51-.44-22.45,6.08-3.28,13.66-1.01,16.93,5.07h0Z"/>
            <path class="cls-21" d="M1109.77,70.72c16.02,9.8,38.28,9.15,57,7.2,4.54-.5,6.07,6.11,1.81,7.67,0,0-7.83,2.97-7.83,2.97-19.85,6.56-42.17,11.28-62.69,4.25-14.36-8.09-3.05-29.44,11.71-22.09h0Z"/>
          </g>
        </g>
        <g>
          <path class="cls-23" d="M872.34,1456.26c-5.71-8.5-12.06-21.37-19.4-36.27-32.85-66.61-87.9-178.12-208.21-161.43-93.92,13-148.94,67.13-161.8,115-6.74,25.09-1.42,47.12,14.24,58.94,24.05,18.16,51.69-.43,83.69-21.96,29.17-19.62,59.36-39.91,92.12-35.65,51.69,6.72,103.52,66.77,154.05,178.5,29.41,65.03,75.17,84.37,143.67,60.57l-4.1-118.4c-17.59,1.03-67.72.18-94.25-39.31Z"/>
          <path class="cls-11" d="M1479.18,1111.37c-7.33-9.13-25.55-28.97-38.18-30.93-10.39-1.61-116.12,1.77-205.18,5.03v84.13l75.44,41.5c1.72.95,2.81,2.7,2.89,4.63l4.88,117.9c34.03-.68,72.8-1.5,116.36-2.47,8.4-.19,13.93-.31,15.68-.34,4.64-1.45,25.04-13.23,28.16-30.83,1.15-6.5,1.6-27.36,1.65-53.88,0-.03,0-.06,0-.09v-13.63c-.11-40.04-.95-88.63-1.68-121.01ZM1385.3,1208.59c-23.3,0-42.25-18.6-42.25-41.47s18.95-41.48,42.25-41.48,42.25,18.61,42.25,41.48-18.96,41.47-42.25,41.47Z"/>
          <path class="cls-11" d="M1307.69,1333.83c-100.35,2-156.35,2.55-166.8,1.8-17.5-1.35-34.1-29-39.65-40.8-2.35-63.5-4.3-161.25-.25-173.1,3.6-10.7,26.55-25.4,40.95-32.65,20.8-.85,50.2-2,82.55-3.2v87c0,2,1.1,3.85,2.9,4.85l75.55,41.55,4.75,114.55Z"/>
          <path class="cls-11" d="M1490.39,1301.89c-4.26,24.06-32.63,40.04-38.75,40.04-.56,0-6.36.13-16,.35-45.84,1.02-86.42,1.88-121.76,2.57-.02,0-.04,0-.07,0-.08,0-.16,0-.23,0-.02,0-.04,0-.06,0-74.47,1.46-125.48,2.2-152.53,2.2-10.84,0-17.83-.12-20.97-.36-28.41-2.15-48.77-46.41-49.62-48.3-.29-.65-.46-1.35-.48-2.06-.13-3.54-.47-13.07-.87-25.99l-118.76,4.18,11.69,337.77c.96.62,1.74,1.51,2.18,2.64.92,2.36.08,4.94-1.87,6.4l2.09,60.36c22.74,3.74,132.28,19.32,273.15-.29.61-6.11,1.36-11.07,2.33-14.49,6-21.19,30.09-58.79,40.2-74.01-1.98.03-3.97.06-5.94.06-112.98,0-202.57-46.12-203.81-46.78-2.76-1.45-3.8-4.82-2.32-7.53,1.47-2.71,4.91-3.74,7.67-2.29,1.69.89,171,87.9,335.22,18.95,2.89-1.21,6.21.1,7.44,2.93,1.23,2.83-.1,6.1-2.98,7.31-39.54,16.6-79.35,24.44-117.16,26.69,14.82,20.83,58.36,82.91,61.69,97.96.58,2.64,1.1,7.31,1.54,13.32,31.35,2.5,209,14.95,293.06-15.78v-22.93c0-2.76-.49-277.43-21.59-382.93-2.06-10.28-4.25-20.4-6.52-30.32h-154.18c-.11,24.13-.6,43.6-1.79,50.31Z"/>
          <path class="cls-11" d="M1876.97,929.86c-49.99-29.18-233.86-42.42-252.09-43.66-11.16,5.06-88.6,38.98-199.39,59.38-109.63,20.17-275.33,30.91-443.48-32.04l-142.65,84.2c9.76,23.44,49.69,132.79-7.69,229,6.26.19,12.3.23,18.04.17,49.69-.58,81.85-14.74,90.97-19.31v-25.4c0-3.07,2.54-5.57,5.67-5.57h14.61c-.58-23.59.05-111.44,38.29-165.2,1.79-2.53,5.33-3.13,7.89-1.38,2.57,1.76,3.2,5.23,1.4,7.75-36.01,50.61-36.68,136.79-36.22,158.83h115c-.03-28.17.67-51.92,2.89-58.44,6.41-18.88,43.51-37.54,47.72-39.61.72-.35,1.5-.55,2.3-.58,11.58-.47,283.66-11.48,302.54-8.55,20.21,3.13,43.92,33.19,46.56,36.61.72.93,1.12,2.07,1.15,3.24.06,2.7.66,29.07,1.14,61.59h133.44c-15.06-50.66-28.27-84.78-28.48-85.33-.63-1.62-.46-3.42.46-4.9.92-1.47,2.49-2.45,4.24-2.63,8.07-.83,195.09-19.59,293.46,8.07,5.75-25.69,26.15-130.6-17.76-156.23Z"/>
          <path class="cls-11" d="M984.77,1693.05l2.1,60.72c10.81-2.5,32.38-5.49,57.66,1.97,3,.88,4.7,3.99,3.8,6.93-.9,2.95-4.08,4.61-7.06,3.73-31.14-9.17-56.19-.69-57.7-.17-1.25.53-36.07,15.76-45.21,43.59-4.56,13.86-1.96,28.87,7.7,44.62,15.04,24.51,68.49,40.38,136.18,40.44h.38c77.5,0,146.2-20.17,163.76-48.07,6-13.54,7.31-62.84,8.35-102.5.51-19.42.99-37.35,1.89-51.54-51.63,7.06-99.13,9.49-139.67,9.49-66.87,0-114.95-6.48-132.18-9.2Z"/>
          <path class="cls-11" d="M1674.47,1699.57c-46.13,15.7-115.14,19.87-175.27,19.87-53.66,0-100.19-3.3-117.1-4.67,1.28,24.79,1.88,60.64,2.13,80.99,23.4-16.91,89.72-52.07,202.82-15.57,2.97.96,4.59,4.11,3.61,7.03-.97,2.92-4.16,4.53-7.16,3.55-122.58-39.55-188.23,9.9-199.12,19.2,0,.63,0,1.13.01,1.33,0,.28,1.23,36.37,31.29,63.29,25.73,23.04,64.63,32.99,115.56,29.6,143.18-9.56,143.3-102.43,143.23-106.38v-98.23Z"/>
          <path class="cls-11" d="M1083.33,1187.76h-131.33v23.16c0,.31-.04.62-.09.91,0,.04,0,.09,0,.13-4.53,23.25-6.25,46.07-4.07,52.22l135.5-4.77v-71.66Z"/>
          <path class="cls-11" d="M828.27,1000.54l-181.17-24.82c-7.8,20.46-39.99,115.63,10.9,174.12,50.15,57.64,111.19,72.92,160.77,76.25,60.82-95.4,17.41-207.09,9.49-225.56Z"/>
          <path class="cls-11" d="M1492.2,1236.52c0,1.32,0,2.62,0,3.92h151.54c-4.98-20.8-10.26-40.5-15.43-58.43h-136.11v54.51Z"/>
          <path class="cls-2" d="M1643.62,1182.01h-3.53c2.02,7.06,4.05,14.37,6.07,21.91l-2.53-21.91Z"/>
          <path class="cls-20" d="M1385.3,1136.77c-17.04,0-30.91,13.61-30.91,30.35s13.86,30.34,30.91,30.34,30.91-13.61,30.91-30.34-13.87-30.35-30.91-30.35Z"/>
          <rect class="cls-11" x="1153.19" y="1263.18" width="83.05" height="23.35"/>
          <path class="cls-22" d="M1385.3,1125.64c-23.3,0-42.25,18.61-42.25,41.48s18.95,41.47,42.25,41.47,42.25-18.6,42.25-41.47-18.96-41.48-42.25-41.48ZM1385.3,1197.45c-17.04,0-30.91-13.61-30.91-30.34s13.86-30.35,30.91-30.35,30.91,13.61,30.91,30.35-13.87,30.34-30.91,30.34Z"/>
          <g class="cls-18">
            <path class="cls-4" d="M994.27,917.98s109.78,81.51,313.42,69.06c203.64-12.45,287.53-94.8,287.53-94.8,0,0-305.43,121.87-600.95,25.74Z"/>
          </g>
          <g>
            <path class="cls-1" d="M959.69,1839.31c34.39,22.9,185.83,25.38,215.09,6.7,22.91-14.62,39.68-95,41.16-148.54-35.96,3.46-69.35,4.78-98.98,4.78-66.87,0-114.95-6.48-132.18-9.2l2.1,60.72c10.81-2.5,32.38-5.49,57.66,1.97,3,.88,4.7,3.99,3.8,6.93-.9,2.95-4.08,4.61-7.06,3.73-31.14-9.17-56.19-.69-57.7-.17-1.17.5-31.99,13.99-43.28,38.72-.55,10.67,3.21,23.59,19.39,34.36Z"/>
            <path class="cls-1" d="M952.01,1210.92c0,.31-.04.62-.09.91,0,.04,0,.09,0,.13-.99,5.07-1.83,10.1-2.54,14.96h125.06v-39.17h-122.42v23.16Z"/>
            <path class="cls-1" d="M861.51,1126.92c50.7-5.43,93.3-19.23,93.3-19.23l12-10.04c5.22-29.58,14.84-61.51,32.43-86.23,1.79-2.53,5.33-3.13,7.89-1.38,2.57,1.76,3.2,5.23,1.4,7.75-36.01,50.61-36.68,136.79-36.22,158.83h115c-.03-28.17.67-51.92,2.89-58.44,6.41-18.88,43.51-37.54,47.72-39.61.72-.35,1.5-.55,2.3-.58,11.58-.47,283.66-11.48,302.54-8.55,20.21,3.13,43.92,33.19,46.56,36.61.72.93,1.12,2.07,1.15,3.24.06,2.7.66,29.07,1.14,61.59h104.17c-21.28-90.6-55.37-155.49,22.61-145.78,51.05,6.36,233.16,33.33,280.41,40.34,6.94-40.23,14.2-114.57-21.82-135.59-49.99-29.18-233.86-42.42-252.09-43.66-11.16,5.06-88.6,38.98-199.39,59.38-109.63,20.17-275.33,30.91-443.48-32.04l-142.65,84.2c6.4,15.39,25.81,67.79,22.16,129.19Z"/>
            <path class="cls-1" d="M1502.81,1182.01c.65,8.47,2.05,24.24,3.64,26.57,1.73,2.53,89.94-2.02,128.05-4.35-2.06-7.64-4.13-15.1-6.18-22.22h-125.51Z"/>
            <path class="cls-1" d="M1480.87,1246.11s0-.06,0-.09v-13.63c-.11-40.04-.95-88.63-1.68-121.01-7.33-9.13-25.55-28.97-38.18-30.93-10.39-1.61-116.12,1.77-205.18,5.03v84.13l75.44,41.5c1.72.95,2.81,2.7,2.89,4.63l4.88,117.9c3.96-.08,7.99-.16,12.07-.24l-5.36-107.4,147.42-1.93s.01,68.6-3.66,82.95c-2.07,8.1-12.29,17.34-20.8,23.86,1.06-.02,1.87-.04,2.36-.05,4.64-1.45,25.04-13.23,28.16-30.83,1.15-6.5,1.6-27.36,1.65-53.88Z"/>
            <path class="cls-1" d="M1141.92,1089.07c-14.38,7.23-37.33,21.96-40.96,32.64-4.03,11.88-2.07,109.61.25,173.14,5.56,11.77,22.18,39.44,39.68,40.76,10.47.79,66.46.19,166.79-1.76l-.54-12.96c-26.98.66-156.13,3.7-163.34,1.55-8.05-2.39-27.31-23.62-28.78-30.36-1.46-6.75-2.19-138.42-2.19-138.42,0,0,4.63,5.51,6.58,10.77,1.95,5.27,9.27,42.61,16.83,49.8,6.72,6.38,137.89,10.7,166.96,11.58l-.27-6.53-75.58-41.57c-1.79-.99-2.9-2.84-2.9-4.86v-86.97c-32.34,1.2-61.75,2.34-82.55,3.19Z"/>
            <path class="cls-1" d="M733.86,1107.7c30.76,20.43,75.23,23.51,116.23,20.29,4.18-62.15-16.58-115.22-21.83-127.45l-181.17-24.82c-2.45,6.42-7.29,20.18-11.22,37.85,12.22,17.76,43.56,57.97,97.98,94.12Z"/>
            <path class="cls-1" d="M535.35,1395.47c47.8-15.81,107.3-81.41,180.46-49.81,73.16,31.6,122.42,186.25,159.98,211.15,37.56,24.9,86.33-12.93,78.04-35.43-5.34-14.49-11.1-22.8-14.54-26.9-13.78-1.89-29.83-6.28-44.19-15.74-7.83-2.17-19.58-7.19-30.29-17.7-19.02-18.67-51.76-101.52-101.14-155.39-49.38-53.87-176.87-27.39-192.6.26-12.05,21.18-59.91,41.71-81.66,50.17-2.76,5.86-4.94,11.71-6.48,17.47-2.44,9.09-3.28,17.78-2.63,25.73,7.74,3.4,24.12,6.42,55.06-3.82Z"/>
            <path class="cls-1" d="M1646.11,1203.49l-2.48-21.48h-3.53c1.98,6.92,3.97,14.1,5.95,21.48.02,0,.04,0,.06,0Z"/>
            <path class="cls-1" d="M1381.41,1703.54c24.2,1.93,135.51,9.77,223.72-.87,13.8-49.3-17.72-427.82-17.72-427.82l-95.38-6.83c-.24,16.29-.74,28.78-1.64,33.88-2.37,13.41-12.24,24.3-21.56,31.32-5.87,13.3-17.63,34.13-34.69,37.35-25.36,4.79-309.71,7.66-334.1,3.35-24.39-4.31-24.29-85.35-28.68-85.35-3.76,0-79.08,2.58-100.47,3.32l11.09,320.43c.96.62,1.74,1.51,2.18,2.64.92,2.36.08,4.94-1.87,6.4l2.09,60.36c20.45,3.36,111.12,16.29,231.63,4.59-.16-10.08-.99-18.77-2.57-25.23-9.88-40.22-34.02-43.45-65.11-63.56-31.09-20.11-51.91-48.35-51.91-48.35,1.66.81,3.41,1.6,5.25,2.39-7.1-3.16-11.1-5.21-11.36-5.35-2.76-1.45-3.8-4.82-2.32-7.53,1.47-2.71,4.91-3.74,7.67-2.29,1.69.89,171,87.9,335.22,18.95,2.89-1.21,6.21.1,7.44,2.93,1.23,2.83-.1,6.1-2.98,7.31-39.54,16.6-79.35,24.44-117.16,26.69,14.82,20.83,58.36,82.91,61.69,97.96.58,2.64,1.1,7.31,1.54,13.32Z"/>
            <path class="cls-1" d="M1498.03,1865.04c57.8-5.75,85.23-19.03,100.96-41.66,11.96-17.21-3.79-28.28-12.02-32.59-1.09.34-2.3.36-3.47-.02-122.58-39.55-188.23,9.9-199.12,19.2,0,.63,0,1.13.01,1.33,0,.14.36,9.75,4.74,22.69,19.98,11.94,65.5,35.37,108.9,31.05Z"/>
            <path class="cls-1" d="M1599.91,1714.56c-32.8,3.64-68.05,4.89-100.71,4.89-53.66,0-100.19-3.3-117.1-4.67,1.28,24.79,1.88,60.64,2.13,80.99,13.78-9.96,42.46-26.23,86.81-30.49,46.62-13.39,108.12-17.04,128.87-50.73Z"/>
            <g class="cls-17">
              <path class="cls-21" d="M733.86,1107.7c-54.42-36.15-85.76-76.36-97.98-94.12-8.6,38.69-12.81,96.12,22.12,136.27,50.15,57.64,111.19,72.92,160.77,76.25,20.56-32.26,29.19-66.37,31.32-98.12-41,3.22-85.48.15-116.23-20.29Z"/>
            </g>
            <g class="cls-17">
              <path class="cls-21" d="M949.37,1226.93c-2.54,17.43-3.23,32.45-1.53,37.26l135.5-4.77v-71.66h-8.9v39.17h-125.06Z"/>
            </g>
            <g class="cls-17">
              <path class="cls-21" d="M1474.5,1307c3.67-14.35,3.66-82.95,3.66-82.95l-147.42,1.93,5.36,107.4c31.05-.63,65.79-1.37,104.29-2.23,6.05-.14,10.59-.24,13.32-.29,8.51-6.52,18.73-15.76,20.8-23.86Z"/>
            </g>
            <g class="cls-17">
              <path class="cls-21" d="M861.51,1126.92c-1.91,32.14-10.14,66.75-29.85,99.8,6.26.19,12.3.23,18.04.17,49.69-.58,81.85-14.74,90.97-19.31v-25.4c0-3.07,2.54-5.57,5.67-5.57h14.61c-.31-12.74-.26-44.23,5.87-78.97l-12,10.04s-42.6,13.8-93.3,19.23Z"/>
            </g>
            <g class="cls-17">
              <path class="cls-21" d="M1112.59,1173.07c-1.95-5.27-6.58-10.77-6.58-10.77,0,0,.73,131.67,2.19,138.42,1.46,6.75,20.73,27.97,28.78,30.36,7.2,2.14,136.36-.89,163.34-1.55l-3.93-95.08c-29.07-.88-160.25-5.19-166.96-11.58-7.56-7.18-14.88-44.53-16.83-49.8Z"/>
            </g>
            <g class="cls-17">
              <path class="cls-21" d="M1100.04,1373.91c24.39,4.31,308.74,1.44,334.1-3.35,17.06-3.22,28.81-24.05,34.69-37.35-7.41,5.58-14.48,8.72-17.19,8.72-.56,0-6.36.13-16,.35-45.84,1.02-86.42,1.88-121.76,2.57-.02,0-.04,0-.07,0-.08,0-.16,0-.23,0-.02,0-.04,0-.06,0-74.47,1.46-125.48,2.2-152.53,2.2-10.84,0-17.83-.12-20.97-.36-28.41-2.15-48.77-46.41-49.62-48.3-.29-.65-.46-1.35-.48-2.06-.13-3.54-.47-13.07-.87-25.99l-118.76,4.18.6,17.34c21.39-.74,96.7-3.32,100.47-3.32,4.39,0,4.29,81.04,28.68,85.35Z"/>
            </g>
            <g class="cls-18">
              <path class="cls-4" d="M1506.45,1208.59c-1.59-2.34-2.99-18.11-3.64-26.57h-10.6v54.51c0,1.32,0,2.62,0,3.92h151.54c-3-12.54-6.11-24.61-9.25-36.21-38.12,2.33-126.32,6.88-128.05,4.35Z"/>
            </g>
            <g class="cls-18">
              <path class="cls-4" d="M1646.16,1203.92l-.05-.43s-.04,0-.06,0c.04.14.08.28.11.42Z"/>
            </g>
            <g class="cls-17">
              <path class="cls-21" d="M1605.13,1702.67c26.08-3.15,50.16-7.89,69.34-14.9v-22.93c0-2.76-.49-277.43-21.59-382.93-2.06-10.28-4.25-20.4-6.52-30.32h-154.18c-.03,5.79-.07,11.29-.15,16.43l95.38,6.83s31.52,378.52,17.72,427.82Z"/>
            </g>
            <g class="cls-17">
              <path class="cls-21" d="M1674.47,1797.8v-98.23c-21.08,7.17-46.96,11.92-74.56,14.98-20.75,33.69-82.25,37.34-128.87,50.73,30.95-2.97,69.52-.09,116.01,14.91,2.97.96,4.59,4.11,3.61,7.03-.59,1.77-2,3.05-3.68,3.57,8.23,4.32,23.98,15.39,12.02,32.59-15.73,22.62-43.16,35.91-100.96,41.66-43.4,4.31-88.92-19.11-108.9-31.05,4.15,12.26,11.92,27.5,26.54,40.6,25.73,23.04,64.63,32.99,115.56,29.6,143.18-9.56,143.3-102.43,143.23-106.38Z"/>
            </g>
            <g class="cls-18">
              <path class="cls-4" d="M1910.09,1067.13s0,.02,0,.04c0,0,.01-.04.01-.04h0Z"/>
            </g>
            <g class="cls-17">
              <path class="cls-21" d="M1595.78,1170.88h29.27c-15.06-50.66-28.27-84.78-28.48-85.33-.63-1.62-.46-3.42.46-4.9.92-1.47,2.49-2.45,4.24-2.63,8.07-.83,195.09-19.59,293.46,8.07,1.03-4.62,2.54-11.82,4.06-20.64-47.25-7.02-271.06-54-319.96-69.76-49.02-15.8-4.34,84.6,16.94,175.19Z"/>
            </g>
            <g class="cls-17">
              <path class="cls-21" d="M1148.32,1597.51c31.09,20.11,55.24,23.34,65.11,63.56,1.59,6.46,2.41,15.15,2.57,25.23,13.49-1.31,27.34-2.91,41.52-4.89.61-6.11,1.36-11.07,2.33-14.49,6-21.19,30.09-58.79,40.2-74.01-1.98.03-3.97.06-5.94.06-89.86,0-164.87-29.16-192.46-41.43-1.84-.79-3.59-1.58-5.25-2.39,0,0,20.82,28.24,51.91,48.35Z"/>
            </g>
            <g class="cls-17">
              <path class="cls-21" d="M1174.78,1846.01c-29.27,18.67-180.7,16.2-215.09-6.7-16.17-10.77-19.94-23.69-19.39-34.36-.72,1.58-1.37,3.2-1.92,4.88-4.56,13.86-1.96,28.87,7.7,44.62,15.04,24.51,68.49,40.38,136.18,40.44h.38c77.5,0,146.2-20.17,163.76-48.07,6-13.54,7.31-62.84,8.35-102.5.51-19.42.99-37.35,1.89-51.54-13.89,1.9-27.45,3.44-40.69,4.71-1.47,53.53-18.25,133.92-41.16,148.54Z"/>
            </g>
            <path class="cls-13" d="M827.02,1553.4c29.41,65.03,75.17,84.37,143.67,60.57l-4.1-118.4c-6.03.35-15.88.48-27.3-1.08,3.44,4.1,9.2,12.41,14.54,26.9,8.29,22.5-40.48,60.33-78.04,35.43-37.56-24.9-86.82-179.55-159.98-211.15-73.16-31.6-132.67,33.99-180.46,49.81-30.94,10.24-47.31,7.22-55.06,3.82,1.13,13.98,6.89,25.68,16.87,33.21,24.05,18.16,51.69-.43,83.69-21.96,29.17-19.62,59.36-39.91,92.12-35.65,51.69,6.72,103.52,66.77,154.05,178.5Z"/>
            <g class="cls-15">
              <path class="cls-11" d="M571.08,1305.92c15.73-27.65,133.22-46.9,188.39,1.26,62.36,54.44,86.33,135.2,105.35,153.87,10.71,10.51,22.45,15.53,30.29,17.7-8.45-5.56-16.31-12.87-22.77-22.49-5.71-8.5-12.06-21.37-19.4-36.27-32.85-66.61-87.9-178.12-208.21-161.43-82.62,11.44-135.12,54.69-155.31,97.52,21.75-8.46,69.62-28.99,81.66-50.17Z"/>
            </g>
          </g>
          <g class="cls-15">
            <path class="cls-11" d="M608.96,1298.82c-1.4-2.38-7.18-1.68-12.91,1.57-5.73,3.25-9.24,7.81-7.84,10.19,1.4,2.38,7.18,1.68,12.91-1.57,5.73-3.25,9.24-7.81,7.84-10.19Z"/>
          </g>
          <g>
            <g>
              <path class="cls-21" d="M1512.37,1922.9c-47.02,0-83.9-11.99-109.83-35.77-35.05-32.13-36.28-73.78-36.32-75.53-.28-39.64-1.64-106.4-4.1-117.49-2.05-8.1-27.15-46.51-52.54-82.6-11.95,18.61-28.08,45.63-32.24,60.32-2.77,9.78-3.62,41.9-4.44,72.96-1.49,56.41-3.01,94.53-10.16,109.9-.2.44-.43.86-.69,1.28-24.25,39.38-107.53,56.98-179.44,56.98h-.4c-28.53-.02-123.77-3.64-151.66-49.1-12.48-20.34-15.7-40.3-9.56-59.32,8.75-27.09,34.48-43.98,47.68-51.1l-16.3-471.11h-7.02c-1.56,0-3.11-.29-4.57-.86-5.47-2.15-16.08-6.31-10.51-49.93-17.5,6.17-44.79,13.03-80.38,13.44-56.61.64-139.48-7.26-205.65-83.3-64.42-74.04-14.44-192.04-12.28-197.03,2.23-5.15,7.57-8.19,13.17-7.42l184.45,25.27,145.5-85.89c3.27-1.93,7.24-2.27,10.78-.93,315.88,119.66,629.46-24.96,632.6-26.43,1.91-.9,4.03-1.3,6.13-1.17,8.37.54,205.52,13.5,261.57,46.21,60.55,35.34,28.66,167.07,24.82,181.97-.85,3.32-3.03,6.14-6.02,7.81-2.99,1.67-6.54,2.03-9.81,1.01-77.37-24.17-226.75-14.55-275.92-10.51,10.96,30.58,35.22,102.69,51.45,183.82,21.45,107.23,21.94,375.09,21.95,386.44v132.88c.02.87.59,113.79-160.18,124.51-6.88.46-13.59.69-20.09.69ZM1309.22,1576.91c4.02,0,7.8,1.93,10.15,5.2,14.77,20.54,63.26,88.93,67.17,106.58,3.83,17.31,4.61,111.83,4.69,122.55,0,.1,1.3,33.02,28.54,57.74,24.3,22.05,61.65,31.56,111.04,28.27,136.15-9.08,136.88-95.69,136.85-99.37v-133.06c0-2.74-.49-276.73-21.46-381.55-20.98-104.86-55.62-194.29-55.96-195.18-1.42-3.64-1.06-7.72.98-11.06,2.03-3.33,5.51-5.52,9.39-5.92,7.94-.82,187.88-18.87,289.08,6.46,8.77-41.73,17.76-121.95-16.09-141.71-41.53-24.24-189.66-38.76-247.43-42.64-15.81,7.11-90.75,39.16-199.44,59.16-109.81,20.21-275.49,31-444.04-31.23l-144.11,85.07c-2.42,1.43-5.27,1.99-8.05,1.62l-178.92-24.51c-9.53,27.01-33.47,110.21,11.53,161.92,59.36,68.23,134.92,75.3,186.5,74.71,56.88-.66,90.05-19.63,90.38-19.82,4.24-2.47,9.55-2.25,13.55.6,4,2.84,5.99,7.75,5.05,12.57-3.28,16.86-5.18,34.95-4.83,44h10.68c6.74,0,12.26,5.34,12.49,12.07l17,491.25c.18,5.2-2.87,9.96-7.67,11.97-.31.13-33.41,14.41-41.51,39.69-3.81,11.89-1.48,24.48,7.1,38.48,13.82,22.52,64.99,37.11,130.37,37.17h.38c73.72,0,141.14-19.03,157.73-44.43,5.27-12.88,6.59-62.78,7.56-99.39.94-35.58,1.75-66.31,5.38-79.11,7.65-27.06,41.76-77.07,45.62-82.69,2.31-3.35,6.1-5.37,10.17-5.41h.13Z"/>
              <path class="cls-21" d="M946.33,1282.31c-6.7,0-12.25-5.31-12.49-12.06-.24-6.9,5.15-12.69,12.05-12.93l130.61-4.6v-58.02h-117.67v16.23c0,6.9-5.6,12.5-12.5,12.5s-12.5-5.6-12.5-12.5v-28.73c0-6.9,5.6-12.5,12.5-12.5h142.67c6.9,0,12.5,5.6,12.5,12.5v82.59c0,6.73-5.33,12.26-12.06,12.49l-142.67,5.03c-.15,0-.3,0-.45,0Z"/>
              <path class="cls-21" d="M1161.4,1354c-11.29,0-18.57-.13-21.89-.38-31.83-2.4-53.01-47.21-55.32-52.31-.67-1.48-1.04-3.07-1.11-4.7-1.39-37.83-5.46-162.66.66-180.68,7.16-21.08,43.9-40.01,51.2-43.59,1.56-.77,3.26-1.2,5-1.27,47.45-1.93,285.07-11.38,303.85-8.48,22.34,3.46,46.32,33.25,50.9,39.19,1.63,2.11,2.54,4.69,2.6,7.35.4,17.48,3.81,171.39-.19,193.99-4.92,27.78-35.87,45.75-45.48,45.75-.65,0-6.39.14-15.84.35-143.75,3.2-234.33,4.79-274.39,4.79ZM1107.98,1293.12c6.14,12.45,20.69,34.61,33.42,35.57,9.68.73,68.52.55,293.84-4.47,6.91-.15,11.89-.26,14.45-.32,5.25-2.33,20.53-12.31,22.81-25.15,2.65-14.95,1.42-117.08-.09-184.82-9.12-10.98-24.03-25.34-32.44-26.64-13.74-1.89-187.84,4.26-296.3,8.65-16.05,8.26-33.86,21.03-36.24,28.03-3.1,10.73-2.16,93.95.56,169.15ZM1451.64,1323.87c-.11,0-.21,0-.32,0,.17,0,.27,0,.32,0Z"/>
              <path class="cls-21" d="M1313.58,1351.8c-6.67,0-12.2-5.26-12.48-11.98l-4.81-116.31-72.17-39.7c-3.99-2.2-6.47-6.39-6.47-10.95v-92.75c0-6.9,5.6-12.5,12.5-12.5s12.5,5.6,12.5,12.5v85.36l71.87,39.53c3.83,2.11,6.28,6.06,6.46,10.43l5.1,123.35c.28,6.9-5.08,12.72-11.97,13.01-.18,0-.35,0-.53,0Z"/>
              <path class="cls-21" d="M1385.3,1215.52c-27.06,0-49.08-21.72-49.08-48.41s22.02-48.41,49.08-48.41,49.08,21.72,49.08,48.41-22.02,48.41-49.08,48.41ZM1385.3,1143.7c-13.28,0-24.08,10.5-24.08,23.41s10.8,23.41,24.08,23.41,24.08-10.5,24.08-23.41-10.8-23.41-24.08-23.41Z"/>
              <path class="cls-21" d="M1115.89,1709.34c-82.77,0-136.08-10.02-139.39-10.66-6.77-1.31-11.21-7.86-9.9-14.64,1.3-6.78,7.86-11.21,14.64-9.91,1.19.23,120.72,22.6,279.16-.1,6.84-1.01,13.17,3.77,14.15,10.6.98,6.83-3.77,13.17-10.6,14.15-55.26,7.91-105.54,10.56-148.05,10.56Z"/>
              <path class="cls-21" d="M1498.81,1726.35c-65.01,0-119.44-4.82-123.84-5.22-6.88-.62-11.94-6.7-11.32-13.58.62-6.88,6.79-11.92,13.58-11.32,2.09.19,209.74,18.55,298.34-16.28,6.43-2.53,13.68.63,16.21,7.06,2.53,6.42-.63,13.68-7.06,16.21-46.81,18.41-121.55,23.13-185.91,23.13Z"/>
              <path class="cls-21" d="M1042.91,1773.57c-1.17,0-2.36-.16-3.54-.51-29.42-8.66-53.42-.32-53.66-.24-6.47,2.33-13.64-1.04-15.98-7.5-2.34-6.47.95-13.6,7.4-15.98,1.27-.47,31.63-11.36,69.31-.26,6.62,1.95,10.41,8.9,8.46,15.52-1.6,5.44-6.58,8.97-11.98,8.97Z"/>
              <path class="cls-21" d="M1378.69,1820.03c-3.2,0-6.4-1.22-8.84-3.66-4.88-4.88-4.88-12.8,0-17.68,2.96-2.96,74.17-71.91,219.26-25.1,6.57,2.12,10.18,9.17,8.06,15.73-2.12,6.57-9.18,10.18-15.73,8.06-130.72-42.18-193.3,18.37-193.92,18.99-2.44,2.44-5.64,3.66-8.84,3.66Z"/>
              <path class="cls-21" d="M1292.74,1600.37c-112.38,0-200.44-45.32-205.57-48.01-6.11-3.21-8.46-10.76-5.25-16.87,3.2-6.11,10.75-8.47,16.87-5.27,1.66.87,168.33,86.36,329.47,18.69,6.35-2.68,13.69.32,16.36,6.69,2.67,6.36-.32,13.69-6.69,16.36-49.78,20.9-99.51,28.4-145.2,28.4Z"/>
              <path class="cls-21" d="M966.81,1194.69c-6.59,0-12.11-5.16-12.47-11.82-.25-4.56-5.57-112.34,39.36-175.51,4.01-5.63,11.81-6.94,17.43-2.94,5.62,4,6.94,11.81,2.94,17.43-39.92,56.12-34.83,158.63-34.77,159.66.38,6.89-4.91,12.79-11.8,13.16-.23.01-.46.02-.69.02Z"/>
              <path class="cls-21" d="M821.82,1244.38c-2.37,0-4.76-.67-6.88-2.07-5.76-3.81-7.34-11.56-3.54-17.32,66.7-100.95,10.09-222.93,9.51-224.15-2.96-6.23-.31-13.69,5.91-16.66,6.24-2.95,13.68-.33,16.65,5.89,2.62,5.49,63.39,135.77-11.22,248.7-2.4,3.64-6.38,5.61-10.44,5.61Z"/>
              <path class="cls-4" d="M1656.73,1258.51h-170.2c-3.32,0-6.49-1.32-8.84-3.66-2.35-2.34-3.66-5.52-3.66-8.84v-69.56c0-6.9,5.6-12.5,12.5-12.5h162.15c6.35,0,11.69,4.76,12.42,11.06l8.05,69.56c.41,3.54-.71,7.09-3.08,9.75-2.37,2.66-5.77,4.18-9.33,4.18ZM1499.03,1233.51h143.67l-5.16-44.56h-138.51v44.56Z"/>
            </g>
            <path class="cls-21" d="M916.4,1643.42c-46.52,0-80.87-27.13-105.96-82.6-59.49-131.57-108.88-163.97-139.83-168-25.94-3.36-53.21,14.97-79.58,32.7-33.01,22.2-70.43,47.37-104.86,21.38-21.51-16.24-29.37-45.08-21.03-77.15,14.05-53.99,74.25-114.83,177.07-129.07,133.41-18.44,194.31,105.02,227.03,171.36,7.06,14.32,13.16,26.69,18.2,34.18,25.45,37.87,82.41,30.97,82.97,30.89,6.79-.91,13.11,3.92,14.01,10.76.9,6.83-3.88,13.11-10.71,14.02-2.97.41-72.84,9.15-107.02-41.73-5.97-8.88-12.41-21.95-19.87-37.07-32.03-64.95-85.67-173.67-201.18-157.66-91.38,12.65-144.35,64.66-156.3,110.6-5.79,22.26-1.46,40.82,11.89,50.9,19.23,14.51,41.34,1.03,75.84-22.17,28.81-19.38,61.44-41.34,96.75-36.75,54.95,7.14,107.09,66.83,159.39,182.49,29.62,65.51,68.94,81.94,135.68,56.76,6.47-2.45,13.67.82,16.11,7.28,2.44,6.46-.82,13.67-7.28,16.11-22.48,8.48-42.87,12.76-61.33,12.76Z"/>
            <path class="cls-21" d="M1601.86,1096.06c-5.06,0-9.81-3.09-11.7-8.1l-30.23-80.33c-2.43-6.46.83-13.67,7.3-16.1,6.45-2.43,13.67.84,16.1,7.3l30.23,80.33c2.43,6.46-.83,13.67-7.3,16.1-1.45.54-2.94.8-4.4.8Z"/>
          </g>
        </g>
        <g>
          <path class="cls-21" d="M622.56,1979.22c-1.98,0-3.99-.59-5.74-1.82-4.52-3.17-5.61-9.41-2.43-13.93l11.04-15.71c-2.97-5.1-6.1-9.77-8.24-12.29-11.59,3.94-48.76,19.34-82.11,33.71-5.07,2.18-10.95-.15-13.14-5.23-2.19-5.07.15-10.95,5.23-13.14,83.83-36.13,89.38-36.13,91.75-36.13,3.86,0,11.9,0,27.15,29.06,1.74,3.32,1.48,7.33-.67,10.4l-14.63,20.83c-1.95,2.77-5.04,4.25-8.19,4.25Z"/>
          <path class="cls-21" d="M733.73,1976.78c-1.7,0-3.41-.43-4.99-1.34l-31.92-18.42-59.38,1.37c-5.66.07-10.1-4.25-10.23-9.77-.13-5.52,4.25-10.1,9.77-10.23l62.18-1.44c1.86-.04,3.64.42,5.23,1.34l34.35,19.82c4.79,2.76,6.42,8.88,3.66,13.66-1.85,3.21-5.21,5-8.67,5Z"/>
          <path class="cls-21" d="M699.38,1956.96c-2.52,0-5.04-.94-6.98-2.84-3.95-3.86-4.03-10.19-.17-14.14l34.35-35.19c1.88-1.93,4.46-3.02,7.16-3.02h42.47c5.52,0,10,4.48,10,10s-4.48,10-10,10h-38.25l-31.41,32.18c-1.96,2.01-4.56,3.02-7.16,3.02Z"/>
          <path class="cls-21" d="M721.12,1934.69c-2.75,0-5.5-1.13-7.47-3.35l-21.73-24.42c-2.07-2.33-2.94-5.49-2.35-8.55.59-3.06,2.58-5.67,5.37-7.05,71.6-35.52,75.03-35.52,77.78-35.52,5.52,0,10,4.48,10,10,0,4.91-3.54,8.99-8.2,9.84-5.1,1.73-31.91,14.51-58.93,27.79l13.01,14.61c3.67,4.13,3.3,10.45-.82,14.12-1.9,1.69-4.28,2.53-6.65,2.53ZM772.73,1875.8h-.01.01Z"/>
        </g>
        <g>
          <path class="cls-21" d="M1784.14,1149.45c-162.81,0-295.26,119.93-295.26,267.35s129.59,264.64,289.94,267.23c111.57-1.63,209.71-58.52,267.24-144.02,21.26-36.9,33.36-78.79,33.36-123.21,0-147.42-132.45-267.35-295.27-267.35Z"/>
          <path class="cls-11" d="M1946.96,1145.75c-69.07-47.24-151.1-59.26-243.84-35.74-110.2,27.96-185.11,91.95-222.62,190.18-26.18,68.54-23.95,130.43-23.5,138.83,15.08,61.5,48.28,116.11,93.76,158.1-45.61-48.63-73.23-111.58-73.23-180.32,0-153.56,137.54-278.48,306.6-278.48s306.61,124.93,306.61,278.48c0,9.82-.58,19.51-1.68,29.07,3.39-12.58,5.96-25.47,7.77-38.6-9.11-85.54-58.87-199.29-149.88-261.53Z"/>
          <path class="cls-11" d="M1773.9,1044.12c-179.75,0-325.99,143.56-325.99,320.02,0,6.04.21,12.03.55,17.99,3.15-24.35,9.37-54.25,21.44-85.85,26.74-70.01,88.42-161.02,230.41-197.05,96.08-24.38,181.25-11.8,253.15,37.38,78.1,53.41,126.74,143.4,146.32,222.84-2.57-174.3-147.72-315.34-325.87-315.34Z"/>
          <path class="cls-11" d="M2119.99,1234.25c-9.15-3.25-24.84.63-34.2,3.77,16.38,38.89,25.44,81.48,25.44,126.12,0,7.06-.25,14.07-.7,21.03,19.11-4.28,36.2-10.52,38.12-14.14,1.09-4.09-1.58-33.61-8.46-70-9.17-48.49-17.22-64.88-20.2-66.78Z"/>
          <path class="cls-11" d="M1436.73,1354.22c-14.65,3.53-33.1,10.87-35.3,20.26-3.82,16.23,23.53,133.55,34.25,148.24,7.86-.59,26.35-4.53,38.23-7.24-23.86-45.39-37.35-96.85-37.35-151.35,0-3.32.06-6.62.16-9.91Z"/>
          <g class="cls-15">
            <path class="cls-11" d="M1606.86,1492.1c7.68.72,13.95-6.04,12.9-13.55-4.47-32.05-12.32-120.42,26.4-176.06,47.98-68.95,105.08-106.32,81.6-109.74-23.48-3.41-119.22,31.91-168.24,130.43-44.04,88.52,2.87,164.76,47.34,168.91Z"/>
          </g>
          <g class="cls-15">
            <ellipse class="cls-11" cx="1941.69" cy="1423.03" rx="31.6" ry="40.9"/>
          </g>
          <g class="cls-15">
            <ellipse class="cls-11" cx="1957.93" cy="1309.7" rx="43.63" ry="56.47"/>
          </g>
          <g>
            <path class="cls-1" d="M1486.33,1514.57c16.83,30.88,38.65,58.75,64.44,82.56-23.75-25.32-42.56-54.55-55.2-86.43-1.25,4.08-2.55,7.43-2.55,7.43l-6.69-3.56Z"/>
            <path class="cls-1" d="M1587.77,1126.35c.88,8.33,12.75,8.6,24.77,6.66,25.18-13.65,54.2-25.26,87.75-33.77,96.08-24.38,181.25-11.8,253.15,37.38,24.05,16.45,45.3,36.38,63.77,58.39,15.3-.75,23.39-6.05,26.98-9.37-58.6-85.28-157.85-141.51-270.3-141.51-59.3,0-114.9,15.7-162.86,42.98-10.06,10.29-24.5,27.67-23.27,39.25Z"/>
            <path class="cls-1" d="M1946.96,1145.75c-69.07-47.24-151.1-59.26-243.84-35.74-28.76,7.3-55.1,17.07-79.01,29.25-14.04,13.4-34.05,34.64-38.91,51.01-2.86,9.61-4.65,15.64-5.77,19.43,54.32-44.34,126.09-71.38,204.71-71.38,29.93,0,58.84,3.99,86.21,11.28-6.89-3.43-11.52-5.72-11.52-5.72,0,0,8.06,3.31,20.45,8.23,16.29,4.84,31.98,10.89,46.96,18.04,28.33,10.48,58.55,20.81,75.32,23.9-16.17-18.06-34.35-34.46-54.6-48.3Z"/>
            <path class="cls-1" d="M1489.26,1403.07s0,0,0,0c0,0,64.5,230.14,296.74,194.06,204.45-31.76,272.81-199.04,286.25-238.63-29.47-119.46-147.42-209.04-288.11-209.04-157.72,0-286.96,112.55-294.88,253.61Z"/>
            <path class="cls-1" d="M1431.57,1443.43c6.52,2.42,11.98,3.66,15.93,4.31-7.11-26.72-10.93-54.73-10.93-83.61,0-3.32.06-6.62.16-9.91-14.65,3.53-33.1,10.87-35.3,20.26-1.55,6.57,2.02,29.72,7.52,55.92,6.16,4.43,14.94,10.17,22.62,13.03Z"/>
            <path class="cls-1" d="M2090.42,1429.19c-.28,5.6-.71,11.17-1.35,16.69.9-3.35,1.74-6.72,2.52-10.11,0-.03-.44-2.5-1.18-6.57Z"/>
            <path class="cls-1" d="M2138.67,1293.26c-8.53-42.47-15.87-57.23-18.68-59.02-9.15-3.25-24.84.63-34.2,3.77,9.88,23.45,17.04,48.26,21.21,74.04,9.09-2.8,26.23-9.22,31.67-18.8Z"/>
            <path class="cls-1" d="M2041.57,1265.82c3.61,5.06,7.06,10.23,10.32,15.51-.81-1.86-1.61-3.59-2.35-5-1.45-2.76-4.3-6.41-7.97-10.51Z"/>
            <g class="cls-18">
              <path class="cls-4" d="M1408.95,1430.41c8.09,38.5,20.35,83.57,26.73,92.32,7.86-.59,26.35-4.54,38.23-7.24-11.22-21.34-20.11-44.03-26.41-67.74-3.95-.65-9.41-1.89-15.93-4.31-7.68-2.85-16.46-8.59-22.62-13.03Z"/>
            </g>
            <g class="cls-18">
              <path class="cls-4" d="M1587.77,1126.35c-1.23-11.58,13.21-28.96,23.27-39.25-97.42,55.4-163.13,158.8-163.13,277.04,0,6.04.21,12.03.55,17.99,3.15-24.35,9.37-54.25,21.44-85.85,20.42-53.46,61.27-119.16,142.66-163.27-12.02,1.94-23.89,1.67-24.77-6.66Z"/>
            </g>
            <g class="cls-18">
              <path class="cls-4" d="M1624.12,1139.26c-67.72,34.47-115.89,88.34-143.61,160.93-26.18,68.54-23.95,130.43-23.5,138.83,6.53,26.63,16.47,51.96,29.32,75.54l6.69,3.56s1.29-3.35,2.55-7.43c-11.63-29.35-18.04-60.94-18.04-93.89,0-82.15,39.39-156.09,101.9-207.11,1.13-3.79,2.92-9.82,5.77-19.43,4.86-16.36,24.87-37.61,38.91-51.01Z"/>
            </g>
            <g class="cls-18">
              <path class="cls-4" d="M2108.91,1402.54c.78-2.23,1.59-4.31,2.41-6.13-.58.12-1.18.26-1.73.37-.19,1.93-.45,3.84-.68,5.76Z"/>
            </g>
            <g class="cls-18">
              <path class="cls-4" d="M1870.35,1149.6c3,.8,5.98,1.63,8.94,2.51-12.4-4.92-20.45-8.23-20.45-8.23,0,0,4.63,2.29,11.52,5.72Z"/>
            </g>
            <g class="cls-18">
              <path class="cls-4" d="M2099.77,1359.46c-.95-64.28-21.33-124-55.57-173.83-3.59,3.32-11.68,8.62-26.98,9.37,41.52,49.46,69,109.48,82.55,164.46Z"/>
            </g>
            <g class="cls-18">
              <path class="cls-4" d="M2096.84,1407.28c-7.09-66.51-38.76-150.08-95.29-213.23-16.77-3.1-46.99-13.42-75.32-23.9,46.9,22.38,86.64,55.46,115.33,95.66,3.67,4.11,6.52,7.75,7.97,10.51.74,1.41,1.53,3.14,2.35,5,24.71,40.13,38.86,86.32,38.86,135.48,0,4.15-.13,8.28-.33,12.39.73,4.07,1.17,6.54,1.18,6.57,2.17-9.35,3.92-18.85,5.25-28.48Z"/>
            </g>
            <g class="cls-18">
              <path class="cls-4" d="M2148.65,1371.02c1.09-4.09-1.58-33.61-8.46-70-.51-2.7-1.02-5.26-1.52-7.76-5.45,9.58-22.58,16-31.67,18.8,2.75,16.97,4.23,34.35,4.23,52.08,0,7.06-.25,14.07-.7,21.03,19.11-4.28,36.2-10.52,38.12-14.14Z"/>
            </g>
            <g class="cls-16">
              <path class="cls-5" d="M1786,1597.13c-232.24,36.08-296.74-194.06-296.74-194.06,0,0,0,0,0,0-.26,4.55-.38,9.13-.38,13.73,0,145.8,129.59,264.64,289.94,267.23,111.57-1.63,209.71-58.52,267.24-144.02,21.26-36.9,33.36-78.79,33.36-123.21,0-20.03-2.52-39.53-7.16-58.31-13.44,39.59-81.8,206.87-286.25,238.63Z"/>
            </g>
          </g>
          <g>
            <path class="cls-21" d="M1773.9,1702.22c-189.77,0-344.16-151.66-344.16-338.09s154.39-338.09,344.16-338.09,344.17,151.67,344.17,338.09-154.39,338.09-344.17,338.09ZM1773.9,1051.05c-175.99,0-319.16,140.45-319.16,313.09s143.18,313.09,319.16,313.09,319.17-140.45,319.17-313.09-143.18-313.09-319.17-313.09Z"/>
            <path class="cls-21" d="M1784.14,1702.22c-172.83,0-313.44-128.04-313.44-285.42s140.61-285.42,313.44-285.42,313.44,128.04,313.44,285.42-140.61,285.42-313.44,285.42ZM1784.14,1156.39c-159.05,0-288.44,116.82-288.44,260.42s129.39,260.42,288.44,260.42,288.44-116.82,288.44-260.42-129.39-260.42-288.44-260.42Z"/>
            <path class="cls-21" d="M1451.39,1452.91c-6.48,0-11.96-5-12.45-11.56-.21-2.84-4.87-70.47,24.58-147.57,27.32-71.54,90.29-164.52,235.12-201.26,99.18-25.16,187.02-11.68,261.08,40.06,101.07,70.61,146.83,191.65,155.31,273.86.71,6.87-4.28,13.01-11.15,13.72-6.84.73-13.01-4.28-13.72-11.15-8.56-83.03-56.65-194.37-144.76-255.93-67.84-47.39-148.8-59.62-240.62-36.32-107.58,27.29-180.78,89.56-217.58,185.07-27.73,72-23.38,137.03-23.33,137.68.5,6.88-4.67,12.87-11.55,13.38-.31.02-.62.04-.93.04Z"/>
            <path class="cls-21" d="M2105.55,1404.41c-5.85,0-11.08-4.13-12.25-10.09-1.33-6.77,3.08-13.34,9.85-14.68,16.21-3.19,33.22-8.51,38.9-12.03.81-21.04-15.16-111.95-25.8-127.19-8.46-1.79-24.09,2.24-33.15,5.96-6.39,2.61-13.68-.42-16.31-6.8-2.63-6.38.4-13.67,6.77-16.31,3.29-1.36,32.73-13.08,52.77-5.92,7.76,2.77,12.13,10.94,15.07,17.75,12.49,28.88,30.45,128.11,23.88,143.15-4.65,10.65-23.94,19.38-57.33,25.94-.81.16-1.62.24-2.42.24Z"/>
            <path class="cls-21" d="M1433.94,1540.87c-3.19,0-7.85-1.09-11.97-6.28-14.4-18.18-43.35-142.49-38.24-164.21,5.98-25.44,48.39-33.95,56.83-35.4,6.82-1.18,13.27,3.4,14.43,10.21,1.17,6.8-3.4,13.27-10.2,14.43-17.28,3-35.47,11.17-36.72,16.48-2.61,15.19,20.48,115.55,31.43,139.22,9.75-1.42,27.65-5.29,39.83-8.2,6.7-1.61,13.46,2.53,15.06,9.25,1.61,6.71-2.53,13.46-9.25,15.06-6.59,1.58-40.04,9.45-51.19,9.45Z"/>
          </g>
        </g>
        <g>
          <path class="cls-21" d="M670.23,1943.48c-8.41,0-18.09-1.56-28.33-6.2-4.47-2.03-7.34-6.48-7.34-11.39V253.92c0-6.9,5.6-12.5,12.5-12.5h46.34c6.9,0,12.5,5.6,12.5,12.5v1671.98c0,4.57-2.49,8.77-6.49,10.96-.72.4-12.38,6.63-29.17,6.63ZM659.56,1917.11c8.73,2.27,16.28,1.38,21.34.11V266.42h-21.34v1650.7Z"/>
          <path class="cls-6" d="M652.73,1922.2c15.9,5.98,29.29,2.32,35,.12V736.86c-9.43-.81-21.07-2.63-35-5.12v1190.46Z"/>
          <path class="cls-6" d="M652.73,345.09v147.14c5.21.81,10.47,1.54,15.04,2.18,7.33,1.02,13.97,1.98,19.96,2.97v-152.7c-.82-.02-1.63-.04-2.48-.07-10.11-.28-22.27-.6-32.52.48Z"/>
          <path class="cls-11" d="M652.73,310.09v23.84c10.62-1.05,22.34-.74,32.83-.46.7.02,1.44.04,2.17.06v-23.29c-4.4-.15-11.3-.33-19.96-.33-4.56,0-9.63.06-15.04.18Z"/>
          <path class="cls-6" d="M652.73,298.87c15.52-.34,28.02-.04,35,.21v-39.6h-35v39.39Z"/>
          <path class="cls-6" d="M652.73,683.56c11.79,2.4,24.55,3.6,35,4.23v-148.71c-10.41,1.69-22.33,2.81-35,3.67v140.81Z"/>
          <path class="cls-11" d="M714.59,517.12c-.95-2.32-7.32-4.43-15.53-6.25v14.59c9.64-2.35,14.88-5.13,15.53-8.33Z"/>
          <path class="cls-11" d="M708.27,331.15c1.08-5.23,2.56-12.4-.58-16.25-1.81-2.22-5.15-3.37-8.63-3.93v22.71c3.75-.03,7.01-.19,8.82-.61.12-.61.25-1.26.39-1.93Z"/>
          <path class="cls-22" d="M424.35,478.01l52.34,65.86c24.32-30.98,33.8-53.15,29.43-62.01-9.07-18.35-36.6-19.61-81.77-3.85Z"/>
          <path class="cls-11" d="M284.54,593.95l12.33,15.64,45.75-22.38c1.9-.93,4.18-.74,5.89.5,16.21,11.73,16.21,17.09,16.21,18.85,0,1.57,0,5.64-20,37.05l12.39,16.05c50.41-40.33,87.57-77.06,112.32-106.82l-55.89-70.33c-41.59,21.06-112.98,94.63-129,111.45ZM432.03,550.53c0,15.74-13.05,28.55-29.08,28.55s-29.08-12.81-29.08-28.55,13.05-28.55,29.08-28.55,29.08,12.81,29.08,28.55Z"/>
          <path class="cls-11" d="M666.18,505.42c-4.83-.67-9.29-1.31-13.45-1.94v3.46l-11.34-3.17v-2.19c-14.82-2.8-23.53-6.11-25.78-12.41-5.45-15.3-9.25-127.34,10.18-145.88,3.82-3.64,79.55-5.16,85.88-6.69l-9.33-28.37c-33.08,1.35-136.57,7.97-168.53,20.52-64.97,25.51-146.78,54.98-203.15,56.41-88.42,2.25-225.13,13.37-237.76,30.07-5.48,7.25-1.49,14.11,6.62,26.6,8.69,13.38,19.51,30.02,11.73,51.66l-1.82,5.03c-12.26,33.73-24.93,68.6-.23,162.9l2.96,11.36c23.8,91.55,33.71,129.43,144.33,122.37,67.39-4.3,130.88-33.5,181.89-56.95,39.71-18.26,74-34.03,100.39-34.03s63.27,6.77,94.95,12.74c2.51.47,78.12,8.68,80.71,9.16l5.84-25.16c-12.22-3.34-101.4-16.77-107.73-23.91-18-20.33-17.31-102.76-6.11-131.19,1.09-2.77,4.42-11.21,11.68-12.05,3.32-.38,8.8-.67,15.73-1.03,2.59-.14,5.08-.28,7.55-.43v-1.78c3.1.04,7.45.08,11.34.09v.93c14.03-1.04,43.2-4.58,52.48-6.08l6.46-14.59c-7.68-1.32-39.51-4.61-45.49-5.45ZM412.27,627.5v45.13c0,1.57-.68,3.07-1.87,4.13l-60.72,53.86c-1.07.95-2.43,1.43-3.8,1.43-.93,0-1.88-.22-2.73-.69-2.12-1.14-3.26-3.48-2.86-5.81l9.83-56.52-13.95-18.08-72.6,35.97c-.81.4-1.69.6-2.55.6-1.48,0-2.93-.57-4.02-1.65-1.73-1.71-2.14-4.32-1.02-6.46l32.57-62.2-14.4-18.27-45.82-4.09c-2.24-.2-4.15-1.68-4.86-3.77-.72-2.09-.1-4.4,1.56-5.89,58.69-52.44,60.34-52.44,63.07-52.44,2.04,0,20.68,2.61,37.08,4.97,28.58-26.82,62.99-56.09,87.39-67.1.1-.05.2-.1.3-.14,1.71-.76,3.37-1.45,4.98-2.03,53.91-19.32,86.12-16.51,98.5,8.55,11.97,24.23-30.29,83.8-104.05,150.5Z"/>
          <path class="cls-8" d="M344.5,598.72l-45.08,22.06-25.39,48.5,59.84-29.65c8.29-12.98,17.33-28.12,19.26-32.84-1.24-1.76-4.73-5-8.62-8.07Z"/>
          <path class="cls-8" d="M354.22,711.59l46.71-41.43v-32.57c-12.44,10.89-25.65,21.93-39.58,33.01l-7.13,41Z"/>
          <path class="cls-8" d="M385.2,550.53c0,9.6,7.96,17.42,17.74,17.42s17.74-7.81,17.74-17.42-7.96-17.42-17.74-17.42-17.74,7.81-17.74,17.42Z"/>
          <path class="cls-8" d="M314.87,547.51c-10.29-1.46-21.22-2.97-25.4-3.46-5.6,4.21-26.43,22.35-47.28,40.88l32.64,2.91c5.32-5.63,20.65-21.66,40.03-40.33Z"/>
          <path class="cls-22" d="M373.86,550.53c0,15.74,13.05,28.55,29.08,28.55s29.08-12.81,29.08-28.55-13.05-28.55-29.08-28.55-29.08,12.81-29.08,28.55ZM420.69,550.53c0,9.6-7.96,17.42-17.74,17.42s-17.74-7.81-17.74-17.42,7.96-17.42,17.74-17.42,17.74,7.81,17.74,17.42Z"/>
          <g>
            <path class="cls-1" d="M714.29,517.89c.11-.26.25-.51.3-.77-.95-2.32-7.32-4.43-15.53-6.25v6.13c6.21.38,11.5.68,15.23.89Z"/>
            <path class="cls-1" d="M687.72,299.08v-39.6h-35v39.39c15.52-.34,28.02-.04,35,.21Z"/>
            <path class="cls-1" d="M685.56,333.48c.7.02,1.43.04,2.17.06v-23.29c-4.4-.15-11.3-.33-19.96-.33-4.56,0-9.63.06-15.04.18v23.84c10.62-1.05,22.34-.74,32.83-.46Z"/>
            <path class="cls-1" d="M687.72,687.79v-148.71c-10.41,1.69-22.33,2.81-35,3.67v140.81c11.79,2.4,24.55,3.6,35,4.23Z"/>
            <path class="cls-1" d="M687.72,497.36v-152.7c-.82-.02-1.63-.04-2.48-.07-10.11-.28-22.27-.6-32.52.48v147.14c5.21.81,10.47,1.54,15.04,2.18,7.33,1.02,13.97,1.98,19.96,2.97Z"/>
            <path class="cls-1" d="M612.19,570.62c-5.03,35.48-2.24,86.5,8.9,99.08,4.28,4.83,11.62,8.39,20.29,11.03v-137.27c-2.3.13-4.61.26-6.94.38-6.45.34-11.59.61-14.62.93-1.4,1.2-5.06,7.67-7.64,25.85Z"/>
            <path class="cls-1" d="M626.31,485.5c1.39,1.7,7.46,3.32,15.07,4.79v-143.04c-3.2,1-5.87,2.29-7.69,4.02-14.5,13.83-12.57,119.67-7.38,134.22Z"/>
            <path class="cls-1" d="M187.47,773.93c-35.12-14.36-51.46-99.36-56.33-136.34,0,0,99.5,30.05,191.19,4.19,91.7-25.86,109.74-89.4,159-98.32,49.26-8.93,101.45-58.72,102.91-57.77,1.46.96,19.32,22.1,38.23,25.17,4.03.66,10.79,1.36,18.91,2.08v-11.36c-14.82-2.8-23.53-6.11-25.78-12.41-5.45-15.3-9.25-127.34,10.18-145.88,3.82-3.64,79.55-6.78,85.88-8.3l-7.35-24.52c-33.08,1.35-138.55,5.74-170.51,18.29-64.97,25.51-146.78,54.98-203.15,56.41-88.42,2.25-225.13,13.37-237.76,30.07-5.48,7.25-1.49,14.11,6.62,26.6,8.69,13.38,19.51,30.02,11.73,51.66l-1.82,5.03c-12.26,33.73-24.93,68.6-.23,162.9l2.96,11.36c23.8,91.55,33.71,129.43,144.33,122.37,23.85-1.52,47.2-6.2,69.69-12.6-34.9,1.17-111.89,2.35-138.71-8.62Z"/>
            <path class="cls-1" d="M652.73,1922.2c15.9,5.98,29.29,2.32,35,.12V736.86c-9.43-.81-21.07-2.63-35-5.12v1190.46Z"/>
            <path class="cls-1" d="M687.72,516.29v-7.62c-7.68-1.32-15.56-2.42-21.55-3.25-4.83-.67-9.29-1.31-13.45-1.94v10.39c11.31.88,23.83,1.72,35,2.42Z"/>
            <path class="cls-1" d="M708.27,331.15c1.08-5.23,2.56-12.4-.58-16.25-1.81-2.22-5.15-3.37-8.63-3.93v22.71c3.75-.03,7.01-.19,8.82-.61.12-.61.25-1.26.39-1.93Z"/>
            <g class="cls-17">
              <path class="cls-21" d="M707.61,517.5c-10.79-.68-42.7-2.7-53.7-3.54-8.24-.72-27.44-2.44-31.43-3.09-18.91-3.07-36.76-24.22-38.23-25.17-1.46-.96-53.65,48.84-102.91,57.77-49.26,8.93-67.31,72.47-159,98.32-91.7,25.86-191.19-4.19-191.19-4.19,4.88,36.98,21.22,121.98,56.33,136.34,26.82,10.97,103.81,9.79,138.71,8.62,41.06-11.68,79.24-29.2,112.2-44.35,39.71-18.26,74-34.03,100.39-34.03s63.27,6.77,94.95,12.74c2.51.47,70.46,8.9,73.05,9.39l13.5-23.59c-12.22-3.34-101.4-18.56-107.73-25.71-18-20.33-17.31-102.76-6.11-131.19,1.09-2.77,4.42-11.21,11.68-12.05,3.32-.38,8.8-.67,15.73-1.03,2.59-.14,24.39.16,26.86.01l-.63-1.79c10.8-.92,20.04-2,27.65-3.23l19.89-10.21Z"/>
            </g>
          </g>
          <path class="cls-21" d="M233.37,814c-103.27,0-116.32-50.27-138.79-136.7l-2.95-11.32c-26.12-99.73-12.47-137.28.73-173.6l1.8-4.97c4.44-12.35-.77-21.75-9.88-35.77-8.12-12.49-19.24-29.59-5.89-47.26,7.04-9.32,26.21-20.03,115-28.87,49-4.88,104.33-7.58,136.81-8.41,53.53-1.36,133.37-30.2,196.95-55.16,63.1-24.78,160.04-19.9,166.74-19.53,12.89.3,22.34,4.11,28.09,11.31,8.35,10.46,5.69,23.36,4.09,31.06-.22,1.08-.43,2.07-.57,2.94-2.32,14.84-18.33,14.4-40.43,13.81-14.17-.38-40.53-1.09-46.69,4.79-10.87,12.06-10.53,103.49-6.26,124.37,6.44,2.64,24.35,5.13,36.57,6.83,32.43,4.51,52.72,7.85,60.72,19.16,2.93,4.15,3.99,9.13,2.99,14.03-4.36,21.3-36.29,26.83-97.61,30.04-4.34.23-8.27.43-11.2.64-9.22,17.82-9.98,99.47,2.59,113.65,8.53,9.63,34.86,15.19,78.27,16.52,4.84.15,7.05.22,8.73.46,8.25,1.15,15.21,8.57,18.16,19.35,3.83,13.98-.81,28.27-12.1,37.28-12.39,9.88-37.6,5.66-88.89-4-30.89-5.82-65.9-12.42-91.56-12.42-22.4,0-55,15-92.76,32.36-52.39,24.09-117.58,54.07-188.35,58.59-8.61.55-16.7.82-24.29.82ZM667.62,316.84c-32.83,0-90.96,2.52-131.34,18.38-65.48,25.71-148.01,55.42-205.44,56.88-101.66,2.6-219.41,14.29-232.68,27.57-1.98,2.64-1.34,5.42,7.07,18.36,9.03,13.9,21.4,32.93,12.45,57.85l-1.83,5.05c-12.44,34.22-24.18,66.54-.04,158.73l2.96,11.36c24.1,92.7,32.23,123.94,137.3,117.22,66.14-4.22,129-33.13,179.5-56.35,40.42-18.59,75.34-34.65,103.21-34.65s64.23,6.83,96.19,12.85c25.75,4.86,60.88,11.48,69.13,8.65,2.14-1.86,3.29-4.03,3.51-6.64.19-2.2-.31-4.15-.84-5.44-.89-.03-1.93-.06-3.09-.09-37.68-1.15-78.58-5.02-96.22-24.93-20.98-23.69-18.44-109.5-7.57-137.89,3.95-10.32,9.82-16,17.45-16.88,3.53-.41,9.1-.7,16.15-1.07,32.44-1.7,54.66-4.26,66.38-7.64-9.86-2.42-24.56-4.47-34.62-5.87-34.58-4.8-51.4-7.7-56.06-20.76-5.43-15.24-11.5-130.94,11.93-153.29,13.7-13.07,40.75-12.34,64.63-11.69,5.29.14,11.94.32,16.43.15.74-4.19.83-6.67.27-7.37-.01-.02-1.74-1.77-9.29-1.92-.16,0-.31,0-.47-.02-.31-.02-10.03-.55-25.06-.55Z"/>
          <path class="cls-21" d="M356.12,675.1c-.3,0-.61-.02-.91-.06-1.99-.24-3.8-1.27-5.03-2.86l-18.29-23.7c-1.94-2.51-2.09-5.97-.37-8.64,7.86-12.23,16.77-27.03,19.45-32.75-1.37-1.56-3.9-3.88-6.69-6.13l-45.75,22.38c-3.17,1.56-6.99.68-9.19-2.09l-18.12-22.98c-2.29-2.91-2.12-7.06.41-9.76,3.99-4.27,98.35-104.94,145.62-121.88,54.88-19.68,87.83-16.58,100.7,9.48,15,30.37-51.1,113.37-157.17,197.37-1.33,1.05-2.97,1.62-4.66,1.62ZM346.99,643.49l10.41,13.49c107.57-86.37,155.33-157.56,147.09-174.23-8.76-17.74-36.41-18.42-82.19-2-38.43,13.77-115.97,93.14-135.29,113.33l10.35,13.13,44.48-21.76c2.49-1.22,5.45-.96,7.69.66,17.01,12.3,17.01,18.21,17.01,20.44,0,2.02,0,6.13-19.56,36.94Z"/>
          <path class="cls-21" d="M277.12,601.13c-.22,0-.45,0-.68-.03l-48.29-4.31c-2.98-.27-5.51-2.27-6.45-5.11-.94-2.84-.11-5.96,2.12-7.95,59.2-52.9,60.68-52.9,64.26-52.9,1.81,0,15.31,1.81,40.12,5.38,4.1.59,6.94,4.39,6.35,8.49-.59,4.1-4.41,6.92-8.49,6.35-14.28-2.06-30.18-4.28-36.09-5-5.88,4.55-24.21,20.5-43.21,37.34l31.01,2.77c4.13.37,7.17,4.01,6.8,8.14-.35,3.9-3.62,6.83-7.46,6.83Z"/>
          <path class="cls-21" d="M345.87,733.99c-1.25,0-2.51-.31-3.65-.95-2.79-1.55-4.28-4.69-3.74-7.83l10.24-58.89c.71-4.08,4.59-6.83,8.67-6.11,4.08.71,6.81,4.59,6.11,8.67l-6.57,37.77,42.16-37.4v-44.19c0-4.14,3.36-7.5,7.5-7.5s7.5,3.36,7.5,7.5v47.57c0,2.15-.92,4.19-2.52,5.61l-60.73,53.87c-1.41,1.25-3.19,1.89-4.98,1.89Z"/>
          <path class="cls-21" d="M402.94,581.02c-17.05,0-30.91-13.67-30.91-30.48s13.87-30.48,30.91-30.48,30.91,13.67,30.91,30.48-13.87,30.48-30.91,30.48ZM402.94,535.05c-8.77,0-15.91,6.95-15.91,15.48s7.14,15.48,15.91,15.48,15.91-6.95,15.91-15.48-7.14-15.48-15.91-15.48Z"/>
          <path class="cls-21" d="M476.7,560.43c-2.21,0-4.4-.97-5.88-2.83l-61.5-77.39c-2.58-3.24-2.04-7.96,1.21-10.54,3.24-2.58,7.96-2.04,10.54,1.21l61.5,77.39c2.58,3.24,2.04,7.96-1.21,10.54-1.38,1.1-3.02,1.63-4.66,1.63Z"/>
          <path class="cls-21" d="M261.01,689.47c-1.98,0-3.92-.78-5.36-2.26-2.27-2.32-2.79-5.84-1.28-8.72l34.21-65.36c1.92-3.67,6.45-5.09,10.12-3.17,3.67,1.92,5.09,6.46,3.17,10.12l-23.51,44.91,56.14-27.82c3.71-1.84,8.21-.32,10.05,3.39,1.84,3.71.32,8.21-3.39,10.05l-76.82,38.07c-1.06.52-2.2.78-3.33.78Z"/>
        </g>
        <g>
          <path class="cls-11" d="M633.48,1149.93l-1.02-68.11c-.03-1.68.72-3.28,2.03-4.36,1.31-1.08,3.07-1.52,4.73-1.19,1.45.27,36.33,6.47,55.37-21.57,1.98-2.92,3.7-6.63,5.16-10.83-.22-.95-.21-1.96.13-2.95.3-.89.82-1.65,1.47-2.26,5.91-22.04,5.17-55.22-6.02-81.48-6.03-14.17-17.66-31.89-38.8-35.9-1.82-.34-3.7-.51-5.64-.51-11.84,0-25.74,6.29-38.33,17.57-27.37,24.53-41.25,63.42-37.11,104.05,5.83,57.21,41.15,93.33,58.02,107.53Z"/>
          <path class="cls-11" d="M1935.05,1112c19.82,16.77,17.96,44.97,16.47,67.63-.72,10.96-1.47,22.29,1.22,26.52.35.55.9,1.14,2.4,1.42,9.44,1.81,31.44-10.86,43.09-19.24.99-.71,2.17-1.08,3.35-1.08.85,0,1.71.19,2.51.57,1.89.92,3.12,2.79,3.16,4.87.78,33.63,7.32,83.78,19.4,90,5.59,2.87,30.25-.53,52.7-20.17,20.24-17.72,49.54-59.28,18.39-138.56-47.83-121.74-213.11-191.45-236.02-200.6-48.42,31.29-64.96,88.54-69.03,106.11,61.74,12.68,104.7,49.93,133.41,74.83,3.17,2.75,6.15,5.33,8.94,7.7Z"/>
          <path class="cls-11" d="M713.06,1038.68c10.05,1.14,18.17-3.17,23.53-7.44,15.5-12.36,24.13-36.45,21.46-59.96-3.41-30.15-36.64-43.76-51.2-48.32l-.32,31.87c10.28,25.51,12.38,58.99,6.53,83.85Z"/>
          <g>
            <path class="cls-1" d="M621.08,992.57c36.19-18.22,72.27-7.94,82.56-4.33-1.47-10.69-4.17-21.34-8.3-31.05-6.03-14.17-17.66-31.89-38.8-35.9-1.82-.34-3.7-.51-5.64-.51-11.84,0-25.74,6.29-38.33,17.57-27.37,24.53-41.25,63.42-37.11,104.05,1.43,14.01,4.64,26.73,8.9,38.19-.07-22.68,3.97-71.53,36.72-88.02Z"/>
            <path class="cls-1" d="M2022.84,1118.62c29.26,52.19,44.38,93.37,60.48,89.54,14.81-3.52,26.08-24.44,27.78-27.76-.94-16.23-4.92-34.93-13.37-56.43-47.83-121.74-213.11-191.45-236.02-200.6-34.8,22.49-53.14,58.39-62.2,83.33,0,0,194.07,59.74,223.33,111.93Z"/>
            <path class="cls-1" d="M718.38,994.37s12.44-27.65,21.22-28.73c5.11-.63,13.26,4.11,18.81,9.81-.08-1.39-.19-2.78-.35-4.18-3.41-30.15-36.64-43.76-51.2-48.32l-.32,31.87c4.69,11.63,7.59,24.92,8.9,38.29l2.95,1.25Z"/>
            <path class="cls-1" d="M1952.1,1151.67c.04.58.07,1.16.1,1.75.1-.82.16-1.28.16-1.28l-.26-.47Z"/>
            <path class="cls-1" d="M1955.13,1207.58c1.55.3,3.47.17,5.6-.23-2.48-.07-4.58-.07-5.6.23Z"/>
            <g class="cls-17">
              <path class="cls-21" d="M621.08,992.57c-32.76,16.49-36.79,65.34-36.72,88.02,13.14,35.37,36.38,58.61,49.13,69.34l-1.02-68.11c-.03-1.68.72-3.28,2.03-4.36,1.31-1.08,3.07-1.52,4.73-1.19,1.45.27,36.33,6.47,55.37-21.57,1.98-2.92,3.7-6.63,5.16-10.82-.22-.95-.21-1.96.13-2.95.3-.89.82-1.65,1.47-2.26,3.73-13.9,4.8-32.21,2.29-50.43-10.28-3.61-46.37-13.89-82.56,4.33Z"/>
            </g>
            <g class="cls-18">
              <path class="cls-4" d="M692.88,1073.32c11.89-5.98,15.09-15.42,15.85-21.29-1.38,3.25-2.93,6.25-4.7,8.85-3.38,4.98-7.16,9.08-11.15,12.44Z"/>
            </g>
            <g class="cls-17">
              <path class="cls-21" d="M739.6,965.64c-8.78,1.08-21.22,28.73-21.22,28.73l-2.95-1.25c1.56,15.96.82,32.03-2.37,45.56,10.05,1.14,18.17-3.17,23.53-7.44,14.58-11.63,23.07-33.64,21.81-55.78-5.55-5.7-13.69-10.44-18.81-9.81Z"/>
            </g>
            <g class="cls-17">
              <path class="cls-21" d="M1960.73,1207.35c10.82-2.04,27.76-12.01,37.5-19.01.99-.71,2.17-1.08,3.35-1.08.85,0,1.71.19,2.51.57,1.89.92,3.12,2.79,3.16,4.87.78,33.63,7.32,83.78,19.4,90,5.59,2.87,30.25-.53,52.7-20.17,14.75-12.91,34.29-38.51,31.76-82.13-1.71,3.32-12.97,24.23-27.78,27.76-16.1,3.83-31.22-37.35-60.48-89.54-29.26-52.19-223.32-111.93-223.33-111.93-3.55,9.76-5.68,17.84-6.82,22.78,61.74,12.68,104.7,49.93,133.41,74.83,3.17,2.75,6.15,5.33,8.94,7.7,12.11,10.24,16.11,24.76,17.06,39.67l.26.47s-.06.45-.16,1.28c.43,8.93-.15,17.94-.69,26.22-.72,10.96-1.47,22.29,1.22,26.52.35.55.9,1.14,2.4,1.42,1.01-.3,3.11-.3,5.6-.23Z"/>
            </g>
          </g>
          <g>
            <path class="cls-21" d="M639.32,1173.96c-2.35,0-4.7-.66-6.76-1.98-2.72-1.75-66.62-43.73-75.18-127.75-4.66-45.71,11.06-89.97,42.04-118.4,19.37-17.77,41.45-25.88,60.52-22.27,23.28,4.41,41.45,20.86,52.54,47.58,15.3,36.85,14,88.92-2.83,113.69-16.92,24.91-42.6,29.86-58.82,30.21l.99,66.24c.07,4.61-2.4,8.88-6.43,11.11-1.89,1.05-3.98,1.57-6.07,1.57ZM650.9,927.72c-10.34,0-23.15,6.04-34.58,16.53-25.19,23.12-37.93,59.54-34.07,97.44,4.46,43.82,27.09,74.74,44.16,92.26l-.78-52.02c-.06-3.76,1.58-7.35,4.47-9.77,2.89-2.42,6.69-3.42,10.4-2.69,1.24.22,32.03,5.52,48.47-18.69,10.85-15.97,13.4-58.79.42-90.06-5.37-12.94-15.65-29.1-34.11-32.6-1.4-.26-2.86-.4-4.38-.4Z"/>
            <path class="cls-21" d="M716.39,1056.97c-4.97,0-9.99-.79-14.96-2.4-6.57-2.12-10.18-9.16-8.06-15.73,2.12-6.57,9.15-10.17,15.73-8.06,10.19,3.29,18.48-1.05,23.64-5.28,13.46-11.01,20.91-32.49,18.54-53.43-2.44-21.54-23.01-33.54-37.68-39.43l-.24,23.27c-.07,6.86-5.65,12.37-12.5,12.37h-.13c-6.9-.07-12.44-5.72-12.37-12.63l.41-40.12c.04-3.74,1.75-7.26,4.66-9.61,2.91-2.34,6.72-3.26,10.38-2.51,2.71.56,66.49,14.33,72.32,65.83,3.34,29.49-7.48,59.16-27.55,75.59-9.79,8.01-20.86,12.12-32.18,12.12Z"/>
            <path class="cls-21" d="M2032.29,1301.65c-5.37,0-10.15-.93-13.99-2.91-19.29-9.92-25.93-52.75-28.19-83.94-12.1,6.61-27.09,12.68-38.45,10.51-6.14-1.18-11.07-4.46-14.27-9.49-5.86-9.2-5-22.25-4-37.36,1.29-19.6,2.75-41.81-10.11-52.7-2.85-2.41-5.89-5.05-9.12-7.85-28.07-24.34-70.49-61.13-130.33-71.74-6.73-1.19-11.25-7.56-10.16-14.3.55-3.43,14.36-84.45,80.9-125.38,3.28-2.02,7.31-2.41,10.93-1.06,7.94,2.97,195.09,74.3,249.18,211.97,34.72,88.36,1.15,136.6-21.95,157.49-18.24,16.5-42.6,26.77-60.43,26.77ZM2001.58,1180.32c1.9,0,3.81.43,5.57,1.31,4.15,2.07,6.82,6.26,6.93,10.89.92,38.98,8.43,79.03,15.75,84.04,4.47,1.48,29.79-2.87,50.58-24.57,19.5-20.36,37.24-58.65,10.99-125.47-44.95-114.39-197.29-182.34-228.91-195.39-39.15,26.93-55.59,71.94-61.42,93.09,59.69,14.27,101.3,50.36,129.46,74.79,3.15,2.73,6.11,5.3,8.89,7.65,22.49,19.03,20.42,50.47,18.91,73.43-.44,6.68-1.07,16.3-.29,20.71,6.67-.58,23.13-8.72,36.25-18.13,2.17-1.56,4.72-2.35,7.3-2.35Z"/>
          </g>
        </g>
        <g>
          <path class="cls-22" d="M1952.27,389.3c-21.06-34.46-31.44-75.82-27-119.09,10.78-105.03,104.67-181.43,209.7-170.65,105.03,10.78,181.43,104.67,170.65,209.7s-104.67,181.43-209.7,170.65c-29.21-3-56.2-12.45-79.73-26.76l-88.47,19.84,24.55-83.7Z"/>
          <g class="cls-15">
            <path class="cls-11" d="M2306.05,295.09c.24-2.36.39-4.71.55-7.07-.75-96.17-73.73-178.41-171.62-188.46-105.03-10.78-198.92,65.62-209.7,170.65-.21,2.01-.35,4.01-.49,6,20.1-94.24,108.4-160.14,206.44-150.08,98.15,10.08,171.27,92.72,171.64,189.21,1.4-6.62,2.48-13.38,3.19-20.26Z"/>
          </g>
          <path class="cls-21" d="M2115.82,492.5c-7,0-14.03-.36-21.09-1.08-28.68-2.95-55.73-11.68-80.49-25.97l-83.99,18.84c-3.99.9-8.16-.39-10.97-3.38-2.8-2.99-3.81-7.23-2.66-11.16l23.13-78.86c-21.4-37.06-30.38-79.07-25.99-121.85,11.42-111.21,111.16-192.42,222.39-180.97,111.21,11.42,192.39,111.18,180.97,222.39-5.53,53.87-31.71,102.36-73.71,136.55-36.5,29.7-81.16,45.51-127.59,45.51ZM2016.19,441.59c2.1,0,4.18.58,6.01,1.68,22.89,13.92,48.09,22.38,74.9,25.13,98.54,10.12,186.9-61.8,197.02-160.33,10.11-98.52-61.81-186.9-160.33-197.02-47.71-4.91-94.5,9.08-131.71,39.36-37.21,30.28-60.4,73.24-65.3,120.97-4.05,39.42,4.72,78.11,25.37,111.88,1.7,2.78,2.15,6.15,1.23,9.28l-19.02,64.86,69.32-15.54c.83-.19,1.68-.28,2.53-.28Z"/>
          <g class="cls-17">
            <path class="cls-21" d="M1951.2,387.47c52.36,44.29,124.5,63.69,196.14,45.86,79.45-19.77,137.98-80.27,159.03-153.69.5,9.74.28,19.63-.75,29.63-10.78,105.03-104.67,181.43-209.7,170.65-29.21-3-56.2-12.45-79.73-26.76l-88.47,19.84,24.55-83.7c-.37-.6-.71-1.23-1.07-1.84Z"/>
          </g>
          <path class="cls-11" d="M2054.31,236.05h0c16.54-16.54,43.37-13.58,59.91,2.96l2.58,2.57,2.57-2.57c16.54-16.54,43.37-19.51,59.91-2.96h0c16.54,16.54,16.54,43.37,0,59.91l-2.58,2.58-52.02,52.02c-4.36,4.36-11.43,4.36-15.8,0l-52.02-52.02-2.57-2.57c-16.54-16.54-16.54-43.37,0-59.91Z"/>
        </g>
      </g>
    </g>
  </g>
</svg>