<?xml version="1.0" encoding="UTF-8"?>
<svg id="Livello_2" data-name="Livello 2" xmlns="http://www.w3.org/2000/svg" viewBox="0 0 105.4 105.4">
  <defs>
    <style>
      .cls-1 {
        fill: #a3702f;
      }

      .cls-1, .cls-2, .cls-3, .cls-4, .cls-5, .cls-6, .cls-7 {
        fill-rule: evenodd;
      }

      .cls-2 {
        fill: #ffebbc;
      }

      .cls-3 {
        fill: #dabd86;
      }

      .cls-4 {
        fill: #fae2aa;
      }

      .cls-5 {
        fill: #bd8c51;
      }

      .cls-6 {
        fill: #eccd94;
      }

      .cls-7 {
        fill: #c09d6d;
      }
    </style>
  </defs>
  <g id="OBJECTS">
    <g>
      <path class="cls-4" d="M37.69,2.2C9.8,10.48-6.09,39.81,2.2,67.71c8.29,27.89,37.62,43.79,65.51,35.5,27.89-8.29,43.79-37.62,35.5-65.51C94.92,9.8,65.59-6.09,37.69,2.2Z"/>
      <path class="cls-5" d="M70.75,67.04c1.99,0,3.62-1.63,3.62-3.62s-1.63-3.62-3.62-3.62-3.62,1.63-3.62,3.62,1.62,3.62,3.62,3.62Z"/>
      <path class="cls-6" d="M96.3,43.05c0,27.7-22.45,50.15-50.15,50.15-19.18,0-35.84-10.77-44.28-26.59,6.1,22.35,26.55,38.78,50.83,38.78,29.1,0,52.69-23.59,52.69-52.69,0-17.2-8.24-32.47-20.98-42.08,7.42,8.74,11.9,20.07,11.9,32.43Z"/>
      <path class="cls-3" d="M62.75.97c-4.52,5.22-13.46,13.93-25.77,18.37-10.07,3.63-18.69,1.69-24.4-.8,6.39-7.52,14.95-13.33,25.11-16.35C46.12-.31,54.68-.6,62.75.97h0ZM105.18,47.96c-.31-3.41-.96-6.85-1.98-10.26-2.2-7.4-5.88-13.96-10.63-19.45-.04.07-.09.13-.13.21-3.75,6.58-29.04,21.31-46.36,26.46-17.32,5.15,7.8-2.32-20.85,6.19C9.96,55.65,3.1,55.2.02,53.8c.1,4.61.8,9.28,2.18,13.91.07.25.15.49.23.73,8.29.87,22.24-3.2,33.48-6.53,14-4.16,18.39-5.46,42.87-12.74,12.95-3.85,21.36-2.93,26.41-1.21h0ZM99.04,77.78c-4.83-.97-12.11-1.25-21.76,1.61-18.92,5.62-30.9,9.18-41.38,12.29-3.99,1.19-7.21,3.8-9.66,6.58-6.45-3.74-12.12-8.86-16.53-15.07l93.84-16.69c-1.07,3.93-2.59,7.71-4.52,11.28Z"/>
      <path class="cls-7" d="M96.3,43.05c0,1.15-.04,2.3-.12,3.43,3.75.09,6.72.7,9,1.47-.07-.76-.15-1.51-.25-2.26-.36-2.67-.93-5.34-1.72-8-1.01-3.41-2.34-6.64-3.94-9.67-1.86-3.51-4.11-6.78-6.69-9.76-.04.06-.08.13-.12.2-.34.6-.86,1.26-1.53,1.98,3.44,6.79,5.38,14.48,5.38,22.62h0ZM89.02,69.09c-2.02,3.31-4.41,6.37-7.12,9.12,7.38-1.57,13.11-1.24,17.13-.43,1.93-3.56,3.44-7.35,4.52-11.28l-14.53,2.58h0ZM35.05,91.96c-7.49-1.69-14.35-5.06-20.16-9.7l-5.17.92c2.99,4.21,6.59,7.97,10.67,11.14l.2.16.45.34c1.66,1.25,3.4,2.4,5.2,3.44,2.27-2.58,5.21-5.01,8.81-6.3h0ZM2.92,68.48c-.35-.6-.7-1.21-1.02-1.82.1.35.2.7.3,1.05.07.25.15.49.23.73.16.02.33.03.5.04Z"/>
      <path class="cls-5" d="M83.83,10.19l-21.49,6.39c-9.84,2.92-7.97,5.28-22.83,9.69-12.77,3.8-24.6,2.41-32.23-.25-1.53,2.6-2.83,5.33-3.89,8.15,7.92,2.25,22.03,4.45,38.51-1.05,25.51-8.51,14.67-8.2,31.67-13.25l16.07-4.78c-1.82-1.78-3.75-3.42-5.79-4.91h0ZM94,85.42c-13.65-.57-36.06,1.61-56.8,17.63,9.6,2.97,20.16,3.23,30.52.15,10.8-3.21,19.79-9.57,26.29-17.78h0ZM104.34,63.21c-.29,1.4-.62,2.78-1.02,4.14l-50.74,15.07-34.28,10.19c-5.36-4.62-9.84-10.35-13.04-16.99,3.52-1.1,11.01-3.41,16.83-4.96,7.87-2.11,15.22,1.88,24.85,1.81,9.64-.07,11.44-4.56,16.1-4.55,4.66.01,11.79,4.06,20.67,1.42l20.62-6.13h0ZM103.81,39.9c-2.82-1.15-7.35-1.69-14.41.41-14.86,4.42-27.9,8.29-40.95,12.17-13.04,3.88-26.09,7.75-31.43,9.34-3.68,1.09-10.89,2.02-16.09.68-.23-1.21-.41-2.42-.56-3.63,3.84.93,10.18,1.14,20.12-1.81,19.57-5.81,42.98-12.77,53.46-15.88,7.95-2.36,19.08-9.35,24.18-15.18,2.12,3.6,3.84,7.52,5.08,11.71.22.73.41,1.47.6,2.2Z"/>
      <path class="cls-1" d="M88.1,15.56l1.51-.45c-1.1-1.08-2.25-2.11-3.44-3.09h0s0,0,0,0l-.09-.07-.28-.23-.09-.07c-.43-.34-.86-.68-1.3-1.01,1.33,1.56,2.56,3.21,3.69,4.93h0ZM89.95,67.48c-.91,1.63-1.91,3.21-3,4.73l16.37-4.86c.4-1.36.74-2.75,1.02-4.14l-14.39,4.27h0ZM68.47,87.97c-4.07,2.03-8.46,3.51-13.07,4.38-6.04,2.59-12.19,6.07-18.21,10.71,1.63.5,3.3.93,4.98,1.28l.14.03c.21.04.42.08.63.12,3.17.59,6.43.91,9.77.91,2.68,0,5.3-.2,7.88-.59l.38-.06c.19-.03.38-.06.57-.09,2.06-.35,4.12-.83,6.18-1.44,3.24-.96,6.31-2.21,9.21-3.7.29-.15.59-.31.88-.46l.04-.02c6.26-3.4,11.75-8.04,16.15-13.59-6.78-.28-15.71.11-25.53,2.54h0ZM27.88,89.76c-8.02-3.14-15.04-8.28-20.43-14.82-.83.26-1.57.49-2.19.68.38.79.78,1.57,1.19,2.33l.17.3.2.35c3,5.31,6.9,10.04,11.49,14l9.58-2.85h0ZM98.18,26.09l-.06-.1c-1.01,1.15-2.25,2.35-3.66,3.55.85,3.04,1.42,6.19,1.68,9.43,3.39-.28,5.88.2,7.67.93-.19-.74-.38-1.47-.6-2.2-1.18-3.98-2.8-7.72-4.77-11.17l-.02-.02-.1-.17v-.02s-.14-.22-.14-.22Z"/>
      <path class="cls-2" d="M13.95,42.26c-.61,2.07-2.78,3.25-4.84,2.64-2.07-.61-3.25-2.77-2.64-4.84,1.93-6.48,5.19-12.44,9.46-17.58,4.33-5.21,9.68-9.57,15.71-12.76,1.91-1,4.27-.27,5.27,1.63,1,1.91.27,4.26-1.64,5.27-5.14,2.72-9.69,6.42-13.36,10.83-3.6,4.33-6.35,9.35-7.97,14.81h0ZM45.95,12.67c-2.1.47-4.19-.85-4.66-2.95-.47-2.1.85-4.19,2.95-4.66,1.03-.23,2.12-.44,3.25-.62,1.08-.17,2.17-.31,3.26-.41,2.14-.19,4.04,1.39,4.23,3.53.19,2.14-1.39,4.04-3.53,4.23-.93.09-1.86.2-2.78.35-.88.14-1.79.31-2.73.52Z"/>
      <path class="cls-5" d="M31.44,39.38c2.04,0,3.71-1.67,3.71-3.71s-1.67-3.71-3.71-3.71-3.71,1.66-3.71,3.71,1.66,3.71,3.71,3.71Z"/>
      <path class="cls-5" d="M38.7,40.24c.82,0,1.49-.67,1.49-1.49s-.67-1.49-1.49-1.49-1.49.67-1.49,1.49.67,1.49,1.49,1.49Z"/>
      <path class="cls-5" d="M50.52,24.51c1.29,0,2.34-1.05,2.34-2.34s-1.05-2.34-2.34-2.34-2.33,1.05-2.33,2.34,1.05,2.34,2.33,2.34Z"/>
      <path class="cls-3" d="M71.56,38.49c2.42,0,4.4-1.98,4.4-4.41s-1.98-4.4-4.4-4.4-4.41,1.98-4.41,4.4,1.98,4.41,4.41,4.41Z"/>
      <path class="cls-3" d="M54.56,90.03c1.88,0,3.41-1.53,3.41-3.41s-1.53-3.41-3.41-3.41-3.41,1.53-3.41,3.41,1.53,3.41,3.41,3.41Z"/>
      <path class="cls-3" d="M41.5,66.48c2.84,0,5.15-2.31,5.15-5.15s-2.32-5.15-5.15-5.15-5.15,2.31-5.15,5.15,2.31,5.15,5.15,5.15Z"/>
      <path class="cls-3" d="M33.9,68.46c1.14,0,2.06-.93,2.06-2.07s-.93-2.06-2.06-2.06-2.06.93-2.06,2.06.93,2.07,2.06,2.07Z"/>
      <path class="cls-3" d="M48.87,61.44c.57,0,1.03-.46,1.03-1.03s-.46-1.03-1.03-1.03-1.03.46-1.03,1.03.46,1.03,1.03,1.03Z"/>
    </g>
  </g>
</svg>