<?xml version="1.0" encoding="UTF-8"?>
<svg id="Livello_2" data-name="Livello 2" xmlns="http://www.w3.org/2000/svg" viewBox="0 0 105.4 105.4">
  <defs>
    <style>
      .cls-1 {
        fill: #a9d1c1;
      }

      .cls-1, .cls-2, .cls-3, .cls-4, .cls-5, .cls-6 {
        fill-rule: evenodd;
      }

      .cls-2 {
        fill: #96c7b3;
      }

      .cls-3 {
        fill: #3da2aa;
      }

      .cls-4 {
        fill: #91d1df;
      }

      .cls-5 {
        fill: #a5d9e7;
      }

      .cls-6 {
        fill: #54b9c3;
      }
    </style>
  </defs>
  <g id="OBJECTS">
    <g>
      <path class="cls-6" d="M37.69,2.2C9.8,10.48-6.09,39.81,2.2,67.71c8.29,27.89,37.62,43.79,65.51,35.5,27.89-8.29,43.79-37.62,35.5-65.51C94.92,9.8,65.59-6.09,37.69,2.2Z"/>
      <path class="cls-5" d="M13.95,42.26c-.61,2.07-2.77,3.25-4.84,2.64-2.07-.61-3.25-2.77-2.64-4.84,1.93-6.48,5.19-12.44,9.47-17.58,4.33-5.21,9.68-9.57,15.71-12.76,1.91-1,4.27-.27,5.27,1.63,1,1.9.27,4.26-1.63,5.27-5.14,2.72-9.69,6.42-13.36,10.83-3.6,4.33-6.35,9.35-7.97,14.8h0ZM45.95,12.67c-2.1.47-4.19-.85-4.66-2.95-.47-2.1.85-4.19,2.95-4.66,1.03-.23,2.12-.44,3.25-.62,1.08-.17,2.17-.31,3.26-.41,2.14-.19,4.04,1.39,4.23,3.53.19,2.14-1.39,4.04-3.53,4.23-.93.09-1.86.2-2.78.34-.88.14-1.79.32-2.73.53Z"/>
      <path class="cls-3" d="M96.3,43.05c0,27.7-22.45,50.15-50.15,50.15-19.18,0-35.84-10.77-44.28-26.59,6.1,22.35,26.55,38.78,50.83,38.78,29.1,0,52.69-23.59,52.69-52.69,0-17.2-8.24-32.47-20.98-42.08,7.42,8.74,11.9,20.06,11.9,32.43Z"/>
      <path class="cls-1" d="M5.43,29.43c-1.14,2.32-2.11,4.71-2.9,7.18l11.97-3.21c6.56-1.76,11.99.88,15.4,1.86,3.41.97,9.66,2.76,13.71,3.78,4.05,1.02,9.23.36,15.2-1.24,3.94-1.06,25.61-6.93,39.89-10.81-4.15-7.44-9.97-13.61-16.83-18.16-17.63,4.77-46.02,12.46-52.33,14.15l-24.11,6.46h0ZM.31,58.3l14.52-3.89c7.54-2.02,13.94,5.82,25.79,2.64,8.9-2.39,45.54-12.3,63.21-17.08,1.15,4.6,1.65,9.21,1.56,13.75-17.51,4.74-50.45,13.66-55.45,14.99-6.85,1.84-4.37,7.99-15.23,10.9l-23.02,6.17c-1.24-1.54-2.4-3.15-3.48-4.84l15.55-4.17c8.71-2.34,10.6-5.88,11.27-8.06.68-2.17-.73-3.11-3.07-3.64-2.35-.53-8.92-1.75-14.26-.32l-15.17,4.06c-.12-.37-.24-.74-.35-1.12-.93-3.13-1.55-6.27-1.89-9.4H.31ZM22.51,95.87c2.32,1.62,4.76,3.05,7.3,4.28,1.35-1.69,2.81-3.52,3.97-4.96,2.91-3.61,6.61-4.71,9.94-5.6,3.33-.89,7.19-2.14,14.44-4.08,7.24-1.94,29.93-8.6,36.62-8.3,1.28.06,2.78.2,4.35.38,1.41-2.62,2.59-5.37,3.54-8.2-1.11-.15-2.03-.27-2.62-.31-3.32-.26-4.37-1.03-12.89,1.25-8.52,2.28-38.04,10.04-44.31,11.72-6.27,1.68-8.14,2.92-12.11,6.5-2.4,2.17-5.87,5.23-8.24,7.32Z"/>
      <path class="cls-2" d="M94.08,28.24l4.62-1.25-.18-.33-.26-.46-.04-.07c-3.28-5.6-7.56-10.55-12.6-14.59l-.16-.13-.2-.16c-.28-.22-.55-.43-.84-.64,4.32,5.1,7.65,11.07,9.67,17.62h0ZM96.3,43.05c0,4.73-.66,9.31-1.88,13.65l10.96-2.96c0-.34.01-.69.01-1.03,0-2.12-.13-4.22-.37-6.28l-.03-.2-.03-.21c-.26-2.01-.64-4.03-1.14-6.04l-7.54,2.04c0,.34.01.69.01,1.03h0ZM88.45,70c-2.25,3.52-4.92,6.74-7.95,9.58,6.01-1.43,11.51-2.49,14.28-2.37,1.28.06,2.78.2,4.35.38,1.41-2.62,2.59-5.37,3.54-8.2-1.11-.15-2.03-.27-2.62-.31-3.15-.25-4.25-.95-11.6.91h0ZM36.9,92.34c-2.73-.51-5.39-1.24-7.95-2.18-2.14,1.91-4.62,4.1-6.44,5.71,2.32,1.62,4.76,3.05,7.3,4.28,1.35-1.69,2.81-3.52,3.97-4.96.97-1.2,2.02-2.12,3.12-2.85h0ZM17.52,84.23c-1.89-1.32-3.69-2.77-5.39-4.33l-3.92,1.05c1.07,1.68,2.23,3.3,3.48,4.84l5.82-1.56h0ZM3.05,68.69c-.4-.67-.78-1.34-1.15-2.03.1.35.2.7.3,1.04.11.38.23.75.35,1.12l.5-.13Z"/>
      <path class="cls-4" d="M8.26,35.08c1.09-2.6,2.41-5.09,3.92-7.45l12.73-3.41c-1.05,1.03-2.04,2.11-2.98,3.24-1.41,1.69-2.68,3.49-3.82,5.38-1.16.06-2.36.23-3.61.57l-6.24,1.67Z"/>
      <path class="cls-1" d="M64.76,57.92c4.23,0,7.68-3.45,7.68-7.68s-3.45-7.68-7.68-7.68-7.68,3.45-7.68,7.68,3.45,7.68,7.68,7.68Z"/>
      <path class="cls-1" d="M51.61,52.26c1.89,0,3.43-1.54,3.43-3.43s-1.54-3.43-3.43-3.43-3.43,1.54-3.43,3.43,1.54,3.43,3.43,3.43Z"/>
      <path class="cls-1" d="M75.5,46.15c.85,0,1.54-.69,1.54-1.54s-.69-1.54-1.54-1.54-1.54.69-1.54,1.54.69,1.54,1.54,1.54Z"/>
      <path class="cls-1" d="M59.78,89.99c3.24,0,5.89-2.64,5.89-5.89s-2.64-5.89-5.89-5.89-5.89,2.64-5.89,5.89,2.64,5.89,5.89,5.89Z"/>
      <path class="cls-6" d="M59.78,87.28c1.75,0,3.18-1.43,3.18-3.18s-1.43-3.18-3.18-3.18-3.18,1.43-3.18,3.18,1.43,3.18,3.18,3.18Z"/>
      <path class="cls-6" d="M69,77.41c1.39,0,2.52-1.13,2.52-2.52s-1.13-2.52-2.52-2.52-2.52,1.13-2.52,2.52,1.13,2.52,2.52,2.52Z"/>
      <path class="cls-6" d="M64.22,81.38c.63,0,1.14-.51,1.14-1.14s-.51-1.14-1.14-1.14-1.14.51-1.14,1.14.51,1.14,1.14,1.14Z"/>
      <path class="cls-6" d="M52.02,63.93c2,0,3.62-1.63,3.62-3.62s-1.63-3.62-3.62-3.62-3.62,1.63-3.62,3.62,1.63,3.62,3.62,3.62Z"/>
      <path class="cls-6" d="M81.74,37.89c4.41,0,8.02-3.6,8.02-8.02s-3.6-8.02-8.02-8.02-8.02,3.6-8.02,8.02,3.6,8.02,8.02,8.02Z"/>
      <path class="cls-6" d="M67.47,33.06c1.83,0,3.32-1.49,3.32-3.32s-1.49-3.32-3.32-3.32-3.32,1.49-3.32,3.32,1.49,3.32,3.32,3.32Z"/>
      <path class="cls-6" d="M57.52,34.14c1.16,0,2.11-.95,2.11-2.11s-.95-2.11-2.11-2.11-2.11.95-2.11,2.11.95,2.11,2.11,2.11Z"/>
      <path class="cls-6" d="M86.3,20.73c.7,0,1.28-.57,1.28-1.28s-.58-1.28-1.28-1.28-1.28.58-1.28,1.28.57,1.28,1.28,1.28Z"/>
      <path class="cls-1" d="M81.74,34.32c2.45,0,4.45-2,4.45-4.45s-2-4.45-4.45-4.45-4.45,2-4.45,4.45,2,4.45,4.45,4.45Z"/>
    </g>
  </g>
</svg>