<?xml version="1.0" encoding="UTF-8"?>
<svg id="Livello_2" data-name="Livello 2" xmlns="http://www.w3.org/2000/svg" viewBox="0 0 129.23 94.99">
  <defs>
    <style>
      .cls-1 {
        fill: #dea262;
      }

      .cls-1, .cls-2, .cls-3, .cls-4, .cls-5, .cls-6, .cls-7, .cls-8, .cls-9 {
        fill-rule: evenodd;
      }

      .cls-2 {
        fill: #c28949;
      }

      .cls-3 {
        fill: #ffebbc;
      }

      .cls-4 {
        fill: #fff5dc;
      }

      .cls-5 {
        fill: #e1a15f;
      }

      .cls-6 {
        fill: #e3793c;
      }

      .cls-7 {
        fill: #c68c4b;
      }

      .cls-8 {
        fill: #f6b879;
      }

      .cls-9 {
        fill: #f3d6a2;
      }
    </style>
  </defs>
  <g id="OBJECTS">
    <g>
      <path class="cls-3" d="M51.09,1.98C25.95,9.45,11.63,35.88,19.1,61.02c7.47,25.14,33.9,39.46,59.04,31.99,25.14-7.47,39.46-33.9,31.99-59.04C102.66,8.83,76.23-5.49,51.09,1.98Z"/>
      <path class="cls-9" d="M103.91,38.8c0,24.96-20.24,45.2-45.2,45.2-17.29,0-32.3-9.7-39.91-23.96,5.5,20.14,23.93,34.95,45.81,34.95,26.22,0,47.48-21.26,47.48-47.48,0-15.5-7.42-29.26-18.91-37.93,6.69,7.88,10.72,18.08,10.72,29.23Z"/>
      <path class="cls-8" d="M48,91.98c4.15-4.24,13.15-12.13,25.23-15.43,11.63-3.18,20.61,1.31,25.07,4.42-3.17,3.19-6.85,5.98-11,8.24-12.57,6.84-26.87,7.41-39.3,2.77h0ZM31.42,13.53c12.12.78,29.51-.77,46.63-11.58-11.65-3.44-24.61-2.43-36.12,3.83-3.94,2.14-7.45,4.76-10.51,7.75h0ZM25.58,20.45c4.01.6,9.25.65,15.75-.73,17.4-3.7,28.42-6.04,38.05-8.08,3.66-.78,6.72-2.88,9.12-5.19,6.65,3.86,12.45,9.39,16.69,16.37l-2.82-1.68-81.49,7.88c1.26-3,2.84-5.87,4.71-8.57h0ZM17.13,47.04c4.56,1.24,11.23,1.73,20.69-.28,22.52-4.78,26.55-5.64,39.43-8.38,11.83-2.51,26.92-5.63,33.39-2.61,1.25,4.88,1.68,9.85,1.36,14.75l-1.09.75s1.48-8.02-24.87-2.42c-26.35,5.6-3.25.69-19.17,4.07-15.03,3.19-37.06,13.55-42.71,19.44-.44-.71-.86-1.44-1.27-2.19-4-7.36-5.86-15.32-5.77-23.14h0ZM31.21,81.26l19.04-4.04c9.05-1.92,7.54-4.17,21.21-7.08,13.67-2.9,25.67.4,31.89,4.02.14.08.28.16.41.22,1.6-2.33,2.97-4.79,4.13-7.35-5.59-2.58-19.92-7.71-38.08-3.22-23.53,5.82-13.77,6.32-29.4,9.63l-13.54,2.88c1.34,1.76,2.8,3.41,4.34,4.93Z"/>
      <path class="cls-1" d="M48,91.98c2.06-2.1,5.32-5.11,9.55-8,.39,0,.77.02,1.16.02,9.73,0,18.73-3.07,26.11-8.3,5.99.77,10.64,3.3,13.48,5.27-1.9,1.91-3.95,3.66-6.15,5.22l-.11.08c-.22.16-.45.31-.68.47l-.48.32-.18.12c-1.09.72-2.22,1.39-3.39,2.03-2.93,1.59-5.95,2.85-9.02,3.77l-.18.05c-.26.08-.52.15-.78.22-.22.06-.45.12-.67.18l-.23.06c-3.77.97-7.73,1.48-11.8,1.48-1.67,0-3.32-.09-4.94-.25l-.19-.02c-.22-.02-.44-.05-.66-.08-3.7-.46-7.33-1.35-10.82-2.65h0ZM103.91,38.8c0,2.77-.25,5.49-.73,8.12,8.45.47,7.74,4.36,7.74,4.36l1.08-.74c.06-1.01.1-2.02.1-3.04,0-3.62-.4-7.14-1.17-10.52v-.04h0l-.02-.09-.08-.35c-.06-.24-.11-.47-.17-.71-1.75-.82-4.14-1.19-6.93-1.24.13,1.4.2,2.82.2,4.25h0ZM96.66,63.35c-1.53,2.35-3.26,4.56-5.19,6.58,4.92.96,9.02,2.56,11.88,4.22.14.08.27.15.41.22.5-.72.98-1.46,1.44-2.21l.07-.11c.14-.22.27-.45.4-.68.82-1.41,1.56-2.86,2.23-4.34-2.34-1.08-6.2-2.6-11.23-3.68h0ZM39.18,79.57c-2.54-1.22-4.95-2.67-7.21-4.33l-5.09,1.08c1.33,1.74,2.79,3.39,4.35,4.93l7.96-1.69h0ZM26.42,70.41c-3-3.06-5.57-6.55-7.61-10.37.95,3.45,2.31,6.85,4.09,10.14.41.75.83,1.47,1.27,2.19.58-.61,1.34-1.26,2.25-1.96h0ZM103.35,20.03c-2.83-3.99-6.26-7.52-10.16-10.46,2.97,3.5,5.42,7.46,7.22,11.76l1.95-.19,2.82,1.68c-.58-.96-1.19-1.88-1.83-2.78Z"/>
      <path class="cls-5" d="M17.61,54.31c2.41.52,5.66.58,10.03-.35,13.67-2.9,25.66-5.45,37.66-8,12-2.55,23.99-5.1,28.91-6.14,4.26-.91,13.54-1.17,17.58,2.18.12,1.04.21,2.08.26,3.12-2.37-1.59-8.39-4.02-21.3-1.27-17.99,3.82-39.53,8.4-49.16,10.44-6.6,1.4-15.8,6.01-21.2,10.48-1.34-3.42-2.26-6.93-2.77-10.46Z"/>
      <path class="cls-2" d="M103.9,39.39c3.07.3,6.02,1.07,7.88,2.61.12,1.03.21,2.07.26,3.12-1.36-.91-3.93-2.09-8.3-2.42.09-1.09.15-2.19.16-3.3h0ZM21.24,64.08c-.3.23-.58.46-.86.69-.61-1.56-1.13-3.13-1.57-4.72.74,1.39,1.55,2.74,2.43,4.03Z"/>
      <path class="cls-5" d="M19.93,31.45l14.9-3.17c8.16-1.73,14.28,2.41,18.47,2.76,4.18.34,6.13-3.56,14.79-2.94,8.66.62,14.98,4.73,22.2,3.4,7.22-1.33,17.31-3.67,17.31-3.67l.06-.41c-.41-.88-.85-1.75-1.32-2.62-2.73-5.02-6.23-9.34-10.28-12.92l-32.32,6.86-42.3,8.99c-.55,1.22-1.06,2.45-1.51,3.71Z"/>
      <path class="cls-7" d="M102.82,28.91c2.81-.62,4.76-1.08,4.76-1.08l.06-.41c-.41-.88-.85-1.75-1.32-2.62-.8-1.47-1.67-2.89-2.6-4.24l-.26-.37-.02-.03c-2.14-3.04-4.63-5.82-7.41-8.27l-.87.18c3.63,4.94,6.28,10.65,7.65,16.84Z"/>
      <path class="cls-4" d="M29.69,38.09c-.55,1.86-2.5,2.93-4.36,2.38-1.86-.55-2.93-2.5-2.38-4.36,1.74-5.84,4.68-11.21,8.53-15.85,3.9-4.69,8.72-8.62,14.16-11.5,1.72-.9,3.84-.25,4.75,1.47.9,1.72.25,3.84-1.47,4.75-4.63,2.45-8.73,5.79-12.04,9.76-3.24,3.9-5.72,8.43-7.18,13.34h0ZM58.53,11.42c-1.89.43-3.77-.76-4.2-2.66-.43-1.89.76-3.77,2.66-4.2.93-.21,1.91-.4,2.93-.56.97-.15,1.95-.28,2.94-.37,1.93-.17,3.64,1.25,3.81,3.18.17,1.93-1.25,3.64-3.18,3.81-.84.08-1.68.18-2.5.31-.79.12-1.62.28-2.46.47Z"/>
      <path class="cls-6" d="M100.99,16.96c.34-.01.67-.02,1.01-.03,13.86-.38,23.8,2.99,26.52,10.22,2.72,7.22-2.52,16.32-13.18,25.18-9.85,8.18-24.52,16.47-41.66,22.94h0c-17.15,6.46-33.63,9.92-46.43,10.27-13.86.38-23.8-2.99-26.52-10.22-2.72-7.22,2.51-16.32,13.18-25.17,1.03-.85,2.1-1.7,3.23-2.55,0,2.52.21,5.07.64,7.62-8.37,7-12.72,13.5-11.08,17.86,1.66,4.39,9.32,6.4,20.38,6.1,12.12-.34,27.87-3.66,44.36-9.87,16.5-6.22,30.52-14.12,39.84-21.86,8.51-7.07,12.94-13.64,11.28-18.03-1.49-3.94-7.81-5.96-17.08-6.12-1.33-2.24-2.83-4.35-4.48-6.31Z"/>
      <path class="cls-5" d="M70.93,35.73c3.56,0,6.46-2.9,6.46-6.46s-2.9-6.46-6.46-6.46-6.46,2.9-6.46,6.46,2.9,6.46,6.46,6.46Z"/>
      <path class="cls-3" d="M70.93,33.07c2.09,0,3.79-1.7,3.79-3.79s-1.7-3.79-3.79-3.79-3.79,1.7-3.79,3.79,1.7,3.79,3.79,3.79Z"/>
      <path class="cls-5" d="M60.9,37.97c1.76,0,3.19-1.43,3.19-3.19s-1.43-3.19-3.19-3.19-3.19,1.43-3.19,3.19,1.43,3.19,3.19,3.19Z"/>
      <path class="cls-5" d="M79.55,34.86c.77,0,1.4-.63,1.4-1.4s-.63-1.4-1.4-1.4-1.4.63-1.4,1.4.63,1.4,1.4,1.4Z"/>
      <path class="cls-8" d="M86.93,19.4c2.44,0,4.43-1.99,4.43-4.43s-1.99-4.43-4.43-4.43-4.43,1.99-4.43,4.43,1.99,4.43,4.43,4.43Z"/>
      <path class="cls-5" d="M86.93,17.43c1.35,0,2.46-1.1,2.46-2.46s-1.1-2.46-2.46-2.46-2.45,1.1-2.45,2.46,1.1,2.46,2.45,2.46Z"/>
      <path class="cls-5" d="M93.61,54.7c.79,0,1.43-.64,1.43-1.43s-.64-1.43-1.43-1.43-1.43.64-1.43,1.43.64,1.43,1.43,1.43Z"/>
      <path class="cls-8" d="M83.71,55.37c2.58,0,4.68-2.1,4.68-4.68s-2.1-4.68-4.68-4.68-4.68,2.1-4.68,4.68,2.1,4.68,4.68,4.68Z"/>
      <path class="cls-3" d="M83.71,53.37c1.47,0,2.68-1.2,2.68-2.68s-1.2-2.68-2.68-2.68-2.68,1.2-2.68,2.68,1.2,2.68,2.68,2.68Z"/>
      <path class="cls-8" d="M76.56,58.03c1.1,0,2-.9,2-2s-.9-2-2-2-2,.9-2,2,.9,2,2,2Z"/>
      <path class="cls-8" d="M72.1,55c.49,0,.89-.4.89-.89s-.4-.89-.89-.89-.89.4-.89.89.4.89.89.89Z"/>
      <path class="cls-8" d="M90.42,50.86c.49,0,.89-.4.89-.89s-.4-.89-.89-.89-.89.4-.89.89.4.89.89.89Z"/>
      <path class="cls-4" d="M32.39,38.05c1.9,0,3.46-1.55,3.46-3.46s-1.55-3.46-3.46-3.46-3.46,1.55-3.46,3.46,1.55,3.46,3.46,3.46Z"/>
      <path class="cls-4" d="M39.74,34.26c.96,0,1.74-.78,1.74-1.74s-.78-1.74-1.74-1.74-1.74.78-1.74,1.74.78,1.74,1.74,1.74Z"/>
      <path class="cls-8" d="M37.18,50.38c2.73,0,4.96-2.23,4.96-4.96s-2.23-4.96-4.96-4.96-4.96,2.23-4.96,4.96,2.23,4.96,4.96,4.96Z"/>
      <path class="cls-8" d="M29.05,46.92c1.06,0,1.92-.86,1.92-1.92s-.86-1.92-1.92-1.92-1.92.86-1.92,1.92.86,1.92,1.92,1.92Z"/>
      <path class="cls-8" d="M45.32,44.04c.64,0,1.17-.53,1.17-1.17s-.53-1.17-1.17-1.17-1.17.53-1.17,1.17.53,1.17,1.17,1.17Z"/>
      <path class="cls-3" d="M37.18,48.44c1.66,0,3.02-1.36,3.02-3.02s-1.36-3.02-3.02-3.02-3.02,1.36-3.02,3.02,1.36,3.02,3.02,3.02Z"/>
      <path class="cls-8" d="M53.99,72.28c2.73,0,4.96-2.23,4.96-4.96s-2.23-4.96-4.96-4.96-4.96,2.23-4.96,4.96,2.23,4.96,4.96,4.96Z"/>
      <path class="cls-8" d="M43.1,70.72c1.36,0,2.46-1.11,2.46-2.46s-1.11-2.46-2.46-2.46-2.46,1.11-2.46,2.46,1.11,2.46,2.46,2.46Z"/>
      <path class="cls-8" d="M60.76,65.13c.66,0,1.19-.54,1.19-1.19s-.54-1.19-1.19-1.19-1.19.54-1.19,1.19.54,1.19,1.19,1.19Z"/>
    </g>
  </g>
</svg>