<?xml version="1.0" encoding="UTF-8"?>
<svg id="Livello_2" data-name="Livello 2" xmlns="http://www.w3.org/2000/svg" viewBox="0 0 366.86 499.19">
  <defs>
    <style>
      .cls-1 {
        fill: #6c2009;
      }

      .cls-2 {
        fill: #888785;
      }

      .cls-3 {
        fill: #fae9d8;
      }

      .cls-4 {
        fill: #6b726f;
      }

      .cls-5 {
        fill: #fdfc42;
      }

      .cls-6 {
        fill: #3994e2;
      }

      .cls-7 {
        fill: #fafff3;
      }

      .cls-8 {
        fill: #fde524;
      }

      .cls-9 {
        fill: #29374a;
      }

      .cls-10 {
        fill: #ffd2b0;
      }

      .cls-11 {
        fill: #fca602;
      }

      .cls-12 {
        fill: #ef8991;
      }

      .cls-13 {
        fill: #80cfdf;
      }

      .cls-14 {
        fill: #231f20;
      }

      .cls-15 {
        fill: #228fc9;
      }

      .cls-16 {
        fill: #b35a14;
      }

      .cls-17 {
        fill: #ffd054;
      }

      .cls-18 {
        fill: #dbdee0;
      }

      .cls-19 {
        fill: #135071;
      }

      .cls-20 {
        fill: #6b88a1;
      }

      .cls-21 {
        fill: #062641;
      }

      .cls-22 {
        fill: #703a0a;
      }

      .cls-23 {
        fill: #20749d;
      }

      .cls-24 {
        fill: #3f5c7b;
      }

      .cls-25 {
        fill: #fffbd0;
      }

      .cls-26 {
        fill: #fab500;
      }

      .cls-27 {
        fill: #84d1f6;
      }

      .cls-28 {
        fill: #516c82;
      }

      .cls-29 {
        fill: #14181c;
      }

      .cls-30 {
        fill: #c46e2d;
      }

      .cls-31 {
        fill: #8e9ea0;
      }

      .cls-32 {
        fill: #cf7c46;
      }

      .cls-33 {
        fill: #ed8501;
      }

      .cls-34 {
        fill: #2c2d2a;
      }

      .cls-35 {
        fill: #4f504b;
      }

      .cls-36 {
        fill: #236cbc;
      }

      .cls-37 {
        fill: #7c8487;
      }

      .cls-38 {
        fill: #cad6e0;
      }

      .cls-39 {
        fill: #bccbcd;
      }

      .cls-40 {
        fill: #535c5c;
      }

      .cls-41 {
        fill: #eba76e;
      }

      .cls-42 {
        fill: #adb2a1;
      }

      .cls-43 {
        fill: #313c34;
      }

      .cls-44 {
        fill: #3c3f40;
      }

      .cls-45 {
        fill: #fefefe;
      }

      .cls-46 {
        fill: #001835;
      }

      .cls-47 {
        fill: #adafaf;
      }

      .cls-48 {
        fill: #1f332e;
      }

      .cls-49 {
        fill: #d5d8c6;
      }

      .cls-50 {
        fill: #7da0b5;
      }

      .cls-51 {
        fill: #1e2c35;
      }

      .cls-52 {
        fill: #a3a29d;
      }

      .cls-53 {
        fill: #3db9ea;
      }

      .cls-54 {
        fill: #10385c;
      }

      .cls-55 {
        fill: #9fc9dc;
      }

      .cls-56 {
        fill: #cae6f6;
      }

      .cls-57 {
        fill: #636466;
      }

      .cls-58 {
        fill: #973a0f;
      }

      .cls-59 {
        fill: #170200;
      }

      .cls-60 {
        fill: #3b5348;
      }

      .cls-61 {
        fill: #919595;
      }

      .cls-62 {
        fill: #919587;
      }

      .cls-63 {
        fill: #bdc1bd;
      }
    </style>
  </defs>
  <g id="Layer_1" data-name="Layer 1">
    <g id="Oggetto_generativo" data-name="Oggetto generativo">
      <g>
        <path class="cls-29" d="M116.8,146.37c-1.06-.86-4.89-4.92-5.63-4.9-19.04,10.9-15.3,31.46-15.42,50.18l.98.49c1.44-2.05,3.24-3.77,4.9-5.63,1.32.07,1.73-1.21,2.45-1.96,2.84-1.35,5.23-3.02,8.32-3.92h2.69c.8.85-.25.93-.24.98-7.7,1.39-20.61,11.03-21.05,19.09-.03.58-.6,1.64,0,2.69.31.53,1.36.99,1.96,1.22-.68.27,1.75,2.35,1.96,2.45,1.4.67,1.89,1.5,4.41.98l4.41,2.94c-2.52,1.11-8.8-3.24-11.75-2.45-.55.09-.46-.47-.49-.49-1.52-1.41-2.26-7.03-1.96-9.06.07-.48,1.92-3.03,1.96-3.43,1.75-20.27-6.16-42.58,16.15-55.56,1.77,1.88,5.5,3.38,6.36,6.36Z"/>
        <path class="cls-29" d="M255.34,140.01c12.67,7.76,15.45,20.69,16.64,34.51.45,5.15-.9,13.03,0,17.62.31,1.56,3.17,4.8,3.43,7.34.24,2.34-.98,4.06-.98,4.65.44-1.19-.49-2.32-.49-2.45-.15-5.98-2.83-10.12-6.85-14.44-2.21-2.38-11.24-10.24-13.22-7.1-.03.05-.78.02-.49.98.11-1.57-1.33-2.17,1.96-3.43,2.83,1.17,5.34,3.41,8.32,3.92.4,1.56,5.03,6.39,6.85,7.1.22-13.66.28-36.23-12.48-44.79-4.79-3.21-3.26-1.48-7.59.98,1.54-1.56,3.5-3.29,4.9-4.9Z"/>
        <path class="cls-46" d="M263.66,181.62c-2.98-.5-5.49-2.75-8.32-3.92-.5-.21-.93-.47-.98-.49-.99-.34-2.45-1.52-3.92-1.47-2.75-1.22-.81-5.7-4.65-7.34s-13.64,2.84-13.46-.24c.06-.98,9.43-5.83,10.77-8.32,2.29-4.27-.27-7.73,0-8.81.11-.44,3.75-2.53,4.41-3.18,5.52,4.11,10.93,5.33,13.71,12.48s1.01,15.73,2.45,21.29Z"/>
        <path class="cls-54" d="M118.76,148.33c.5.44,3.71,1.47,3.92,2.2.12.43-1.76,5.28-.49,8.81,1.18,3.29,11.25,8.57,11.26,9.3.02,1.92-8.86-1.41-11.99-.24-4.24,1.58-2.42,4.92-2.69,5.63-.4,1.04-4.49,2.22-5.87,3.18-4.8,1.69-6.3,3.34-9.79,6.85-1.9-14.1,1.11-30.09,15.66-35.73Z"/>
        <path class="cls-20" d="M116.8,146.37c.78.64,1.28,1.35,1.96,1.96-14.55,5.65-17.57,21.63-15.66,35.73-.81.81-1.27,2.23-1.47,2.45-1.65,1.86-3.45,3.58-4.9,5.63l-.98-.49c.12-18.71-3.62-39.28,15.42-50.18.74-.02,4.57,4.03,5.63,4.9Z"/>
        <path class="cls-54" d="M263.66,181.62c-1.44-5.56.35-14.08-2.45-21.29s-8.19-8.37-13.71-12.48c.99-.98,1.96-1.94,2.94-2.94,4.33-2.46,2.8-4.19,7.59-.98,12.76,8.56,12.7,31.13,12.48,44.79-1.82-.71-6.45-5.54-6.85-7.1Z"/>
        <path class="cls-60" d="M112.89,177.21c-3.21,2.25-6.1,4.5-8.81,7.34-.71.75-1.13,2.03-2.45,1.96.2-.22.66-1.64,1.47-2.45,3.49-3.51,4.99-5.17,9.79-6.85Z"/>
      </g>
      <g>
        <g>
          <path class="cls-29" d="M286.18,279.03l-.49-.98c8.6-.49,21.08-10.01,27.9-14.93-4.67-2.08-8.14-5.95-10.28-10.52-1.44-3.08-2.64-6.89-2.94-10.28l.98-.73c-.34,6.75,6.62,22.12,14.93,20.31.56-.12,3.65-2.91,3.67-3.18.05-.66-8.45-5.97-10.28-8.32-5.58-7.16-6.7-16.82-1.96-24.72,1.13-.57,2.94-1.33,3.92-1.96.7-.45,1.3-.98,1.96-1.47,1.52-1.13,6-4.71,6.85-6.12,3.36-5.56.83-21.45,12.48-14.93,6.15,3.44,5.92,12.49,3.67,18.36,8.11,4.68,17.99,9.75,23.5,17.62,3.48,4.98,8.17,16.66,6.36,22.52-.88,2.84-4.59,4.37-4.9,4.9-.21.36-.45,4.37-.98,5.38-2.73,5.25-9.36,1.37-10.04,1.71-.36.18-.58,4.32-4.41,3.92-4.74-.51-17.27-16.32-24.48-16.64-10.16,7.6-22.52,17.42-35.49,20.07Z"/>
          <g>
            <path class="cls-44" d="M331.7,203.16c3.75,4.37-.42,15.26.49,18.36.42,1.42,12.32,6.44,12.73,10.28.29,3.67-12.95,3.01-12.73,8.81,1.73-.9,3.27-2.51,5.14-3.18,2.86-1.03,7.49-.32,8.57-3.43,6.57,5.32-10.81,3.96-12.24,10.52-.52,2.39,2.51,3.24,3.92,4.65-4.68,2.35-6.44-5.55-10.04-6.36-5.06-1.14-11.78,2.32-14.69-4.9,1.25,10.21,6.89,5.18,12.24,6.36,4.66,1.03,16.51,15.26,20.8,18.36,1.36.98.37.65,1.47-.24.94,3.72.21,5.98-4.16,5.38-2.15-.29-25.2-16.68-27.17-19.34-5.11-6.87-6.65-13.35-2.45-20.8l6.85-4.16-.73-1.22c-.9.32-1.85.51-2.69.98,1.09-3.63,5.02-4.73,6.85-8.08s2.15-12.87,7.83-11.99Z"/>
            <path class="cls-44" d="M341.98,241.34c4.89,2.28,10.45,8.22,12.48,13.22.85-1.38-1.33-5.59-2.2-6.85,3.58,1.14,9.95,14.12,6.12,15.66-9.92-1.95-13.49-14.96-23.74-18.36.63-1.27,6.34-4.85,7.1-4.65.43.11.19.95.24.98Z"/>
            <path class="cls-44" d="M363.03,249.66c.45,2.04,1.74,6.73-2.2,4.9-3.39-1.58-9.37-14.26-15.42-14.93,6.2-.34.88-8.33,2.94-9.55,3.15,3.14,7.83,6.89,10.28,10.52,1.29,1.91,3.95,7.01,4.41,9.06Z"/>
            <path class="cls-52" d="M337.58,249.17c3.68,3.67,8.45,7.89,9.79,13.22-1.1.9-.11,1.23-1.47.24-4.29-3.09-16.14-17.33-20.8-18.36-5.35-1.18-10.99,3.85-12.24-6.36,2.91,7.22,9.63,3.75,14.69,4.9,3.6.81,5.35,8.71,10.04,6.36Z"/>
            <path class="cls-2" d="M345.9,234c-1.08,3.11-5.7,2.4-8.57,3.43-1.87.67-3.41,2.28-5.14,3.18-.23-5.8,13.01-5.14,12.73-8.81-.41-3.84-12.31-8.86-12.73-10.28-.91-3.1,3.26-13.99-.49-18.36,7.42,1.14,1.69,14.39,2.94,18.36.94,2.97,13.75,5.3,11.26,12.48Z"/>
            <path class="cls-52" d="M363.03,249.66c-.45-2.05-3.12-7.15-4.41-9.06-2.45-3.64-7.13-7.39-10.28-10.52,4.23-2.49,17.65,14.33,14.69,19.58Z"/>
            <path class="cls-2" d="M352.26,247.7c.88,1.27,3.05,5.47,2.2,6.85-2.03-5-7.59-10.94-12.48-13.22,3.84.39,8.12,3.24,10.28,6.36Z"/>
            <path class="cls-2" d="M313.59,227.63c.92-1.63,1.69-3.45,3.43-4.41.84-.46,1.79-.65,2.69-.98l.73,1.22-6.85,4.16Z"/>
          </g>
        </g>
        <path class="cls-29" d="M254.36,177.21c.05.02.48.28.98.49-3.29,1.26-1.85,1.86-1.96,3.43-.09,1.27-.25,5.14,0,6.12s12.02,15.96,12.97,16.4c1.89.87,2.79.43,4.65,0s1.83-.33,2.94-1.96c0,.12.93,1.26.49,2.45-.3.82-2.99,1.77-3.92,1.96-11.56,2.33-8.77-9.15-17.13-13.71-.65-.91-2.34-1.55-2.94-3.18-1.33-3.67,1.43-7.51-.98-9.55.33-.65.34-2.08,1.22-2.45.67-.28,2.74.2,3.67,0Z"/>
        <path class="cls-44" d="M114.36,182.6c-.47,9-3.96,10.23-9.3,16.89-2.73,3.4-2.24,7.93-9.3,5.14-.6-.24-1.64-.7-1.96-1.22-.6-1.05-.03-2.11,0-2.69l12.97-13.71,7.59-4.41Z"/>
        <path class="cls-47" d="M114.85,181.62c.1,1.19-.49.92-.49.98l-7.59,4.41-12.97,13.71c.44-8.06,13.35-17.7,21.05-19.09Z"/>
        <path class="cls-44" d="M271,203.65c-1.86.43-2.76.87-4.65,0-.95-.44-12.71-15.38-12.97-16.4s-.09-4.85,0-6.12c-.29-.96.46-.93.49-.98,4.29,1.32,18.26,15.42,18.6,18.85.12,1.19-1.95,3.4-1.47,4.65Z"/>
        <path class="cls-47" d="M273.94,201.69c-1.11,1.63-1.12,1.54-2.94,1.96-.48-1.25,1.59-3.46,1.47-4.65-.34-3.43-14.32-17.53-18.6-18.85,1.98-3.14,11.01,4.72,13.22,7.1,4.02,4.32,6.7,8.46,6.85,14.44Z"/>
        <g>
          <path class="cls-29" d="M66.38,232.53c1.2,8.46-.41,19.33-6.36,25.94-.05.05-.91.42-.98.49-3.86,2.49-9.46,5.43-11.75-.73,7.26-3.86,12.87-9.87,14.69-18.11l.49-9.55c1.07,1.38,1.54,1.51,1.47-.49.07.16,1.99,2.33,2.45,2.45Z"/>
          <g>
            <path class="cls-29" d="M62.47,224.21c.75.67-.01.93,0,.98l-6.36-1.71c2.85,2.07,4.45,4.62,6.36,7.1l-.49,9.55c-1.82,8.24-7.42,14.25-14.69,18.11,2.28,6.17,7.88,3.23,11.75.73-1.24,1.21-3.27,3.37-4.9,3.92-.34.12-1.36.48-1.47.49-4.14.25-6.02-4.37-7.59-4.41-6.15.43-21.41,17.86-25.94,16.64-1.18-.32-2.34-3.75-2.94-3.92-1.47-.42-5.71,3.65-9.06-.73-1.32-1.72-1.12-5.23-1.47-5.87-.86-1.59-4.67-2.62-5.38-6.36-2.4-12.56,10.14-26.29,19.34-33.04,1.56-1.15,10.22-5.36,10.52-6.12,1.23-3.09-4.68-14.7,4.65-18.85,10.68-4.74,8.62,8.34,11.01,13.95,2.77,6.5,10.74,8.12,16.64,9.55Z"/>
            <g>
              <path class="cls-44" d="M48.27,221.76l-4.9-.24c6.72,2.63,14.87,11.76,8.81,18.85-3.37,3.95-8.5,1.67-12.48,2.45-1.93.37-13.18,10.38-14.93,12.48-1.92,2.3-2.92,5.33-4.9,7.59.42-8.47,13.46-16.17,13.71-17.38s-4.11-5.05-5.14-5.63c-6.17-3.47-14.88-.34-5.63-11.26-.63,1.24-1.5,4.46-.98,5.63.29.65,11.23,4.89,12.73,6.36-2.25-5.17-5.82-7.53-11.26-8.32l11.75-11.26c-2.63-5.19-3.78-11.43.49-16.15-1.56-1.75-3.44.83-3.92,2.2-2.18-1.47,3.07-4.82,3.67-4.9,5.72-.75,6.7,10.35,8.57,13.95.63,1.21,3.32,4.14,4.41,5.63Z"/>
              <path class="cls-44" d="M55.12,239.87c-3.18,11.67-11.06,14.34-19.83,20.07-3.55,2.32-13.55,13.43-15.42,4.9,6.11-4.44,15.31-18.67,22.27-20.56,5.31-1.45,5.88,1.41,10.52-3.43,1.73-1.8,1.44-3.36,2.45-.98Z"/>
              <path class="cls-44" d="M3.72,255.05c-2.14-11.22,9.02-15.72,12.73-24.97,1.5-1.2,2.82-2.85,4.9-3.18-1.8,4.11-7.02,11.15.49,12.24-5.24.95-13.7,15.54-16.4,16.4-.85.27-1.14-.05-1.71-.49Z"/>
              <path class="cls-52" d="M22.82,228.61c1.64-3.23,9.87-6.27,10.28-8.08.78-3.38-3.36-7.99-1.47-13.46.47-1.37,2.36-3.95,3.92-2.2-4.27,4.72-3.11,10.96-.49,16.15l-11.75,11.26c5.44.79,9.01,3.15,11.26,8.32-1.5-1.47-12.44-5.71-12.73-6.36-.52-1.17.35-4.38.98-5.63Z"/>
              <path class="cls-61" d="M52.68,240.85c-4.65,4.84-5.21,1.98-10.52,3.43-6.96,1.89-16.16,16.12-22.27,20.56-.11-.48-.03-1.39,0-1.96,1.97-2.25,2.98-5.29,4.9-7.59,1.75-2.1,13-12.11,14.93-12.48,3.99-.77,9.11,1.5,12.48-2.45l.49.49Z"/>
              <path class="cls-4" d="M48.27,221.76c5.18,7.1,9.91,6.9,6.85,18.11-1.01-2.38-.72-.82-2.45.98l-.49-.49c6.06-7.09-2.09-16.21-8.81-18.85l4.9.24Z"/>
              <path class="cls-2" d="M3.72,255.05c-6.73-5.09,8.43-21.52,12.73-24.97-3.7,9.25-14.86,13.75-12.73,24.97Z"/>
              <path class="cls-52" d="M62.47,225.18c.08.4,1.36,4.66,1.47,4.9.07,2-.4,1.87-1.47.49-1.91-2.48-3.51-5.03-6.36-7.1l6.36,1.71Z"/>
              <g>
                <path class="cls-44" d="M23.06,239.87c2.89-.37,7.25,3.04,9.06,5.14-2.46,2.06-5.72,3.48-8.08,5.63-2.53,2.31-12.1,15.43-15.66,12.24-4.3-3.85,10-22.41,14.69-23.01Z"/>
                <path class="cls-2" d="M23.55,241.83c.78-.12,1.65.08,2.45,0,1.19.6-13.07,8.07-13.46,10.52.76-2.82,8.71-10.17,11.01-10.52Z"/>
              </g>
            </g>
          </g>
        </g>
      </g>
      <g>
        <g>
          <g>
            <g>
              <path class="cls-29" d="M245.55,447.43c-.59,5.04.19,5.45,1.47,10.04.26.92-.3,3.31,0,3.92.23.48,3.68,1.29,4.41,1.71,6,3.53,20.09,10.11,23.5,15.91.91,1.56,3.02,8.8,2.45,10.28-.38.97-16.74,8.05-18.85,8.57-10.09,2.49-18.86,1.38-28.39-2.45-3.58-1.44-24.61-12.36-25.21-14.93-.25-5.91.92-14.75,0-20.31-.41-2.45-2.99-8.46-3.92-12.24l1.47-.49c1.16,1.21,6.51,3.31,8.32,3.92,8.61,2.89,24.54,3.85,31.82-2.45,1.16-1,1.24-1.01,1.96-2.45l.98.98Z"/>
              <g>
                <path class="cls-34" d="M245.06,463.58c-1.2-.16-5.36.73-3.18,1.96,4.23.26,26.09,11.06,26.68,13.95,2.03,9.92-21.31,7.4-26.68,6.12-7.73-1.85-16.57-6.89-20.07-14.2l.24,2.2c2.36,7.47,17.84,14.64,25.21,15.42,7.13.75,30.08-.94,22.27-12.73,2.82-1.56,6.34,6.57,5.87,8.08-1.68,5.46-26.86,6.93-32.06,6.12-9.8-1.53-24.88-12.17-25.7-22.76-.72-9.27,11.35-3.76,16.89-4.16,2.02-.15,8.65-2.96,9.3-2.94,1.32.05,3.81,2.62,1.22,2.94Z"/>
                <path class="cls-52" d="M245.06,463.58c3.39.46,22.55,9.81,24.48,12.73,7.81,11.79-15.15,13.48-22.27,12.73-7.37-.78-22.85-7.95-25.21-15.42l-.24-2.2c3.5,7.31,12.34,12.35,20.07,14.2,5.37,1.28,28.71,3.8,26.68-6.12-.59-2.89-22.44-13.69-26.68-13.95-2.18-1.22,1.98-2.12,3.18-1.96Z"/>
                <path class="cls-34" d="M244.57,494.91c-.14,1.55,6.99,1.55,6.85,0,4.79-.33,9.38-1.59,13.95-2.94,2.96,2.2-8.39,5.23-9.3,5.38-14.57,2.46-34.57-5.35-46.5-13.71-2.32-1.62-4.19-3-3.67-6.12.41-.44.55-.73,1.22-.73.94-.01,12.62,9.81,15.18,11.26,6.88,3.91,14.33,6.45,22.27,6.85Z"/>
                <path class="cls-34" d="M210.06,476.31c15.96,12.89,33.88,20.31,54.58,14.44l-3.18,1.71c-15.46,3.66-28.34.86-41.61-7.34-.74-.46-11.68-7.59-9.79-8.81Z"/>
                <path class="cls-44" d="M251.42,494.91c.14,1.55-6.99,1.55-6.85,0,2.1.11,4.77.14,6.85,0Z"/>
              </g>
            </g>
            <g>
              <path class="cls-29" d="M165.27,446.94c1.09,9.28-2.09,8.02-4.9,13.71-3.08,6.25,6.98,17.43-1.71,22.52-20.44,11.96-30.27,20.78-55.8,13.22-3.33-.99-11.83-3.82-12.97-7.1-4.46-12.77,15.72-20.01,23.5-26.19,12.01-3.11,2.91-9.79,7.83-14.69.06-.06.76-.44.98-.49,1.53,2.32,8.07,4.45,10.77,4.9,8.64,1.44,17.56.49,25.45-2.94,2.08-.91,4.94-1.3,6.36-3.43.43-.05.45.12.49.49Z"/>
              <path class="cls-44" d="M93.31,483.65c10.33,10.06,32.16,5.87,42.83-2.45.09-.07,2.48-1.92.98-1.96-5.49,3.95-12.81,7.13-19.58,7.83-4.27.44-22.86,1.02-20.8-6.61.32-1.19,18.19-12.98,20.31-13.95,1.3-.6,6.42-.16,6.12-2.2-.25-1.71-3.82-.92-4.9-.73,2.27-7.09,9.41-1.78,14.93-1.47,7.22.41,20-6.17,16.89,6.61-3.38,13.87-28.73,24.35-41.85,23.25-4.19-.35-22.49-3.85-16.64-10.77.36,1.37.87,1.63,1.71,2.45Z"/>
              <path class="cls-52" d="M93.31,483.65c-.51-.79-.68-1.78-.49-2.69.84-4.02,21.29-16.65,25.45-17.38,1.08-.19,4.65-.98,4.9.73.3,2.05-4.81,1.6-6.12,2.2-2.12.98-19.99,12.76-20.31,13.95-2.06,7.62,16.53,7.05,20.8,6.61,6.77-.7,14.09-3.89,19.58-7.83,1.5.03-.88,1.88-.98,1.96-10.68,8.32-32.5,12.51-42.83,2.45Z"/>
              <path class="cls-44" d="M160.62,476.8c2.13.63-.87,4.23-1.96,4.9-1.15.71-3.66.65-4.9,1.47-25.24,16.64-28.37,19.82-58.74,8.32-.21-.08-3.44.63-3.67-1.22-.36-2.87,5.83,1.36,7.1,1.71,16.12,4.47,30.58,4.35,45.53-3.43,3.04-1.58,15.67-12.04,16.64-11.75Z"/>
              <path class="cls-34" d="M158.66,472.88c2.35,2.45.78,3.11-.98,4.9-8.58,8.74-28,16.98-40.39,15.91,15.88-2.11,29.44-10.55,41.36-20.8Z"/>
            </g>
          </g>
          <g>
            <path class="cls-45" d="M244.57,446.45c-.71,1.44-.8,1.44-1.96,2.45-4.33-.02-8.47,2.71-12.97,2.94-10.1.51-16.72-6.27-8.57-14.69,5.08-.69,10.07-3.09,15.42-2.45l-5.87-1.47,13.95-2.69c-2.94-.03-5.89.46-8.81.73-6.52-.62-13.66-1.52-18.6-6.12l18.85-.73c2.91-1.42,9.14-1.16,10.04-4.9.74-.42,1.88-.84,2.45-1.47.14,7.32-.7,21.92-3.92,28.39Z"/>
            <path class="cls-42" d="M212.26,419.52c-4.07,16.02,13.69,12.65,23.5,11.75,2.93-.27,5.87-.76,8.81-.73l-13.95,2.69,5.87,1.47c-5.35-.65-10.34,1.75-15.42,2.45-.63.09-3.66.64-3.92-.24l5.63-1.22c1.39-1.44-6.57-.12-7.34-.49l2.2-1.71c-15.02-4.76-12.33,9.51-6.85,17.87-1.81-.61-7.16-2.7-8.32-3.92-4.91-5.14-1.89-16.12-.24-22.03l5.14,4.65c-1.24-1.51-4.48-4.3-4.9-6.12-.74-3.23.96-8.72.73-12.24,1.45,4.08,5.2,6.45,9.06,7.83Z"/>
            <path class="cls-49" d="M221.07,437.15c-8.16,8.41-1.54,15.2,8.57,14.69,4.5-.23,8.65-2.96,12.97-2.94-7.27,6.29-23.21,5.33-31.82,2.45-5.47-8.36-8.17-22.62,6.85-17.87l-2.2,1.71c.77.37,8.73-.95,7.34.49l-5.63,1.22c.26.89,3.29.33,3.92.24Z"/>
            <path class="cls-45" d="M117.78,416.1c1.5,2.16,2.39,3.37,4.9,4.41,1.22,6.61,27.42,4.18,27.41,5.63l-23.01,7.59c-1.66-.02-8.47-1.26-6.85,1.71,3.06,1.38,5.9,2.76,9.3,3.18,5.66,2.45,13.04,1.84,18.85,0,4.92,10.03-8.22,12.57-15.42,14.2-2.69-.45-9.24-2.58-10.77-4.9s-3.46-14.54-3.92-17.87l-.49-13.95Z"/>
            <path class="cls-49" d="M131.98,422.46c1.15.19,3.21,1.4,4.16,1.47,7.06.51,30.89-7.37,16.89,8.08,9.7-1.59,8.76,12.09,5.38,17.87-7.89,3.43-16.82,4.37-25.45,2.94,7.2-1.63,20.34-4.17,15.42-14.2-5.81,1.84-13.18,2.45-18.85,0,5.01.62,13.08-.1,16.89-3.43l-6.12-.24,8.81-3.92c-4.62-.82-10.29,2.72-14.44,3.18-2.6.29-5.13-.46-7.59-.49l23.01-7.59c0-1.45-26.19.98-27.41-5.63,2.38.99,6.65,1.52,9.3,1.96Z"/>
            <path class="cls-42" d="M164.78,446.45c-1.43,2.13-4.28,2.52-6.36,3.43,3.37-5.77,4.32-19.45-5.38-17.87,14-15.45-9.83-7.57-16.89-8.08-.95-.07-3.01-1.28-4.16-1.47,10.03-.22,25.57-.76,30.84-10.77.18,8.31,4.36,12.81-4.41,18.85,2.01.78,4.91-4.3,5.38-4.41,2.41,3.95,3.82,16.09.98,20.31Z"/>
            <path class="cls-48" d="M164.29,407.77c0,4.51.18,8.97.49,13.46.58,8.36,5.23,17.9.49,25.7-.04-.37-.06-.54-.49-.49,2.84-4.22,1.43-16.37-.98-20.31-.47.11-3.38,5.18-5.38,4.41,8.76-6.04,4.59-10.54,4.41-18.85-.04-1.69-.66-4.47,1.47-3.92Z"/>
            <path class="cls-18" d="M142.26,306.93c14.8,10.34,31.23,15.83,49.44,11.75,6.76-.35,16.79-3.11,22.76-6.36,2.55-1.39,8.98-8.77,11.5-6.12,1.16,1.21,8.26,28.84,8.81,32.31,1.67,10.55,1.12,21.57,3.43,32.06-2.12.18-5.65,1.81-7.83,2.45-5.04-2.25-17.01,8.91-19.09-.73s7.23-13.76,14.69-16.64l-14.2,2.94c3.93-2.86,10.03-2.95,12.48-7.59-6.21,2.42-12.73,3.81-19.34,2.2,8.29-3.24,15.6-5.89,20.07-14.2-.62-.96-10.71,4.1-12.73,1.96l9.3-11.26c.33-2.52-3.24,2.03-3.43,2.2l-3.67,2.45.49-2.94c-2.19,1.91-18.34,10.51-19.83,8.57l.98-3.67c3.52-2.53,5.93-4.54,8.81-7.83s5.74-6.21,6.12-11.26c-10.03,10.62-21.47,25.18-38.18,20.07-3.8-1.16-14.08-8.2-17.87-10.77-1.27-.86-6.64-5.93-7.1-5.87-4.95.63,9.27,19.09,10.28,20.56-9.44-2.25-18.49-8.69-26.19-14.44,2.76,9.38,10.89,15.25,18.11,21.05-2.77,1.77-15.25-5.69-15.66-4.9,1.4,2.24,4.66,3.23,6.36,4.65.31.26.58.65.98.98,2.78,2.29,5.39,4.96,8.32,7.1l-11.5-3.67-8.57-7.1c5.11,7.13,10.79,11.91,19.58,13.71l-7.59.24c7.91,3.74,17.15,2.91,14.93,14.44-.37,1.93-2.72,7.85-5.38,7.59-8.12-3.41-22.82-14.11-30.84-8.32-.37-.39-.95-2.82-.98-3.18-1.05-12.5,3.77-59.57,8.81-70.49.25-.54,1.04-2.21,1.71-2.2,3.66,3.79,7.68,7.26,11.99,10.28Z"/>
            <path class="cls-49" d="M237.22,294.21c.86,3.84,2.31,7.49,3.43,11.26-1.26.11-3.94-2-4.41-.24l9.79,42.59.98-2.69c1.05,10.18,2.43,20.51,1.96,30.84-2.44-4.51-5.79-5.81-10.77-5.38-2.31-10.49-1.75-21.52-3.43-32.06-.55-3.46-7.66-31.1-8.81-32.31-2.53-2.65-8.95,4.73-11.5,6.12-5.97,3.26-16,6.02-22.76,6.36,2.94-.66,24.08-8.11,24.97-9.55.17-.28.72-1.51.24-1.71-12.43,4.71-24.45,10.13-38.18,8.81l-36.47-9.3c-4.32-3.02-8.33-6.49-11.99-10.28-.67-.01-1.46,1.66-1.71,2.2-5.04,10.92-9.86,57.99-8.81,70.49.03.37.61,2.79.98,3.18-1.51,1.09-2.61,3.23-3.43,4.9,1.51-27.54,2.74-55.71,10.77-82.24,4.11.96,7.54,2.92,11.75,3.92-2.42,1.9,4.25,3.66,5.14,3.92,24.88,7.14,62.44,7.51,86.64-2.45,3.36-1.38,4.35-1.29,2.2-5.38,1.1-.49,2.13-2.16,3.43-.98Z"/>
            <path class="cls-49" d="M154.99,326.51c-5.33,1.29,1.77,4.56,3.92,6.36,5.58,4.67,8.39,6.3,14.69,9.79-7.73,4.92-12.67,1.42-19.83-.98-.63-.21-.86.63-1.22.49-4.96-1.86-9.14-4.71-13.46-7.83,3.91,3.92,14.16,11.95,19.83,13.22,14.98,8.18,3.1,24.85,2.94,37.2-3.65-.9-6.86-2.48-10.28-3.92,2.66.27,5.01-5.65,5.38-7.59,2.22-11.53-7.02-10.7-14.93-14.44l7.59-.24c-8.8-1.8-14.47-6.58-19.58-13.71l8.57,7.1,11.5,3.67c-2.94-2.14-5.54-4.81-8.32-7.1l14.93,8.81c-1.57-5.65-10.99-7.82-15.91-9.79-1.7-1.42-4.97-2.41-6.36-4.65.42-.8,12.89,6.67,15.66,4.9-7.22-5.8-15.35-11.67-18.11-21.05,7.7,5.75,16.74,12.19,26.19,14.44-1.01-1.47-15.23-19.93-10.28-20.56.46-.06,5.83,5.02,7.1,5.87Z"/>
            <path class="cls-42" d="M173.59,342.67c.56.31,2.89-.03,2.94,1.71l-11.26,40.87c-1.45-.84-2.31-.21-3.43-.49.17-12.35,12.04-29.02-2.94-37.2,2.38.53,6.22,1.13,8.08-.49-5.23.3-10.33-1.72-14.44-4.9.36.14.6-.7,1.22-.49,7.16,2.4,12.09,5.89,19.83.98Z"/>
            <path class="cls-48" d="M204.92,328.47c-2.88,3.29-5.29,5.3-8.81,7.83-4.27,3.07-9.19,5.4-13.71,8.08,13.03,7.95,14.69,27.35,18.6,40.87-.31.21-.38,1.5-.98,1.47-2.34-13.19-7.15-40.1-22.52-42.34-5,13.02-8.96,27.55-11.26,41.36-.97.28-.93-.46-.98-.49l11.26-40.87c-.05-1.75-2.38-1.41-2.94-1.71-6.3-3.49-9.11-5.12-14.69-9.79-1.1-1.61.85-.72,1.22-.49,5.73,3.61,14.75,11.94,22.03,10.77,4.65-.75,17.73-12.35,22.76-14.69Z"/>
            <path class="cls-42" d="M218.13,331.9c-2.21,2.08-3.04,2.64-5.38,4.41-4.15.59-7.43,4.06-11.99,5.38-2.45.71-5.75.99-8.32.98,4.01,1.2,10.16.13,13.95-1.47.34,1.78-11.72,5.27-7.59,6.85,3.89,1.49,20.46-5.17,20.8-4.16-3.36,4.41-20.41,6.31-21.05,11.26-.38,2.96,7.84,23.45,11.75,25.7-1.4.66-8.77,4.04-9.3,4.41-3.92-13.52-5.57-32.92-18.6-40.87,4.52-2.68,9.44-5.01,13.71-8.08l-.98,3.67c1.48,1.94,17.64-6.66,19.83-8.57l-.49,2.94,3.67-2.45Z"/>
            <path class="cls-49" d="M246.04,419.52c-.9,3.73-7.12,3.48-10.04,4.9l-18.85.73c4.94,4.6,12.08,5.5,18.6,6.12-9.81.91-27.56,4.27-23.5-11.75,7.68,2.76,26.7,4.07,33.78,0Z"/>
            <path class="cls-42" d="M240.65,305.47c.91,3.09,2.1,6.15,2.94,9.3.61,10.16,2.38,20.25,3.43,30.35l-.98,2.69-9.79-42.59c.46-1.75,3.14.35,4.41.24Z"/>
            <path class="cls-42" d="M129.53,438.61c-3.4-.42-6.24-1.81-9.3-3.18-1.61-2.97,5.19-1.73,6.85-1.71,2.46.03,4.98.78,7.59.49,4.15-.46,9.82-4,14.44-3.18l-8.81,3.92,6.12.24c-3.81,3.33-11.88,4.05-16.89,3.43Z"/>
            <path class="cls-42" d="M191.7,318.68c-18.21,4.08-34.64-1.41-49.44-11.75l36.47,9.3c13.73,1.32,25.75-4.1,38.18-8.81.47.21-.07,1.43-.24,1.71-.88,1.43-22.03,8.89-24.97,9.55Z"/>
            <path class="cls-49" d="M204.92,328.47c-5.03,2.33-18.11,13.94-22.76,14.69-7.28,1.17-16.3-7.16-22.03-10.77-.37-.23-2.33-1.12-1.22.49-2.15-1.8-9.25-5.08-3.92-6.36,3.79,2.57,14.06,9.61,17.87,10.77,16.71,5.11,28.16-9.45,38.18-20.07-.38,5.05-3.17,7.89-6.12,11.26Z"/>
            <path class="cls-42" d="M141.77,348.54c-.4-.33-.67-.72-.98-.98,4.92,1.97,14.34,4.14,15.91,9.79l-14.93-8.81Z"/>
            <path class="cls-42" d="M233.8,295.19c2.14,4.09,1.16,4-2.2,5.38-24.2,9.96-61.76,9.59-86.64,2.45-.89-.26-7.56-2.01-5.14-3.92,7.78,1.84,17.53,1.31,24.23,2.94,1.97.48,3.69,2.4,3.92,2.45,8.2,1.75,19.62,1.61,27.9,0,.82-.16,3.17-2.93,7.34-2.94,2.98,0,4.16,1.48,4.41,1.47,8.93-.49,17.87-4.14,26.19-7.83Z"/>
            <path class="cls-35" d="M152.54,342.18c4.11,3.18,9.21,5.19,14.44,4.9-1.85,1.62-5.7,1.02-8.08.49-5.67-1.27-15.91-9.3-19.83-13.22,4.32,3.13,8.5,5.97,13.46,7.83Z"/>
            <g>
              <path class="cls-29" d="M151.56,380.85c3.42,1.44,6.63,3.01,10.28,3.92,1.12.28,1.98-.35,3.43.49.05.03,0,.77.98.49-1.28,7.73-1.95,14.16-1.96,22.03-2.13-.55-1.51,2.23-1.47,3.92-5.27,10.01-20.81,10.55-30.84,10.77-2.65-.44-6.92-.97-9.3-1.96-2.51-1.04-3.4-2.24-4.9-4.41-.6-.87-.36-1.84-1.96-1.47-.79-11.93-.51-23.8,0-35.73,1.02.23,1.12-.75,1.47-1.47.82-1.66,1.91-3.8,3.43-4.9,8.02-5.79,22.72,4.91,30.84,8.32Z"/>
              <path class="cls-35" d="M120.72,410.22c11.13,2.94,26.61-3.05,23.99-16.89-1.18-6.21-15.13-12.91-21.05-12.48-.51-16.38,17.14.42,22.76,3.43,4.06,2.17,6.74-.19,7.59,4.65.75,4.32-.38,16.85-2.94,20.56-4.05,5.88-25.65,8.31-30.35.73Z"/>
              <g>
                <path class="cls-47" d="M123.66,380.85c5.92-.43,19.87,6.27,21.05,12.48,2.63,13.84-12.86,19.83-23.99,16.89-5.73-1.52-4.99-14.5-4.41-19.34s1.79-9.63,7.34-10.04Z"/>
                <path class="cls-57" d="M126.35,383.3c2.53-.43,7.74,1.86,9.79,3.43,11.55,8.81-.26,27.39-12.73,20.07-6.88-4.04-3.16-22.46,2.94-23.5Z"/>
              </g>
            </g>
            <path class="cls-34" d="M212.75,336.31c-1.78,1.34-4.33,4.04-6.36,4.9-3.8,1.6-9.94,2.67-13.95,1.47,2.57,0,5.88-.27,8.32-.98,4.56-1.33,7.84-4.8,11.99-5.38Z"/>
            <g>
              <path class="cls-49" d="M230.37,373.02c-6.69,1.95-13.77,4.88-20.07,7.83-3.91-2.25-12.13-22.74-11.75-25.7.64-4.95,17.69-6.85,21.05-11.26-.34-1-16.91,5.65-20.8,4.16-4.13-1.59,7.92-5.07,7.59-6.85,2.03-.86,4.59-3.56,6.36-4.9,2.35-1.76,3.17-2.33,5.38-4.41.19-.18,3.76-4.72,3.43-2.2l-9.3,11.26c2.02,2.15,12.11-2.92,12.73-1.96-4.47,8.31-11.78,10.96-20.07,14.2,6.61,1.61,13.13.22,19.34-2.2-2.45,4.64-8.55,4.73-12.48,7.59l14.2-2.94c-7.45,2.89-16.85,6.61-14.69,16.64s14.05-1.52,19.09.73Z"/>
              <path class="cls-7" d="M216.42,342.18c.46,0,.95-.16,1.22.24.13.4-5.86,2.83-6.85,1.96.46-.87,5.14-2.2,5.63-2.2Z"/>
            </g>
            <g>
              <path class="cls-29" d="M248.97,375.96c.09.16,1.43,3.25,1.47,3.43,2.06,8.91.69,26.35,0,35.73-1.47-.25-1.64,2.59-1.96,2.94-.57.63-1.71,1.04-2.45,1.47-7.07,4.07-26.1,2.76-33.78,0-3.85-1.39-7.61-3.75-9.06-7.83.22,3.52-1.47,9.01-.73,12.24h-1.47c1.34-15.04,1.68-22.23-.98-37.2.6.03.67-1.25.98-1.47.53-.36,7.9-3.75,9.3-4.41,6.3-2.95,13.39-5.88,20.07-7.83,2.18-.64,5.72-2.26,7.83-2.45,4.98-.43,8.33.87,10.77,5.38Z"/>
              <path class="cls-35" d="M243.59,378.4c-.85-.36-3.34-1.13-4.16-.98-.62.11-9.88,5.67-10.77,6.36-2,1.56-6.18,6.12-6.61,8.57-1.02,5.76,3.9,17.05,10.04,18.36,5.22,1.11,16-2.47,17.87-7.83,2.56,5.94-2.26,11.45-8.08,11.75-.53.03-3.58-.99-3.92-.98-5.82.21-21.07,1.94-23.74-5.14-.65-1.71-2.81-18.52-2.45-20.07,1.54-6.56,15.39-8.82,20.8-10.52,3.77-1.19,8.82-6.82,11.01.49Z"/>
              <path class="cls-44" d="M248.24,414.14c-5.03,10.97-25.27,6.91-34.51,3.67,11.34,1.85,25.3,5.42,34.51-3.67Z"/>
              <g>
                <path class="cls-47" d="M243.59,378.4c5.94,2.48,8.15,19.35,6.36,24.48-1.87,5.37-12.65,8.94-17.87,7.83-6.14-1.3-11.05-12.59-10.04-18.36.43-2.44,4.61-7,6.61-8.57.89-.69,10.15-6.25,10.77-6.36.83-.15,3.31.62,4.16.98Z"/>
                <path class="cls-4" d="M238.45,382.81c2.43-.16,5.63.63,6.61,3.18.58,1.53.9,16.54.49,18.11-1.51,5.8-17.4,4.63-19.58-2.94s4.44-17.84,12.48-18.36Z"/>
              </g>
            </g>
          </g>
        </g>
        <g>
          <path class="cls-29" d="M93.31,233.02c4.43,3.82,7.05,11.07,8.32,16.64.54,2.34,1.33,6.51,1.47,8.81.03.48-.01.98,0,1.47.03,1.25.11,2.7,0,3.92-.35,3.77-1.68,5.95-2.94,9.3-.73.56-2.88.54-1.47,2.45-1.12.8-2.12.26-2.45.73-.47.68-.21,14.95,0,16.64.51,4.04,3.22,9.52,5.38,12.97,4.52,7.21,11.25,12.18,18.6,16.15-.31,1.61-.48.89-.49.98-11.25-4.07-23.43-17.49-24.97-29.62-.29-2.28.73-15.92-.73-16.4-12.92,7.54-31.98-4.58-41.36-13.71.11,0,1.13-.37,1.47-.49,5.87,6.89,20.33,14.97,29.37,15.66s17.86-5.07,18.11-14.69c.03-1.08.96-1.46-.49-1.96,1.31-2.29.81-8.44-1.47-10.28.81-1.07.36-3.29-.73-3.43-1.29-.16-3.52,7.96-8.08,2.69,2.29,5.94-.12,11.89-.49,17.87-.49-.07-.55-.51-.98-.49.31-1.1.33-3.61.49-4.9,1.31-10.31.96-17.3-6.36-24.48-1.12-1.1-2.25-2.4-3.43-3.43l.49-.49c2.29,1.92,5.9,3.13,7.83,6.12,2.22,3.43,1.5,10.73,8.08,6.61,4.66-2.92.49-7.69-.98-11.26-.32,3.41-3.18,5.16-6.36,3.43-2.92-1.59,1.11-2.71.24-5.14-.19-.52-8.84-5.18-9.79-5.14-1.14-.41.29-.25.49-.98,5.47.16,9.05.82,13.22,4.41Z"/>
          <path class="cls-45" d="M127.08,224.21c-.15-1.61-1.28-3.39-.98-5.14-1.01-1.52-1.83,3.79-3.43-2.2-1.16-4.35-.45-9.32-6.12-11.26l-1.71,26.19-16.4-11.5,4.16,9.55c-.09,2.03-9.65-4.21-11.01-3.18l1.71,6.36c-4.16-3.59-7.75-4.24-13.22-4.41.75-2.77,5.33-7.21,8.08-9.79.48-.45,3.08-1.09,3.67-1.71.19-.2-.2-1.66,0-1.96.68-1.02,1.78-.58,1.96-.98.03-.08-1.01-.9-.98-.98.56-1.56,1.46-3.06,1.96-4.65,2.94-.79,9.23,3.55,11.75,2.45,1.73-.76,3.67-7.97,5.38-10.52,1.55-2.31,7.29-6.5,7.83-9.3.24-1.24-.92-10.06-1.47-10.77-1.52-1.97-4.4-.18-5.87.24-3.09.9-5.48,2.57-8.32,3.92,2.71-2.84,5.61-5.1,8.81-7.34,1.98-.7,4.67-.94,6.61-1.96,5.98,1.18,9.62,42.57,7.59,48.95Z"/>
          <path class="cls-42" d="M228.41,180.64c-1.8,13.53-2.25,54,10.28,62.17-1.45,2.73-1.29,5.89-1.96,8.81-.03.11-1.82.67-1.96,1.22-.19.75.39,7.09,0,9.55l-5.87,4.65c5.67-6.25,5.33-17.13-2.94-21.05.34-1.05,4.95,2.78,4.9,0l-10.04-15.42c-2.62,6.48-3.03,15.58-7.1,21.29-7.33,10.29-24.83,9.23-33.78,1.71,7.75.08,27.95,1.58,32.8-4.65,6.65-8.55,7.71-40.27-.49-49.2,5.94,3.56,8.6,12.58,9.3,20.31.2,2.22-1.11,8.39-.98,8.81.18.57,7.05,2.83,7.1,5.14,3,.12-1.11-11.63-1.22-12.48-.87-6.28-1.94-11.89-2.94-18.11-1.32-8.23,4.12-14.46-8.57-13.46-5.86.46-15.19,4.26-20.8,4.9l-1.47-1.71c.18-1.22,8.88-1.79,10.52-2.2,8.91-2.24,17.02-6.24,25.21-10.28Z"/>
          <path class="cls-49" d="M229.39,174.27c-.43,1.6-.72,3.25-.98,4.9-26.59,15.78-65.29,19-91.54.98-.46-2.38-.78-4.51-1.47-6.85,24.4,12.58,53.39,14.51,79.55,6.36,4.83-1.5,9.41-4.51,14.44-5.38Z"/>
          <path class="cls-49" d="M122.68,216.86l-3.18-4.9c-1.26,2.38-.98,3.03-.73,5.38.22,2.13,1.43,6.35,1.96,8.81-.61,1.15-.99-.32-.98,1.22.08,7.49,1.88,8.32-2.94,14.93-.07.09-.57.39-.98.98-6.88.95-4.66-7.32-9.55-10.28-2.57-.5-.01,2.53-.98,2.94l-8.32-5.87c4.43,6.84,17.53,12.64,4.65,19.58-1.27-5.58-3.89-12.82-8.32-16.64l-1.71-6.36c1.36-1.03,10.92,5.21,11.01,3.18l-4.16-9.55,16.4,11.5,1.71-26.19c5.67,1.94,4.96,6.91,6.12,11.26Z"/>
          <path class="cls-49" d="M251.91,195.81c-12.2-2.64-8.63,14.29-9.3,21.78,3.88-5.6,6.5-12.62,12.97-15.91-4.31,10.24-6.56,21-3.67,32.06,2.74-2.72,4.52-6.06,7.59-8.57,1.79-1.46,4.05-2.49,5.87-3.92l-7.1,13.46c.84-1.76,10.41-10.92,11.26-9.3-.99,1.66-3.08,4.1-3.92,5.63-4.74,1.57-6.86,7.38-8.57,11.75-8.4-4.28-10.84-9.76-10.04-19.09.83-3.45,2.25-7.18,2.2-10.77-1.58,3.43-2.2,7.16-3.18,10.77l-3.18-5.38-1.71,3.43c-.49-10.08-.45-22.48,1.47-32.31l5.87-6.85c-1.38,7.02-.17,7.84,3.43,13.22Z"/>
          <path class="cls-49" d="M150.09,201.69c.01-.06-1.23.29-.98-.73.57-1.78,9.56-7,11.75-6.85l-21.54-8.32c6.1,15.32,3.41,31.5-1.96,46.5-2.5,6.99-7.16,13.06-8.32,20.8-.52-2.23-1.32-8.92-1.96-10.28,3.15-1.07,5.39-3.01,6.85-6.12,6.94-14.76,6.21-38.39,3.43-54.09,6.6,2.57,12.83,6.62,19.83,8.32s14.52,1.82,21.78,2.2c-5.13,4.53-13.31,3.1-20.31,4.65-2.69.59-7.17,1.62-8.57,3.92Z"/>
          <path class="cls-42" d="M265.62,231.06c-.77,1.42-1.85,2.95-2.45,4.41-2.41,5.92-3.19,10.54,1.47,15.66-.67,3.23-1.5,10.18-.98,13.22-2.23-.24-5.52-4.01-6.85-5.63-2.48-3.01-9.57-12.35-11.26-15.42-.92-1.68-2.01-4.38-1.96-6.36.08-2.67,2.66-10.05,3.43-13.22-.8,9.33,1.64,14.81,10.04,19.09,1.7-4.36,3.82-10.18,8.57-11.75Z"/>
          <path class="cls-4" d="M201.49,177.7c-2.16,3.19-6.48-.58-5.38,4.9-14.42,1.88-49.16-.42-60.7-10.28-.86-.73-2.14-2.07-1.47-3.18.59-.97,18.56,6.44,21.29,7.1,15.04,3.59,31.08,3.94,46.26,1.47Z"/>
          <path class="cls-42" d="M125.61,242.32c-1.25,3-6.22,2.92-7.83,5.63-1.38,2.32-.47,4.56-.98,6.61-.41,1.62-.42,3.37-.98,4.9-4.59,5.28-10.17,9.45-15.66,13.71,1.26-3.35,2.58-5.54,2.94-9.3,1.71,2.35.66-1.71.98-2.2.7-1.1,5.42-3.41,7.34-6.36.1-.16,2.35-3.88.49-3.67,1.27-1.68,5.03-6.61,5.87-8.08.89-1.56.32-1.21-.98-1.22,4.82-6.61,3.01-7.44,2.94-14.93-.02-1.54.36-.07.98-1.22.9,4.21,5.71,12.7,1.47,15.42,1.14,1.31,1.66.17,3.43.73Z"/>
          <path class="cls-44" d="M196.11,182.6c3.35-.44,7.25-.38,10.52-1.47.93-.31.6-1.82.98-1.96.97-.35,3.99-.44,5.14-.98-.31,1.63,2.16.68,2.69.49,4.76-1.65,9.19-4.26,13.95-5.87,1.02,1.09.02,1.39,0,1.47-5.03.88-9.61,3.88-14.44,5.38-26.16,8.15-55.15,6.21-79.55-6.36-.07-.25.04-.67,0-.98,11.54,9.86,46.28,12.16,60.7,10.28Z"/>
          <path class="cls-49" d="M122.68,216.86c1.59,5.99,2.42.68,3.43,2.2-.3,1.75.83,3.53.98,5.14.12,1.31-.33,12.67-1.71,12.24l-6.61-19.09c-.25-2.36-.52-3,.73-5.38l3.18,4.9Z"/>
          <path class="cls-40" d="M219.11,173.3c.52,2.03-4.65,4.09-6.36,4.9-1.15.54-4.17.63-5.14.98-.38.14-.04,1.65-.98,1.96-3.28,1.09-7.18,1.03-10.52,1.47-1.1-5.48,3.23-1.7,5.38-4.9,5.94-.97,11.93-2.5,17.62-4.41Z"/>
          <path class="cls-40" d="M229.39,172.81c-4.76,1.61-9.19,4.23-13.95,5.87-.54.19-3,1.14-2.69-.49,1.72-.8,6.88-2.86,6.36-4.9,3.71-1.24,7.98-3.58,11.5-5.38,2.82,2.14-.08,2.96-1.22,4.9Z"/>
          <path class="cls-7" d="M254.36,177.21c-.93.2-3-.28-3.67,0-.89.37-.9,1.8-1.22,2.45-.36.71-.83,2.18-.98,2.94l-5.87,6.85c.92-4.73,2.3-13.51,7.83-13.71,1.46-.05,2.93,1.13,3.92,1.47Z"/>
          <path class="cls-49" d="M246.04,223.72c-.95,3.49-1.43,7.8-3.43,10.77-.69-4.1-1.27-8.59-1.47-12.73l1.71-3.43,3.18,5.38Z"/>
          <path class="cls-48" d="M127.08,242.81c.64,1.36,1.44,8.05,1.96,10.28.04.15-.03.33,0,.49-.39.04-.56.33-.98.49l-1.47-9.06-1.22-.73c-6.45,3.85-8.33,3.56-7.1,11.75l-1.47-1.47c.51-2.05-.4-4.29.98-6.61,1.61-2.71,6.58-2.63,7.83-5.63.43.14,1.32.18,1.47.49Z"/>
          <path class="cls-43" d="M247.02,223.72c-.76,3.17-3.35,10.54-3.43,13.22-1.58.25-.79-1.33-.98-2.45,2-2.97,2.48-7.28,3.43-10.77s1.6-7.34,3.18-10.77c.05,3.59-1.37,7.32-2.2,10.77Z"/>
          <path class="cls-42" d="M303.31,252.6c2.14,4.58,5.61,8.45,10.28,10.52-6.83,4.92-19.31,14.44-27.9,14.93-.5.03-.6.65-1.22.49-4-1.02-8.45-14.63-8.57-18.6,2.65,4.01,4.62,9.75,10.04,10.77,10,1.87,15.22-2.62,15.42-12.24.03-1.59.21-3.92,0-5.38l1.96-.49Z"/>
          <path class="cls-49" d="M300.37,242.32c.3,3.39,1.49,7.2,2.94,10.28l-1.96.49c-.92-6.4-4.35-9.53-3.43-17.87.24-2.22,4.52-9.84.98-9.06,1.01-.49,3.4-1.17,4.41-.24-3.21,4.32-3.39,11.28-2.94,16.4Z"/>
          <path class="cls-42" d="M89.88,263.37c-.16,1.28-.18,3.8-.49,4.9-1.01,3.6-4.13,7.03-5.87,10.28-9.04-.7-23.5-8.77-29.37-15.66,1.62-.55,3.66-2.71,4.9-3.92.07-.07.93-.44.98-.49.8.49,5.8,3.81,5.87,4.16.28,1.35-3.68,2.81,3.92,2.94-.8,1.62-4.8-.14-1.71,2.2,6.59,5.01,18.32,3.92,21.78-4.41Z"/>
          <path class="cls-45" d="M251.91,195.81c3.3,4.94,4.08,6.69,6.85,11.5,2.94,5.11,9.37,1.35,13.95-.24,2.31,9.07,8.86,13.84,14.44,20.8-5.68,1.85-10.09,1.8-14.69,6.12-2.93-.53-3.75,4.95-6.36,5.63l6.85-10.28-1.22-.73-8.57,6.85c.59-1.46,1.67-2.99,2.45-4.41.83-1.53,2.93-3.97,3.92-5.63-.85-1.62-10.42,7.54-11.26,9.3l7.1-13.46c-1.83,1.42-4.09,2.46-5.87,3.92-3.07,2.5-4.85,5.85-7.59,8.57-2.89-11.06-.64-21.82,3.67-32.06-6.47,3.29-9.09,10.31-12.97,15.91.67-7.49-2.9-24.42,9.3-21.78Z"/>
          <path class="cls-45" d="M301.35,253.09c.21,1.47.03,3.8,0,5.38-3.43,3.99-9.5,7.56-14.93,6.36-6.59-1.45-5.69-19.96-3.67-24.97,2.51-2.84,13.18-12.28,16.15-13.71,3.54-.79-.73,6.83-.98,9.06-.92,8.34,2.51,11.47,3.43,17.87Z"/>
          <path class="cls-49" d="M301.35,258.47c-.2,9.61-5.42,14.11-15.42,12.24-5.42-1.01-7.38-6.76-10.04-10.77-.23-7.66,2.04-14.63,6.85-20.07-2.02,5.01-2.92,23.51,3.67,24.97,5.43,1.2,11.5-2.37,14.93-6.36Z"/>
          <path class="cls-49" d="M272.47,234c-3.76,3.53-6.79,12.14-7.83,17.13-4.66-5.13-3.88-9.75-1.47-15.66l8.57-6.85,1.22.73-6.85,10.28c2.62-.68,3.43-6.16,6.36-5.63Z"/>
          <g>
            <path class="cls-29" d="M253.38,192.39c4.29,6.03,6.04,8.61,8.08,16.15l9.06-2.45c.93-.19,3.61-1.14,3.92-1.96.02,12.13,9.87,16.99,16.4,26.43,2.99-.3,6.06-5.19,7.83-5.87s4.36-.09,5.87-.49c2.57-.67,5.25-3.16,9.06-1.96-.66.49-1.26,1.02-1.96,1.47-2.44-1.4-8.25,1.08-8.08,4.41,1.29-.99,2.72-1.72,4.16-2.45-4.75,7.9-3.62,17.56,1.96,24.72,1.83,2.35,10.33,7.66,10.28,8.32-.02.27-3.11,3.06-3.67,3.18-8.31,1.81-15.27-13.56-14.93-20.31l-.98.73c-.45-5.12-.27-12.08,2.94-16.4-1-.92-3.4-.24-4.41.24-2.97,1.43-13.64,10.87-16.15,13.71-4.81,5.44-7.08,12.41-6.85,20.07.12,3.98,4.57,17.58,8.57,18.6.63.16.72-.46,1.22-.49l.49.98c-2.1.43-3.19,1.19-5.63.98-.12-.01-2.02-.93-2.2-.98l-9.3-5.87c-1.33-.85-2.61-2.59-3.43-3.92s-1.69-3.32-1.96-4.9c-.52-3.04.31-9.99.98-13.22,1.04-5,4.07-13.6,7.83-17.13,4.6-4.32,9.01-4.27,14.69-6.12-5.58-6.97-12.13-11.73-14.44-20.8-4.58,1.59-11.01,5.36-13.95.24-2.77-4.82-3.55-6.56-6.85-11.5-3.6-5.38-4.8-6.19-3.43-13.22.15-.76.62-2.23.98-2.94,2.41,2.03-.36,5.87.98,9.55.6,1.64,2.29,2.27,2.94,3.18Z"/>
            <g>
              <g>
                <path class="cls-63" d="M311.63,223.72c-.98.63-2.78,1.39-3.92,1.96-1.44.73-2.87,1.45-4.16,2.45-.17-3.33,5.64-5.8,8.08-4.41Z"/>
                <path class="cls-34" d="M270.51,206.09l-9.06,2.45c-2.04-7.54-3.79-10.13-8.08-16.15,8.36,4.56,5.58,16.04,17.13,13.71Z"/>
              </g>
              <g>
                <path class="cls-4" d="M267.82,248.68c1.57-.24,4.9,7.32,9.06.73.24,2.15-1.76,4.48-1.96,6.36-.52,4.94,3.52,14.15-3.67,14.93-3.93.43-7.97-6.7-6.85-10.28.65,1.94,5.55,7.36,7.34,6.85,2.83-6.81,3.75-13.78-5.63-15.42-.25-.82,1.16-3.1,1.71-3.18Z"/>
                <path class="cls-40" d="M270.76,237.42c.19.01,1.51,2.65,2.45,2.94,2.79.86,4.71-1.16,7.1-1.22-3.55,3.12-3.67,11.62-10.04,8.57-4.56-2.19-.09-10.31.49-10.28Z"/>
                <path class="cls-4" d="M285.2,230.08l.49,3.92c-13.52,10.28-13.54-3.95-.49-3.92Z"/>
                <path class="cls-52" d="M285.69,234l-.49-3.92c7.07.02,3.7,1.47.49,3.92Z"/>
              </g>
            </g>
          </g>
          <path class="cls-18" d="M80.09,235.46c1.18,1.03,2.31,2.33,3.43,3.43,1.23,7.3,5.7,25.16-5.63,26.43-3.63.41-12.51-2.73-12.97-6.61-.16-1.32,2.14-4.76,2.45-6.36,1.42-7.51,2.92-15.81,0-23.01-.46-1.13-.45-2.34-1.96-1.22-.04-.15-2.12-2.53-1.22-2.94,1.17.86,3.09.17,3.92.49.72.28,10.61,8.59,11.99,9.79Z"/>
          <path class="cls-49" d="M83.52,238.89c7.32,7.18,7.67,14.16,6.36,24.48-3.47,8.32-15.2,9.42-21.78,4.41-3.08-2.35.91-.59,1.71-2.2-7.59-.13-3.64-1.59-3.92-2.94-.07-.35-5.07-3.67-5.87-4.16,5.96-6.62,7.56-17.49,6.36-25.94-.17-1.2-.64-3.22-.98-4.41,1.51-1.11,1.5.09,1.96,1.22,2.92,7.19,1.42,15.5,0,23.01-.3,1.6-2.61,5.04-2.45,6.36.47,3.88,9.35,7.02,12.97,6.61,11.33-1.27,6.86-19.14,5.63-26.43Z"/>
          <path class="cls-42" d="M115.82,243.3c-2.24,3.24-5.13,8.42-7.34,11.01-1.52,1.78-3.48,2.89-5.38,4.16-.14-2.31-.93-6.47-1.47-8.81,12.88-6.94-.22-12.74-4.65-19.58l8.32,5.87c.97-.41-1.59-3.43.98-2.94,4.88,2.96,2.67,11.23,9.55,10.28Z"/>
          <path class="cls-40" d="M80.58,234.98c-1.93-1.62-6.13-5.18-.98-5.38.95-.04,9.6,4.62,9.79,5.14.87,2.43-3.17,3.55-.24,5.14,3.18,1.73,6.04-.01,6.36-3.43,1.47,3.57,5.64,8.34.98,11.26-6.58,4.12-5.86-3.18-8.08-6.61-1.94-2.99-5.54-4.2-7.83-6.12Z"/>
          <path class="cls-44" d="M101.63,263.86c-.25,9.62-8.83,15.4-18.11,14.69,1.75-3.25,4.86-6.68,5.87-10.28.43-.02.49.42.98.49,6.21.87,6.51-2.35,11.26-4.9Z"/>
          <path class="cls-29" d="M101.14,261.9c-1.74,3.03-6.78,5.5-7.83.73-2.06-9.32,3.5-7.24,6.36-11.01,2.28,1.84,2.78,7.99,1.47,10.28Z"/>
          <path class="cls-40" d="M99.67,251.62c-2.86,3.77-8.43,1.69-6.36,11.01,1.06,4.77,6.1,2.29,7.83-.73,1.45.5.52.87.49,1.96-4.75,2.55-5.05,5.77-11.26,4.9.37-5.97,2.78-11.93.49-17.87,4.55,5.27,6.79-2.85,8.08-2.69,1.1.14,1.54,2.36.73,3.43Z"/>
          <path class="cls-62" d="M111.91,251.62c-2.28,3.01-4.73,7.77-8.81,8.32-.01-.48.03-.99,0-1.47,1.91-1.27,3.87-2.38,5.38-4.16,2.21-2.59,5.1-7.78,7.34-11.01.41-.59.91-.89.98-.98,1.3.01,1.87-.34.98,1.22-.84,1.47-4.6,6.4-5.87,8.08Z"/>
          <path class="cls-49" d="M103.1,263.86c.11-1.22.03-2.67,0-3.92,4.08-.56,6.53-5.31,8.81-8.32,1.86-.21-.39,3.52-.49,3.67-1.93,2.96-6.64,5.26-7.34,6.36-.32.49.73,4.56-.98,2.2Z"/>
          <path class="cls-14" d="M106.52,210.99l-4.41-2.94c3.13-.64,7.73-10.13,9.55-13.22-5.12,3.83-5.75,14.82-13.95,12.24-.21-.1-2.64-2.18-1.96-2.45,7.06,2.79,6.57-1.74,9.3-5.14,5.34-6.66,8.84-7.88,9.3-16.89,0-.05.59.21.49-.98,0-.05,1.04-.13.24-.98h-2.69c1.48-.43,4.35-2.22,5.87-.24.55.71,1.71,9.53,1.47,10.77-.55,2.8-6.28,6.99-7.83,9.3-1.71,2.55-3.66,9.77-5.38,10.52Z"/>
          <path class="cls-44" d="M102.12,208.05c-2.51.52-3.01-.31-4.41-.98,8.2,2.58,8.83-8.4,13.95-12.24-1.82,3.09-6.41,12.57-9.55,13.22Z"/>
          <path class="cls-49" d="M212.26,199.73c-10.28-6.17-22.47-3.25-34.02-3.92-.87-1.03,3.24-1.46,3.43-1.47,3.99-.16,8.36.96,12.48.49,5.62-.63,14.94-4.44,20.8-4.9,12.69-.99,7.24,5.23,8.57,13.46,1,6.22,2.07,11.83,2.94,18.11.12.86,4.22,12.6,1.22,12.48-.04-2.31-6.92-4.57-7.1-5.14-.13-.42,1.18-6.59.98-8.81-.7-7.73-3.36-16.75-9.3-20.31Z"/>
          <path class="cls-18" d="M150.09,201.69c-1.38,6.03-1.5,9.98-1.47,16.15.02,1.21-1.44,2.54-1.47,2.69-.74,4.33,1.1,27.28,2.45,31.82,4.57,15.36,24.05,12.78,36.71,14.2l-43.57,11.99c-3.48-1.26-6.6-.08-9.3-4.65-1.61-2.73-3.4-15.85-4.41-20.31-.03-.16.04-.33,0-.49,1.16-7.74,5.82-13.81,8.32-20.8,5.37-15.01,8.06-31.18,1.96-46.5l21.54,8.32c-2.19-.15-11.18,5.07-11.75,6.85-.25,1.02.99.67.98.73Z"/>
          <g>
            <path class="cls-21" d="M239.67,243.3c1.76.85,3.65,1.58,5.63,1.47.54-.34-.25-.46-.24-.98,0-.03.58.08.49-.49,1.69,3.07,8.78,12.41,11.26,15.42,1.33,1.62,4.63,5.39,6.85,5.63.27,1.58,1.12,3.54,1.96,4.9v33.29c-4.15,9.44-10.44,15.89-19.58,20.56-.43-2.75-1.74-5.65-2.45-8.32-.84-3.15-2.03-6.21-2.94-9.3-1.11-3.77-2.57-7.42-3.43-11.26.2-1.98,9.58-7.22,11.75-10.52,2.82-4.28,3.77-11.23,2.45-16.15-.96-3.57-5.48-6.17-5.87-9.55-.79-6.76,6.03-12.88-6.61-13.22l-1.22,7.34c-.26-.18-.66-.41-.98-.49.67-2.92.51-6.09,1.96-8.81.05.03.74.37.98.49Z"/>
            <path class="cls-54" d="M269.04,273.16c.03.65,1.39,1.35,1.47,1.71,1.47,6.98-1.98,21.02-4.9,27.66v-33.29c.81,1.32,2.1,3.06,3.43,3.92Z"/>
            <path class="cls-54" d="M118.27,256.02c.24,1.58.48,3.59,1.47,4.9-1.05,1.37-1.84,6.06-2.45,7.83-3.02,8.76-5.68,11.92,2.2,19.58,2.05,1.99,8.32,4.92,8.57,6.85-3.04,1.87-5.46,21.1-6.36,25.21-.36,1.66-1.45,1.6-1.47,1.71-7.36-3.98-14.08-8.94-18.6-16.15l.49-32.31c3.48-2.64,12.38-10.56,13.71-14.2.56-1.53.57-3.28.98-4.9l1.47,1.47Z"/>
            <path class="cls-20" d="M101.63,305.96c-2.17-3.46-4.87-8.93-5.38-12.97-.21-1.69-.47-15.96,0-16.64.33-.47,1.33.06,2.45-.73.95-.67,2.53-1.27,3.43-1.96l-.49,32.31Z"/>
            <path class="cls-48" d="M102.12,273.65c-.9.68-2.48,1.29-3.43,1.96-1.41-1.91.74-1.88,1.47-2.45,5.49-4.25,11.08-8.43,15.66-13.71-1.32,3.64-10.23,11.55-13.71,14.2Z"/>
            <path class="cls-50" d="M245.55,257.98c.26,2.02-2.59-.4-2.69-.49-1.88-1.75-2.85-3.82-5.14-5.38l1.22-7.34c12.64.33,5.82,6.45,6.61,13.22Z"/>
            <path class="cls-50" d="M128.06,254.07c-3.01,1.1-6.4,3.92-7.83,6.85-.08.08-.43-.08-.49,0-.99-1.31-1.23-3.31-1.47-4.9-1.23-8.19.65-7.89,7.1-11.75l1.22.73,1.47,9.06Z"/>
          </g>
          <path class="cls-42" d="M216.66,279.03c-2.74,4.29-5.27,1.99-9.06,2.45-11.54,1.4-25.91.87-38.43,1.47-1.81.09-3.02-.42-4.41-.49,4.35-1.71,10.31-4.49,14.93-4.9,11.17-.97,23.66,2.86,36.96,1.47Z"/>
          <g>
            <path class="cls-49" d="M179.95,253.58c8.94,7.52,26.45,8.58,33.78-1.71,4.06-5.71,4.48-14.82,7.1-21.29l10.04,15.42c.06,2.78-4.55-1.05-4.9,0,8.27,3.92,8.61,14.8,2.94,21.05l5.87-4.65c-.52,3.23-1.67,7.26-3.43,10.04-3.97,6.28-7.9,5.9-14.69,6.61-13.3,1.39-25.79-2.44-36.96-1.47-4.62.4-10.58,3.19-14.93,4.9-2.2-.1-4.69-.28-6.85-.49-7.13-.7-8.43-.98-15.18-3.43l43.57-11.99c-12.66-1.41-32.15,1.17-36.71-14.2-1.35-4.54-3.19-27.49-2.45-31.82.03-.15,1.49-1.48,1.47-2.69.03,5.97.56,27.07,3.43,31.08,4.45,6.24,20.81,4.58,27.9,4.65Z"/>
            <path class="cls-43" d="M164.78,282.46c1.39.07,2.59.58,4.41.49-.06.62-.5.3-.98.98l-10.28-1.47v-.49c2.16.21,4.66.39,6.85.49Z"/>
            <path class="cls-42" d="M178.73,270.71c1.15-.13,7.21.42,8.32,1.47l-17.38,2.2c1.57-1.04,7.57-3.51,9.06-3.67Z"/>
          </g>
          <g>
            <path class="cls-18" d="M166.24,291.76c-.41,2.92-.74,6.12,0,9.06-10.95,1.21-10.95-1.64-9.79-11.5.92,3.95,6.71.79,9.79,2.45Z"/>
            <path class="cls-39" d="M168.2,283.93c-1.34,1.91-1.1,3.39-1.47,5.38l-9.79-.98c.34-1.95.58-3.93.98-5.87l10.28,1.47Z"/>
            <path class="cls-45" d="M166.73,289.31c-.15.83-.36,1.55-.49,2.45-3.08-1.65-8.87,1.5-9.79-2.45.05-.45.41-.51.49-.98l9.79.98Z"/>
            <g>
              <path class="cls-29" d="M237.71,252.11c2.29,1.56,3.26,3.63,5.14,5.38.1.09,2.96,2.51,2.69.49.39,3.37,4.92,5.97,5.87,9.55,1.32,4.92.37,11.87-2.45,16.15-2.17,3.3-11.55,8.54-11.75,10.52-1.29-1.19-2.33.49-3.43.98-8.32,3.69-17.26,7.34-26.19,7.83-.25.01-1.43-1.47-4.41-1.47-4.17,0-6.52,2.78-7.34,2.94-8.29,1.61-19.7,1.75-27.9,0-.23-.05-1.95-1.97-3.92-2.45-6.7-1.63-16.46-1.1-24.23-2.94-4.21-.99-7.64-2.96-11.75-3.92-.25-1.94-6.52-4.86-8.57-6.85-7.88-7.66-5.23-10.82-2.2-19.58l5.38-9.06c-.61-.59-2.11.86-2.45,1.22,1.43-2.94,4.82-5.75,7.83-6.85.42-.15.58-.45.98-.49,1.01,4.46,2.79,17.58,4.41,20.31,2.7,4.58,5.82,3.39,9.3,4.65,6.74,2.45,8.05,2.72,15.18,3.43v.49c-.4,1.94-.64,3.93-.98,5.87-.08.47-.44.52-.49.98-1.16,9.87-1.16,12.71,9.79,11.5-.74-2.93-.41-6.14,0-9.06.13-.9.34-1.62.49-2.45.37-2,.13-3.47,1.47-5.38.48-.68.92-.36.98-.98,12.51-.6,26.89-.07,38.43-1.47,3.78-.46,6.32,1.85,9.06-2.45,6.79-.71,10.71-.33,14.69-6.61,1.76-2.78,2.91-6.81,3.43-10.04.39-2.45-.19-8.8,0-9.55.14-.55,1.93-1.11,1.96-1.22.32.08.72.31.98.49Z"/>
              <g>
                <path class="cls-29" d="M117.29,268.75c.61-1.77,1.4-6.46,2.45-7.83.06-.08.41.08.49,0,.34-.36,1.84-1.81,2.45-1.22l-5.38,9.06Z"/>
                <path class="cls-2" d="M202.71,282.95c1.46,0,3.59-.45,4.65.73,1.7,1.88,1.94,15.92.24,16.89-1.22.69-7.55-.04-9.3.98l-1.22-17.38c.2-.59,4.96-1.22,5.63-1.22Z"/>
                <path class="cls-44" d="M125.61,282.95l2.94-1.71c-1.2-1.02-4.24-3.12-4.9-4.41-1.09-2.12-.5-6.74-2.69-6.12-2.56.73-.11,6.8.73,8.32-6.85-4.65-1.09-14.39,2.45-19.34,2.64,6.34,3.34,14.97,11.26,18.6-1.33.63-6.62,6.55-7.1,6.61-.52.06-2.27-1.66-2.69-1.96Z"/>
                <path class="cls-44" d="M243.1,277.07c.65-3.08,2.55-5.01.73-8.32-.96,6.78-5.39,12.03-11.99,13.71-.34-.58-1.78-1.18-1.47-2.69.09-.46,5.41-5.37,6.36-6.85,2.07-3.21,2.9-6.96,5.14-10.04,6.31,4.26,5.27,8.84,1.22,14.2Z"/>
                <path class="cls-29" d="M222.05,298.12c1.3-6.26-1.11-12.62-6.85-15.66,1.51-1.81,2.43-3.24,5.63-2.45,3.02.75,13.02,15.73,5.87,17.13l-.49-3.43c.23,5.52-1.96,3.22-4.16,4.41Z"/>
                <path class="cls-4" d="M154.01,291.76c-7.38.62-7.29,1.09-5.38,7.83-1.71-.8-2.87-6.02-2.45-8.08.11-.52,5.65-8.33,6.12-8.57,5.29-2.68,1.98,6.35,1.71,8.81Z"/>
                <path class="cls-52" d="M217.15,295.19c-1.86-1.55-4.75-1.41-6.36,0,.08-4.3-.54-7.63-1.71-11.75,2.94.85,9.62,6.71,9.55,9.55,0,.27-1.34,1.92-1.47,2.2Z"/>
                <path class="cls-51" d="M154.01,291.76c-.29,2.69.21,5.81,0,8.57-1.26-.42-4.41-.28-5.38-.73-1.91-6.74-2-7.21,5.38-7.83Z"/>
                <path class="cls-35" d="M215.2,282.46c5.74,3.04,8.15,9.41,6.85,15.66-.34.18-4.42,3.24-4.9,2.2,6.01-7.03,2.08-11.76-3.43-17.13-.2-1.19,1.34-.58,1.47-.73Z"/>
                <path class="cls-34" d="M138.34,279.52c-1.19,1.9-3.81,3.07-3.43,5.63,2.05,3.6,4.96-3.65,3.92-5.63,1.64.06,3.79.17,5.38,1.71-5.94,2.69-7.44,12.24-12.24,1.47,2.24-2.12,3.81-2.99,6.36-3.18Z"/>
                <path class="cls-29" d="M232.33,284.42c.4.05,1.13.08,1.47,0l-4.65,4.41c-.79-.06-.9-2.48-1.22-2.94.85-.04.54-2.45.24-2.45-.49.65-.16,1.65-.24,2.45-1.17-1.69-5.76-5.7-4.65-6.36,5.99-3.17,6.42,4.6,9.06,4.9Z"/>
                <path class="cls-47" d="M125.61,282.95c-1.28-.91-3.15-2.55-3.92-3.92-.85-1.52-3.3-7.59-.73-8.32,2.19-.63,1.6,4,2.69,6.12.66,1.28,3.7,3.38,4.9,4.41l-2.94,1.71Z"/>
                <path class="cls-47" d="M243.1,277.07c-1.81,2.39-6.42,6.63-9.3,7.34-.34.08-1.07.05-1.47,0-.09-.43-.35-1.72-.49-1.96,6.61-1.67,11.03-6.92,11.99-13.71,1.82,3.31-.08,5.24-.73,8.32Z"/>
                <path class="cls-4" d="M217.15,295.19c-1.6,3.67-2.87,5.46-7.1,5.87-1.26-.21.72-5.37.73-5.87,1.62-1.41,4.5-1.55,6.36,0Z"/>
                <path class="cls-44" d="M141.28,290.78l7.83-6.36c-1.59,5.23-8.31,6.93-3.18,14.2-3.52,1.73-4.96-5.7-4.65-7.83Z"/>
                <path class="cls-52" d="M138.34,279.52c.16-.01.33,0,.49,0,1.05,1.98-1.87,9.23-3.92,5.63-.39-2.56,2.24-3.73,3.43-5.63Z"/>
                <path class="cls-44" d="M149.6,283.44c-2.02-.05-7.22,4.85-7.83,6.36-2.07-2.63,7.38-9.83,7.83-6.36Z"/>
                <path class="cls-47" d="M149.6,283.44c.04.34-.34.49-.49.98l-7.83,6.36c.06-.38.32-.56.49-.98.61-1.51,5.81-6.41,7.83-6.36Z"/>
                <g>
                  <path class="cls-42" d="M179.22,282.46c3.14-.19,15.8.03,17.38,2.69,1.15,1.94,1.54,15.4-.24,16.89-3.04,2.53-27.71,3.42-29.13-.24.79-13-3.29-18.39,11.99-19.34Z"/>
                  <path class="cls-7" d="M176.77,284.91c6.33-.83,15.41-1.95,16.4,5.63,1.83,14.02-12.76,10.04-21.78,9.06-1.14-6.71-2.63-13.63,5.38-14.69Z"/>
                </g>
                <path class="cls-29" d="M227.92,285.88c.09-.79-.25-1.8.24-2.45.3,0,.6,2.4-.24,2.45Z"/>
              </g>
            </g>
          </g>
          <g>
            <path class="cls-43" d="M228.41,180.64c-8.19,4.04-16.3,8.04-25.21,10.28-1.64.41-10.34.98-10.52,2.2l1.47,1.71c-4.12.47-8.49-.65-12.48-.49-.19,0-4.3.44-3.43,1.47,11.56.67,23.74-2.25,34.02,3.92,8.2,8.92,7.14,40.65.49,49.2-4.85,6.23-25.04,4.73-32.8,4.65-7.09-.07-23.45,1.59-27.9-4.65-2.86-4.01-3.39-25.12-3.43-31.08s.09-10.13,1.47-16.15c1.4-2.3,5.88-3.32,8.57-3.92,7.01-1.55,15.18-.12,20.31-4.65-7.26-.38-14.68-.48-21.78-2.2s-13.23-5.75-19.83-8.32c-.14-.78-.33-1.64-.49-2.45,26.25,18.02,64.95,14.8,91.54-.98-.07.47.06,1,0,1.47Z"/>
            <g>
              <path class="cls-62" d="M151.07,242.32c2.25,1.39,2.22,4.23,4.65,5.87,6.42,4.33,14.6.57,21.05.49,5.27-.07,10.81,1.3,16.4,1.47,8.22.25,15.05.63,19.09-8.32,3.08-6.81-.08-4.6-.49-7.59-.05-.38.84-6.55.98-7.59,0-.05.91.17.98-.24.39-2.24,1.86-7.97,0-9.55.52-3.19-.93-3.69-.98-3.92-.9-4.05-1.83-9.03-6.36-10.52,2.88-.5,4.3-3.15,6.36-.98,6.54,6.89,5.81,44.91-4.65,49.69-5.27,2.4-48.19,2.39-52.87-.49-2.84-1.75-3.59-5.25-4.16-8.32Z"/>
              <path class="cls-42" d="M201.49,203.16c-3.43.33-15.16,4.18-16.15,7.59-.51,1.76,1.15,5.99-.98,7.1-.24-5.73-4.49-11.95-10.28-13.22l.98-1.47c3.76.42,7.12,1.74,11.01,1.47,1.4-.1,3.92-1.71,5.14-1.96.09-.02.24.81,1.71.49,4.7-1.01,10.09-4.16,15.42-4.41.44.23,2.58.24,1.71,1.47-2.11,1.55-7.84-.09-8.57,2.94Z"/>
              <path class="cls-45" d="M191.21,202.67c-1.22.25-3.74,1.86-5.14,1.96-3.89.27-7.26-1.05-11.01-1.47-5.44-.61-9.35-2.16-14.93,1.47-7.4,4.82-7.02,23.66,0,28.39,8.03,5.41,23.65,2.34,27.17-7.59,2.1-5.94-.58-13.55,5.14-17.87,4.92-3.71,15.1-4.61,17.38,2.69,3.66,11.72-7.1,6.3-12.97,7.59-3.92.86-7.3,8.41-7.59,11.99-.27,3.38,2.25,9.67,1.96,10.77-.13.48-1.93,1.66-2.45,2.2-5.14.99-11.06,3.27-16.15,3.92-3.77.48-10.41,1.12-13.95,0-10.59-3.35-5.99-34.12-6.12-42.83,14.21-7.08,29.61-3.58,44.79-5.14,2.27,1.23-6.19,2.75-6.12,3.92Z"/>
              <path class="cls-42" d="M212.75,226.65c.31-1.33-.83-.84-.98-.98-1.29-1.14-6.03-5.87-7.34-2.45-.48-1.93-12.89-.9-9.55-2.94,4.7-2.42,17.72,3.44,18.85-3.43,1.86,1.57.39,7.3,0,9.55-.07.41-.97.19-.98.24Z"/>
              <path class="cls-42" d="M212.26,241.83c-4.05,8.95-10.87,8.57-19.09,8.32v-.98c.96,0,3.02-.59,3.92-.98,2.67-1.15,2.18-3.66,4.9-4.41,1.85,4.27,6.67-.93,8.81-1.96.28-.13.64.82,1.47,0Z"/>
              <path class="cls-13" d="M156.45,218.82c-.08-.98-.11-2.47,0-3.43l.98.73c-.1-3.92,1.24-5.3,3.92-7.59,1.48,1.42,5.92-1.42,5.87,1.22-.01.68-7.92,8.74-8.57,10.52l-1.22-2.2-.98.73Z"/>
              <g>
                <path class="cls-49" d="M208.34,198.75c-5.33.24-10.72,3.4-15.42,4.41-1.48.32-1.63-.51-1.71-.49-.07-1.17,8.39-2.69,6.12-3.92-15.19,1.56-30.58-1.94-44.79,5.14.13,8.71-4.47,39.49,6.12,42.83,3.54,1.12,10.18.48,13.95,0-.25,1.39,1.39,1.05,2.2.98,4.48-.4,10.76-1.58,13.95-4.9.52-.54,2.32-1.72,2.45-2.2.29-1.1-2.23-7.39-1.96-10.77.29-3.58,3.67-11.13,7.59-11.99,5.87-1.29,16.63,4.13,12.97-7.59-2.28-7.3-12.46-6.4-17.38-2.69-5.72,4.32-3.04,11.93-5.14,17.87-3.51,9.93-19.14,13-27.17,7.59-7.02-4.73-7.4-23.57,0-28.39,5.58-3.63,9.49-2.08,14.93-1.47l-.98,1.47c-7.64-1.67-16.64,2.35-17.62,10.77-.11.96-.08,2.44,0,3.43.21,2.74,2.3,8.6,4.41,10.28,9.63,9.16,24.03,1.53,23.5-11.26,2.13-1.11.47-5.34.98-7.1,1-3.41,12.72-7.26,16.15-7.59,8.94-.87,10.38,7.44,11.01,14.69l.24-4.9c.05.23,1.5.73.98,3.92-1.12,6.87-14.14,1.01-18.85,3.43-3.34,2.04,9.07,1,9.55,2.94-2.23,5.78,6.96,12.99,7.34,2.45.15.14,1.29-.35.98.98-.14,1.04-1.03,7.21-.98,7.59.41,2.99,3.56.78.49,7.59-.83.82-1.19-.13-1.47,0,5.69-15.97-10.5-1.94-8.81,1.96-2.72.75-2.22,3.25-4.9,4.41,2.14-2.04,2.02-4.41-.24-6.36-3.85-1.3-11.18,7.31-3.67,7.34v.98c-5.59-.17-11.13-1.54-16.4-1.47-6.45.08-14.63,3.84-21.05-.49-2.43-1.64-2.4-4.49-4.65-5.87-1.23-6.53-2.58-34.09-.49-39.41,1.3-3.32,10.06-4.59,13.46-5.14,9.06-1.46,36.74-2.86,44.3.98Z"/>
                <path class="cls-34" d="M195.37,222.74c6.7-1.67,11.66,5.73,8.08,11.01-8.47,12.52-18.44-8.43-8.08-11.01Z"/>
                <path class="cls-42" d="M188.76,242.81c-3.19,3.32-9.48,4.49-13.95,4.9-.82.07-2.45.41-2.2-.98,5.09-.64,11.02-2.92,16.15-3.92Z"/>
              </g>
              <g>
                <path class="cls-53" d="M180.93,210.99c-5.58.25-9.04,8.74-12.73,12.97,8.9,4.29,7.4-7.29,14.2-10.52,2.09,6.18.5,13.6-5.63,17.13-6.29,3.63-5.05-.31-5.38-.49-2.28-1.23-3.88,2.02-4.41,1.96s-.77-1.41-.98-1.47c-.82-.22-3.96-.53-5.14-1.47-2.11-1.68-4.19-7.54-4.41-10.28l.98-.73,1.22,2.2c.64-1.78,8.56-9.85,8.57-10.52.04-2.65-4.4.2-5.87-1.22,6.56-5.62,14.78-4.57,19.58,2.45Z"/>
                <path class="cls-23" d="M174.08,204.62c5.79,1.26,10.04,7.49,10.28,13.22.53,12.79-13.87,20.42-23.5,11.26,1.18.94,4.32,1.25,5.14,1.47.21.06.44,1.4.98,1.47s2.13-3.19,4.41-1.96c.33.18-.9,4.12,5.38.49,6.13-3.53,7.72-10.95,5.63-17.13-.56-1.66-.76-1.41-1.47-2.45-4.8-7.02-13.02-8.07-19.58-2.45-2.68,2.29-4.01,3.67-3.92,7.59l-.98-.73c.98-8.42,9.98-12.44,17.62-10.77Z"/>
                <path class="cls-27" d="M172.85,209.52c.26-.06,2.77.93,2.69,1.71-2.09,1.7-11.49,16.13-12.48,16.4-1.8.49-3.48-.57-3.18-2.69.14-1,11.99-15.18,12.97-15.42Z"/>
                <path class="cls-15" d="M180.93,210.99c.71,1.04.9.78,1.47,2.45-6.79,3.24-5.3,14.82-14.2,10.52,3.68-4.23,7.15-12.72,12.73-12.97Z"/>
              </g>
              <g>
                <path d="M210.79,241.83c-2.14,1.02-6.96,6.23-8.81,1.96-1.69-3.9,14.5-17.93,8.81-1.96Z"/>
                <path class="cls-34" d="M209.57,235.95c3.31-.01-.12,9.85-5.38,7.83-2.33-.89,4.88-7.83,5.38-7.83Z"/>
              </g>
              <g>
                <path d="M211.77,225.67c-.38,10.54-9.57,3.33-7.34-2.45,1.32-3.42,6.05,1.3,7.34,2.45Z"/>
                <path class="cls-34" d="M206.63,223.23c3.15-.03,4.79,6.29,1.96,6.36-1.67.05-2.93-5.04-1.96-6.36Z"/>
              </g>
              <g>
                <path class="cls-29" d="M197.08,248.19c-.9.39-2.95.98-3.92.98-7.51-.03-.18-8.65,3.67-7.34,2.26,1.95,2.38,4.33.24,6.36Z"/>
                <path class="cls-34" d="M194.88,243.3c.59-.02,1.15.53,1.71.73,1.04,3.37-1.9,3.94-4.65,3.67-1.59-1.28,2.57-4.39,2.94-4.41Z"/>
              </g>
            </g>
          </g>
        </g>
      </g>
      <g>
        <path class="cls-19" d="M95.26,76.86c-1.49,11.56-1.72,17.75,0,29.37l-7.34-2.94c-.43-6.58.47-15.28.49-22.03,1.77-1.74,4.25-4.09,6.85-4.41Z"/>
        <path class="cls-21" d="M95.26,106.23c.54,3.65,1.4,7.73,2.45,11.26-4.33-1.62-9.14-6.66-9.79-11.26-.02-.15.06-2.04,0-2.94l7.34,2.94Z"/>
        <path class="cls-50" d="M87.92,103.29c.06.9-.02,2.79,0,2.94-2.16-5.03-4.91-16.2-3.43-21.29.19-.67,3.22-2.99,3.92-3.67-.02,6.75-.91,15.45-.49,22.03Z"/>
        <g>
          <path class="cls-29" d="M255.34,140.01c-1.39,1.6-3.36,3.34-4.9,4.9-.98,1-1.94,1.95-2.94,2.94-.65.65-4.3,2.74-4.41,3.18-.27,1.08,2.29,4.54,0,8.81-1.33,2.49-10.71,7.34-10.77,8.32-.18,3.09,9.81-1.32,13.46.24,3.84,1.64,1.9,6.12,4.65,7.34-5.53.19-6.91,8.98-7.83,13.71-1.92,9.83-1.96,22.23-1.47,32.31.2,4.14.78,8.63,1.47,12.73.19,1.11-.6,2.7.98,2.45-.06,1.98,1.04,4.69,1.96,6.36.09.57-.49.45-.49.49-1.82-3.87-1.84.92-5.38-.49-.24-.12-.93-.46-.98-.49-12.53-8.17-12.08-48.64-10.28-62.17.06-.47-.07-1,0-1.47.26-1.64.55-3.29.98-4.9.02-.08,1.02-.38,0-1.47,1.14-1.93,4.05-2.76,1.22-4.9-3.53,1.81-7.79,4.14-11.5,5.38-5.7,1.9-11.68,3.44-17.62,4.41-15.18,2.47-31.22,2.12-46.26-1.47-2.73-.65-20.71-8.07-21.29-7.1-.67,1.11.61,2.45,1.47,3.18.04.31-.07.73,0,.98.69,2.34,1.01,4.48,1.47,6.85.15.8.35,1.67.49,2.45,2.79,15.7,3.51,39.33-3.43,54.09-1.46,3.1-3.7,5.05-6.85,6.12-.15-.31-1.04-.35-1.47-.49-1.76-.56-2.29.57-3.43-.73,4.24-2.72-.56-11.21-1.47-15.42-.53-2.46-1.73-6.68-1.96-8.81l6.61,19.09c1.38.43,1.83-10.93,1.71-12.24,2.03-6.38-1.61-47.77-7.59-48.95-1.94,1.02-4.63,1.26-6.61,1.96,1.38-.97,5.48-2.14,5.87-3.18.27-.71-1.55-4.05,2.69-5.63,3.14-1.17,12.02,2.17,11.99.24,0-.74-10.08-6.01-11.26-9.3-1.27-3.53.61-8.38.49-8.81-.21-.74-3.42-1.76-3.92-2.2-.68-.6-1.18-1.32-1.96-1.96-.86-2.99-4.6-4.48-6.36-6.36-5.03-5.35-9.2-13.18-11.75-20.07-.41-1.12-.62-1.24-.98-2.45-1.04-3.53-1.91-7.61-2.45-11.26-1.72-11.62-1.49-17.81,0-29.37.12-.93-.55-1.09-.49-1.47,13.54-91.37,142.43-105.36,174.76-10.52.7,2.06,1.14,7.89,1.96,9.3,1.2,2.05,9.79,4.92,11.26,9.3,2.57,7.63.04,21.04-4.9,27.41-2.74,3.54-8.98,6.84-10.77,9.3-4.26,5.84-5.32,12.43-11.75,19.83Z"/>
          <g>
            <path class="cls-45" d="M135.89,155.18l-1.22.49c15.45,14.5,37.48,13.98,57.27,11.75,1.27-.14,5.55-2.36,6.12-.73-5.03,10.78-28.71,7.41-38.92,6.12-5.53-.7-11.32-3.05-16.89-2.94-9.41-3.63-25.7-9.29-16.4-22.03,3,2.24,6.82,5.62,10.04,7.34Z"/>
            <path class="cls-52" d="M187.29,177.7c4.24-2.75,13.77-3.42,17.38-6.85,2.52-2.4,2.29-4.71,1.71-7.83,9.41-1.9,18.75-5.26,27.17-9.79,3.05-1.64,7.2-7.67,8.57-1.22,1.64,7.75-5.01,11.22-11.01,14.44-12.02,6.45-30.22,10.77-43.81,11.26Z"/>
            <path class="cls-18" d="M135.89,155.18c21,11.29,47.47,12.47,70.49,7.83.58,3.12.81,5.43-1.71,7.83-3.6,3.44-13.14,4.11-17.38,6.85-16.01.57-30.3-2.14-45.04-7.83,5.57-.11,11.36,2.24,16.89,2.94,10.21,1.29,33.88,4.66,38.92-6.12-.57-1.63-4.84.59-6.12.73-19.79,2.23-41.83,2.75-57.27-11.75l1.22-.49Z"/>
            <g>
              <path class="cls-44" d="M244.57,178.19c-.09-1.93-1.51-3.79-2.94-1.71-3.48,5.09-4.84,33.7-4.41,40.63.06.93-.28,1.84.98,2.2-.19.42-.36.7-.73.98-1.97-.03-5.94-18.46-6.12-21.29-.35-5.76,1.5-21.34,6.61-24.72,4.41-2.92,12.78-2.1,6.61,3.92Z"/>
              <path class="cls-44" d="M128.55,204.62c.33,1.84.29,4.08,1.47,5.63.18-11.58-1.91-23.02-4.41-34.27-2.5-1.86-2.1.85-1.96,2.69-5.26-3.41-.77-8.32,3.67-5.87,6.47,3.56,6.2,40.75,3.43,47.97-1.25.32-3.2-14.33-2.2-16.15Z"/>
              <path class="cls-47" d="M244.57,178.19c.08,1.81-3.44,10.38-3.92,13.46-.93,6.08-.6,23.62-2.45,27.66-1.26-.36-.92-1.27-.98-2.2-.43-6.93.92-35.54,4.41-40.63,1.42-2.08,2.85-.21,2.94,1.71Z"/>
              <path class="cls-47" d="M128.55,204.62c-1.26-6.98-4.41-19.77-4.9-25.94-.15-1.85-.54-4.55,1.96-2.69,2.49,11.25,4.59,22.69,4.41,34.27-1.18-1.54-1.14-3.79-1.47-5.63Z"/>
              <path class="cls-31" d="M245.06,243.79c-.01.52.79.64.24.98-1.98.11-3.86-.61-5.63-1.47,3.55,1.41,3.57-3.38,5.38.49Z"/>
            </g>
            <g>
              <path class="cls-45" d="M187.78,2.45c-11.98,6.67-25.14,6.04-37.94,11.75-3.23,1.44-24.25,14.39-23.74,16.89.14.67.83.68,1.47.49.92-.28,12.38-9.8,15.42-11.5,18.54-10.4,47.04-16.66,64.13-.49,5.57,5.27,7.52,9.94,7.59,17.62-40.86-12.01-73.19-1.28-105.74,23.01-1.94,1.45-3.7,2.94-5.63,4.41l1.22-5.63-2.94.24C114.25,23.35,150.18.69,187.78,2.45Z"/>
              <path class="cls-24" d="M123.66,78.82c-1.24,9.84-8.32,23.2-5.87,33.04,1.78,7.16,13.67,14.66,19.09,19.34,8.5,19.76,44.86,21.12,62.66,17.13l.98,7.34c-1.61.28-3.9.85-5.38.98-15.44,1.32-33.39-.26-47.24-7.34,2.62,3.97,8.19,5.97,12.24,8.32l27.17,5.38c-43.59,1.18-81.54-17.7-84.2-65.6l20.07-23.5c.18,1.41.19,3.58.49,4.9Z"/>
              <path class="cls-46" d="M255.83,74.9c4.34,2.24,5.33,2.39,6.36,8.08,7.82,43.22-24.4,75.48-65.6,79.55-1.68-1.25-.73-3.88-1.47-5.87,1.49-.13,3.77-.7,5.38-.98,13.56-2.32,37.37-15.52,40.63-30.11,1.2-5.35.2-11.94,1.47-17.38,2.48-1.9,4.19-6.29,4.41-9.3.17-2.37.16-3.73-.98-5.87-3.92-6.34-.66-15.24,0-22.52,3.22,1.18,6.04,3.37,9.06,4.9.67.34.7-.51.73-.49Z"/>
              <path class="cls-47" d="M224.99,40.64c1.79-1.49.92-7.89.49-10.04-2.66-13.18-9.95-15.75-18.36-23.25-.95-.85-.9-.92-.24-1.96,26.95,7.29,51.02,29.62,59.23,56.54.87,2.84,2.08,7.08,1.71,10.04-12.14-12.35-26.69-24.59-42.83-31.33Z"/>
              <path class="cls-18" d="M206.87,5.39c-.66,1.04-.7,1.11.24,1.96,8.41,7.51,15.7,10.07,18.36,23.25.43,2.14,1.3,8.54-.49,10.04-3.25-1.36-6.89-2.43-10.28-3.43-.06-7.69-2.02-12.35-7.59-17.62-17.08-16.17-45.59-9.91-64.13.49-3.04,1.71-14.5,11.22-15.42,11.5-.64.19-1.33.18-1.47-.49-.51-2.5,20.52-15.45,23.74-16.89,12.8-5.71,25.96-5.08,37.94-11.75,7.27.34,12.12,1.05,19.09,2.94Z"/>
              <path class="cls-52" d="M239.18,56.3l3.43-3.43c4.84,3.26,23.98,17.89,25.94,22.27.77,1.71,1.92,12.88,1.96,15.18.32,18.72-7.29,42.09-22.27,54.09-.76.61-7,5.99-6.61,2.69.09-.76,8.62-8.82,10.28-11.26,9.49-13.92,16.49-41.26,10.28-57.27-2.61-6.73-16.71-18.35-23.01-22.27Z"/>
              <path class="cls-18" d="M146.17,40.64l-32.06,19.58.73,4.41c-1.89,1.62-7.41,7.16-8.81,9.06-11.13,15.02-2,47.2,7.83,61.68,1.54,2.27,10.28,10.97,10.28,11.75,0,.09-1.14,1.22-1.22,1.22-2.75.16-16.55-16.64-18.36-19.83-7.21-12.73-11.63-37.23-7.83-51.4,3.37-12.56,37.08-32.28,49.44-36.47Z"/>
              <path class="cls-45" d="M166.73,35.74c.83.93-.53,1.26.73,1.47,3.87.64,12.74-.8,11.5,5.87-20.56.72-37.31,4.16-54.83,15.18-3.01,1.89-6.63,4.07-9.3,6.36l-.73-4.41,32.06-19.58c7.09-2.4,13.05-3.99,20.56-4.9Z"/>
              <path class="cls-38" d="M123.17,72.94c.03.32-.04.66,0,.98l-20.07,23.5c-.87-15.63.33-19.51,11.5-29.86,2.53-2.34,5.79-3.64,8.08-6.36h.49c.57,1.55-.94,3.71-.98,5.14-.07,2.42.74,4.33.98,6.61Z"/>
              <path class="cls-18" d="M209.81,37.7c-.12,0-1.69.55-2.45.24,3.54,3.48,4.99,2.79.49,6.61-9.69-1.57-19.14-1.81-28.88-1.47,1.24-6.68-7.63-5.23-11.5-5.87-1.26-.21.1-.54-.73-1.47,14.16-1.7,29.34-2.01,43.08,1.96Z"/>
              <path class="cls-29" d="M207.85,44.55c1.97.32,3.92.54,5.87.98l-2.2,2.45c3.1-.12,5.83,1.31,8.57,2.45h-.49c-2.68-.36-5.21-1.37-7.83-1.96-3.51-.79-7.2-1.51-10.77-1.96-7.43-.93-14.05-1.2-21.54-.98-1.13.03-2.3-.06-3.43,0-9.1.47-17.26,2.85-25.94,3.92-.13.02-1.9-.51-1.96.49-4.39.62-14.16,4.63-17.62,7.34l-7.34,3.92h-.49c.69-.83,1.7-1.67,1.47-2.94,17.52-11.02,34.26-14.45,54.83-15.18,9.75-.34,19.19-.1,28.88,1.47Z"/>
              <path class="cls-19" d="M280.79,99.87c-3.67.81-5.16,6.8-9.79,5.38,1.44-10.13,1.24-19.22-.24-29.37,12.23,4.93,12.39,12.14,10.04,23.99Z"/>
              <path class="cls-54" d="M195.13,156.65c.74,1.99-.21,4.63,1.47,5.87-3.15.31-6.14.4-9.3.49l-27.17-5.38c-4.04-2.35-9.62-4.35-12.24-8.32,13.85,7.08,31.8,8.66,47.24,7.34Z"/>
              <path class="cls-47" d="M209.81,37.7c3.97.08,11.83,3.7,15.66,5.38v6.36c-3.7-1.47-7.88-3.04-11.75-3.92-1.96-.44-3.9-.66-5.87-.98,4.5-3.82,3.05-3.13-.49-6.61.76.3,2.32-.25,2.45-.24Z"/>
              <path class="cls-2" d="M242.61,52.87l-3.43,3.43c-4.05-2.52-9.27-5.09-13.71-6.85v-6.36c6.24,2.74,11.5,6,17.13,9.79Z"/>
              <path class="cls-21" d="M280.79,99.87c-1.46,7.33-6.29,14.31-12.73,16.89,1.27-3.68,2.39-7.65,2.94-11.5,4.63,1.41,6.12-4.57,9.79-5.38Z"/>
              <path class="cls-28" d="M255.83,74.9s-.06.83-.73.49c-3.01-1.53-5.84-3.72-9.06-4.9.01-.16-.01-.33,0-.49.19-2.27.36-3.21-.49-5.38,3.82,2.92,8.86,5.23,10.28,10.28Z"/>
              <path class="cls-45" d="M108.97,60.22l-10.04,10.28c-.88-.58,2.2-9.86,2.69-11.26l2.94-.24-1.22,5.63c1.93-1.47,3.69-2.96,5.63-4.41Z"/>
              <path class="cls-37" d="M245.55,64.62c.85,2.18.68,3.11.49,5.38l-3.43-1.96c0-.16,0-.33,0-.49-.14-2.24-.45-3.74-.98-5.87,1.63,1.08,2.47,1.83,3.92,2.94Z"/>
              <path class="cls-9" d="M200.51,155.67l-.98-7.34c14.47-3.24,32.55-12.59,35.25-28.64.26-1.56-.28-9.39,0-9.79.24-.34,4.66.72,7.83-1.71-1.27,5.44-.27,12.03-1.47,17.38-3.26,14.59-27.07,27.79-40.63,30.11Z"/>
              <path class="cls-54" d="M127.57,92.04c-10.35,1.28-3.83,24.07,6.36,20.56,1.4-.24,1.04,1.37.98,2.2-.47,6.03-.51,10.66,1.96,16.4-5.42-4.68-17.32-12.18-19.09-19.34-2.44-9.84,4.64-23.21,5.87-33.04.69,3.06,4.24,8.91,4.9,11.5.52,2.07.13.52-.98,1.71Z"/>
              <path class="cls-9" d="M246.04,70.01c-.01.16.01.33,0,.49-.66,7.28-3.92,16.18,0,22.52-.44-.83-3-2.88-3.92-3.43-1.6-.95-2.64-.96-4.41-1.22,3.46-6.54,5.17-12.95,4.9-20.31l3.43,1.96Z"/>
              <path class="cls-55" d="M150.09,49.45c.05.42-.12.45-.49.49-.48.05-1-.07-1.47,0,.05-1,1.83-.47,1.96-.49Z"/>
            </g>
            <g>
              <path class="cls-17" d="M225.97,52.87c3.08,4.02,7.59,8.12,11.5,11.26.05.04.92-1.01.98-.98.15.08.99,2.08,1.71,2.94-2.52,2.14-2.58,18.47-8.57,15.66-.84-.39-2.72-3.47-3.18-4.41-1.95-3.92-3.43-11.68-4.41-16.15.26-2.44.22-4.88.49-7.34.05-.49.52-.55.49-.98.21.09.77-.09.98,0Z"/>
              <path class="cls-8" d="M241.63,61.69c.53,2.13.84,3.63.98,5.87h-.49c-.96-.28-1.34-.73-1.96-1.47-.72-.86-1.56-2.86-1.71-2.94-.06-.03-.93,1.02-.98.98-3.91-3.14-8.43-7.24-11.5-11.26,5.59,2.56,10.54,5.41,15.66,8.81Z"/>
              <path class="cls-26" d="M224.01,52.39c.1,1.44-1.59,1.67-2.45,2.45-.89.31-2.88-2.15-2.94-2.45-.1-.53,1.32-1.02.98-1.96h.49c.96.4,2.61,1.38,3.92,1.96Z"/>
              <path class="cls-33" d="M205.9,50.43c-4.19,1.59-6.86,5.55-9.3,9.3-1.44.76-2.94,2.12-.73,2.94,7.7-2.19,15.93-4.5,21.78-10.28.32-.02.66,0,.98,0,.06.29,2.05,2.75,2.94,2.45-9.16,8.29-22.42,10.85-34.51,11.26,4.05-4.34,8.24-9.09,12.48-13.22,1.95-1.89,5.17-6.02,6.36-2.45Z"/>
              <path class="cls-17" d="M176.04,45.53c.94,1.15.14,1.22,0,1.96-.21.06-.95.44-.98.49-1.63-.71-2.78.63-3.92,1.47-.44.33-1.04.64-1.47.98-4.76.55-22.96,7.3-24.97,10.77l-.49-.98c1.04-1.73,3.39-3.91,3.43-5.87,1.02-1.2,2.41-1.68,1.96-3.92v-.49c.37-.04.54-.07.49-.49,8.68-1.06,16.85-3.44,25.94-3.92Z"/>
              <path class="cls-33" d="M211.77,48.47c-.78,2.43-4.45,1.42-5.87,1.96-1.19-3.57-4.42.56-6.36,2.45-11.96,7.36-22.78,15.87-37.94,13.71l-.49-.98c.08-.49,2.28-1.97,2.69-2.45-.07,1.45,1.75,1.48,2.69,1.47,5.87-.09,27.78-8.38,30.11-13.71.02-.06.82-.28.98-.73.03-.09-1.95-.69-.73-1.71,1.04-.88,2.9.78,4.41-.49,1.41-1.19.11-.62-.24-1.47,3.57.45,7.26,1.17,10.77,1.96Z"/>
              <path class="cls-26" d="M179.46,45.53l-10.04,15.18,27.17-9.79c-2.32,5.32-24.23,13.62-30.11,13.71-.94.01-2.76-.01-2.69-1.47,3.77-4.32,11.28-10.77,12.24-15.66.14-.74.94-.81,0-1.96,1.13-.06,2.29.03,3.43,0Z"/>
              <path class="cls-33" d="M175.06,47.98c-6.94,12.34-20.17,19.6-34.02,22.03-1.79-.35,1.41-6.17,1.71-6.85,2.13-.06-.17,1.96,1.22,2.45,3.69,1.28,25.68-10.57,27.9-14.2.87-1.42-.28-1.21-.73-1.96,1.14-.84,2.29-2.18,3.92-1.47Z"/>
              <path class="cls-26" d="M142.75,63.15c.5-1.15.82-1.85,1.47-2.94l.49.98c-.08.14-.64,1.81-.24,1.96,7.54-2.8,15.26-4.83,22.03-9.3,1.15-.76,2.25-2.68,3.18-3.43.42-.34,1.03-.65,1.47-.98.45.74,1.61.54.73,1.96-2.22,3.62-24.21,15.47-27.9,14.2-1.4-.48.9-2.51-1.22-2.45Z"/>
              <path class="cls-8" d="M149.6,50.43c.45,2.23-.94,2.72-1.96,3.92-.63.74-3.01,2.29-3.43,2.94-1-.86-1.76-.17-2.45.49v-2.94c2.45-1.65,4.64-4.07,7.83-4.41Z"/>
              <path class="cls-25" d="M130.51,57.28c-4.02,3.16-4.42,4.28-4.41,9.3,0,1.65.26,2.45.49,3.92.5,3.2,3.46,6.16,1.47,9.79-.47-1.78.29-4.6-1.71-5.38-2.23.44,1.69,9.38,2.2,10.77.25.66,2.23,3.06.73,3.43-2.89-4.28-3.61-9.02-4.65-13.95-.12-.56-.52-2.54-1.47-2.2-.24-2.28-1.05-4.18-.98-6.61.04-1.43,1.55-3.59.98-5.14l7.34-3.92Z"/>
              <path class="cls-8" d="M201,46.51c.35.85,1.65.28.24,1.47-1.51,1.27-3.36-.39-4.41.49-1.21,1.02.77,1.63.73,1.71-.16.46-.95.68-.98.73l-27.17,9.79,10.04-15.18c7.49-.22,14.11.05,21.54.98Z"/>
              <path class="cls-8" d="M219.6,50.43c.34.94-1.08,1.43-.98,1.96-.32,0-.66-.02-.98,0-1.11.06-19.72,6.64-21.05,7.34,2.44-3.75,5.11-7.71,9.3-9.3,1.42-.54,5.09.47,5.87-1.96,2.62.59,5.15,1.6,7.83,1.96Z"/>
              <path class="cls-5" d="M148.13,49.94c.47-.07.99.05,1.47,0v.49c-3.19.33-5.38,2.76-7.83,4.41-5.59,3.76-10.01,8.22-15.66,11.75-.02-5.02.38-6.15,4.41-9.3,3.46-2.71,13.24-6.73,17.62-7.34Z"/>
              <path class="cls-26" d="M139.32,61.2c-4.32,8.22-1.37,21.7-3.92,26.19-1.83,3.23-5.16.56-6.36-2.2-.44-1-.6-3.45-.98-4.9,1.99-3.63-.97-6.59-1.47-9.79l12.73-9.3Z"/>
              <path class="cls-8" d="M141.77,57.77c-.39.37-2.16,2.87-2.45,3.43l-12.73,9.3c-.23-1.47-.48-2.27-.49-3.92,5.65-3.53,10.08-7.99,15.66-11.75v2.94Z"/>
              <path class="cls-22" d="M128.06,80.29c.38,1.44.54,3.89.98,4.9l-.49.49c-.51-1.39-4.43-10.32-2.2-10.77,2,.78,1.24,3.6,1.71,5.38Z"/>
              <path class="cls-26" d="M217.64,52.39c-5.85,5.78-14.08,8.09-21.78,10.28-2.21-.81-.71-2.18.73-2.94,1.33-.7,19.94-7.28,21.05-7.34Z"/>
              <path class="cls-8" d="M169.67,50.43c-.93.74-2.03,2.66-3.18,3.43-6.76,4.47-14.49,6.5-22.03,9.3-.4-.15.16-1.81.24-1.96,2.01-3.47,20.21-10.22,24.97-10.77Z"/>
              <g>
                <path class="cls-33" d="M144.22,57.28c-7.47,11.52-6.55,27.76-7.34,40.87-.3.33-1.98-1.35-2.45-1.71-2.87-2.23-2.82-4.9-6.85-4.41,1.11-1.2,1.5.36.98-1.71-.65-2.6-4.21-8.45-4.9-11.5-.3-1.31-.3-3.48-.49-4.9-.04-.31.03-.66,0-.98.94-.34,1.35,1.64,1.47,2.2,1.04,4.93,1.76,9.67,4.65,13.95,1.5-.36-.49-2.76-.73-3.43l.49-.49c1.21,2.77,4.53,5.43,6.36,2.2,2.55-4.49-.4-17.97,3.92-26.19.29-.55,2.06-3.05,2.45-3.43.68-.66,1.45-1.34,2.45-.49Z"/>
                <path class="cls-41" d="M242.12,89.59c.92.55,3.47,2.6,3.92,3.43,1.14,2.14,1.15,3.5.98,5.87-1.91,1.11-1.83,4.3-2.94,6.12-2.9,4.74-9.23,6.99-10.28,0l1.22.73c-.03-2.71.12-11.2,4.41-12.24,5.02-1.22,5.5,3.51,5.87,3.43,1.89-.42-1.79-6.58-7.34-3.43-2.99,1.7-4.12,7.1-3.92,10.28-3.96-4.79,1.58-16.28,8.08-14.2Z"/>
                <path class="cls-33" d="M240.16,66.09c.62.73.99,1.19,1.96,1.47-.67,9.87-3.69,19.9-9.55,27.9l-4.16-18.11c.46.93,2.34,4.01,3.18,4.41,5.98,2.8,6.05-13.53,8.57-15.66Z"/>
                <g>
                  <path class="cls-10" d="M127.57,92.04c4.04-.5,3.98,2.18,6.85,4.41,3.73,2.19,2.08,15.27-.49,16.15-10.19,3.51-16.72-19.28-6.36-20.56Z"/>
                  <path class="cls-41" d="M131.49,107.7c1.44-7.17-4.83-10.33-6.61-1.96.11-1.06-1.19-1.99-1.22-2.2-.41-2.27.63-1.89.98-2.69,3.12-7.25,13.07,2.11,6.85,6.85Z"/>
                  <path class="cls-30" d="M131.49,107.7c6.22-4.74-3.73-14.1-6.85-6.85-2.37-.08.9-3.29,1.22-3.43,7.39-3.19,11.04,11.79,8.81,11.26-.51-4.13-2.79.73-4.9.49-2.93-.34,1.59-1.37,1.71-1.47Z"/>
                </g>
                <g>
                  <path class="cls-16" d="M163.8,63.15c-.42.48-2.61,1.96-2.69,2.45l.49.98c15.16,2.16,25.98-6.34,37.94-13.71-4.24,4.12-8.43,8.88-12.48,13.22,12.09-.41,25.35-2.97,34.51-11.26.86-.78,2.55-1,2.45-2.45.35.15.63.33.98.49.03.43-.44.49-.49.98-4.14,2.22-.99,5.04-.49,7.34.98,4.48,2.46,12.23,4.41,16.15l4.16,18.11c5.86-8,8.88-18.03,9.55-27.9h.49c0,.16,0,.33,0,.49.28,7.37-1.44,13.77-4.9,20.31,1.77.26,2.8.27,4.41,1.22-6.5-2.09-12.04,9.4-8.08,14.2-.2-3.18.92-8.58,3.92-10.28,5.55-3.15,9.23,3.01,7.34,3.43-.37.08-.85-4.65-5.87-3.43-4.29,1.04-4.43,9.53-4.41,12.24l-1.22-.73c1.05,6.99,7.38,4.74,10.28,0,1.11-1.81,1.03-5.01,2.94-6.12-.21,3.01-1.93,7.4-4.41,9.3-3.17,2.43-7.59,1.37-7.83,1.71-.28.4.26,8.23,0,9.79-2.69,16.04-20.77,25.4-35.25,28.64-17.8,3.99-54.16,2.63-62.66-17.13-2.47-5.74-2.43-10.37-1.96-16.4.06-.83.42-2.45-.98-2.2,2.57-.88,4.22-13.96.49-16.15.47.36,2.15,2.04,2.45,1.71.79-13.12-.13-29.35,7.34-40.87.42-.64,2.8-2.2,3.43-2.94-.03,1.96-2.39,4.14-3.43,5.87-.65,1.09-.96,1.79-1.47,2.94-.3.69-3.51,6.5-1.71,6.85,13.86-2.43,27.09-9.69,34.02-22.03.03-.05.77-.43.98-.49-.96,4.89-8.47,11.35-12.24,15.66Z"/>
                  <path class="cls-41" d="M189.25,148.33c15.97-5.01,35.15-13.62,37.2-32.55,1.92-17.76-4.22-33.31-5.87-50.42l-11.75,6.61c-.81-.26-1.59-.41-2.45-.49.06-1.7,7.81-3.12,6.12-4.9-10.57,5.91-24.69,6.22-36.71,6.36l-.73-.73,3.67-3.18c-4.37,2.96-12.21.65-15.91,4.41-2.99-.58-5.41-.57-8.32.49-4.19-2.49-10.44,1.64-15.18.98.31-1.07-.02-3.12,1.22-3.92,2.67-1.71,15.22-2.26,18.6-6.36,1.31.75-.47,2.84,1.47,3.43,6.5,1.97,19.93-1.65,25.45-5.87,1.84,1.27-3.04,3.47-2.94,4.9,13.45.46,26.94-2.49,38.43-9.55l12.73,51.89c2.06,26.57-22.75,36.76-45.04,38.92Z"/>
                  <path class="cls-11" d="M224.01,61.2c-.5-2.3-3.65-5.12.49-7.34-.27,2.46-.23,4.9-.49,7.34Z"/>
                  <g>
                    <path class="cls-16" d="M206.39,71.48c.86.08,1.64.23,2.45.49,2.31.76,7.01,4.93,6.61,7.83-7.47-2.73-14.95-3-22.03.98-1.18-6.69,7.57-9.82,12.97-9.3Z"/>
                    <path class="cls-33" d="M202.22,72.46c4.64-.64,10,1.09,11.99,5.63-6.72-1.26-14.07-3.94-19.83,1.22-.72-3.27,5.18-6.49,7.83-6.85Z"/>
                  </g>
                  <g>
                    <path class="cls-16" d="M162.82,73.43c4.25.82,8.33,3.87,7.1,8.81-6.9-4.39-14.5-4.7-21.54-.49-.63-3.16,3.57-6.9,6.12-7.83,2.91-1.06,5.33-1.07,8.32-.49Z"/>
                    <path class="cls-33" d="M157.68,73.92c4.52-.55,10.36.92,11.5,6.12-6.51-1.83-13.23-4.12-19.34.24-.87-3.26,5.3-6.06,7.83-6.36Z"/>
                  </g>
                  <g>
                    <path class="cls-10" d="M189.25,148.33c-19.31,1.87-51.34-1.55-53.85-26.19-.35-3.42,3.12-44.53,3.92-47.24,4.74.66,10.99-3.47,15.18-.98-2.55.93-6.75,4.67-6.12,7.83,7.04-4.21,14.64-3.9,21.54.49,1.23-4.94-2.85-7.99-7.1-8.81,3.7-3.76,11.54-1.44,15.91-4.41l-3.67,3.18.73.73c12.03-.15,26.14-.46,36.71-6.36,1.69,1.77-6.06,3.19-6.12,4.9-5.4-.52-14.15,2.61-12.97,9.3,7.08-3.98,14.56-3.7,22.03-.98.4-2.9-4.3-7.08-6.61-7.83l11.75-6.61c1.65,17.11,7.8,32.66,5.87,50.42-2.05,18.94-21.23,27.54-37.2,32.55Z"/>
                    <g>
                      <path class="cls-59" d="M195.62,134.62c-1.08.51-1.55.02-2.45,0-5.33-.1-10.84.23-15.18,3.92-3.75-2.53-2.77-3.71-4.9-6.61-.15-.2-5.14-3.1-2.45-3.67,7.97,2.28,18.94,2.04,26.68-.98.43-.17,6.96-3.09,4.16-3.92.05,0-.14-1.03.24-.98.2.02,2.26,2.09,2.2,2.69-.02.28-3.16,1.8-4.41,3.43-1.36,1.78-2.62,4.55-3.92,6.12Z"/>
                      <path class="cls-6" d="M166.73,104.27c-.11.57-.75,2.55-.98,2.94-.85,1.42-1.56,2.22-3.43,2.45,1.03-1.72,2.64-1.78,0-2.94,6.88-10.47-11.93-10.87-5.38-.98,1.09,1.65,2.85,3.74,4.41,1.96-.08.67.37,1.61.98,1.96v.49c-2.11.24-3.85-.17-5.87-.49-.61-.1-1.42.14-1.96,0-1.89-5-3.63-6.6-1.47-12.24l4.16-3.92c7.71-1.25,8.77,4.73,9.55,10.77Z"/>
                      <path class="cls-41" d="M201.49,123.37c2.8.83-3.73,3.75-4.16,3.92-7.74,3.02-18.71,3.26-26.68.98-1.83-.52-3.6-1.9-5.63-1.96l.73-2.45c.35,0,5.11,2.25,6.61,2.45,2.74.36,6.12.99,8.81.98,7.09-.02,13.54-3.32,20.31-3.92Z"/>
                      <path class="cls-41" d="M218.62,94.48c-3.87-17.36-22.82-14.44-21.54,2.94-.32,4.56.77,11.36,6.36,12.24.03.02-.19.29.49.49-.41,3.75-5.87-2.74-6.36-3.67-5.04-9.48.16-30.8,13.95-24.72,3.15,1.39,8.49,9.09,7.1,12.73Z"/>
                      <path class="cls-41" d="M168.69,93.02c-2-7.37-11.13-14.51-17.13-5.87-4.49,6.46-6.75,20.03,2.94,22.52.54.14,1.35-.1,1.96,0-3.67,3.63-8.24-2.46-9.3-6.12-1.36-4.69-.79-12.43,1.96-16.64,6.53-10.02,18.68-4.36,19.58,6.12Z"/>
                      <path class="cls-32" d="M218.62,94.48c.49,2.21.92,6.96.49,9.06-.19.95-5.37,10.68-6.36,6.12.03-.01,0-.15.49-.49,11.39-5.51,2.17-31.02-10.04-24.48-3.09,1.65-5.89,9.49-6.12,12.73-1.28-17.38,17.67-20.3,21.54-2.94Z"/>
                      <path class="cls-1" d="M170.65,128.26c-2.69.57,2.3,3.47,2.45,3.67,2.13,2.9,1.15,4.08,4.9,6.61,4.55,3.07,8.46,3.22,12.97,0,.82-.58,3.4-2.72,2.2-3.92.9.02,1.37.51,2.45,0-4.05,4.87-6.66,8.55-13.95,6.85-8.47-1.97-9.17-13.28-18.36-14.93-.4-1.22,1.73-2.69,2.45-2.69l-.73,2.45c2.03.06,3.8,1.44,5.63,1.96Z"/>
                      <path class="cls-1" d="M179.95,112.6c-3.9-1.02-7.57,2.23-5.87,6.36,1.07,2.62,4.59,3.45,7.1,2.94,1.73-.35,3.75-3.52,5.63-3.18-3.91,7.03-17.92,4.45-14.2-3.92,1.74-3.91,8.86-1.14,8.57-8.08,1.43,1.09-.38,4.89-1.22,5.87Z"/>
                      <path class="cls-32" d="M168.69,93.02c1.66,6.1,1.03,16.31-6.36,17.13v-.49c1.87-.23,2.57-1.03,3.43-2.45,7.96-8-2.59-31.9-14.2-20.07,6-8.64,15.13-1.5,17.13,5.87Z"/>
                      <path class="cls-36" d="M213.24,109.17c-.49.34-.46.48-.49.49-.41.17-8.29.64-8.81.49-.68-.2-.46-.47-.49-.49-1.84-1.06-2.13-3.78-2.45-5.38.48,1.94,1.07,2.22,2.45,3.43,3.19,2.8,2.24.58,2.94.49.78-.11,1.57.52,2.94-.49.09,3.46,3.74.39,4.41-.73,3.48-5.9-1.38-15.75-8.32-13.95,8.82-3.95,13.56,12.19,7.83,16.15Z"/>
                      <path class="cls-3" d="M179.95,112.6c.13.03,1.46,1.6,1.96,1.71-4.34.71-7.53-1.09-7.83,4.65-1.69-4.13,1.97-7.38,5.87-6.36Z"/>
                      <path class="cls-58" d="M190.97,143.92c1.55,1.19-4.04,2.88-4.41,2.94-1.57.23-6.22-.39-5.63-2.2.16-.49,8.28,2.07,10.04-.73Z"/>
                      <path class="cls-12" d="M193.17,134.62c1.2,1.19-1.38,3.33-2.2,3.92-4.51,3.22-8.42,3.07-12.97,0,4.34-3.69,9.85-4.02,15.18-3.92Z"/>
                      <path class="cls-45" d="M165.76,107.21c.23-.38.87-2.36.98-2.94,2.02-10.89-9.96-16.63-13.71-6.85-2.16,5.64-.42,7.24,1.47,12.24-9.69-2.49-7.42-16.06-2.94-22.52,11.61-11.83,22.16,12.07,14.2,20.07Z"/>
                      <path class="cls-54" d="M162.33,106.72h-.49c.08-.62,1.43-2.08.98-2.69-.89-1.22-5.33-.23-5.87,1.71-6.54-9.89,12.27-9.49,5.38.98Z"/>
                      <path class="cls-29" d="M161.84,106.72c-.06.46-.43.52-.49.98-1.56,1.78-3.31-.31-4.41-1.96.55-1.94,4.98-2.94,5.87-1.71.45.61-.9,2.08-.98,2.69Z"/>
                      <path class="cls-36" d="M166.73,104.27c-.77-6.04-1.84-12.02-9.55-10.77l-4.16,3.92c3.74-9.78,15.73-4.04,13.71,6.85Z"/>
                      <path class="cls-56" d="M162.33,109.66c-.61-.35-1.06-1.29-.98-1.96.06-.46.43-.51.49-.98h.49c2.64,1.15,1.03,1.21,0,2.94Z"/>
                      <path class="cls-45" d="M213.24,109.17c5.73-3.96.99-20.1-7.83-16.15-2.84.74-4.62,4.66-4.9,7.34-.16,1.53.21,2.49.49,3.92.32,1.61.61,4.32,2.45,5.38-5.6-.88-6.68-7.68-6.36-12.24.23-3.24,3.03-11.07,6.12-12.73,12.2-6.54,21.43,18.97,10.04,24.48Z"/>
                      <path class="cls-6" d="M209.32,107.7c8.47-6.23-3.58-12.89-5.38-7.1-.38,1.2.23,5.04.98,6.12l-1.47.98c-1.38-1.21-1.97-1.49-2.45-3.43-.27-1.08.58-3.11-.49-3.92.28-2.69,2.05-6.6,4.9-7.34,6.94-1.8,11.8,8.05,8.32,13.95-.66,1.12-4.32,4.19-4.41.73Z"/>
                      <path class="cls-46" d="M209.32,107.7c-1.37,1.01-2.15.38-2.94.49-.01-1.22-1.41-1.38-1.47-1.47-.75-1.08-1.36-4.91-.98-6.12,1.81-5.79,13.85.86,5.38,7.1Z"/>
                      <path class="cls-56" d="M204.92,106.72c.06.09,1.46.25,1.47,1.47-.69.09.25,2.31-2.94-.49l1.47-.98Z"/>
                      <path class="cls-36" d="M201,104.27c-.28-1.43-.65-2.39-.49-3.92,1.07.8.22,2.84.49,3.92Z"/>
                    </g>
                  </g>
                </g>
              </g>
            </g>
          </g>
        </g>
      </g>
    </g>
  </g>
</svg>