<?xml version="1.0" encoding="UTF-8"?>
<svg xmlns="http://www.w3.org/2000/svg" viewBox="0 0 270.96 264.26">
  <defs>
    <style>
      .cls-1 {
        fill: none;
      }

      .cls-2, .cls-3 {
        fill: #2bb673;
      }

      .cls-4, .cls-5, .cls-6, .cls-7, .cls-8, .cls-9 {
        mix-blend-mode: multiply;
      }

      .cls-4, .cls-10, .cls-11, .cls-12 {
        opacity: .5;
      }

      .cls-5 {
        opacity: .4;
      }

      .cls-13 {
        fill: #fe0000;
        opacity: .3;
      }

      .cls-6, .cls-7 {
        opacity: .7;
      }

      .cls-14 {
        fill: #ffd21e;
      }

      .cls-15, .cls-11 {
        fill: #603913;
      }

      .cls-7, .cls-16, .cls-17, .cls-18 {
        fill: #cc9279;
      }

      .cls-19 {
        fill: #e1b39b;
      }

      .cls-19, .cls-3, .cls-20, .cls-11, .cls-17, .cls-21, .cls-12, .cls-18, .cls-22 {
        mix-blend-mode: screen;
      }

      .cls-10, .cls-23 {
        fill: #fff;
      }

      .cls-20, .cls-24 {
        fill: #2e3192;
      }

      .cls-25, .cls-22 {
        fill: #efc984;
      }

      .cls-26 {
        fill: #ddb614;
      }

      .cls-27 {
        isolation: isolate;
      }

      .cls-28, .cls-9 {
        fill: #f7941e;
      }

      .cls-17 {
        opacity: .6;
      }

      .cls-29, .cls-12 {
        fill: #cca05a;
      }

      .cls-30 {
        fill: #ada9a5;
      }

      .cls-31 {
        fill: #4b1e0a;
      }

      .cls-32 {
        fill: #c69546;
      }
    </style>
  </defs>
  <g class="cls-27">
    <g id="Livello_2" data-name="Livello 2">
      <g id="Layer_1" data-name="Layer 1">
        <g>
          <g>
            <g>
              <g>
                <polygon class="cls-31" points="158.79 100.02 124.5 159.32 174.26 204.95 209.84 138.44 158.79 100.02"/>
                <polygon class="cls-29" points="125.92 158.93 159.18 101.44 208.42 138.82 174.26 202.76 125.92 158.93"/>
                <g class="cls-8">
                  <path class="cls-29" d="M192.26,126.56c-1.47-.13-3.81-.9-7.6-3.11-9.61-5.59-20.58-10.13-20.58-10.13,0,0-7.49,14.57-10.45,19.32-1.79,3.38-.74-5.59-5.81-3.06-4.12,2.06.77-8.75,3.82-15.11l-25.73,44.47,48.34,43.83,34.16-63.94-16.16-12.27Z"/>
                </g>
                <g>
                  <path class="cls-31" d="M145.17,133.95c-2.33,1.45-4.58,2.23-7.01,2.89.84-1.82,1.93-3.58,2.94-5.29.55-.94,1.58-2.27,1.43-3.43,0-.03-.02-.05-.03-.07,0,0-.01,0-.02,0-.74-.26-1.37-.61-2.1-.74-4.61.25-8.51,3.36-11.42,6.76-3.65,4.28-4.47,7.5-3.65,12.26-.06.03-.11.07-.14.14-3.06,7.31-6.94,14.72-11.68,21.11-2.46,3.32-4.2,5.97-5.03,9.23-.6-.41-1.2-.82-1.8-1.22,0-.02.02-.05.03-.07.17-.46-.36-.6-.61-.31-.07-.04-.13-.09-.2-.13-.16-.1-.33.18-.18.29.08.06.15.12.22.18-2.09,5.3-6.12,14.93,3.93,12.52,4.14-.99,6.14-4.02,8.11-7.57,3.01-5.44,5.87-10.87,8.52-16.46.04-.47.28-.95.47-1.34.21-.42.44-.82.66-1.22-.22-.21-.43-.43-.67-.64-.37-.33-.77-.64-1.15-.95-1.11-.89-.29-1.82.26-2.92.76-1.51,1.63-2.73,2.34-4.27.04.03.02-.23.09-.23,5.19-.17,7.29-3.94,9.56-8,1.49-2.66,5.78-3.75,7.95-5.9,1.13-1.12,2.15-2.65,2.77-4.12,1.18-2.82-2.8-.97-3.58-.48Z"/>
                  <path class="cls-16" d="M146.08,136.73c-2.52,2.43-5.84,3.56-8.29,6.01-1.1,1.1-1.72,2.92-2.42,4.28-1.49,2.88-3.64,4.22-6.77,4.71h0c.02-.06,0-.13-.06-.14-.03,0-.06-.02-.09-.03-.07-.02-.15.01-.2.06-.82.84-1.29,2.03-1.82,3.06-.81,1.55-1.68,3.01-2.31,4.65-.07.19-.02.38.14.5.91.72,1.75,1.46,2.58,2.23-3.53,6.4-6.62,13.01-10.16,19.4-2.13,3.84-5.56,5.81-9.88,5.89-6.25.11-1.62-8.42-.33-11.36.24.21.47.43.71.64.35.32.69.69,1.08.98-.29,1.43-.43,2.99-.37,4.78,0,.15.06.25.15.3-.13-2.16.99-4.32,2.05-6.21,1.74-4.41,4.87-7.83,7.37-12.36,3.05-5.51,6.04-11.17,7.96-17.18.11.58.24,1.17.4,1.8.02.08.12.03.11-.04-.09-2.43-.02-4.97.02-7.4.04-2.76,2.69-5.58,4.31-7.56,2.93-3.59,6.69-5.1,11.21-5.5.09,0,.16-.05.23-.1-.41,1.47-1.21,2.81-2.03,4.15-1.22.31-2.46.67-3.51,1.36-1.06,1.02-1.94,2.25-2.37,3.63-.12.38-.28.7-.45.98.05.03.11.06.17.05-.13.08-.25.17-.38.26-.33.45-.7.83-1.06,1.31.65-.27,1.32-.5,2.01-.68,1.04-.54,2.22-.92,3.66-1.19,1.36-.25,2.67-.57,3.91-1.2,1.32-.67,2.57-1.4,3.79-2.22.67-.69,1.44-.62,2.29.19-.38.71-1.08,1.36-1.67,1.93Z"/>
                  <path class="cls-7" d="M145.45,134.62c-1.23.83-2.47,1.56-3.79,2.22-1.25.63-2.55.95-3.91,1.2-1.44.27-2.62.65-3.66,1.19-.68.18-1.36.41-2.01.68.36-.48.73-.87,1.06-1.31.12-.09.25-.18.38-.26-.06,0-.12-.02-.17-.05.18-.28.33-.6.45-.98.43-1.38,1.31-2.61,2.37-3.63,1.04-.69,2.29-1.05,3.51-1.36.82-1.34,1.62-2.68,2.03-4.15-.07.05-.14.09-.23.1-.7.06-1.38.16-2.04.28.17.37.28.76.26,1.18-.1,2.53-6.82,0-9.64,10.22-.2,1.95,2.73.39,5.45-.49,2.73-.88,5.26-1.07,7.89-2.82,2.63-1.75,3.41-1.75,1.95-.19-1.46,1.56-7.3,4.09-9.15,5.36-1.85,1.27-3.6,7.3-7.3,7.5-1.67.09-2.52-.7-2.96-2.08,0,.5,0,1.02.02,1.51,0,.07-.09.12-.11.04-.15-.63-.28-1.22-.4-1.8-1.02,3.21-2.36,6.31-3.83,9.34,1.41-2.02,2.97-3.99,3.75-4.05,1.62-.12-2.75,11.25-4.87,16-1.89,4.23-9.52,12.11-9.94,7.27-.15.32-.3.64-.43.98-1.06,1.89-2.18,4.04-2.05,6.21-.09-.05-.14-.14-.15-.3-.05-1.79.08-3.35.37-4.78-.39-.29-.73-.66-1.08-.98-.23-.21-.47-.43-.71-.64-1.29,2.94-5.93,11.47.33,11.36,4.31-.08,7.75-2.05,9.88-5.89,3.55-6.39,6.63-13,10.16-19.4-.83-.77-1.68-1.51-2.58-2.23-.15-.12-.21-.31-.14-.5.63-1.64,1.5-3.1,2.31-4.65.54-1.03,1-2.22,1.82-3.06.05-.05.13-.08.2-.06.03,0,.06.02.09.03.06.01.08.08.06.14h0c3.12-.49,5.28-1.83,6.77-4.71.71-1.36,1.32-3.18,2.42-4.28,2.45-2.45,5.77-3.58,8.29-6.01.59-.57,1.28-1.22,1.67-1.93-.86-.81-1.62-.88-2.29-.19Z"/>
                </g>
                <g>
                  <path class="cls-31" d="M221.01,241.22c-2.29-3.57-5.74-4.95-9.66-6.14-5.28-1.6-10.33-1.52-15.72-.63-6.04.99-11.99,3.45-18.12,3.7-.88-.52-2.25-.49-3.27-.46-.59-.99-1.59-1.76-2.75-2.28-.74-6.25-1.73-12.49-2.66-18.61-.73-4.82-1.47-9.92-2.71-14.84.03-.07.06-.15.05-.22-.72-7.13-1.01-14.22-8.85-17.12-3.52-1.3-6.61-.07-9.95,1.33-3.88,1.62-8.14,2.43-11.81,4.49,0,0-.02.02-.03.03-.22.09-.37.38-.19.58,2.14,2.29,4.04,4.67,5.54,7.44,1.52,2.82,1.73,5.91,2.65,8.9.11.37.55.35.82.21,1.29-.66,2.61-1.52,3.66-2.59-.1,4.17.76,8.41,2.5,12.86,2.15,5.5,4.57,10.86,7.2,16.14.95,1.92,1.48,3.92,1.92,5.94-.9,1.41-1.51,3.02-1.72,4.75,0,.04,0,.07,0,.1-2.37,2.96-3.58,6.68-3.21,10.71-.04.15-.08.29-.12.45-.04.15.04.24.13.25.02.49.05.98.13,1.5.94,6.17,7.56,7.11,12.56,6.32,4.01-.64,7.93-1.9,11.87-2.85,6.17-1.48,12.5-1.09,18.79-1.07,6.6.02,14.93-.58,20.22-5.18,1.11-.96,1.95-2.02,2.53-3.13.08,0,.15-.05.18-.14.04-.17.09-.34.13-.52.29-.71.46-1.45.51-2.18.54-2.63.8-5.54-.6-7.73Z"/>
                  <path class="cls-16" d="M154.89,223.82c-1.87-5.17-4.26-10-5.22-15.46-1.05-5.89.1-11.66,2.48-17.05.04-.08-.08-.13-.12-.05-2.36,4.14-3.64,8.2-3.96,12.31-1.32.57-2.35,1.69-3.57,2.5-.84-2.83-1.16-5.55-2.62-8.22-1.52-2.77-3.73-5.1-5.99-7.28,5.77-1.08,11.35-3.51,17.1-4.33,3.34-.48,7.06,2.45,8.95,5.3,3.52,8.59,3.36,18.93,4.66,28.02.73,5.12,1.62,10.15,2.55,15.19-.84-.11-1.65-.09-2.37.08-2.33.57-4.41,1.83-5.98,3.55-.18-.78-.38-1.55-.65-2.31-1.45-4.2-3.76-8.04-5.27-12.23Z"/>
                  <path class="cls-14" d="M163.38,238.53c.85-.6,1.79-1.1,2.81-1.45,1.24-.43,2.36-.4,3.39-.1v.05c.99.08,1.96.31,2.89.71-2.38.14-4.73.57-6.89,1.66-.02,0-.02.04,0,.04-2.45.88-4.6,2.18-6.33,3.85.84-2.02,2.32-3.66,4.12-4.75Z"/>
                  <path class="cls-30" d="M216.42,254.18c-10.02,7.19-24.29,3.11-35.64,5.36-6.03,1.2-12.34,4.06-18.57,3.17-4.09-.58-6.28-4.17-6.29-8.07,0-.5.06-.99.16-1.46,1.04-2.33,2.37-4.38,4.63-5.99.18-.13.37-.22.56-.33,0,.02.02.04.02.06.79-.6,1.78-1.02,2.76-1.07,2.19-.46,4.59-.41,6.66-.54.14,0,.28-.03.42-.04,0,.03.01.05.02.08.42-.12.84-.19,1.25-.2,5.13-.56,10.01-2.02,15.04-3.21,7.35-1.74,14.74-2.62,22.2-1.12,6.44,1.29,15.11,7.38,6.78,13.36Z"/>
                  <path class="cls-28" d="M221.3,246.63c-.39-1.2-1.14-2.37-2.32-3.45-5.12-4.7-13.95-5.15-20.4-4.75-4.46.28-8.88,1.58-13.15,2.79-3.25.91-6.4,1.67-9.6,2.25-1.65.55-3.26.62-4.92.63l.02.09c-.71.08-1.43.13-2.15.19-1.73-.06-3.48-.06-5.15.28-1.05.21-2.01.75-2.9,1.42-.55.26-1.1.56-1.63.9-1.13.99-2.09,2.09-2.84,3.31.47-1.55,1.18-2.99,2.09-4.32.02.07.03.16.05.23.05-.03.1-.06.15-.09.02-.17.05-.34.08-.51,1.88-2.57,4.56-4.7,7.94-6.32,2.47-.41,4.95-.85,7.39-.72.12.08.22.18.34.26.14.01.28.03.42.04-.02-.08-.03-.16-.05-.24.87.09,1.73.26,2.58.54.33.04.65.08.98.12.04-.08.06-.18.04-.25-.04-.11-.1-.19-.15-.28,7.01.29,14.07-2.85,20.97-3.71,4.64-.58,9.11.33,13.53,1.69,2.67.82,4.93,2.04,6.89,4.04,1.6,1.62,1.92,3.73,1.81,5.88Z"/>
                  <path class="cls-7" d="M168.7,232.2c-1.49,1.85-4.28,1.93-5.98-3.44-2.37-7.5-2.37-12.62.75-12.25,1.05.13,2.13,1.3,3.1,2.78-1.27-9.03-1.14-19.25-4.63-27.77-1.88-2.86-5.61-5.78-8.95-5.3-.77.11-1.54.25-2.31.42-1.62,9.66-5.74,14.06-7.84,9.71-1.28-2.65-3.24-4.89-4.65-6.29-.76.18-1.53.36-2.3.5,2.25,2.18,4.47,4.51,5.99,7.28,1.46,2.67,1.78,5.39,2.62,8.22,1.23-.81,2.25-1.93,3.57-2.5.32-4.11,1.6-8.17,3.96-12.31.04-.08.16-.03.12.05-2.39,5.4-3.53,11.16-2.48,17.05.97,5.46,3.36,10.29,5.22,15.46,1.51,4.19,3.82,8.03,5.27,12.23.27.76.47,1.54.65,2.31,1.57-1.72,3.64-2.99,5.98-3.55.71-.17,1.53-.19,2.37-.08-.16-.84-.3-1.69-.45-2.54Z"/>
                  <path class="cls-9" d="M219.5,240.75c-1.96-1.99-4.22-3.21-6.89-4.04-4.41-1.36-8.88-2.27-13.53-1.69-.71.09-1.43.21-2.15.34,4.1.48,3.66,1.69-.96,2.27-5,.62-17.5,5.25-24.37,5.5s-6.25-3.75,3.75-3.75c1.03,0,1.96-.05,2.82-.13-.31-.04-.62-.07-.92-.11-.85-.28-1.71-.45-2.58-.54.02.08.03.16.05.24-.14-.01-.28-.03-.42-.04-.11-.08-.22-.18-.34-.26-2.44-.13-4.92.31-7.39.72-3.37,1.62-6.06,3.75-7.94,6.32-.03.17-.06.34-.08.51-.05.03-.1.06-.15.09-.02-.07-.03-.15-.05-.23-.91,1.33-1.62,2.77-2.09,4.32.74-1.22,1.71-2.32,2.84-3.31.54-.34,1.09-.64,1.63-.9.88-.67,1.85-1.21,2.9-1.42,1.67-.34,3.42-.34,5.15-.28.72-.06,1.44-.11,2.15-.19l-.02-.09c1.66-.01,3.28-.07,4.92-.63,3.2-.57,6.36-1.33,9.6-2.25,4.27-1.2,8.7-2.51,13.15-2.79,6.45-.4,15.28.05,20.4,4.75,1.18,1.08,1.93,2.25,2.32,3.45.12-2.15-.21-4.26-1.81-5.88Z"/>
                </g>
                <g>
                  <path class="cls-31" d="M265.61,206.34c-2.82.84-5.12,3.96-6.9,6.09-3.11,3.73-5.76,7.76-9.05,11.35-3.08,3.35-6.5,5.61-10.93,6.66-1.62.39-3.62.74-4.59,2.29-.08.13-.15.26-.21.4-.48-.69-1.5-1.51-2.63-2.08-.09,0-.19,0-.29-.07-.49-.3-1.03-.45-1.57-.62h0c-1.14-.21-2.14.02-2.53,1.08-13.42-10.02-28.28-17.79-43.04-25.71-7.01-3.76-13.97-7.81-22.15-7.72-4.34.05-8.77,1.92-12.67,3.59-2.19.94-4.85,1.82-6.71,3.41-.06.03-.12.08-.16.13-.04.04-.09.07-.14.11-.16.16-.14.45.03.54,0,0,0,.01,0,.02.03.08.09.13.17.16,4.6,4.84,2.95,11.03,3.33,17.01-.31.38-.6.77-.88,1.18-.16.24.15.55.34.3.22-.28.45-.54.69-.79.25.2.79-.15.77-.57,0-.07,0-.13,0-.2,1.84-1.71,4.04-2.95,6.26-4.16,3.35-1.83,6.24-3.83,10.07-4.08,5.02,2.45,9.52,5.92,14.35,8.71,5.24,3.02,10.87,5.57,16.39,8.04,8.49,3.8,17.37,6.84,26.12,10-.18.17-.34.37-.44.64-.65,1.76-.14,2.69,1.17,4,1.72,1.71,3.35,2.01,4.93,1.56,0,.02.01.04.03.06,3.21,4.16,10.22,11,16.32,10.48.34-.13.68-.28,1.01-.49,1.06-.68,1.79-1.68,2.83-2.34,4.43-3.51,8.81-6.78,12.55-11.17,4.3-5.05,7.54-10.96,10.02-17.08,1.3-3.21,6.93-23.52-2.5-20.72Z"/>
                  <path class="cls-16" d="M193.25,228.49c-9.78-4.36-19.06-10.76-29.21-14.32,0-.14-.07-.27-.22-.32-.78-.3-1.51-.44-2.21-.46-.48-.14-.96-.29-1.45-.42-.26-.07-.43.37-.16.47.06.02.12.05.18.08-2.09.42-3.98,1.8-5.99,3.02-2.71,1.64-5.52,3.21-7.72,5.45.04-5.82,1.32-12.28-3.48-16.63.06-.1.08-.21.05-.3.99-.28,2.92-.98,3.24-1.1,1.55-.56,3.08-1.21,4.63-1.79,5.02-1.87,9.87-3.12,15.24-2.32,8.16,1.22,15.2,6.77,22.24,10.65,13.73,7.55,26.89,16.01,40.33,24.04-.8,2.94-2.33,5.37-4.98,7.06-8.63-6.58-20.77-8.76-30.49-13.09Z"/>
                  <path class="cls-14" d="M222.57,246.43c-1.14-.52-4.46-3.03-2.2-4.76.64.23,1.29.46,1.93.7-.46.21-.93.42-1.44.6-.43.15-.58.97,0,.96,5.18-.07,8.22-4.1,9.08-8.69.03.02.05.03.08.05-.01-.34.02-.68.09-1,0-.02-.01-.04-.02-.06h0c-.04-.16-.08-.31-.13-.46-.02-.02-.04-.03-.07-.05-.18-.45-.41-.88-.72-1.25-.03.21-.08.4-.12.6-.59-.46-1.18-.92-1.78-1.37.55-.99,1.3-1.13,2.1-.79,0,.03,0,.05,0,.08,1.67,0,3.48,1.86,4.17,3.39-.12.91.01,1.86.3,2.79-.2,1.17-.76,2.28-1.53,3.23-.37.59-.79,1.14-1.22,1.66-1.15,1.39-2.66,2.47-4.13,3.48-1.19,1.03-2.65,1.32-4.39.87Z"/>
                  <path class="cls-28" d="M226.26,247.28c1.44-.67,2.83-1.87,4.2-3.12,1.48-1.34,3.07-3.54,3.81-5.82.46,1.12,1.06,2.19,1.55,3.08.14.25.47-.01.38-.24-.62-1.57-1.16-3.12-1.52-4.77,0-.03,0-.05,0-.08.03-.41.01-.82-.04-1.22.38-2.38,3.62-3.12,5.87-3.67,4.12-1,7.08-3.8,9.79-6.9,4.09-4.69,7.06-10.21,11.41-14.7.84-.87,1.76-1.64,2.79-2.24,3.85,8.79-.33,20.59-5.22,28.18-5.04,7.81-13.81,16.22-22.37,20.15-4.52-1.65-7.82-5.82-10.65-8.65Z"/>
                  <path class="cls-30" d="M269.23,214.82c-.08,6.06-3,12.66-5.68,17.99-2.56,5.09-6.07,9.69-10,13.78-3.36,3.48-8.53,7.02-11.8,10.57-1.37.02-2.71-.36-4.12-.84,8.95-3.66,16.85-12.39,22.38-20.09,5.32-7.4,9.1-20.26,5.14-28.96.19-.09.37-.2.56-.28,3.91-1.62,3.55,6.65,3.53,7.82Z"/>
                  <g>
                    <path class="cls-7" d="M177.15,203.87c-3.49-1.89-7.12-3.46-11-4.04-2.66-.4-5.2-.29-7.69.15,3.78,1.45,8.84,3.5,12.55,5.43,4.36,1.84,4.5,1.4,6.13-1.54Z"/>
                    <path class="cls-7" d="M222.61,230.83c2.82,3.39-1.28,3.25-9.81,1.24-10.18-2.41-29.46-12.32-39.64-19.15-8.46-5.67-10.71-4.29-17.14-2.41-6.43,1.88-7.5-2.14-8.84-5.89-.11-.32-.17-.62-.22-.93-.23.09-.45.18-.68.26-.32.12-2.25.82-3.24,1.1.04.09,0,.2-.05.3,4.8,4.36,3.51,10.82,3.48,16.63,2.2-2.24,5.01-3.81,7.72-5.45,2.01-1.22,3.9-2.59,5.99-3.02-.06-.02-.12-.05-.18-.08-.27-.1-.1-.54.16-.47.49.13.96.28,1.45.42.71.02,1.44.16,2.21.46.15.06.21.19.22.32,10.15,3.56,19.43,9.95,29.21,14.32,9.72,4.34,21.86,6.51,30.49,13.09,2.65-1.69,4.18-4.12,4.98-7.06-2.05-1.22-4.09-2.46-6.12-3.69Z"/>
                  </g>
                </g>
                <polygon class="cls-31" points="165.24 115.75 128.37 184.32 174.26 204.95 209.84 138.44 165.24 115.75"/>
                <polygon class="cls-25" points="173.87 204.05 130.3 183.68 165.88 117.42 208.42 138.82 173.87 204.05"/>
                <g class="cls-4">
                  <path class="cls-32" d="M165.88,117.42l-5.76,10.72,6.54-8.84,37.18,18.82-33.08,61.77-35.97-17.3s.61-1.67,1.82-3.64c1.21-1.97,1.37-4.4,6.22-3.04,8.04,2.12,13.51-2.73,20.03-7.13,6.53-4.4,5.61-8.65,6.07-11.23.46-2.58-.3-4.55.91-6.22,1.21-1.67,2.58-2.88.3-4.71-2.28-1.82-7.89,1.82-14.11,3.34-6.22,1.52-6.07-.76-5.01-4.7.03-.11.06-.23.08-.34l-20.82,38.77,43.57,20.37,34.55-65.22-42.54-21.4Z"/>
                </g>
                <g>
                  <path class="cls-31" d="M166.82,154.06c.18-.43.33-.87.45-1.34,1.55-1.69,3.73-4.5,1.09-4.81-3.83-.45-7.18,4.18-10.97,4.58-.05,0-.1,0-.15.01-1.45.38-2.99.54-4.46.65-1.92.14-4.81.77-6.98.16.61-1.46,1.17-2.96,1.87-4.38.64-1.31,1.52-2.49,1.95-3.9.08-.24-.14-.51-.39-.34-1.79,1.22-3.24,2.64-5.27,3.5-.59.25-1.38.53-1.76,1.08-.5.32-.98.69-1.38.91-2.62,1.48-4.63,3.83-6.43,6.19-1.29,1.68-1.7,3.68-1.87,5.73-.07.86-.51,2.75-.15,3.81-2.41,1.61-4.57,3.55-6.96,5.22-3.44,2.39-7.16,4.31-10.56,6.77-1.68,1.22-7.54,6.66-10.32,5.63.01-.04.03-.08.05-.12-.07-.03-.13-.07-.19-.1-.22-.06-.45-.09-.56.03-.26.28-.5.58-.72.88.08.05.17.12.24.16-1.6,3.03-3.4,5.88-6.46,7.67-.06-.02-.11-.05-.17-.07-.21.2-.42.39-.64.58.14.12.27.26.4.38.87.39,1.74.75,2.58,1.04,3.29,1.12,7.98,2.01,11.17.02,9.22-5.75,17.06-14.39,24.32-22.38.06-.07.09-.15.09-.23,3.75,2.96,8.44,3.09,13.1,3.01,2-.03,3.85-.69,5.64-1.58.92-.82,1.85-1.62,2.92-2.24,1.63-.95,3.33-1.78,5.02-2.62.12-.09.23-.18.36-.26-.02-.06-.07-.11-.15-.13,3.01-1.76,5.34-4.19,4.5-8.24,0-.05-.04-.08-.06-.1,1.22-1.58,2.05-3.35.86-5.18Z"/>
                  <path class="cls-16" d="M158.9,164.07c-2.11.96-4.68,1.31-6.4,2.95-.13.12-.02.39.16.27,3.6-2.45,8.24-2.33,11.32-5.79.51-.57,1.09-1.18,1.63-1.83-.15,1.06-.32,2.12-.45,3.17-.16,1.38-1.49,2.27-2.42,3.16-.96.93-2.13,1.56-3.32,2.16-2.5.96-4.94,2.71-7.14,3.98-3.86,2.23-9.9,1.52-14.56-.13-.07-.01-.14-.02-.21-.04-1.25-.29-2.27-.8-3.35-1.35-.1.11-.13.28,0,.39.06.05.12.1.19.15-.04.01-.08.03-.12.07-5.87,5.36-11.52,10.96-17.41,16.31-4.74,4.31-9.12,7.03-15.68,5.8-1.15-.21-2.37-.58-3.59-1.03,2.87-1.7,5.06-4.51,6.47-7.56,1.17.52,1.92.03,4.16-1.21,4.51-2.49,8.54-5.78,12.94-8.47,4.04-2.47,7.82-5.14,11.43-8.14,0-.41.05-.83.14-1.23-.01,0-.02.01-.03.02-.3-2.29,1.14-6.38,2.06-8.02,1.31-2.32,3.62-4.82,6.12-6.62.95-1.02,1.99-1.91,3.2-2.33-.02-.02-.02-.04-.05-.05.33-.09.65-.17.9-.3.84-.41,1.68-.75,2.43-1.32.5-.38.96-.81,1.43-1.23-.47,1.14-1.2,2.2-1.73,3.3-.61,1.26-1.1,2.6-1.63,3.9-.57-.41-.94-1.13-1.09-1.8-.06-.25-.41-.15-.41.08,0,.84.06,1.59.66,2.23.47.5,1.12.82,1.8.98.16.07.34.12.53.11,3.44-.19,6.92-.75,10.38-.99,2.46-.17,4.22-1.43,6.2-2.79.54-.47,1.13-.79,1.76-.97.5-.28.97-.49,1.24-.59.51-.19,1.65-.54,1.85.28.04.15.02.3-.02.46.02,0,.04,0,.06.02-.03.05-.07.11-.11.16-.11.27-.31.53-.54.77,0,0,0,0,0,0-.04.05-.09.09-.14.14-.03.03-.05.06-.08.08-2.13,2.19-4.62,4.05-7.5,5.1-3.47,1.26-7.81,1.32-11.46,1.44-.2,0-.26.34-.04.36,6.56.35,12.56-.47,17.29-4.47-.02.21.18.37.37.25-.28.59-.5,1.08-.52,1.1-1.5,1.82-2.95,2.66-5.04,3.66-1.61.77-2.99,1.79-4.48,2.74-1.42.9-3.72.91-5.38,1.47-.04.01-.08.1-.01.12,4.57.98,7.2-2.2,11.04-4,2.19-1.02,3.77-2.36,4.74-4.18.78,4.07-4.51,7.87-7.57,9.26Z"/>
                </g>
                <g>
                  <path class="cls-31" d="M146.92,220.8c-.31-4.17-.29-8.95-1.45-12.99-.55-1.93-1.27-3.53-2.55-4.46,0-.02,0-.05,0-.07-.51-3.73-2.08-6.69-3.91-9.95-1.18-2.09-3.08-4.78-5.53-5.51-1.06-.31-6.57-.49-7.28,1.21-.21.06-.41.14-.62.24-2.15,1.05-4.17,2.34-6.34,3.39-3.12,1.51-6.07,4.15-9.51,4.83-.77.15-1.87.37-2.17,1.25.02-.07-1.59.05-2.57.16-.04-.19-.06-.38-.11-.57-.54-2.39-2.1-6.55-4.46-8.38.34-.37.62-.71.85-1,2.59-3.27,4.34-7.65,4.61-11.8.01-.18,0-.35-.01-.52,3.72-4.54-2.3-7.2-5.37-10.6-3.5-3.89-5.58-8.95-8.21-13.43-.75-1.27-6.88-11.19-8.51-10.57.1-.04.23-.26.07-.33-.09-.04-.18-.08-.27-.12-.05-.02-.11-.02-.17,0,0-1.53.4-3.07-.04-4.64-.18-.64-1.02-1.16-1.98-1.59-1.37-.05-2.74-.14-4.11-.28,0,.02,0,.04,0,.06-.78.06-1.55.16-2.29.18-3.28.1-6.61-.84-9.78-1.8.01-.04.03-.09.04-.13-.29-.08-.56-.19-.81-.31-.78-.17-1.56-.34-2.35-.47-1.27.08-2.37.57-3.16,1.96-.5.89-.87,2.01-1.04,3.14-.17-.17-.52.06-.45.3.38,1.46-1.59,3.88-2.23,5.05-.94,1.7-1.58,3.64-2.28,5.45-1.65,4.23-2.7,8.67-3.76,13.08-2.12,8.84-3.6,17.8-4.46,26.85-.78,8.27-.89,16.62.07,24.88.71,6.11,1.69,13.54,4.07,19.65-.01.02-.03.02-.04.04-2.82,5.57.24,8,5.28,8.82,6.91,16.03,25.42,16.75,40.54,13.35,1.96.23,3.87.68,5.86.82,3.11.21,6.17,0,9.28-.06,5.62-.11,11.21-.23,16.69-1.57,1.35-.33,2.59-.79,3.73-1.36.68,2.39,7.32,1.71,8.88,1.35,6.1-1.42,7.06-11.51,7.76-16.37.82-5.68.49-11.48.06-17.17Z"/>
                  <path class="cls-2" d="M130.91,188.9c2.57.18,4.19,2.18,5.55,4.12,1.4,1.99,2.44,4.27,3.52,6.44.49.97.82,2.21,1.4,3.19-.47-.12-.98-.21-1.57-.21-.94,0-2.27.63-3.52,1.45-.86-4.44-3.98-14.44-8.62-15,1.06-.25,2.46-.05,3.23,0Z"/>
                  <path class="cls-24" d="M94.49,159.63c1.39,2.61,3.25,5.04,5.2,7.24,2.19,2.46,6.57,4.77,5.7,8.25-.37-.67-.88-1.28-1.4-1.8-.28-.28-.68-.38-1.04-.52-.76-.29-1.45-.69-2.1-1.13,0-.08-.01-.16-.07-.23-2.65-3.09-5.23-6.23-7.78-9.39.04-.11.05-.22-.03-.32-1.82-2.27-1.92-5.87-3.11-8.54-1.43-3.23-4.11-5.91-5.83-9-.29-.53-.45-1.06-.53-1.58,3.42,5.82,7.77,10.99,10.99,17.03Z"/>
                  <path class="cls-24" d="M79.44,136.31c1,.92,2.26,1.65,1.9,3.38-.41,2.04,1.45,5,2.49,6.54,2.48,3.69,5.64,6.87,6.54,11.38.1.48.17.98.25,1.47-2.26-2.83-4.51-5.68-6.76-8.54-3.21-4.09-7.45-8.35-12.65-9.72.12.02.25.05.36.07,1.57.28,4.28,1.01,5.59-.38.95-1.01,1.25-2.53,1.26-4.1.34-.03.68-.06,1.02-.09Z"/>
                  <path class="cls-16" d="M64.79,134.59c.09-.17.16-.35.23-.53,2.49,1.06,5,1.96,7.72,2.37,1.47.22,3.04.18,4.59.07-.03,1.75-.37,3.29-1.87,3.51-1.63.25-3.88-.48-5.47-.86-1.6-.39-6.6-1.9-5.2-4.56Z"/>
                  <path class="cls-24" d="M49.18,233.71c.4.96.84,1.89,1.32,2.77.38.69,1.34-.04,1.06-.67-3.09-6.9-4.4-15.46-5.51-22.92-1.37-9.22-.49-19.14.48-28.37,1-9.54,2.89-19.04,5.26-28.32,1.22-4.81,2.83-9.75,5.13-14.15.34-.64.71-1.27.97-1.9.04.24.08.48.14.71.09.33.54.11.61-.12.38-1.39.44-2.84.8-4.24.19-.71.48-1.35.87-1.96.76-1.16,2.48-.86,3.62-.73-.23.36-.45.72-.55,1.06-.34,1.07-.14,1.59.48,2.51,1.16,1.75,3.6,2.62,5.79,3.12-.06,0-.12-.02-.19-.03-8.52-1.09-10.12,11.55-11,17.3,0,.06.07.05.08,0,1.04-3.46,2.01-6.96,3.61-10.21,2.81-5.71,7.23-5.91,12.37-2.92,5.4,3.14,8.79,8.55,12.67,13.26,3.01,3.66,6.1,7.25,9.45,10.59-.01.06,0,.12.04.17,1.51,1.79,2.96,3.41,4.84,4.8,4.4,3.27,2.45,8.16.51,11.99-1.83,3.61-11.89,13.95-16.57,10.01-.01-.05-.03-.09-.06-.13-3.78-5.18-8.59-9.64-12.68-14.59-4.37-5.29-6.62-12.53-8.58-18.99-.08-.27-.48-.02-.43.21.62,2.99,1.23,6.1,2.1,9.11-.66-.68-1.37-1.31-2.03-2-1.19-1.23-2.19-2.63-3.19-4.02-.16-.22-.5.11-.39.31,1.37,2.52,3.1,6.59,6.14,7.42.78,2.38,1.75,4.69,3.05,6.8,3.77,6.09,9.32,12.46,15.35,16.41,2.52,5.58,10.64-.85,14.73-5.02,3.31,3.73,3.59,7.29,4.08,9.92.65,3.48-.45,7.11-.66,10.7-1.58,10.57-11.29,19.08-20.26,23.84-5.18,2.75-36.79,10.9-33.44-1.73Z"/>
                  <path class="cls-2" d="M117.55,253.31c-3.94.3-7.86.46-11.77,1.05-2.73.41-5.44.22-8.14.08,1.33-.36,2.62-.73,3.87-1.14.26-.08.25-.53-.06-.46-2.86.67-5.77,1.19-8.69,1.53-.06,0-.12,0-.19,0-.02,0-.03.02-.04.02-13.97,1.57-28.14-1.18-37.87-12.5,7.66,1.04,19.35-1.36,22.5-2.34,7.36-2.29,13.88-6.93,19.06-12.56,2.58-2.8,5.21-6.38,6.57-10.21.2.31,2.65-11.12,1.78-16.66.79.14,2.25.41,3.04.55.49.22,1-.16,1.06-.68.08-.7,5.81-3.26,6.5-3.73,2.72-1.88,5.86-3.17,8.78-4.72,7.06-3.74,9.25,8.02,11.3,13.08-.86.67-1.59,1.37-1.97,1.92-.16.22-.13.48,0,.7.06.1.15.19.23.27-4.96.73-10.36,4.67-14.63,6.59-3.73,1.68-7.29,3.38-10.6,5.61,1.71-5.14-.03-9.63-.4-14.93-.04-.5-.76-.27-.76.15,0,2.54.39,5.04.67,7.56.29,2.59-.84,5.31-.35,7.79-.02.02-.05.03-.07.05-.16-.79-.32-1.59-.48-2.38-.02-.42-.52-.57-.83-.36-4.22,2.81-8,6.89-10.78,11.13-2.76,4.22-6.63,8.82-7.92,13.74-.15.57.58.71.75.18,1.58-4.88,5.84-8.77,8.66-12.99,1.62-2.41,3.72-4.43,5.69-6.55,1.84-1.99,2.57-4.25,4.24-2.27-.77.58-1.54,1.18-2.28,1.84-.32.29-.04.91.38.63,7.21-4.67,15.3-7.67,22.95-11.52,3.47-1.75,9.03-4.02,10.33,1.33.53,2.18.83,4.44,1.15,6.65.78,5.35.92,10.75.41,16.13-1.17,12.38-11.23,16.56-22.1,17.38Z"/>
                  <path class="cls-2" d="M143.42,247.27c-.81,2.97-2.69,5.32-5.82,5.8-1.55.24-4.93.64-6.18-.74,6.74-4.02,9.73-12.09,10.16-20.04.33-6.14-.65-12.31-2.03-18.27-.49-2.13-1.37-6.57-4.38-6.61-.18,0-.36.01-.54.02-.27-.65-.03-.55,1.5-1.32,5.59-2.83,7.38.84,8,5.24.89,6.3,1.27,12.85,1.31,19.2.04,5.59-.54,11.31-2.02,16.71Z"/>
                </g>
                <path class="cls-23" d="M137.39,137.05c-.72.19-1.45.37-2.21.57-.52.13-1,.35-1.45.61,0-.01.02-.01.03-.03.74-1.3,1.65-2.51,2.88-3.38.79-.56,1.64-1.03,2.45-1.54-.72,1.21-1.38,2.44-1.7,3.78Z"/>
                <g>
                  <path class="cls-31" d="M146.55,22.81c-.13-.53-.73-.72-1.11-.29-2.83,3.17-5.96,4.81-9.88,3.41,2.33-.22,4.53-1.38,6.21-3.57.24-.31.17-.98-.29-1.05-3.04-.47-5.2-2.14-7.67-3.81-1.92-1.3-4.53-1.58-6.76-1.97,1.03-.54,1.94-1.31,2.64-2.22.4-1.13.96-2.19,1.02-3.44.05-.94.03-1.88-.18-2.78-.23-.27-.62-.11-.83.15-5.39,6.98-12.63,1.98-18.43-1.22-3.9-2.15-7.79-3.48-12.13-4.43-9.14-1.99-19.16-1.96-28.42-.8-12.63,1.58-25.63,6.74-33.26,17.21-3.41-.7-6.04-.66-9.49,2.39-7,6.19-13.1,15.12-18.37,22.78C.15,56.91-4.23,75.33,5.42,90.09c.08.13.19.18.31.2-.35,4.12.79,8.48,3.38,11.33.69.76,1.82-.21,1.68-1.06-.16-.95-.19-1.85-.13-2.73.12,3.76,1.13,7.55,3.21,10.37,1.28,1.74,4.57,4.16,6.06,3.42.77,3.33,2.23,6.48,4.45,9,2.6,2.96,4.38.03,5.22-2.71.5.94,1.02,1.73,1.41,2.19,3.6,4.21,10.39,8.05,15.27,3.48.85,1.69,1.99,3.12,3.47,3.83.15.07.3.05.43,0,.36.56.88,1.07,1.45,1.54-.16-.06-.33-.12-.49-.19-.12-.05-.25.2-.12.25.54.24,1.1.47,1.65.71.49.34.97.65,1.36.92,2.5,1.72,6.06,2.49,9.06,3.01,8.33,2.65,17.02,4.02,25.72,2.27,6.33-1.28,12.03-3.8,17.64-6.92,5.54-3.08,10.18-5.43,14.12-10.38,5.64.41,10.31-2.78,8.98-9.03,5.51-.03,9.86-1.19,11.29-7.14.3-1.25.57-3.48-.43-4.56-3.81-4.09-8.92-5.63-10.17-11.88-.97-4.92,2.87-12.12,4.03-16.94,1.17-4.88,1.49-9.86,1.73-14.85.33-6.91.13-13.88-2.46-20.23,5.81,3.83,14.65-4.47,13.02-11.2Z"/>
                  <path class="cls-16" d="M133.85,37.91c.03-.3.05-.6.05-.89,3.85,13.9-.8,30.93-5.15,43.67-1.48,4.33-1.23,10.49,2.73,13.5,1.12.85,2.69,1.63,4.13,2.55,2.32,1.25,4.41,2.84,4.27,5.72-.11,2.13-2.19,3.65-3.87,4.54-.98.52-2.21.76-3.3.86-.43.04-.95,0-1.48-.03-.85.16-1.67.31-2.39.48-.6.14-.72,1.14-.11,1.27-.32.61-.29.74-.54,2.22-1.01,5.96-6.16,5.48-9.96,4.79-3.67-.67-6.47-3.07-8.64-5.93.49-.13.99-.28,1.48-.45.24-.08.39-.29.46-.51-1.08-.04-2.18-.03-3.16.36-.82.32-1.55.81-2.33,1.21.54-.04,1.07-.1,1.59-.19,1.82.36,2.66,2.56,4.49,4,2.04,1.61,4.34,2.85,6.89,3.35-8.73,8.22-20.57,14.3-32.39,16.33-9.67,1.66-19.64-.51-28.96-3.63-.44-.18-.87-.36-1.31-.55-1.16-.51-2.21-1.22-3.26-1.92-.17-.11-1.65-1.28-2.47-1.99-.25-1.84-.12-3.7.19-5.54,4.6-2.07,7.78-7.99,8.37-13.5.06.23.11.47.18.71.13.47.76.36,1.02.11,3.42-3.34,5.53-11.84,2.14-15.89.45-.48.88-1.01,1.28-1.59-1.41,1.07-3.06,1.7-4.7,1.79-.73.11-1.4.04-2.02-.19-1.76-.43-3.35-1.55-4.41-3.53-1.92-3.59-2.37-11.28.93-14.52.51-1.01,1.11-1.97,1.8-2.84,4.16-5.24,8.3.56,8.76,5.06-.37,1.44-.55,2.92-.48,4.39,0,.22.24.44.47.4,4.27-.74,7.61-3.96,10.69-6.79,1.45-1.33,2.67-2.79,3.68-4.36-.07.42.02.88.5,1,4.07,1.05,8.04-3.28,10.38-6.06.8-.95,1.56-2.08,2.22-3.31.04,1.35.71,2.44,2.62,2.07,2.39-.46,4.54-2.87,6.02-4.65.76-.92,1.55-1.9,2.26-2.93-.25.59-.53,1.16-.85,1.73-.37.64-.23,1.77.73,1.7,5.75-.39,10.68-5.35,11.81-10.87.47,1.45,1.2,2.79,2.33,3.81,1.58,1.43,3.64,3.54,5.82,2.25,1.93-1.13,2.26-4.54,2.54-6.5.26-1.84.53-3.79.3-5.61.95,1.65,1.37,3.69,1.67,5.48.07.42.54.66.91.39,3.25-2.39,5.65-6.92,6.08-10.94Z"/>
                  <path class="cls-31" d="M60.13,77.54c-2.26-1.4-4.67.64-4.32,3.01.03.19.25.06.25-.08-.02-1.53.88-2.64,2.45-2.41,1.06.15,1.8,1.16,2.29,2.02.3.54.49,1.09.6,1.65-1.28.06-2.59.77-3.23,1.88-.17.3.18.51.38.24.64-.85,1.91-1.28,2.96-1.06.04,1.31-.21,2.64-.3,3.99-.03.47.47.47.7.17,1.92-2.55.95-7.73-1.76-9.42Z"/>
                  <path class="cls-15" d="M130.35,29.94c.33.71.59,1.45.79,2.22.68,1.36,1.11,2.85,1.12,4.56,0,3.25-2.13,7.59-4.39,10.2-.55-2.18-1.49-5.9-3.48-6.56-.2-.38-.45-.74-.73-1.09.85,2.68,1.32,5.52.84,8.29-.25,1.47-.48,4.93-2.27,5.56-3.77,1.33-7.02-3.31-8.39-7.13-.16,1.41-.59,2.8-1.21,4.13-1.79,3.8-4.25,5.92-7.95,7.79-.25.13-.49.08-.65-.05-.16,0-.32,0-.48-.02-.41-.05-.66-.34-.58-.76.39-2.05,1.32-3.92,1.38-6.04,0-.05,0-.1,0-.14-.54,1.61-1.27,3.17-2.2,4.62-1.61,2.54-3.86,5.99-6.74,7.23-1,.43-1.62.04-2-.66-.18-.12-.28-.36-.29-.74-.25-.91-.25-1.98-.17-2.62.19-1.37.46-2.93.86-4.49-.06.18-.14.36-.2.54,0-.82-.12-1.62-.34-2.39-.27,3.28-1.45,6.34-3.47,9.34-1.63,2.42-3.97,6.53-7.04,7.53-3.28,1.07-2.52-3.62-2.34-5.44.03-.34.07-.68.1-1.02-.08.37-.16.74-.25,1.11-1.86,4.76-4.43,8.37-8.45,11.93-.79.7-7.19,6.11-7.11,3.29.06-2.18.72-4.52,1.66-6.63.12-.58.26-1.16.47-1.71-.87,1.31-1.61,2.74-2.15,4.23-.29-2.78-1.96-4.98-5.15-6.06-4.25-1.44-7.29,5.2-8.39,8.04-1.92,4.96-1.6,10.7,1.57,15.03,2.99,4.08,6.48,3.61,9.25,1.07,1.55,2.62.85,6.07.21,8.84-.21.82-.48,1.62-.79,2.41-.53,1.46-.91,2.98-1.46,1.87-.08-.66-.32-1.22-.7-1.69-.03-.36-.09-.7-.15-1.04-.09.98-.26,1.96-.63,2.85-.35,2.46-1.67,5.05-2.74,6.98-.7,1.27-3.94,4.45-4.52,5.92.28-1.27.62-2.54.95-3.79-.66,1.15-1.37,2.31-1.8,3.56-.12.46-.24.91-.34,1.38-.02.11-.04.21-.05.32,0,.07-.03.12-.05.18-.33,1.59-.52,3.2-.44,4.85-1.85-1.51-2.98-4.39-3.7-7.02-.5-.62-.97-1.28-1.34-1.98.18,1.85.65,4.05,1.49,6.02-.47.04-.93.05-1.37.06-2.05.91-4.12.64-6.19-.27-2.25-1-5.22-2.18-6.89-4.06-1.21-1.36-3.02-3.74-3.63-6.01.04.95.31,2.01.7,3.06.27.1.5.35.45.71-.22,1.44-.81,3-2.47,2.94-1.42-.05-2.39-2.45-2.9-3.43-1.4-2.68-2.68-5.13-3.21-8.17-.29-1.65-.71-3.38-.87-5.1-.24,1.84-.27,3.75-.1,5.65.1.2.17.41.28.61.23.47-.25,1.14-.76.86-.22-.04-.48-.2-.75-.46-1.06-.65-2.15-1.14-3.04-2.1-.8-.85-1.33-2.42-1.74-3.48-1.07-2.78-1.63-5.65-2.18-8.55-.35.9-.7,1.81-1.07,2.71-.23.57-.94.58-1.17,0-1.36-3.46-2-7.05-1.84-10.75.03-.7.04-1.45.1-2.19-.52,1.04-.92,2.16-1.18,3.33C-.17,73.38.8,59.95,9.1,46.28c3.54-5.84,8.12-11.35,12.25-16.79,2.63-3.46,7.02-8.4,11.12-10.26.8-.37,1.74-.45,2.71-.4.07-.04.14-.07.23-.08.71-.09,1.43-.08,2.13,0,.47-.42.96-.81,1.48-1.18C50.49,4.04,71.4.84,88.19,1.51c5.8.23,11.14,1.15,16.63,3.03,5.07,1.73,9.32,6.19,14.46,7.84,2.01.64,4.75.75,6.66-.26,1.5-.8,2.46-1.61,3.58-2.85.95-1.23,1.61,1.02-1.03,3.85-1.32,1.19-2.81,2.01-4.47,2.48-.09.03-.16.1-.22.19-.63.16-1.24.38-1.77.63,2.23-.48,4.81-.05,6.82.53,1.17.33,2.26.8,3.32,1.35.08,0,.16.04.25.09.09.06.18.12.27.18.52.29,1.04.6,1.55.93.8.53,1.41,1.19,2,1.87.49.37,1,.7,1.55.97.66.24,1.36.41,2.11.46-.29.33-.61.59-.94.82-.02.04-.03.08-.06.11-1.77,1.8-4.66,2.26-7.25,1.74.95.32,1.92.51,2.87.53,4.02,2.4,7.59,1.39,10.79-1.5.13,2.63-1.08,4.87-2.92,6.41-1.44,1.44-3.5,2.38-5.41,2.65-2.73.38-4.89-1.62-6.64-3.61Z"/>
                  <path class="cls-31" d="M61.78,14.35c-4.33-.04-8.33,2.03-12.12,4.96-2.79,2.15-6.23,6.02-6.82,9.93-5.23-2.25-12.56-.44-16.44,3.67.08-.05.17-.1.25-.15.76-.46,1.57-.96,2.42-1.31,3.96-2.26,9.17-1.95,13.7-.67.02.33.06.65.13.98-6.23.19-11.59,4.15-15.68,8.66-.47.52-1,1.13-1.55,1.8-.9,1.46-1.59,3.11-2.16,4.71,1.83-2.67,4.08-5.15,5.52-6.68,3.75-4,8.63-6.29,13.86-7.52.26-.1.52-.18.79-.24-.02-1.39.37-2.77,1.03-4.06,1.72-5.15,6.21-9.54,11.4-11.64,1.72-1.15,3.64-1.99,5.66-2.44Z"/>
                  <path class="cls-31" d="M123.45,77.38c-1.12-.68-3.22,1.37-4.7,4.6-1.48,3.23-1.78,6.39-.66,7.08,1.12.68,3.22-1.37,4.7-4.6,1.48-3.22,1.78-6.39.66-7.08Z"/>
                  <path class="cls-7" d="M123.85,76.52c-1.28-.78-3.7,1.58-5.4,5.28-1.7,3.7-2.04,7.34-.76,8.13,1.28.78,3.7-1.57,5.4-5.28,1.7-3.7,2.04-7.34.76-8.13Z"/>
                  <path class="cls-23" d="M123.04,82.52c-.47,1.02-1.13,1.67-1.49,1.45-.35-.21-.26-1.22.21-2.24.47-1.02,1.13-1.67,1.49-1.45.35.22.26,1.22-.21,2.24Z"/>
                  <path class="cls-31" d="M128.54,68.46c-.03-1.83-.73-4.09-2.41-5.06-1.74-1.01-3.62-.06-4.99,1.1-.84.7-2.78,2.47-2.17,3.77.07.14.24.03.26-.09.13-1.15,2.76-1.69,3.64-1.85.89-.16,1.51.4,1.86,1.15.48,1.01.7,2.22.97,3.3.19.8.45,2.18,1.02,2.8.29.32.79.17.99-.19.77-1.35.86-3.43.83-4.94Z"/>
                </g>
              </g>
              <g class="cls-5">
                <path class="cls-15" d="M134.53,25.98c-.96-.02-1.92-.21-2.87-.53,2.59.52,5.48.06,7.25-1.74.03-.03.04-.07.06-.11.3-.21.58-.45.85-.73-3.23.74-8.05.96-14.7-1.01-10.53-3.12,5.69,4.94,10.1,5.69,4.41.75-2.58,3.76-10.21.11-7.09-3.65,4.51,4.94,4.08,10.21s-8.08-6.2-8.08-6.2c0,0,4.83,14,.33,16s-7.5-12.17-7.5-12.17c0,0-1.5,14.83-5.17,16.5-3.67,1.67-2-13.5-2-13.5,0,0-5.33,17.33-9,18.17-3.67.83-1.5-15-1.5-15,0,0-5.33,19.5-10.17,20.5s-2.5-11.67-2.5-11.67c0,0-6.67,18-11.83,21.33s-1.33-10.17-1.33-10.17c0,0-4.17,7.67-7.17,4.67s-12.17-.17-14.83,11.17c-2.67,11.33,1.67,16.5,4.17,18s-6.42,4.25-9.67-7.75-4.5,8.25-2.5,18.5-10.5,2.75-11.5-9.75-4,1.25-3.25,7.5-7-1.75-3.75-14.25-4.5,3.5-4.5,7.75-7.87-.07-3.25-17c3-11-1.5-5.5-2.75.5-1.25,6-14-8-4-25.5,10-17.5,21.75-22,21.75-22,0,0-9.25,8-6.25,17.75,5.5-11,18.75-16.75,25.25-15.75-.25-11.25,6.75-21.25,21.75-21.5-5.75-6.5-24,3.5-24,3.5,0,0,7.55-11.2,25.32-15.22-12.24,1.69-24.36,6.11-32.13,15.3-.52.36-1.01.76-1.48,1.18-.71-.08-1.42-.1-2.13,0-.08.01-.16.04-.23.08-.98-.05-1.91.03-2.71.4-4.11,1.87-8.5,6.8-11.12,10.26-4.12,5.44-8.71,10.95-12.25,16.79C.8,59.95-.17,73.38,6.05,88.11c.26-1.17.66-2.29,1.18-3.33-.06.74-.07,1.48-.1,2.19-.16,3.7.48,7.29,1.84,10.75.23.58.93.57,1.17,0,.37-.9.72-1.81,1.07-2.71.55,2.9,1.11,5.78,2.18,8.55.41,1.07.94,2.63,1.74,3.48.89.95,1.98,1.45,3.04,2.1.27.26.53.43.75.46.51.28.99-.38.76-.86-.1-.2-.18-.41-.28-.61-.17-1.9-.14-3.81.1-5.65.17,1.72.59,3.45.87,5.1.53,3.04,1.81,5.49,3.21,8.17.51.98,1.48,3.37,2.9,3.43,1.66.06,2.26-1.5,2.47-2.94.05-.36-.18-.62-.45-.71-.39-1.05-.66-2.11-.7-3.06.6,2.27,2.42,4.66,3.63,6.01,1.67,1.88,4.64,3.06,6.89,4.06,2.06.91,4.14,1.18,6.19.27.45,0,.9-.02,1.37-.06-.84-1.97-1.31-4.18-1.49-6.02.37.7.84,1.36,1.34,1.98.72,2.63,1.85,5.51,3.7,7.02-.08-1.65.11-3.26.44-4.85.02-.06.05-.11.05-.18.01-.11.04-.21.05-.32.1-.46.22-.92.34-1.38.44-1.25,1.14-2.41,1.8-3.56-.33,1.25-.67,2.52-.95,3.79.58-1.47,3.82-4.64,4.52-5.92,1.07-1.93,2.39-4.52,2.74-6.98.37-.89.54-1.87.63-2.85.06.34.12.69.15,1.04.38.47.62,1.03.7,1.69.54,1.12.93-.4,1.46-1.87.31-.79.58-1.59.79-2.41.64-2.77,1.34-6.22-.21-8.84-2.76,2.54-6.26,3.01-9.25-1.07-3.17-4.33-3.49-10.07-1.57-15.03,1.1-2.84,4.14-9.47,8.39-8.04,3.19,1.08,4.86,3.29,5.15,6.06.54-1.49,1.28-2.92,2.15-4.23-.21.55-.35,1.12-.47,1.71-.95,2.11-1.6,4.45-1.66,6.63-.08,2.82,6.32-2.59,7.11-3.29,4.03-3.55,6.6-7.17,8.45-11.93.09-.37.17-.74.25-1.11-.03.34-.07.69-.1,1.02-.18,1.82-.93,6.52,2.34,5.44,3.07-1,5.41-5.11,7.04-7.53,2.03-3,3.21-6.06,3.47-9.34.22.77.33,1.57.34,2.39.06-.18.13-.36.2-.54-.4,1.56-.67,3.13-.86,4.49-.09.63-.08,1.71.17,2.62,0,.38.12.62.29.74.38.7,1,1.09,2,.66,2.88-1.24,5.13-4.69,6.74-7.23.92-1.46,1.66-3.01,2.2-4.62,0,.05,0,.1,0,.14-.06,2.12-.99,3.99-1.38,6.04-.08.42.17.71.58.76.17.02.32.02.48.02.17.13.41.18.65.05,3.7-1.87,6.17-3.99,7.95-7.79.62-1.33,1.04-2.72,1.21-4.13,1.38,3.82,4.63,8.46,8.39,7.13,1.79-.63,2.01-4.1,2.27-5.56.48-2.77,0-5.62-.84-8.29.28.35.54.72.73,1.09,1.99.67,2.93,4.38,3.48,6.56,2.26-2.61,4.4-6.96,4.39-10.2,0-1.71-.44-3.2-1.12-4.56-.2-.77-.47-1.52-.79-2.22,1.75,1.99,3.91,3.99,6.64,3.61,1.91-.27,3.96-1.21,5.41-2.65,1.85-1.54,3.06-3.78,2.92-6.41-3.2,2.89-6.77,3.89-10.79,1.5Z"/>
              </g>
              <path class="cls-11" d="M25.84,68.68c2.67-8.5,1.5,13.17,6.5,23.33s3.5-18,8.67-24.67.17,7.33,3.83,17.17c2.67,7-2.33-20.67,15.33-22.17,5.67-.67,10.83-6.83,12.17-10.33,1.33-3.5-.5,7.33,0,11.5s5.83-6.17,11-17.67.5,8,2.33,10.33c1.83,2.33,9.17-12,11.17-19.33s-.17,12.67,2.17,12.83c2.33.17,8.33-18.17,8.33-18.17,0,0-.33,12.33,1.83,12.67,2.17.33,3.67-17,3.67-17,0,0,3,14.17,5.17,14s-2.17-17.5-2.17-17.5c0,0,3.33,5.83,4.83,5.83s-1.33-6.5-1.33-6.5c0,0,3.83,2.67,4.5,2,.67-.67-5.67-5.33-5.67-5.33,0,0,12.33,2.67,14.33,1s-13.83-2.67-13.83-2.67c0,0,6.93-3.22,7.63-5.36,0,0-4.9,3.47-15.29-3.46-10.39-6.93-29.3-7.42-40.17-3.42-8.25,3,7.67.92,15.33,7.42,7.67,6.5-31.18-.96-31.84,27.04,0,0-16.15-7.34-32.11,15.41-2.2,3.49-2.94-2.75-1.83-8.62,1.1-5.87-11.19,9.91-13.21,20.92-2.02,11.01,8.62,3.12,11.56-2.2,2.94-5.32-4.77,16.52-1.1,18.53,3.67,2.02,8.21-15.58,8.21-15.58Z"/>
              <g class="cls-6">
                <path class="cls-16" d="M139.88,102.35c-4.78,5.13-18.59-.96-19.58,1.03-1.16,2.31,2.6,4.43,5.4,6.17,2.79,1.74-.29,6.07-6.26,5.78-5.97-.29-8.96-3.95-7.81-4.82,1.16-.87,4.01-2.06.01-2.06s-7.81,3.63-6.9,3.45c.91-.18,2.91-.36,4.54,2.36,1.63,2.72,7.81,4.54-.73,9.08-13.07,7.08-32.14,7.99-36.86-8.9-4.72-16.89,5.27-31.23,21.06-44.3,2,3.27,8.17,2.91,12.53-5.45,7.99.73,8.72-10.71,11.8-7.44,3.09,3.27,8.35,4,13.07-3.27,2.56-3.64,3.96-1.47,4.72,1.96.77-6.49.68-12.99-.96-18.93,0,.29-.02.59-.05.89-.43,4.03-2.84,8.55-6.08,10.94-.37.27-.84.03-.91-.39-.31-1.79-.73-3.82-1.67-5.48.23,1.82-.03,3.77-.3,5.61-.28,1.96-.61,5.36-2.54,6.5-2.18,1.29-4.24-.82-5.82-2.25-1.13-1.02-1.86-2.36-2.33-3.81-1.12,5.52-6.06,10.48-11.81,10.87-.96.06-1.1-1.06-.73-1.7.32-.56.6-1.14.85-1.73-.71,1.03-1.5,2.01-2.26,2.93-1.47,1.78-3.63,4.2-6.02,4.65-1.92.36-2.58-.72-2.62-2.07-.66,1.23-1.42,2.36-2.22,3.31-2.34,2.78-6.3,7.11-10.38,6.06-.48-.12-.57-.58-.5-1-1,1.57-2.22,3.03-3.68,4.36-3.09,2.83-6.42,6.05-10.69,6.79-.23.04-.46-.19-.47-.4-.07-1.47.11-2.95.48-4.39-.23-2.29-1.42-4.91-3.07-6.25.04,1.15-.5,2.42-1.27,3.15-1.85,1.75-5.01,2.92-6.13,5.28-1.36,2.85,2.5,1.31,3.34,2.23.58.63.76,1.22.64,2.07-.12.81-1.01,1.52.45,2.25.6.3,1.3.7,1.74,1.23.63.77,1.26,1.79.87,2.85-.64,1.72-1.94,2.63-3.53,3.06.59.2,1.22.26,1.91.16,1.64-.08,3.29-.71,4.7-1.79-.4.57-.83,1.11-1.28,1.59,3.39,4.05,1.28,12.55-2.14,15.89-.26.26-.89.37-1.02-.11-.06-.23-.12-.47-.18-.71-.59,5.51-3.77,11.43-8.37,13.5-.31,1.85-.43,3.7-.19,5.54.82.71,2.3,1.88,2.47,1.99,1.05.7,2.1,1.41,3.26,1.92.43.19.87.37,1.31.55,9.32,3.12,19.29,5.29,28.96,3.63,11.81-2.03,23.66-8.11,32.39-16.33-2.54-.5-4.85-1.74-6.89-3.35-1.83-1.44-2.67-3.64-4.49-4-.52.09-1.05.15-1.59.19.78-.4,1.51-.88,2.33-1.21.99-.39,2.09-.4,3.16-.36-.07.22-.22.43-.46.51-.49.17-.98.32-1.48.45,2.17,2.86,4.97,5.26,8.64,5.93,3.8.7,8.95,1.18,9.96-4.79.25-1.48.23-1.61.54-2.22-.61-.13-.49-1.13.11-1.27.72-.17,1.54-.31,2.39-.48.54.03,1.06.07,1.48.03,1.1-.1,2.32-.34,3.3-.86,1.68-.9,3.76-2.41,3.87-4.54,0-.04,0-.07,0-.1Z"/>
              </g>
              <path class="cls-18" d="M127.7,90.05s.36,4,5.69,6.66c5.33,2.66,4.48,4.36.24,2.66-4.24-1.7-8.23-8.72-5.93-9.32Z"/>
              <g class="cls-6">
                <path class="cls-16" d="M71.51,136.68c1.74.52,4.23.79,5.76.88.04-.34.07-.7.07-1.07-1.56.11-3.12.15-4.59-.07-2.72-.41-5.23-1.31-7.72-2.37-.07.18-.14.36-.23.53-1.39,2.66,3.61,4.17,5.2,4.56.09.02.18.05.28.07-.28-1.64-.11-2.94,1.24-2.54Z"/>
              </g>
              <path class="cls-11" d="M97.07,6.5s9.78,1.37,18.18,8.58c8.4,7.2-1.2-8.06-18.18-8.58Z"/>
              <path class="cls-11" d="M112.37,22.92s2.89,7.95,3.9,13.88c1.01,5.93.72-2.31-.72-8.24-1.45-5.93-3.47-7.81-3.18-5.64Z"/>
              <path class="cls-11" d="M109.48,25.7s.86,7.85.47,13.45,1.17-1.94,1.17-7.63c0-5.69-1.42-7.85-1.64-5.82Z"/>
              <path class="cls-11" d="M103.49,29.14s-.44,7.88-1.75,13.34c-1.31,5.46,1.47-1.72,2.41-7.33.94-5.62-.11-7.97-.66-6Z"/>
              <path class="cls-11" d="M95,34.48s-2.08,7.62-4.51,12.68c-2.42,5.06,1.8-1.37,3.89-6.67,2.09-5.29,1.56-7.82.62-6.01Z"/>
              <path class="cls-20" d="M71.01,145.34s5.5,0,11.17,8c5.67,8,11,15.5,14.17,17.67s2,6.5,1.33,8.5c-.67,2,1.33-.17,2.17-2.67.83-2.5,5,5.17-3.17,12.67-8.17,7.5-10.17,2.33-10.17.67-8.67-4-18.5-20-20.67-29.67-2.17-9.67,1-16.17,5.17-15.17Z"/>
              <path class="cls-20" d="M59.17,169.68s3.05,5.82,5.55,7.48,10.12,13.02,15.79,20.02,10.07,4.28,13.17,1.5c4.83-4.33,8.5,2.67,7.5,10.33s-13.5,25.5-35.33,27.17c-11,1.17-14.5-3.33-9.17-4.83-5.33-12.67-8.83-26-7.67-44.17,1.17-18.17,4-32.5,6.67-34.33,2.67-1.83-2.67,9.84,3.5,16.83Z"/>
              <path class="cls-20" d="M72.51,149.64s5.02,1.1,11.29,10.03c6.27,8.94,8.15,10.66,11.13,13.17,2.98,2.51-2.19-3.45-7.21-9.88-5.02-6.43-12.23-16.78-15.21-13.33Z"/>
              <path class="cls-20" d="M52.51,175.18s-3.67,23.83,4.67,50.83c1.83,5.83-7.17-10.17-6.83-33.83.33-23.67,2.5-19.5,2.17-17Z"/>
              <path class="cls-20" d="M60.75,232.31s20.69,1.63,33.56-15.31c3.26-4.07-1.79,10.26-18.08,14.99-16.29,4.72-18.57,0-15.48.33Z"/>
              <g class="cls-8">
                <path class="cls-2" d="M143.09,236c1.64-19.87-4.91-29.08-2.87-29.7.93-.16,1.83.23,2.66.88-1.15-2.02-3.17-2.89-6.76-1.07-1.53.77-1.77.67-1.5,1.32.18,0,.36-.02.54-.02,3.01.04,3.89,4.48,4.38,6.61,1.37,5.96,2.35,12.13,2.03,18.27-.42,7.95-3.42,16.02-10.16,20.04,1.25,1.38,4.63.98,6.18.74,3.13-.49,5.01-2.83,5.82-5.8.7-2.57,1.19-5.21,1.52-7.87-1.35.69-2.4-.28-1.85-3.4Z"/>
              </g>
              <g class="cls-8">
                <path class="cls-2" d="M139.68,198.86c-3.14-.08-4.97-2.7-6.21-6.28-.46-1.31-.2-2.07.38-2.5-.83-.64-1.79-1.1-2.94-1.18-.77-.05-2.18-.26-3.23,0,4.64.56,7.76,10.56,8.62,15,1.24-.81,2.58-1.44,3.52-1.45.59,0,1.1.08,1.57.21-.58-.98-.91-2.21-1.4-3.19-.1-.2-.2-.4-.3-.61Z"/>
              </g>
              <g class="cls-8">
                <path class="cls-2" d="M139.24,219.81c-.32-2.22-.62-4.47-1.15-6.65-.65-2.68-2.38-3.45-4.38-3.32,1.19,1.13,2.56,3.65,3.03,9.22.89,10.5-1.6,22.43-18.33,26.34-16.73,3.92-27.59.18-20.47-8.72,5.6-7,9.34-13.23,13.71-17.21-2.34,1.19-4.64,2.45-6.85,3.89-.42.28-.71-.34-.38-.63.74-.66,1.5-1.26,2.28-1.84-1.67-1.98-2.41.28-4.24,2.27-1.96,2.12-4.07,4.14-5.69,6.55-2.82,4.22-7.08,8.11-8.66,12.99-.17.52-.9.39-.75-.18,1.29-4.92,5.16-9.52,7.92-13.74,2.78-4.24,6.56-8.32,10.78-11.13.31-.21.81-.06.83.36.16.79.32,1.59.48,2.38.02-.02.04-.03.07-.05-.5-2.48.64-5.2.35-7.79-.29-2.52-.68-5.02-.67-7.56,0-.41.72-.64.76-.15.37,5.3,2.11,9.79.4,14.93,3.3-2.23,6.87-3.93,10.6-5.61,4.27-1.92,9.67-5.87,14.63-6.59-.08-.09-.17-.17-.23-.27-.13-.22-.16-.48,0-.7.38-.55,1.11-1.26,1.97-1.92-1.9-4.68-3.92-15.06-9.77-13.67,1.51.7,2.96,1.86,3.87,3.8,2.71,5.75,0,11.5-6.09,14.43-6.09,2.93-11.27,5.53-12.4.45-.98-4.41-1.28-9.16.66-11.51-1.46.76-2.81,1.53-2.85,1.86-.06.52-.57.9-1.06.68-.79-.14-2.25-.41-3.04-.55.87,5.53-1.58,16.97-1.78,16.66-1.37,3.83-4,7.41-6.57,10.21-5.18,5.63-11.7,10.28-19.06,12.56-3.14.98-14.84,3.38-22.5,2.34,9.73,11.32,23.9,14.07,37.87,12.5.02,0,.02-.02.04-.02.06,0,.12,0,.19,0,2.92-.34,5.83-.86,8.69-1.53.31-.07.32.37.06.46-1.24.4-2.54.78-3.87,1.14,2.71.14,5.41.33,8.14-.08,3.91-.59,7.83-.75,11.77-1.05,10.88-.82,20.93-5,22.1-17.38.51-5.38.37-10.78-.41-16.13Z"/>
              </g>
              <path class="cls-3" d="M109.86,224.54s-1.09-3.06,9.39-7.42c10.48-4.37,14.19-5.9,13.1-4.37-1.09,1.53-12.01,5.46-15.29,6.99-3.27,1.53-7.21,2.84-7.21,4.8Z"/>
              <path class="cls-3" d="M113.06,198.61s11.23-7.49,12.6-6.61c1.37.87-14.97,9.23-12.6,6.61Z"/>
              <path class="cls-18" d="M183.75,208.68s30.93,17.49,32.21,19.41c1.28,1.92-37.76-20.69-32.21-19.41Z"/>
              <path class="cls-22" d="M165.42,124.04s-5.1,6.47-8.96,14.06c-3.86,7.59-5.85,11.32,2.61,8.83,8.46-2.49,16.3-3.48,14.93,1.24-1.37,4.73-3.23,3.98-3.23,10.45s-2.11,11.32-9.95,15.3c-7.84,3.98-15.3,4.85-18.04,3.98-2.74-.87-7.21,1.87-.5,6.1,6.72,4.23,18.29,6.97,22.76,9.45,4.48,2.49,3.98,1.49,15.05-18.91,11.07-20.4,18.66-36.57,18.66-36.57,0,0-10.08-6.47-15.43-9.08-5.35-2.61-16.42-8.08-17.91-4.85Z"/>
              <g>
                <path class="cls-13" d="M107.23,94.7c-.22,2.1,2.45,4.09,5.96,4.45,3.51.36,6.53-1.04,6.75-3.13.22-2.09-2.45-4.09-5.96-4.45-3.51-.36-6.53,1.04-6.75,3.13Z"/>
                <path class="cls-31" d="M114.06,93.42c.12-.26.47-.33.69-.15.96.77,1.84,1.75,2.42,2.84.37.69-.51,1.2-.9.52-.55-.96-1.42-1.63-2.08-2.5-.15-.2-.25-.45-.14-.7Z"/>
                <path class="cls-31" d="M111.81,93.15c.8.77,1.58,1.56,2.29,2.42.5.6-.17,1.5-.75.84-.77-.89-1.67-1.65-2.22-2.71-.26-.51.24-.98.68-.56Z"/>
                <g class="cls-21">
                  <path class="cls-19" d="M109.8,90.28c1.33-1.19,3.67-.54,5.2-.11,2.23.62,3.28,1.95,4.93,3.44.15.13.06.5-.16.36-1.45-.94-2.65-1.97-4.36-2.44-1.81-.5-3.34-.54-5.16-.19-.53.1-.79-.75-.44-1.06Z"/>
                  <path class="cls-19" d="M108.11,90.89c-.1.33-.44.51-.76.42-.33-.1-.51-.44-.42-.77.1-.33.44-.51.76-.42.33.1.51.44.42.76Z"/>
                </g>
              </g>
              <g>
                <path class="cls-1" d="M148.36,157.87c.08-.04.17-.08.3-.11-.05,0-.1,0-.16,0-.07,0-.12.05-.14.11Z"/>
                <path class="cls-1" d="M150.67,162.94c.09-.05.2-.1.33-.15-.1.03-.2.05-.29.08-.03,0-.04.04-.04.07Z"/>
                <path class="cls-1" d="M152.48,163.17c1.14-.02,2.17-.3,3.15-.72-.95.24-2.02.51-3.15.72Z"/>
                <path class="cls-7" d="M151.18,163.39c.44-.06.88-.14,1.31-.22-.57,0-1.16-.04-1.79-.18-.03,0-.03-.03-.03-.05-.8.41-.61.6.51.44Z"/>
                <path class="cls-7" d="M168.28,150.06c.04-.15.06-.31.02-.46-.2-.82-1.34-.47-1.85-.28-.27.1-.74.31-1.24.59-.63.18-1.22.5-1.76.97-1.97,1.37-3.73,2.62-6.2,2.79-3.46.24-6.94.79-10.38.99-.19.01-.37-.04-.53-.11-.67-.16-1.33-.48-1.8-.98-.6-.64-.66-1.39-.66-2.23,0-.23.35-.33.41-.08.14.67.51,1.39,1.09,1.8.54-1.3,1.02-2.64,1.63-3.9.53-1.1,1.26-2.16,1.73-3.3-.47.42-.93.85-1.43,1.23-.75.57-1.58.91-2.43,1.32-.25.12-.57.21-.9.3.03,0,.03.03.05.05-1.21.42-2.25,1.31-3.2,2.33-1.19.85-2.34,1.87-3.36,2.95,1.66-1.07,3.71-1.93,4.68-.51,1.77,2.6,9.94,1.02,14.4.56,3.16-.19,2.6,3.07-3.9,3.25-2.09.06-3.37.22-4.01.42,3.62-.11,7.89-.19,11.31-1.43,2.88-1.05,5.37-2.91,7.5-5.1.03-.03.05-.06.08-.08.04-.05.09-.09.14-.14,0,0,0,0,0,0,.23-.24.43-.5.54-.77.04-.05.08-.1.11-.16-.02,0-.04,0-.06-.02Z"/>
                <path class="cls-7" d="M152.11,158.55c4.74-.19,7.53.56,2.6,2.97-1.76.5-2.98.93-3.71,1.26,1.63-.48,3.75-.54,5.09-1.39,1.49-.95,2.87-1.97,4.48-2.74,2.09-1,3.53-1.84,5.04-3.66.02-.02.24-.51.52-1.1-.2.12-.39-.03-.37-.25-4.72,4-10.72,4.82-17.29,4.47-.14,0-.16-.14-.11-.25-.74.38.83.8,3.75.68Z"/>
              </g>
              <path class="cls-7" d="M152.67,167.29c-.18.12-.29-.14-.16-.27,1.72-1.63,4.29-1.99,6.4-2.95,3.06-1.38,8.35-5.18,7.57-9.26-.97,1.82-2.56,3.16-4.74,4.18-2.24,1.04-4.06,2.56-6.1,3.45.36-.09.71-.18,1.03-.26,1.49-.37,1.86,1.58-1.67,2.79-3.53,1.21-3.62,2.97-3.07,2.88.56-.09,3.9-1.76,5.85-2.04,1.95-.28-.09,2.88-2.97,4.18-2.88,1.3-6.97,3.9-15.42,1.77-4.71-1.19-6.3-3.56-6.73-5.79-.06.33-.1.66-.1.99-1.34,1.12-2.72,2.17-4.11,3.21,4.01-1.8,4.31.8-3.21,7.46-7.6,6.73-12.31,10.58-16.25,10.67-2.52.06-3.7-1.5-2.94-3.61-.79.34-1.34.39-2.03.09-1.41,3.04-3.59,5.86-6.47,7.56,1.22.45,2.44.82,3.59,1.03,6.56,1.22,10.94-1.49,15.68-5.8,5.89-5.35,11.54-10.94,17.41-16.31.04-.04.08-.06.12-.07-.06-.05-.13-.1-.19-.15-.12-.11-.09-.29,0-.39,1.08.56,2.11,1.06,3.35,1.35.07.02.14.02.21.04,4.65,1.66,10.7,2.36,14.56.13,2.21-1.27,4.64-3.02,7.14-3.98,1.19-.6,2.36-1.23,3.32-2.16.92-.89,2.25-1.78,2.42-3.16.12-1.06.3-2.12.45-3.17-.54.65-1.12,1.27-1.63,1.83-3.08,3.45-7.73,3.34-11.32,5.79Z"/>
              <path class="cls-17" d="M120.77,158.04s-4.82,9.07-8.03,13.6c-1.23,2.17,2.74-2.46,5.76-7.56,3.02-5.1,3.59-8.12,2.27-6.05Z"/>
              <path class="cls-17" d="M125.84,172.09s-12.08,7.92-15.08,9.92,4.17-1.75,9.58-5.25c5.42-3.5,8.67-6.42,5.5-4.67Z"/>
              <path class="cls-17" d="M127.2,139.23s2.83-5.6,7.67-8.22c4.84-2.63.14-1.66-3.66,1.87-3.8,3.52-5.39,8.36-4.01,6.36Z"/>
              <path class="cls-17" d="M141.27,154.08s.31,1.73,8.46,1.12c6.12-.51,5.2,1.02-1.22,1.73-2.55.31-2.04,1.94,2.04,2.04,4.08.1.82,2.65-2.45,3.26-2.14.41-1.94,1.43,1.73,1.43s1.83,2.24-1.63,3.36c-1.12.82.31,1.32,3.26,1.22,2.96-.1-.92,2.96-8.66,2.55-7.75-.41-11.52-4.94-8.33-11.9,2.08-4.53,5.88-5.93,6.8-4.81Z"/>
              <g class="cls-8">
                <path class="cls-28" d="M264.5,207.6c-1.03.61-1.96,1.38-2.79,2.24-1.02,1.05-1.96,2.16-2.86,3.3,4.04-3.57,5.53-1.99,5.53,5.32,0,7.79-8.36,21.96-18.99,30.04-10.63,8.08-16.58-.42-14.17-2.27,2.41-1.84,3.26-4.53,4.39-3.54,1.13.99,4.25,2.55,2.13-1.28-3.97-8.08,1.56-8.64,6.23-11.19.76-.42,1.41-.92,1.98-1.46-1.6,1.22-3.38,2.18-5.45,2.68-2.26.55-5.49,1.29-5.87,3.67.05.4.07.81.04,1.22,0,.03,0,.05,0,.08.37,1.66.9,3.2,1.52,4.77.09.23-.24.49-.38.24-.49-.89-1.09-1.96-1.55-3.08-.74,2.29-2.32,4.48-3.81,5.82-1.37,1.24-2.76,2.45-4.2,3.12,2.83,2.83,6.13,7,10.65,8.65,8.56-3.93,17.32-12.34,22.37-20.15,4.89-7.59,9.07-19.39,5.22-28.18Z"/>
              </g>
              <path class="cls-23" d="M266.25,208.21s2.5,6.16-1.06,18.38c-.87,2.31,3.56-4.14,3.56-12.99-.29-5.1-2.69-6.93-2.5-5.39Z"/>
              <path class="cls-23" d="M252.69,224.27s6.16-10.39,8.95-10.97c2.79-.58-2.79-4.33-8.95,10.97Z"/>
              <g>
                <path class="cls-1" d="M178.23,239.25s-.04,0-.06,0c.02,0,.04,0,.06,0,0,0,0,0,0-.01Z"/>
                <path class="cls-9" d="M178.11,238.74c.05.09.12.17.15.28.02.07,0,.16-.03.23,1.55-.14,2.83-.39,3.87-.68-1.33.15-2.66.22-3.99.17Z"/>
              </g>
              <path class="cls-23" d="M184.41,246.3s13.86-4.66,24.19-2.4c10.33,2.26,13.23,10.34-1.5,12.59-8.33,1.27-11.95.72-17.67.42-10.83-.57-14.54-7.08-5.02-10.61Z"/>
              <path class="cls-23" d="M172.97,249.11s-12.49-.88-15.31,5.03c-2.82,5.91,4.76,9.3,15.46,5.91,8.33-2.26,4.61-10.44-.15-10.94Z"/>
              <path class="cls-23" d="M180.81,240.31s10.84-3.48,15.37-3.72c4.53-.24,2.1-1.3-3.96-.16-6.07,1.13-13.67,3.88-11.41,3.88Z"/>
              <g class="cls-8">
                <path class="cls-26" d="M226.84,242.08c4.27-3.39,4.46-7.86,3.69-9.41-.25-.5-.09-.93.23-1.28-.45-.23-.92-.38-1.37-.38,0-.03,0-.05,0-.08-.8-.34-1.55-.2-2.1.79.6.45,1.19.91,1.78,1.37.04-.2.08-.4.12-.6.31.37.54.8.72,1.25.02.02.05.03.07.05.06.15.09.3.13.46h0s.01.04.02.06c-.07.33-.1.66-.09,1-.03-.02-.05-.03-.08-.05-.86,4.58-3.9,8.61-9.08,8.69-.59,0-.44-.81,0-.96.51-.18.98-.39,1.44-.6-.64-.24-1.29-.47-1.93-.7-2.26,1.72,1.05,4.23,2.2,4.76,1.74.45,3.2.15,4.39-.87,1.13-.77,2.26-1.59,3.25-2.54-2.81,1.55-6.12,1.12-3.38-.94Z"/>
              </g>
              <path class="cls-10" d="M231.73,233.44s1.31,3.55-1.43,7.04c-1.56,2.05,1.81.33,2.68-2.18,1.17-3.4-1.12-6.48-1.25-4.86Z"/>
            </g>
            <path class="cls-3" d="M142.01,209.55s1.74,6.5,1.92,13.91c.18,7.41,1.92.27.55-8.51-1.37-8.79-3.02-8.05-2.47-5.4Z"/>
          </g>
          <path class="cls-12" d="M151.02,119.1l8.29-16.1,21.46,15.71s-13.74-5.73-16.27-7.19c-2.54-1.46-6.33,2.67-9.17,8-2.52,4.74-8.32,11.29-4.32-.41Z"/>
        </g>
      </g>
    </g>
  </g>
</svg>