<?xml version="1.0" encoding="UTF-8"?>
<svg id="Layer_1" data-name="Layer 1" xmlns="http://www.w3.org/2000/svg" viewBox="0 0 4000 4000">
  <defs>
    <style>
      .cls-1 {
        fill: #9696aa;
      }

      .cls-2 {
        fill: #232323;
      }

      .cls-3 {
        fill: #ff5760;
      }

      .cls-4 {
        fill: #000070;
      }

      .cls-5 {
        fill: #000072;
      }

      .cls-6 {
        fill: #fff;
      }

      .cls-7 {
        fill: #67e9ff;
      }

      .cls-8 {
        opacity: .8;
      }

      .cls-9 {
        opacity: .6;
      }

      .cls-10 {
        opacity: .5;
      }

      .cls-11 {
        opacity: .2;
      }

      .cls-12 {
        opacity: .3;
      }

      .cls-13 {
        fill: #ff8d06;
      }

      .cls-14 {
        fill: #22a7f0;
      }

      .cls-15 {
        fill: #b199c5;
      }

      .cls-16 {
        fill: #ef7fd2;
      }

      .cls-17 {
        fill: #10c1ff;
      }
    </style>
  </defs>
  <rect class="cls-7" width="4000" height="4000"/>
  <g>
    <g class="cls-11">
      <ellipse class="cls-5" cx="2019.22" cy="3532.37" rx="779.3" ry="117.63"/>
    </g>
    <g>
      <g>
        <path class="cls-17" d="M2957.04,1818.93c-200.43,516.96-833.13,662.82-1326.72,537.59h.03c-230.53-59.52-421.8-218.57-538.61-447.83-129.88-254.91-147.89-546.77-49.43-800.73,93.36-240.79,284.67-431.29,538.72-536.43,249.46-103.23,535.29-108.64,784.26-14.8,520.13,196.01,785.58,762.24,591.75,1262.2Z"/>
        <g class="cls-12">
          <path class="cls-5" d="M1782.52,2106.1h.03c-227.76-58.81-416.75-215.94-532.16-442.46-128.32-251.86-146.12-540.21-48.83-791.13,4.88-12.58,10.09-24.99,15.5-37.29-69.74,79.49-125.19,170.13-163.7,269.47-97.28,250.92-79.48,539.27,48.83,791.13,115.41,226.52,304.39,383.65,532.16,442.47h-.03c480.66,121.95,1094.83-16.32,1301.99-509.39-275.65,302.18-759.6,377.22-1153.79,277.2Z"/>
        </g>
        <g class="cls-10">
          <path class="cls-6" d="M2365.28,556.73c-248.96-93.83-534.8-88.43-784.26,14.8-193.91,80.25-351.22,210.28-456.37,374.41,104.65-150,254.41-269.11,436.37-344.41,249.46-103.23,535.29-108.64,784.26-14.8,520.13,196.01,785.58,762.24,591.75,1262.2-20.4,52.6-45.34,101.3-74.08,146.33,37.35-53.13,69.08-111.84,94.08-176.33,193.83-499.96-71.62-1066.19-591.75-1262.2Z"/>
        </g>
        <path class="cls-5" d="M2379.39,520.35c-262.15-98.8-551.12-93.39-813.65,15.27-264.08,109.28-463.08,307.6-560.33,558.43-102.42,264.16-83.82,567.46,51.03,832.12,121.99,239.43,322.27,405.65,563.96,468.05l.08.02c114.9,29.15,234.65,43.61,353.36,43.61,157.59,0,313.28-25.49,453.05-75.9,275.26-99.29,471.34-282.25,567.06-529.11,201.61-520.03-74.07-1108.8-614.54-1312.49ZM2957.04,1818.93c-200.43,516.96-833.13,662.82-1326.72,537.59h.03c-230.53-59.52-421.8-218.57-538.61-447.83-129.88-254.91-147.89-546.77-49.43-800.73,93.36-240.79,284.67-431.29,538.72-536.43,249.46-103.23,535.29-108.64,784.26-14.8,520.13,196.01,785.58,762.24,591.75,1262.2Z"/>
        <g>
          <g class="cls-8">
            <path class="cls-6" d="M2420.58,704.72c279.41,138.69,406.78,408.17,439.86,621.71-203.36-489.36-785.02-692.98-1136.45-672.67,127.06-50.27,457.08-67.93,696.6,50.96Z"/>
          </g>
          <g class="cls-9">
            <path class="cls-6" d="M1171.81,1660.84c39.29-17.71,90.04,8.68,113.35,58.94,23.31,50.26,10.35,105.37-28.95,123.08-39.29,17.71-90.04-8.68-113.35-58.94-23.31-50.26-10.35-105.37,28.95-123.08Z"/>
          </g>
          <g class="cls-9">
            <path class="cls-6" d="M1451.49,1947.76c58.12,51.89,83.73,117.37,57.21,146.24-26.52,28.87-95.14,10.21-153.26-41.68-58.12-51.89-83.74-117.37-57.21-146.24,26.52-28.87,95.14-10.21,153.26,41.68Z"/>
          </g>
        </g>
      </g>
      <g>
        <g>
          <path class="cls-6" d="M2672.17,2849.63c58.17,154.39-165.82,163.54-243.02,43.23l-45.71-499.89-7.45-81.49-3.72-40.8c16.75,2.07,33.09,4.65,49.02,7.7,64.27,12.15,122.08,31.75,172.18,56.88,234.85,117.63,301.7,355.79,78.7,514.37Z"/>
          <path class="cls-5" d="M2584.97,2990.39c-60.36,0-130.95-30.04-168.87-89.16-1.35-2.09-2.16-4.48-2.39-6.96l-56.88-622.19c-.43-4.67,1.28-9.29,4.66-12.56,3.37-3.26,8.06-4.83,12.7-4.25,114.33,14.2,216.85,51.57,296.46,108.07,75.66,53.69,127.48,123.47,145.92,196.51,27.26,107.95-18.64,215.14-126.04,295.6,16.62,54.57.98,99.53-43.02,121.62-17.73,8.9-39.39,13.33-62.55,13.33ZM2444.25,2887.56c44.19,65.06,138.82,87.15,189.35,61.78,32.77-16.45,41.09-49.04,24.06-94.23-2.48-6.59-.21-14.03,5.52-18.11,104.62-74.43,148.42-170.16,123.32-269.56-34.74-137.56-193.09-248.07-396.99-278.76l54.74,598.88Z"/>
          <path class="cls-5" d="M2681.83,2861.78c-13.35,7.87-28.02,14.43-43.68,17.16-7.8,1.35-15.8,1.65-23.52.62-7.72-1-15.1-3.33-21.72-6.66-1.31-.66-1.84-2.26-1.18-3.57.47-.94,1.42-1.48,2.41-1.47h.45c7.13.1,13.76-.62,19.93-2.16,6.15-1.76,11.91-3.77,17.29-6.85,5.3-3.16,10.6-6.15,15.49-10.09,5.11-3.51,9.97-7.54,15.21-11.26l2.47-1.75c6.99-4.95,16.67-3.31,21.63,3.69,4.96,6.99,3.31,16.67-3.68,21.63-.35.25-.73.5-1.09.71Z"/>
          <path class="cls-5" d="M2396.59,2671.1c2.53-4.55,4.9-9.23,7.6-13.71,2.7-4.47,5.58-8.85,8.37-13.28,5.71-8.8,11.71-17.45,18.37-25.62,6.49-8.31,13.48-16.25,20.85-23.86,7.24-7.72,14.99-15.01,23.12-21.86,16.03-13.97,33.79-25.98,52.31-36.42,4.57-2.71,9.5-4.82,14.34-7.01,2.43-1.08,5.03-1.84,7.54-2.73,2.53-.86,5.03-1.77,7.65-2.4,2.58-.72,5.23-1.25,7.86-1.82l8.01-1.28c5.48-.42,10.92-.78,16.61-.18l1.6.17c1.98.21,3.42,1.98,3.21,3.96-.14,1.34-1,2.43-2.15,2.93-36.72,15.92-69.84,38.76-97.98,66.3-28.23,27.52-51.62,59.5-71.18,93.54-4.26,7.41-13.72,9.97-21.14,5.71-7.35-4.22-9.93-13.56-5.82-20.94l.83-1.5Z"/>
          <path class="cls-5" d="M2715.41,2824.98c-4.61,0-8.82-3.11-10.01-7.78-27.81-108.72-124.93-183.9-247.43-191.53-5.7-.36-10.03-5.26-9.68-10.96.35-5.7,5.34-10.01,10.96-9.68,131.62,8.2,236.1,89.47,266.18,207.04,1.41,5.53-1.92,11.17-7.46,12.58-.86.22-1.72.32-2.57.32Z"/>
          <g class="cls-12">
            <path class="cls-5" d="M2583.39,2525.38c-42.5,14.22-80.09,42.71-105.22,79.78-37.95-67.68-67.22-139.6-94.72-212.2-6.82-18.05-13.55-36.09-20.27-54.19-1.03-2.84-2.12-5.89-1.45-8.84.47-2.07,1.81-3.88,3.1-5.58,3.52-4.5,7.24-8.79,11.17-12.87,13.08-13.55,28.49-24.72,45.29-33.09,64.27,12.15,122.08,31.75,172.18,56.88-28.96,14.94-50.26,45.14-54.96,77.82-6,41.62,12.98,84.9,44.88,112.3Z"/>
          </g>
          <g class="cls-12">
            <path class="cls-5" d="M2782.55,2510.31c20.51,31.48,19.13,73.47,4.95,108.26-14.17,34.8-39.5,63.75-65.5,90.88-36.05,37.61-79.93,75.44-132.02,74.88-37.05-.4-71.89-21.28-95.31-50-23.42-28.72-36.55-64.56-44.47-100.75-33.33,31.72-51.91,77.62-53.02,123.62s14.63,91.75,41.36,129.21c10.32,14.46,22.43,27.94,37.4,37.5,27.06,17.29,60.56,20.24,92.59,22.51,19.72,1.4,41,2.34,57.64-8.34,24.18-15.51,28.76-48.74,27.45-77.43,95.81-38.06,163.83-137.5,164.55-240.6.2-28.39-4.62-57.74-20.19-81.48"/>
          </g>
        </g>
        <g>
          <path class="cls-6" d="M1328.56,2831.86c-58.17,154.39,165.82,163.54,243.02,43.23l45.71-499.89,7.45-81.49,3.72-40.8c-16.75,2.07-33.09,4.65-49.02,7.7-64.27,12.15-122.08,31.75-172.18,56.88-234.85,117.63-301.7,355.79-78.7,514.37Z"/>
          <path class="cls-5" d="M1415.76,2972.63c-23.16,0-44.81-4.42-62.55-13.33-44-22.09-59.64-67.05-43.02-121.62-107.41-80.46-153.31-187.65-126.05-295.6,18.44-73.03,70.26-142.82,145.92-196.51,79.62-56.5,182.13-93.87,296.46-108.07,4.66-.57,9.33.99,12.7,4.25,3.37,3.26,5.09,7.88,4.66,12.56l-56.88,622.19c-.23,2.48-1.04,4.87-2.39,6.96-37.92,59.12-108.51,89.16-168.87,89.16ZM1611.23,2270.92c-203.9,30.69-362.26,141.2-396.99,278.76-25.1,99.4,18.69,195.13,123.32,269.56,5.74,4.08,8.01,11.52,5.52,18.11-17.03,45.19-8.71,77.78,24.06,94.23,50.52,25.37,145.15,3.29,189.35-61.78l54.74-598.88Z"/>
          <path class="cls-5" d="M1338.22,2819.74c8.72,9.65,18.49,18.24,29.82,24.11,11.26,5.9,24.46,8.56,38.1,6.25,1.45-.25,2.83.73,3.08,2.19.18,1.05-.29,2.07-1.11,2.64l-.29.2c-6.29,4.35-13.78,7.37-21.74,8.79-7.98,1.67-16.3,1.21-24.37,0-8.17-1.1-15.77-4.08-23.11-7.2-7.13-3.55-13.88-7.64-19.69-12.72l-2.44-2.13c-6.47-5.65-7.14-15.47-1.49-21.94,5.65-6.47,15.47-7.14,21.94-1.49.44.39.92.86,1.31,1.29Z"/>
          <path class="cls-5" d="M1578.02,2670.06c-6.25-7.64-12.09-15.48-18.26-23.03-6.24-7.49-12.55-14.87-18.88-22.17-3.09-3.73-6.53-7.12-9.73-10.73-3.15-3.65-6.56-7.05-9.89-10.52-3.28-3.53-6.81-6.77-10.24-10.12-3.33-3.46-6.9-6.65-10.41-9.91-14.25-12.77-29.03-24.99-45.01-35.59-8.01-5.25-15.8-10.91-23.6-16.99-1.9-1.63-3.93-3.01-5.88-4.58l-5.79-5c-3.84-3.48-7.81-6.8-11.48-11.2l-1.16-1.39c-1.26-1.51-1.06-3.75.45-5.02.97-.81,2.26-1.01,3.38-.66,38.97,12.57,75.75,32.87,108.08,58.9,32.42,26,60.44,57.37,84.55,91.28,4.94,6.94,3.31,16.57-3.64,21.51-6.64,4.72-15.74,3.44-20.84-2.76l-1.65-2.02Z"/>
          <path class="cls-5" d="M1285.32,2807.21c-.85,0-1.71-.11-2.57-.32-5.53-1.42-8.87-7.05-7.46-12.58,30.08-117.58,134.56-198.85,266.18-207.04,5.68-.32,10.61,3.98,10.96,9.68.35,5.7-3.98,10.61-9.68,10.96-122.5,7.63-219.62,82.81-247.43,191.53-1.2,4.67-5.4,7.78-10.01,7.78Z"/>
          <g class="cls-12">
            <path class="cls-5" d="M1417.34,2507.62c42.5,14.22,80.09,42.71,105.22,79.78,37.95-67.68,67.22-139.6,94.72-212.2,6.82-18.05,13.55-36.09,20.27-54.19,1.03-2.84,2.12-5.89,1.45-8.84-.47-2.07-1.81-3.88-3.1-5.58-3.52-4.5-7.24-8.79-11.17-12.87-13.08-13.55-28.49-24.72-45.29-33.09-64.27,12.15-122.08,31.75-172.18,56.88,28.96,14.94,50.26,45.14,54.96,77.82,6,41.62-12.98,84.9-44.88,112.3Z"/>
          </g>
          <g class="cls-12">
            <path class="cls-5" d="M1218.18,2492.55c-20.51,31.48-19.13,73.47-4.95,108.26,14.17,34.8,39.5,63.76,65.5,90.88,36.05,37.61,79.93,75.44,132.02,74.88,37.05-.4,71.89-21.28,95.31-50s36.55-64.56,44.47-100.75c33.33,31.72,51.91,77.62,53.02,123.62,1.11,46-14.63,91.75-41.36,129.21-10.32,14.46-22.43,27.94-37.4,37.5-27.06,17.29-60.56,20.24-92.59,22.51-19.72,1.4-41,2.34-57.64-8.34-24.18-15.51-28.76-48.74-27.45-77.43-95.81-38.06-163.83-137.5-164.55-240.6-.2-28.39,4.62-57.74,20.19-81.48"/>
          </g>
        </g>
      </g>
      <g>
        <path class="cls-6" d="M2376,3553.5c-3.98-.26-7.91-.52-11.84-.52h-210.8c-10.91,0-21.77-1.55-31.9-5.48-45.35-17.63-63.24-67.68-56.46-127.25,7.19-70.58,5.17-137.02-21.51-189.6h-76.21c-26.73,52.58-28.7,119.03-21.56,189.6,6.77,59.56-11.12,109.62-56.46,127.25-10.08,3.93-20.99,5.48-31.85,5.48h-210.8c-3.98,0-7.91.26-11.84.52-63.55,4.86-95.09-29.37-93.28-67.94,1.4-28.75,21.3-59.98,60.39-79.11-138.78-352.53-141.31-734.22-10.65-1086.13h828.27c130.71,351.91,128.13,733.6-10.65,1086.13,91.47,44.88,78.08,155.53-32.83,147.05Z"/>
        <g>
          <path class="cls-13" d="M2185.74,2539.81c15.34-30.98,38.15-43.03,67.19-39.34,22.16,7.13,38.82,20.68,51.29,39.12,11.84,17.5.42,41.81-20.08,43.04-26.75,1.6-52.73,1.04-77.77-2.16-18.49-2.36-29.18-23.39-20.63-40.65Z"/>
          <ellipse class="cls-13" cx="2237.41" cy="2464.04" rx="21.73" ry="30.4"/>
          <ellipse class="cls-13" cx="2309.01" cy="2487.98" rx="30.42" ry="21.66" transform="translate(-936.56 3481.89) rotate(-64.16)"/>
          <ellipse class="cls-13" cx="2174.02" cy="2491.62" rx="21.6" ry="30.41" transform="translate(-1043.93 1730.47) rotate(-35.59)"/>
        </g>
        <path class="cls-5" d="M1622.72,3569.5c-56.98,0-85.94-30.26-94.09-60.16-10.91-40,11-83.59,53.87-109.9-66.37-172.99-100.85-353.29-102.5-536.14-1.68-186.57,30.84-371.07,96.67-548.35,2.26-6.08,8.06-10.11,14.54-10.11h828.3c6.48,0,12.29,4.03,14.54,10.11,65.83,177.29,98.36,361.78,96.67,548.35-1.65,182.85-36.13,363.15-102.5,536.14,42.86,26.31,64.78,69.9,53.87,109.9-8.76,32.13-41.52,64.7-107.3,59.65-3.47-.26-7.16-.51-10.66-.51h-210.8c-13.7,0-26.32-2.2-37.5-6.54-49.52-19.22-74.28-72.84-66.24-143.44,7.62-75.25,2.57-130.44-15.94-172.32h-56.6c-18.5,41.88-23.56,97.07-15.92,172.51,8.02,70.41-16.74,124.03-66.26,143.25-11.18,4.34-23.8,6.54-37.5,6.54h-210.8c-3.49,0-7.19.24-10.66.51-4.56.35-8.96.52-13.2.52ZM1602.04,2335.86c-125.34,345.07-120.37,722.83,14.26,1064.93,2.96,7.52-.35,16.05-7.6,19.61-43.74,21.46-56.66,56.92-50.15,80.78,7.13,26.14,35.17,39.92,75,36.88,4.08-.31,8.49-.6,13.02-.6h210.8c9.85,0,18.69-1.49,26.28-4.44,51.24-19.89,49.69-84.26,46.64-111.01-8.81-87.02-1.46-149.99,23.13-198.37,2.64-5.21,7.99-8.49,13.83-8.49h76.21c5.84,0,11.18,3.28,13.83,8.49,24.59,48.38,31.94,111.35,23.15,198.17-3.07,26.94-4.62,91.31,46.62,111.2,7.59,2.94,16.43,4.44,26.28,4.44h210.8c4.53,0,8.94.29,13.02.6,39.83,3.03,67.88-10.74,75.01-36.88,6.51-23.86-6.41-59.32-50.15-80.78-7.25-3.56-10.56-12.09-7.6-19.61,134.63-342.09,139.6-719.86,14.26-1064.93h-806.64Z"/>
        <path class="cls-5" d="M1766.53,3149.13l14.84,7.42,14.57,7.71c9.9,4.74,20.04,8.95,29.94,13.48,10,4.33,20.31,7.88,30.39,11.84,10.19,3.68,20.63,6.57,30.88,9.9,41.49,11.84,84.38,17.47,127.25,16.41,42.92-.79,85.58-8.55,127.41-20.2l15.63-4.67,7.83-2.34c2.58-.87,5.13-1.85,7.69-2.78,10.21-3.85,20.6-7.28,30.72-11.47,10.13-4.16,20.45-8.02,30.52-12.46,9.94-4.7,20.04-9.18,30.22-13.59l.41-.18c2.76-1.19,5.97.07,7.16,2.83,1.09,2.52.12,5.42-2.16,6.81-9.55,5.84-19.17,11.64-28.87,17.29-9.77,5.52-19.87,10.48-29.83,15.76-20.29,9.77-41.13,18.5-62.53,25.92-21.34,7.57-43.4,13.21-65.75,17.39-2.79.53-5.56,1.22-8.37,1.63l-8.47,1.12-16.94,2.23c-5.63.92-11.34,1.06-17.03,1.41l-17.09.96c-45.65,1.06-91.54-6.07-134.6-20.78-10.58-4.18-21.33-7.91-31.7-12.47-10.21-4.94-20.6-9.47-30.59-14.75-9.75-5.74-19.59-11.29-29.13-17.25-9.34-6.31-18.59-12.72-27.72-19.23-2.15-1.53-2.65-4.51-1.12-6.66,1.38-1.94,3.95-2.54,6.02-1.5l.4.2Z"/>
        <path class="cls-5" d="M2401.86,3420.31c-21.67-12.8-45.47-21.48-70.61-22.76-25.1-1.49-50.93,4.31-75.43,14.12h-.03c-2.96,1.19-6.31-.24-7.5-3.2-1.1-2.74.06-5.82,2.58-7.2,24.11-13.2,51.2-23.15,80.2-24.99,14.43-.95,29.13.1,43.4,3.02,14.29,2.91,28.14,7.57,41.35,13.31l.13.06c7.87,3.42,11.48,12.58,8.06,20.45-3.42,7.87-12.58,11.48-20.45,8.06-.57-.25-1.19-.57-1.71-.87Z"/>
        <path class="cls-5" d="M1594.36,3351.41c-6.47,0-12.89-.32-19.26-1.01-5.68-.62-9.78-5.73-9.16-11.4.62-5.68,5.72-9.79,11.4-9.16,34,3.73,71.48-4.93,111.17-14.07,75.15-17.33,160.34-36.97,257.57,15.24,5.03,2.7,6.92,8.97,4.22,14-2.7,5.03-8.97,6.92-14,4.22-90.38-48.54-171.54-29.82-243.14-13.32-34.39,7.93-67.21,15.5-98.8,15.5Z"/>
        <path class="cls-5" d="M1593.77,3392.52c13.65-5.75,27.92-10.38,42.61-13.27,14.68-2.89,29.75-3.93,44.57-2.98,29.77,1.83,57.71,11.71,82.74,24.95,2.81,1.49,3.89,4.98,2.4,7.79-1.38,2.61-4.49,3.73-7.18,2.68h-.03c-25.39-9.86-52.1-15.64-78.1-14.16-26.03,1.28-50.78,9.95-73.4,22.85-7.46,4.26-16.95,1.66-21.2-5.79-4.26-7.46-1.66-16.95,5.79-21.2.52-.3,1.05-.56,1.59-.79l.21-.09Z"/>
        <path class="cls-5" d="M2415.1,3351.41c-31.59,0-64.4-7.57-98.8-15.5-71.6-16.51-152.76-35.22-243.13,13.32-5.03,2.7-11.3.81-14-4.22-2.7-5.03-.81-11.3,4.22-14,97.22-52.22,182.41-32.58,257.57-15.24,39.68,9.15,77.16,17.8,111.17,14.07,5.64-.64,10.78,3.48,11.4,9.16.62,5.68-3.48,10.78-9.16,11.4-6.37.7-12.79,1.01-19.26,1.01Z"/>
        <g class="cls-12">
          <path class="cls-5" d="M1703.34,2764.72l5.4,229.46c1.2,51.09,43.82,91.41,94.89,89.78l421.83-13.43c48.31-1.54,87.19-40.2,89-88.49l8.63-229.84c2-53.27-41.56-97.09-94.84-95.4l-435.86,13.81c-50.49,1.6-90.24,43.61-89.05,94.11Z"/>
        </g>
        <g class="cls-12">
          <path class="cls-5" d="M2317.1,2911.79h178.54c13.29,0,24.68-10.16,26.84-24.03,4.58-29.36,4.09-59.79-.55-91.1-2.08-14.02-13.47-24.41-26.89-24.41h-173.34s-4.61,139.54-4.61,139.54Z"/>
        </g>
        <g class="cls-12">
          <path class="cls-5" d="M1703.41,2911.79h-193.14c-14.38,0-26.7-10.16-29.04-24.03-4.95-29.36-4.43-59.79.59-91.1,2.25-14.02,14.57-24.41,29.09-24.41h187.52s4.98,139.54,4.98,139.54Z"/>
        </g>
        <g class="cls-12">
          <path class="cls-5" d="M1943.51,3222.75c-25.24,53.87-27.1,121.93-20.36,194.23,6.4,61.02-10.5,112.29-53.31,130.35-9.52,4.03-19.82,5.61-30.07,5.61h-199.04c-3.76,0-7.47.26-11.18.53-60,4.98-89.78-30.09-88.07-69.6,7.91,11.65,18.21,21.4,30.17,27.91,31.73,17.21,69.42,12.08,104.52,6.46,16.16-2.54,32.32-5.14,48.48-7.68,26.22-4.18,55.22-10.06,71.18-33,10.59-15.2,10.64-36.92,10.79-80.3,0-11.07-.29-25.48-3.08-58-4.59-53.55-6.88-80.3-12.45-102.65-5.47-21.77-16.21-54.08-39.4-90.42,14.06,9.16,29.34,18.22,45.89,26.75,54.58,28.18,106.67,42.53,150.71,49.79h-4.78Z"/>
        </g>
        <g class="cls-12">
          <path class="cls-5" d="M2066.79,3228.35c25.02,52.96,26.86,119.87,20.18,190.95-6.34,59.99,10.41,110.39,52.85,128.15,9.44,3.96,19.65,5.52,29.81,5.52h197.32c3.73,0,7.41.26,11.08.52,59.48,4.89,89-29.58,87.31-68.42-7.84,11.46-18.05,21.04-29.91,27.44-31.46,16.92-68.82,11.87-103.62,6.35-16.02-2.5-32.04-5.05-48.06-7.55-25.99-4.11-54.74-9.89-70.56-32.44-10.5-14.94-10.55-36.29-10.7-78.94,0-10.88.29-25.05,3.05-57.02,4.55-52.65,6.82-78.94,12.34-100.92,5.42-21.4,16.07-53.17,39.06-88.89-13.94,9.01-29.09,17.91-45.49,26.3-54.11,27.7-105.75,41.81-149.41,48.95h4.74Z"/>
        </g>
        <g class="cls-12">
          <path class="cls-5" d="M1751.69,3146.21c164.79,36.97,339.89,35.42,524.07,0l-28.24,22.52c-160.36,74.93-312.01,88.21-449.94,4.23l-45.89-26.75Z"/>
        </g>
        <g class="cls-12">
          <path class="cls-5" d="M1529.73,2546.81c36.13-49.83,92.4-82.25,151.32-100.03,58.93-17.78,120.97-22.16,182.44-25.2,103.65-5.13,207.47-6.75,311.23-4.86,19.29.35,51.15.85,92.42,7.98,21.26,3.67,55.68,9.8,96.09,26.07,28.77,11.58,71.3,32.61,115.75,71.15-27.66-86.18-45.63-147.96-49.39-160.16-1.38-4.47-2.9-9.17-6.38-12.3-4.06-3.66-9.89-4.39-15.33-4.9-64.93-6.09-130.6-4.31-195.11,5.29-28.04,4.17-55.98,9.83-84.31,10.71-26.52.82-52.98-2.55-79.51-3.05-79.76-1.53-158.52,22.8-238.23,19.53-69.89-2.87-138.4-26.91-208.23-22.74-7.1.42-14.5,1.24-20.48,5.1-9.52,6.14-13.01,18.15-15.79,29.14-6.18,24.46-18.21,76.08-37.1,146.75"/>
        </g>
      </g>
      <path class="cls-6" d="M1703.34,2723.32l5.4,229.46c1.2,51.09,43.82,91.41,94.89,89.78l421.83-13.43c48.31-1.54,87.19-40.2,89-88.49l8.63-229.84c2-53.27-41.56-97.09-94.84-95.4l-435.86,13.81c-50.49,1.6-90.24,43.61-89.05,94.11Z"/>
      <g class="cls-12">
        <circle class="cls-5" cx="2165" cy="2776.23" r="59.05" transform="translate(-913.68 1068.47) rotate(-23.03)"/>
      </g>
      <circle class="cls-14" cx="2164.98" cy="2748.91" r="52.79" transform="translate(-1195.07 1772.34) rotate(-35.57)"/>
      <g class="cls-12">
        <path class="cls-2" d="M2185.41,2695.81c2.07,3.52,3.8,7.29,5.05,11.36,8.51,27.89-7.19,57.39-35.08,65.91-12.88,3.93-26.08,2.64-37.42-2.57,12.09,20.56,37.04,30.99,60.86,23.72,27.89-8.51,43.59-38.02,35.08-65.91-4.58-15.01-15.27-26.44-28.49-32.51Z"/>
      </g>
      <g class="cls-10">
        <path class="cls-6" d="M2125.99,2783.46c-8.51-27.89,7.19-57.39,35.08-65.91,19.86-6.06,40.49.2,53.83,14.35-9.15-26.86-37.99-41.83-65.33-33.48-27.89,8.51-43.59,38.02-35.08,65.91,2.45,8.03,6.68,15.01,12.08,20.73-.18-.54-.41-1.05-.58-1.6Z"/>
      </g>
      <g class="cls-12">
        <path class="cls-5" d="M1692.79,2744.29l25.73,226.23c5.45,47.52,46.23,82.45,93.42,79.98l411.85-21.76c49.88-2.65,88.32-46,85.64-96.55l-.03-.12c-8.98,3.69-18.73,5.96-28.96,6.46l-411.85,21.76c-47.19,2.47-87.97-32.45-93.42-79.98l-25.74-226.18c-.19-1.85-.34-3.65-.42-5.48-36.71,14.93-61.07,53.51-56.22,95.62Z"/>
      </g>
      <path class="cls-5" d="M1800.62,3058.12c-27.58,0-53.66-10.37-73.79-29.41-20.98-19.85-32.91-46.68-33.59-75.56l-5.4-229.47h0c-1.38-58.78,45.3-108.12,104.07-109.98l435.86-13.81c29.64-.95,58.71,10.6,79.64,31.66,20.93,21.06,32.3,50.15,31.19,79.82l-8.63,229.84c-2.11,56.2-47.79,101.63-104.01,103.42l-421.83,13.43c-1.17.04-2.35.06-3.51.06ZM2231.26,2630.86c-.84,0-1.67.01-2.51.04l-435.86,13.81c-41.81,1.33-75.02,36.42-74.04,78.24h0s5.4,229.47,5.4,229.47c.48,20.54,8.97,39.63,23.9,53.75,14.93,14.12,34.51,21.58,55,20.89l421.83-13.44c39.99-1.27,72.49-33.59,73.99-73.57l8.63-229.84c.8-21.42-7.08-41.59-22.19-56.79-14.52-14.6-33.66-22.56-54.15-22.56Z"/>
      <path class="cls-5" d="M2096.44,3046.34c-7.12,0-12.9-5.76-12.93-12.88l-.51-153.7c-.05-16.73-10.84-31.26-26.84-36.15l-98.05-29.97c-27.67-8.46-46.21-34.56-45.09-63.46l4.89-126.05c.28-7.14,6.33-12.61,13.42-12.42,7.13.28,12.69,6.28,12.42,13.42l-4.89,126.05c-.67,17.19,10.36,32.71,26.81,37.74l98.05,29.97c26.91,8.22,45.05,32.65,45.14,60.78l.51,153.7c.02,7.14-5.74,12.95-12.88,12.97h-.04Z"/>
      <path class="cls-5" d="M2164.9,2814.66c-10.62,0-21.15-2.6-30.8-7.74-15.5-8.25-26.85-22.04-31.98-38.83-5.12-16.79-3.41-34.57,4.84-50.07,8.25-15.5,22.04-26.85,38.83-31.98,16.79-5.12,34.57-3.41,50.07,4.84,15.5,8.25,26.85,22.04,31.98,38.83,10.58,34.66-9.01,71.46-43.67,82.04-6.34,1.94-12.82,2.9-19.27,2.9ZM2165.03,2709.02c-3.91,0-7.84.58-11.69,1.76-21.03,6.42-32.91,28.75-26.49,49.77,3.11,10.19,10,18.55,19.4,23.55,9.4,5,20.19,6.05,30.37,2.94,21.03-6.42,32.91-28.75,26.49-49.77h0c-3.11-10.19-10-18.55-19.4-23.55-5.85-3.11-12.24-4.69-18.68-4.69Z"/>
      <g>
        <path class="cls-6" d="M2317.1,2870.38h178.54c13.29,0,24.68-10.16,26.84-24.03,4.58-29.36,4.09-59.79-.55-91.1-2.08-14.02-13.47-24.41-26.89-24.41h-173.34s-4.61,139.54-4.61,139.54Z"/>
        <g class="cls-12">
          <path class="cls-5" d="M2354.43,2771.62l1.35-40.77h-34.07l-4.61,139.54h178.54c13.44,0,24.75-10.4,26.9-24.43.86-5.6,1.49-11.25,1.99-16.93h-117.7c-29.68,0-53.44-26.03-52.4-57.41Z"/>
        </g>
        <path class="cls-5" d="M2495.64,2885.9h-178.54c-4.2,0-8.23-1.71-11.15-4.73-2.92-3.02-4.49-7.1-4.36-11.3l4.61-139.54c.28-8.36,7.14-15,15.5-15h173.33c21.24,0,39,15.83,42.23,37.65,5,33.74,5.18,65.96.53,95.77-3.35,21.53-21.09,37.15-42.17,37.15ZM2333.13,2854.87h162.5c5.69,0,10.53-4.58,11.51-10.9,4.17-26.72,3.98-55.8-.56-86.44-.96-6.47-5.82-11.17-11.54-11.17h-158.33l-3.58,108.52Z"/>
      </g>
      <g>
        <path class="cls-6" d="M1703.41,2870.38h-193.14c-14.38,0-26.7-10.16-29.04-24.03-4.95-29.36-4.43-59.79.59-91.1,2.25-14.02,14.57-24.41,29.09-24.41h187.52s4.98,139.54,4.98,139.54Z"/>
        <g class="cls-12">
          <path class="cls-5" d="M1663.03,2771.62l-1.46-40.77h36.86l4.98,139.54h-193.14c-14.54,0-26.77-10.4-29.11-24.43-.93-5.6-1.61-11.25-2.15-16.93h127.33c32.11,0,57.81-26.03,56.69-57.41Z"/>
        </g>
        <path class="cls-5" d="M1703.41,2885.9h-193.14c-22.08,0-40.72-15.54-44.33-36.96-5.05-29.94-4.86-62.29.57-96.14,3.48-21.71,22.15-37.46,44.4-37.46h187.52c8.35,0,15.2,6.61,15.5,14.96l4.99,139.54c.15,4.21-1.42,8.3-4.34,11.33-2.92,3.03-6.95,4.74-11.16,4.74ZM1510.91,2746.36c-6.92,0-12.71,4.77-13.77,11.35-4.89,30.51-5.1,59.47-.61,86.07,1.07,6.33,6.98,11.1,13.74,11.1h177.07l-3.88-108.52h-172.55Z"/>
      </g>
      <path class="cls-6" d="M1438.13,2299.97c-25.74-44.31-5.17-106.86,22.29-129.72,343.63,166.36,693.84,160.51,1049.96,0,27.46,22.86,48.03,85.41,22.29,129.72-370.94,158.12-829.27,158.56-1094.54,0Z"/>
      <path class="cls-6" d="M2532.67,2299.95c-370.94,158.12-829.25,158.58-1094.55,0-9.05-15.61-12.36-33.56-11.63-51.14,1.29-32.32,16.13-63.75,33.92-78.54,343.63,166.34,693.89,160.49,1049.98,0,14.37,11.94,26.84,34.75,31.8,60.13,4.5,23.11,2.79,48.4-9.51,69.54Z"/>
      <g class="cls-12">
        <path class="cls-5" d="M2532.67,2299.95c-370.94,158.12-829.25,158.58-1094.55,0-9.05-15.61-12.36-33.56-11.63-51.14,5.84-11.17,13.18-20.53,21.04-26.84,355.42,166.34,717.67,160.49,1086.02,0,2.95,2.38,5.84,5.22,8.63,8.43,4.5,23.11,2.79,48.4-9.51,69.54Z"/>
      </g>
      <path class="cls-5" d="M1945.38,2434.23c-201.75,0-384.7-42.95-515.2-120.95l-3.44-2.06-2.01-3.47c-30.58-52.66-5.16-123.67,25.78-149.43l7.68-6.4,9,4.36c331.57,160.53,680.41,160.46,1036.83-.18l8.84-3.99,7.46,6.21c30.94,25.75,56.36,96.77,25.78,149.43l-2.59,4.46-4.74,2.02c-181.4,77.32-391.99,119.94-592.97,120h-.41ZM1449.72,2288.8c259.47,152.59,708.43,152.19,1071.86-.98,15.9-32.9,3.67-77.29-14.59-99.07-177.58,78.64-354.56,118.86-526.2,119.58-174.7.57-348.6-39.42-517.16-119.35-18.33,22.08-30.48,66.94-13.91,99.82Z"/>
      <g>
        <path class="cls-1" d="M2746.32,1867.28c-22.84,269.43-284.25,353.67-482.98,397.2-81.45,17.84-164.52,27.16-247.89,28.43h0c-83.49,1.27-166.93-5.54-249.01-20.92-111.96-20.98-243.89-54.14-343.75-126.42-34.63-25.05-65.4-54.8-90.17-90.38-17.62-25.34-32.2-53.67-42.96-85.36-7.25-21.48-12.76-44.49-16.26-69.21-1.34-9.39-2.38-19-3.12-28.88-2.18-28.93-1.72-60.03,1.67-93.39,2.94-28.91,23.53-127.97,52.17-225.19,9.74-33.11,20.42-66,31.66-95.81-45.67-189.29-66.75-428.25-3.72-511.65,40.99-54.24,155-2.17,328.79,142.18,121.7-55.82,289.6-61.54,315.37-61.84,25.77-.49,193.76.1,317.08,52.19,169.31-149.59,281.67-205.11,324.3-152.15,65.55,81.44,51.77,320.93,11.9,511.53,47.78,115.99,88.45,279.68,93.59,318.3,5.35,40.29,6.27,77.32,3.34,111.39Z"/>
        <g class="cls-10">
          <path class="cls-6" d="M2682.92,1147.57c-3.28-75.89-16.82-139.15-44.7-173.78-42.63-52.96-154.99,2.56-324.3,152.15-123.32-52.08-291.31-52.68-317.08-52.19-25.77.3-193.66,6.02-315.37,61.84-173.79-144.36-287.8-196.42-328.79-142.18-26.81,35.46-38.4,99.11-39.37,175.06-3.86-96.66,6.37-180.1,38.64-222.79,40.99-54.24,155-2.17,328.79,142.18,121.7-55.82,289.6-61.54,315.37-61.84,25.77-.49,193.76.1,317.08,52.19,169.31-149.59,281.67-205.11,324.3-152.15,33.56,41.69,46.33,124.78,45.42,221.51Z"/>
        </g>
        <path class="cls-6" d="M2746.32,1867.28c-22.84,269.43-284.25,353.67-482.98,397.2-81.45,17.84-164.52,27.16-247.89,28.43h0c-83.49,1.27-166.93-5.54-249.01-20.92-111.96-20.98-243.89-54.14-343.75-126.42-34.63-25.05-65.4-54.8-90.17-90.38-17.62-25.34-32.2-53.67-42.96-85.36-7.25-21.48-12.76-44.49-16.26-69.21,293.53,244.4,500.93,129.6,591.53-61.9,34.99-73.93,105.97-82.06,136.82-82.54,30.86-.47,102.05,5.5,139.25,78.32,97.77,191.33,313.29,300.16,605.42,32.77Z"/>
        <g class="cls-12">
          <path class="cls-5" d="M2709.57,1979.15c-79.02,174.59-286.78,238.79-451.62,274.94-81.6,17.9-164.84,27.26-248.37,28.54h0c-83.48,1.27-166.9-5.54-248.96-20.91-111.97-20.98-243.91-54.14-343.77-126.42-34.63-25.05-65.4-54.8-90.17-90.38-9.59-13.8-18.28-28.46-25.96-44.1,15.53,14.97,32.17,28.76,49.7,41.45,109.15,79.01,486.63,145.58,658.7,142.96,172.07-2.63,591.66-94.34,700.46-206.07Z"/>
        </g>
        <path class="cls-5" d="M1569.68,1423.95c-8.91-13.42,46.87-135.52,156.05-101.38,39.33,12.3,43.59,50.39,13.38,59-28.78,8.2-41.89,2.14-86.44,18.59-25.21,9.31-74.08,37.21-82.98,23.79Z"/>
        <path class="cls-5" d="M2434.47,1410.75c8.49-13.69-50.98-134.02-159.07-96.57-38.93,13.49-42.03,51.7-11.57,59.38,29.02,7.32,41.94.86,86.97,15.94,25.48,8.53,75.18,34.94,83.67,21.25Z"/>
        <path class="cls-16" d="M1506.15,1233.88c-51.89,57.06-83.93,136.28-88.76,127.15-.47-.87-.94-1.92-1.42-3.15-10.39-25.63-28.45-127.58-29.62-218.62-.15-14.68.05-27.66.65-39.1,1.59-30.89,5.7-50.73,10.91-63.46,6.46-15.56,21.4-20.51,34.77-15.5,35.52,13.38,136.79,77.99,170.07,119.85,5.93,7.44-44.67,35.77-96.59,92.83Z"/>
        <g class="cls-12">
          <path class="cls-5" d="M1506.15,1233.88c-51.89,57.06-83.93,136.28-88.76,127.15-.47-.87-.94-1.92-1.42-3.15,11.08-47.94,42.5-114.4,66.62-162.48,32.97-65.65-14.39-116.81-55.06-131.75-13.95-5.14-30.11,17.9-40.53,36.51,1.59-30.89,5.7-50.73,10.91-63.46,6.46-15.56,21.4-20.51,34.77-15.5,35.52,13.38,136.79,77.99,170.07,119.85,5.93,7.44-44.67,35.77-96.59,92.83Z"/>
        </g>
        <path class="cls-5" d="M1418.53,1374.68c-.13,0-.27,0-.4,0-5.15-.1-9.7-2.94-12.17-7.6-12-22.67-31.34-133.67-32.51-227.64h0c-.63-50.37,3.46-85.58,12.53-107.63,8.71-21.04,30.27-30.56,51.25-22.68,36.23,13.61,140.41,79.54,175.67,123.87,10.77,13.54-2.44,24.4-26.43,44.13-18.74,15.41-44.4,36.52-70.72,65.46-29.02,31.91-51.86,71.36-66.98,97.46-15.69,27.09-20.05,34.63-30.22,34.64ZM1428.81,1354.98h.05-.05ZM1422.49,1032.27c-4.83,0-9.76,2.47-12.62,9.39-7.6,18.48-11.16,51.28-10.58,97.45h0c.97,77.44,13.73,157.11,23,195.02,1.36-2.34,2.75-4.73,4.09-7.05,15.67-27.06,39.34-67.95,70.22-101.9,27.58-30.33,55.17-53.02,73.43-68.03,6.15-5.06,12.85-10.57,17.12-14.5-36.79-40.44-127.59-97.52-159.03-109.33-1.77-.66-3.69-1.06-5.63-1.06Z"/>
        <path class="cls-16" d="M2494.01,1218.81c53.6,55.45,88.05,133.65,92.6,124.39.44-.89.88-1.95,1.32-3.19,9.6-25.93,24.55-128.38,22.94-219.43-.29-14.68-.89-27.64-1.84-39.06-2.53-30.83-7.25-50.53-12.84-63.1-6.93-15.36-22.02-19.85-35.22-14.43-35.1,14.46-134.35,82.13-166.33,124.98-5.7,7.62,45.74,34.39,99.38,89.84Z"/>
        <g class="cls-12">
          <path class="cls-5" d="M2494.01,1218.81c53.6,55.45,88.05,133.65,92.6,124.39.44-.89.88-1.95,1.32-3.19-12.53-47.58-45.97-113.05-71.55-160.37-34.96-64.61,10.82-117.2,51.01-133.37,13.78-5.56,30.64,16.97,41.63,35.25-2.53-30.83-7.25-50.53-12.84-63.1-6.93-15.36-22.02-19.85-35.22-14.43-35.1,14.46-134.35,82.13-166.33,124.98-5.7,7.62,45.74,34.39,99.38,89.84Z"/>
        </g>
        <path class="cls-5" d="M2585.29,1356.87c-9.76,0-14.49-7.63-30.67-33.7-15.91-25.63-39.94-64.37-69.92-95.38-27.19-28.12-53.49-48.44-72.69-63.27-24.58-18.98-38.11-29.44-27.76-43.3,33.89-45.38,136.01-114.46,171.8-129.17,20.74-8.53,42.56.34,51.9,21.07,9.74,21.8,14.91,56.87,15.82,107.24h0c1.69,93.96-14.25,205.5-25.55,228.52-2.32,4.74-6.78,7.71-11.93,7.97-.34.01-.67.02-1,.02ZM2410.26,1130.09c4.38,3.8,11.25,9.1,17.55,13.97,18.71,14.45,46.98,36.29,75.47,65.76,31.91,33,56.82,73.15,73.3,99.71,1.41,2.28,2.87,4.62,4.3,6.91,8.11-38.18,18.43-118.2,17.03-195.63h0c-.83-46.17-5.39-78.85-13.56-97.12-4.29-9.53-12.36-10.25-18.48-7.74-31.06,12.77-120.09,72.59-155.62,114.13Z"/>
        <path class="cls-5" d="M1995.87,2311.17c-78.77,0-156.95-7.18-232.71-21.37-108.12-20.27-245.73-53.31-351.09-129.55-38.08-27.55-69.84-59.42-94.39-94.71-19.13-27.49-34.35-57.73-45.24-89.88-10.78-31.79-17.61-66.31-20.31-102.58-2.27-30.46-1.69-62.95,1.74-96.57,3.2-31.38,24.83-133.49,52.8-228.47,10-33.96,20.13-64.82,30.13-91.85-47.06-197.98-64.92-434.54.73-521.4,11.98-15.86,28.69-25.12,49.64-27.55,60.42-7,157.48,45.21,296.49,159.57,130.91-56.04,304.7-58.78,312.23-58.87,7.43-.14,181.21-2.69,313.77,49.32,135.45-118.54,230.84-173.69,291.49-168.54,21.02,1.78,38,10.54,50.46,26.02,68.27,84.82,57.64,321.81,16.64,521.14,46.78,115.43,87.21,276.47,92.67,317.64,21.8,164.25-26.33,294.04-143.06,385.77-102.66,80.68-239.21,118.28-346.7,142.02-83.33,18.41-169.27,28.41-255.46,29.72-6.6.1-13.22.15-19.82.15ZM2015.14,2274.83l.28,18.1-.28-18.1c83.75-1.28,167.25-10.99,248.2-28.87,238.12-52.6,505.78-155.57,461.69-487.69-5.21-39.22-46.58-202.62-92.37-313.78l-2.12-5.15,1.14-5.45c38.88-185.86,52.87-420.51-8.28-496.47-6.19-7.69-14.24-11.71-25.33-12.65-34.89-2.99-110.61,23.61-272.9,167.02l-8.53,7.54-10.49-4.43c-126.7-53.51-302.3-50.91-309.72-50.78-7.53.09-183.13,2.86-308.14,60.21l-10.35,4.75-8.76-7.28c-166.59-138.39-243.05-162.62-277.87-158.61-11.05,1.28-18.97,5.54-24.93,13.42-58.8,77.79-37.65,311.89,6.88,496.49l1.31,5.41-1.96,5.21c-10.33,27.41-20.84,59.22-31.23,94.54-29.43,99.94-48.89,196.14-51.52,221.91-3.21,31.51-3.76,61.87-1.65,90.22,2.48,33.23,8.7,64.74,18.5,93.65,9.81,28.93,23.49,56.13,40.68,80.83,22.22,31.94,51.12,60.9,85.89,86.06,99.54,72.03,232.14,103.73,336.54,123.3,79.73,14.94,162.23,21.9,245.31,20.61Z"/>
        <path class="cls-5" d="M2590.35,1838.3c10.8-8.83,21.77-15.49,33.37-21.93,5.83-2.99,11.6-6.22,17.64-8.77,5.98-2.71,11.94-5.49,18.12-7.68,12.19-4.89,24.73-8.81,37.39-12.19,6.35-1.6,12.69-3.3,19.11-4.63l19.32-3.57c6.43-1.24,12.97-1.77,19.46-2.6l9.75-1.13c3.25-.34,6.53-.41,9.79-.62l19.58-.99,19.58.29c6.52.08,13.03.25,19.52.99,6.49.58,12.97,1.19,19.43,1.89l4.84.51,4.81.82,9.6,1.65c6.4,1.06,12.77,2.28,19.12,3.48,4.88.92,8.08,5.62,7.16,10.49-.84,4.46-4.84,7.53-9.25,7.31l-.78-.04c-12.52-.6-24.88-2.2-37.31-2.56-12.45.03-24.82-1.06-37.2-.22l-18.54.57-18.46,1.61c-3.07.29-6.16.42-9.21.84l-9.15,1.33c-6.08,1-12.24,1.49-18.28,2.73-24.31,4.12-48.07,10.68-71.43,18.32-11.71,3.78-23.13,8.33-34.52,12.98-11.17,4.82-22.68,10.15-32.87,15.67l-.59.32c-4.37,2.37-9.83.75-12.2-3.62-2.09-3.86-1.07-8.58,2.22-11.26Z"/>
        <path class="cls-5" d="M2580.95,1932.96c11.54-3.69,22.64-6,34.17-7.8,11.44-1.79,23-2.87,34.6-3.34,23.2-1,46.59.76,69.6,5.11,11.53,2.05,22.92,5.03,34.11,8.66,11.23,3.5,22.16,8.02,32.75,13.21,21.23,10.29,40.69,24.32,57.22,40.91,3.51,3.53,3.5,9.23-.02,12.74-3.24,3.23-8.31,3.48-11.84.78l-.16-.13c-17.12-13.11-35.56-24.07-55.31-32.18-4.85-2.2-9.93-3.9-14.91-5.79-5.11-1.59-10.12-3.39-15.29-4.78-10.26-3.01-20.75-5.26-31.33-7.13-21.16-3.76-42.78-5.15-64.47-5.56-21.59-.33-43.79.74-65.02,2.82l-.48.05c-4.96.49-9.37-3.14-9.85-8.1-.42-4.3,2.27-8.2,6.23-9.47Z"/>
        <path class="cls-5" d="M1399.75,1852.85c-10.19-5.52-21.7-10.85-32.87-15.67-11.39-4.65-22.81-9.2-34.52-12.98-23.36-7.65-47.12-14.2-71.43-18.32-6.04-1.24-12.19-1.73-18.28-2.73l-9.15-1.33c-3.05-.41-6.14-.55-9.21-.84l-18.46-1.61-18.54-.57c-12.38-.84-24.75.25-37.2.22-12.43.36-24.79,1.97-37.31,2.56l-.78.04c-4.96.24-9.16-3.59-9.4-8.54-.22-4.53,2.97-8.44,7.31-9.26,6.35-1.2,12.72-2.42,19.12-3.48l9.6-1.65,4.81-.82,4.84-.51c6.46-.71,12.94-1.31,19.43-1.89,6.48-.74,12.99-.92,19.52-.99l19.58-.29,19.58.99c3.26.22,6.54.28,9.79.62l9.75,1.13c6.49.82,13.03,1.36,19.46,2.6l19.32,3.57c6.41,1.33,12.75,3.03,19.11,4.63,12.66,3.38,25.2,7.3,37.39,12.19,6.18,2.19,12.15,4.97,18.12,7.68,6.04,2.55,11.8,5.78,17.64,8.77,11.6,6.43,22.57,13.1,33.37,21.93,3.85,3.15,4.42,8.82,1.27,12.66-2.78,3.4-7.53,4.24-11.25,2.22l-.6-.33Z"/>
        <path class="cls-5" d="M1415.62,1950.48c-21.23-2.07-43.42-3.15-65.02-2.82-21.69.41-43.3,1.8-64.47,5.56-10.58,1.87-21.07,4.12-31.33,7.13-5.17,1.39-10.19,3.19-15.29,4.78-4.97,1.89-10.06,3.59-14.91,5.79-19.75,8.11-38.19,19.07-55.31,32.18l-.16.12c-3.95,3.02-9.61,2.28-12.63-1.68-2.78-3.63-2.37-8.69.77-11.84,16.54-16.59,35.99-30.61,57.22-40.91,10.59-5.19,21.52-9.71,32.75-13.21,11.19-3.63,22.58-6.61,34.11-8.66,23.01-4.35,46.41-6.11,69.6-5.11,11.6.47,23.15,1.55,34.6,3.34,11.52,1.8,22.63,4.11,34.17,7.8,4.74,1.52,7.36,6.6,5.84,11.34-1.32,4.12-5.32,6.64-9.46,6.23l-.49-.05Z"/>
        <g>
          <path class="cls-5" d="M1729.52,1577.07c-64.08-11.24-127.71,46.33-142.13,128.58-14.42,82.25,25.83,158.03,89.91,169.26,64.07,11.24,127.71-46.33,142.13-128.58,14.42-82.25-25.83-158.03-89.91-169.26Z"/>
          <path class="cls-6" d="M1722.71,1611.45c-21.04,5.88-31.74,33.39-23.91,61.44,7.84,28.05,31.25,46.03,52.29,40.15,21.04-5.88,31.74-33.39,23.9-61.44-7.84-28.05-31.25-46.03-52.29-40.15Z"/>
          <path class="cls-15" d="M1641.84,1784.09c-10.14,5.56-12.35,21.04-4.93,34.57,7.42,13.53,21.66,19.98,31.8,14.41,10.14-5.56,12.35-21.04,4.93-34.56-7.42-13.53-21.66-19.98-31.8-14.41Z"/>
        </g>
        <path class="cls-4" d="M2418.72,1623.91c-18.87,6.98-37.82,15.3-55.35,24.62-17.63,9.39-34.17,20.06-49.39,31.95-7.79,5.75-14.7,12.4-21.87,18.7l-9.88,10.3c-1.59,1.76-3.39,3.34-4.89,5.17l-4.48,5.52c-12.6,14.23-21.99,30.8-31.11,47.51l-32.11-29.11c1.56-.88,2.6-1.39,3.72-1.96,1.14-.59,2.23-1.11,3.3-1.59,2.16-.98,4.33-1.97,6.47-2.8,4.29-1.81,8.6-3.31,12.9-4.83,8.63-2.93,17.42-5.13,26.25-6.96,17.68-3.6,35.8-4.89,53.72-3.76,17.87,1.17,35.64,4.23,52.25,10.37,16.84,5.31,32.25,14.06,46.48,23.56,3.58,2.39,4.55,7.23,2.16,10.81-1.87,2.81-5.25,4.01-8.35,3.24l-.8-.2c-3.94-.98-7.78-2.09-11.61-3.13-3.86-.97-7.52-2.39-11.45-2.97-7.75-1.46-15.25-3.32-22.97-4.01-15.26-2.08-30.52-2.23-45.49-.98-14.98,1.06-29.75,3.91-44.02,8.12-3.58.99-7.07,2.29-10.6,3.39l-10.35,3.91c-3.37,1.44-6.76,2.82-9.97,4.42-1.66.75-3.19,1.57-4.72,2.38-.79.4-1.55.79-2.22,1.17l-1.71.96-.7.4c-10.86,6.13-24.62,2.3-30.75-8.56-3.76-6.66-3.71-14.54-.65-20.95,10.02-20.65,21.34-41.15,36.92-58.37l5.6-6.63c1.86-2.21,4.06-4.1,6.11-6.13,4.18-3.98,8.31-8.01,12.55-11.91,9.07-7.07,17.87-14.49,27.75-20.25,19.27-12.2,40.01-21.62,61.46-27.88,5.43-1.38,10.77-2.92,16.2-4.12,5.48-1.04,10.88-2.25,16.4-2.95,11.06-1.54,21.88-2.38,33.46-1.87,4.32.19,7.67,3.85,7.48,8.18-.14,3.24-2.24,5.94-5.1,7l-.64.23Z"/>
        <path class="cls-5" d="M2074.98,1893.34s-2.49,40.45-16,77.29c-11.45,31.24-30.81,59.91-63.31,59.17-32.5-.74-50.53-30.27-60.52-62-11.82-37.43-12.46-77.94-12.46-77.94l76.22-2.3,76.07,5.77Z"/>
        <path class="cls-3" d="M2058.98,1970.63c-11.45,31.24-30.81,59.91-63.31,59.17-32.5-.74-50.53-30.27-60.52-62,9.02-6.42,19.97-10.07,31.7-9.8,11.33.26,21.75,4.12,30.24,10.45,8.81-5.94,19.35-9.32,30.65-9.06,11.77.27,22.54,4.41,31.23,11.23Z"/>
        <path class="cls-5" d="M1996.97,2042.75c-.52,0-1.05,0-1.59-.02-82.28-1.88-85.51-146.5-85.61-152.66l-.2-12.74,89.64-2.71,89.46,6.79-.78,12.72c-.38,6.1-10.07,148.62-90.93,148.62ZM1936.39,1902.38c2.64,32.03,13.85,113.45,59.58,114.5.29,0,.59,0,.87,0,45.07,0,59.82-80,63.89-111.67l-62.11-4.71-62.23,1.88Z"/>
        <path class="cls-6" d="M2129.37,1895.03s-23.69,57.81-75.44,43.04c-58.9-16.81-50.03-87.32-50.03-87.32l-2.19-.05s5.37,70.87-54.29,84.74c-52.41,12.18-73.21-46.73-73.21-46.73,0,0-11.61-131.25,130.33-128.02,141.94,3.24,124.83,134.34,124.83,134.34Z"/>
        <g class="cls-12">
          <path class="cls-5" d="M2122.38,1907.89c-10.44,16.09-32.79,40.37-68.43,30.17-58.94-16.8-50.07-87.33-50.07-87.33l-2.16-.05s5.37,70.9-54.32,84.76c-36.06,8.38-57.19-16.94-66.84-33.53,10,1.15,20.91.61,32.84-2.15,98.53-22.91,89.18-119.15,89.18-119.15l3.63.08s-14.18,95.66,83.1,123.45c11.93,3.4,22.94,4.48,33.07,3.74Z"/>
        </g>
        <path class="cls-5" d="M1882.15,1885.9c7.43,12.99,17.73,25.94,29.51,32.45,5.86,3.42,12.07,5.17,18.49,5.81,3.3-.2,6.52.24,9.92-.63,1.68-.35,3.37-.43,5.06-.86l5.06-1.54c13.53-4.08,23.93-13.29,31.12-25.93,3.61-6.29,6.26-13.47,8.22-20.95,1.95-7.37,3.28-15.63,3.8-22.92l.05-.71c.33-4.64,4.37-8.13,9.01-7.8,4.03.29,7.2,3.38,7.74,7.23,1.37,9.79,1.12,18.67-.03,28.09-1.3,9.26-3.49,18.68-7.78,27.58-7.82,17.94-24.51,33.87-43.88,39.75l-7.19,2.26c-2.43.67-5.03.94-7.56,1.34-5,1.04-10.4.61-15.62.56-10.64-1.04-20.93-5.03-29.47-10.8-8.54-5.86-15.34-13.32-20.59-21.33-5.23-8.19-9.13-16.32-11.72-26-1.2-4.49,1.47-9.11,5.96-10.31,3.77-1.01,7.63.71,9.49,3.95l.43.76Z"/>
        <path class="cls-5" d="M2137.16,1898.23c-3.06,9.54-7.37,17.46-12.99,25.39-5.64,7.74-12.8,14.86-21.62,20.29-8.82,5.34-19.3,8.82-29.97,9.33-5.22-.21-10.63-.06-15.57-1.34-2.5-.53-5.09-.93-7.48-1.72l-7.06-2.61c-19.05-6.82-34.93-23.56-41.85-41.87-3.84-9.1-5.57-18.62-6.41-27.93-.69-9.47-.49-18.35,1.36-28.06.87-4.57,5.28-7.57,9.85-6.69,3.97.76,6.76,4.19,6.84,8.08v.72c.18,7.31,1.09,15.62,2.67,23.08,1.58,7.57,3.88,14.87,7.17,21.33,6.55,12.98,16.48,22.69,29.79,27.44l4.98,1.79c1.67.52,3.35.68,5.01,1.12,3.35,1.04,6.59.75,9.88,1.12,6.44-.32,12.73-1.76,18.75-4.89,12.09-5.92,23.01-18.34,31.08-30.95l.47-.73c2.51-3.92,7.72-5.06,11.64-2.56,3.29,2.11,4.62,6.12,3.48,9.67Z"/>
        <g>
          <path class="cls-5" d="M2075.13,1815.44c-.41,16.72-22.6,30.96-42.87,40.5-21.21,9.98-44.67,9.4-65.36-1.62-19.77-10.53-41.22-25.85-40.81-42.57,1.25-50.44,150.29-46.75,149.04,3.69Z"/>
          <g class="cls-10">
            <path class="cls-6" d="M2030.41,1804.43c-.12,4.82-8.88,8.87-16.89,11.56-8.38,2.82-17.69,2.59-25.92-.64-7.87-3.09-16.41-7.57-16.29-12.39.36-14.54,59.45-13.08,59.09,1.46Z"/>
          </g>
        </g>
      </g>
    </g>
  </g>
</svg>