<?xml version="1.0" encoding="UTF-8"?>
<svg id="Layer_1" data-name="Layer 1" xmlns="http://www.w3.org/2000/svg" viewBox="0 0 4000 4000">
  <defs>
    <style>
      .cls-1 {
        fill: #28c969;
      }

      .cls-2 {
        fill: #fc86a5;
      }

      .cls-3 {
        fill: #fff;
      }

      .cls-4 {
        fill: #269955;
      }

      .cls-5 {
        fill: #eaff94;
      }

      .cls-6 {
        fill: #67e9ff;
      }

      .cls-7 {
        opacity: .6;
      }

      .cls-8 {
        opacity: .5;
      }

      .cls-9 {
        opacity: .2;
      }

      .cls-10 {
        opacity: .3;
      }

      .cls-11 {
        opacity: .25;
      }

      .cls-12 {
        fill: #bfc8d8;
      }

      .cls-13 {
        fill: #06a9e4;
      }

      .cls-14 {
        fill: #191919;
      }

      .cls-15 {
        fill: #f0f0ff;
      }
    </style>
  </defs>
  <rect class="cls-6" width="4000" height="4000"/>
  <g>
    <g class="cls-9">
      <ellipse class="cls-14" cx="2005.38" cy="3456.95" rx="789.27" ry="78.25"/>
    </g>
    <g>
      <g>
        <path class="cls-12" d="M1607.45,1817.49s-239.87,16.21-335.5,97.25c-95.62,81.04-98.87,682.34-98.87,682.34l332.33,11.35,102.03-790.93Z"/>
        <g class="cls-7">
          <path class="cls-3" d="M1297.45,1945.33c74.94-63.51,238.46-87.2,305.7-94.48l4.3-33.36s-239.87,16.21-335.5,97.25c-95.62,81.04-98.87,682.34-98.87,682.34l25.88.88c2.13-122.01,15.65-582.44,98.48-652.63Z"/>
        </g>
        <path class="cls-14" d="M1259.87,1911.57c44.53-6.66,90.01-2.21,132.97,10.44,14.17,4.11,27.81,9.91,40.92,16.38.77.38,1.09,1.32.71,2.09-.32.64-1.02.97-1.69.85-28.37-4.52-56.48-7.76-85.01-8.24-27.73-.52-56.17,1.16-83.39,5.38-17.61,2.33-21.96-23.32-4.51-26.9h0Z"/>
        <path class="cls-14" d="M1505.43,2622.07c-.16,0-.31,0-.47,0l-332.33-11.35c-7.38-.25-13.22-6.32-13.17-13.71.33-62.19,6.09-609.97,103.69-692.67,97.92-82.99,333.42-99.78,343.39-100.45,4.09-.34,8.06,1.28,10.85,4.26,2.8,2.97,4.12,7.04,3.6,11.09l-102.03,790.93c-.88,6.83-6.69,11.9-13.52,11.9ZM1186.83,2583.9l306.65,10.47,98.27-761.82c-55.34,5.4-234.11,27.45-310.98,92.59-72.61,61.53-92.16,484.03-93.94,658.75Z"/>
      </g>
      <g>
        <path class="cls-12" d="M1382.7,2619.22h-175.06c-26.06,0-47.97-19.33-51.47-45.15-11.46-84.21-9.46-154.78-3.27-208.44,4.23-36.65,10.41-65.43,15.69-85.26,5.37-20.28,22.33-35.19,43.06-38.2,76.53-11.19,165.65-2.18,165.65-2.18l2,138.73,3.41,240.5Z"/>
        <g class="cls-9">
          <path class="cls-14" d="M1382.7,2619.22h-147.78c-26.06,0-47.97-19.33-51.47-45.15-10.82-79.39-9.64-146.69-4.32-199.07,81.17,25.37,156.06,14.91,200.16,3.73l3.41,240.5Z"/>
        </g>
        <path class="cls-14" d="M1382.71,2632.88h-175.08c-32.65,0-60.6-24.48-65.01-56.95-19.57-144.09-.4-249.21,12.77-299.05,6.73-25.46,28.02-44.39,54.26-48.22,77.31-11.3,165.31-2.64,169.03-2.27,6.89.7,12.17,6.45,12.27,13.38l5.4,379.26c.05,3.65-1.36,7.17-3.93,9.77-2.56,2.6-6.06,4.07-9.71,4.07ZM1299.3,2250.21c-26.78,0-57.25,1.28-85.71,5.44-15.41,2.25-27.9,13.32-31.83,28.2-12.65,47.87-31.04,149-12.11,288.4,2.58,19,18.9,33.33,37.97,33.33h161.25l-5.03-353.04c-13.49-.98-37.07-2.33-64.54-2.33Z"/>
      </g>
    </g>
    <g>
      <path class="cls-15" d="M2781.38,2786.19c-98.3,79.89-202.56,50.22-254.41-54.6-18.71-37.68-38.19-74.69-55.47-106.61-9.02-16.67-17.49-31.97-24.88-45.22-6.58-11.83-12.34-21.97-17.03-30.13-8.06-14.12-12.85-22.23-12.85-22.23l-108.7-289.28-91.46-243.29-28.91-76.88,6.58-3.21,113.13-55.22s15.86,10.09,44.71,35.89c53.12,47.52,150.2,148.11,272.1,335.88,49.66,76.48,90.9,145.66,122.87,207.55,4.28,8.31,8.46,16.47,12.39,24.52,10.2,20.75,19.27,40.63,27.17,59.6,53.02,126.74,54.65,214.54-5.25,263.23Z"/>
      <path class="cls-12" d="M2759.46,2463.36s-215.71-9.48-287.95,161.62c-9.02-16.67-17.49-31.97-24.88-45.22-6.58-11.83-12.34-21.97-17.03-30.13-8.06-14.12-12.85-22.23-12.85-22.23l-108.7-289.28-91.46-243.29-28.91-76.88,6.58-3.21,113.13-55.22s15.86,10.09,44.71,35.89c53.12,47.52,150.2,148.11,272.1,335.88,49.66,76.48,90.9,145.66,122.87,207.55,4.28,8.31,8.46,16.47,12.39,24.52Z"/>
      <path class="cls-14" d="M2471.49,2638.63c-1.77,0-3.57-.34-5.3-1.07-6.94-2.93-10.19-10.93-7.26-17.87,75.06-177.82,298.84-170.08,301.11-169.96,7.53.33,13.36,6.7,13.03,14.23-.33,7.52-6.66,13.47-14.22,13.03-2.37-.11-207.22-6.73-274.78,153.31-2.2,5.21-7.26,8.34-12.57,8.34Z"/>
      <g class="cls-9">
        <path class="cls-14" d="M2562.63,2727.26l-210.53-405.2s-1.46,8.91-3.68,23.46l-40.38-107.4,44.06-73.03s192.16,353.63,248.86,435.75c56.75,82.12,93.26,51.34,93.26,51.34,0,0-1.96,2.46-4.82,6.55,0,0-88.99-9.5-126.77,68.53Z"/>
      </g>
      <g class="cls-9">
        <path class="cls-14" d="M2781.39,2786.2c-48.88,39.74-99.22,52.34-143.87,42.11-25.78-22.33-47.38-48.65-44.65-72.39,6.46-55.38,72.85-55.66,74.16-55.66l1.59-2.91c-2.46,6.87-4,13.78-4,20.23,0,28.06,66.98,44.93,113-13.1,46.06-58.02,21.69-146.87,9.73-177.11-.68-1.73-.91-3.18-.68-4.41,52.97,126.73,54.61,214.53-5.27,263.23Z"/>
      </g>
      <g class="cls-7">
        <path class="cls-3" d="M2747.08,2438.85s-1.86,2.15-5.77,5.92c-252.55-393.52-460.25-572.41-460.25-572.41,0,0-24.66,13.87-24.18,11.82l50.49-24.67s15.89,10.12,44.72,35.89c53.16,47.53,150.23,148.13,272.11,335.92,49.68,76.45,90.91,145.65,122.89,207.55Z"/>
      </g>
      <g>
        <path class="cls-14" d="M2811.98,2550.13c12.32,51.67,14.95,110.19-16.22,156.25-22.56,29.99-52.91,54.27-92.13,57.61-22.26,1.61-48.16-9.68-53.7-33.74-5.82-34.49,24.25-73.88,43.8-100.06,0,0,16.98,20.67,16.98,20.67-48.34,24.57-109.54,5.91-110.39-54.4,0-.66.94-.96,1.29-.37,6.11,9.58,12.12,18.44,19.07,25.53,20.17,22.81,52.82,17.45,77.19,5.17,13.01-6.7,26.02,9.43,16.98,20.67-14.02,18.03-28.1,38.32-35.82,59.74-3.38,10.72-5.14,18.49,2.81,24.49,16.14,11.01,39.22,2.45,54.96-6.74,26.95-17.06,47.7-42.62,53.22-74.86,5.81-30.05,3.08-63.28-4.42-92.94-4.23-17.4,21.31-24.33,26.36-7h0Z"/>
        <path class="cls-14" d="M2590.66,2821.46c-3.36,0-6.73-1.24-9.37-3.74-2.32-2.21-56.51-54.63-24.21-111.87,36.15-64.07,125.05-52.61,128.82-52.09,7.46,1.03,12.68,7.92,11.65,15.38-1.03,7.47-7.9,12.65-15.38,11.65-.72-.11-74.33-9.38-101.33,38.46-21.79,38.62,17.57,77.08,19.26,78.7,5.42,5.21,5.63,13.83.44,19.27-2.68,2.81-6.28,4.23-9.88,4.23Z"/>
      </g>
      <path class="cls-14" d="M2668.02,2845.42c-10.75,0-21.45-1.14-32.03-3.45-50.32-10.96-93.37-48.01-121.25-104.33-51.04-103.14-109.17-202.37-109.76-203.36-.39-.67-.73-1.38-1-2.1l-229.07-609.4c-2.48-6.58.46-13.96,6.78-17.06l119.67-58.52c4.27-2.09,9.32-1.8,13.33.76,5.36,3.43,133.49,87.2,320.95,375.93,99.14,152.69,160.49,270.3,187.58,359.54,30.53,100.59,19.66,170.38-33.24,213.35-39.56,32.15-81.17,48.64-121.97,48.64ZM2429.11,2521.5c6.33,10.84,61.39,105.65,110.08,204.05,24.12,48.73,60.55,80.61,102.6,89.77,42.36,9.25,87.67-4.5,130.99-39.7,85.36-69.36,36.01-234.93-160.02-536.86-161-247.98-279.14-343.23-306.67-363.49l-101.28,49.52,224.3,596.71Z"/>
    </g>
    <g>
      <path class="cls-12" d="M2465.43,3471.1c-9.23.41-18.56.66-28.14.66-81.73,0-134.39-7.09-167.74-14.89-30.84-7.19-56.18-29.21-67.81-58.73l-1.27-3.31-57.66-146.48-132.3-336.29s-33.5,150.4-74.03,291.27c-22.99,79.69-48.23,156.37-70.97,201.08-7.44,14.73-14.68,25.95-21.41,32.73-44.36,44.36-197.56,59.19-309.83,40.99h-.05c-49.25-7.9-90.65-22.23-111.55-43.13-7.34-7.34-12.08-15.09-14.94-23.2-1.53-4.44-2.45-8.92-2.91-13.51v-.05c-4.89-54.55,65.41-114.51,65.41-114.51,15.04-135.26,32.12-367.69,41.19-496.73.61-8.92,1.17-17.33,1.73-25.19,2.91-41.96,4.64-68.01,4.64-68.01l19.22-344.65,23.5-60.31,105.89-271.69,39.87-102.43h523.55c20.39,13.51,32.02,27.07,41.45,42.77,34.72,58.12,39.56,71.17,39.56,71.17,29.52,87.39,53.02,176.91,71.53,260.17,22.48,101,37.57,192.87,47.21,260.78,10.2,72.14,14.17,117.16,14.17,117.16l17.59,86.01,102.38,500.71c188.43,109.67,88.3,208.57-98.3,217.6Z"/>
      <path class="cls-15" d="M1876.43,1961.31s-147.43,106.73-160.84,354.66c-13.41,247.93,136.9,442.24,368.94,419.26,238.19-23.59,304.63-261.59,255.74-521.09-48.89-259.5-198.07-290.84-231.92-294.6-33.85-3.76-231.92,41.77-231.92,41.77Z"/>
      <path class="cls-14" d="M1758.19,3135.07c-159.99,0-267.24-35.35-273.34-37.41-7.09-2.39-10.9-10.08-8.51-17.17,2.39-7.1,10.08-10.92,17.18-8.53,2,.67,202.77,66.6,461.5,17.51,7.37-1.42,14.46,3.44,15.85,10.79,1.4,7.36-3.43,14.45-10.79,15.85-73.1,13.88-141.28,18.95-201.88,18.95Z"/>
      <path class="cls-14" d="M2233.55,3133.42c-90.45,0-143.63-16.16-147.57-17.4-7.14-2.25-11.11-9.86-8.86-17.01,2.25-7.15,9.87-11.1,17-8.86,2.31.71,172.89,51.74,428.23-34.28,7.1-2.38,14.79,1.43,17.18,8.52,2.39,7.1-1.43,14.79-8.52,17.18-120.48,40.59-221.96,51.85-297.46,51.85Z"/>
      <g class="cls-9">
        <path class="cls-14" d="M2465.41,3471.08c-9.18.45-18.55.68-28.15.68-31.24,0-58.2-1.05-81.48-2.73-84.8-29.28-111.9-72.94-111.9-72.94l-223.58-542.38,3.09-18.33-31.28-3.5s-60.48,309.21-126.41,490.73c-28.87,79.57-66.93,124.5-100.54,149.83-66.52,15.37-157.47,17.6-230.9,5.73,4.14.05,223.95,1.18,279.56-353.18,54.47-346.67,3.36-385.73.18-387.83,6.82,1.96,207.28,63.33,518.75-33.29,0,0-41.49,52.85-63.6,84.2-31.77,45.03-50.81,92.54-41.44,146.84,25.57,148.12,91.2,423.08,237.71,536.16Z"/>
      </g>
      <g>
        <path class="cls-14" d="M2010.5,2925.69c-.81,0-1.62-.07-2.45-.22-7.41-1.34-12.33-8.44-10.99-15.85l12.91-71.3c1.35-7.41,8.44-12.35,15.85-10.99,7.41,1.34,12.33,8.44,10.99,15.85l-12.91,71.3c-1.19,6.59-6.94,11.21-13.41,11.21Z"/>
        <path class="cls-14" d="M1464.13,3271.21c32.13-18.9,70.52-23.63,107.06-23.73,59.79-1.63,121.12,27.71,153.12,78.72.29.45-.35.99-.74.61-39.2-30.8-84.98-55.61-135.24-55.11-36.22.58-73.65,4.64-106.48,20.6-1.51.81-2.45,1.32-3.45,1.93-15.21,8.49-28.65-13.13-14.26-23.02h0Z"/>
        <path class="cls-14" d="M2556.79,3265.82c-41.36-5.14-84.45-2.46-124.51,9.84-9.36,2.94-19.09,6.67-28.32,10.24-.87.43-1.78-.83-1-1.49,30.42-29.33,73.56-41.69,114.84-45.52,14.48-1.21,27.97-1.52,42.76.08,7.44.86,12.77,7.59,11.91,15.03-.87,7.68-8.06,13.07-15.68,11.83h0Z"/>
        <path class="cls-14" d="M1925.46,2811.58c79.06,24.28,165.7,17.67,242.11-12.8,47.41-18.65,89.91-44.36,133.27-72.61,1.28-.92,3.14.91,2.02,2.2-21.48,27.61-47.69,51.58-76.99,71.58-73.49,50.88-170.54,71.13-256.7,43.67-17.06-5.66-33.47-12.34-48.7-22.69-2.43-1.65-3.06-4.96-1.41-7.38,1.45-2.14,4.13-2.83,6.41-1.95h0Z"/>
      </g>
      <path class="cls-14" d="M2313.64,2027.75c56.5,139.08,89.13,287.32,115.53,434.71,11.25,67.22,21.34,135.15,28.18,203.11,31.92,157.57,87.75,423.29,119.18,585.29,0,0-6.24-8.69-6.24-8.69,43.73,26.71,97.82,62.15,106.73,117.33,4.67,30.36-14.65,59.88-38.3,76.15-88.23,63.31-258.57,54.42-361.62,36.28-43.75-6.87-77.6-36.49-91.23-78.44,0,0-6.95-17.65-6.95-17.65-43.11-109.55-136.52-346.94-180.62-459,0,0,24.97-1.95,24.97-1.95-33.35,143.28-67.8,286.23-116.7,425.26-8.49,23.2-17.46,46.28-28.82,68.99-19.22,42.64-47.83,58.84-91.43,71.29-36.27,10.38-73.88,14.97-111.26,17.22-82.14,4.38-313.15-.57-280.12-128.78,11.72-38.52,37.8-68.43,66.8-95.1,0,0-4.52,8.52-4.52,8.52,23.48-230.56,40.52-468.27,53.67-700.05,0,0,13.06-233.87,13.06-233.87.08-1.4.4-2.79.87-4.03l169.3-434.36c2.01-5.16,6.97-8.33,12.2-8.34h523.51c7.23,0,13.09,5.86,13.09,13.09s-5.86,13.09-13.09,13.09h-523.51l12.2-8.34-169.3,434.36.87-4.02c-4.48,78.87-15.29,275.08-19.67,351.01-13.37,193.93-26.92,391.21-47.18,584.35-.37,3.45-2.06,6.42-4.52,8.52-8.28,7.3-16.76,15.97-24.3,24.67-19.94,22.91-43.03,57.66-35.03,86.6,21.25,66.55,194.34,70.36,254.18,66.55,35.63-2.15,71.28-6.47,105.48-16.24,20.46-6.01,43.76-14.37,57.81-29.8,6.42-7.43,12.35-17.74,17.51-28.15,31.16-64.98,51.09-135.53,71.58-204.86,26.57-93.6,50.16-188.35,71.75-283.26,2.71-12.54,20.44-13.77,24.97-1.95,48.01,122.01,140.43,356.88,187.57,476.66,0,0,3.47,8.83,3.47,8.83,8.85,23.09,28.18,41.77,51.73,49.36,11.13,3.44,23.51,5.52,35.03,7.5,36.85,5.83,74.14,8.05,111.55,8.81,49.51,1.13,99.16-1.35,146.66-14.68,33.07-9.71,68.23-23.43,86.58-52.62,17.58-30.54-6.14-62.93-28.95-83.85-17.41-16.28-38-29.94-59.19-42.45-3.33-1.96-5.5-5.2-6.25-8.7-34.21-164.26-87.55-421.72-120.69-588.14-6.2-66.57-15.74-134.93-26.39-201.29-15.32-93.12-33.34-187.43-55.81-279.08-12.32-52.87-26.69-105.13-39.9-158.03-.39-1.57.57-3.17,2.14-3.56,1.43-.36,2.89.41,3.43,1.73h0Z"/>
    </g>
    <g>
      <g>
        <rect class="cls-15" x="1568.55" y="2268.88" width="278.77" height="146.68"/>
        <g class="cls-9">
          <rect class="cls-14" x="1568.54" y="2342.8" width="278.78" height="45.47"/>
        </g>
        <path class="cls-14" d="M1847.32,2428.56h-278.77c-7.19,0-13.01-5.82-13.01-13.01v-146.68c0-7.19,5.83-13.01,13.01-13.01h278.77c7.19,0,13.01,5.82,13.01,13.01v146.68c0,7.19-5.83,13.01-13.01,13.01ZM1581.57,2402.55h252.75v-120.66h-252.75v120.66Z"/>
      </g>
      <g>
        <path class="cls-15" d="M2408.12,2189.2v265.78c0,25.69-20.83,46.47-46.47,46.47h-501.37c-25.65,0-46.47-20.78-46.47-46.47v-265.78c0-25.69,20.83-46.47,46.47-46.47h501.37c25.65,0,46.47,20.78,46.47,46.47Z"/>
        <g class="cls-9">
          <path class="cls-14" d="M2408.12,2342.21v80.94c0,25.69-20.83,46.47-46.47,46.47h-501.37c-.06,0-.12,0-.17,0-10.35-.04-18.98-8.67-19.02-19.02,0-.06,0-.11,0-.17v-131.69c17.28,15.46,42.42,27.74,74.8,16.6l7.05-23.78s70.25,95.9,271.24,112.09c200.98,16.23,213.94-81.44,213.94-81.44Z"/>
        </g>
        <g class="cls-8">
          <path class="cls-3" d="M2361.65,2142.73h-501.37c-25.65,0-46.47,20.78-46.47,46.47v35.69c0-25.69,20.83-46.47,46.47-46.47h501.37c25.65,0,46.47,20.78,46.47,46.47v-35.69c0-25.69-20.83-46.47-46.47-46.47Z"/>
        </g>
        <path class="cls-14" d="M1969.42,2515.1c-33.14,0-60.1-26.96-60.1-60.1v-265.81c0-33.14,26.96-60.1,60.1-60.1,7.53,0,13.64,6.11,13.64,13.64s-6.11,13.64-13.64,13.64c-18.1,0-32.82,14.72-32.82,32.82v265.81c0,18.1,14.72,32.82,32.82,32.82,7.53,0,13.64,6.11,13.64,13.64s-6.11,13.64-13.64,13.64Z"/>
        <path class="cls-14" d="M2201.73,2515.1c-7.53,0-13.64-6.11-13.64-13.64v-129.32l-89.63-67.22c-3.43-2.58-5.46-6.62-5.46-10.91v-151.27c0-7.53,6.11-13.64,13.64-13.64s13.64,6.11,13.64,13.64v144.45l89.63,67.22c3.44,2.58,5.46,6.62,5.46,10.91v136.14c0,7.53-6.11,13.64-13.64,13.64Z"/>
        <path class="cls-14" d="M2361.65,2515.1h-501.35c-33.14,0-60.1-26.96-60.1-60.1v-265.81c0-33.14,26.96-60.1,60.1-60.1h501.35c33.14,0,60.11,26.96,60.11,60.1v265.81c0,33.14-26.96,60.1-60.11,60.1ZM1860.29,2156.37c-18.1,0-32.82,14.72-32.82,32.82v265.81c0,18.1,14.72,32.82,32.82,32.82h501.35c18.1,0,32.82-14.72,32.82-32.82v-265.81c0-18.1-14.72-32.82-32.82-32.82h-501.35Z"/>
      </g>
      <g>
        <g>
          <path class="cls-13" d="M2299.17,2343.94c7.37,4.37,15.55,6.78,24.19,6.78h-48.38c-32.83,0-59.43-34.83-59.43-77.8s26.6-77.8,59.43-77.8h48.38c-8.64,0-16.82,2.41-24.19,6.78-20.74,12.1-35.24,39.33-35.24,71.03s14.51,58.93,35.24,71.03Z"/>
          <g class="cls-11">
            <path class="cls-14" d="M2266.43,2295.26c-21.7-4.1-39.57-23.5-47.06-49.62-2.44,8.5-3.83,17.67-3.83,27.28,0,42.97,26.6,77.8,59.43,77.8h48.38c-8.64,0-16.82-2.41-24.19-6.78-15.65-9.13-27.74-26.89-32.74-48.68Z"/>
          </g>
          <g class="cls-7">
            <path class="cls-3" d="M2274.98,2226.94h.49c6.08-10.82,14.23-19.53,23.7-25.05,7.37-4.37,15.55-6.78,24.19-6.78h-48.38c-32.83,0-59.43,34.83-59.43,77.8,0,5.46.44,10.78,1.25,15.92,5.61-35.33,29.52-61.89,58.18-61.89Z"/>
          </g>
          <path class="cls-14" d="M2323.36,2364.36h-48.38c-40.29,0-73.07-41.02-73.07-91.45s32.78-91.45,73.07-91.45h48.38c7.53,0,13.64,6.11,13.64,13.64s-6.11,13.64-13.64,13.64c-5.98,0-11.78,1.64-17.23,4.87-17.38,10.14-28.55,33.39-28.55,59.29s11.17,49.15,28.47,59.24c.03.01.06.03.08.05,5.45,3.23,11.25,4.87,17.23,4.87,7.53,0,13.64,6.11,13.64,13.64s-6.11,13.64-13.64,13.64ZM2271.08,2208.98c-23.43,2.78-41.89,30.39-41.89,63.93s18.46,61.15,41.89,63.93c-13.06-16.8-20.8-39.68-20.8-63.93s7.73-47.13,20.8-63.93Z"/>
        </g>
        <g>
          <path class="cls-13" d="M2382.79,2272.91c0,42.97-26.6,77.8-59.43,77.8-8.64,0-16.82-2.41-24.19-6.78-20.74-12.1-35.24-39.33-35.24-71.03s14.51-58.93,35.24-71.03c7.37-4.37,15.55-6.78,24.19-6.78,32.83,0,59.43,34.83,59.43,77.8Z"/>
          <g class="cls-11">
            <path class="cls-14" d="M2382.79,2272.91c0,37.88-20.69,69.43-48.11,76.35-4.46-1.14-8.73-2.91-12.78-5.32-19.23-11.23-33.1-35.47-34.97-64.21,3.73,3.82,7.87,7.09,12.23,9.64,7.37,4.37,15.55,6.78,24.19,6.78,25.46,0,47.15-21.01,55.61-50.52,2.41,8.5,3.82,17.69,3.82,27.28Z"/>
          </g>
          <g class="cls-7">
            <path class="cls-3" d="M2294.62,2238.27c7.37-4.37,15.55-6.78,24.19-6.78,31.33,0,56.93,31.74,59.21,71.99,3.07-9.38,4.77-19.71,4.77-30.56,0-42.97-26.6-77.8-59.43-77.8-8.64,0-16.82,2.41-24.19,6.78-20.74,12.1-35.24,39.33-35.24,71.03,0,2.04.06,4.06.18,6.07,5.88-18.11,16.82-32.73,30.51-40.71Z"/>
          </g>
          <path class="cls-14" d="M2323.36,2364.36c-10.94,0-21.42-2.92-31.15-8.69-25.44-14.83-41.93-47.34-41.93-82.76s16.49-67.92,42.01-82.81c9.64-5.71,20.12-8.64,31.06-8.64,40.29,0,73.07,41.02,73.07,91.45s-32.78,91.45-73.07,91.45ZM2323.36,2208.75c-5.98,0-11.78,1.64-17.23,4.87-17.38,10.14-28.55,33.39-28.55,59.29s11.17,49.15,28.47,59.24c5.54,3.28,11.34,4.92,17.32,4.92,25.25,0,45.79-28.78,45.79-64.16s-20.54-64.16-45.79-64.16Z"/>
        </g>
      </g>
    </g>
    <g>
      <path class="cls-1" d="M1422.65,2785.62l-480.05-188.75c-9.36-3.68-17.03-10.65-21.61-19.61-9.45-18.49-18.49-51.49,12.19-83.16,11.58-11.95,29.27-15.7,44.73-9.55l486.71,193.78-41.96,107.29Z"/>
      <g class="cls-9">
        <path class="cls-14" d="M1426.15,2724.44l-480.05-188.75c-9.36-3.68-17.03-10.65-21.61-19.61-.53-1.03-1.05-2.12-1.57-3.24-13.3,25.36-6.02,49.57,1.57,64.42,4.58,8.96,12.25,15.93,21.61,19.61l480.05,188.75,41.96-107.29-20.71-8.24-21.26,54.35Z"/>
      </g>
      <g class="cls-7">
        <path class="cls-3" d="M922.98,2524.69c11.58-11.95,29.27-15.7,44.73-9.55l485.18,193.17,11.73-29.98-486.71-193.78c-15.46-6.15-33.15-2.4-44.73,9.55-14.55,15.02-20.11,30.32-20.98,44.25,2.88-4.55,6.38-9.12,10.79-13.66Z"/>
      </g>
      <path class="cls-14" d="M1066.2,2659.11c-6.22,0-11.84-4.28-13.28-10.6-14.69-64.11,26.58-108.4,50.45-122.86,6.45-3.91,14.83-1.85,18.74,4.59,3.9,6.44,1.85,14.8-4.56,18.72-2.28,1.41-51.9,32.94-38.03,93.46,1.68,7.34-2.91,14.66-10.25,16.34-1.03.23-2.05.35-3.06.35Z"/>
      <path class="cls-14" d="M1422.65,2799.26c-1.69,0-3.39-.32-4.99-.95l-480.05-188.75c-12.45-4.9-22.67-14.16-28.76-26.1-10.47-20.5-22.51-60.62,14.54-98.86,15.47-15.98,38.85-20.97,59.57-12.73l486.71,193.78c6.97,2.78,10.39,10.66,7.66,17.65l-41.97,107.29c-1.32,3.37-3.93,6.08-7.25,7.53-1.74.76-3.6,1.14-5.46,1.14ZM962.63,2495.25c-7.28,0-14.38,2.9-19.65,8.34-19.25,19.87-22.56,42.56-9.84,67.46,3.07,6,8.2,10.66,14.45,13.12l467.33,183.75,32.05-81.94-474.11-188.76c-3.33-1.33-6.8-1.97-10.23-1.97Z"/>
    </g>
    <g>
      <path class="cls-15" d="M1828.96,1957.5l-51.9,96.66-70.77,131.74c-85.91,147.55-181.5,394.97-181.5,394.97,37.93,69.29,27.58,135.31-11.62,180.94-47.01,54.71-135.51,80.3-232.38,47.57-2.04-.66-4.08-1.38-6.12-2.14-134.85-48.89-133.42-190.07-82.85-340.93,5.45-16.26,11.52-32.68,18-49.05,23.35-59.14,52.87-118.43,83.2-172.99,72.09-129.55,157.69-254.2,212.4-330.53,13.71-19.02,25.44-35.08,34.67-47.41,13.46-18.15,21.26-28.3,21.26-28.3l29.06,12.9,142.75,63.78,95.8,42.77Z"/>
      <path class="cls-12" d="M1828.96,1957.5l7.17,15.5-129.84,212.91c-85.91,147.55-181.5,394.97-181.5,394.97-174.82-184.36-332.97-114.56-332.97-114.56,5.45-16.26,11.52-32.68,18-49.05,23.35-59.14,52.87-118.43,83.2-172.99,72.09-129.55,157.69-254.2,212.4-330.53,13.71-19.02,25.44-35.08,34.67-47.41,13.46-18.15,21.26-28.3,21.26-28.3l29.06,12.9,142.75,63.78,95.8,42.77Z"/>
      <g class="cls-9">
        <path class="cls-14" d="M1524.79,2580.89c83.3,152.24-66.25,288.56-244,228.49-102.67-62.3-82.85-173.93-82.85-173.93,21.6,117.77,133.64,120.95,210.71,76.71,79.76-45.84,14.01-97.26,142.6-356.59,77.3-155.92,155.06-169.65,155.06-169.65-85.9,147.51-181.52,394.96-181.52,394.96Z"/>
      </g>
      <g class="cls-7">
        <path class="cls-3" d="M1575.16,1872.04s-300.15,388.59-402.07,708.83c0,0,100.61-377.37,374.74-724.94l27.32,16.1Z"/>
      </g>
      <path class="cls-14" d="M1524.8,2594.52c-3.61,0-7.22-1.43-9.9-4.25-165.55-174.55-311.48-114.11-317.61-111.45-6.89,2.98-14.93-.16-17.94-7.04-3.01-6.89.09-14.9,6.97-17.94,6.81-3.01,168.99-71.49,348.38,117.65,5.19,5.47,4.96,14.1-.51,19.29-2.64,2.5-6.02,3.75-9.38,3.75Z"/>
      <path class="cls-14" d="M1572.13,1846.35c-78.79,104.25-152.95,212.95-220.79,324.73-66.69,111.48-129.51,227.32-162.47,353.46-22.12,85.73-30.69,200.86,55.77,253.13,52.95,30.95,119.88,41.27,179.2,24.46,58.21-16.04,108.17-65.62,110.71-127.54,1.98-29.92-7.24-60.03-21.73-87.17-1.96-3.63-2.13-7.88-.76-11.48,39.63-101.72,83.97-201.5,133.93-298.59,17.2-32.04,32.61-65.34,56.82-93.46,1.48-1.72,4.08-1.92,5.8-.43,1.31,1.13,1.74,2.91,1.21,4.46-12.04,34.7-30.11,65.76-45.19,98.64-15.42,32.64-30.02,65.69-44.31,98.87-28.86,66.16-56.1,133.33-82.81,200.34,0,0-.76-11.47-.76-11.47,25.74,46.31,34.72,104.36,12.93,154.12-54.38,124.86-228.85,136.15-330.54,65.01-115.58-86.55-68.96-256.86-26.02-370.94,35.8-92.83,83.69-180.71,134.85-265.54,68.59-112.97,142.82-221.79,222.54-327.29,10.98-13.68,32.56,1.54,21.61,16.66h0Z"/>
    </g>
    <g>
      <path class="cls-14" d="M1823.46,2834.85c-3.3,0-6.62-1.19-9.24-3.61-5.54-5.1-5.9-13.73-.8-19.27,49.1-53.34,101.86-71.5,104.08-72.25,7.15-2.4,14.88,1.44,17.28,8.58,2.4,7.13-1.43,14.86-8.56,17.27-.58.2-48.65,17-92.72,64.88-2.69,2.92-6.36,4.4-10.04,4.4Z"/>
      <g>
        <path class="cls-4" d="M2114.69,2683.05s-59,9.98-96.04,25.69c-28.73,12.23-71.04,44.48-109.78,53.97-11.22,2.8-22.14,3.67-32.34,1.6,0,0-23.04-61.39,69.76-99.67,84.06-34.71,154.07,8.6,166.47,17.05,1.28.86,1.94,1.36,1.94,1.36Z"/>
        <g class="cls-9">
          <path class="cls-14" d="M2114.69,2683.05s-59,9.98-96.04,25.69c-28.73,12.23-71.04,44.48-109.78,53.97-13.29-5.86-23.27-10.62-23.27-10.62,0,0,88.21-77.71,167.4-75.44,27.34.78,46.47,2.68,59.75,5.05,1.28.86,1.94,1.36,1.94,1.36Z"/>
        </g>
        <g class="cls-7">
          <path class="cls-3" d="M1958.78,2680.43c61.26-25.27,115.03-9.14,144.5,4.74,7.05-1.38,11.41-2.11,11.41-2.11,0,0-75.63-56.71-168.42-18.43-92.79,38.28-69.74,99.69-69.74,99.69,3.27.66,6.62.99,10.03,1.09-.81-20.56,7.69-58.35,72.22-84.97Z"/>
        </g>
        <path class="cls-14" d="M1867.38,2759.01c34.64-48.43,104.88-79.12,162.5-80.86.06.46-.25.87-.69.97-16.74,4.52-37.04,10.86-52.77,17.84-29.84,13-57.78,31.48-78.91,56.31-4.32,5.07-8.72,10.79-11.89,16.46-7.18,12.63-25.81,1.78-18.24-10.73h0Z"/>
        <path class="cls-14" d="M1888.55,2776.05c-4.77,0-9.48-.43-14.13-1.38-3.57-.72-6.52-3.24-7.8-6.65-.27-.71-25.48-71.47,75.61-113.18,97.21-40.1,175.51,17.28,178.8,19.75,3.38,2.53,4.93,6.85,3.93,10.96-1,4.11-4.35,7.23-8.52,7.93-.58.1-58.22,9.94-93.67,25.01-10.03,4.26-22.38,11.45-35.45,19.05-31.3,18.2-66.25,38.52-98.78,38.52ZM1885.09,2754.77c27.64,1.66,62.89-18.82,91.61-35.53,13.66-7.94,26.56-15.44,37.81-20.23,21.55-9.16,49.75-16.32,70.45-20.86-27.79-12.92-77.55-27.3-134.65-3.75-66.18,27.3-67.48,65.74-65.22,80.37Z"/>
      </g>
      <g>
        <path class="cls-4" d="M2220.68,2844.13s-72.03-27.69-123.45-34.58c-39.92-5.3-108.06,2.7-157.29-12.22-14.29-4.26-26.98-10.47-36.94-19.47,0,0,14.75-83.26,142.89-64.79,116.09,16.7,165.33,110.76,173.54,128.28.86,1.79,1.26,2.79,1.26,2.79Z"/>
        <g class="cls-9">
          <path class="cls-14" d="M2220.68,2844.13s-72.03-27.69-123.45-34.58c-39.92-5.3-108.06,2.7-157.29-12.22-10.9-15.24-18.84-27.08-18.84-27.08,0,0,148.94-28.29,235.33,26.24,29.83,18.82,49.81,33.51,62.99,44.85.86,1.79,1.26,2.79,1.26,2.79Z"/>
        </g>
        <g class="cls-7">
          <path class="cls-3" d="M2049.37,2738.8c84.59,12.2,133.66,65.42,157.25,100.18,8.73,3.1,14.05,5.15,14.05,5.15,0,0-46.68-112.62-174.8-131.09-128.12-18.47-142.88,64.82-142.88,64.82,3.2,2.89,6.7,5.46,10.42,7.8,12.61-23.34,46.86-59.7,135.97-46.85Z"/>
        </g>
        <path class="cls-14" d="M1896.32,2765.97c64.94-28.1,141.23-20.21,206.04,3.97,9.1,3.54,17.93,7.74,26.83,11.58,1.23.53.56,2.58-.81,2.1-9.51-2.55-32.73-8.67-42.07-10.19-41.27-8.47-85.06-10.3-126.26-1.37-17.32,3.85-35.08,9.17-50.53,17.8-16.26,9.31-29.82-14.99-13.2-23.89h0Z"/>
        <path class="cls-14" d="M2220.67,2857.78c-1.65,0-3.3-.3-4.9-.91-.71-.27-71.14-27.22-120.38-33.78-13.94-1.86-32.36-2-51.86-2.15-53.53-.42-114.2-.89-149.69-32.95-3.49-3.15-5.11-7.88-4.29-12.5.17-.96,18.7-96.04,158.26-75.93,134.26,19.36,183.43,134.48,185.46,139.37,2.09,5.04.97,10.84-2.83,14.75-2.61,2.69-6.16,4.12-9.77,4.12ZM1918.75,2772.89c29.59,20.01,82.15,20.42,125,20.76,20.38.16,39.63.31,55.25,2.39,29.93,3.98,65.93,14.56,91.89,23.12-22.35-32.59-68.13-81.25-146.96-92.61-91.38-13.18-118.07,28.62-125.18,46.35Z"/>
      </g>
      <g>
        <path class="cls-14" d="M1662.6,2921.56c-2.64,0-5.25-1.2-6.95-3.47-.91-1.22-22.62-30.41-41.31-73.76-1.9-4.4.13-9.51,4.53-11.41,4.4-1.9,9.51.13,11.4,4.53,17.83,41.36,39.06,69.95,39.27,70.23,2.87,3.84,2.09,9.27-1.75,12.14-1.56,1.17-3.39,1.73-5.2,1.73Z"/>
        <g>
          <path class="cls-4" d="M1802.8,3064.43s-38.7-30.21-59.3-56c-15.97-20.03-33.92-59.81-58.19-81.77-7.01-6.4-14.55-11.28-22.72-13.77,0,0-40.58,35.32,11.48,99.15,47.14,57.84,114.56,53.88,126.81,52.62,1.26-.12,1.93-.23,1.93-.23Z"/>
          <g class="cls-9">
            <path class="cls-14" d="M1802.8,3064.43s-38.7-30.21-59.3-56c-15.97-20.03-33.92-59.81-58.19-81.77-11.88-.95-20.94-1.41-20.94-1.41,0,0,33.36,90.49,91.4,119.74,20.04,10.1,34.59,16.19,45.1,19.66,1.26-.12,1.93-.23,1.93-.23Z"/>
          </g>
          <path class="cls-14" d="M1671.27,2912.63c1.96,32.19,17.6,62.59,37.14,87.84,8.6,11.31,20.79,23.6,31.15,33.45.67.53-.15,1.69-.88,1.13-20.76-13.94-39.44-30.8-54.37-51.05-13.02-18.06-23.88-38.49-28.72-60.51-1.59-7.06-4.41-18.35,6.22-19.77,5.15-.49,9.64,3.76,9.47,8.92h0Z"/>
          <path class="cls-14" d="M1788.16,3073.95c-26.46,0-80.35-6.79-120.83-56.43-56.7-69.53-10.9-110.78-10.43-111.19,2.26-1.96,5.37-2.62,8.22-1.76,29.11,8.85,49.24,41.78,67,70.84,6.47,10.59,12.59,20.59,18.17,27.58,19.71,24.7,57.48,54.28,57.86,54.58,2.73,2.13,3.94,5.69,3.05,9.05-.88,3.36-3.68,5.86-7.11,6.38-.86.13-6.74.95-15.93.95ZM1665.05,2923.1c-7.34,9.68-21.4,37.93,15.73,83.45,32.02,39.26,73.54,48.29,98.65,49.8-13.17-11.35-30.73-27.52-42.71-42.54-6.25-7.84-12.64-18.29-19.4-29.35-14.22-23.26-31.66-51.78-52.26-61.37Z"/>
        </g>
      </g>
      <g>
        <path class="cls-1" d="M1960.9,2931.95c-2.14,5.15-5,9.64-8.21,13.51-4.89,5.86-10.81,10.35-16.93,13.77-19.42,10.71-42.88,11.27-63.53,3.16l-10.55-4.13-1.43-.56s-.56-.2-1.58-.66l-413.58-162.59c-17.13-6.73-29.57-22.23-31.46-40.53-1.22-11.68.31-21.72,3.52-30.39,3.93-10.81,10.4-19.37,17.39-26.05,14.07-13.51,34.82-17.23,52.92-10.04l438.46,174.57c12.8,5.1,24.06,13.82,31.25,25.54,6.88,11.27,11.22,26.51,3.72,44.41Z"/>
        <path class="cls-5" d="M1960.9,2931.95l-8.21,13.51c-4.89,5.86-10.81,10.35-16.93,13.77-19.42,10.71-42.88,11.27-63.53,3.16l-11.98-4.69s-.56-.2-1.58-.66c-7.6-3.47-39.82-20.24-34.67-53.58,9.07-58.73,142.96-72.04,136.89,28.5Z"/>
        <g class="cls-9">
          <path class="cls-14" d="M1828.14,2929.71l33.55,28.55-1.43-.56s-.56-.2-1.58-.66l-413.58-162.59c-17.13-6.73-29.57-22.23-31.46-40.53-1.22-11.68.31-21.72,3.52-30.39l406.29,162.08s69.64-28.91,101.71-18.56c32.12,10.4,14.28,107.73-97.02,62.66Z"/>
        </g>
        <g class="cls-7">
          <path class="cls-3" d="M1862.78,2867.06l-424.02-168.93s15.14-18.17,34.53-12.72c19.38,5.45,433.71,166.58,433.71,166.58l-44.22,15.07Z"/>
        </g>
        <path class="cls-14" d="M1860.23,2971.32c-1.65,0-3.32-.3-4.95-.94-18.07-7.07-50.69-30.58-44.75-68.99,6.26-40.49,53.34-60.93,93.38-56.64,34.8,3.73,74.17,29.02,70.62,88.01-.45,7.52-6.88,13.21-14.44,12.8-7.52-.45-13.25-6.92-12.8-14.44,2.93-48.68-31.4-57.65-46.3-59.24-27.16-2.92-59.88,10.21-63.51,33.68-4.07,26.32,26.47,38.92,27.77,39.44,6.97,2.8,10.39,10.71,7.63,17.7-2.12,5.36-7.24,8.63-12.67,8.63Z"/>
        <path class="cls-14" d="M1629.77,2880.7c-7.47,0-13.56-6.01-13.64-13.5-.44-41.74,9.27-72.94,28.87-92.74,19.63-19.84,41.58-20.42,44.04-20.42h0c7.53,0,13.64,6.11,13.64,13.65,0,7.48-6.03,13.55-13.48,13.64-2.28.07-46.67,2.69-45.78,85.59.08,7.53-5.96,13.71-13.5,13.79h-.15Z"/>
        <path class="cls-14" d="M1901.19,2981.62c-11.34,0-22.86-2.17-33.97-6.54l-427.13-167.94c-22.28-8.76-37.61-28.6-40.02-51.79-2.7-26.01,5.96-49.42,25.03-67.71,17.77-17.05,44.23-22.09,67.42-12.87l438.47,174.58c15.99,6.37,29.42,17.41,37.81,31.09,11.07,18.04,12.69,37.68,4.69,56.79-6.04,14.42-16.52,25.84-31.15,33.93-12.59,6.96-26.72,10.47-41.15,10.47ZM1468.76,2697.48c-9.13,0-18.06,3.41-24.77,9.84-12.96,12.43-18.6,27.64-16.78,45.2,1.33,12.81,10.31,24.29,22.87,29.22h0l427.13,167.94c17.65,6.94,36.59,6.06,51.93-2.42,9.25-5.12,15.53-11.85,19.19-20.59,4.59-10.98,3.68-21.45-2.79-31.99-5.33-8.7-14.08-15.8-24.64-20l-438.47-174.58c-4.44-1.77-9.08-2.63-13.67-2.63Z"/>
      </g>
    </g>
    <g class="cls-9">
      <path class="cls-14" d="M2352.1,1895.41c-23.33,22.55-48.43,43.29-75.07,61.93-19.37,13.64-39.51,26.15-60.43,37.51-88.49,48.11-189.93,75.44-297.75,75.44-48.79,0-96.22-5.59-141.78-16.14-38.38-8.96-75.39-21.37-110.68-37.01-59.02-26.15-196.05-79.89-210.79-166.64,33.83-47.11,105.75-12.47,105.75-12.47l171.79,76.71h461.12l113.09-55.25s15.91,10.14,44.74,35.92Z"/>
    </g>
    <g>
      <g>
        <path class="cls-12" d="M1343.24,1192.6c40.53-22.49,89.01,30.11,138.4,30.11,183.46,0,332.19-148.73,332.19-332.19s-148.73-332.19-332.19-332.19c-169.32,0-352.33,143.5-379.55,309.85-5.35,32.71,34.91,52.92,57.4,28.58.31-.33.62-.67.93-1.02,0,0-29.08,135.84-1.82,192.86,27.26,57.01,67.24,8.86,67.24,8.86,0,0,29.45,143.95,117.4,95.15Z"/>
        <path class="cls-2" d="M1255.83,890.52s-12.8,193.9,187.44,232.67c200.24,38.77,214.03-331.98,104.44-393.37s-268.25-47.61-291.87,160.7Z"/>
        <g class="cls-9">
          <path class="cls-14" d="M1255.83,890.52s32.71-94.84,130.84-98.27,40.48,91.67,40.48,91.67c0,0,70.85-73.09,147.3-121.05,0,0-46.08-88.08-167.2-64.99-121.13,23.09-134.46,111.4-151.42,192.63Z"/>
        </g>
        <g class="cls-7">
          <path class="cls-3" d="M1114.08,899.72c32.34-162.37,211.59-300.6,377.76-300.6,148.1,0,273.52,96.95,316.38,230.82-28.49-154.52-163.82-271.61-326.58-271.61s-352.33,143.5-379.55,309.85c-2.18,13.35,3.29,24.54,11.98,31.54Z"/>
        </g>
        <path class="cls-14" d="M1251.54,890.49c-6.31-63.64,21.25-130.14,71.47-170.15,69.93-52.9,176.1-56.17,241.88,5.35,14.2,12.75,26.7,27.24,36.7,43.5,1.5,2.44,2.76,4.56,4.35,7.6,3.5,6.67.92,14.91-5.75,18.41-6.53,3.42-14.56,1.03-18.18-5.33-.92-1.73-2.32-3.89-3.67-5.99-9.03-13.61-19.98-26.15-32.25-36.92-28.05-24.67-64.09-39.06-101.44-38.87-55.87.43-113.92,25.09-144.22,73.76-10.49,15.83-18.23,33.54-24.86,51.79-6.51,18.28-11.57,37.55-15.46,56.9-.55,4.88-8.05,4.99-8.58-.05h0Z"/>
        <path class="cls-14" d="M1481.64,1236.35c-24.01,0-46.24-10.17-67.74-20-25.11-11.48-46.78-21.39-64.04-11.83h0c-24.43,13.56-47.54,15.5-68.67,5.78-35.03-16.12-54.21-61.32-62.9-88.58-8.54,5.32-19.48,9.59-31.63,8.06-16.56-2.06-30.15-13.94-40.37-35.31-21.3-44.55-11.48-129.64-4.32-173.74-8.98,1.32-18.42-.13-27.3-4.47-19.28-9.4-29.5-29.15-26.04-50.29,13.39-81.83,64.92-164.1,141.39-225.72,75.36-60.73,167.08-95.57,251.62-95.57,190.69,0,345.83,155.14,345.83,345.83s-155.14,345.83-345.83,345.83ZM1365.28,1173.29c20.06,0,40.24,9.23,59.96,18.25,18.85,8.61,38.33,17.52,56.4,17.52,175.65,0,318.54-142.9,318.54-318.54s-142.9-318.55-318.54-318.55c-166.04,0-340.53,142.23-366.08,298.4-1.78,10.9,4.56,18.19,11.08,21.37,3.06,1.48,13.75,5.6,22.84-4.25l.78-.85c4.12-4.61,10.83-5.88,16.35-3.07,5.52,2.8,8.45,8.96,7.16,15.01-7.81,36.54-23.54,140.84-2.85,184.12,4.08,8.53,10.7,18.93,19.06,20,10,1.29,21.99-9.97,25.41-14.01,3.37-4,8.74-5.73,13.81-4.44,5.06,1.29,8.96,5.34,10.01,10.46,4.2,20.36,21.99,76.4,53.42,90.82,12.97,5.96,27.36,4.36,44-4.87,9.48-5.26,19.06-7.38,28.66-7.38ZM1343.24,1192.6h.05-.05Z"/>
      </g>
      <g>
        <path class="cls-12" d="M2587.58,1207.67c-39.56-20.8-83.42,33.75-130.43,35.79-174.63,7.56-322.63-134.9-330.57-318.19-7.93-183.29,127.2-338.01,301.83-345.57,161.17-6.98,341.58,128.85,374.68,293.92,6.51,32.46-30.94,54.31-53.4,30.92-.31-.32-.62-.65-.93-.98,0,0,33.55,134.52,10.07,192.6-23.48,58.08-63.62,11.62-63.62,11.62,0,0-21.81,145.03-107.64,99.89Z"/>
        <g class="cls-7">
          <path class="cls-3" d="M2136.78,960.95c-7.93-183.29,127.2-338.01,301.83-345.57,147.79-6.4,311.68,107.31,363.4,253.51-35.56-162.92-213.97-296.11-373.6-289.2-174.63,7.56-309.77,162.27-301.83,345.57,1.5,34.66,8.03,67.85,18.78,98.85-4.68-20.37-7.64-41.47-8.58-63.16Z"/>
        </g>
        <path class="cls-2" d="M2657.73,902.27s20.57,193.2-168.35,240.18c-188.93,46.98-218.09-322.86-116.42-388.7,101.67-65.84,253.28-58.62,284.78,148.52Z"/>
        <g class="cls-9">
          <path class="cls-14" d="M2657.73,902.27s-60.78-154.17-152.86-100.49c-92.07,53.68,0,239.03,0,239.03l-139.25-275s59.29-76.01,168.32-48.91c109.03,27.09,123.78,185.37,123.78,185.37Z"/>
        </g>
        <path class="cls-14" d="M2653.55,902.48c-16.81-71.64-50.74-148.71-128.18-168.13-54.28-15.85-110.14-4.88-150,36.27-9.63,9.67-18.15,20.64-25.42,32.21-2.47,3.98-4.96,8.31-6.67,11.91-3.21,6.61-11.17,9.38-17.78,6.17-14.36-7.85-4.27-22.24,1.3-32.04,8.02-13.72,17.77-26.25,28.83-37.68,22.07-22.99,51.19-40.37,82.68-47.26,52.03-10.98,108.88,1.27,151.08,33.49,33.11,26.04,55.67,63.89,66.24,103.98,5.06,19.87,7.84,40.07,6.3,60.66-.17,2.32-2.19,4.06-4.52,3.89-1.98-.15-3.5-1.63-3.85-3.48h0Z"/>
        <path class="cls-14" d="M2443.94,1257.06c-175.67.01-322.63-145.71-330.66-331.22-8.24-190.33,132.87-351.58,314.56-359.44,80.69-3.54,169.63,27.57,244.09,85.21,75.4,58.38,127.97,138.34,144.22,219.39,4.23,21.11-5.42,41.82-24.02,51.53-7.88,4.12-16.29,5.71-24.48,4.91,8.7,43.53,21.86,128.35,3.53,173.7-8.86,21.93-21.47,34.39-37.48,37.04-11.31,1.87-21.7-1.7-29.98-6.48-7.21,27.93-23.86,74.45-57.36,91.41-19.62,9.93-41.48,8.69-64.98-3.66-15.34-8.07-32.79.07-59.69,14.44-20.12,10.75-40.92,21.87-63.97,22.86-4.6.2-9.22.3-13.78.3ZM2440.54,592.75c-3.86,0-7.7.08-11.55.24-167.02,7.24-296.71,156.03-289.11,331.69,7.6,175.67,149.64,312.6,316.69,305.47,17-.74,35.08-10.4,52.57-19.75,27.38-14.63,55.69-29.75,84.64-14.53h0c15.63,8.23,28.88,9.38,40.52,3.49,29.79-15.05,44.57-72.66,47.75-93.58.78-5.14,4.48-9.36,9.48-10.8,5-1.45,10.37.15,13.77,4.08,4.2,4.78,15.62,14.28,24.1,12.84,8.14-1.39,14.21-13.59,17.1-20.74,17.91-44.31-1.61-148.13-10.65-184.39-1.47-5.89,1.23-12.03,6.56-14.92,5.34-2.9,11.95-1.82,16.09,2.61l.83.87c8.24,8.58,17.07,5.38,20.48,3.59,6.17-3.22,12.56-11.1,10.24-22.69-30.33-151.29-194.89-283.48-349.5-283.48Z"/>
      </g>
      <g>
        <circle class="cls-3" cx="1959.78" cy="1387.03" r="624.16"/>
        <g class="cls-9">
          <path class="cls-14" d="M2583.96,1387.04c0,81.17-15.51,158.69-43.65,229.81-98.99,213.99-315.62,362.5-566.89,362.5-344.72,0-624.14-279.42-624.14-624.14,0-45.06,4.77-88.99,13.82-131.32,8.41,316.39,267.51,570.35,585.94,570.35s586.17-262.46,586.17-586.17c0-25.01-1.59-49.61-4.64-73.8,34.29,77.26,53.38,162.79,53.38,252.78Z"/>
        </g>
        <g>
          <path class="cls-14" d="M2583.96,1375.58s1.77,212.58-83.8,323.98c-100.31,130.64-272.42,251.32-584.26,185.98-122.5-25.65-206.21-92.85-262.69-164.97-.41-.55-.86-1.09-1.27-1.64-101.17-130.55-117.95-307.61-48.65-457.67,66.62-144.28,207.08-304.93,502.28-304.93,408.11,0,468.31,290.2,476.99,387.69,1.77,19.73,1.41,31.56,1.41,31.56Z"/>
          <path d="M2583.96,1375.58s1.77,212.58-83.8,323.98c-100.31,130.64-272.42,251.32-584.26,185.98-122.5-25.65-206.21-92.85-262.69-164.97-.41-.55-.86-1.09-1.27-1.64,741.18,216.9,921.75-377.32,921.75-377.32,0,0,3.09.82,8.87,2.41,1.77,19.73,1.41,31.56,1.41,31.56Z"/>
          <g class="cls-7">
            <path class="cls-3" d="M2250.67,1047.77s175.04,127.5,157.75,499.19c0,0,240.95-380.34-157.75-499.19Z"/>
          </g>
          <g class="cls-7">
            <circle class="cls-3" cx="1790.06" cy="1348.87" r="70.62" transform="translate(171.87 2899.75) rotate(-80.78)"/>
          </g>
          <g class="cls-7">
            <circle class="cls-3" cx="1813.83" cy="1572.53" r="54.34" transform="translate(-580.69 1743.16) rotate(-45)"/>
          </g>
          <path class="cls-14" d="M2084.04,1916.03c-51.71,0-108.41-5.8-170.58-18.82-108.79-22.79-199.5-79.76-269.61-169.32-104.41-133.39-124.1-314.1-51.38-471.61,65.69-142.27,208.02-311.86,513.1-311.86,161.35,0,286.54,44.66,372.09,132.73,121.77,125.36,118.38,291.73,118.17,298.75-.19,6.57-5.66,11.92-12.23,11.54-6.57-.19-11.74-5.66-11.56-12.23.04-1.62,3.12-163.72-111.66-281.69-80.9-83.15-200.28-125.31-354.82-125.31-292.49,0-428.72,162.08-491.49,298.04-68.96,149.36-50.37,320.62,48.51,446.96,66.55,85.02,152.6,139.09,255.75,160.7,317.73,66.54,486.52-61.84,572.15-181.28,3.83-5.34,11.27-6.56,16.6-2.74,5.34,3.83,6.57,11.26,2.74,16.61-72.86,101.63-202.79,209.53-425.79,209.53Z"/>
        </g>
        <path class="cls-14" d="M2069.11,1969.44c-10.1,0-20.22-.31-30.38-.93-170.86-10.47-312.94-69.63-410.88-171.1-94.71-98.13-144.78-231.36-144.78-385.26,0-305.75,256.81-564.07,560.9-564.32,14.5-1.04,229.28-14,396.89,123.39,5.08,4.17,5.83,11.67,1.66,16.75-4.17,5.08-11.67,5.83-16.75,1.66-162.28-133.02-378.27-118.18-380.44-118.03l-.91.03c-291.38,0-537.55,247.53-537.55,540.52,0,308.37,204.35,512.46,533.31,532.6,131.88,8.08,259.63-39.34,359.74-133.51,109.38-102.89,172.11-248.35,172.11-399.1,0-6.57,5.33-11.9,11.9-11.9s11.9,5.33,11.9,11.9c0,157.29-65.46,309.07-179.61,416.44-97.25,91.47-219.51,140.85-347.12,140.85Z"/>
        <path class="cls-14" d="M1959.78,2024.84c-351.69,0-637.81-286.12-637.81-637.8s286.12-637.8,637.81-637.8,637.8,286.12,637.8,637.8-286.12,637.8-637.8,637.8ZM1959.78,776.52c-336.64,0-610.52,273.88-610.52,610.52s273.88,610.52,610.52,610.52,610.52-273.88,610.52-610.52-273.88-610.52-610.52-610.52Z"/>
      </g>
      <g>
        <path class="cls-12" d="M2584.99,1302.57c-4.33.66-7.19.15-7.19.15-44.51-177.73-169.93-207.55-169.93-207.55-190.78,218.06-456.1,12.75-456.1,12.75-290.76,79.94-448.86,203.53-448.86,203.53l-189,10.91c-54.5-12.75-48.38-69.08-48.38-69.08,24.12-193.94,122.16-363.82,275.97-474.4v-.05c.05-.05.1-.05.1-.05,117.16-84.33,266.64-134.24,440.5-134.24,132.05,0,242.89,35.08,333.18,88.3,105.54,62.2,182.98,149.23,233.3,234.01,37.83,63.58,60.42,125.93,68.27,175.59,21.62,136.74-15.5,157.44-31.86,160.14Z"/>
        <path class="cls-15" d="M1952.23,1107.9s-26.15-14.39-37.86-49.97c-11.71-35.59,48.26-200.35,288.74-185.81,240.48,14.54,261.48,190.51,205.25,223.07-56.23,32.56-166.07,204.89-456.13,12.72Z"/>
        <g class="cls-9">
          <path class="cls-14" d="M2596.16,1262.6c-4.13,2.55-8,3.77-11.17,4.28-4.33.66-7.19.15-7.19.15-44.51-177.73-144.76-197.85-144.76-197.85-167.31,289.39-499.74,11.42-499.74,11.42-290.76,79.94-430.39,195.15-430.39,195.15l-189,10.91c-6.53-1.53-12.24-3.67-17.13-6.32-1.43-9.74-.66-16.88-.66-16.88,17.64-141.73,74.74-270.67,164.37-372.94-29.57,55.52-53.43,127.25-42.52,204.65,19.53,139.08,311.51-12.9,423.52-76.73,25.54-14.58,57.31-12.08,80.45,6.07,58.17,45.78,175.89,124.14,290.76,115.48,88.61-6.63,145.4-43.69,178.6-75.71,27.17-26.21,70.41-26.31,98.14-.76,50.98,46.96,114.87,122.26,106.71,199.09Z"/>
        </g>
        <g>
          <g class="cls-7">
            <path class="cls-3" d="M1285.93,1288.96c24.12-193.94,122.16-363.82,275.97-474.4v-.05c.05-.05.1-.05.1-.05,117.16-84.33,266.64-134.24,440.5-134.24,132.05,0,242.89,35.08,333.18,88.3,102.44,60.38,178.33,144.14,228.72,226.54-4.95-9.36-10.19-18.77-15.82-28.22-50.32-84.79-127.76-171.81-233.3-234.01-90.29-53.23-201.13-88.3-333.18-88.3-173.85,0-323.34,49.91-440.5,134.24,0,0-.05,0-.1.05v.05c-153.82,110.58-251.86,280.46-275.97,474.4,0,0-3.81,35.39,21.75,56.42-2.33-11.67-1.36-20.73-1.36-20.73Z"/>
          </g>
          <g class="cls-7">
            <path class="cls-3" d="M2551.06,1228.33c10.42,21.35,19.62,45.95,26.74,74.39,0,0,2.85.51,7.19-.15.72-.12,1.48-.29,2.27-.48-10.24-29.13-22.73-53.48-36.2-73.75Z"/>
          </g>
        </g>
        <g>
          <path class="cls-14" d="M1942.76,1117.72c-14.44-17.08-27.09-36.32-29.97-59.02-.09-1.03.67-1.95,1.7-2.04.53-.05,1.02.13,1.39.45,4.25,3.67,8.13,7.24,11.94,10.78,6.53,6.14,15.87,14.59,22.72,20.51,0,0,11.15,9.68,11.15,9.68,14.13,12.87-5.53,33.31-18.93,19.64h0Z"/>
          <path class="cls-14" d="M2397.2,1087.33c7.67-11,18.1-19.21,30.07-26.17,13.55-5.46-4.11,38.48-7.76,41.87-10.71,14.79-32.58-.61-22.31-15.7h0Z"/>
        </g>
        <path class="cls-14" d="M1314.38,1335.98c-1.04,0-2.08-.12-3.1-.36-52.43-12.24-61.41-60.19-58.83-83.82,21.58-173.48,102.51-330.11,227.92-441.23,132.67-117.56,306.33-179.71,502.2-179.71,227.73,0,379.94,102.3,467.52,188.12,113.38,111.1,167.7,238.83,180.72,321.31,13.16,83.35,6.94,138.16-18.49,162.91-16.54,16.1-34.56,13.31-36.56,12.93-5.25-.98-9.44-4.92-10.74-10.1-35.83-143-125.88-185.58-152.39-195.21-80.95,88.18-187.06,117.8-307.42,85.66-77.8-20.77-137.62-60.68-155.75-73.68-280.34,78.25-436.15,198.15-437.71,199.37-2.18,1.7-4.84,2.71-7.61,2.87l-188.99,10.9c-.26.01-.52.02-.79.02ZM1982.57,658.14c-376.09,0-658.61,239.84-703.02,596.82-.41,4.22-3.09,43.3,36.11,53.64l182.77-10.55c25.22-18.87,180-129,450.19-203.31,4.14-1.14,8.57-.25,11.96,2.36.65.5,65.8,50.28,152.46,73.23,113.9,30.16,209.81,1.85,285.06-84.15,3.33-3.81,8.49-5.46,13.42-4.29,5.33,1.27,128.3,32.43,176.79,205.45,1.76-.94,3.69-2.32,5.64-4.36,10.19-10.61,25.04-42.71,9.92-138.45-24.06-152.38-213.91-486.41-621.3-486.41Z"/>
        <ellipse class="cls-14" cx="2441.67" cy="867.9" rx="75.6" ry="98.37"/>
        <ellipse class="cls-3" cx="2425.49" cy="848.24" rx="28.03" ry="36.47"/>
        <path class="cls-14" d="M2214.72,1078.97s82.99,2.12,97.52-95.56c14.54-97.68-99.95-198.84-153.25-203.08s-93.89,78.14-101.77,149.32c-7.87,71.17,49.67,152.95,157.49,149.31Z"/>
        <g class="cls-10">
          <path class="cls-3" d="M2188.23,822.59c34.69,10.28,61.47,39.72,72.75,73.43,3.87,11.35,5.27,23.6,4.1,35.6-.58,5.96-5.89,10.31-11.84,9.73-3.39-.33-6.25-2.19-7.99-4.82-15.96-26.58-28.36-52.41-46.04-77.76-5.67-8.68-12-17.58-17.83-26.85-3.11-4.56,1.66-10.92,6.86-9.32h0Z"/>
        </g>
        <ellipse class="cls-14" cx="1828.66" cy="875.98" rx="93.82" ry="113.67" transform="translate(-143.42 404.55) rotate(-12.15)"/>
        <ellipse class="cls-3" cx="1843.51" cy="849.55" rx="34.79" ry="42.15" transform="translate(-137.52 407.08) rotate(-12.15)"/>
      </g>
      <g>
        <g>
          <path class="cls-3" d="M1582.72,1463.07c0,108.04-51.29,195.57-114.54,195.57h-87.62c15.51,0,30.28-5.27,43.79-14.82,41.56-29.37,70.75-99.22,70.75-180.75,0-8.5-.32-16.87-.96-25.1-5.27-70.53-32.56-129.32-69.8-155.6-13.51-9.59-28.28-14.87-43.79-14.87h87.62c49.7,0,91.99,54.07,107.86,129.59,4.32,20.64,6.68,42.83,6.68,65.98Z"/>
          <g class="cls-11">
            <path class="cls-14" d="M1380.56,1658.64c.91,0,1.77,0,2.68-.05,0,0-.05,0-.05.05h-2.64Z"/>
          </g>
          <g class="cls-9">
            <path class="cls-14" d="M1582.72,1463.07c0,40.61-7.23,78.3-19.64,109.54-40.74,49.34-111.22,50.11-111.22,50.11,0,0-3.32,1.5-8.59,4.05,31.24-34.92,51.84-95.22,51.84-163.7,0-8.5-.32-16.87-.96-25.1,75.12,2.18,74.39-41.88,74.39-41.88,0,0,2.64.32,7.5,1,4.32,20.64,6.68,42.83,6.68,65.98Z"/>
          </g>
          <path class="cls-14" d="M1468.18,1672.51h-87.62v-27.74c12.22,0,24.26-4.13,35.78-12.28,38.82-27.43,64.89-95.52,64.89-169.42s-26.07-141.99-64.88-169.37c-11.53-8.19-23.56-12.33-35.79-12.33v-27.74h87.62c72.01,0,128.41,92,128.41,209.44s-56.41,209.44-128.41,209.44ZM1445.03,1644.77h23.15c54.57,0,100.67-83.21,100.67-181.7s-46.1-181.7-100.67-181.7h-23.18c39.26,36.7,63.97,105.73,63.97,181.7s-24.69,144.93-63.94,181.7Z"/>
        </g>
        <g>
          <path class="cls-3" d="M1495.1,1463.07c0,81.53-29.19,151.37-70.75,180.75-13.51,9.55-28.28,14.82-43.79,14.82-63.25,0-114.54-87.53-114.54-195.57s51.29-195.57,114.54-195.57c15.51,0,30.28,5.27,43.79,14.87,41.56,29.33,70.75,99.22,70.75,180.7Z"/>
          <g class="cls-9">
            <path class="cls-14" d="M1494.74,1447.34c-3.59,74.53-31.6,137.23-70.39,164.65-13.51,9.55-28.28,14.82-43.79,14.82-60.11,0-109.4-79.07-114.13-179.66,0-1.41.09-2.77.18-4.14,20.46,53.2,55.7,88.31,95.76,88.31,15.51,0,30.28-5.27,43.79-14.82,38.11-26.96,65.75-87.94,70.07-160.79,10.32,26.69,16.92,57.98,18.51,91.62Z"/>
          </g>
          <path class="cls-14" d="M1380.56,1672.51c-72.01,0-128.41-92-128.41-209.44s56.41-209.44,128.41-209.44c18.11,0,35.54,5.86,51.82,17.43,46.51,32.82,76.59,108.2,76.59,192.01s-30.08,159.18-76.62,192.08c-16.29,11.52-33.72,17.37-51.8,17.37ZM1380.56,1281.37c-54.57,0-100.67,83.21-100.67,181.7s46.1,181.7,100.67,181.7c12.22,0,24.26-4.13,35.78-12.28,38.82-27.43,64.89-95.52,64.89-169.42s-26.07-141.99-64.88-169.37c-11.53-8.19-23.56-12.33-35.79-12.33Z"/>
        </g>
      </g>
    </g>
  </g>
</svg>