<?xml version="1.0" encoding="UTF-8"?>
<svg id="Layer_1" data-name="Layer 1" xmlns="http://www.w3.org/2000/svg" xmlns:xlink="http://www.w3.org/1999/xlink" viewBox="0 0 4000 4000">
  <defs>
    <style>
      .cls-1 {
        mask: url(#mask);
      }

      .cls-2 {
        fill: #f99;
      }

      .cls-2, .cls-3, .cls-4, .cls-5, .cls-6, .cls-7 {
        fill-rule: evenodd;
      }

      .cls-3, .cls-8 {
        fill: #fff;
      }

      .cls-9, .cls-7 {
        fill: #471863;
      }

      .cls-10 {
        fill: url(#linear-gradient);
      }

      .cls-4 {
        fill: #ffcaa1;
      }

      .cls-5 {
        fill: #d3613b;
      }

      .cls-6 {
        fill: #ff1b40;
      }

      .cls-11 {
        fill: #c5c5ff;
      }

      .cls-12 {
        opacity: .2;
      }

      .cls-13 {
        opacity: .3;
      }

      .cls-14 {
        fill: #b199c5;
      }
    </style>
    <linearGradient id="linear-gradient" x1="2151.72" y1="1956.88" x2="2264.97" y2="1286.39" gradientTransform="translate(97.06 -113.31)" gradientUnits="userSpaceOnUse">
      <stop offset="0" stop-color="#fff"/>
      <stop offset="1" stop-color="#000"/>
    </linearGradient>
    <mask id="mask" x="2042.95" y="1168.18" width="580.05" height="353.92" maskUnits="userSpaceOnUse">
      <rect class="cls-10" x="2042.95" y="1168.18" width="580.05" height="353.92"/>
    </mask>
  </defs>
  <rect class="cls-11" width="4000" height="4000"/>
  <g>
    <path class="cls-3" d="M3105.33,1288.6c41.73,142.13,36.58,275.89-15.47,401.3,76.48-35.91,126.55-111.5,129.8-195.92,3.26-84.45-40.83-163.68-114.33-205.38Z"/>
    <path class="cls-9" d="M3089.87,1708.25c-4.62,0-9.19-1.75-12.68-5.08-5.48-5.23-7.18-13.3-4.27-20.3,50.15-120.84,55.13-251.76,14.81-389.1-2.1-7.17.35-14.9,6.21-19.55,5.85-4.64,13.94-5.27,20.44-1.58,79.78,45.27,127.14,130.35,123.61,222.04-3.53,91.67-57.3,172.83-140.33,211.82-2.5,1.17-5.15,1.74-7.79,1.74ZM3135.81,1333.57c23.87,108.7,20.31,213.48-10.6,312.64,45.62-37.13,73.79-92.33,76.12-152.93,2.36-61.28-22.03-119.09-65.53-159.7Z"/>
    <circle class="cls-8" cx="2341.35" cy="1341.68" r="739.42"/>
    <path class="cls-6" d="M3089.54,1964.08c-131.19-139.69-458.02,41.73-836.7,102.09-187.08,29.81-422.11-17.62-369.03,281.57,52.03,220.13,162.95,417.35,316.61,568.83,161.7,142.87,366.04,239.99,589.26,276.74,302.12,32.4,238.64-198.81,255.53-387.49,34.18-381.94,192.71-720.46,44.33-841.74Z"/>
    <path class="cls-9" d="M2843.11,3214.7c-17.3,0-35.75-1.05-55.39-3.16-.34-.04-.68-.08-1.02-.14-225.37-37.1-432.3-134.3-598.43-281.09-.25-.22-.49-.44-.73-.68-157.84-155.61-269.04-355.36-321.58-577.68-.08-.34-.15-.67-.21-1.02-16.51-93.05-7.19-160.77,28.51-207.05,52.95-68.64,154.89-76.93,253.47-84.96,34.06-2.77,69.28-5.63,102.23-10.88,126.71-20.2,249.58-54.63,357.98-85,223.06-62.5,399.38-111.91,494.14-12.41,105.77,87.67,68.61,266.97,21.59,493.79-22.85,110.25-48.75,235.2-60.19,363.02-2.97,33.23-3.41,68.57-3.83,102.74-1.23,98.89-2.49,201.15-67.33,258.69-34.58,30.68-83.69,45.83-149.21,45.83ZM2792.15,3175.12c82.83,8.81,140.35-2.21,175.82-33.69,52.7-46.77,53.81-136.59,54.99-231.69.43-34.86.88-70.92,3.98-105.56,11.63-129.93,37.75-255.98,60.81-367.2,44.63-215.31,79.88-385.39-9.82-458.7-.62-.51-1.21-1.06-1.76-1.65-79.31-84.45-246.56-37.59-458.33,21.74-109.36,30.64-233.31,65.37-362.11,85.9-34.34,5.47-70.27,8.4-105.02,11.22-94.8,7.71-184.36,15-227.39,70.8-28.96,37.55-36.01,95.69-21.52,177.71,50.96,215.21,158.55,408.54,311.16,559.13,160.75,141.91,361.03,235.95,579.2,271.97Z"/>
    <path class="cls-3" d="M2282.2,2982.28c95.91,70.02,203.49,125.55,318.8,164.22,6.67-13.46,12.33-27.77,16.8-42.87,34.44-116.12-14.29-232.97-108.83-260.99-89.03-26.4-186.9,35.38-226.76,139.64ZM3045.52,2802.41c11.31-123.54,35.48-242.48,57.95-350.91-16.06-3.93-32.93-6.02-50.32-6.02-107.73,0-195.04,79.95-195.04,178.55s83.23,174.7,187.41,178.38ZM2697.1,2307.77c107.2,100.13,129.54,250.46,49.84,335.81-79.69,85.4-231.18,73.45-338.42-26.65-107.23-100.1-129.56-250.44-49.88-335.78,79.7-85.4,231.23-73.45,338.46,26.62Z"/>
    <path class="cls-9" d="M2601.01,3161.79c-1.62,0-3.26-.25-4.86-.8-116.67-39.12-225.32-95.09-322.96-166.37-5.57-4.07-7.73-11.36-5.26-17.81,43.38-113.47,148.88-177.43,245.39-148.84,50.21,14.88,90.19,52.61,112.55,106.23,21.91,52.53,24.25,114.24,6.6,173.76-4.62,15.61-10.59,30.85-17.76,45.31-2.64,5.33-8.02,8.5-13.7,8.5ZM2300.9,2976.92c88.94,63.5,187.06,114.12,292.02,150.66,3.96-9.18,7.38-18.66,10.23-28.29,15.66-52.81,13.71-107.26-5.5-153.32-18.75-44.97-51.79-76.46-93.02-88.68-78.04-23.14-163.86,27.98-203.72,119.62ZM3045.53,2817.69c-.19,0-.37,0-.55,0-113.36-4.01-202.16-89.07-202.16-193.66s94.35-193.84,210.33-193.84c18.27,0,36.42,2.17,53.96,6.46,8,1.95,13.01,9.89,11.34,17.95-20.53,99.09-46.09,222.41-57.7,349.21-.72,7.89-7.35,13.89-15.21,13.89ZM3053.15,2460.76c-99.12,0-179.75,73.24-179.75,163.27,0,83.64,68.46,152.49,158.33,162.09,11.69-116.86,34.39-229.53,53.67-322.72-10.61-1.75-21.4-2.63-32.25-2.63ZM2607.33,2715.88c-6.73,0-13.56-.27-20.47-.82-67.34-5.31-134.38-36.19-188.77-86.95-54.38-50.77-89.79-115.53-99.72-182.36-10.12-68.12,7.32-130.28,49.1-175.04,41.79-44.77,102.65-66.43,171.28-61.05,67.36,5.3,134.4,36.17,188.78,86.93,0,0,0,0,0,0,113.2,105.72,135.89,266.06,50.58,357.42-37.57,40.27-90.55,61.86-150.78,61.86ZM2498.4,2239.43c-51.73,0-96.9,18.19-128.58,52.14-35.3,37.81-49.93,90.96-41.21,149.68,8.92,60.01,41,118.44,90.34,164.5,49.35,46.06,109.83,74.06,170.31,78.82,59.25,4.63,111.21-13.6,146.5-51.43,73.81-79.04,51.78-219.99-49.1-314.21h0c-49.35-46.05-109.83-74.03-170.32-78.8-6.06-.47-12.05-.71-17.94-.71Z"/>
    <path class="cls-4" d="M1508.33,3188.97c-191.46-218.17-223.87-502.79-72.36-635.74,43.89-38.52,98.42-60.04,158.37-65.91l-.02-.03.81-.05c6.01-.6,12.09-1,18.19-1.25,96.93-7.26,252.69-51.53,287.36-74.6,77.15,229.74,162.67,434.74,389.08,575-27.37,31.38-50.98,94.65-70.78,189.83-1.05,6-2.24,11.97-3.6,17.87l-.16.79-.03-.03c-13.61,58.67-42.04,109.96-85.93,148.47-151.51,132.95-429.49,63.82-620.95-154.37Z"/>
    <path class="cls-9" d="M1936.9,3435.56c-34.83,0-71.36-4.63-109.02-13.99-122.07-30.35-242.08-107.23-337.93-216.46-95.85-109.23-156.48-238.22-170.71-363.19-14.6-128.28,21.12-237.32,100.6-307.07,45.86-40.25,104.91-65.04,170.82-71.74.77-.12,1.55-.2,2.34-.24h.26c5.87-.59,12.14-1.02,18.63-1.29,94.79-7.19,244.97-50.41,275.24-70.54,6.34-4.21,14.28-5.24,21.47-2.77,7.2,2.47,12.84,8.14,15.26,15.35,75.93,226.14,156.85,424.52,378.77,562,6.1,3.78,10.23,10.05,11.3,17.15,1.07,7.1-1.04,14.31-5.75,19.72-16.81,19.27-41.76,65.86-65.19,178.36-1.12,6.37-2.37,12.57-3.72,18.43l-.1.5c-.13.62-.28,1.25-.45,1.85-15.21,64.51-47.47,119.84-93.33,160.1-55.59,48.77-127.46,73.84-208.51,73.84ZM1597.01,2511.64c-.09,0-.18.01-.27.02-56.99,5.58-105.65,25.75-144.62,59.95-67.08,58.86-97,152.89-84.26,264.77,13.11,115.16,69.53,234.65,158.87,336.46h0c89.34,101.82,200.49,173.29,312.97,201.25,109.29,27.17,206.4,9.71,273.46-49.14,38.97-34.2,65.29-79.83,78.23-135.62.05-.21.1-.41.15-.62,0-.03.02-.07.02-.11,1.21-5.24,2.33-10.83,3.34-16.61.04-.25.09-.5.15-.76,16.96-81.58,36.65-140.3,59.82-178.18-210.2-139.6-296.65-337.71-368.4-547.41-61.95,25.83-188.76,58.54-271.32,64.73-.27.02-.55.04-.83.05-5.9.24-11.54.63-16.75,1.15-.19.02-.37.04-.56.05Z"/>
    <g class="cls-13">
      <path class="cls-7" d="M3082.8,1957.36c-135.38-126.92-457.59,49.47-829.95,108.81-187.08,29.81-422.11-17.62-369.03,281.57,13.94,59.02,32.13,116.35,54.22,171.64,7.96-16.87,8.61-32.1,1.94-45.73,224.04,108.41,380.57,82.86,469.65-76.66,34.2-121.75-19.47-206.5-161.02-254.24,145.54,17.02,267.79,4.75,366.8-36.88,234.46,124.98,390.26,75.47,467.4-148.5"/>
    </g>
    <g class="cls-13">
      <path class="cls-7" d="M2326.38,2494.27c-27.9-77.53-18.65-158.6,32.26-213.12,12.02-12.89,25.68-23.54,40.57-32,23.1,41.01,26.57,90.27,10.41,147.83-23.17,41.53-50.93,73.93-83.24,97.29"/>
    </g>
    <g class="cls-13">
      <path class="cls-7" d="M1929.16,2534.54c3.78-5.5,6.93-10.87,9.31-16.06-13.16-34.99-25.59-70.72-37.8-107.07-5.15,3.43-13.02,7.33-22.92,11.5-.53-.18-.83.03-1.02.44-57.25,23.87-181.38,56.51-263.41,62.66-6.1.25-12.18.65-18.19,1.25l-.81.05.02.03c-59.95,5.87-114.48,27.4-158.37,65.91-71.59,62.82-102.06,159.52-94.15,267.05-.01-.03-.03-.06-.04-.09.04.55.12,1.11.16,1.66.52,6.82,1.18,13.67,2.01,20.56.06.49.13.98.19,1.46.88,7.11,1.91,14.25,3.11,21.42.04.22.07.44.1.66,1.2,7.08,2.58,14.2,4.09,21.34.19.91.37,1.81.57,2.72,1.17,5.38,2.39,10.77,3.74,16.18.05.04.09.07.13.11,23.78,95.48,75.06,194.49,152.42,282.68,191.47,218.17,469.45,287.29,620.95,154.34,43.9-38.54,72.33-89.8,85.94-148.47l.04.03.15-.8c1.37-5.9,2.55-11.85,3.6-17.87,19.79-95.18,43.41-158.45,70.78-189.85-113.72-45.96-277.52-301.09-360.61-451.84ZM2032.99,3160.88c-159,244.57-400.92,186.98-628.36-218.81,41.22,25.99,79.62,38.74,115.18,38.11,83.77,157.51,189.44,201.42,300.8,110.63,154.77-126.2,147.73-286.27-3.88-459.97,28.45-18.45,52.1-35.83,71.05-52.18,54.41,211.58,242.57,413.5,145.22,582.22Z"/>
    </g>
    <path class="cls-3" d="M2348.6,613.35c413.93,0,743.74,300.92,764.14,702.35l6.83,18.04c15.79,48.1,13.53,26.9,13.53,149.47s-93.13,356.01-269.95,461.31l-20.42,14.88c-581.82,336.26-1255.53,50.41-1255.53-586.32,0-419.59,347.47-759.73,761.38-759.73Z"/>
    <path class="cls-9" d="M2334.81,2119.95c-149.3,0-291.05-36.41-411.53-105.94-225.23-129.97-354.41-363.58-354.41-640.94,0-207.13,82-402.54,230.9-550.23,148.12-146.92,343.03-227.84,548.83-227.84,424.23,0,760.04,307.96,782.31,716.87l5.82,15.37c.1.26.19.52.27.78,1.66,5.04,3.11,9.31,4.38,13.06,10.33,30.33,10.32,33.03,10.13,102.09-.03,11.33-.07,24.53-.07,40.04,0,130.2-96.66,368.05-278.16,476.63l-19.74,14.38c-.52.38-1.06.73-1.63,1.06-154.87,89.51-324.29,139.39-489.93,144.27-9.08.26-18.15.4-27.18.4ZM2348.6,631.7c-409.71,0-743.04,332.58-743.04,741.38,0,263.89,122.49,485.92,336.06,609.16,254.38,146.79,595.74,132.13,891.11-38.24l19.62-14.3c.46-.33.93-.65,1.42-.94,168.05-100.08,260.99-326.98,260.99-445.55,0-15.55.03-28.78.07-40.14q.18-65.63-8.17-90.16c-1.28-3.76-2.73-8.03-4.38-13.05l-6.69-17.66c-.67-1.78-1.06-3.66-1.16-5.57-19.85-390.47-340.48-684.93-745.82-684.93Z"/>
    <g class="cls-12">
      <path class="cls-7" d="M1663.87,1714.69c-30.88-61.78-53.22-130.26-65.58-204.76-4.76-275.87,55.61-488.81,181.12-638.85,48.04-53.99,103.51-101.2,164.72-139.91,99.81-59.77,221.18-98.66,364.14-116.72l.6-.05c39.1,46.83,71.51,101.59,97.2,164.32-26.3-8.98-58-44.24-95.09-105.77-69.3-1.14-112.33,9.53-129.06,32.02,6.79,11.92,12.61,27.1,17.45,45.61,20.38,97.59-13.76,146.03-85.39,106.75-58.82-32.25-89.92-59.99-117.41-48.52-164.99,96.92-283.59,256.61-328.68,442.58-45.08,185.94-12.77,382.24,89.51,543.95-37.47-16.2-68.64-43.1-93.53-80.64Z"/>
    </g>
    <path class="cls-3" d="M2421.79,905.84c392.85,0,711.32,261.16,711.32,583.31s-318.47,583.31-711.32,583.31-711.33-261.16-711.33-583.31,318.47-583.31,711.33-583.31Z"/>
    <path class="cls-9" d="M2421.79,2087.76c-400.66,0-726.62-268.53-726.62-598.6s325.96-598.6,726.62-598.6,726.61,268.53,726.61,598.6-325.95,598.6-726.61,598.6ZM2421.79,921.13c-383.8,0-696.04,254.81-696.04,568.02s312.24,568.03,696.04,568.03,696.03-254.81,696.03-568.03-312.24-568.02-696.03-568.02Z"/>
    <path class="cls-7" d="M2421.79,1013.68c344.59,0,623.94,221.58,623.94,494.88s-279.35,494.88-623.94,494.88-623.94-221.58-623.94-494.88,279.34-494.88,623.94-494.88Z"/>
    <path class="cls-9" d="M2421.79,2021.78c-354.16,0-642.29-230.23-642.29-513.22s288.12-513.22,642.29-513.22,642.29,230.23,642.29,513.22-288.12,513.22-642.29,513.22ZM2421.79,1032.02c-333.93,0-605.61,213.77-605.61,476.54s271.67,476.54,605.61,476.54,605.61-213.77,605.61-476.54-271.67-476.54-605.61-476.54Z"/>
    <path class="cls-3" d="M2958.41,1872.06c26.15-24.41,50.64-52,73.44-82.78,40.68,108.51.81,230.73-96.03,294.38-96.85,63.65-224.85,51.78-308.32-28.61,33.01-10.87,59.02-20.3,78.07-28.32,53.85,27.82,118.29,25.5,169.98-6.12,51.69-31.62,83.12-87.96,82.87-148.55Z"/>
    <path class="cls-9" d="M2799.31,2140.09c-66.11,0-131.62-25.12-182.42-74.04-3.86-3.72-5.49-9.18-4.3-14.41s5.03-9.44,10.12-11.12c32.52-10.71,58.41-20.1,76.93-27.88,4.17-1.76,8.91-1.57,12.94.51,48.77,25.2,108.16,23.06,154.99-5.58,46.84-28.65,75.79-80.55,75.56-135.44-.01-4.26,1.74-8.34,4.86-11.24,25.36-23.67,49.44-50.82,71.58-80.71,3.33-4.5,8.84-6.84,14.41-6.04,5.55.78,10.22,4.53,12.19,9.77,43.48,115.98,1.56,244.49-101.95,312.52-44.58,29.3-94.92,43.66-144.91,43.66ZM2657.73,2060.99c78.06,60.29,185.5,65.22,269.7,9.9,83.46-54.85,121.62-154.19,98.5-249.03-16.62,20.47-34.14,39.51-52.32,56.88-2.04,63-36.11,121.89-90.08,154.91-53.82,32.92-121.57,36.51-178.51,9.84-12.99,5.25-28.81,11.1-47.28,17.49Z"/>
    <path class="cls-3" d="M2676.99,2037.93c59.21-21.22,121.26-52.38,186.18-93.41,1.71,44.84,24.79,60.22-63.02,106.64-72.2,38.2-88.27,14.95-123.17-13.24Z"/>
    <path class="cls-9" d="M2738.61,2083.51c-24.09,0-40.6-12.17-60.39-28.71-2.86-2.39-5.81-4.85-8.91-7.36-3.44-2.78-5.11-7.19-4.38-11.55.74-4.36,3.77-7.98,7.93-9.47,58-20.79,119.83-51.82,183.77-92.23,3.69-2.34,8.36-2.52,12.23-.48,3.87,2.04,6.36,5.99,6.52,10.36.29,7.5,1.23,14.16,2.14,20.6,5,35.31,4.13,57.25-71.66,97.32-28.94,15.31-50.04,21.54-67.27,21.54ZM2701.06,2041.96c23.74,19.28,40.14,26.56,93.38-1.61,64.29-33.99,62.59-45.99,58.88-72.28-.13-.91-.26-1.85-.4-2.79-52.32,31.93-103.24,57.64-151.86,76.67Z"/>
    <path class="cls-5" d="M3050.75,1464.32c-2.05,18.71-5.14,37.47-9.34,56.26-13.44,60.14-37.07,115.5-68.79,164.92,7.38,14.23,13.31,28.59,17.7,42.95-101.46,164.4-314.41,277.61-560.72,277.61-43.88,0-86.69-3.61-128.02-10.45-288.92-79.47-488.08-263.8-451.82-426.03,10.27-45.91,38.36-85.37,80.04-117.22-7.65-58.23-5.45-118.39,8-178.53,7.63-34.09,18.53-66.61,32.3-97.39,114.04-98.46,277.68-160.14,459.51-160.14,324.67,0,591.38,196.69,621.14,448.03Z"/>
    <path class="cls-9" d="M2429.6,2021.34c-43.89,0-87.8-3.58-130.51-10.65-.53-.09-1.04-.2-1.56-.34-301.8-83.02-500.71-273.94-462.69-444.1,10.28-45.98,36.75-86.51,78.73-120.57-6.72-58.59-3.6-117.48,9.31-175.19,7.71-34.45,18.9-68.2,33.26-100.3.92-2.04,2.27-3.86,3.96-5.32,120.61-104.13,291.73-163.86,469.5-163.86,159.56,0,312.32,47.12,430.15,132.68,117.99,85.68,191.22,202.46,206.18,328.84.14,1.15.14,2.31.01,3.47-2.14,19.45-5.38,38.94-9.62,57.93-12.89,57.67-35.14,112.29-66.18,162.45,6.02,12.52,10.99,25.14,14.8,37.6,1.28,4.2.7,8.76-1.61,12.5-52.09,84.4-132.36,155.66-232.15,206.07-102.05,51.55-220.16,78.8-341.57,78.8ZM2304.87,1980.65c40.82,6.71,82.78,10.11,124.74,10.11,232.11,0,439.78-101.15,543.98-264.41-3.82-11.22-8.7-22.56-14.54-33.83-2.51-4.85-2.25-10.68.71-15.29,31.54-49.16,53.99-102.99,66.73-160,3.88-17.33,6.86-35.1,8.87-52.86-30.33-246.87-290.37-432.81-605.76-432.81-169.27,0-331.94,56.17-446.93,154.21-12.87,29.3-22.94,60.03-29.96,91.37-12.75,57.05-15.37,115.32-7.76,173.2.71,5.42-1.53,10.82-5.87,14.14-40.14,30.68-65.18,67.15-74.4,108.41-33.81,151.29,159.5,330.3,440.19,407.74Z"/>
    <path class="cls-4" d="M2372.74,1067.6c70.19,15.7,127.31,58.6,162.72,115.08,56.92-38.39,128.91-54.24,201.21-38.07,190.46,42.6,284.72,329.01,92.19,464.13,58.42-2.91,113.7,26.6,143.77,76.76,7.38,14.23,13.31,28.59,17.7,42.95-101.46,164.4-314.41,277.61-560.72,277.61-43.88,0-86.69-3.61-128.02-10.45-288.92-79.47-488.08-263.8-451.82-426.03,10.27-45.91,38.36-85.37,80.04-117.22,50.61-23.56,105.3-23.61,164.11-.2h.02c-32.54-54.74-45.06-121.5-30.08-188.53,31.18-139.41,169.47-227.18,308.89-196.02Z"/>
    <path class="cls-9" d="M2429.6,2018.28c-43.73,0-87.47-3.57-130.01-10.61-.42-.07-.83-.16-1.25-.27-300.2-82.58-498.18-271.95-460.51-440.49,10.67-47.75,39.12-89.56,84.54-124.27.7-.54,1.46-1,2.27-1.37,44.98-20.95,93.46-24.4,144.47-10.36-23.9-53.11-30.05-112.4-17.19-169.95,32.59-145.77,177.67-237.86,323.49-205.29h0c67.11,15.01,124.77,53.95,163.61,110.19,60.27-36.91,130.93-48.69,200.31-33.18,99.08,22.16,180.24,110.59,201.97,220.04,18.74,94.39-10.81,183.9-79.46,245.42,49.98,7.39,94.65,36.68,121.26,81.07.13.22.25.44.37.66,7.74,14.94,13.97,30.07,18.54,44.99,1.03,3.36.56,7.01-1.29,10-51.79,83.92-131.65,154.79-230.93,204.95-101.63,51.34-219.26,78.47-340.2,78.47ZM2304.21,1983.64c41.04,6.76,83.21,10.18,125.39,10.18,233.75,0,442.85-102.19,547.34-267.06-3.91-11.7-8.94-23.55-15.01-35.3-27.85-46.19-78.59-73.2-132.48-70.52-5.37.29-10.41-3.09-12.18-8.24-1.77-5.15.08-10.85,4.54-13.98,78.8-55.3,114.49-145.48,95.48-241.24-19.87-100.11-93.54-180.86-183.32-200.94-66.79-14.95-134.87-2.06-191.69,36.27-2.74,1.86-6.13,2.52-9.38,1.83-3.24-.69-6.07-2.66-7.83-5.47-35.24-56.23-90.3-95.16-155.02-109.64-132.58-29.64-264.62,54.14-294.28,186.75-13.76,61.59-3.58,125.38,28.66,179.61,2.25,3.78,2.29,8.47.12,12.3-2.94,5.17-9.63,7.52-15.18,5.32-55.59-22.14-105.73-22.35-153.22-.63-40.11,30.95-65.16,67.74-74.47,109.36-34.17,152.91,160.17,333.54,442.51,411.4Z"/>
    <path class="cls-3" d="M2066.35,1551.61c-44.77-35.98-94.27-24.56-79.25,55.64,64.53,344.57,662.59,478.28,867.74,194.06,47.71-66.21,7.78-97.59-48.01-84.15-244.34,58.9-544.48-8.24-740.48-165.54Z"/>
    <path class="cls-9" d="M2506.78,1967.96c-45.75,0-93.19-5.21-141.24-15.96-206.89-46.27-360.16-180.71-390.46-342.5-10.32-55.12,8.96-75.82,21.38-83.26,20.45-12.24,50.16-6.17,77.55,15.83,194.36,155.99,487.71,221.58,729.95,163.19,34.14-8.23,63.6-1.05,76.88,18.73,8.07,12.01,16.71,38.96-16.08,84.46-73.97,102.49-206.68,159.5-357.98,159.51ZM2020.43,1544.38c-4.33,0-8.2.93-11.4,2.85-11.84,7.09-15.45,28.15-9.9,57.77,28.5,152.16,174.42,279,371.76,323.14,197.35,44.14,383.43-8.46,474.03-133.99,17.62-24.45,23.31-45.05,15.61-56.51-7.31-10.89-27.27-14.27-50.83-8.59-249.23,60.07-551.04-7.4-751-167.89,0,0,0,0,0,0-13.53-10.87-27.36-16.77-38.26-16.77Z"/>
    <path class="cls-4" d="M3051.76,1473.4c-2.02,15.85-4.76,31.75-8.32,47.62-13.45,60.14-37.07,115.53-68.77,164.92,6.94,13.44,12.61,26.95,16.92,40.48,39.7-65.09,61.97-138.12,61.97-215.25,0-12.71-.62-25.31-1.79-37.77Z"/>
    <path class="cls-9" d="M2991.59,1741.72c-.61,0-1.22-.03-1.83-.11-5.95-.72-10.92-4.83-12.74-10.54-3.99-12.53-9.35-25.35-15.94-38.1-2.5-4.85-2.23-10.67.72-15.27,31.51-49.09,53.96-102.92,66.72-160,3.37-15.06,6.09-30.61,8.07-46.21.99-7.73,7.65-13.63,15.42-13.35,7.79.13,14.24,6.1,14.97,13.86,1.24,13.17,1.86,26.36,1.86,39.2,0,78.26-21.6,153.36-64.2,223.21-2.8,4.58-7.76,7.33-13.05,7.33ZM2992.18,1686.82c.64,1.34,1.27,2.67,1.88,4.01,6.15-11.95,11.67-24.04,16.54-36.26-5.75,10.94-11.89,21.7-18.43,32.26Z"/>
    <path class="cls-2" d="M3051.22,1553.77c-5.35-.87-10.67-1.19-15.94-1.07-13.97,48.02-34.57,92.66-60.62,133.24,1.49,2.91,2.91,5.8,4.32,8.71,6.3,6.32,13.65,11.67,21.88,15.75,26.99-48.62,44.41-101.32,50.36-156.63Z"/>
    <path class="cls-9" d="M3000.85,1725.69c-2.29,0-4.6-.51-6.77-1.59-9.62-4.77-18.35-11.04-25.93-18.66-1.2-1.21-2.19-2.6-2.93-4.14-1.35-2.81-2.72-5.59-4.16-8.4-2.48-4.84-2.2-10.64.74-15.22,25.74-40.09,45.52-83.58,58.81-129.26,1.86-6.4,7.66-10.85,14.32-11.01,6.34-.16,12.68.28,18.76,1.26,8.01,1.31,13.6,8.65,12.74,16.72-6.05,56.28-23.61,110.92-52.19,162.41-2.78,5.01-7.99,7.87-13.37,7.87ZM2992.45,1686.38c.86.78,1.75,1.54,2.65,2.27,5.55-10.95,10.58-22.05,15.07-33.26-5.55,10.52-11.46,20.85-17.72,30.99Z"/>
    <path class="cls-9" d="M2445.67,1629.7c-5.68,0-11.13-3.18-13.77-8.64-8.34-17.26-26.67-26.84-45.57-23.85-8.36,1.33-16.17-4.37-17.49-12.71-1.32-8.34,4.37-16.17,12.71-17.49,32.35-5.14,63.63,11.25,77.89,40.74,3.67,7.6.49,16.74-7.11,20.42-2.14,1.04-4.41,1.53-6.64,1.53Z"/>
    <path class="cls-9" d="M2445.67,1629.69c-4.45,0-8.86-1.93-11.88-5.65-5.32-6.56-4.32-16.18,2.24-21.5,25.04-20.32,61.14-21.84,87.79-3.7,6.98,4.75,8.78,14.26,4.03,21.24-4.75,6.98-14.25,8.79-21.24,4.04-15.58-10.61-36.68-9.71-51.33,2.17-2.83,2.3-6.24,3.42-9.62,3.42Z"/>
    <path class="cls-9" d="M2420.78,1725.69c-1.09,0-2.21-.12-3.32-.37-8.24-1.83-13.44-9.99-11.62-18.23,10.16-45.86,14.55-64.45,23.49-99.43,2.08-8.18,10.38-13.13,18.59-11.03,8.18,2.09,13.12,10.42,11.03,18.59-8.84,34.6-13.19,53.01-23.26,98.48-1.58,7.13-7.9,11.98-14.91,11.98Z"/>
    <path class="cls-9" d="M2002.51,1597.81c22.38,30.37,51.26,56.83,82.5,80.19,31.34,23.39,65.17,43.87,99.96,62.67l.04.02c3.56,1.92,4.89,6.37,2.96,9.93-1.84,3.41-6.02,4.76-9.49,3.18-36.46-16.67-72.3-35.19-106.38-57.24-33.98-22.09-66.45-47.77-93.64-79.88-5.46-6.45-4.66-16.1,1.79-21.56,6.45-5.46,16.1-4.66,21.56,1.79.21.25.42.51.62.78l.09.12Z"/>
    <g class="cls-13">
      <path class="cls-7" d="M1990.5,1570.19c-1.01,60.91,58.72,117.97,179.16,171.11-57.7-57.35-124.07-121-138.78-192.79-45.2-26.15-38.55-19.56-40.38,21.67Z"/>
    </g>
    <path class="cls-9" d="M2857.77,1814.15c-38.9,17.21-79.74,26.22-120.38,31.35-40.71,5.06-81.46,6.16-121.97,5.37-3.68-.07-6.6-3.11-6.53-6.78.07-3.51,2.84-6.33,6.29-6.52h.06c39.98-2.07,79.81-6.05,118.65-13.73,38.74-7.7,76.69-19.21,110.4-37.14l.1-.05c7.46-3.97,16.72-1.14,20.69,6.32,3.97,7.46,1.14,16.72-6.32,20.69-.32.17-.67.34-1,.48Z"/>
    <g class="cls-13">
      <path class="cls-7" d="M2863.75,1765.47c-25.04,55.54-103.36,81.69-234.96,78.5,76.59-27.32,163.76-56.63,207.66-115.33,52.02-4.43,43.19-1.29,27.31,36.83Z"/>
    </g>
    <path class="cls-9" d="M2429.6,2021.34c-43.89,0-87.8-3.58-130.51-10.65-.53-.09-1.04-.2-1.56-.34-301.8-83.02-500.71-273.94-462.69-444.1,10.28-45.98,36.75-86.51,78.73-120.57-6.72-58.59-3.6-117.48,9.31-175.19,7.71-34.45,18.9-68.2,33.26-100.3.92-2.04,2.27-3.86,3.96-5.32,120.61-104.13,291.73-163.86,469.5-163.86,159.56,0,312.32,47.12,430.15,132.68,117.99,85.68,191.22,202.46,206.18,328.84.14,1.15.14,2.31.01,3.47-2.14,19.45-5.38,38.94-9.62,57.93-12.89,57.67-35.14,112.29-66.18,162.45,6.02,12.52,10.99,25.14,14.8,37.6,1.28,4.2.7,8.76-1.61,12.5-52.09,84.4-132.36,155.66-232.15,206.07-102.05,51.55-220.16,78.8-341.57,78.8ZM2304.87,1980.65c40.82,6.71,82.78,10.11,124.74,10.11,232.11,0,439.78-101.15,543.98-264.41-3.82-11.22-8.7-22.56-14.54-33.83-2.51-4.85-2.25-10.68.71-15.29,31.54-49.16,53.99-102.99,66.73-160,3.88-17.33,6.86-35.1,8.87-52.86-30.33-246.87-290.37-432.81-605.76-432.81-169.27,0-331.94,56.17-446.93,154.21-12.87,29.3-22.94,60.03-29.96,91.37-12.75,57.05-15.37,115.32-7.76,173.2.71,5.42-1.53,10.82-5.87,14.14-40.14,30.68-65.18,67.15-74.4,108.41-33.81,151.29,159.5,330.3,440.19,407.74Z"/>
    <path class="cls-9" d="M2985.96,1933c-10.64,0-22.28-.59-34.96-1.76-6.72-.62-11.67-6.57-11.05-13.3.62-6.72,6.66-11.67,13.3-11.05,51.89,4.78,75.36-1.86,85.88-8.27,5.75-3.51,13.29-1.69,16.81,4.08,3.52,5.77,1.69,13.29-4.08,16.81-14.8,9.02-36.52,13.49-65.89,13.49Z"/>
    <path class="cls-9" d="M3002.37,2023.12c-27.74,0-54.29-18.02-79.02-53.66-3.85-5.55-2.47-13.17,3.08-17.02,5.54-3.85,13.16-2.47,17.02,3.08,21.35,30.77,42.79,45.24,63.43,42.89,6.71-.75,12.76,4.09,13.51,10.8.75,6.71-4.09,12.76-10.8,13.51-2.42.27-4.82.41-7.22.41Z"/>
    <path class="cls-9" d="M2938.51,2094.1c-1.86,0-3.75-.42-5.51-1.32-24.03-12.17-42.76-38.22-55.66-77.43-2.11-6.42,1.38-13.33,7.79-15.44,6.42-2.11,13.33,1.38,15.44,7.79,10.81,32.84,25.43,54.12,43.47,63.25,6.03,3.05,8.44,10.41,5.39,16.44-2.16,4.26-6.46,6.71-10.92,6.71Z"/>
    <path class="cls-9" d="M2839.75,2133.41c-2.43,0-4.88-.72-7.02-2.22-21.77-15.3-34.64-41.67-38.23-78.37-.66-6.72,4.26-12.7,10.98-13.36,6.66-.64,12.71,4.26,13.36,10.98,2.87,29.29,12.27,49.73,27.95,60.74,5.53,3.88,6.86,11.51,2.98,17.04-2.38,3.39-6.17,5.2-10.02,5.2Z"/>
    <path class="cls-3" d="M1619.67,1602.89c48.56,166.34,152.9,298.14,313.03,395.38,33.62,95.97,172.06,119.56,352.55,223.41,177.94,102.41,28.98,364.72-289.19,214.46-89.64-42.32-157.37-97.66-190.16-131.95,28.28,64.47,41.28,94.01,65.79,134.94,30.74,51.36,31.08,66.66-7.1,92.88-58.54,40.19-109.33,65.46-146.01,85.62,166.21,168.48,194.63,321.15,60.14,428.92-73.01,58.52-165.01,7.24-216.64-117.1-332.03-38.87-566.02-441.71-360.72-673.76,267.49-302.34,450.14-475.35,418.31-652.81Z"/>
    <path class="cls-9" d="M1714.48,3089.06c-9.65,0-19.41-1.25-29.22-3.76-53.39-13.68-102.54-64.09-135.89-138.99-181.51-25.54-347.24-159.24-414.66-335.68-52.11-136.38-32.82-270.18,52.92-367.09,33.52-37.88,65.42-73.42,96.27-107.78,207.14-230.75,343.99-383.2,317.72-529.62-1.72-9.6,4.37-18.87,13.86-21.1,9.46-2.22,19.07,3.35,21.81,12.72,47,161.03,149.6,290.51,304.94,384.84,3.63,2.21,6.39,5.61,7.79,9.62,19.8,56.52,86.23,87.26,178.18,129.79,49.26,22.79,105.09,48.61,166.21,83.79,77.98,44.88,106.46,125.92,69.27,197.07-45.88,87.75-182.94,140.78-375.44,49.87-50.52-23.85-95.27-52.34-131.19-79.55,9.48,19.75,18.57,36.79,30.39,56.53,32.57,54.41,38.03,82.75-12.46,117.43-48.47,33.27-91.35,56.3-125.81,74.81-.22.12-.43.23-.65.35,93.38,99.61,138.21,192.46,133.33,276.23-3.61,61.89-34.45,116.51-91.65,162.35-23.3,18.68-49.06,28.2-75.71,28.2ZM1635.49,1698.75c-28.34,131.81-153.13,270.83-324.3,461.51-30.81,34.32-62.67,69.8-96.09,107.59-76.38,86.33-93.19,206.49-46.13,329.68,63.98,167.45,222.82,293.52,395.24,313.7,6.6.78,12.26,5.05,14.81,11.19,28.46,68.53,71.57,116.13,115.34,127.34,25.64,6.57,50.18.67,72.88-17.53,48.75-39.06,74.98-84.77,77.96-135.85,4.48-76.76-43.82-168.69-139.69-265.86-4.04-4.1-5.92-9.84-5.09-15.53s4.28-10.66,9.32-13.43c6.88-3.78,14.24-7.73,22.06-11.93,33.68-18.09,75.59-40.59,122.4-72.73,26.2-18,30.22-20.76,1.74-68.34-25.29-42.22-39.17-73.89-66.85-136.99-3.57-8.15-.78-17.69,6.62-22.63,7.41-4.93,17.28-3.85,23.44,2.58,34.42,35.99,101.03,88.52,184.74,128.04,170.62,80.58,289.24,39.01,327.26-33.7,23.32-44.6,15.34-107.75-55.05-148.27-59.71-34.36-114.75-59.82-163.32-82.29-97.12-44.93-168.11-77.77-195.03-144.67-130.46-80.5-225.07-185.1-282.26-311.87Z"/>
    <path class="cls-9" d="M1825.1,2574.22c-7.29,0-14.17-4.37-17.04-11.55-3.75-9.4.83-20.08,10.24-23.83,18.08-7.22,29.39-17.61,34.58-31.77,9.27-25.28-.17-65.62-27.28-116.67-4.76-8.95-1.35-20.05,7.59-24.8,8.94-4.76,20.05-1.36,24.8,7.59,33.06,62.23,42.66,110.16,29.33,146.5-8.86,24.17-27.51,42.07-55.43,53.21-2.23.89-4.53,1.31-6.79,1.31Z"/>
    <path class="cls-9" d="M1955.98,2432.61c-33.99-12.5-66.39-30.08-95.84-51.85-7.16-5.7-14.62-11.04-21.52-17.07l-10.23-9.18c-3.42-3.05-6.84-6.1-9.98-9.44-13.08-12.83-25.25-26.58-36.36-41.1-22.45-28.88-40.58-60.8-54.85-93.99-14.1-33.29-24.46-67.88-30.6-103.04-.92-5.27,2.6-10.28,7.87-11.2,4.64-.81,9.08,1.83,10.7,6.07l.03.08c12.42,32.42,25.58,64.12,41.38,94.24,15.59,30.19,33.78,58.71,54.6,84.98,10.4,13.14,21.73,25.48,33.49,37.35,11.89,11.76,24.5,22.74,37.58,33.2,26.32,20.73,55.17,38.28,85.56,53.48l.03.02c7.4,3.7,10.4,12.7,6.69,20.1-3.45,6.89-11.5,9.96-18.57,7.36Z"/>
    <path class="cls-9" d="M1712.74,2632.75c-29.78-9.62-57.76-25.12-82.41-44.41-3.06-2.44-6.29-4.69-9.2-7.3l-8.72-7.83c-5.96-5.09-11.24-10.81-16.74-16.31-10.66-11.33-20.56-23.27-29.71-35.69-18.15-24.94-33.33-51.64-45.79-79.29-12.51-27.63-22.58-56.12-30.12-85.15-1.22-4.68,1.59-9.46,6.27-10.67,4.1-1.07,8.28.96,10.06,4.62l.04.09c12.91,26.42,25.98,52.42,40.46,77.37,14.53,24.91,30.23,48.88,48,70.89,8.89,10.99,18.08,21.66,28.01,31.53,4.98,4.9,9.73,10.07,15.06,14.54,5.19,4.65,10.36,9.32,15.85,13.55,21.65,17.41,45.29,31.97,70.6,43.83l.21.1c8.12,3.8,11.61,13.47,7.81,21.58-3.51,7.49-12.01,11.04-19.69,8.56Z"/>
    <path class="cls-9" d="M1718.12,2620.68c-29.87,0-60.05-11.44-89.48-34.23-8.01-6.2-9.47-17.72-3.27-25.73,6.2-8.01,17.73-9.47,25.73-3.27,40.38,31.27,76.93,35.09,115,12.05,8.68-5.24,19.95-2.48,25.19,6.19,5.25,8.66,2.48,19.94-6.19,25.19-21.83,13.22-44.31,19.8-66.98,19.8Z"/>
    <path class="cls-3" d="M1634.55,1124.88c79.99,11.3,134.16,96.22,120.98,189.73-13.19,93.48-88.73,160.14-168.73,148.84-79.99-11.27-134.15-96.22-120.96-189.7,13.19-93.51,88.73-160.14,168.71-148.87Z"/>
    <path class="cls-9" d="M1604.72,1483.06c-6.81,0-13.65-.48-20.48-1.45-44.08-6.21-82.55-31.89-108.33-72.32-25.2-39.52-35.22-88.56-28.23-138.11,14.58-103.35,99.58-177.1,189.44-164.47,0,0,0,0,0,0,89.88,12.69,151.15,107.1,136.57,210.45-6.99,49.54-30.19,93.9-65.33,124.91-30.38,26.8-66.56,40.98-103.64,40.98ZM1616.89,1141.98c-64.08,0-121.99,57.03-132.89,134.33-5.77,40.89,2.34,81.11,22.84,113.25,19.92,31.24,49.22,51.03,82.51,55.72,33.28,4.68,66.93-6.2,94.72-30.72,28.59-25.22,47.51-61.63,53.28-102.52,11.75-83.32-35.52-159.14-105.37-169-5.05-.71-10.09-1.06-15.1-1.06Z"/>
    <path class="cls-3" d="M1528.97,1439.84c-46.31-33.72-72.79-97.59-63.14-166.09,10.94-77.53,64.72-136.58,128.37-148.07,3.25.07,6.53.32,9.79.8,63.66,8.98,105.05,88.63,92.47,177.88-12.59,89.28-74.4,154.37-138.06,145.38-10.46-1.47-20.32-4.88-29.44-9.9Z"/>
    <path class="cls-9" d="M1570.38,1465.87c-4.7,0-9.4-.33-14.1-.99-12.06-1.69-23.73-5.61-34.68-11.65-.56-.31-1.1-.65-1.62-1.03-52.19-38-79.38-108.88-69.28-180.58,11.55-81.9,69.45-148.1,140.79-160.98,1.01-.18,2.04-.27,3.07-.24,4,.09,7.91.41,11.62.95,71.85,10.14,119.16,97.68,105.42,195.15-6.53,46.3-25.68,88.19-53.93,117.93-25.69,27.06-56.24,41.45-87.3,41.45ZM1537.18,1426.9c7.44,3.98,15.29,6.57,23.35,7.7,25.79,3.64,52.4-7.46,74.97-31.23,23.9-25.17,40.18-61.09,45.83-101.15,11.38-80.77-24.27-152.82-79.47-160.61-2.09-.3-4.25-.5-6.48-.6-57.82,11.27-104.75,66.47-114.4,134.88-8.5,60.29,13.55,119.43,56.21,151.02Z"/>
    <path class="cls-3" d="M1824.27,1769.33c54.67,0,98.98,44.32,98.98,98.96s-44.31,99-98.98,99-98.97-44.34-98.97-99,44.31-98.96,98.97-98.96Z"/>
    <path class="cls-9" d="M1824.28,1979.52c-61.31,0-111.2-49.9-111.2-111.23s49.89-111.19,111.2-111.19,111.21,49.88,111.21,111.19-49.89,111.23-111.21,111.23ZM1824.28,1781.55c-47.83,0-86.74,38.91-86.74,86.73s38.91,86.77,86.74,86.77,86.75-38.93,86.75-86.77-38.92-86.73-86.75-86.73Z"/>
    <path class="cls-3" d="M1623.24,1647.1c-1.77-54.91-34-104.28-83.55-127.97-49.58-23.66-111.94-22.17-152.06,15.35-465.23,435.36-529.75,687.94-205.41,745.17,5.87-8.19,12.26-16.15,19.15-23.96,245.28-277.24,419.23-445.71,421.88-608.59Z"/>
    <path class="cls-9" d="M1182.22,2298c-1.05,0-2.12-.09-3.19-.28-118.18-20.85-188.97-67.97-210.38-140.05-20.1-67.66,4.91-156.36,74.34-263.62,67.71-104.62,179.45-230.1,332.11-372.95,42.7-39.94,112.02-47.38,172.49-18.51,55.99,26.76,92,81.91,93.99,143.93,0,.3.01.59,0,.89-2.4,147.49-132.85,292.81-330.31,512.77-30.83,34.35-62.71,69.86-96.17,107.68-6.53,7.4-12.58,14.98-17.98,22.5-3.48,4.85-9.06,7.65-14.91,7.65ZM1470.97,1521.79c-25.42,0-50.93,7.5-70.81,26.1-371.47,347.62-420.57,517.79-396.34,599.34,16.51,55.57,73.86,93.33,170.54,112.31,4.17-5.37,8.6-10.71,13.24-15.98,33.56-37.94,65.49-73.5,96.37-107.9,191.73-213.59,318.47-354.77,320.92-488.41-1.7-48.08-29.69-90.81-73.12-111.56-17.9-8.54-39.32-13.9-60.8-13.9Z"/>
    <path class="cls-3" d="M1403.53,1761.29c-18.61-116.82,81.49-103.73,87.05-36.4,5.31,64.14,66,110.43,126.54,132.32,129.6,46.85,180.01-45.18,225.1-35.06,15.92,3.58,28.57,15.65,32.93,31.38,25.75,93.11-203.31,122.62-278.73,100.3-92.71-27.44-165.26-99.88-192.89-192.54Z"/>
    <path class="cls-9" d="M1660.99,1976.32c-27.1,0-51.33-2.63-68.91-7.84-98.01-29.01-173.97-104.84-203.19-202.83-.2-.64-.34-1.3-.45-1.96-9.5-59.6,10.43-84.94,23.15-94.74,15.14-11.66,35.24-13.74,53.78-5.55,22.71,10.03,38.21,33.11,40.45,60.22,4.85,58.57,63.36,99.98,116.5,119.2,77.42,28,123.03,2.89,159.67-17.28,22.56-12.42,42.07-23.14,63.58-18.32,21.46,4.83,38.44,21,44.31,42.21,6.83,24.7-.01,48.02-19.8,67.45-40.76,40.04-135.53,59.42-209.09,59.42ZM1418.47,1757.89c26.46,87.58,94.54,155.3,182.29,181.28,57.3,16.96,201.42,1.57,247.9-44.08,11.87-11.66,15.61-23.57,11.76-37.49-2.86-10.32-11.11-18.19-21.55-20.53-10.23-2.3-24.3,5.45-42.12,15.27-37.58,20.69-94.38,51.94-184.81,19.25-62.07-22.45-130.53-72.44-136.58-145.44-1.58-19.06-12.57-30.46-22.34-34.78-8.24-3.64-16.54-2.98-22.76,1.81-5.87,4.52-18.7,19.85-11.77,64.71Z"/>
    <path class="cls-9" d="M1444.47,1820.15c-10.58,0-21.42-3.19-32.38-9.53-5.84-3.39-7.84-10.87-4.45-16.71,3.38-5.85,10.86-7.83,16.71-4.45,10.12,5.86,19.17,7.57,27.69,5.19,12.84-3.58,25.47-16.56,37.54-38.58,3.25-5.92,10.69-8.09,16.6-4.85,5.92,3.25,8.09,10.68,4.84,16.6-15.57,28.41-32.72,44.89-52.42,50.38-4.65,1.3-9.38,1.95-14.15,1.95Z"/>
    <path class="cls-9" d="M1523.42,1927.01c-3.52,0-7.17-.23-10.96-.71-6.7-.84-11.46-6.95-10.62-13.65.84-6.7,6.94-11.45,13.65-10.62,13.28,1.65,23.16-.58,30.24-6.84,10.79-9.52,16.26-29,16.27-57.89,0-6.75,5.48-12.22,12.23-12.22h0c6.75,0,12.23,5.48,12.23,12.23-.02,36.73-8.05,61.66-24.55,76.22-10.15,8.96-23.07,13.48-38.5,13.48Z"/>
    <path class="cls-9" d="M1661.29,1973.15c-2.61,0-5.24-.83-7.47-2.56-5.35-4.13-6.33-11.81-2.19-17.16,15.63-20.21,18.12-46.38,7.6-80.01-2.01-6.45,1.58-13.31,8.03-15.32,6.4-2.02,13.31,1.57,15.32,8.02,12.89,41.24,8.99,75.65-11.6,102.28-2.41,3.12-6.03,4.75-9.68,4.75Z"/>
    <path class="cls-9" d="M1778.26,1958c-2.73,0-5.48-.91-7.75-2.78-5.22-4.28-5.98-11.99-1.69-17.21,15.01-18.29.54-53.85-14.25-80.46-3.28-5.9-1.16-13.35,4.75-16.63,5.91-3.28,13.35-1.15,16.63,4.75,27.25,49.03,31.1,84.31,11.78,107.85-2.42,2.95-5.92,4.47-9.46,4.47Z"/>
    <path class="cls-5" d="M1124.9,2441.82c1.22-25.13,6.13-51.46,14.76-78.95-228.67,16.47-395.31-250.26-267.17-429.99,128.14-179.7,139.1-390.13,0-541.46-25.85-28.17-71.86-25.33-103.67-4.13-31.8,21.2-59.13,66.81-36.05,97.29,238.52,315.03-208.74,450.37,3.84,792.02,81.72,131.33,236.99,197.41,388.3,165.22Z"/>
    <path class="cls-9" d="M1048.97,2468.15c-131.34,0-256.75-67.47-327.94-181.86-110.68-177.89-49.01-306.84,5.4-420.6,56.48-118.09,105.26-220.07-8.29-370.04-10.48-13.84-14.38-30.88-11.27-49.27,4.61-27.28,24.93-56.46,51.77-74.36,36.37-24.25,93.37-30.04,127.36,6.99,70.21,76.38,106.53,170.7,105.04,272.76-1.43,97.8-37.26,198.68-103.62,291.75-52.73,73.96-55.08,169.99-6.29,256.89,53.33,94.98,154.37,151.58,257.2,144.15,6.11-.47,11.94,2.15,15.7,6.91,3.77,4.76,4.94,11.08,3.12,16.87-8.11,25.85-12.8,50.86-13.94,74.35-.41,8.32-6.36,15.32-14.51,17.06-26.55,5.65-53.28,8.39-79.75,8.39ZM1124.9,2441.81h.05-.05ZM822.23,1389.22c-15.02,0-30.8,5.04-43.24,13.34-18.25,12.17-33.04,32.7-35.95,49.94-1.42,8.4,0,15.28,4.34,21.01,127.04,167.79,68.63,289.91,12.14,408.02-55.23,115.49-107.4,224.57-7.34,385.39,74.98,120.48,216.44,183.45,355.47,159.55,1.45-14.51,4.02-29.41,7.69-44.59-107.87-1.86-210.35-64.02-266.2-163.48-55.93-99.61-52.79-210.32,8.41-296.15,128.79-180.61,129.34-379.25,1.43-518.4-9.39-10.23-22.75-14.62-36.75-14.62Z"/>
    <path class="cls-4" d="M972.16,1666.99c5.29-99.5-26.31-195.75-99.68-275.57-25.85-28.17-71.86-25.33-103.67-4.13-31.8,21.2-59.13,66.81-36.05,97.29,56.84,75.07,74.68,139.94,71.83,199.83l.06.03c20.05,28.66,54.09,44.21,88.9,40.58,34.8-3.63,64.88-25.85,78.6-58.03Z"/>
    <path class="cls-9" d="M883.56,1743.88c-36.87,0-71.83-17.81-93.45-48.24-2.62-3.38-4.06-7.64-3.85-12.11,2.95-61.98-19.34-123.44-68.13-187.88-10.48-13.84-14.38-30.88-11.27-49.27,4.61-27.28,24.93-56.46,51.77-74.36,36.37-24.25,93.37-30.04,127.36,6.99,74.11,80.63,110.24,180.55,104.48,288.95-.12,2.15-.61,4.25-1.45,6.23-16.33,38.28-52.19,64.75-93.57,69.07-3.98.41-7.95.62-11.9.62ZM823.15,1678.49c16.52,20.26,42.27,31.03,68.51,28.27,27.1-2.83,50.72-19.63,62.35-44.13,4.3-97.01-28.52-186.44-95.03-258.8-19.46-21.2-55.95-17.3-79.99-1.28-18.25,12.17-33.04,32.7-35.95,49.94-1.42,8.4,0,15.28,4.34,21.01,52.47,69.29,77.3,136.43,75.77,204.99ZM972.16,1666.99h.05-.05Z"/>
    <path class="cls-3" d="M2065.03,629.7c-92.65-37.35-156.02,34.76-107.14,91.17,52.05,13.14,106,31.6,151.78,68.95,61.98,50.56,98.26,40.13,76.67-35.91-20.62-72.53-74.73-108.56-121.31-124.21Z"/>
    <path class="cls-9" d="M2170.58,839.38c-19.38,0-43.65-11.81-72.5-35.35-45.15-36.83-98.47-53.72-144.68-65.38-3.64-.92-6.91-2.93-9.38-5.77-25.21-29.1-28.33-66.35-7.94-94.91,22.02-30.85,72.38-50.64,135.3-25.48,39.03,13.22,107.6,48.44,132.6,136.41,12.16,42.83,8.28,71.15-11.51,84.16-6.42,4.22-13.73,6.32-21.9,6.32ZM1968.36,704.62c46.25,12,104.03,31.12,152.9,70.99,32.72,26.69,48.68,27.9,51.13,26.76h0c-.07,0,6.19-8.64-3.69-43.45-20.51-72.18-77.42-101.05-109.51-111.83-.34-.11-.68-.24-1.02-.37-44.67-18-78.51-6.66-92.24,12.57-9.76,13.67-8.81,29.97,2.43,45.33Z"/>
    <path class="cls-3" d="M2780.48,747.32c59.32,43.74,109.08,113.44,125.88,184.65,4.09,17.39,24.34,25.93,41.89,22.64,17.56-3.26,33.02-18.51,30.89-36.23-25.07-209.51-116.16-216.72-198.66-171.07Z"/>
    <path class="cls-9" d="M2941.06,973.6c-22.64,0-46.75-12.77-52.55-37.43-15.21-64.51-60.78-131.22-118.91-174.09-5.03-3.71-7.82-9.72-7.42-15.95.41-6.23,3.96-11.83,9.42-14.86,50.71-28.07,95.2-32.69,132.22-13.75,49.31,25.24,80.78,92.09,93.54,198.68,3.15,26.3-16.95,51.09-45.76,56.44-3.42.64-6.96.96-10.54.96ZM2814.66,751.4c53.56,47.36,94.54,112.7,109.55,176.36,1.61,6.84,12.42,10.37,20.66,8.82,8.32-1.54,16.93-8.72,16.05-16.01-11.06-92.41-36.59-151.33-73.82-170.39-19.81-10.13-44.1-9.71-72.45,1.23Z"/>
    <path class="cls-3" d="M2716.21,828.14c26.11-212.02-312.49-326.95-407.37-213.76,53.32,74.94,87.87,124.54,103.65,148.75,116.21,40.61,217.46,62.28,303.72,65.02Z"/>
    <path class="cls-9" d="M2716.22,846.48c-.2,0-.4,0-.59,0-87.74-2.79-191.77-25-309.19-66.04-3.83-1.34-7.1-3.9-9.32-7.3-15.66-24.04-50.4-73.87-103.23-148.12-4.84-6.8-4.47-16.02.89-22.41,49.8-59.41,160.35-67.97,268.79-20.83,92.45,40.19,185.87,126.6,170.84,248.61-1.13,9.22-8.97,16.1-18.19,16.1ZM2424.39,747.84c103.7,35.81,196.02,56.35,274.86,61.15,2.18-93.2-74.52-160.63-150.3-193.58-85.14-37.01-172.78-35.98-216.24.9,44.7,62.93,75.48,107.09,91.67,131.53Z"/>
    <path class="cls-3" d="M2716.21,828.14c1.52-12.29,1.75-24.21.93-35.83-90.97-104.3-192.52-114.04-304.66-29.19,116.21,40.61,217.46,62.28,303.72,65.02Z"/>
    <path class="cls-9" d="M2716.22,843.42c-.16,0-.33,0-.49,0-87.44-2.78-191.16-24.94-308.29-65.87-5.32-1.86-9.18-6.49-10.06-12.06-.87-5.57,1.39-11.16,5.88-14.56,119.16-90.16,228.64-79.62,325.41,31.33,2.18,2.51,3.49,5.66,3.73,8.97.91,12.92.57,25.97-1.01,38.78-.95,7.68-7.48,13.41-15.17,13.41ZM2446.01,758.35c96.15,31.64,182.13,49.72,256.18,53.87.18-4.58.18-9.18,0-13.76-77.93-86.97-161.99-100.2-256.17-40.1Z"/>
    <g class="cls-13">
      <path class="cls-7" d="M1656.13,2104.09c27.16-12.94,40.73-19.41,40.73-19.41,206.95,313.07,618.59,435.09,625.19,191.54,26.92,206.4-104.73,251.51-394.94,135.28-84.15-60.76-126.23-91.14-126.23-91.14,49.73,97.71,63.8,168.25,42.2,211.65-66.49,41.88-115.15,70.42-146.01,85.62-113.66-95.37-182.3-190.23-205.91-284.53,155.85,92.36,210.84,16.02,164.97-229.02"/>
    </g>
    <g class="cls-13">
      <path class="cls-7" d="M1545.58,2927.21c126.1,178.9,227.35,189.2,303.71,30.88-104.31,89.55-175.77,70.12-214.36-58.32-18.46-40.73-70.68-31.75-139.73-60.16-304.5-125.36-356.81-416.05-190.2-599.69,78.24-86.22,154.21-203.71,219.3-269.77,68,32.97,146.59,38.12,235.78,15.53,29.27,20.5,61.95,24.71,98,12.61,26.89,27.12,62.14,39.74,105.81,37.82-52.5-49.27-96.17-74.15-130.99-74.72-162.49,14.66-268.8-1.1-318.93-47.23-143.69,148.57-260.69,280.37-350.99,395.4-83.39,201.25-19.64,380.05,191.23,536.38,57.85,44.81,121.64,71.91,191.36,81.26"/>
    </g>
    <g class="cls-13">
      <path class="cls-7" d="M1504.35,1907.12c-59.79-35.06-95.8-110.82-108.01-227.25-43.78,74.77-34.08,153.05,29.1,234.81-79.45,71.83-142,136.01-187.67,192.56-61.82,67.23-139.26,79.92-181.37,2.21-46.04-84.92,78.35-255.71,315.67-488.78,104.85-110.97,214.33-42.57,186.5,103.46-9.7,11-33.65-7.39-71.86-55.19,14.56,64.02,32.27,103.19,53.1,117.44-1.19,2.96-2.45,5.95-3.75,8.93,22.1,31.53,45.88,10.23,71.36-63.87,27.63-176.74-39.06-247.28-200.11-211.62-173.24,152.73-299.74,297.86-379.47,435.41-78.55,205.97-27.09,314.11,154.37,324.41,165.5-183.9,272.88-308.09,322.14-372.53"/>
    </g>
    <g class="cls-13">
      <path class="cls-7" d="M1733.57,1844.24c-28.18-70.86-61.5-118.41-99.96-142.65-17.13,67.11-34.92,109.48-53.36,127.12,53.14,38.42,104.24,43.59,153.32,15.52"/>
    </g>
    <g class="cls-13">
      <path class="cls-7" d="M1640.72,1140.8c-85.27-7.39-161.91,52.01-176.01,136.43-14.12,84.4,39.04,165.49,122.08,186.22-47.01-45.41-68.66-111.02-57.89-175.49,10.77-64.47,52.59-119.51,111.81-147.15"/>
    </g>
    <g class="cls-13">
      <path class="cls-7" d="M1406.04,1702.69c6.12,108.93,76.77,203.64,179.41,240.53,102.66,36.92,217.42,8.88,291.51-71.19-81.76,56.08-185.51,69.44-278.81,35.88-93.3-33.54-164.78-109.9-192.1-205.23"/>
    </g>
    <g class="cls-13">
      <path class="cls-7" d="M2781.46,2077.02c-20.68,9.31-26.36,22.52-17.07,39.69,79.8,15.2,161.93-10.15,219.29-67.68,57.35-57.53,82.46-139.74,67.02-219.48-38.06,38.44-65.39,89.97-81.98,154.59-47.44,48.27-109.86,79.22-187.25,92.88"/>
    </g>
    <g class="cls-13">
      <path class="cls-7" d="M2780.95,747.07c-67.44-45.16-86.76-35.13-57.96,29.98,75.27,48.92,131.54,103.26,168.85,163.05-30.28-107.89-67.24-172.21-110.89-193.04"/>
    </g>
    <g class="cls-13">
      <path class="cls-7" d="M2422.28,755.93c41.1,25.55,90.2,43.1,147.31,52.6-66.3-28.91-68.48-63.05-6.57-102.39-94.05-30.18-141.31-75.54-141.78-136.11-48.53,15-81.87,29.61-100.04,43.82,41.58,68.57,75.27,115.93,101.07,142.08"/>
    </g>
    <g class="cls-13">
      <path class="cls-7" d="M1954.3,711.54c119.21,66.71,193.51,98.56,222.92,95.6-52.78-58.17-113.94-91.22-178.57-114.51-15.7-5.67-16.27-28.96-7.5-43.2,8.77-14.21,26.8-19.63,41.95-12.61-21.19-18.44-52.93-17.77-73.33,1.57-20.38,19.33-22.75,50.98-5.47,73.15"/>
    </g>
    <g class="cls-13">
      <path class="cls-7" d="M2800.04,759.29c51.8,57,96.01,119.68,132.59,188.06,11.37-70.77-26.49-141.28-113.54-211.55-14.53,15.63-20.89,23.46-19.05,23.49"/>
    </g>
    <g class="cls-13">
      <path class="cls-7" d="M926.05,1842.13c-176.13,244.84-108.22,431.41,203.7,559.75-319.91,13.66-476.76-292.07-278.41-567.86,94.33-150.54,82.1-304.86-36.7-462.88,164.92,112.74,202.04,269.75,111.41,470.99"/>
    </g>
    <g class="cls-13">
      <path class="cls-7" d="M3040.4,2959.66c5.52-196.07,26.54-365.44,63.08-508.17-205.36,206.07,10.71,791.23-410.4,628.45-330.81-127.87-559.1-234.09-719.68-480.72,191.13,364.85,489.14,563.63,894.05,596.38,107.83,6.09,165.48-72.56,172.96-235.93"/>
    </g>
    <g class="cls-13">
      <path class="cls-7" d="M2813.16,1819.15c.59-1.28,1.24-2.49,1.81-3.79-68.14,20.28-134.68,29.88-199.63,28.86,16.29,8.13,32.33,15.18,48.15,21.31-48.12,9.44-98.43,14.47-150.23,14.47-344.58,0-623.93-221.58-623.93-494.88,0-76.04,21.61-148.07,60.25-212.44-95.55,86.96-153.41,200.62-153.41,325.01,0,273.3,279.35,494.88,623.94,494.88,248.72,0,463.47-115.43,563.7-282.44-48.17,43.82-105.93,80.82-170.66,109.01Z"/>
    </g>
    <path class="cls-9" d="M2420.13,2004.8c-350.79,0-636.18-227.49-636.18-507.11s285.39-507.11,636.18-507.11,636.18,227.49,636.18,507.11-285.39,507.11-636.18,507.11ZM2420.13,1015.04c-337.3,0-611.71,216.52-611.71,482.65s274.41,482.65,611.71,482.65,611.71-216.52,611.71-482.65-274.41-482.65-611.71-482.65Z"/>
    <g>
      <path class="cls-9" d="M2727.09,1371.99c-35.37-15.78-80.48,16.83-100.76,72.84-20.28,56.01-8.06,114.21,27.31,129.99,35.36,15.78,80.48-16.83,100.76-72.84,20.28-56.01,8.05-114.21-27.31-129.99Z"/>
      <path class="cls-8" d="M2718.15,1395.31c-13,1.54-23.18,19.55-22.73,40.23.45,20.68,11.35,36.19,24.36,34.65,13-1.54,23.18-19.55,22.73-40.22-.45-20.68-11.35-36.19-24.36-34.65Z"/>
      <path class="cls-14" d="M2646.36,1506.64c-6.67,2.66-10.19,13.26-7.87,23.68,2.32,10.42,9.6,16.7,16.27,14.04,6.67-2.66,10.19-13.26,7.87-23.68-2.32-10.42-9.6-16.7-16.27-14.04Z"/>
    </g>
    <g>
      <path class="cls-9" d="M2300.43,1288.35c37.42,1.57,62.44,49.24,55.88,106.48-6.56,57.24-42.21,102.37-79.63,100.8-37.42-1.57-62.44-49.24-55.88-106.48,6.56-57.24,42.21-102.37,79.63-100.8Z"/>
      <path class="cls-8" d="M2298.12,1312.4c10.6,6.93,11.66,26.91,2.36,44.62-9.29,17.71-25.42,26.45-36.01,19.51-10.6-6.93-11.66-26.91-2.36-44.62,9.29-17.71,25.42-26.45,36.01-19.51Z"/>
      <path class="cls-14" d="M2312.34,1439.73c4.63,5.18,3.11,15.87-3.38,23.9-6.49,8.02-15.51,10.33-20.13,5.15-4.63-5.17-3.11-15.87,3.38-23.89,6.49-8.02,15.51-10.33,20.13-5.15Z"/>
    </g>
    <g class="cls-1">
      <path class="cls-3" d="M2332.97,1168.18c160.18,0,290.03,79.23,290.03,176.96s-129.85,176.96-290.03,176.96-290.02-79.23-290.02-176.96,129.85-176.96,290.02-176.96"/>
    </g>
    <g class="cls-12">
      <path class="cls-7" d="M1930.87,1354.13c7.63-34.09,18.53-66.61,32.3-97.39,114.03-98.46,277.68-160.14,459.51-160.14,315.51,0,576.23,185.77,618,426.9.23-.98.5-1.94.72-2.92,4.2-18.79,7.29-37.55,9.34-56.26-29.76-251.33-296.47-448.03-621.14-448.03-181.83,0-345.48,61.68-459.51,160.14-13.77,30.78-24.67,63.3-32.3,97.39-8.11,36.26-12.06,72.52-12.29,108.37,1.55-9.35,3.28-18.71,5.37-28.07Z"/>
      <path class="cls-7" d="M2970.48,1757.99c7.01-9.65,13.64-19.5,19.84-29.54-.34-1.12-.76-2.24-1.12-3.35-5.84,11.24-12.12,22.18-18.73,32.9Z"/>
      <path class="cls-7" d="M1922.88,1532.66c-3.08-23.47-4.48-47.26-4.27-71.23-35.5,30.17-59.53,66.49-68.84,108.15-4.71,21.07-5.36,42.52-2.45,64.06,12.75-39.02,38.88-72.95,75.56-100.97Z"/>
    </g>
  </g>
</svg>