<?xml version="1.0" encoding="utf-8"?>
<!-- Generator: Adobe Illustrator 27.5.0, SVG Export Plug-In . SVG Version: 6.00 Build 0)  -->
<svg version="1.1" id="Layer_1" xmlns="http://www.w3.org/2000/svg" xmlns:xlink="http://www.w3.org/1999/xlink" x="0px" y="0px"
	 viewBox="0 0 154.117 197.793" style="enable-background:new 0 0 154.117 197.793;" xml:space="preserve">
<g>
	<g>
		<path style="fill:#FFFFFF;" d="M15.782,57.486c-0.021,0.022-0.101,0.112-0.121,0.135c-0.023,0.026-0.046,0.055-0.068,0.081
			c-0.155,0.186-0.303,0.382-0.448,0.578l-0.054,0.076c-1.341,1.667-2.38,3.318-3.179,5.049
			c-8.371,18.158-4.475,40.635-1.344,58.695l0.571,3.309c1.82,10.659,5.908,22.378,11.512,32.995
			c5.294,10.035,10.295,19.512,19.434,27.369c7.28,6.26,14.019,9.052,21.847,9.053c0,0,0.001,0,0.002,0
			c1.862,0,3.83-0.167,5.846-0.493c9.835-1.59,19.233-7.62,26.785-12.466l0.349-0.224c14.512-9.305,27.367-22.575,40.454-41.762
			c12.105-17.742,17.016-38.437,13.138-55.355c-1.717-7.495-5.32-14.097-10.744-19.704c3.701-2.459,6.358-5.691,7.512-9.297
			c0.139-0.43,0.215-0.877,0.23-1.327c0.082-2.67-0.457-5.218-1.518-7.175c-0.638-1.175-1.73-2.034-3.021-2.376
			c-1.291-0.345-2.667-0.137-3.803,0.568c-1.245,0.775-2.365,1.569-3.448,2.338c-3.188,2.263-5.12,3.543-7.743,3.543
			c-0.499,0-1.03-0.048-1.578-0.141c-3.924-0.669-8.477-3.159-12.494-5.354c-0.706-0.387-1.398-0.765-2.073-1.126
			c-3.771-2.021-7.623-3.504-11.855-4.548c0.285-1.189,0.595-2.343,0.969-3.468c2.073-6.222,2.941-11.56,2.901-17.851
			c-0.041-6.398-4.385-10.532-11.069-10.532c-4.648,0-9.552,1.905-12.35,3.793c-1.82,1.229-4.646,4.106-3.118,9.58
			c0.568,2.03,1.615,3.764,2.54,5.292c0.438,0.725,0.852,1.411,1.134,1.999c0.39,1.008,0.717,2.052,0.977,3.107l0.505,3.727
			c0.021,0.592-0.009,1.15-0.087,1.678c-2.58-0.683-5.531-1.017-8.934-1.017c-5.188,0-10.436,0.779-14.652,1.406l-0.807,0.119
			c-3.997,0.592-7.348,0.986-10.703,0.986c-1.749,0-3.407-0.108-5.068-0.327c-2.141-0.282-4.267-1.242-6.9-3.118
			c-0.131-0.093-0.409-0.386-0.634-0.62c-0.964-1.013-2.577-2.707-5.359-3.143c-0.251-0.039-0.601-0.067-0.854-0.067
			c-2.008,0-3.994,1.11-5.183,2.897c-0.296,0.445-0.517,0.936-0.652,1.453c-0.091,0.346-0.171,0.688-0.242,1.035
			c-0.059,0.279-0.092,0.564-0.1,0.85c-0.119,4.193,1.09,8.329,3.416,11.968C21.633,51.854,18.308,54.473,15.782,57.486z"/>
		<path style="fill:#F1F1F1;" d="M15.366,57.021c-0.021,0.023-0.1,0.114-0.12,0.136c-0.024,0.026-0.047,0.054-0.068,0.081
			c-0.153,0.188-0.304,0.381-0.449,0.578l-0.052,0.076c-1.343,1.667-2.381,3.318-3.18,5.049
			c-8.371,18.159-4.475,40.636-1.344,58.695l0.571,3.31c1.82,10.658,5.909,22.376,11.512,32.994
			c5.294,10.034,10.295,19.512,19.435,27.369c7.278,6.261,14.018,9.052,21.845,9.054c0,0,0.001,0,0.003,0
			c1.861,0,3.83-0.167,5.847-0.495c9.833-1.588,19.231-7.619,26.784-12.465l0.349-0.224c14.512-9.305,27.367-22.575,40.454-41.762
			c12.105-17.741,17.016-38.436,13.138-55.356c-1.717-7.495-5.321-14.098-10.744-19.704c3.701-2.459,6.358-5.69,7.512-9.297
			c0.139-0.429,0.215-0.876,0.229-1.328c0.082-2.669-0.456-5.216-1.518-7.174c-0.638-1.175-1.73-2.033-3.021-2.376
			c-1.291-0.344-2.667-0.136-3.803,0.568c-1.245,0.775-2.365,1.569-3.448,2.339c-3.188,2.262-5.119,3.543-7.743,3.543
			c-0.499,0-1.03-0.049-1.577-0.142c-3.925-0.67-8.478-3.159-12.496-5.354c-0.705-0.387-1.397-0.765-2.072-1.127
			c-3.771-2.021-7.623-3.504-11.856-4.548c0.285-1.188,0.595-2.342,0.969-3.467c2.073-6.222,2.941-11.559,2.901-17.851
			c-0.042-6.398-4.386-10.532-11.069-10.532c-4.648,0-9.552,1.905-12.349,3.793c-1.821,1.228-4.646,4.106-3.12,9.581
			c0.569,2.028,1.615,3.763,2.541,5.291c0.438,0.725,0.852,1.41,1.134,1.999c0.389,1.008,0.717,2.052,0.977,3.106l0.505,3.727
			c0.021,0.592-0.01,1.152-0.087,1.679c-2.58-0.682-5.531-1.017-8.935-1.017c-5.187,0-10.435,0.779-14.652,1.407l-0.806,0.118
			c-3.998,0.592-7.348,0.987-10.703,0.987c-1.749,0-3.407-0.108-5.069-0.328c-2.139-0.282-4.266-1.243-6.899-3.118
			c-0.131-0.093-0.41-0.385-0.635-0.621c-0.965-1.01-2.576-2.706-5.358-3.142c-0.251-0.04-0.601-0.067-0.854-0.067
			c-2.008,0-3.994,1.11-5.183,2.897c-0.296,0.445-0.517,0.937-0.652,1.453c-0.091,0.346-0.172,0.69-0.242,1.036
			c-0.058,0.279-0.091,0.563-0.1,0.85c-0.118,4.193,1.09,8.329,3.417,11.968C21.218,51.39,17.925,54.035,15.366,57.021z"/>
		<path style="fill:#E2E2E2;" d="M14.952,56.557c-0.021,0.023-0.101,0.112-0.12,0.136c-0.024,0.026-0.047,0.054-0.068,0.08
			c-0.154,0.188-0.304,0.382-0.449,0.579l-0.053,0.075c-1.342,1.668-2.381,3.318-3.18,5.05c-8.371,18.157-4.475,40.635-1.344,58.695
			l0.571,3.309c1.82,10.658,5.909,22.377,11.512,32.995c5.295,10.034,10.295,19.511,19.435,27.368
			c7.279,6.261,14.018,9.052,21.846,9.053c0,0,0.001,0,0.002,0c1.862,0,3.831-0.166,5.847-0.493
			c9.834-1.59,19.233-7.62,26.784-12.465l0.349-0.224c14.513-9.305,27.368-22.575,40.454-41.762
			c12.105-17.743,17.016-38.436,13.138-55.355c-1.717-7.496-5.319-14.098-10.744-19.704c3.701-2.459,6.358-5.691,7.512-9.298
			c0.139-0.429,0.216-0.876,0.229-1.327c0.083-2.669-0.456-5.218-1.518-7.175c-0.638-1.174-1.73-2.033-3.021-2.375
			c-1.291-0.345-2.667-0.137-3.803,0.568c-1.245,0.774-2.365,1.569-3.447,2.338c-3.188,2.263-5.12,3.542-7.744,3.542
			c-0.498,0-1.03-0.047-1.577-0.14c-3.925-0.67-8.478-3.159-12.495-5.355c-0.706-0.386-1.397-0.764-2.073-1.126
			c-3.771-2.021-7.622-3.504-11.854-4.548c0.285-1.188,0.594-2.343,0.968-3.467c2.073-6.222,2.941-11.561,2.901-17.852
			c-0.041-6.398-4.385-10.531-11.068-10.531c-4.649,0-9.553,1.904-12.35,3.793c-1.821,1.229-4.646,4.107-3.119,9.579
			c0.568,2.03,1.615,3.764,2.54,5.293c0.438,0.725,0.852,1.41,1.134,1.998c0.39,1.008,0.717,2.052,0.977,3.108l0.505,3.726
			c0.021,0.592-0.009,1.15-0.087,1.679c-2.579-0.684-5.531-1.018-8.934-1.018c-5.188,0-10.436,0.779-14.652,1.406l-0.807,0.12
			c-3.997,0.592-7.348,0.985-10.703,0.985c-1.749,0-3.407-0.107-5.068-0.326c-2.14-0.282-4.267-1.243-6.9-3.118
			c-0.13-0.094-0.409-0.386-0.633-0.621c-0.965-1.013-2.578-2.707-5.36-3.142c-0.251-0.04-0.601-0.067-0.854-0.067
			c-2.008,0-3.994,1.11-5.183,2.896c-0.296,0.445-0.517,0.936-0.652,1.453c-0.091,0.346-0.17,0.688-0.242,1.035
			c-0.058,0.279-0.091,0.563-0.1,0.85c-0.118,4.194,1.09,8.33,3.417,11.968C20.803,50.925,17.51,53.57,14.952,56.557z"/>
		<path style="fill:#D4D4D4;" d="M14.536,56.092c-0.019,0.022-0.1,0.113-0.12,0.136c-0.024,0.027-0.047,0.054-0.068,0.08
			c-0.154,0.188-0.303,0.383-0.449,0.579l-0.053,0.076c-1.342,1.667-2.38,3.317-3.179,5.048c-8.37,18.158-4.476,40.635-1.345,58.695
			l0.571,3.311c1.82,10.657,5.909,22.376,11.513,32.995c5.294,10.033,10.295,19.51,19.435,27.367
			c7.278,6.261,14.017,9.052,21.846,9.053c0,0,0,0,0.002,0c1.861,0,3.831-0.167,5.847-0.492c9.833-1.59,19.232-7.621,26.785-12.466
			l0.348-0.224c14.513-9.306,27.367-22.575,40.454-41.763c12.105-17.741,17.015-38.436,13.137-55.356
			c-1.716-7.495-5.319-14.097-10.743-19.704c3.7-2.459,6.357-5.689,7.512-9.297c0.138-0.43,0.215-0.876,0.229-1.327
			c0.084-2.67-0.456-5.218-1.518-7.175c-0.636-1.174-1.73-2.034-3.021-2.376c-1.291-0.344-2.666-0.135-3.802,0.568
			c-1.245,0.776-2.366,1.57-3.448,2.339c-3.188,2.263-5.119,3.543-7.743,3.543c-0.498,0-1.03-0.048-1.578-0.141
			c-3.924-0.67-8.478-3.159-12.493-5.355c-0.708-0.387-1.399-0.765-2.074-1.125c-3.771-2.021-7.623-3.505-11.855-4.549
			c0.286-1.188,0.595-2.343,0.968-3.467c2.073-6.222,2.942-11.56,2.902-17.851c-0.041-6.397-4.386-10.532-11.069-10.532
			c-4.649,0-9.553,1.904-12.35,3.792c-1.819,1.228-4.646,4.106-3.118,9.58c0.569,2.03,1.614,3.765,2.539,5.293
			c0.438,0.724,0.851,1.41,1.135,1.999c0.389,1.007,0.717,2.051,0.976,3.107l0.506,3.726c0.021,0.591-0.009,1.15-0.087,1.678
			c-2.58-0.684-5.532-1.018-8.935-1.018c-5.188,0-10.435,0.779-14.652,1.406l-0.806,0.119c-3.998,0.593-7.349,0.986-10.703,0.986
			c-1.749,0-3.407-0.106-5.069-0.326c-2.14-0.283-4.266-1.243-6.899-3.119c-0.13-0.093-0.409-0.385-0.634-0.619
			c-0.968-1.011-2.578-2.708-5.36-3.144c-0.25-0.039-0.601-0.065-0.853-0.065c-2.009,0-3.994,1.108-5.182,2.897
			c-0.298,0.444-0.518,0.936-0.654,1.453c-0.091,0.345-0.17,0.688-0.242,1.034c-0.059,0.28-0.091,0.563-0.1,0.85
			c-0.117,4.193,1.092,8.329,3.417,11.968C20.388,50.461,17.063,53.079,14.536,56.092z"/>
		<path style="fill:#C5C5C5;" d="M14.122,55.627c-0.019,0.023-0.101,0.113-0.121,0.136c-0.022,0.026-0.046,0.054-0.067,0.081
			c-0.155,0.188-0.303,0.382-0.449,0.578l-0.054,0.076c-1.342,1.667-2.38,3.318-3.178,5.049
			c-8.371,18.158-4.476,40.635-1.345,58.695l0.57,3.309c1.821,10.659,5.91,22.378,11.514,32.995
			c5.293,10.035,10.294,19.511,19.434,27.369c7.279,6.26,14.018,9.052,21.846,9.053c0,0,0,0,0.002,0
			c1.862,0,3.831-0.167,5.847-0.494c9.834-1.589,19.233-7.618,26.785-12.465l0.349-0.224c14.512-9.305,27.367-22.575,40.453-41.762
			c12.105-17.742,17.017-38.437,13.137-55.355c-1.715-7.496-5.319-14.097-10.742-19.704c3.7-2.459,6.356-5.691,7.512-9.297
			c0.137-0.43,0.215-0.877,0.229-1.327c0.083-2.67-0.457-5.218-1.517-7.174c-0.638-1.176-1.731-2.035-3.022-2.376
			c-1.291-0.346-2.666-0.138-3.802,0.567c-1.246,0.774-2.365,1.569-3.449,2.338c-3.188,2.263-5.119,3.543-7.743,3.543
			c-0.498,0-1.03-0.048-1.577-0.141c-3.925-0.67-8.477-3.159-12.495-5.354c-0.706-0.387-1.397-0.765-2.073-1.127
			c-3.771-2.021-7.622-3.504-11.855-4.547c0.286-1.189,0.595-2.343,0.969-3.468c2.074-6.222,2.941-11.561,2.901-17.851
			c-0.041-6.398-4.385-10.532-11.069-10.532c-4.648,0-9.553,1.905-12.349,3.793c-1.82,1.229-4.647,4.107-3.118,9.58
			c0.568,2.029,1.614,3.764,2.538,5.292c0.438,0.725,0.853,1.41,1.135,1.999c0.39,1.008,0.717,2.052,0.977,3.107l0.505,3.727
			c0.021,0.593-0.008,1.151-0.087,1.679c-2.58-0.683-5.531-1.018-8.935-1.018c-5.187,0-10.434,0.78-14.652,1.407l-0.805,0.119
			c-3.998,0.593-7.349,0.986-10.703,0.986c-1.75,0-3.407-0.108-5.069-0.327c-2.141-0.282-4.267-1.242-6.899-3.118
			c-0.131-0.093-0.41-0.385-0.635-0.62c-0.966-1.011-2.577-2.708-5.359-3.143c-0.25-0.04-0.601-0.067-0.854-0.067
			c-2.009,0-3.994,1.11-5.182,2.897c-0.297,0.444-0.518,0.936-0.654,1.453c-0.091,0.346-0.17,0.688-0.241,1.035
			c-0.058,0.279-0.092,0.563-0.1,0.851c-0.118,4.192,1.091,8.328,3.417,11.967C19.974,49.996,16.714,52.671,14.122,55.627z"/>
		<path style="fill:#B7B7B7;" d="M13.707,55.163c-0.019,0.022-0.101,0.113-0.121,0.136c-0.023,0.026-0.046,0.054-0.067,0.08
			c-0.154,0.188-0.303,0.382-0.449,0.579l-0.053,0.076c-1.341,1.667-2.381,3.317-3.179,5.049
			c-8.371,18.158-4.476,40.635-1.345,58.695l0.57,3.309c1.822,10.658,5.909,22.377,11.514,32.995
			c5.293,10.034,10.295,19.511,19.434,27.368c7.28,6.261,14.018,9.053,21.846,9.054c0.001,0,0.001,0,0.001,0
			c1.863,0,3.832-0.167,5.848-0.494c9.835-1.589,19.233-7.619,26.785-12.465l0.349-0.224c14.512-9.305,27.367-22.575,40.454-41.762
			c12.104-17.742,17.015-38.437,13.137-55.355c-1.716-7.496-5.319-14.098-10.744-19.704c3.702-2.459,6.357-5.69,7.513-9.298
			c0.138-0.429,0.215-0.876,0.23-1.327c0.082-2.669-0.458-5.217-1.519-7.175c-0.637-1.174-1.73-2.033-3.022-2.375
			c-1.29-0.345-2.665-0.137-3.801,0.568c-1.246,0.774-2.365,1.569-3.448,2.338c-3.188,2.263-5.12,3.542-7.744,3.542
			c-0.498,0-1.029-0.047-1.577-0.14c-3.925-0.67-8.477-3.159-12.494-5.354c-0.708-0.387-1.398-0.765-2.073-1.127
			c-3.771-2.021-7.624-3.504-11.856-4.548c0.286-1.188,0.595-2.343,0.968-3.467c2.075-6.222,2.942-11.56,2.902-17.852
			c-0.04-6.397-4.385-10.531-11.069-10.531c-4.649,0-9.551,1.905-12.349,3.793c-1.82,1.228-4.648,4.106-3.118,9.579
			c0.568,2.03,1.615,3.764,2.539,5.293c0.438,0.725,0.852,1.41,1.135,1.998c0.389,1.009,0.716,2.053,0.976,3.107l0.506,3.727
			c0.021,0.592-0.009,1.151-0.088,1.679c-2.579-0.683-5.531-1.018-8.934-1.018c-5.187,0-10.435,0.779-14.652,1.407l-0.806,0.119
			c-3.998,0.592-7.349,0.986-10.704,0.986c-1.749,0-3.406-0.107-5.068-0.327c-2.141-0.282-4.266-1.243-6.899-3.118
			c-0.131-0.093-0.409-0.386-0.634-0.621c-0.965-1.013-2.577-2.707-5.36-3.142c-0.25-0.04-0.6-0.067-0.854-0.067
			c-2.008,0-3.994,1.11-5.182,2.897c-0.297,0.445-0.518,0.936-0.653,1.453c-0.091,0.346-0.17,0.688-0.242,1.035
			c-0.058,0.28-0.092,0.564-0.1,0.851c-0.119,4.193,1.09,8.329,3.416,11.967C19.558,49.531,16.265,52.178,13.707,55.163z"/>
		<path style="fill:#A8A8A8;" d="M13.292,54.699c-0.02,0.022-0.1,0.111-0.121,0.135c-0.024,0.026-0.045,0.055-0.068,0.08
			c-0.158,0.184-0.303,0.382-0.448,0.579l-0.054,0.075c-1.341,1.667-2.379,3.319-3.179,5.049
			c-8.37,18.158-4.475,40.636-1.344,58.696l0.57,3.309C10.47,133.28,14.558,145,20.162,155.617
			c5.293,10.035,10.295,19.511,19.434,27.368c7.279,6.261,14.018,9.052,21.846,9.053c0,0,0,0,0.002,0
			c1.862,0,3.831-0.166,5.846-0.493c9.836-1.59,19.234-7.62,26.786-12.464l0.348-0.225c14.513-9.306,27.367-22.574,40.455-41.763
			c12.104-17.742,17.015-38.436,13.137-55.354c-1.717-7.496-5.32-14.097-10.744-19.704c3.702-2.46,6.358-5.689,7.512-9.297
			c0.139-0.43,0.216-0.877,0.23-1.328c0.083-2.669-0.457-5.218-1.518-7.175c-0.637-1.175-1.729-2.033-3.021-2.376
			c-1.291-0.345-2.666-0.136-3.803,0.568c-1.245,0.775-2.364,1.571-3.448,2.338c-3.188,2.265-5.119,3.543-7.743,3.543
			c-0.498,0-1.03-0.047-1.578-0.14c-3.923-0.669-8.476-3.158-12.494-5.355c-0.707-0.387-1.398-0.765-2.072-1.126
			c-3.772-2.021-7.624-3.503-11.856-4.547c0.286-1.189,0.595-2.344,0.969-3.467c2.074-6.222,2.942-11.562,2.902-17.853
			C101.307,9.424,96.963,5.29,90.278,5.29c-4.649,0-9.552,1.905-12.349,3.793c-1.82,1.229-4.647,4.106-3.118,9.579
			c0.568,2.03,1.614,3.764,2.539,5.293c0.438,0.726,0.853,1.411,1.135,1.998c0.388,1.008,0.716,2.052,0.976,3.108l0.506,3.727
			c0.021,0.593-0.01,1.15-0.087,1.679c-2.581-0.684-5.532-1.018-8.936-1.018c-5.187,0-10.435,0.779-14.651,1.406l-0.806,0.12
			c-3.997,0.592-7.349,0.985-10.704,0.985c-1.749,0-3.406-0.106-5.067-0.326c-2.142-0.281-4.267-1.242-6.9-3.118
			c-0.131-0.093-0.409-0.386-0.635-0.621c-0.964-1.013-2.576-2.707-5.359-3.141c-0.25-0.04-0.601-0.068-0.854-0.068
			c-2.008,0-3.994,1.11-5.182,2.896c-0.298,0.445-0.518,0.936-0.653,1.453c-0.091,0.347-0.172,0.689-0.243,1.035
			c-0.058,0.279-0.091,0.563-0.098,0.85c-0.12,4.193,1.089,8.33,3.415,11.968C19.142,49.066,15.884,51.741,13.292,54.699z"/>
		<path style="fill:#9A9A9A;" d="M12.877,54.234c-0.021,0.022-0.101,0.112-0.121,0.135c-0.022,0.026-0.046,0.055-0.068,0.081
			c-0.154,0.188-0.303,0.382-0.448,0.578l-0.054,0.076c-1.341,1.667-2.379,3.318-3.179,5.049
			c-8.37,18.158-4.475,40.635-1.344,58.695l0.571,3.309c1.82,10.659,5.908,22.378,11.513,32.995
			c5.293,10.035,10.295,19.512,19.433,27.369c7.28,6.259,14.019,9.052,21.848,9.052h0.001c1.863,0,3.83-0.167,5.847-0.492
			c9.834-1.59,19.232-7.62,26.784-12.467l0.35-0.223c14.512-9.305,27.366-22.576,40.454-41.762
			c12.104-17.742,17.015-38.437,13.137-55.355c-1.717-7.495-5.32-14.097-10.744-19.704c3.702-2.459,6.358-5.69,7.512-9.297
			c0.139-0.43,0.216-0.877,0.23-1.327c0.082-2.67-0.457-5.218-1.518-7.175c-0.638-1.175-1.73-2.034-3.021-2.376
			c-1.291-0.345-2.667-0.137-3.803,0.568c-1.245,0.775-2.365,1.569-3.448,2.338c-3.188,2.263-5.12,3.543-7.742,3.543
			c-0.5,0-1.031-0.048-1.578-0.141c-3.924-0.669-8.478-3.159-12.495-5.354c-0.706-0.387-1.399-0.765-2.073-1.126
			c-3.771-2.021-7.623-3.504-11.855-4.549c0.285-1.188,0.595-2.342,0.969-3.467c2.073-6.222,2.941-11.56,2.901-17.851
			c-0.041-6.398-4.385-10.532-11.069-10.532c-4.648,0-9.552,1.905-12.35,3.793c-1.819,1.228-4.646,4.106-3.118,9.58
			c0.569,2.03,1.615,3.764,2.54,5.292c0.438,0.725,0.853,1.41,1.135,1.999c0.389,1.008,0.716,2.052,0.976,3.107l0.505,3.726
			c0.021,0.593-0.009,1.151-0.087,1.679c-2.58-0.683-5.531-1.017-8.934-1.017c-5.188,0-10.435,0.779-14.652,1.406l-0.806,0.119
			c-3.997,0.592-7.349,0.986-10.704,0.986c-1.749,0-3.407-0.107-5.067-0.327c-2.142-0.282-4.268-1.242-6.901-3.118
			c-0.131-0.093-0.409-0.386-0.634-0.62c-0.964-1.013-2.576-2.708-5.359-3.143c-0.251-0.039-0.601-0.067-0.854-0.067
			c-2.008,0-3.994,1.11-5.183,2.898c-0.296,0.445-0.516,0.935-0.652,1.453c-0.091,0.346-0.171,0.688-0.242,1.035
			c-0.059,0.279-0.092,0.563-0.1,0.85c-0.119,4.193,1.09,8.329,3.417,11.968C18.728,48.603,15.434,51.247,12.877,54.234z"/>
		<path style="fill:#8B8B8B;" d="M12.462,53.769c-0.021,0.023-0.101,0.114-0.121,0.137c-0.024,0.026-0.046,0.053-0.067,0.079
			c-0.155,0.188-0.304,0.383-0.449,0.579l-0.053,0.077c-1.342,1.667-2.381,3.317-3.18,5.048
			c-8.371,18.158-4.475,40.635-1.344,58.695l0.571,3.31c1.82,10.659,5.909,22.376,11.512,32.995
			c5.294,10.033,10.295,19.51,19.435,27.367c7.279,6.261,14.018,9.053,21.847,9.054c0,0,0,0,0.002,0c1.861,0,3.83-0.167,5.846-0.493
			c9.834-1.589,19.232-7.62,26.785-12.466l0.348-0.224c14.514-9.305,27.367-22.575,40.454-41.761
			c12.105-17.742,17.016-38.437,13.138-55.356c-1.717-7.496-5.32-14.098-10.744-19.704c3.701-2.459,6.358-5.69,7.512-9.298
			c0.139-0.428,0.216-0.876,0.229-1.327c0.083-2.669-0.456-5.217-1.518-7.174c-0.638-1.174-1.73-2.034-3.021-2.376
			c-1.291-0.344-2.667-0.136-3.803,0.568c-1.244,0.775-2.365,1.569-3.448,2.339c-3.189,2.262-5.119,3.543-7.743,3.543
			c-0.498,0-1.03-0.049-1.577-0.141c-3.925-0.671-8.478-3.16-12.495-5.355c-0.706-0.387-1.397-0.765-2.072-1.126
			c-3.772-2.021-7.624-3.505-11.856-4.549c0.286-1.188,0.595-2.342,0.969-3.467c2.073-6.222,2.941-11.561,2.902-17.851
			C100.477,8.495,96.133,4.36,89.448,4.36c-4.648,0-9.552,1.905-12.349,3.793c-1.821,1.228-4.646,4.106-3.119,9.58
			c0.568,2.029,1.615,3.764,2.54,5.293c0.438,0.724,0.852,1.409,1.134,1.999c0.39,1.007,0.717,2.051,0.977,3.106l0.506,3.727
			c0.021,0.591-0.01,1.15-0.088,1.678c-2.579-0.683-5.531-1.017-8.934-1.017c-5.188,0-10.436,0.779-14.652,1.406l-0.807,0.119
			c-3.997,0.592-7.348,0.986-10.703,0.986c-1.749,0-3.407-0.107-5.068-0.327c-2.14-0.282-4.267-1.243-6.9-3.118
			c-0.13-0.093-0.41-0.385-0.634-0.62c-0.966-1.012-2.577-2.708-5.359-3.143c-0.251-0.04-0.601-0.066-0.854-0.066
			c-2.008,0-3.993,1.109-5.182,2.896c-0.297,0.444-0.517,0.937-0.653,1.453c-0.091,0.345-0.171,0.688-0.242,1.035
			c-0.058,0.28-0.091,0.563-0.1,0.85c-0.118,4.193,1.09,8.329,3.417,11.968C18.313,48.139,15.019,50.783,12.462,53.769z"/>
		<path style="fill:#7D7D7D;" d="M12.047,53.305c-0.02,0.023-0.101,0.112-0.12,0.136c-0.024,0.026-0.047,0.054-0.068,0.08
			c-0.154,0.188-0.304,0.382-0.449,0.579l-0.053,0.075c-1.342,1.668-2.381,3.318-3.18,5.05c-8.371,18.157-4.475,40.635-1.344,58.695
			l0.571,3.309c1.82,10.658,5.909,22.377,11.512,32.995c5.295,10.034,10.295,19.511,19.434,27.368
			c7.279,6.261,14.018,9.052,21.846,9.053c0.001,0,0.001,0,0.001,0c1.863,0,3.832-0.166,5.848-0.493
			c9.834-1.59,19.233-7.62,26.784-12.465l0.349-0.224c14.513-9.305,27.368-22.575,40.454-41.762
			c12.105-17.743,17.016-38.437,13.138-55.355c-1.717-7.496-5.319-14.098-10.744-19.704c3.701-2.459,6.358-5.69,7.512-9.298
			c0.139-0.429,0.216-0.876,0.23-1.327c0.083-2.669-0.456-5.218-1.518-7.175c-0.638-1.174-1.73-2.033-3.021-2.375
			c-1.291-0.345-2.667-0.137-3.803,0.568c-1.245,0.774-2.365,1.569-3.447,2.338c-3.188,2.263-5.12,3.542-7.744,3.542
			c-0.498,0-1.03-0.047-1.577-0.14c-3.925-0.67-8.477-3.159-12.495-5.355c-0.706-0.386-1.397-0.764-2.073-1.126
			c-3.771-2.021-7.622-3.504-11.854-4.548c0.285-1.189,0.594-2.343,0.968-3.467c2.073-6.222,2.941-11.561,2.901-17.852
			C100.062,8.03,95.718,3.897,89.034,3.897c-4.649,0-9.553,1.904-12.35,3.793c-1.821,1.229-4.646,4.106-3.119,9.579
			c0.568,2.03,1.615,3.764,2.54,5.293c0.438,0.725,0.852,1.41,1.134,1.998c0.39,1.008,0.717,2.052,0.977,3.107l0.505,3.727
			c0.021,0.592-0.009,1.15-0.087,1.679c-2.579-0.684-5.531-1.018-8.933-1.018c-5.188,0-10.436,0.779-14.652,1.406l-0.807,0.12
			c-3.997,0.592-7.348,0.985-10.703,0.985c-1.749,0-3.407-0.106-5.068-0.326c-2.14-0.282-4.267-1.243-6.9-3.118
			c-0.13-0.094-0.409-0.386-0.633-0.621c-0.965-1.013-2.578-2.707-5.36-3.142c-0.251-0.04-0.601-0.067-0.854-0.067
			c-2.008,0-3.994,1.11-5.183,2.896c-0.296,0.445-0.517,0.936-0.652,1.453c-0.091,0.346-0.17,0.689-0.242,1.035
			c-0.058,0.279-0.091,0.563-0.1,0.85c-0.118,4.194,1.09,8.33,3.417,11.968C17.897,47.673,14.604,50.318,12.047,53.305z"/>
		<path style="fill:#6E6E6E;" d="M11.632,52.84c-0.019,0.022-0.101,0.112-0.12,0.135c-0.024,0.027-0.047,0.055-0.068,0.082
			c-0.153,0.188-0.303,0.381-0.449,0.578l-0.053,0.076c-1.342,1.667-2.381,3.317-3.18,5.048c-8.37,18.159-4.475,40.636-1.344,58.695
			l0.571,3.311c1.82,10.658,5.909,22.376,11.512,32.994c5.295,10.034,10.295,19.512,19.436,27.369
			c7.278,6.261,14.017,9.051,21.845,9.053c0,0,0.001,0,0.002,0c1.862,0,3.831-0.167,5.847-0.494
			c9.834-1.589,19.233-7.619,26.785-12.464l0.348-0.224c14.513-9.307,27.368-22.575,40.454-41.763
			c12.105-17.742,17.016-38.437,13.138-55.356c-1.716-7.494-5.319-14.097-10.743-19.704c3.7-2.459,6.357-5.689,7.512-9.296
			c0.138-0.43,0.215-0.876,0.229-1.328c0.083-2.67-0.456-5.217-1.518-7.174c-0.636-1.176-1.73-2.034-3.021-2.376
			c-1.291-0.345-2.666-0.136-3.802,0.567c-1.246,0.776-2.366,1.57-3.448,2.339c-3.189,2.263-5.119,3.543-7.744,3.543
			c-0.498,0-1.029-0.048-1.577-0.141c-3.925-0.67-8.478-3.159-12.494-5.354c-0.707-0.388-1.398-0.766-2.074-1.127
			c-3.771-2.02-7.622-3.504-11.854-4.547c0.285-1.189,0.595-2.344,0.968-3.468c2.073-6.222,2.941-11.56,2.901-17.852
			C99.646,7.565,95.303,3.431,88.619,3.431c-4.649,0-9.553,1.905-12.35,3.793c-1.82,1.229-4.646,4.107-3.118,9.581
			c0.568,2.029,1.614,3.764,2.539,5.292c0.438,0.724,0.852,1.411,1.134,1.998c0.39,1.008,0.718,2.052,0.976,3.108l0.505,3.726
			c0.021,0.592-0.008,1.151-0.086,1.678c-2.58-0.682-5.532-1.016-8.935-1.016c-5.188,0-10.435,0.779-14.652,1.406l-0.806,0.118
			c-3.998,0.594-7.349,0.987-10.703,0.987c-1.749,0-3.408-0.106-5.069-0.327c-2.14-0.283-4.266-1.243-6.899-3.119
			c-0.131-0.093-0.409-0.385-0.634-0.619c-0.968-1.011-2.578-2.707-5.36-3.143c-0.25-0.039-0.601-0.066-0.854-0.066
			c-2.009,0-3.995,1.108-5.183,2.896c-0.297,0.444-0.518,0.935-0.653,1.452c-0.091,0.346-0.17,0.688-0.242,1.035
			c-0.058,0.279-0.091,0.563-0.1,0.851c-0.118,4.192,1.091,8.328,3.417,11.967C17.483,47.209,14.189,49.854,11.632,52.84z"/>
		<path style="fill:#606060;" d="M11.217,52.375c-0.02,0.023-0.101,0.113-0.12,0.136c-0.023,0.026-0.047,0.054-0.068,0.081
			c-0.155,0.187-0.303,0.381-0.449,0.578l-0.053,0.076c-1.342,1.667-2.381,3.318-3.179,5.049
			C-1.023,76.453,2.872,98.93,6.003,116.99l0.571,3.309c1.82,10.659,5.909,22.378,11.513,32.995
			c5.294,10.035,10.294,19.511,19.434,27.369c7.279,6.26,14.017,9.052,21.846,9.053c0.001,0,0.001,0,0.001,0
			c1.863,0,3.832-0.167,5.848-0.494c9.834-1.589,19.233-7.619,26.785-12.465l0.349-0.224c14.512-9.305,27.367-22.575,40.453-41.762
			c12.105-17.742,17.017-38.437,13.138-55.355c-1.716-7.496-5.319-14.097-10.743-19.704c3.7-2.459,6.357-5.69,7.512-9.297
			c0.138-0.43,0.215-0.877,0.229-1.327c0.083-2.67-0.456-5.218-1.517-7.175c-0.638-1.175-1.732-2.034-3.023-2.376
			c-1.291-0.345-2.666-0.137-3.802,0.568c-1.246,0.774-2.365,1.569-3.448,2.338c-3.188,2.263-5.12,3.543-7.744,3.543
			c-0.498,0-1.029-0.048-1.577-0.141c-3.925-0.67-8.477-3.159-12.494-5.354c-0.707-0.387-1.398-0.765-2.074-1.127
			c-3.771-2.021-7.622-3.504-11.854-4.547c0.285-1.19,0.594-2.343,0.968-3.468c2.074-6.222,2.941-11.56,2.901-17.851
			c-0.04-6.398-4.385-10.532-11.068-10.532c-4.649,0-9.553,1.905-12.35,3.793c-1.82,1.228-4.646,4.106-3.118,9.58
			c0.568,2.029,1.615,3.763,2.539,5.292c0.438,0.725,0.852,1.41,1.134,1.999c0.39,1.008,0.718,2.052,0.977,3.106l0.505,3.727
			c0.021,0.593-0.008,1.151-0.087,1.679c-2.579-0.683-5.531-1.018-8.934-1.018c-5.188,0-10.435,0.78-14.652,1.407l-0.806,0.119
			c-3.998,0.592-7.349,0.986-10.703,0.986c-1.75,0-3.407-0.107-5.069-0.327c-2.14-0.282-4.267-1.242-6.899-3.118
			c-0.131-0.093-0.409-0.386-0.634-0.62c-0.965-1.013-2.578-2.708-5.359-3.143c-0.251-0.04-0.601-0.067-0.854-0.067
			c-2.009,0-3.995,1.11-5.183,2.897c-0.297,0.444-0.518,0.935-0.653,1.452c-0.091,0.347-0.17,0.689-0.242,1.036
			c-0.058,0.279-0.091,0.563-0.1,0.85c-0.118,4.193,1.091,8.329,3.417,11.968C17.068,46.744,13.743,49.362,11.217,52.375z"/>
	</g>
	<path style="fill:#FFFFFF;" d="M11.217,52.375c-0.02,0.023-0.101,0.113-0.12,0.136c-0.023,0.026-0.047,0.054-0.068,0.081
		c-0.155,0.187-0.303,0.381-0.449,0.578l-0.053,0.076c-1.342,1.667-2.381,3.318-3.179,5.049C-1.023,76.453,2.872,98.93,6.003,116.99
		l0.571,3.309c1.82,10.659,5.909,22.378,11.513,32.995c5.294,10.035,10.294,19.511,19.434,27.369
		c7.279,6.26,14.017,9.052,21.846,9.053c0.001,0,0.001,0,0.001,0c1.863,0,3.832-0.167,5.848-0.494
		c9.834-1.589,19.233-7.619,26.785-12.465l0.349-0.224c14.512-9.305,27.367-22.575,40.453-41.762
		c12.105-17.742,17.017-38.437,13.138-55.355c-1.716-7.496-5.319-14.097-10.743-19.704c3.7-2.459,6.357-5.69,7.512-9.297
		c0.138-0.43,0.215-0.877,0.229-1.327c0.083-2.67-0.456-5.218-1.517-7.175c-0.638-1.175-1.732-2.034-3.023-2.376
		c-1.291-0.345-2.666-0.137-3.802,0.568c-1.246,0.774-2.365,1.569-3.448,2.338c-3.188,2.263-5.12,3.543-7.744,3.543
		c-0.498,0-1.029-0.048-1.577-0.141c-3.925-0.67-8.477-3.159-12.494-5.354c-0.707-0.387-1.398-0.765-2.074-1.127
		c-3.771-2.021-7.622-3.504-11.854-4.547c0.285-1.19,0.594-2.343,0.968-3.468c2.074-6.222,2.941-11.56,2.901-17.851
		c-0.04-6.398-4.385-10.532-11.068-10.532c-4.649,0-9.553,1.905-12.35,3.793c-1.82,1.228-4.646,4.106-3.118,9.58
		c0.568,2.029,1.615,3.763,2.539,5.292c0.438,0.725,0.852,1.41,1.134,1.999c0.39,1.008,0.718,2.052,0.977,3.106l0.505,3.727
		c0.021,0.593-0.008,1.151-0.087,1.679c-2.579-0.683-5.531-1.018-8.934-1.018c-5.188,0-10.435,0.78-14.652,1.407l-0.806,0.119
		c-3.998,0.592-7.349,0.986-10.703,0.986c-1.75,0-3.407-0.107-5.069-0.327c-2.14-0.282-4.267-1.242-6.899-3.118
		c-0.131-0.093-0.409-0.386-0.634-0.62c-0.965-1.013-2.578-2.708-5.359-3.143c-0.251-0.04-0.601-0.067-0.854-0.067
		c-2.009,0-3.995,1.11-5.183,2.897c-0.297,0.444-0.518,0.935-0.653,1.452c-0.091,0.347-0.17,0.689-0.242,1.036
		c-0.058,0.279-0.091,0.563-0.1,0.85c-0.118,4.193,1.091,8.329,3.417,11.968C17.068,46.744,13.743,49.362,11.217,52.375z"/>
	<g>
		<g>
			<path style="fill:#5E2C00;" d="M78.567,10.78c-1.652,1.114-1.616,2.621-1.16,4.253c0.643,2.3,2.458,4.501,3.463,6.686
				c0.527,1.344,0.957,2.717,1.289,4.123c0.188,1.394,0.378,2.792,0.567,4.19c0.307,5.98-2.766,10.403-9.215,13.262
				c-0.066-0.594-0.878,0.358-0.906,0.658c-0.012,0.126-0.024,0.25-0.034,0.378c-0.008,0.078,0.046,0.207,0.146,0.204
				c0.959-0.039,1.841-0.182,2.664-0.399c-0.031,0.12-0.041,0.225-0.021,0.319c1.384,6.504,10.437,6,12.561,0.182
				c1.749-4.788,2.217-9.912,3.85-14.818c1.854-5.565,2.689-10.438,2.652-16.288C94.368,4.86,82.86,7.883,78.567,10.78z"/>
			<path style="fill:#9FC443;" d="M92.447,20.685c-0.197,5.103-2.658,9.941-4.113,14.733c-0.442,1.456-0.816,2.511-0.969,3.982
				c-0.593,5.792-7.923,9.956-10.06,4.029c8.279-4.011,8.1-17.936,4.707-25.349c-0.778-1.697-1.876-3.222-2.672-4.912
				c-0.933-1.979,4.694-2.815,5.534-2.88C92.685,9.691,92.692,14.438,92.447,20.685z"/>
			<path style="fill:#5E2C00;" d="M141.212,80.499c-4.517-19.723-23.045-29.276-41.134-33.588
				c-19.058-4.539-40.247-7.407-59.716-3.64c-9.407,1.817-19.492,5.138-25.469,12.268c-0.044,0.052-0.091,0.101-0.135,0.151
				c-0.158,0.191-0.301,0.397-0.453,0.595c-0.986,1.227-1.866,2.55-2.554,4.04c-8.223,17.838-3.57,40.596-0.396,59.157
				c1.817,10.641,5.999,22.031,11.021,31.549c5.103,9.671,9.883,18.711,18.307,25.954c7.316,6.292,14.144,9.009,23.758,7.449
				c8.978-1.451,17.768-7.158,25.29-11.983c15.979-10.247,28.476-24.887,39.065-40.413
				C138.616,117.644,145.231,98.031,141.212,80.499z"/>
			<path style="fill:#ED1C28;" d="M130.905,67.515c-5.115-5.035-10.872-8.921-17.048-11.939c-4.825-3.329-10.864-5.199-16.332-6.552
				c-9.625-2.383-19.686-4.281-29.589-4.892c-9.659-0.592-19.919,0.093-29.355,2.257c-2.378,0.546-4.814,1.274-7.199,2.18
				c-1.596,0.349-3.169,0.745-4.671,1.243c-4.765,1.938-9.063,4.663-11.983,8.524c-6.392,9.561-5.346,23.712-4.493,34.549
				c1.773,22.523,7.526,43.419,18.224,63.303c4.722,8.776,11.558,17.726,20.441,22.727c11.381,6.411,22.865,1.684,33.319-4.255
				c19.422-11.028,33.823-26.602,46.277-44.937C139.412,113.652,146.725,83.096,130.905,67.515z"/>
			<path style="fill:#F7B19C;" d="M43.302,174.57c-7.048-10.142-11.54-22.028-15.106-33.778
				c-3.413-11.244-6.059-22.746-7.933-34.349c-2.101-13.004-4.554-28.584,1.363-40.829c4.629-9.581,12.508-15.694,21.512-20.133
				c-1.532,0.272-3.059,0.566-4.558,0.908c-2.378,0.546-4.814,1.274-7.199,2.18c-1.596,0.349-3.169,0.745-4.671,1.243
				c-4.765,1.938-9.063,4.663-11.983,8.524c-6.392,9.561-5.346,23.712-4.493,34.549c1.773,22.523,7.526,43.419,18.224,63.303
				c3.846,7.15,9.094,14.411,15.709,19.563C43.877,175.358,43.581,174.973,43.302,174.57z"/>
			<path style="fill:#ED1C28;" d="M130.905,67.515c-5.115-5.035-10.872-8.921-17.048-11.939c-4.825-3.329-10.864-5.199-16.332-6.552
				c-9.625-2.383-19.686-4.281-29.589-4.892c-5.337-0.325-10.848-0.229-16.307,0.259c-8.952,10.66-14.598,24.76-6.52,37.189
				c3.06-13.022,14.635-23.684,26.84-28.235c0.494-0.184,0.952,0.282,0.977,0.745c0.497,9.222,8.546,16.48,15.523,21.553
				c6.042,4.392,12.552,8.098,19.315,11.257c0.171-3.464-0.016-6.922-0.054-10.394c-0.008-0.71,0.83-0.975,1.318-0.546
				c9.305,8.121,9.336,22.502,7.475,33.727c-1.964,11.859-6.418,22.426-13.073,32.375c-7.625,11.399-16.696,22.331-27.64,30.689
				c-4.971,3.792-10.589,7.248-16.567,9.186c7.91,0.406,15.703-3.136,22.994-7.276c19.422-11.028,33.823-26.602,46.277-44.937
				C139.412,113.652,146.725,83.096,130.905,67.515z"/>
			<path style="fill:#5E2C00;" d="M138.089,48.937c0.053-1.709-0.241-3.437-0.933-4.711c-5.253,3.264-8.983,7.62-16.146,6.401
				c-5.475-0.935-11.207-4.396-16.043-6.987c-8.628-4.622-16.945-5.629-26.047-6.007c-6.992-2.978-17.633-1.242-24.799-0.184
				c-5.855,0.867-11.177,1.456-17.117,0.67c-3.388-0.447-6.315-2.008-9.074-3.973c-1.44-1.023-2.139-2.644-3.941-2.927
				c-0.408-0.064-0.961,0.304-1.241,0.725c-0.069,0.264-0.13,0.525-0.185,0.789c-0.2,7.087,4.667,13.475,10.807,16.38
				c6.079,2.873,12.699,2.146,19.009,0.327c-0.202,0.239-0.4,0.473-0.589,0.702c-2.268,2.776-4.151,5.738-5.065,9.254
				c-0.635,2.444-2.456,8.32-0.397,10.542c0.247,0.269,0.732,0.055,0.982-0.075c2.331-1.223,3.282-4.635,4.637-6.712
				c5.309-8.146,16.757-12.715,25.998-14.441c0.038-0.006,0.088-0.033,0.14-0.069c-0.031,5.272,1.713,9.758,5.381,14.723
				c5.815,7.872,14.579,13.39,23.951,15.706c0.539,0.134,1.504-0.774,1.224-1.313c-2.232-4.294-6.3-7.594-8.602-12.15
				c-1.413-2.796-2.179-5.729-2.75-8.721c3.402,5.023,8.862,8.495,14.947,10.198c4.533,1.266,15.668,3.469,19.424-0.09
				c0.269-0.254,0.961-1.091,0.371-1.368c-4.074-1.919-7.061-3.763-9.748-6.292C128.255,58.745,136.157,54.974,138.089,48.937z"/>
			<path style="fill:#9FC443;" d="M121.597,57.636c-0.154,0.024-0.389,0.174-0.626,0.371c-0.744-0.791-1.474-1.653-2.21-2.586
				c0.165,2.959,1.574,5.876,3.892,7.72c1.086,0.883,2.25,1.724,3.513,2.547c0.407,0.268,0.797,0.47,1.184,0.648
				c-0.864,0.015-1.729,0.015-2.596-0.016c-8.724-0.073-18.319-2.494-24.458-8.573c-2.169-1.586-4.06-3.617-5.476-5.857
				c0.049,0.144,0.088,0.295,0.141,0.44c-0.439,5.209,1.091,9.856,3.349,14.54c0.954,1.979,2.215,3.809,3.436,5.629
				c0.949,1.412,2.408,2.611,3.654,3.903C93.228,71.025,81.407,61.45,79.674,48.224c-0.631-0.055-1.261-0.126-1.887-0.208
				c-8.559,0.69-19.956,5.296-25.376,12.031c-1.602,1.992-2.988,4.093-4.394,6.225c0.034-0.603,0.08-1.48,0.156-2.799
				c0.302-5.345,2.831-10.636,6.609-14.772c0.081-0.024,0.158-0.057,0.239-0.085c0.327-0.441,0.653-0.885,0.983-1.325
				c-0.755,0.068-1.513,0.12-2.271,0.158c-6.146,1.426-12.143,1.92-18.772-0.284c-4.455-1.479-7.873-5.519-9.546-9.746
				c-0.354-0.896-2.498-5.127-0.476-3.208c1.13,1.073,2.196,2.191,3.597,2.939c7.905,4.219,15.795,3.636,24.391,2.256
				c7.321-1.172,14.692-1.307,22.065-1.08c6.268,1.039,12.521,1.261,18.787,2.963c8.131,2.212,15.526,7.235,23.35,10.35
				c4.505,1.793,8.834,1.49,13.168-0.422c1.927-0.854,3.61-2.786,5.071-4.21c1.209,1.405,0.946,2.893-0.784,4.454
				C132.01,56.496,126.252,56.877,121.597,57.636z"/>
			<path style="fill:#9FC443;" d="M78.186,48.059c0.386-0.179,0.779-0.34,1.189-0.473c-5.89-2.806-14.235,0.583-19.316,3.681
				c-3.448,2.104-7.571,4.424-9.662,8.028c-0.567,0.982-1.68,2.917-2.257,4.788c-0.056,0.977-0.095,1.689-0.122,2.188
				c1.405-2.132,2.792-4.232,4.394-6.225c5.42-6.735,16.817-11.342,25.376-12.031C77.919,48.031,78.052,48.043,78.186,48.059z"/>
			<path style="fill:#9FC443;" d="M101.744,72.499c-1.221-1.82-2.481-3.649-3.436-5.629c-2.258-4.684-3.788-9.331-3.349-14.54
				c-0.053-0.146-0.092-0.296-0.141-0.44c0.104,0.163,0.228,0.316,0.336,0.477c-0.105-0.886-0.174-1.789-0.185-2.713
				c-4.577,1.605-2.24,11.539-1.112,14.749c1.479,4.21,5.309,8.36,9.578,11.085c0.653,0.314,1.308,0.622,1.963,0.914
				C104.152,75.11,102.693,73.911,101.744,72.499z"/>
			<path style="fill:#9FC443;" d="M135.37,47.006c-1.461,1.424-3.145,3.356-5.071,4.21c-4.334,1.912-8.663,2.215-13.168,0.422
				c-7.823-3.114-15.219-8.138-23.35-10.35c-6.266-1.702-12.519-1.924-18.787-2.963c-7.373-0.227-14.744-0.092-22.065,1.08
				c-8.596,1.38-16.485,1.963-24.391-2.256c-1.4-0.748-2.467-1.866-3.597-2.939c-0.32-0.305-0.528-0.439-0.662-0.475
				c3.849,4.46,11.284,6.874,16.264,8.078c11.923,2.882,23.992,1.109,36.056,0.774c10.47-0.288,22.305,0.188,30.889,6.979
				c6.905,5.464,11.824,12.712,19.395,16.765c0.156-0.002,0.312,0.005,0.467,0.005c-0.387-0.179-0.776-0.381-1.184-0.648
				c-1.263-0.823-2.427-1.664-3.513-2.547c-2.317-1.844-3.727-4.761-3.892-7.72c0.736,0.933,1.466,1.795,2.21,2.586
				c0.237-0.197,0.472-0.347,0.626-0.371c4.655-0.759,10.413-1.14,12.989-6.176C136.316,49.899,136.579,48.411,135.37,47.006z"/>
			<g>
				<path style="fill:#F19C54;" d="M25.661,76.899c-0.44,2.712-2.182,4.682-3.895,4.406c-1.714-0.277-2.748-2.698-2.312-5.409
					c0.437-2.707,2.181-4.676,3.895-4.396C25.063,71.774,26.098,74.193,25.661,76.899z"/>
				<path style="fill:#FBE25F;" d="M22.939,74.92c-0.152,0.943-0.758,1.629-1.354,1.532c-0.595-0.097-0.954-0.938-0.803-1.881
					c0.15-0.939,0.757-1.625,1.354-1.528C22.731,73.14,23.091,73.98,22.939,74.92z"/>
				<path style="fill:#E76225;" d="M48.494,101.246c-0.155,0.942-0.761,1.628-1.355,1.529c-0.595-0.095-0.954-0.938-0.803-1.877
					c0.152-0.941,0.759-1.627,1.354-1.532C48.286,99.465,48.645,100.304,48.494,101.246z"/>
				<path style="fill:#F19C54;" d="M130.454,94.758c-0.874,2.603-2.918,4.26-4.562,3.707c-1.646-0.553-2.271-3.109-1.396-5.709
					c0.873-2.603,2.915-4.26,4.56-3.707C130.702,89.601,131.327,92.155,130.454,94.758z"/>
				<path style="fill:#F19C54;" d="M81.08,82.966c-0.44,2.71-2.184,4.682-3.896,4.407c-1.713-0.277-2.746-2.698-2.31-5.409
					c0.438-2.708,2.182-4.678,3.894-4.399C80.48,77.839,81.517,80.258,81.08,82.966z"/>
				<path style="fill:#F19C54;" d="M51.63,103.284c-0.438,2.712-2.182,4.683-3.893,4.405c-1.715-0.278-2.748-2.697-2.31-5.407
					c0.436-2.71,2.181-4.677,3.893-4.399C51.032,98.157,52.067,100.577,51.63,103.284z"/>
				<path style="fill:#F19C54;" d="M107.04,144.641c-1.52,2.287-3.92,3.362-5.367,2.401c-1.445-0.961-1.388-3.591,0.133-5.879
					c1.519-2.288,3.919-3.354,5.364-2.396C108.615,139.729,108.56,142.355,107.04,144.641z"/>
				<path style="fill:#F19C54;" d="M82.718,167.597c-1.518,2.283-3.921,3.359-5.366,2.4c-1.447-0.96-1.388-3.591,0.131-5.881
					c1.519-2.286,3.919-3.352,5.365-2.396C84.294,162.679,84.237,165.311,82.718,167.597z"/>
				<path style="fill:#F19C54;" d="M48.393,163.685c0.595,2.678-0.295,5.157-1.989,5.533c-1.693,0.376-3.549-1.488-4.146-4.169
					c-0.596-2.677,0.297-5.149,1.989-5.525C45.941,159.145,47.798,161.007,48.393,163.685z"/>
				<path style="fill:#F19C54;" d="M68.269,133.987c-0.437,2.707-2.182,4.68-3.894,4.401c-1.713-0.274-2.747-2.695-2.311-5.405
					c0.437-2.709,2.182-4.675,3.894-4.402C67.671,128.86,68.707,131.279,68.269,133.987z"/>
				<path style="fill:#F19C54;" d="M104.984,113.778c-1.224,2.456-3.476,3.817-5.028,3.042c-1.554-0.771-1.82-3.388-0.595-5.848
					c1.223-2.457,3.475-3.816,5.027-3.041C105.94,108.704,106.211,111.321,104.984,113.778z"/>
				<path style="fill:#F19C54;" d="M31.533,129.537c0.27,2.728-0.911,5.08-2.639,5.25c-1.728,0.17-3.347-1.902-3.615-4.636
					c-0.272-2.729,0.911-5.079,2.638-5.249C29.646,124.731,31.264,126.804,31.533,129.537z"/>
				<path style="fill:#FBE25F;" d="M48.494,101.246c-0.155,0.942-0.761,1.628-1.355,1.529c-0.595-0.095-0.954-0.938-0.803-1.877
					c0.152-0.941,0.759-1.627,1.354-1.532C48.286,99.465,48.645,100.304,48.494,101.246z"/>
				<path style="fill:#FBE25F;" d="M27.959,128.306c-0.153,0.942-0.759,1.625-1.354,1.528c-0.596-0.091-0.955-0.935-0.804-1.877
					c0.151-0.942,0.759-1.626,1.353-1.532C27.751,126.521,28.11,127.363,27.959,128.306z"/>
			</g>
		</g>
		<path style="fill:#FBE25F;" d="M45.249,162.938c0.129,0.944-0.251,1.78-0.846,1.859c-0.599,0.08-1.188-0.618-1.318-1.562
			c-0.131-0.944,0.248-1.776,0.846-1.859C44.528,161.294,45.117,161.991,45.249,162.938z"/>
		<path style="fill:#FBE25F;" d="M65.087,131.824c-0.231,0.927-0.895,1.558-1.478,1.413c-0.586-0.145-0.874-1.018-0.642-1.938
			c0.229-0.929,0.891-1.557,1.476-1.412C65.03,130.034,65.318,130.901,65.087,131.824z"/>
	</g>
</g>
</svg>
