<?xml version="1.0" encoding="UTF-8"?>
<svg xmlns="http://www.w3.org/2000/svg" xmlns:xlink="http://www.w3.org/1999/xlink" viewBox="0 0 67.39 151.74">
  <defs>
    <style>
      .cls-1 {
        fill: url(#linear-gradient);
      }

      .cls-1, .cls-2 {
        opacity: .4;
      }

      .cls-1, .cls-3, .cls-4 {
        mix-blend-mode: screen;
      }

      .cls-5 {
        fill: #ecae9d;
        opacity: .3;
      }

      .cls-5, .cls-2 {
        mix-blend-mode: multiply;
      }

      .cls-2 {
        fill: #f9b38f;
      }

      .cls-6, .cls-4 {
        fill: #fbd4b8;
      }

      .cls-7 {
        isolation: isolate;
      }

      .cls-8 {
        fill: #e37e5a;
      }

      .cls-3 {
        fill: #ea9398;
        opacity: .7;
      }

      .cls-4 {
        opacity: .8;
      }

      .cls-9 {
        fill: #e47f5a;
      }

      .cls-10 {
        fill: #efc7b0;
      }
    </style>
    <linearGradient id="linear-gradient" x1="13.14" y1="139.71" x2="37.03" y2="139.71" gradientUnits="userSpaceOnUse">
      <stop offset="0" stop-color="#ffc6a5"/>
      <stop offset="1" stop-color="#f9b09b"/>
    </linearGradient>
  </defs>
  <g class="cls-7">
    <g id="Livello_2" data-name="Livello 2">
      <g id="Layer_1" data-name="Layer 1">
        <g>
          <g>
            <g>
              <path class="cls-10" d="M14.92,120.43l-3.75,23.5s-.25,4.75,6,6.25,21.25,1.75,31-1.5c0,0,3-1.75,3-3.5,0,0-1.5-25.5-2.25-25.25s-34,.5-34,.5Z"/>
              <path class="cls-6" d="M14.92,120.43l-3.75,23.5s-.25,4.75,6,6.25,21.25,1.75,31-1.5c0,0,3-1.75,3-3.5,0,0-1.5-25.5-2.25-25.25s-34,.5-34,.5Z"/>
              <path class="cls-5" d="M48.92,119.93c-.53.17-17.04.35-26.85.44.98,2.93,2.89,5.51,5.69,7.06,3.6,1.98,7.62,2.21,11.56,3.03,6.87,1.43,5.62-18.69,5.92,15.08.02,1.86-1.05,3.29-2.23,4.46,1.82-.35,3.56-.78,5.16-1.32,0,0,3-1.75,3-3.5,0,0-1.5-25.5-2.25-25.25Z"/>
              <path class="cls-1" d="M31.16,132.51c4,0,5.17,4.33,5.17,4.33,0,0,1.33-5.83.33,4.5s-17.83,7.33-17.83,7.33c-6.17-1.17-5.67-6.67-5.67-6.67l2.5-6.83s-.08-5.17,2.58-4.83c2.49.31,12.92,2.17,12.92,2.17Z"/>
              <path class="cls-3" d="M16.99,133.76s-2.75,2.92-2.92,9.25c0,0,3.75,6.92,2.92-9.25Z"/>
            </g>
            <path class="cls-6" d="M41.91,1.59c-4.52-3.1-11.48.24-13.17,12.42-2.11,15.2-8.5,57-8.5,57l17.9.62s1.08-13.63,2.49-27.88c1.41-14.25,5.79-39.07,1.28-42.17Z"/>
            <path class="cls-6" d="M65.66,76.68c-3.5-6.38-10.25-5.38-10.25-5.38,0-2.75-2.5-8.25-6.87-9.75s-7.37.25-7.37.25c-4.33.71-3.75-7.62-8.5-8.5-2.98-.55-6.91,3.9-9.43,7.3-.04.58-.08,1.16-.16,1.74-.14,1.14-.75,2.33-2,2.4-.78.04-1.28-.59-1.59-1.51-.97-9.34-3.07-30.3-3.74-43.47C15,5.01,7.84,1.33,3.33,5.01c-5.5,4.5-1.16,27.35-.33,41.67.66,11.38-.11,21.06-.45,24.56-.19.77-.38,1.58-.55,2.44-2.87,14.5-2.08,31.25,6.54,44.38s25.75,11.5,25.75,11.5c17.87-.38,25.46-16.04,27.71-23.04s7.17-23.46,3.67-29.83Z"/>
            <path class="cls-8" d="M29.05,151.74h0c-4.7,0-9.18-.4-11.99-1.08-6.58-1.58-6.38-6.71-6.38-6.76l3.47-19.29c-2.39-1.73-4.41-3.84-6.02-6.29C-2.23,102.58-.47,83.53,1.51,73.58c.17-.86.36-1.68.55-2.46.34-3.53,1.09-13.13.44-24.41-.21-3.55-.62-7.57-1.06-11.83C.08,21.75-1.33,8.18,3.01,4.62c1.15-.94,2.48-1.44,3.83-1.44,3.95,0,8.78,4.34,9.4,16.55.65,12.76,2.62,32.63,3.73,43.39.21.6.48.96.79,1.08,1.77-11.6,5.87-38.68,7.47-50.26C29.67,3.65,34.65,0,38.49,0c1.3,0,2.58.41,3.7,1.18,3.53,2.43,2.28,14.98.12,32.45-.46,3.68-.88,7.16-1.18,10.18-.51,5.18-1.04,10.95-1.59,17.17.44.31.91.42,1.47.34.37-.19,1.83-.88,4.01-.88,1.22,0,2.46.21,3.68.63,4.44,1.52,6.89,6.8,7.18,9.68.15,0,.34-.01.55-.01,1.97,0,6.85.55,9.67,5.69,2.55,4.64,1.33,14.81-3.63,30.23-1.15,3.57-4.66,12.44-12.58,18.22.77,13.78,1.77,19.89,1.78,20.28,0,1.99-2.92,3.75-3.25,3.94-.03.02-.06.03-.09.04-6.76,2.25-14.98,2.59-19.29,2.59ZM6.85,4.18c-1.12,0-2.23.42-3.2,1.22-3.92,3.21-2.49,17.11-1.22,29.38.44,4.27.86,8.3,1.07,11.88.66,11.35-.1,21.01-.46,24.64-.2.84-.38,1.64-.55,2.49-1.94,9.8-3.69,28.55,6.47,44,1.59,2.42,3.6,4.5,5.99,6.18.14.1.22.27.21.44l-3.48,19.56c0,.17-.13,4.35,5.62,5.73,2.74.66,7.13,1.05,11.75,1.05,4.23,0,12.31-.33,18.92-2.52.79-.47,2.71-1.87,2.71-3.04,0-.38-1.02-6.98-1.79-20.51,0-.17.07-.34.21-.44,7.83-5.6,11.3-14.37,12.43-17.87,6.06-18.86,5.36-26.42,3.7-29.44-2.56-4.67-7-5.17-8.79-5.17-.58,0-.94.05-.95.05-.15.02-.29-.02-.4-.12-.11-.09-.17-.23-.17-.38,0-2.39-2.31-7.83-6.54-9.28-1.12-.38-2.25-.58-3.36-.58-2.2,0-3.59.78-3.6.79-.05.03-.11.05-.17.06-1.01.16-1.81-.08-2.56-.71-.12-.11-.19-.26-.17-.42.55-6.33,1.09-12.2,1.61-17.46.3-3.03.73-6.51,1.19-10.2,1.61-13.03,3.62-29.24.31-31.51-.95-.65-2.04-1-3.14-1-3.43,0-7.91,3.43-9.25,13.08-1.63,11.73-5.82,39.38-7.54,50.72-.03.23-.22.4-.45.42-.04,0-.09.02-.14.02h0c-.71,0-1.55-.32-2.08-1.85-.01-.04-.02-.07-.02-.11-1.12-10.75-3.09-30.69-3.74-43.5-.55-10.78-4.62-15.6-8.4-15.6Z"/>
            <path class="cls-2" d="M65.66,76.68c-3.5-6.38-10.25-5.38-10.25-5.38,0-2.75-2.5-8.25-6.87-9.75s-7.37.25-7.37.25c-.9.15-1.58-.11-2.15-.6.43-4.94.99-11.13,1.61-17.45,1.41-14.25,5.79-39.07,1.28-42.17-4.52-3.1-11.48.24-13.17,12.42-1.6,11.55-5.68,38.45-7.54,50.71-.04,0-.07.02-.12.02-.78.04-1.28-.59-1.59-1.51-.97-9.34-3.07-30.3-3.74-43.47C15,5.01,7.84,1.33,3.33,5.01c-5.5,4.5-1.16,27.35-.33,41.67.66,11.38-.11,21.06-.45,24.56-.19.77-.38,1.58-.55,2.44-2.87,14.5-2.08,31.25,6.54,44.38s25.75,11.5,25.75,11.5c17.87-.38,25.46-16.04,27.71-23.04s7.17-23.46,3.67-29.83ZM39.39,64.42c.1-.18.25-.24.4-.24,1.48-1.88,3.64-3.09,6.17-1.72,3.06,1.66,1.76,5.55,0,7.78-2.43,3.08-6.16,3.73-9.89,3.77-1.89.02,2.91-8.82,3.32-9.59ZM24.96,57.55c.04-.86.11-1.7.15-2.41,0-.13.06-.23.13-.3.33-2.51.81-4.99,1.25-7.49.51-2.95.72-5.88.96-8.85.64-7.82,1.34-15.72,2.99-23.4.37-1.71,1.12-6.16,2.77-8.93.3-.54.62-1.05,1.01-1.52,2.26-2.71,5.99-1.85,6.4,1.85.8,7.22-.56,14.92-1.53,22.07-.84,6.14-1.6,12.35-3.02,18.4-.42,3.89-1.31,7.73-2.37,11.49-.68,2.41-1.4,4.92-4.21,5.49-1.92.39-3.05-.17-3.71-1.2-.05-.04-.09-.07-.14-.12-1.04-1.07-.82-3.56-.68-5.06ZM3.06,80.08c.56-3.01,1.64-5.97,1.91-9.03.11-1.22.17-2.44.23-3.66-.03-.26-.05-.53-.04-.83.02-.61.06-1.22.09-1.83-.09-2.63,0-5.3-.07-7.93-.25-8.61-.98-17.13-1.65-25.72-.36-4.56-.64-9.11-.96-13.67-.17-2.4-.43-4.82.06-7.2.52-2.5,3.16-6.65,5.95-3.64,2.35,2.54,2.74,6.68,3.09,9.96.53,5.03,1.06,10.04,1.65,15.06.91,7.81,1.1,15.69,2.12,23.47.43,2.75.81,5.51.7,8.23-.08,2.04-.86,3.83-1.88,5.52,3.63-1.81,7.67-2.68,11.69-3.21,2.24-.29,4.89-.89,7.07-.04,1.83.71,1.01,2.91-.08,3.93-2.67,2.5-6.3,1.91-9.58,2.82-2.21.61-4.32,1.51-6.31,2.61-2.7,1.92-5.33,3.93-7.86,6.07-1.46,1.63-2.91,4.08-4.96,4.78-2.37.81-1.33-4.97-1.19-5.71ZM24.42,107.53c.98,3.24,2.71,9.04.89,12.29-3.04,5.43-9.96,2.16-12.65-.47-4.24-4.15-8.76-12.4-9.42-18.39-.63-5.7,2.31-11.12,6.1-15.18,1.13-1.21,2.36-2.35,3.63-3.41,1.78-1.49,3.83-2.97,5.92-3.99,5.56-2.72,12.84-1.86,18.93-1.78,1.55.02,4.96-.32,5.75,1.42.8,1.77-.52,2.71-2,4-4.27,3.73-10.44,3.29-15.12,6.21-7.5,4.67-4.04,12.63-2.03,19.31ZM31.98,91.63c.13-.53.34-.98.63-1.38.12-.26.23-.5.31-.71.12-.31.45-.38.69-.3.84-.61,1.93-1.03,3.22-1.34.95-.23,2.96-1.02,3.91-.41,1.25.81.68,1.91.05,2.99-1.47,2.56-4.55,6.05-7.97,4.95-1.83-.59-1.47-2.26-.83-3.8ZM49.24,121.09c-1.62,1.57-3.41,2.88-5.11,3.82-1.55.85-3.85,1.92-5.64,1.98-3.83.14-5.49-2.67-4.85-6.27.76-4.26,3.68-5.62,7.59-6.6,2.85-.71,5.78-1.75,8.04-3.71,1.21-1.05,4.09-6.21,5.4-3.02,1.97,4.8-2.23,10.7-5.42,13.79ZM62.26,85.2c-.31.24-.69.16-.84-.22-.48-1.29-.59-2.66-.7-4.03-1.44,3-3.71,5.53-5.88,8.09-1.48,1.75-4.18,5.32-6.93,4.72-2.6-.56-3.96-2.55-2.72-5.02,1.41-2.83,3.14-5.52,4.92-8.17.92-1.55,1.83-3.11,2.83-4.62.62-.95,1.49-2.64,2.51-3.24,1.87-1.09,3.99,0,5.57,1.18,2.96,2.21,4.58,8.69,1.23,11.29Z"/>
            <path class="cls-2" d="M17.45,79.16c.48-.28.96-.55,1.45-.79,2.09-1.02,4.42-1.54,6.84-1.78-2.37.16-4.77.46-6.85,1.66-.49.29-.97.59-1.43.9Z"/>
            <path class="cls-2" d="M8.65,4.26c2.63,2.1,3.76,5.17,4.41,8.39.72,3.61,1.25,7.26,1.68,10.92,1.09,9.16,1.57,18.38,2.72,27.52.65,5.17,2.09,11.18-.13,16.12,2.13-1.31,4.43-2.13,6.94-2.33-1.23-1.14-1.99-2.6-2.45-4.22-.22,1.48-.43,2.84-.62,4.06-.04,0-.07.02-.12.02-.78.04-1.28-.59-1.59-1.51-.97-9.34-3.07-30.3-3.74-43.47-.52-10.19-4.09-15.09-7.74-15.94.21.13.43.27.65.45Z"/>
            <path class="cls-2" d="M38.48,65.71c.85-1.46,1.69-2.89,2.95-4.03-.17.08-.26.13-.26.13-.9.15-1.58-.11-2.15-.6.43-4.94.99-11.13,1.61-17.45,1.41-14.25,5.79-39.07,1.28-42.17-.8-.55-1.68-.89-2.59-1.02,2.44,1.14,3.22,3.56,3.26,6.15.08,4.24-.75,8.49-1.04,12.72-.71,10.6-2.46,21.08-3.63,31.64-.27,2.44-.57,4.86-.56,7.32,0,.97.19,2.67-.43,3.54-.77,1.08-2,1.79-3.32,2.29.86.06,1.73.16,2.6.31.25.04.44.38.35.61-.69,1.89-1.91,4.29-3.32,5.74-1.48,1.52-3.44,1.67-5.45,1.99-5.84.95-11.2,4.07-15.99,7.4-2.34,1.63-4.61,3.39-6.42,5.61-.61.75-1.8,2.39-3.02,2.07-.84-.22-1.41-.81-1.8-1.6-.12,4.06.09,8.17.72,12.2,1.63-6.31,6.42-12.08,10.86-16.28,3.45-3.26,6.97-6.03,11.85-6.54,2.99-.31,6.01-.33,9.03-.36.59-.28,1.2-.52,1.82-.75.93-3.1,2.01-6.12,3.64-8.94Z"/>
            <path class="cls-2" d="M66.73,80.36c-.55,3.34-2.62,6.49-5.78,7.55-.33.11-.6-.18-.63-.48-.05-.47-.04-.93-.03-1.39-1.09,2.06-2.84,3.86-4.59,4.91-2.13,1.28-3.78,2.67-5.48,4.42-1.24,1.28-2.65,2.85-4.33,3.56-3.02,1.28-4.84-1.03-3.91-4,.97-3.1,2.66-5.93,4.53-8.63,1.11-1.95,2.33-3.84,3.59-5.71.92-1.55,1.83-3.11,2.83-4.62.42-.64.95-1.61,1.56-2.36.61-.85,1.27-1.64,2-2.36-.67,0-1.09.06-1.09.06,0-2.5-2.07-7.25-5.72-9.23.37.56.71,1.19,1.02,1.91,1.15,2.7,1.61,5.79.48,8.6-1.11,2.77-2.42,2.99-5.12,2.22-3.18-.91-6.98-.53-10.29.56,1.06-.02,2.13-.05,3.19-.1,2.43-.13,7.11-.45,7.06,3.09-.04,3.17-4.15,5.78-6.63,6.8-4.96,2.04-10.88,2.67-13.63,7.92-.74,1.41-1.25,2.89-1.59,4.41,0,.24-.01.48,0,.72.19,2.32,1.31,3.76,2.57,5.58,1.74,2.52,2.94,5.43,3.57,8.43.09.42.15.85.23,1.27-.09-1.76-.29-3.51-.55-5.21-.64-4.23-2.48-8.44-.69-12.63.21-.48.93-.21.93.25.03,2.22.19,4.89,1.46,6.8,1.98,2.96,5.33,2.36,6.85-.68.19-.38.83-.3.91.12.62,2.94,2.18,4.07,4.02,4.12,3.36-.34,6.78-5.34,8.77-7.36,1.8-1.81,5.96-5.27,6.84-.7.89,4.63.37,10.06-.66,14.62-.21.94-.46,1.88-.74,2.81,2.16-3.41,3.53-6.76,4.29-9.12,1.9-5.9,5.69-18.52,4.74-26.15ZM38.11,97.63c-.87,1.65-2.46,3.92-4.68,3.21-1.78-.57-2.52-2.19-2.66-4.07-.17-.94-.15-1.91,0-2.91.21-1.31.36-3.32,1.3-4.36,1.09-1.22,3.1-1.34,4.57-1.84,2.11-.73,4.19-1.47,6.43-1.65.38-.03.61.45.43.75-2.08,3.52-3.51,7.27-5.39,10.87Z"/>
            <path class="cls-9" d="M62.16,88.08c-.5.24-1.01.41-1.54.57.04-.06-.09-.03-.13,0-.02.01-.03.03-.04.04-.4.11-.8.22-1.2.33-.12.03-.26.14-.38.26,0,0-.02,0-.03.01.93-1.23,1.55-2.62,1.74-4.19-.01-.26-.04-.52-.06-.77-.08-.17-.17-.33-.28-.47-.42,2.1-.94,3.83-2.24,5.71-.12.18-.26.35-.39.52-1.51,1.3-3.1,2.51-4.54,3.89-1.87,1.79-3.21,4.21-4.65,6.34-.34.51-.72,1.05-1.13,1.59-.28.47-.7,1.04-1.16,1.34-1.15,1.12-2.56,1.91-4.37,1.63-2.5-.38-2.15-3.94-1.89-5.61.08-.56.21-1.1.34-1.65.67-2.27,1.51-4.46,2.83-6.48,1.58-2.41,3.23-4.76,4.82-7.16,1.46-2.21,2.83-4.47,4.2-6.73.31-.51.66-1.04,1.01-1.58.43-.78.89-1.54,1.37-2.29.28-.52.58-1.03.98-1.43.14-.18.28-.36.42-.55-.04-.03-.11-.02-.16,0-.57.17-.94.62-1.29,1.08-.73.95-1.4,1.93-1.99,2.98-.01.03,0,.03,0,.05-1.62,2.38-3.03,4.88-4.6,7.3-.44.68-.86,1.36-1.26,2.05-1.86,2.32-3.63,4.99-4.95,7.71,0,.01-.01.03-.02.04,0,0,0,.01,0,.02-.33.58-.6,1.18-.83,1.8-.64,1.45-1.18,2.93-1.65,4.52-.67,2.22-2.71,7.42-6,4.15-1.16-1.15-1.74-2.83-2.15-4.37-.47-1.79-.15-3.77.12-5.57.07-.44.7-2.91.96-4.44.81-.46,1.65-.81,2.49-1,1.49-.34,2.97-.72,4.42-1.17,2.01-.63,4.36-1.41,5.71-3.14,1.6-2.05,4.17-5.29,1.76-7.78-1.22-1.26-3.59-.87-5.15-.76-2.16.14-4.38.05-6.54-.13-.01,0-.02,0-.03,0,1.29-4.32,3.36-9.28,6.39-12.73-.16.11-.33.22-.49.34-1.25,1.29-2.19,2.79-3.04,4.4-1.24,2.35-2.95,5.26-3.33,7.96.02-.13-6.46,0-7.07.05-2.76.22-5.54.65-8.09,1.79-3.56,1.6-6.41,4.58-9.19,7.22-1.66,1.58-3.03,3.39-4.36,5.25-1.16,1.62-2.22,3.67-3.61,5.09-.04.04,0,.06.04.03.72-.62,1.25-1.61,1.84-2.35,1.26-1.59,2.49-3.19,3.75-4.77,2.96-3.73,7.07-7.71,11.38-9.8,4.15-2.01,8.66-1.89,13.14-1.74,1.01.04,2.02,0,3.02-.04.6.03,1.2.06,1.8.09.92.04,1.83.04,2.75.04.01,0,.03,0,.04,0,.91,0,1.83,0,2.74.04,2.31.08,3.89.02,4.17,2.78.17,1.65-.93,3.39-2.27,4.69-1.55,1.18-3.19,2.04-4.94,2.68-.76.22-1.53.39-2.3.55-.49.18-.99.33-1.49.46-.9.23-1.83.4-2.71.7-1.96.68-3.58,2.02-4.87,3.62-1.25,1.56-2.54,3.37-2.72,5.42-.1,1.16.02,2.64.41,3.75.53,1.49,1.42,2.76,2.06,4.18.16.34.27.7.39,1.06,2.32,5.56,2.47,11.62,1.85,17.52.15-.3.29-.6.43-.91.88-4.81,1.02-9.58-.42-14.36-.57-1.89-1.26-3.76-2.18-5.51-.63-1.21-1.54-2.38-1.85-3.73-.35-1.53.25-2.97.93-4.32.3-.61.72-1.37,1.22-2.16.91-1.11,2-2.11,3.18-2.89-1.14,3.38-1.67,7.45-.79,10.76.66,2.5,2.92,6.11,5.86,4.24,1.42-.9,2.23-2.32,2.81-3.89-.35,2.97.76,5.93,4.35,5.05,1.38-.34,2.53-1.32,3.55-2.48.31-.46.64-.89.99-1.31.62-.87,1.17-1.75,1.68-2.49,1.12-1.66,2.22-3.29,3.56-4.71.74-.82,1.69-1.49,2.56-2.16.59-.54,1.22-1.05,1.85-1.54.52-.41,1-.84,1.64-1.07.84-.3,1.72-.45,2.52-.87.26-.14.49-.31.7-.49.03-.09.04-.18.07-.27-.2.08-.37.15-.48.21Z"/>
          </g>
          <g>
            <path class="cls-4" d="M5.53,34.92c-.29-4.93-.21-9.87-.72-14.79-.43-4.2-1.77-9.13.37-13.01.05-.09-.11-.02-.13.02-2.06,3.11-2.08,6.38-1.74,10.05.49,5.42.95,10.83,1.31,16.26.68,10.26,1.67,20.44,1.92,30.73,0,.06.15-.04.15-.1.1-9.71-.59-19.48-1.16-29.17Z"/>
            <path class="cls-4" d="M36.59,4.11c-5.41,4.63-5.2,13.78-6.18,20.21-1.36,8.85-2.57,17.72-3.41,26.62-.01.13.22-.03.23-.11,1.08-7.73,1.91-15.53,3.29-23.23.71-3.94,1.29-7.88,1.88-11.84.57-3.88,1.35-8.75,4.25-11.62.07-.07,0-.09-.06-.04Z"/>
            <path class="cls-4" d="M21.16,78.49c-5.56,2.16-10.07,6.08-13.19,11.21-1.76,2.9-3,6.05-3.5,9.41-.51,3.49,1.09,6.73,2.52,9.8.02.05.17-.06.16-.11-2.37-6.12-2.15-11.74.8-17.67,2.87-5.76,7.61-9.71,13.2-12.6.02,0,.05-.05,0-.04Z"/>
            <path class="cls-4" d="M43.36,62.54c-1.32-.01-2.13,1.02-3,1.9-1.45,1.46-2.02,3.62-2.48,5.54-.03.12.2-.03.22-.08,1.24-2.66,2.21-6.08,5.22-7.26.02,0,.11-.1.05-.1Z"/>
            <path class="cls-4" d="M57.93,73.46c-2.29.38-3.63,2.28-4.98,4.01-2.08,2.66-3.77,5.7-5.39,8.65-.06.11.14.02.17-.03,1.4-2.01,2.83-3.96,4.13-6.04,1.55-2.48,3.35-5.2,6.03-6.49.03-.01.12-.12.04-.1Z"/>
            <path class="cls-4" d="M52.29,115.6c-3.6,4.64-8.46,8.39-14.14,10.01-.08.02-.38.33-.19.31,5.53-.41,11.84-5.63,14.41-10.34.03-.06-.07,0-.08.01Z"/>
          </g>
        </g>
      </g>
    </g>
  </g>
</svg>