<?xml version="1.0" encoding="UTF-8"?>
<svg xmlns="http://www.w3.org/2000/svg" xmlns:xlink="http://www.w3.org/1999/xlink" viewBox="0 0 86.24 151.83">
  <defs>
    <style>
      .cls-1 {
        fill: url(#linear-gradient);
      }

      .cls-1, .cls-2 {
        opacity: .4;
      }

      .cls-1, .cls-3, .cls-4 {
        mix-blend-mode: screen;
      }

      .cls-2 {
        fill: #f9b38f;
        mix-blend-mode: multiply;
      }

      .cls-5, .cls-4 {
        fill: #fbd4b8;
      }

      .cls-6 {
        isolation: isolate;
      }

      .cls-7 {
        fill: #e37e5a;
      }

      .cls-3 {
        fill: #ea9398;
        opacity: .7;
      }

      .cls-4 {
        opacity: .8;
      }
    </style>
    <linearGradient id="linear-gradient" x1="24.21" y1="139.8" x2="48.09" y2="139.8" gradientUnits="userSpaceOnUse">
      <stop offset="0" stop-color="#ffc6a5"/>
      <stop offset="1" stop-color="#f9b09b"/>
    </linearGradient>
  </defs>
  <g class="cls-6">
    <g id="Livello_2" data-name="Livello 2">
      <g id="Layer_1" data-name="Layer 1">
        <g>
          <g>
            <g>
              <path class="cls-5" d="M25.99,120.52l-3.75,23.5s-.25,4.75,6,6.25,21.25,1.75,31-1.5c0,0,3-1.75,3-3.5,0,0-1.5-25.5-2.25-25.25s-34,.5-34,.5Z"/>
              <path class="cls-2" d="M59.99,120.02c-.53.18-17.04.35-26.85.44.98,2.93,2.89,5.51,5.69,7.05,3.6,1.98,7.62,2.21,11.56,3.03,6.87,1.43,5.62-18.69,5.92,15.08.02,1.86-1.05,3.29-2.23,4.46,1.82-.36,3.56-.79,5.16-1.32,0,0,3-1.75,3-3.5,0,0-1.5-25.5-2.25-25.25Z"/>
              <path class="cls-1" d="M42.22,132.6c4,0,5.17,4.33,5.17,4.33,0,0,1.33-5.83.33,4.5-1,10.33-17.83,7.33-17.83,7.33-6.17-1.17-5.67-6.67-5.67-6.67l2.5-6.83s-.08-5.17,2.58-4.83c2.49.31,12.92,2.17,12.92,2.17Z"/>
              <path class="cls-3" d="M28.05,133.85s-2.75,2.92-2.92,9.25c0,0,3.75,6.92,2.92-9.25Z"/>
            </g>
            <g>
              <path class="cls-5" d="M16.44,22.85C13.62,8.35,6.01,5.71,2.07,9.99c-4.81,5.23,2.69,27.24,5.53,41.3,2.83,14.06,3.05,25.79,3.05,25.79l16.78-7.06s-7.67-30.11-10.99-47.17Z"/>
              <path class="cls-5" d="M44.89,71.06s-.84-13.65-1.45-27.95c-.61-14.3.25-39.49-4.66-41.93-4.91-2.44-10.26,1.43-10.22,13.73.04,15.34-.18,51.27-.18,51.27l16.52,4.88Z"/>
              <path class="cls-5" d="M65.76,4.79c-4.45-3.19-10.36-.23-12.29,11.91-2.41,15.15-8.39,50.58-8.39,50.58l16.11,7.4s.76-13.54,2.45-27.76c1.69-14.21,6.57-38.94,2.12-42.13Z"/>
              <path class="cls-5" d="M84.55,21.21c-3.81-3.28-9.45-1.05-12.2,9.9-3.43,13.66-11.75,45.57-11.75,45.57l14.14,8.06s1.79-12.32,4.48-25.18c2.69-12.86,9.14-35.08,5.33-38.36Z"/>
              <path class="cls-5" d="M73.86,72.19c-3.03-4.04-7.75-6-10.36-6.82-.06.09-.11.19-.2.26-.4.35-.9.21-1.24-.14-.15-.16-.22-.36-.25-.58-.12-.03-.21-.05-.21-.05-.38-2.72-2.29-4.37-6.83-5.24-4.53-.87-7.25,1.27-7.27,1.29-.99.78-3.11,1.34-3.65-.13-.36-.97-.82-2.2-1.34-3.08-1.04-1.77-2.31-3.92-4.62-4.01-3.15-.13-6.55,5.24-8.54,8.99-.5,2.35-3.17,1.51-3.75.85-1.36-1.55-2.96-2.89-4.47-3.09-3.72-.47-9.93,2.97-10.74,17.73-.81,14.76,2.33,31.23,12.71,43.02,10.38,11.78,27.11,7.77,27.11,7.77,17.65-2.88,21.89-17.1,23.13-24.34,1.24-7.25,4.86-26.6.5-32.42Z"/>
              <path class="cls-2" d="M84.55,21.21c-3.81-3.28-9.45-1.05-12.2,9.9-2.11,8.41-6.07,23.72-8.81,34.27-.01,0-.03-.01-.04-.02-.06.09-.11.19-.2.26-.4.35-.9.21-1.24-.14-.11-.12-.16-.26-.2-.4.4-5.03.99-11.52,1.77-18.15,1.69-14.21,6.57-38.94,2.12-42.13-4.45-3.19-10.36-.23-12.29,11.91-1.81,11.39-5.64,34.26-7.43,44.89-.62.15-1.25.12-1.7-.21-.28-5.07-.61-11.6-.9-18.28-.61-14.3.25-39.49-4.66-41.93-4.91-2.44-10.26,1.43-10.22,13.73.04,13.1-.12,41.2-.17,49.13-.85.41-1.99.07-2.55-.32-2.43-9.75-7.03-28.65-9.41-40.87C13.62,8.35,6.01,5.71,2.07,9.99c-4.81,5.23,2.69,27.24,5.53,41.3,2.25,11.17,2.85,20.87,3,24.38-.08.79-.15,1.62-.2,2.49-.81,14.76,2.33,31.23,12.71,43.02,10.38,11.78,27.11,7.77,27.11,7.77,17.65-2.88,21.89-17.1,23.13-24.34.95-5.52,3.27-18.05,2.4-26.29.79-4.79,1.99-11.68,3.47-18.75,2.69-12.86,9.14-35.08,5.33-38.36ZM52.34,34.09c.87-5.18,1.81-10.34,2.8-15.5.26-1.8.6-3.57,1.07-5.32.01-.06.03-.12.04-.17.03-.09.05-.19.07-.28.6-2.09,1.6-6.31,4.52-6.31,1.87,0,2.62,1.44,2.52,3.17-.16,2.81-.87,5.78-1.3,8.58-1.21,7.89-2.82,15.71-4.01,23.6-.75,4.95-1.06,11.45-5.14,15.06-1.88,1.66-2.94.47-3.08-1.63-.47-7,1.35-14.33,2.5-21.21ZM30.52,47.05c-.05-8.09.23-16.16.4-24.25.07-3.39,0-6.85.21-10.26-.21-2.79-.31-6.15,1.38-8.14,1.03-1.21,3.11-2.82,4.72-1.54,1.82,1.45,2.04,4.02,2.05,6.2.04,7.64-.56,15.29-.47,22.93.08,7.06.71,14.29-.56,21.28-.49,2.67-2.11,8.21-5.77,7.61-1.79-.29-1.99-2.76-1.97-4.12.05-3.24.04-6.47.02-9.71ZM7.2,40.07c-1.4-6.6-3.34-13.17-4.5-19.81-.42-2.41-.41-5.05.74-7.12.33-.91.82-1.73,1.61-2.23,3.61-2.28,5.3,4.23,5.94,6.56,2.48,9.01,4.06,18.29,5.97,27.43.98,4.68,2.05,9.34,3.21,13.98.67,2.71,1.7,5.35,2.21,8.09,2.36-.98,4.9-1.54,7.42-1.95.03,0,.05,0,.08-.01.34-.06.68-.11,1.02-.16,4.5-.71,9.09-1.33,13.64-.96,5.31.43,10.16,1.92,14.92,4.26.84.41,2.7,1.19,2.88,2.29.14.82-.17,1.6-1.1,1.73-2.01.28-4.13,0-6.16.05-3.42.11-6.86.33-10.23.92-6.04,1.04-12.24,2.63-17.83,5.2-5.3,2.44-8.97,5.96-12.87,10.2-.26.28-.73.13-.84-.22-.59-2.02-.64-4.38-.39-6.66-.09-3.61.24-7.25,0-10.84-.25-3.76-.76-7.5-1.48-11.2-1.27-6.54-2.86-13.03-4.25-19.54ZM40.54,89.08c-6.99,2.47-8.06,9.37-10.16,15.62-1.21,3.61-2.78,8.84-7.5,8.44-4.62-.39-7.59-6.32-9.2-9.97-.98-2.23-1.89-4.57-1.17-7,.24-.81.73-1.52,1.33-2.17,1.1-1.71,2.66-3.1,4.22-4.38,4.98-4.1,9.92-8.09,16.21-9.93,6.11-1.79,13.24-3.35,19.65-3.06,1.31.06,4.71,0,5.16,1.77.47,1.83-1.11,3.29-2.39,4.36-4.53,3.78-10.78,4.43-16.16,6.33ZM71.62,93.89c-.07,1.94-.06,3.89-.27,5.82-.49,4.53-1.54,9.14-3.83,13.13-2.11,3.68-5.01,6.75-8.51,9.14-1.11.76-2.76,1.92-4.37,2.29-2.66,1.2-5.65,1.46-7.51-.8-.13-.15-.24-.32-.35-.49-.24-.27-.47-.58-.67-.96-1.65-3.15-1.71-8.98.06-12.04.65-1.12,1.5-2.07,2.45-2.9,2.3-2.61,5.49-4.54,8.66-6.53,3.44-2.16,6.18-4.39,8.36-7.84,1.12-1.78,2.95-3.96,5.1-2.26.89.71.91,2.42.87,3.42ZM72.26,61.64c-.89,1.55-1.83,2.75-3.61,3.19-.75.19-1.72-.21-1.84-1.06-.31-2.23.37-4.64.8-6.81.61-3.08,1.31-6.15,2.12-9.19,1.38-5.18,2.96-10.3,4.56-15.42.31-1.81.66-3.62,1.26-5.29.47-1.29,2.58-5.62,4.58-3.76,1.47,1.37.77,5.1.55,6.79-.72,5.36-1.87,10.73-3.22,15.96-1.32,5.1-2.54,10.97-5.2,15.59Z"/>
              <path class="cls-2" d="M46.89,88.73c-2.85.91-5.84,2.07-7.92,4.32-2.03,2.19-3.48,4.87-4.76,7.55-1.93,4.01-3.42,8.2-5.33,12.2-.46.97-1.06,2.01-1.79,2.9.64-.31,1.23-.74,1.75-1.36,1.17-1.38,2.26-2.92,3.29-4.41,1.88-2.73,3.52-5.61,5.76-8.07.23-.25.62-.16.79.1,1.48,2.24,2.31,4.83,2.76,7.51.03-2.06-.05-4.12-.36-6.19-.38-2.57-.08-5.12,1.56-7.22,3.24-4.14,8.72-5.47,13.38-7.34,2.79-1.12,6.8-2.8,8.22-5.64,1.52-3.04.13-6.14-3.23-6.67-.66-.1-1.32-.14-1.98-.16,1.17.39,2.09,1.08,2.55,2.22,2.81,6.98-10.76,9-14.68,10.25Z"/>
              <path class="cls-2" d="M14.41,93.23c1.04-1.36,2.34-2.53,3.66-3.61,4.98-4.1,9.92-8.09,16.21-9.93,4.39-1.28,9.31-2.43,14.11-2.88-9.51-1.87-19.62,2.53-27.4,7.8-2.25,1.53-6.36,5.84-9.4,3.64-.5-.36-.88-.79-1.17-1.26.18,3.16.58,6.33,1.18,9.47.85-1.16,1.79-2.23,2.82-3.22Z"/>
              <path class="cls-2" d="M27.56,64.22c-.66.01-1.33-.23-1.72-.5-2.43-9.75-7.03-28.65-9.41-40.87C14.05,10.56,8.22,6.79,4.1,8.53c4.6-.94,7.55,3.62,8.96,7.85,2.67,8,3.36,16.68,5.12,24.91,1.73,8.07,3.72,16.07,5.47,24.12,1.32-.34,2.59-.84,3.91-1.2Z"/>
              <path class="cls-2" d="M40.52,9.54c.21,3.87.19,7.79.26,11.67.09,5.11-.01,10.22-.04,15.33-.02,4.7.44,9.37.52,14.07.03,2.2.03,4.41-.29,6.59-.17,1.19-.22,2.62-1.05,3.59-.85.99-2.12,1.23-3.29,1.73.95-.02,1.9.01,2.85.03,2.25.04,4.42-.38,6.62-.66-.01-.02-.03-.03-.04-.05-.04-.07-.07-.15-.11-.23-.59.12-1.18.09-1.61-.22-.28-5.07-.61-11.6-.9-18.28-.61-14.3.25-39.49-4.66-41.93-1.02-.5-2.05-.72-3.05-.67.64.27,1.25.63,1.8,1.11,2.25,1.97,2.84,5.05,2.99,7.92Z"/>
              <path class="cls-2" d="M84.55,21.21c-1.57-1.35-3.44-1.74-5.3-1.01,1.17-.15,2.36.06,3.26.93,1.77,1.7,1.67,4.24,1.41,6.51-.43,3.65-1.31,7.28-2.22,10.83-1.18,4.58-2.16,9.18-2.98,13.84-.75,4.28-1.22,8.72-2.4,12.91-.52,1.85-1.27,3.59-3.32,4-1.39.27-2.82-.41-4.1-.8-1.44-.44-2.9-.78-4.37-1.07.98.66,1.88,1.41,2.66,2.28,1.95,1.55,3.54,3.51,4.46,6.06,1.56,4.3,1.81,8.88,1.84,13.43.18,1.95.08,3.95,0,5.4-.34,5.53-1.02,11.44-2.97,16.65-1.79,4.79-4.06,9.59-8.13,12.84-.36.29-.74.56-1.12.82,8.57-5.56,11.16-14.83,12.09-20.23.95-5.52,3.27-18.05,2.4-26.29.79-4.79,1.99-11.68,3.47-18.75,2.69-12.86,9.14-35.08,5.33-38.36Z"/>
              <path class="cls-2" d="M65.76,4.79c-1.97-1.41-4.23-1.61-6.3-.35,1.82-.62,3.97-.66,5.37.82,1.8,1.9,1.88,4.56,1.48,7.03-.78,4.85-1.47,9.73-2.11,14.6-1.16,8.82-1.54,17.89-3.43,26.6-.5,2.28-.87,7.08-3.37,8.21-1.14.52-2.73.25-3.92.24-1.73,0-3.33.12-4.91.58,3.98.61,8.49,1.35,12.38,2.96.41-.04.82,0,1.22.08,0,0,0,0,0,0-.04-.03-.07-.05-.1-.08-.11-.12-.16-.26-.2-.4.4-5.03.99-11.52,1.77-18.15,1.69-14.21,6.57-38.94,2.12-42.13Z"/>
              <path class="cls-7" d="M61.64,77.02c-.8-.57-1.9-.68-2.83-.89-3.07-.7-6.26.02-9.35.16-4.94.23-9.87.25-14.54,2.12-8.09,2.67-14.88,9.62-21.34,14.72-.04.03-.09.14,0,.09,3.44-2.05,6.5-4.94,9.72-7.32,2.67-1.97,5.46-3.92,8.43-5.52,4.06-1.88,8.39-2.96,12.86-3.18,3.68-.18,7.37-.44,11.06-.42,2.34.01,7.92.07,6.86,3.97-1.02,3.78-5.75,6.19-9.17,7.21-3.56,1.07-7.41,1.12-10.61,3.19-3.41,2.21-5.48,5.88-7.06,9.52-1.78,4.1-3.38,8.24-5.37,12.25.75-.43,1.28-1.69,1.69-2.43.55-.98,1.05-1.98,1.51-3.01.93-2.06,1.71-4.2,2.45-6.33.43-1.23.91-2.36,1.67-3.43,1.58,1.35,2.36,3.67,2.85,5.62.52,2.06.48,4.24,1,6.28.09-.16.08-.12.08-.34-.01,0-.11,0-.1.03.04-4.28-.57-8.75-3.5-12.05,1.33-1.85,2.66-3.86,4.52-5.24,1.54-1.14,3.41-1.71,5.24-2.2,4.7-1.28,9.4-2.11,13.16-5.44.96-.85,2-1.88,2.3-3.17.41-1.73-.3-3.32-1.55-4.2Z"/>
              <path class="cls-7" d="M64.92,66.62c-6.54-2.55-12.75-4.69-19.86-4.6-3.59.05-7.14.23-10.71.66-1.42.17-2.86.38-4.27.62-1.68.29-3.33,1.07-5.01,1.25-.03,0-.12.09-.06.09.82.02,1.62-.27,2.43-.42,1.87-.36,3.76-.57,5.65-.84,3.52-.5,7.05-.71,10.6-.77,4.12-.06,8,.36,12.02,1.23,3.12.68,6.04,2.01,9.11,2.9.05.02.18-.1.12-.13Z"/>
            </g>
            <g>
              <path class="cls-4" d="M8.16,36.51c-.87-3.86-1.85-7.69-2.77-11.54-.96-4.03-1.82-8.77-.66-12.82.02-.05-.1.01-.11.04-2.91,7.18.57,15.89,2.34,22.96,2.23,8.9,3.59,18.01,6.13,26.83.02.07.17-.04.16-.1-1.93-8.41-3.2-16.96-5.1-25.38Z"/>
              <path class="cls-4" d="M34.56,3.9c-1.82.96-2.15,3.95-2.47,5.72-.81,4.42-.26,9.26-.21,13.73.12,9.34-.54,18.69-.18,28.03,0,.08.2-.06.21-.13.34-7.65.84-15.36.9-23.02.03-3.99-.08-7.99-.11-11.98-.02-2.32-.05-4.67.16-6.99.14-1.47.34-4.35,1.7-5.29.03-.02.08-.11,0-.07Z"/>
              <path class="cls-4" d="M60.25,7.31c-4.05,5.64-3.99,12.58-5.32,19.2-1.42,7.08-3.07,14.25-3.48,21.48,0,.07.19-.05.2-.11.95-6.7,2.27-13.35,3.7-19.96,1.46-6.76,1.29-14.67,5.01-20.62.05-.09-.07-.04-.1,0Z"/>
              <path class="cls-4" d="M78.75,23.58c.31-.6-1.46,1.91-1.56,2.18-.39,1-.67,2-.93,3.04-.73,2.91-1.92,5.68-2.71,8.58-1.51,5.54-3.13,11.11-4.82,16.6-.02.07.12,0,.13-.05,1.83-4.99,3.33-10.13,4.94-15.2.83-2.61,1.62-5.21,2.48-7.81.42-1.27.75-2.57,1.01-3.88.25-1.29,1.1-2.28,1.55-3.48.03-.07-.08,0-.1.03Z"/>
              <path class="cls-4" d="M53.29,77.67c-6.68.41-13.75.46-19.98,3.15-2.94,1.27-5.64,3.25-8.24,5.1-2.82,2.01-5.49,4.05-8.04,6.41-.06.05-.02.1.04.05,4.6-3.98,9.81-7.78,15.27-10.51,3.32-1.66,6.84-2.23,10.5-2.6,3.44-.35,6.88-.93,10.31-1.39.07-.01.27-.21.15-.21Z"/>
              <path class="cls-4" d="M68.24,108.13c-1.03,3.14-3.59,5.66-5.83,7.98-2.35,2.43-5.19,4.87-8.25,6.39-.06.03-.24.25-.08.21,3.23-.91,5.99-3.51,8.31-5.82,2.41-2.39,5.22-5.4,5.97-8.82.01-.07-.11.02-.13.06Z"/>
              <path class="cls-4" d="M34.31,65.54c-3.61.43-6.88,1.3-10.24,2.62-.02,0-.09.08-.03.07,3.29-.66,6.43-1.59,9.79-2.03,1.85-.24,3.73-.29,5.59-.38,2.18-.1,4.42-.41,6.59-.09.04,0,.12-.08.08-.09-3.67-.94-8.08-.55-11.79-.11Z"/>
            </g>
          </g>
          <path class="cls-7" d="M40.11,151.83h0c-4.7,0-9.18-.4-11.99-1.08-6.58-1.58-6.39-6.71-6.38-6.76l3.52-20.03c-.92-.78-1.75-1.59-2.52-2.46-12.46-14.14-13.39-33.24-12.84-43.37.05-.88.12-1.71.2-2.52-.16-3.54-.77-13.16-3-24.23-.7-3.48-1.68-7.41-2.71-11.56C1.2,27.02-2.1,13.78,1.7,9.65c1.22-1.32,2.73-2.02,4.37-2.02,3.83,0,8.69,3.97,10.85,15.12,2.34,12.07,6.84,30.56,9.35,40.65.4.22,1.1.4,1.61.28.04-6.58.21-35.46.17-48.78-.02-7.7,2-11.35,3.7-13.06,1.98-1.98,4.67-2.39,7.24-1.11,3.84,1.91,4.36,14.52,4.68,32.12.07,3.71.13,7.21.26,10.24.23,5.47.53,11.53.88,18,.21.08.48.11.78.08,2.03-12.07,5.62-33.55,7.37-44.54,1.35-8.47,4.84-13.52,9.34-13.52,1.27,0,2.57.44,3.74,1.29,3.49,2.5,1.98,15.03-.53,32.45-.53,3.67-1.03,7.14-1.38,10.15-.66,5.55-1.25,11.62-1.76,18.04.02.05.04.09.06.11.11.12.24.19.35.19.04,0,.11,0,.19-.08l.12-.18s.01-.02.02-.02c2.87-11.05,6.69-25.84,8.75-34.05,1.83-7.3,5.28-11.67,9.22-11.67,1.33,0,2.65.52,3.79,1.51,3,2.58.62,13.92-3.08,29.67-.78,3.32-1.51,6.45-2.08,9.17-1.49,7.11-2.7,14.06-3.45,18.66.81,7.81-1.16,19.18-2.22,25.29l-.18,1.06c-1.64,9.52-6.08,16.74-12.85,20.91.76,14.26,1.73,19.29,1.74,19.66,0,1.99-2.92,3.75-3.25,3.95-.03.02-.06.03-.09.04-6.76,2.25-14.98,2.59-19.29,2.59ZM6.07,8.63c-1.36,0-2.61.59-3.64,1.7-3.43,3.73-.06,17.29,2.92,29.26,1.04,4.16,2.02,8.1,2.72,11.61,2.25,11.14,2.86,20.82,3.01,24.46-.09.86-.15,1.68-.2,2.54-.55,9.98.36,28.78,12.59,42.66.79.89,1.64,1.72,2.6,2.51.12.1.19.26.18.42l-3.53,20.27c0,.17-.13,4.35,5.62,5.73,2.74.66,7.13,1.05,11.75,1.05,4.23,0,12.31-.33,18.92-2.52.79-.47,2.71-1.87,2.71-3.04,0-.36-.99-5.91-1.76-19.92-.01-.19.08-.36.24-.46,6.66-3.99,11.03-11.03,12.64-20.37l.18-1.06c1.06-6.08,3.02-17.41,2.21-25.08,0-.04,0-.09,0-.13.76-4.61,1.97-11.62,3.47-18.77.57-2.73,1.31-5.87,2.09-9.19,2.61-11.1,6.18-26.3,3.41-28.68-.96-.83-2.05-1.27-3.14-1.27-3.45,0-6.53,4.08-8.25,10.91-2.07,8.27-5.93,23.2-8.81,34.27-.03.13-.11.23-.23.3-.05.07-.11.14-.17.2-.55.48-1.38.4-1.93-.18-.2-.21-.28-.45-.32-.62-.01-.05-.02-.11-.01-.17.51-6.46,1.11-12.57,1.78-18.17.36-3.02.86-6.49,1.39-10.17,1.87-12.99,4.2-29.16.93-31.5-1.02-.73-2.08-1.1-3.16-1.1-3.06,0-6.86,3.33-8.35,12.68-1.77,11.1-5.41,32.9-7.43,44.9-.03.2-.18.36-.38.4-.81.19-1.58.09-2.1-.29-.12-.09-.2-.23-.21-.38-.36-6.58-.66-12.73-.9-18.28-.13-3.04-.19-6.55-.26-10.26-.24-13.12-.53-29.46-4.12-31.24-2.2-1.1-4.4-.77-6.09.93-2.22,2.22-3.43,6.61-3.41,12.35.04,13.58-.13,43.31-.17,49.14,0,.19-.11.36-.28.45-.86.42-2.22.22-3.05-.36-.1-.07-.17-.17-.2-.29-2.5-10.05-7.05-28.72-9.41-40.89-2.05-10.57-6.6-14.31-9.87-14.31Z"/>
        </g>
      </g>
    </g>
  </g>
</svg>