<?xml version="1.0" encoding="utf-8"?>
<!-- Generator: Adobe Illustrator 27.5.0, SVG Export Plug-In . SVG Version: 6.00 Build 0)  -->
<svg version="1.1" id="Capa_1" xmlns="http://www.w3.org/2000/svg" xmlns:xlink="http://www.w3.org/1999/xlink" x="0px" y="0px"
	 viewBox="0 0 1942 2319" style="enable-background:new 0 0 1942 2319;" xml:space="preserve">
<g>
	<path style="fill:#B5BB11;" d="M1331.418,1093.667c-48.509-94.208-24.691-259.235-94.08-396.126
		c-50.672-99.964-147.362-139.232-235.631-144.889c2.514,10.395-3.941,16.74-12.425,17.977c-0.134,0.02-0.269,0.033-0.403,0.051
		c-2.131,0.267-4.357,0.217-6.623-0.18c-0.511-0.088-1.021-0.188-1.533-0.311c-0.517-0.126-1.029-0.255-1.544-0.417
		c-0.822-0.256-1.637-0.566-2.446-0.916c-0.353-0.154-0.7-0.309-1.049-0.482c-0.889-0.436-1.759-0.937-2.611-1.493
		c-0.319-0.209-0.628-0.432-0.94-0.659c-0.778-0.561-1.53-1.177-2.26-1.846c-0.219-0.201-0.446-0.382-0.661-0.593
		c-0.908-0.893-1.764-1.875-2.566-2.947c-0.177-0.237-0.334-0.501-0.505-0.747c-0.626-0.898-1.207-1.857-1.746-2.874
		c-0.189-0.358-0.379-0.713-0.557-1.086c-0.628-1.316-1.206-2.693-1.671-4.199c-0.004-0.014-0.011-0.024-0.015-0.038
		c-23.243,0-47.439,2.275-71.528,7.33c-34.256,47.376-58.677,101.838-73.483,158.344c-9.956,37.997-17.154,78.608-16.693,118.003
		c0.466,39.87,10.491,78.381,23.649,115.765c12.858,36.53,27.679,72.472,35.767,110.479c9.157,43.035,2.611,87.181-10.537,128.696
		c-13.583,42.886-34.919,82.433-52.972,123.476c-17.303,39.334-33.609,79.155-47.448,119.852
		c-26.645,78.365-44.533,161.479-39.282,244.649c5.394,85.439,35.818,168.493,87.65,236.743
		c45.559,59.99,105.155,108.315,175.181,136.736c69.705,28.291,148.292,33.488,222.158,21.55
		c141.853-22.927,259.319-116.128,345.96-226.688c9.391-23.63,17.207-48.257,23.232-73.922
		C1636.288,1464.142,1457.683,1338.885,1331.418,1093.667z"/>
	<path style="fill:#CAC700;" d="M1361.098,1220.319c-37.621-50.89-70.746-110.509-90.713-170.831
		c-34.206-103.342-7.525-218.922-51.168-320.596c-20.548-47.871-90.393-142.772-146.892-96.161
		c-30.856,25.456-37.406,76.397-45.305,111.706c-15.679,70.083-17.968,144.091-11.323,215.607
		c12.695,136.61,56.852,288.19,172.329,372.216c58.026,42.223,197.32,91.777,215.164-16.734
		C1409.477,1277.302,1381.591,1248.04,1361.098,1220.319z"/>
	<path style="fill:#98AA24;" d="M1540.574,1846.828c-86.642,110.56-204.107,203.761-345.96,226.688
		c-73.866,11.939-152.454,6.741-222.158-21.55c-70.026-28.421-129.622-76.746-175.181-136.736
		c-51.831-68.25-82.256-151.303-87.65-236.743c-5.251-83.17,12.637-166.283,39.282-244.649
		c13.839-40.697,30.145-80.518,47.448-119.852c18.053-41.043,39.389-80.59,52.972-123.476
		c13.148-41.515,19.694-85.661,10.537-128.696c-8.088-38.007-22.909-73.949-35.767-110.479
		c-13.158-37.384-23.183-75.895-23.649-115.765c-0.461-39.395,6.737-80.005,16.693-118.003
		c14.807-56.506,39.227-110.968,73.483-158.344l0,0c-0.002,0.001-0.005,0.001-0.007,0.002c-4.244,0.89-8.482,1.888-12.713,2.955
		c-0.725,0.183-1.448,0.372-2.172,0.561c-4.148,1.077-8.289,2.216-12.412,3.469c-0.024,0.007-0.049,0.014-0.073,0.021
		c-4.171,1.268-8.32,2.651-12.453,4.105c-0.765,0.269-1.528,0.546-2.292,0.821c-4.032,1.455-8.048,2.975-12.031,4.614
		c-0.053,0.022-0.107,0.042-0.161,0.064c-4.038,1.664-8.039,3.449-12.016,5.307c-0.802,0.375-1.599,0.757-2.398,1.139
		c-3.852,1.844-7.68,3.756-11.463,5.789c-0.089,0.048-0.182,0.093-0.271,0.141c-3.853,2.077-7.654,4.283-11.425,6.563
		c-0.818,0.495-1.631,0.997-2.445,1.502c-3.645,2.258-7.26,4.585-10.813,7.041c-0.103,0.07-0.207,0.135-0.31,0.206
		c-3.624,2.511-7.183,5.161-10.703,7.883c-0.815,0.63-1.624,1.268-2.432,1.91c-3.4,2.696-6.761,5.463-10.049,8.364
		c-0.103,0.091-0.209,0.175-0.312,0.266c-3.357,2.972-6.631,6.089-9.861,9.28c-0.778,0.769-1.55,1.546-2.32,2.328
		c-3.137,3.183-6.231,6.439-9.234,9.84c-0.074,0.084-0.151,0.161-0.225,0.245c-3.052,3.466-6.007,7.086-8.91,10.782
		c-0.71,0.903-1.413,1.814-2.113,2.731c-2.841,3.721-5.632,7.517-8.315,11.47c-0.036,0.054-0.075,0.104-0.111,0.158
		c-2.701,3.988-5.287,8.14-7.817,12.369c-0.623,1.042-1.24,2.092-1.853,3.149c-2.495,4.306-4.933,8.691-7.242,13.246
		c-69.389,136.891-45.571,301.917-94.079,396.125c-126.267,245.218-304.869,370.475-232.389,679.239
		c20.728,88.299,61.436,165.106,121.749,226.622c0.139,0.142,0.289,0.274,0.428,0.416c14.412,14.661,29.968,28.426,46.607,41.293
		c1.547,1.196,3.117,2.371,4.682,3.551c22.612,17.041,47.17,32.456,73.77,46.031c0.449,0.229,0.923,0.435,1.372,0.663
		c11.761,5.96,23.957,11.524,36.49,16.773c3.503,1.468,7.035,2.907,10.599,4.318c30.386,12.031,62.968,21.985,97.718,29.743
		c11.8,2.635,23.863,5,36.165,7.12c48.019,8.273,99.759,12.673,155.37,12.673c2.823,0,13.883,0,16.703,0l0,0
		c9.857,0,19.577-0.157,29.197-0.426c3.188-0.089,6.306-0.256,9.468-0.375c6.377-0.238,12.741-0.49,19.011-0.847
		c3.73-0.212,7.399-0.491,11.091-0.745c5.597-0.385,11.179-0.785,16.689-1.264c3.88-0.337,7.717-0.722,11.555-1.106
		c5.215-0.522,10.402-1.074,15.537-1.682c3.893-0.461,7.762-0.947,11.61-1.456c4.973-0.658,9.899-1.364,14.796-2.103
		c3.839-0.579,7.674-1.162,11.466-1.791c4.816-0.798,9.568-1.663,14.308-2.54c3.726-0.689,7.47-1.361,11.15-2.099
		c4.743-0.951,9.402-1.987,14.066-3.018c3.546-0.784,7.131-1.527,10.631-2.357c4.997-1.184,9.889-2.474,14.793-3.75
		c5.314-1.383,10.582-2.812,15.788-4.302c5.166-1.479,10.339-2.95,15.398-4.534c3.901-1.221,7.7-2.541,11.537-3.824
		c3.572-1.194,7.171-2.362,10.688-3.609c4.005-1.42,7.926-2.92,11.86-4.408c3.21-1.214,6.432-2.418,9.595-3.678
		c4.012-1.598,7.961-3.256,11.896-4.926c2.939-1.248,5.873-2.5,8.77-3.787c4.013-1.782,7.981-3.607,11.911-5.465
		c2.655-1.255,5.287-2.531,7.906-3.821c4.036-1.988,8.046-4,11.992-6.07c2.311-1.211,4.584-2.456,6.864-3.695
		c4.134-2.246,8.257-4.503,12.29-6.839c1.757-1.018,3.469-2.075,5.207-3.11c4.449-2.647,8.889-5.301,13.212-8.058
		c0.274-0.175,0.536-0.36,0.81-0.535c21.759-13.935,41.906-29.262,60.464-45.867c0.642-0.574,1.3-1.136,1.938-1.713
		c4.118-3.727,8.137-7.533,12.095-11.387c0.774-0.754,1.557-1.502,2.326-2.261c3.914-3.866,7.746-7.799,11.501-11.79
		c0.681-0.722,1.357-1.448,2.032-2.174c3.836-4.132,7.6-8.319,11.267-12.579c0.421-0.49,0.834-0.985,1.254-1.476
		c32.748-38.38,58.696-81.893,77.735-129.788c0.005-0.01,0.009-0.02,0.013-0.031
		C1540.575,1846.827,1540.574,1846.828,1540.574,1846.828z"/>
	<path style="fill:#B5BB11;" d="M1540.562,1846.857c-19.039,47.895-44.987,91.408-77.735,129.788
		C1495.587,1938.27,1521.522,1894.755,1540.562,1846.857z"/>
	<path style="fill:#B5BB11;" d="M1420.415,2020.026c-8.752,7.826-17.883,15.346-27.338,22.594
		C1402.534,2035.373,1411.666,2027.854,1420.415,2020.026z"/>
	<path style="fill:#B5BB11;" d="M1393.077,2042.621c-10.604,8.126-21.625,15.906-33.126,23.272
		C1371.456,2058.53,1382.475,2050.749,1393.077,2042.621z"/>
	<path style="fill:#B5BB11;" d="M962.153,2162.109L962.153,2162.109c-17.378,0-34.378-0.43-51.005-1.273
		C927.774,2161.68,944.775,2162.109,962.153,2162.109z"/>
	<path style="fill:#80552A;" d="M1001.703,552.625c-2.293-9.428-18.553-63.992-13.48-116.471c-1.19,0.2-2.327,0.263-3.396,0.193
		c-7.897-0.519-8.491-10.177-8.491-10.177s6.273-4.002,15.085-10.498c13.595-65.02,57.213-123.242,53.487-133.274
		c-3.335-8.98-15.766-15.379-28.976-18.645c-13.399,17.958-25.153,36.979-33.079,58.327c-9.365,25.225-12.995,53.645-14.492,80.388
		c-1.55,27.671,1.248,56.056,4.535,83.527c3.419,28.579,10.639,55.738,24.803,80.95c3.654-3.068,5.557-7.883,4.007-14.294
		C1001.704,552.643,1001.705,552.635,1001.703,552.625z"/>
	<path style="fill:#69442A;" d="M982.854,322.081c7.925-21.348,19.68-40.369,33.079-58.327l0,0
		c-0.002-0.001-0.005-0.001-0.008-0.002c-3.667-0.906-7.393-1.568-11.003-1.975c-0.032-0.004-0.064-0.008-0.096-0.012
		c-1.706-0.19-3.379-0.314-5.013-0.388c-0.136-0.006-0.273-0.017-0.408-0.022c-1.488-0.059-2.919-0.051-4.315-0.009
		c-0.253,0.008-0.516,0.003-0.766,0.014c-1.239,0.054-2.402,0.174-3.54,0.312c-0.339,0.041-0.7,0.063-1.029,0.112
		c-1.012,0.149-1.927,0.366-2.831,0.588c-0.36,0.088-0.759,0.151-1.101,0.251c-0.845,0.248-1.565,0.565-2.284,0.884
		c-0.292,0.13-0.639,0.227-0.908,0.369c-0.925,0.487-1.722,1.04-2.353,1.671c-0.611,0.612-1.26,1.382-1.942,2.306
		c-6.135,8.317-14.903,29.102-22.123,59.09c-3.209,13.328-6.112,28.473-8.342,45.15c-1.115,8.339-2.063,17.06-2.796,26.128
		c-0.963,11.921-1.117,24.282-0.702,36.59c0.138,4.102,0.34,8.199,0.595,12.272c0.128,2.036,0.269,4.066,0.423,6.089
		c0.308,4.044,0.665,8.055,1.063,12.015c0.995,9.899,2.246,19.477,3.612,28.451c0.546,3.59,1.111,7.082,1.686,10.46
		c4.021,23.645,8.51,41.656,10.401,47.795c0.004,0.013,0.01,0.024,0.014,0.038c0.466,1.506,1.044,2.884,1.671,4.199
		c0.177,0.372,0.368,0.728,0.557,1.086c0.539,1.017,1.12,1.976,1.746,2.874c0.171,0.245,0.328,0.51,0.505,0.747
		c0.802,1.072,1.658,2.055,2.566,2.947c0.214,0.211,0.442,0.393,0.661,0.593c0.73,0.669,1.482,1.285,2.26,1.846
		c0.312,0.225,0.622,0.451,0.94,0.659c0.852,0.556,1.721,1.057,2.611,1.493c0.348,0.171,0.696,0.329,1.049,0.482
		c0.809,0.35,1.624,0.66,2.446,0.916c0.514,0.16,1.028,0.293,1.544,0.417c0.512,0.123,1.021,0.223,1.533,0.311
		c2.258,0.386,4.499,0.454,6.623,0.18c0.134-0.017,0.269-0.03,0.403-0.051c3.24-0.484,6.183-1.716,8.438-3.645
		c-14.178-25.223-21.403-52.395-24.823-80.988c-3.287-27.471-6.084-55.856-4.535-83.527
		C969.858,375.726,973.489,347.307,982.854,322.081z"/>
	<path style="fill:#027A35;" d="M1270.682,256.553c-124.534,60.69-203.825,138.387-293.609,173.659c0,0,2.265,6.013,6.884,6.364
		c1.068,0.081,3.076-0.221,4.266-0.421c16.793-2.816,45.729-32.311,83.051-25.232c62.371,11.83,142.018,51.855,216.843,23.246
		c111.144-42.496,186.759-247.47,186.761-247.476C1474.847,186.697,1372.172,207.093,1270.682,256.553z"/>
	<path style="fill:#318938;" d="M1275.588,156.793c-11.313,0.576-22.577,1.721-33.674,3.465
		c-14.903,2.342-29.49,5.769-43.343,10.697c-11.79,4.193-23.063,9.424-33.585,15.86c-85.45,52.265-95.012,111.843-119.863,172.167
		c-13.04,31.655-68.785,67.19-68.785,67.19s-0.017,1.895,0.736,4.041c89.783-35.272,169.074-112.969,293.609-173.659
		c101.489-49.46,204.165-69.856,204.196-69.862l0.001-0.001C1474.879,186.691,1374.091,151.777,1275.588,156.793z"/>
	<path style="fill:#318938;" d="M1368.641,225.275c0.91,4.086,4.893,7.661,8.449,9.796c-10.649,2.288-15.918-5.449-27.993-1.372
		c-15.607,5.27-47.646,12.408-58.849,24.736c1.604,2.007,2.539,6.273,4.114,8.112c-5.298-1.525-8.905-4.433-14.356-3.981
		c-9.109,0.755-25.923,11.237-33.536,15.577c-23.402,13.345,6.314,23.763,9.209,41.996c-11.769-1.499-16.273-19.223-27.959-22.466
		c-10.21-2.833-29.764,9.938-39.766,14.71c-9.654,4.606-19.43,11.144-28.022,17.462c-5.252,3.861-13.424,8.717-15.901,14.758
		c-3.984,9.715,4.652,13.461,8.134,22.651c-7.749,1.105-12.873-10.801-17.726-15.391c-25.482,9.92-48.054,35.709-72.427,48.528
		c4.205,0.483,19.679,1.328,28.054,2.418c11.291,1.47,22.318,3.496,33.568,6.026c20.964,4.714,41.421,12.135,62.595,15.827
		c31.354,5.468,68.977,10.084,99.54,0.605c0.041-6.596-9.228-5.993-14.115-8.566c-11.255-5.925-20.854-16.739-28.689-26.112
		c-10.438-12.487-21.004-25.187-32.664-36.57c-8.627-8.421-20.595-16.356-26.695-26.918c15.725-1.978,46.888,29.952,57.864,38.796
		c16.068,12.949,29.193,29.677,45.632,41.956c14.791,11.047,28.038,1.284,42.754-9.279c17.034-12.227,38.743-32.231,47.799-51.737
		c-16.287-14.162-39.145-22.226-58.911-29.867c-17.449-6.745-43.167-13.8-54.505-29.887c9.063,0.793,17.388,5.605,26.032,8.443
		c14.242,4.675,29.194,7.081,43.299,12.264c12.654,4.649,24.809,12.915,37.854,16.431c18.768,5.058,32.796-19.629,40.944-34.812
		c-4.735-5.507-11.076-7.262-17.395-10.611c-9.774-5.18-30.437-11.319-37.201-19.026c17.658-11.52,42.033,23.557,58.516,8.957
		c9.336-8.27,18.676-33.727,24.14-44.747c3.9-7.867,15.099-19.249,19.311-26.815c-14.594,0.693-39.862,15.185-54.882,18.481
		C1393.372,218.168,1378.59,219.573,1368.641,225.275z"/>
	<path style="fill:#98AA24;" d="M1031.418,1427.682c0.897,0.967,1.961,1.651,3.19,2.05c1.182,0.621,2.454,0.906,3.82,0.854
		c2.563-0.115,5.221-0.957,7.009-2.903c1.734-1.889,3.021-4.37,2.902-7.009c-0.118-0.879-0.235-1.757-0.354-2.636
		c-0.306-1.289-0.897-2.414-1.773-3.371c-0.7-1.079-1.627-1.93-2.782-2.553l-0.074-0.031c-1.38-1.093-3.176-1.897-4.928-1.819
		c-1.875,0.084-3.516,0.762-4.959,1.922c-2.945,1.761-4.955,5.002-4.955,8.487c-0.051,1.365,0.234,2.637,0.853,3.819
		C1029.768,1425.721,1030.451,1426.784,1031.418,1427.682z"/>
	<path style="fill:#98AA24;" d="M990.669,1575.995c1.052,0.813,2.106,1.626,3.158,2.44c2.434,1.411,5.059,2.122,7.876,2.13
		c2.148,0.081,4.152-0.367,6.011-1.344c1.935-0.629,3.608-1.705,5.021-3.226c1.522-1.413,2.598-3.087,3.227-5.022
		c0.977-1.859,1.425-3.863,1.344-6.011c-0.186-1.383-0.371-2.766-0.557-4.148c-0.741-2.643-2.079-4.938-4.014-6.885
		c-1.052-0.813-2.104-1.627-3.157-2.44c-2.432-1.412-5.059-2.121-7.875-2.13c-2.149-0.081-4.153,0.366-6.013,1.344
		c-1.935,0.629-3.607,1.705-5.021,3.226c-1.522,1.413-2.597,3.087-3.226,5.022c-0.978,1.859-1.425,3.863-1.344,6.012l0.557,4.148
		C987.397,1571.753,988.735,1574.048,990.669,1575.995z"/>
	<path style="fill:#98AA24;" d="M1162.724,1519.632c25.279,0,25.321-39.287,0-39.287
		C1137.444,1480.344,1137.402,1519.632,1162.724,1519.632z"/>
	<path style="fill:#98AA24;" d="M1176.849,1609.123c-8.606,0-8.62,13.374,0,13.374
		C1185.455,1622.498,1185.469,1609.123,1176.849,1609.123z"/>
	<path style="fill:#98AA24;" d="M1061.026,1695.73c15.599,0,15.623-24.241,0-24.241
		C1045.428,1671.489,1045.402,1695.73,1061.026,1695.73z"/>
	<path style="fill:#98AA24;" d="M1092.1,1591.702c8.964,0,8.98-13.932,0-13.932
		C1083.136,1577.771,1083.122,1591.702,1092.1,1591.702z"/>
	<path style="fill:#98AA24;" d="M957.825,1775.391l2.218,0.624c4.98,1.402,10.052-2.541,10.052-7.657
		c0-2.036-0.886-4.176-2.327-5.615c-1.992-1.994-5.002-2.809-7.726-2.042l-2.218,0.625c-2.408,0.678-4.479,2.634-5.094,5.094
		c-0.353,1.408-0.353,2.471,0,3.878C953.346,1772.756,955.417,1774.712,957.825,1775.391z"/>
	<path style="fill:#98AA24;" d="M877.029,1587.246c-2.724-0.103-5.265,0.465-7.622,1.704c-2.453,0.798-4.576,2.161-6.366,4.09
		c-1.93,1.792-3.293,3.914-4.091,6.366c-1.238,2.358-1.807,4.899-1.703,7.622c0.235,1.754,0.472,3.506,0.706,5.259
		c0.941,3.352,2.636,6.261,5.088,8.73c1.334,1.031,2.669,2.062,4.003,3.093c3.087,1.79,6.414,2.69,9.986,2.701
		c2.724,0.103,5.263-0.465,7.622-1.704c2.453-0.798,4.576-2.162,6.366-4.09c1.93-1.792,3.293-3.914,4.091-6.367
		c1.238-2.358,1.807-4.899,1.704-7.622c-0.237-1.752-0.472-3.506-0.707-5.259c-0.94-3.351-2.635-6.261-5.088-8.729
		c-1.335-1.031-2.668-2.062-4.004-3.093C883.928,1588.157,880.6,1587.257,877.029,1587.246z"/>
	<path style="fill:#98AA24;" d="M1182.499,1815.708c10.039,0,10.057-15.603,0-15.603
		C1172.458,1800.105,1172.442,1815.708,1182.499,1815.708z"/>
	<path style="fill:#98AA24;" d="M1380.928,1617.959c0.798,3.307,4.352,6.086,7.792,5.932c3.483-0.156,6.934-2.383,7.792-5.932
		c0.13-0.543,0.271-1.085,0.393-1.63c0.354-1.577,0.406-2.738,0.202-4.26c-0.251-1.866-1.177-3.532-1.957-5.232
		c-2.233-4.873-10.627-4.873-12.862,0c-0.778,1.7-1.705,3.366-1.956,5.232c-0.203,1.523-0.151,2.684,0.203,4.26
		C1380.656,1616.874,1380.796,1617.416,1380.928,1617.959z"/>
	<path style="fill:#98AA24;" d="M1433.919,1774.155c25.637,0,25.681-39.845,0-39.845
		C1408.28,1734.31,1408.238,1774.155,1433.919,1774.155z"/>
	<path style="fill:#98AA24;" d="M1309.62,1954.332c17.571,0,17.6-27.306,0-27.306
		C1292.052,1927.026,1292.021,1954.332,1309.62,1954.332z"/>
	<path style="fill:#98AA24;" d="M1315.271,1734.242c6.992,0,7.003-10.867,0-10.867
		C1308.28,1723.375,1308.268,1734.242,1315.271,1734.242z"/>
	<path style="fill:#98AA24;" d="M1107.193,1954.107c0.66,1.564,1.321,3.128,1.981,4.693c1.025,1.325,2.047,2.65,3.071,3.975
		c1.779,1.915,3.886,3.269,6.323,4.062c1.531,0.888,3.184,1.335,4.956,1.341c1.742,0.467,3.483,0.467,5.223,0
		c1.773-0.005,3.425-0.453,4.957-1.341c1.665-0.467,3.109-1.309,4.335-2.526c2.137-1.385,3.824-3.222,5.059-5.511
		c0.659-1.564,1.321-3.128,1.979-4.693c0.235-1.741,0.469-3.481,0.703-5.222c-0.234-1.74-0.467-3.481-0.703-5.222
		c-0.659-1.564-1.32-3.128-1.979-4.692c-1.025-1.325-2.047-2.651-3.072-3.975c-1.78-1.916-3.886-3.27-6.322-4.062
		c-1.532-0.888-3.184-1.335-4.957-1.341c-2.611-0.584-5.223-0.467-7.832,0.351c-1.284,0.384-2.568,0.768-3.852,1.152
		c-3.722,1.114-7.66,3.799-9.52,7.321c-1.907,3.609-3.069,8.289-1.605,12.274
		C1106.355,1951.828,1106.775,1952.967,1107.193,1954.107z"/>
	<path style="fill:#98AA24;" d="M1056.344,1815.273l-0.701,0.423c-0.606,0.278-1.187,0.557-1.635,0.794
		c-4.22,2.23-7.717,7.132-8.964,11.656c-1.342,4.879-0.589,10.661,1.967,15.029c2.368,4.046,7.006,7.905,11.656,8.963
		c4.994,1.137,10.599,0.891,15.029-1.966c4.165-2.685,7.831-6.683,8.964-11.656c0.994-4.362,0.765-8.559-0.983-12.699
		c-1.985-4.704-5.991-9.246-11.073-10.862C1066.203,1812.656,1060.599,1812.706,1056.344,1815.273z"/>
	<path style="fill:#98AA24;" d="M1366.12,1454.256c2.036,0,4.175-0.886,5.615-2.326c0.774-0.72,1.322-1.572,1.642-2.556
		c0.496-0.947,0.724-1.967,0.684-3.06c-0.092-2.053-0.768-4.183-2.326-5.615c-1.553-1.426-3.463-2.326-5.615-2.326
		c-2.036,0-4.175,0.885-5.615,2.326c-0.775,0.719-1.322,1.571-1.642,2.556c-0.497,0.947-0.726,1.966-0.684,3.059
		c0.091,2.054,0.766,4.184,2.326,5.616C1362.058,1453.356,1363.968,1454.256,1366.12,1454.256z"/>
	<path style="fill:#98AA24;" d="M1470.643,1521.938c20.976,0,21.011-32.6,0-32.6
		C1449.666,1489.338,1449.631,1521.938,1470.643,1521.938z"/>
	<path style="fill:#98AA24;" d="M1453.693,1416.974c9.503,0,9.517-14.767,0-14.767
		C1444.191,1402.207,1444.175,1416.974,1453.693,1416.974z"/>
	<path style="fill:#98AA24;" d="M962.153,1939.363c-8.964,0-8.979,13.932,0,13.932
		C971.117,1953.294,971.132,1939.363,962.153,1939.363z"/>
	<path style="fill:#98AA24;" d="M880.23,1794.262c7.889,0,7.902-12.26,0-12.26C872.343,1782.002,872.328,1794.262,880.23,1794.262z"
		/>
	<path style="fill:#98AA24;" d="M957.164,1349.606c1.015,0.784,2.031,1.568,3.046,2.352c2.345,1.361,4.878,2.046,7.593,2.055
		c2.072,0.078,4.004-0.354,5.798-1.296c1.864-0.607,3.478-1.644,4.842-3.111c1.467-1.363,2.503-2.977,3.11-4.842
		c0.942-1.793,1.374-3.726,1.296-5.797c-0.178-1.333-0.357-2.667-0.536-4c-0.716-2.548-2.006-4.762-3.869-6.64
		c-1.016-0.784-2.03-1.568-3.046-2.353c-2.346-1.361-4.877-2.045-7.594-2.054c-2.071-0.078-4.004,0.354-5.797,1.296
		c-1.866,0.607-3.48,1.643-4.843,3.111c-1.467,1.363-2.503,2.978-3.111,4.843c-0.942,1.792-1.374,3.725-1.296,5.797l0.539,3.999
		C954.009,1345.516,955.299,1347.729,957.164,1349.606z"/>
	<path style="fill:#98AA24;" d="M928.255,822.468c22.409,0,22.447-34.829,0-34.829C905.843,787.638,905.806,822.468,928.255,822.468
		z"/>
	<path style="fill:#98AA24;" d="M1001.703,637.291c2.602,0,5.062-1.412,6.376-3.657c0.667-1.152,1.004-2.394,1.008-3.727
		c-0.004-1.333-0.341-2.575-1.008-3.727c-0.321-0.754-0.642-1.508-0.962-2.263c-0.557-0.942-1.307-1.691-2.25-2.249
		c-0.978-0.567-2.032-0.853-3.164-0.856c-1.132,0.003-2.187,0.289-3.165,0.856c-0.942,0.557-1.691,1.306-2.248,2.249
		c-0.322,0.755-0.642,1.509-0.964,2.263c-0.667,1.152-1.004,2.394-1.007,3.727c0.003,1.333,0.34,2.575,1.007,3.727
		C996.641,635.879,999.099,637.291,1001.703,637.291z"/>
	<path style="fill:#639B32;" d="M1326.8,164.477c-11.167-0.233,1.435,39.857-17.574,48.977c-3.08-9.78,0.588-37.389,1.23-48.432
		c0.415-7.139-46.855-8.75-49.579,4.561c-2.709,13.236-3.694,31.159-6.284,44.389c-2.886,14.747-8.762,28.43-12.785,36.59
		c-3.486-8.544-3.015-19.722,0.272-38.138c3.724-20.863,7.963-23.404,4.306-44.675c-21.373-2.378-96.11,30.781-95.565,45.492
		c0.76,20.505,4.609,24.128,7.342,44.583c1.867,13.972,8.5,32.623-1.349,45.042c-2.451-9.622-6.538-24.76-9.262-36.504
		c-3.681-15.874-14.395-32.525-13.621-45.221c0.336-5.513-38.259,32.198-49.852,61.838c-7.829,20.018-16.909,32.937-23.755,53.305
		c-3.673,10.93-7.663,21.408-12.264,31.823c-3.412,7.726-10.718,21.392-12.487,25.238c23.603-14.186,48.872-29.439,70.573-46.076
		c-1.407-6.53-5.238-20.645-0.273-26.697c6.049,7.743,6.811,23.7,11.994,19.341c4.997-4.202,66.94-42.921,76.269-47.945
		c7.083-3.814,0.08-19.945,4.903-30.783c14.085,11.935,5.168,26.916,14.983,20.158c16.617-11.442,58.569-41.135,111.418-54.21
		c6.39-1.581,6.957-11.97,14.438-19.886c-0.02,4.148,1.457,11.915,4.479,14.813c10.036-5.547,30.177-13.464,40.742-18.627
		c15.085-7.371,61.574-6.952,69.739-19.069c-8.653-0.324-64.258-14.236-73.007-14.983
		C1369.573,168.334,1339.876,164.749,1326.8,164.477z"/>
	<g>
		<path style="fill:#B5BB11;" d="M1058.576,857.851c-14.163,0-14.187,22.012,0,22.012
			C1072.74,879.863,1072.763,857.851,1058.576,857.851z"/>
		<path style="fill:#B5BB11;" d="M1141.325,850.687c2.407,0.836,5.615-0.078,7.318-1.935c1.352-1.472,2.204-3.281,2.204-5.319
			c0-1.929-0.84-3.955-2.204-5.32c-1.801-1.802-4.83-2.799-7.318-1.935c-0.727,0.252-1.456,0.505-2.182,0.758
			c-0.537,0.226-1.074,0.453-1.611,0.679c-0.783,0.423-1.415,1.002-1.889,1.735c-0.878,1.136-1.513,2.606-1.447,4.082
			c0.053,1.196,0.362,2.342,0.92,3.4c0.82,1.553,2.431,2.542,4.027,3.096C1139.87,850.182,1140.598,850.434,1141.325,850.687z"/>
		<path style="fill:#B5BB11;" d="M1100.951,976.753c-24.741,0-24.784,38.451,0,38.451
			C1125.692,1015.204,1125.734,976.753,1100.951,976.753z"/>
		<path style="fill:#B5BB11;" d="M1206.631,1046.432c-2.183,0.601-3.69,2.272-4.378,4.379c-0.358,1.102-0.719,2.204-1.078,3.306
			c-1.034,3.166,2.319,6.516,5.484,5.484l3.307-1.079c2.107-0.687,3.776-2.195,4.378-4.378c0.593-2.157-0.032-4.519-1.612-6.099
			C1211.15,1046.464,1208.788,1045.839,1206.631,1046.432z"/>
		<path style="fill:#B5BB11;" d="M1162.005,1169.829c-0.945-1.018-2.065-1.738-3.36-2.159c-1.244-0.653-2.583-0.953-4.021-0.899
			c-0.925,0.125-1.85,0.249-2.775,0.374c-1.768,0.496-3.302,1.39-4.606,2.684c-0.544,0.704-1.087,1.408-1.631,2.112
			c-0.945,1.628-1.42,3.384-1.425,5.268c0.088,0.797,0.178,1.594,0.267,2.39c-0.052,1.4,0.239,2.706,0.876,3.918
			c0.411,1.261,1.11,2.352,2.103,3.273c0.922,0.991,2.011,1.692,3.273,2.103c1.211,0.637,2.518,0.928,3.918,0.875
			c2.631-0.118,5.359-0.982,7.192-2.979c0.53-0.687,1.059-1.372,1.589-2.058c0.92-1.586,1.383-3.297,1.389-5.133
			c0.09-0.797,0.178-1.593,0.268-2.39c0.054-1.437-0.245-2.778-0.9-4.022C1163.742,1171.894,1163.024,1170.775,1162.005,1169.829z"
			/>
		<path style="fill:#B5BB11;" d="M1261.971,1187.873c-1.499,0-3.074,0.653-4.136,1.714c-1.016,1.015-1.779,2.68-1.715,4.137
			c0.068,1.513,0.566,3.082,1.715,4.137c1.143,1.051,2.551,1.714,4.136,1.714c1.501,0,3.077-0.653,4.139-1.714
			c1.015-1.015,1.779-2.68,1.713-4.137c-0.067-1.514-0.563-3.083-1.713-4.137
			C1264.965,1188.536,1263.557,1187.873,1261.971,1187.873z"/>
		<path style="fill:#B5BB11;" d="M1143.325,1078.676c-6.275,0-6.285,9.752,0,9.752
			C1149.6,1088.428,1149.61,1078.676,1143.325,1078.676z"/>
		<path style="fill:#B5BB11;" d="M1123.549,712.409c-5.02,0-5.027,7.801,0,7.801C1128.57,720.211,1128.579,712.409,1123.549,712.409
			z"/>
		<path style="fill:#B5BB11;" d="M1261.97,1299.067c-5.02,0-5.027,7.801,0,7.801C1266.992,1306.868,1267,1299.067,1261.97,1299.067z
			"/>
		<path style="fill:#B5BB11;" d="M1072.702,734.985c-15.958,0-15.983,24.798,0,24.798
			C1088.658,759.783,1088.684,734.985,1072.702,734.985z"/>
		<path style="fill:#B5BB11;" d="M1197.219,921.431c-15.957,0-15.983,24.798,0,24.798
			C1213.176,946.229,1213.202,921.431,1197.219,921.431z"/>
		<path style="fill:#B5BB11;" d="M1355.196,1253.221c-15.957,0-15.983,24.798,0,24.798
			C1371.152,1278.02,1371.178,1253.221,1355.196,1253.221z"/>
	</g>
</g>
</svg>
