<?xml version="1.0" encoding="UTF-8"?>
<svg id="Livello_2" data-name="Livello 2" xmlns="http://www.w3.org/2000/svg" viewBox="0 0 2144.77 3263.25">
  <defs>
    <style>
      .cls-1 {
        fill: #f9d6b6;
      }

      .cls-2 {
        fill: #b17e4f;
      }

      .cls-3 {
        fill: #ffca22;
      }

      .cls-4 {
        fill: #650000;
      }

      .cls-5 {
        fill: #f44a4a;
      }

      .cls-6 {
        fill: #fff;
      }

      .cls-7 {
        fill: #2eafff;
      }

      .cls-8 {
        fill: #f28475;
      }

      .cls-9 {
        fill: #bc462f;
      }

      .cls-10 {
        fill: #f4b68c;
      }

      .cls-11 {
        opacity: .7;
      }

      .cls-12 {
        opacity: .4;
      }

      .cls-13 {
        opacity: .35;
      }

      .cls-14 {
        opacity: .2;
      }

      .cls-15 {
        fill: #31c0ff;
      }

      .cls-16 {
        fill: #3185ff;
      }

      .cls-17 {
        fill: #5e3519;
      }

      .cls-18 {
        fill: #512717;
      }

      .cls-19 {
        fill: #cce2ed;
      }

      .cls-20 {
        fill: #d2623a;
      }

      .cls-21 {
        fill: #3386ff;
      }
    </style>
  </defs>
  <g id="Layer_1" data-name="Layer 1">
    <g class="cls-14">
      <ellipse class="cls-4" cx="1124.98" cy="3140.93" rx="667.65" ry="122.32"/>
    </g>
    <g>
      <g>
        <path class="cls-2" d="M1006.09,2655.19c-242.16,151.22-744.36,176.13-795.69-118.6-27.91-160.29,66.85-288.22,142.6-397.82,62.05-89.78,90.18-162.32,91.55-262.43,1.75-128.98-71.73-181.03-148.36-151.78-90.46,34.52-56.24,166.13-171.98,167.3-90.03.91-134.54-119.2-94.58-226.4,78.99-211.94,427.06-246.17,546.98,13.09,143.45,310.1-147.06,575.58-177.27,693.65-47.8,175.38,174.19,278.04,481.45,149.93"/>
        <path class="cls-2" d="M1006.09,2655.21c-242.17,151.2-744.38,176.12-795.69-118.63-27.06-155.38,61.17-280.32,135.58-387.68,2.35-3.4,4.7-6.77,7.02-10.14,62.05-89.78,90.2-162.29,91.53-262.42,1.75-128.98-71.7-181.03-148.36-151.76-90.45,34.5-56.23,166.12-171.98,167.27-53.07.53-90.34-40.99-103.78-97.15-9.37-39.1-7.2-85.25,9.2-129.23,79-211.95,427.06-246.17,546.99,13.09,143.44,310.08-147.06,575.56-177.28,693.63-47.8,175.38,174.19,278.04,481.46,149.94l125.3,133.09Z"/>
        <path class="cls-6" d="M1006.09,2655.21c-242.17,151.2-744.38,176.12-795.69-118.63-6.42-36.92-6.35-72.16-1.47-105.82,15.58-107.96,80.34-200.02,137.05-281.87,2.35-3.4,4.7-6.77,7.02-10.14,62.05-89.78,90.2-162.29,91.53-262.42,1.75-128.98-71.7-181.03-148.36-151.76-90.45,34.5-56.23,166.12-171.98,167.27-53.07.53-90.34-40.99-103.78-97.15-9.37-39.1-7.2-85.25,9.2-129.23,79-211.95,427.06-246.17,546.99,13.09,143.44,310.08-147.06,575.56-177.28,693.63-19.02,69.84,4.7,128.14,59.6,164.92,82.94,55.63,236.94,62.09,421.87-14.99l125.3,133.09Z"/>
        <g class="cls-13">
          <path class="cls-6" d="M76.25,1736.84c-25.15,0-26.47-67.71,20.47-130.44,51.15-68.36,119.77-59.23,122.4-48.7,4.7,18.79-32.03,46.94-68.59,104.85-27.09,42.92-49.14,74.29-74.29,74.29Z"/>
        </g>
        <path class="cls-19" d="M1006.09,2655.21c-242.17,151.2-744.38,176.12-795.69-118.63-6.42-36.92-6.35-72.16-1.47-105.82,0,0,12.49,204.16,151.9,198.72,74.23-2.91,94.69-50.26,98.1-92.38,82.94,55.63,236.94,62.09,421.87-14.99l125.3,133.09Z"/>
        <path class="cls-19" d="M345.98,2148.89c2.35-3.4,4.7-6.77,7.02-10.14,62.05-89.78,90.2-162.29,91.53-262.42,1.75-128.98-71.7-181.03-148.36-151.76-90.45,34.5-56.23,166.12-171.98,167.27-53.07.53-90.34-40.99-103.78-97.15,20.22,24.39,51.28,44.68,97.25,37.48,89.6-14.04,65.61-158.18,164.47-191.84,82.49-28.09,192.82,6.42,195.81,196.54,2.99,189.84-131.97,312.01-131.97,312.01Z"/>
        <path class="cls-4" d="M589.92,2779.86c-87.93,0-167.84-14.65-231.35-43.02-91.07-40.68-147.37-109.04-162.81-197.7-27.8-159.62,58.94-284.69,135.47-395.04l9.55-13.78c63.54-91.94,87.64-160.83,88.91-254.18.84-61.99-16.37-108.48-48.47-130.92-22.21-15.52-50.53-17.93-79.73-6.78-34.64,13.22-48.31,43.84-62.79,76.25-19.1,42.79-40.76,91.28-114.34,92.02-.38,0-.77,0-1.15,0-36.5,0-68.99-17.67-91.57-49.84-35.4-50.43-41.66-127.61-15.94-196.61,38.92-104.43,143.66-174.95,266.83-179.67,132.54-5.07,250.51,68.38,307.56,191.71,108.74,235.07-24.12,445.33-112.04,584.46-30.52,48.3-56.88,90.02-64.33,119.11-14.95,54.85-2.11,101.91,37.05,136.33,81.17,71.32,247.7,69.83,424.28-3.79l11.44,27.43c-186.98,77.95-365.71,77.44-455.33-1.31-47.59-41.82-63.98-100.86-46.17-166.24,8.54-33.41,34.76-74.89,67.93-127.4,89.53-141.68,212.13-335.72,110.19-556.11-52.7-113.94-157.12-179.08-279.45-174.49-111.15,4.26-205.41,67.19-240.13,160.35-22.06,59.18-17.07,127.17,12.42,169.16,12.05,17.16,33.77,37.4,68.1,37.19,54.52-.55,69.08-33.15,87.51-74.42,15.55-34.82,33.17-74.28,79.32-91.9,38.68-14.76,76.81-11.15,107.34,10.19,40.42,28.25,62.15,83.54,61.17,155.68-1.34,98.67-27.75,174.56-94.18,270.67l-9.57,13.82c-73.27,105.65-156.32,225.4-130.61,373.01,13.86,79.59,62.87,138.69,145.65,175.67,181.35,81,470.89,30.7,627.52-67.12l15.74,25.21c-84.59,52.83-201.91,91.39-321.88,105.8-34.89,4.19-69.09,6.26-102.15,6.26Z"/>
      </g>
      <g>
        <g>
          <path class="cls-1" d="M1503.68,2342.95c-42.65,49.21-94.59,211.05-28.43,256.43,34.53,23.69,89.7,18.59,89.7,18.59,0,0,108.42,36.43,184.26-1.69,61.89-31.11,66.81-108.62,35.85-131.99-10.18-7.69-21.12-9.84-21.12-9.84,0,0,10.25-30.55,2.05-62.33"/>
          <path class="cls-1" d="M1801.85,2548.06c-5.28,25.97-21.95,52.81-52.64,68.22-75.84,38.13-184.27,1.69-184.27,1.69,0,0-55.19,5.11-89.69-18.57-66.18-45.41-14.24-207.25,28.44-256.42l262.31,69.13c5.06,19.61,3.07,38.74.82,50.51-1.39,7.32-2.9,11.82-2.9,11.82,0,0,10.95,2.16,21.12,9.87,15.63,11.77,22.12,37.31,16.79,63.76Z"/>
          <path class="cls-6" d="M1801.85,2548.06c-5.28,25.97-21.95,52.81-52.64,68.22-75.84,38.13-184.27,1.69-184.27,1.69,0,0-55.19,5.11-89.69-18.57-66.18-45.41-14.24-207.25,28.44-256.42l262.31,69.13c5.06,19.61,3.07,38.74.82,50.51-.56,2.99-1.17,5.5-1.65,7.4-.74,2.81-1.25,4.42-1.25,4.42,0,0,4.5.91,10.43,3.59,3.29,1.47,7.06,3.51,10.69,6.28,15.63,11.77,22.12,37.31,16.79,63.76Z"/>
          <path class="cls-19" d="M1738.74,2531.05c-2.21-38.09,13.37-54.19,26.45-61.03-.74,2.81-1.25,4.42-1.25,4.42,0,0,4.5.91,10.43,3.59,4.5,32.16-35.62,53.02-35.62,53.02Z"/>
          <path class="cls-19" d="M1801.85,2548.06c-5.28,25.97-21.95,52.81-52.64,68.22-75.84,38.13-184.27,1.69-184.27,1.69,0,0-55.19,5.11-89.69-18.57-66.18-45.41-14.24-207.25,28.44-256.42l262.31,69.13c5.06,19.61,3.07,38.74.82,50.51-71.59,37.01-198.42-7.7-204.65,30.56-5.71,35.28,16.28,83.5,67.27,93.89,78.69,16.02,140.55-4.07,172.41-39Z"/>
          <path class="cls-4" d="M1665,2648.27c-48.14,0-90.42-12.04-101.83-15.59-12.92.76-62.3,1.93-96.16-21.3-20.2-13.85-32.46-36.64-36.46-67.73-9.46-73.66,30.47-173.71,62.12-210.23,5.26-6.08,14.45-6.73,20.52-1.47,6.07,5.26,6.73,14.45,1.46,20.52-27.5,31.74-63.56,122.69-55.24,187.47,2.9,22.52,10.99,38.48,24.05,47.44,29.67,20.36,79.63,16.14,80.15,16.1,2.01-.18,4.04.06,5.95.7,1.02.34,103.68,33.99,173.09-.9,26.3-13.22,43.55-38.12,46.13-66.62,1.62-17.81-3.3-33.81-12.51-40.77-7.2-5.44-15.19-7.18-15.27-7.2-4.06-.86-7.61-3.43-9.66-7.03-2.06-3.6-2.53-7.92-1.22-11.85.08-.23,8.72-27.08,1.75-54.07-2.01-7.78,2.67-15.71,10.45-17.72,7.79-1.99,15.71,2.67,17.72,10.45,5.68,22.01,3.61,43.29,1.1,56.64,3.96,1.84,8.34,4.3,12.65,7.56,17.58,13.28,26.54,38.18,23.96,66.62-3.5,38.57-26.69,72.21-62.04,89.98-28.48,14.32-60.74,18.99-90.73,18.99Z"/>
          <path class="cls-6" d="M1527.84,2421.29c-55.28-42.71-46.56-182.68-18.95-220.08,0,0-3.3-9.02-83.67-23.79l-121.91-442.32c214.58,11.17,501.95,222.59,569.35,370.99,70.41,155.03-11.34,284.38-101.22,334.47-18.61,10.12-47.72,19.93-92.06,16.85"/>
          <path class="cls-6" d="M1771.43,2440.57c-18.6,10.09-47.71,19.94-92.07,16.85l-151.53-36.12c-55.27-42.73-46.57-182.71-18.95-220.1,0,0-3.28-9.02-83.68-23.78l-38.42-139.42-83.48-302.9c214.56,11.16,501.95,222.59,569.37,370.99,15.15,33.43,23.26,65.68,25.76,96.18,8.98,110.94-56.5,199.01-127,238.3Z"/>
          <path class="cls-19" d="M1493.97,1785.66c-43.16,25.6-97.68,46.57-159.88,61.17l-30.78-111.73c59.98,3.13,125.66,21.88,190.66,50.56Z"/>
          <path class="cls-19" d="M1771.43,2440.57c-18.6,10.09-47.71,19.94-92.07,16.85l-151.53-36.12c-55.27-42.73-46.57-182.71-18.95-220.1,0,0-3.28-9.02-83.68-23.78l-38.42-139.42c17.29-119.52,41.27-219.62,69.87-168.15,105.95,190.74,249.45,137.09,266.74,166.61-111.61,34.97-222.11,120.55-183.54,258.04,29.83,106.31,156.4,143.11,268.54,67.75,61.82-41.54,76.42-102.25,90.03-159.98,8.98,110.94-56.5,199.01-127,238.3Z"/>
          <path class="cls-4" d="M1518.76,2433.04c-57.1-42.74-58.7-184.71-21.82-240.66,0,0-2,13.94-2,13.94,1.14,2.81,1.82,3.66,3.5,5.29-2.72-1.61-9.27-3.91-13.72-5.31-13.23-4.11-27.26-7.29-41.01-10.13-11.13-3.5-28.89-1.02-32.8-14.8,0,0-121.9-442.32-121.91-442.32-2.21-7.9,2.43-16.1,10.34-18.28,182.98,6.63,403.45,148.63,523.61,282.38,51.79,57.16,90.38,130.05,92.99,208.65,4.08,91.94-45.03,184.14-123.2,232.05-33.11,21.31-77.1,25.47-113.34,13.55,24.93-4.23,48.53-9.34,69.15-19.1,40.9-20.94,75.78-54.3,99.77-93.37,50.03-80.94,42.03-183.84-7.85-262.89-66.22-100.52-164.64-177.73-267.39-238.98-82.77-47.62-174.82-87.12-270.53-93.13,0,0,15.1-18.78,15.1-18.78,0,0,121.91,442.32,121.91,442.32l-11.64-10.67c28.78,6.01,58.36,10.01,85.21,23,2.98,1.74,6.1,4.04,8.09,7.07,3.38,4.37,3.27,12.7-.36,17.15-23.61,40.17-23.1,113.93-9.56,157.87,5.33,16.86,13.78,32.47,25.67,41.65,15.2,12.22-2.37,35.21-18.19,23.49h0Z"/>
          <path class="cls-4" d="M1504.91,2180.14c51.39-74.56,132.58-128.77,221.86-144.46-42.1,12.7-81.34,32.99-114.89,61.27-32.69,27.1-61.05,60.27-81.01,97.64-9.66,18.63-36.74,3.67-25.96-14.46h0Z"/>
          <path class="cls-4" d="M1738.72,2531.04c-7-23.82-3.7-55.23,21.64-67.14,0,0,7.16,21.11,7.16,21.11-20.86,2.54-27.48,27.88-28.8,46.04h0Z"/>
        </g>
        <path class="cls-4" d="M1902.74,2284.69l-22.08-3.04c2.33-16.96,19.03-166.63-110.96-197.88-103.5-24.89-196.83,51.81-197.76,52.59l-14.31-17.08c4.14-3.47,102.71-84.71,217.28-57.17,149.06,35.84,130.44,203.58,127.83,222.59Z"/>
      </g>
      <g>
        <g>
          <path class="cls-1" d="M768.38,2292.95c39.83,45.95,88.33,197.08,26.55,239.46-32.25,22.12-83.76,17.36-83.76,17.36,0,0-101.25,34.02-172.07-1.58-57.8-29.05-62.39-101.43-33.48-123.26,9.51-7.18,19.72-9.19,19.72-9.19,0,0-9.57-28.53-1.91-58.21"/>
          <path class="cls-1" d="M489.94,2484.49c4.93,24.25,20.49,49.31,49.15,63.7,70.82,35.61,172.07,1.58,172.07,1.58,0,0,51.54,4.77,83.75-17.34,61.8-42.4,13.3-193.54-26.56-239.45l-244.95,64.55c-4.73,18.31-2.87,36.18-.77,47.17,1.29,6.83,2.71,11.03,2.71,11.03,0,0-10.23,2.02-19.73,9.22-14.59,10.99-20.66,34.84-15.68,59.54Z"/>
          <path class="cls-6" d="M489.94,2484.49c4.93,24.25,20.49,49.31,49.15,63.7,70.82,35.61,172.07,1.58,172.07,1.58,0,0,51.54,4.77,83.75-17.34,61.8-42.4,13.3-193.54-26.56-239.45l-244.95,64.55c-4.73,18.31-2.87,36.18-.77,47.17.53,2.79,1.09,5.13,1.54,6.91.69,2.63,1.17,4.12,1.17,4.12,0,0-4.2.85-9.74,3.36-3.07,1.37-6.59,3.27-9.98,5.86-14.59,10.99-20.66,34.84-15.68,59.54Z"/>
          <path class="cls-19" d="M548.88,2468.6c2.06-35.57-12.49-50.61-24.7-56.99.69,2.63,1.17,4.12,1.17,4.12,0,0-4.2.85-9.74,3.36-4.2,30.03,33.27,49.52,33.27,49.52Z"/>
          <path class="cls-19" d="M489.94,2484.49c4.93,24.25,20.49,49.31,49.15,63.7,70.82,35.61,172.07,1.58,172.07,1.58,0,0,51.54,4.77,83.75-17.34,61.8-42.4,13.3-193.54-26.56-239.45l-244.95,64.55c-4.73,18.31-2.87,36.18-.77,47.17,66.86,34.56,185.29-7.2,191.11,28.54,5.34,32.94-15.2,77.97-62.81,87.67-73.48,14.96-131.25-3.8-161-36.42Z"/>
          <path class="cls-4" d="M617.73,2579.02c-28.14,0-58.42-4.39-85.16-17.83-33.31-16.75-55.17-48.45-58.47-84.81-2.44-26.89,6.07-50.46,22.75-63.06,3.84-2.9,7.74-5.14,11.31-6.85-2.3-12.61-4.07-32.26,1.17-52.58,2.01-7.78,9.94-12.44,17.72-10.45,7.78,2.01,12.46,9.94,10.45,17.72-6.43,24.91,1.55,49.74,1.64,49.99,1.3,3.96.84,8.31-1.26,11.91-2.11,3.6-5.65,6.14-9.74,6.95h0s-7.24,1.6-13.76,6.52c-8.35,6.3-12.79,20.91-11.31,37.21,2.38,26.27,18.29,49.24,42.55,61.44,64.65,32.5,159.94,1.11,160.9.79,1.92-.64,3.96-.88,5.97-.7.45.03,46.76,3.95,74.19-14.87,11.96-8.21,19.38-22.89,22.05-43.63,7.47-58.12-25.5-144.47-51.36-174.3-5.26-6.07-4.61-15.26,1.46-20.52,6.06-5.26,15.25-4.61,20.52,1.46,29.67,34.23,67.1,128.02,58.24,197.07-3.76,29.32-15.35,50.82-34.45,63.92-31.71,21.76-77.78,20.79-90.22,20.07-10.94,3.39-50.35,14.54-95.21,14.54Z"/>
          <path class="cls-6" d="M745.81,2366.1c51.63-39.88,43.48-170.59,17.7-205.51,0,0,3.08-8.43,78.13-22.21l113.84-413.05c-200.38,10.43-468.74,207.86-531.67,346.44-65.75,144.77,10.59,265.56,94.52,312.34,17.38,9.45,44.56,18.62,85.97,15.73"/>
          <path class="cls-6" d="M518.34,2384.11c17.36,9.42,44.56,18.62,85.97,15.74l141.5-33.73c51.61-39.9,43.49-170.62,17.7-205.53,0,0,3.07-8.42,78.14-22.2l35.87-130.2,77.96-282.86c-200.36,10.42-468.73,207.86-531.69,346.44-14.15,31.22-21.72,61.33-24.05,89.82-8.39,103.6,52.76,185.84,118.6,222.52Z"/>
          <path class="cls-19" d="M777.44,1772.54c40.31,23.9,91.22,43.48,149.3,57.12l28.74-104.34c-56.01,2.92-117.34,20.43-178.04,47.22Z"/>
          <path class="cls-19" d="M518.34,2384.11c17.36,9.42,44.56,18.62,85.97,15.74l141.5-33.73c51.61-39.9,43.49-170.62,17.7-205.53,0,0,3.07-8.42,78.14-22.2l35.87-130.2c-16.15-111.61-38.53-205.09-65.25-157.02-98.94,178.12-232.94,128.02-249.09,155.58,104.22,32.66,207.41,112.57,171.39,240.96-27.85,99.27-146.05,133.64-250.77,63.27-57.73-38.79-71.36-95.49-84.07-149.39-8.39,103.6,52.76,185.84,118.6,222.52Z"/>
          <path class="cls-4" d="M736.73,2354.34c38.73-33.32,36.97-118.42,23.84-164.67-2.33-7.74-5.49-15.48-9.02-20.27-4.16-5.3-3.54-13.56.37-18.16,1.9-2.5,4.6-4.39,7.14-5.89,25.19-12.21,52.9-15.96,79.89-21.59,0,0-11.64,10.67-11.64,10.67.01-.01,113.83-413.04,113.84-413.05l15.1,18.78c-89.19,5.76-174.99,42.46-252.17,86.87-100.73,59.36-239.96,167.52-276.38,281.61-28.29,82.67-4.5,176.84,60.5,235.53,15.84,14.19,32.59,27.77,51.77,37.11,19.08,9.21,41.02,14.21,64.32,18.54-49.24,16.84-97.87,1.01-136.01-33.43-87.94-76.25-109.41-197.88-59.6-302.14,54.61-110.72,175.79-201.97,280.16-263.6,82.11-46.07,170.41-83.88,265.86-90.18,9.95-.75,17.99,9.27,15.09,18.8,0,0-113.84,413.04-113.84,413.04-1.56,5.67-6.21,9.68-11.64,10.67-13.1,2.47-26.31,5.03-39.2,8.18-10.75,2.78-21.81,5.21-31.48,10.09.51-.4,1.88-1.8,2.35-2.63-.1.19,1.11-1.74,1.47-2.93l-2-13.94c12.69,18.72,16.24,37.33,19.92,58.05,2.9,19.13,3.84,38.3,2.95,57.53-2.38,39.29-10.7,83.96-43.43,110.52-15.85,11.59-33.43-11.08-18.17-23.52h0Z"/>
          <path class="cls-17" d="M742.13,2154.89c-20.83-39.29-51.44-73.78-86.93-100.69-28.47-21.86-60.74-37.59-95.15-48.19,62.17,10.62,120.21,41.29,165.69,85.04,15.73,15.27,30.04,30.96,42.34,49.38,10.82,18.06-16.24,33.23-25.96,14.46h0Z"/>
          <path class="cls-4" d="M548.89,2468.59c-1.42-16.74-7.76-40.37-27.13-42.29,0,0,7.16-21.11,7.16-21.11,23.85,11.38,26.86,40.99,19.97,63.4h0Z"/>
        </g>
        <path class="cls-4" d="M395,2238.65c-2.45-17.82-19.91-175.06,119.93-208.68,107.32-25.8,199.67,50.29,203.54,53.54l-14.31,17.09c-.87-.73-87.79-72.1-184.03-48.96-120.76,29.04-105.22,168.2-103.05,183.97l-22.08,3.04Z"/>
      </g>
      <g>
        <g>
          <path class="cls-6" d="M1117.21,2553c-53.09,131.66-27.37,319.7-35.66,445.92-2.23,33.92-31.2,41.81-40.53,64.51-4.14,10.08-20.07,22.5-26.26,29.71-15.94,18.58-234.97-66.48-253.83-106.08-82.86-215.82-104.85-527.41-66.7-700.75"/>
          <path class="cls-6" d="M1081.54,2998.94c-2.22,33.91-31.22,41.78-40.51,64.49-4.15,10.09-20.1,22.51-26.27,29.71-15.94,18.6-234.97-66.47-253.84-106.07-1.66-4.35-3.28-8.7-4.91-13.14-71.35-194.77-94.76-461.15-70.82-635.9.63-4.63,1.28-9.2,1.98-13.7.04-.04.04-.08,0-.12.87-5.62,1.78-11.2,2.81-16.62,1.31-7.32,2.73-14.4,4.23-21.25v-.04l259.42,163.6,163.56,103.1c-53.1,131.63-27.34,319.68-35.65,445.93Z"/>
          <path class="cls-19" d="M675.93,3059.75c0-.59.04-1.27.04-1.86h.04c2.37,1.58,2.18,2.18-.08,1.86Z"/>
          <path class="cls-19" d="M1081.54,2998.94c-2.22,33.91-31.22,41.78-40.51,64.49-4.15,10.09-20.1,22.51-26.27,29.71-15.94,18.6-234.97-66.47-253.84-106.07-1.66-4.35-3.28-8.7-4.91-13.14,108.92-72.32,245.57,17.96,256.46-39.09,13.29-70.34,10.44-143.66-126.72-211.79-64.45-32.09-168.07-76.87-206.84-148.48-5.18-91.47-2.65-179.34,8.27-250.24.04-.04.04-.08,0-.12.91-5.66,1.82-11.2,2.81-16.62,1.31-7.32,2.73-14.4,4.23-21.25l259.42,163.56,163.56,103.1c-53.1,131.63-27.34,319.68-35.65,445.93Z"/>
          <path class="cls-4" d="M1004.69,3110.62c-3.8,0-7.62-.38-11.17-.85-52.38-6.96-225.1-72.43-246.01-116.31-.17-.35-.32-.71-.46-1.07-78.31-203.96-108.52-522.14-67.34-709.27,1.77-8.02,9.71-13.08,17.71-11.32,8.01,1.76,13.08,9.69,11.32,17.7-34.96,158.86-19.72,468.26,65.8,691.55,4.93,9.06,38.11,33.03,111.07,63.43,61.83,25.76,107.81,37.32,120.16,36.47,2.03-2.12,4.37-4.36,6.81-6.69,4.89-4.67,13.07-12.5,14.71-16.49,4.83-11.76,13.25-20.06,20.68-27.39,9.93-9.8,17.78-17.54,18.76-32.44,2.43-37.08,1.88-79.88,1.3-125.19-1.39-107.89-2.96-230.17,35.41-325.31,3.07-7.61,11.73-11.29,19.34-8.22,7.61,3.07,11.29,11.73,8.22,19.34-36.14,89.61-34.6,208.72-33.26,313.81.59,45.91,1.15,89.28-1.36,127.52-1.72,26.17-16.04,40.29-27.54,51.64-6.19,6.11-11.54,11.38-14.07,17.54-4.03,9.81-13.39,18.76-21.65,26.66-2.88,2.75-5.61,5.36-7.08,7.08-5.23,6.1-13.26,7.81-21.35,7.81Z"/>
        </g>
        <path class="cls-4" d="M923.11,2872.54c-75.05,0-160.52-10.94-220.23-51.38l12.5-18.45c119.61,81.01,363.07,33.31,365.51,32.82l4.39,21.85c-5.5,1.11-77.14,15.16-162.17,15.16Z"/>
        <path class="cls-6" d="M1082.95,2966.92c-1.3,118.08-36.56,151.24-71.38,165.28-23.86,9.62-59,30.69-86.26,13.3-5.82-3.71-14.42-12.74-16.46-24.6-6.86,3.16-29.8,16.63-41.61,23.43-20.4,11.75-61.66,28.25-98.03.11,0,0-49.38,18.31-75.24-12.24,0,0-39.35.07-37.85-43.15,1.59-45.76,74.97-116.02,195.4-121.1,69.21-2.92,131.77,11.47,170.7,33.43"/>
        <path class="cls-6" d="M1082.97,2966.93c-1.31,118.06-36.6,151.21-71.41,165.26-23.86,9.61-58.99,30.7-86.25,13.29-5.82-3.72-14.4-12.74-16.46-24.57-6.84,3.13-29.79,16.62-41.62,23.42-20.38,11.75-61.64,28.25-98,.08,0,0-49.38,18.32-75.25-12.23,0,0-39.37.08-37.86-43.13.24-6.73,2.02-13.97,5.3-21.48,18.87-43.52,87.36-95.31,190.11-99.62,42.02-1.78,81.58,2.81,114.85,11.63.16.04.28.08.4.12,21.44,5.66,40.24,13.1,55.47,21.68l60.73-34.46Z"/>
        <path class="cls-19" d="M1082.97,2966.93c-1.31,118.06-36.6,151.21-71.41,165.26-23.86,9.61-58.99,30.7-86.25,13.29-5.82-3.72-14.4-12.74-16.46-24.57-6.84,3.13-29.79,16.62-41.62,23.42-20.38,11.75-61.64,28.25-98,.08,0,0-49.38,18.32-75.25-12.23,0,0-39.37.08-37.86-43.13.24-6.73,2.02-13.97,5.3-21.48,7.87,25.52,35.49,25.56,35.73,25.56,25.87,30.54,75.25,12.23,75.25,12.23,36.4,28.17,77.62,11.67,98.04-.08,11.79-6.8,49.77-20.81,56.62-23.98-8.55,9.89-4.35,21.44,1.42,25.16,27.26,17.37,62.43-3.68,86.29-13.33,23.9-9.65,68.21-74.38-47.99-113.43,21.44,5.66,40.24,13.1,55.47,21.68l60.73-34.46Z"/>
        <path class="cls-4" d="M1097.81,2967.08c-1.53,54.01-5.52,116.5-46.59,157.36-10.7,10.35-23.88,17.65-37.63,23.01-17.9,7.75-38.92,18.31-60.44,19.45-26.73,2.43-54.31-15.83-58.95-43.49,0,0,20.86,10.98,20.86,10.98-3.75,1.89-11.56,6.16-15.59,8.5,0,0-16.38,9.43-16.38,9.43-36.89,24-86.03,33.42-122.98,3.87,0,0,14.26,2.18,14.26,2.18-15.43,5.16-30.15,7.29-46.44,5.93-16.7-1.37-34.3-9.15-45.31-22.5,0,0,11.36,5.26,11.36,5.26-36.03.11-58.21-28.98-54.32-63.71,10.46-64.88,82.66-105.59,140.83-120.06,76.34-18.7,176.7-7.47,241.72,38.09-37.7-14.75-77.61-20.47-117.61-21.59-57.85-1.73-117.49,6.59-168.05,36.01-27.54,16.29-62.19,44.77-63.74,76.71-.6,14.86,8.36,23.04,21.13,24.83,0,0,11.37,5.26,11.37,5.26,3.06,3.53,6.65,6.33,10.94,8.34,12,5.55,26.91,4.72,39.9,1.78,7.95-2.02,15.19-5.64,22.15-.03,26.91,21.84,63.32,11.21,89.9-6.09,5.49-3.17,19.66-11.33,25.05-14.29,2.95-1.61,5.61-3.1,9.37-4.9,7.33-3.5,16.11-.39,19.61,6.94.62,1.31,1.04,2.66,1.25,4.04,1.2,7.11,7.59,14.69,14.81,17.09,20.08,6.57,43.18-6.9,63.62-15.35,34.48-11.51,51.39-42.76,58.83-78.68,5.27-23.99,6.99-49.38,7.34-74.79.75-19.5,29.42-19.32,29.71.43h0Z"/>
        <path class="cls-4" d="M848.1,3029.18c-33.58,23.49-81.87,66.15-64.6,111.19,0,0-28.58,8.14-28.58,8.14-11.33-58.78,45.96-99.52,93.18-119.33h0Z"/>
        <path class="cls-4" d="M973.1,3049.1c-3.49,6.71-13.23,12.56-18.85,17.45-12.03,9.6-24.74,21.02-29.24,35.39-2.04,6.5-2.18,12.96-1.3,19.26,1.14,8.23-4.6,15.83-12.83,16.97-8.23,1.14-15.83-4.6-16.97-12.83-.15-12.09,5.05-24.36,11.49-33.98,11.23-16.02,28.19-24.44,45.13-31.24,6.61-2.96,17.4-5.74,22.57-11.02h0Z"/>
        <path class="cls-4" d="M778.99,3018.61c-29.5,19.64-59.1,46.44-69.5,80.87-2.85,10.28-3.17,20.81-.76,30.97,1.81,8.05-3.25,16.04-11.3,17.85-8.05,1.81-16.04-3.25-17.85-11.29-1.09-8.47.11-17.23,1.75-25.41,11.8-46.9,55.84-75.68,97.66-92.98h0Z"/>
      </g>
      <g>
        <g>
          <path class="cls-6" d="M1135.48,2553c53.09,131.66,27.37,319.7,35.66,445.92,2.23,33.92,31.2,41.81,40.53,64.51,4.14,10.08,20.07,22.5,26.26,29.71,15.94,18.58,234.97-66.48,253.83-106.08,82.86-215.82,104.85-527.41,66.7-700.75"/>
          <path class="cls-6" d="M1171.14,2998.94c2.22,33.91,31.22,41.78,40.51,64.49,4.15,10.09,20.1,22.51,26.27,29.71,15.94,18.6,234.97-66.47,253.84-106.07,1.66-4.35,3.28-8.7,4.91-13.14,71.35-194.77,94.76-461.15,70.82-635.9-.63-4.63-1.28-9.2-1.98-13.7-.04-.04-.04-.08,0-.12-.87-5.62-1.78-11.2-2.81-16.62-1.31-7.32-2.73-14.4-4.23-21.25v-.04l-259.42,163.6-163.56,103.1c53.1,131.63,27.34,319.68,35.65,445.93Z"/>
          <path class="cls-19" d="M1576.76,3059.75c0-.59-.04-1.27-.04-1.86h-.04c-2.37,1.58-2.18,2.18.08,1.86Z"/>
          <path class="cls-19" d="M1171.14,2998.94c2.22,33.91,31.22,41.78,40.51,64.49,4.15,10.09,20.1,22.51,26.27,29.71,15.94,18.6,234.97-66.47,253.84-106.07,1.66-4.35,3.28-8.7,4.91-13.14-108.92-72.32-245.57,17.96-256.46-39.09-13.29-70.34-10.44-143.66,126.72-211.79,64.45-32.09,168.07-76.87,206.84-148.48,5.18-91.47,2.65-179.34-8.27-250.24-.04-.04-.04-.08,0-.12-.91-5.66-1.82-11.2-2.81-16.62-1.31-7.32-2.73-14.4-4.23-21.25l-259.42,163.56-163.56,103.1c53.1,131.63,27.34,319.68,35.65,445.93Z"/>
          <path class="cls-4" d="M1248,3110.62c-8.09,0-16.11-1.7-21.35-7.81-1.47-1.72-4.19-4.32-7.07-7.07-8.26-7.9-17.62-16.85-21.65-26.67-2.53-6.15-7.88-11.43-14.07-17.53-11.5-11.35-25.83-25.47-27.54-51.64-2.51-38.25-1.96-81.62-1.37-127.55,1.35-105.09,2.88-224.19-33.25-313.79-3.07-7.61.61-16.27,8.22-19.34,7.61-3.08,16.26.61,19.34,8.22,38.36,95.13,36.79,217.41,35.41,325.29-.58,45.32-1.13,88.13,1.3,125.21.98,14.9,8.83,22.64,18.76,32.44,7.43,7.33,15.85,15.63,20.68,27.4,1.64,3.99,9.82,11.82,14.71,16.49,2.44,2.33,4.78,4.57,6.8,6.69,12.4.87,58.35-10.72,120.16-36.47,72.96-30.4,106.14-54.37,111.07-63.43,85.51-223.28,100.76-532.69,65.8-691.55-1.76-8.02,3.31-15.94,11.32-17.7,7.99-1.76,15.94,3.3,17.71,11.32,41.18,187.13,10.97,505.31-67.34,709.27-.14.36-.29.72-.46,1.07-20.91,43.88-193.63,109.35-246.01,116.31-3.55.47-7.36.85-11.17.85Z"/>
        </g>
        <path class="cls-18" d="M1329.58,2872.54c-85.05,0-156.67-14.05-162.17-15.16l4.39-21.85c2.44.49,245.89,48.19,365.51-32.82l12.5,18.45c-59.71,40.43-145.2,51.38-220.23,51.38Z"/>
        <path class="cls-6" d="M1169.74,2966.92c1.3,118.08,36.56,151.24,71.38,165.28,23.86,9.62,59,30.69,86.26,13.3,5.82-3.71,14.42-12.74,16.46-24.6,6.86,3.16,29.8,16.63,41.61,23.43,20.4,11.75,61.66,28.25,98.03.11,0,0,49.38,18.31,75.24-12.24,0,0,39.35.07,37.85-43.15-1.59-45.76-74.97-116.02-195.4-121.1-69.21-2.92-131.77,11.47-170.7,33.43"/>
        <path class="cls-6" d="M1169.72,2966.93c1.31,118.06,36.6,151.21,71.41,165.26,23.86,9.61,58.99,30.7,86.25,13.29,5.82-3.72,14.4-12.74,16.46-24.57,6.84,3.13,29.79,16.62,41.62,23.42,20.38,11.75,61.64,28.25,98,.08,0,0,49.38,18.32,75.25-12.23,0,0,39.37.08,37.86-43.13-.24-6.73-2.02-13.97-5.3-21.48-18.87-43.52-87.36-95.31-190.11-99.62-42.02-1.78-81.58,2.81-114.85,11.63-.16.04-.28.08-.4.12-21.44,5.66-40.24,13.1-55.47,21.68l-60.73-34.46Z"/>
        <path class="cls-19" d="M1169.72,2966.93c1.31,118.06,36.6,151.21,71.41,165.26,23.86,9.61,58.99,30.7,86.25,13.29,5.82-3.72,14.4-12.74,16.46-24.57,6.84,3.13,29.79,16.62,41.62,23.42,20.38,11.75,61.64,28.25,98,.08,0,0,49.38,18.32,75.25-12.23,0,0,39.37.08,37.86-43.13-.24-6.73-2.02-13.97-5.3-21.48-7.87,25.52-35.49,25.56-35.73,25.56-25.87,30.54-75.25,12.23-75.25,12.23-36.4,28.17-77.62,11.67-98.04-.08-11.79-6.8-49.77-20.81-56.62-23.98,8.55,9.89,4.35,21.44-1.42,25.16-27.26,17.37-62.43-3.68-86.29-13.33-23.9-9.65-68.21-74.38,47.99-113.43-21.44,5.66-40.24,13.1-55.47,21.68l-60.73-34.46Z"/>
        <path class="cls-4" d="M1184.59,2966.75c1.65,55.8,5.7,132.47,66.17,153.37,22.79,9.05,54.06,28.61,73.29,8.57,2.84-3.35,4.61-7.07,5.18-10.54,1.4-8,9.02-13.36,17.02-11.96,7.7,2.13,14.83,7.38,21.64,10.87,0,0,16.58,9.55,16.58,9.55,26.58,17.3,63.01,27.93,89.9,6.08,4.21-3.24,9.6-3.89,14.26-2.18,4.64,1.61,11.27,3.11,16.47,3.78,15.13,2.03,32.09.38,42.27-11.69,0,0,11.37-5.26,11.37-5.26,12.7-1.8,21.77-9.96,21.13-24.83-2.99-40.85-53.2-73.83-89.1-89.37-63.24-26.79-134.83-28.04-202.05-17.67-19.73,3.32-39.19,8.42-58.26,15.91,79.89-55.86,216.83-62.75,302.11-14.8,33.98,18.78,67.81,47.5,78.65,86.98,9.49,37.22-11.88,73.6-52.53,73.5,0,0,11.37-5.26,11.37-5.26-22.39,26.6-61.25,27.02-91.75,16.57,0,0,14.26-2.18,14.26-2.18-23.24,19.06-57.79,23.03-85.57,13.69-18.92-5.39-36.76-17.46-53.79-26.99-4-2.38-11.8-6.6-15.59-8.5,0,0,20.87-10.98,20.87-10.98-4.62,27.65-32.23,45.93-58.95,43.49-23.42-1.31-44.95-13.07-64.76-21.25-69.74-27.58-78.91-113.7-79.89-178.57.29-19.65,29-20.04,29.71-.33h0Z"/>
        <path class="cls-4" d="M1404.59,3029.18c47.2,19.79,104.53,60.57,93.18,119.33,0,0-28.58-8.14-28.58-8.14,17.26-45.05-30.98-87.67-64.6-111.19h0Z"/>
        <path class="cls-4" d="M1279.59,3049.1c5.14,5.26,15.97,8.04,22.57,11.02,16.94,6.8,33.91,15.21,45.13,31.24,8.21,12.36,21.58,41.77-1.09,46.78-8.21,1.28-15.9-4.34-17.18-12.55-.21-7.96,1.62-15.57-1.34-23.65-4.5-14.38-17.2-25.78-29.24-35.39-5.62-4.89-15.32-10.71-18.85-17.45h0Z"/>
        <path class="cls-4" d="M1473.7,3018.61c41.81,17.29,85.87,46.08,97.66,92.98,2.57,13.41,6.8,36.51-13.18,37.07-9.31-.11-16.35-9.16-14.22-18.21,2.41-10.16,2.09-20.69-.76-30.97-10.41-34.43-39.99-61.22-69.5-80.87h0Z"/>
      </g>
      <g class="cls-12">
        <path class="cls-15" d="M2129.91,970.07c0,527.55-322.69,852.26-1003.27,852.26S123.38,1513.73,123.38,970.07,572.56,14.86,1126.64,14.86s1003.27,427.66,1003.27,955.21Z"/>
      </g>
      <g class="cls-11">
        <path class="cls-15" d="M1126.64,1779.39c-637.22,0-960.32-272.29-960.32-809.31,0-253.56,99.51-486.02,280.2-654.56C624.68,149.33,866.22,57.8,1126.64,57.8c529.52,0,960.32,409.24,960.32,912.27,0,529.46-332.07,809.31-960.32,809.31Z"/>
      </g>
      <g class="cls-11">
        <path class="cls-21" d="M2086.95,970.06c0,529.46-332.05,809.33-960.31,809.33S166.33,1507.1,166.33,970.06c0-62.37,6.02-123.49,17.8-182.69,75.59,402.03,391.69,605.51,942.52,605.51s862.72-207.76,941.3-603.88c12.46,58.55,19.01,119.1,19.01,181.06Z"/>
      </g>
      <path class="cls-19" d="M1509.38,1775.99c-85.88,56.89-225.29,93.88-382.77,93.88s-297.25-37.08-383.08-94.1c47.41-20.93,93.39-36.01,132.93-42.98l211.96-60.83h75.54l211.91,60.83c39.72,7.02,85.92,22.14,133.51,43.21Z"/>
      <path class="cls-19" d="M1493.97,1785.66c-43.16,25.6-97.68,46.57-159.88,61.17l-30.78-111.73c59.98,3.13,125.66,21.88,190.66,50.56Z"/>
      <path class="cls-6" d="M1541.36,2587.64s-34.35,34.35-106.36,71.16c-66.28,33.9-113.11,48.71-113.11,48.71,0,0-88.69,34.53-195.54,34.53s-195.54-34.53-195.54-34.53c0,0-46.83-14.8-113.16-48.71-72.01-36.81-106.32-71.16-106.32-71.16-127.47-127.02-56.44-386.8,14.18-562.66,5.01-12.52,10.02-24.64,14.98-36.23,36.23-85.02,68.52-142.86,68.52-142.86,0,0,171.97-209.87,317.34-209.87s317.34,209.87,317.34,209.87c0,0,32.25,57.83,68.48,142.86,4.83,11.32,9.75,23.12,14.72,35.38,70.71,175.87,142.19,436.31,14.49,563.51Z"/>
      <path class="cls-6" d="M1541.36,2587.64s-34.35,34.35-106.36,71.16c-66.28,33.9-113.11,48.71-113.11,48.71,0,0-88.69,34.53-195.54,34.53s-195.54-34.53-195.54-34.53c0,0-46.83-14.8-113.16-48.71-72.01-36.81-106.32-71.16-106.32-71.16-127.47-127.02-56.44-386.8,14.18-562.66,5.01-12.52,10.02-24.64,14.98-36.23,36.23-85.02,68.52-142.86,68.52-142.86,0,0,171.97-209.87,317.34-209.87s317.34,209.87,317.34,209.87c0,0,32.25,57.83,68.48,142.86,4.83,11.32,9.75,23.12,14.72,35.38,70.71,175.87,142.19,436.31,14.49,563.51Z"/>
      <path class="cls-19" d="M1541.36,2587.64s-34.35,34.35-106.36,71.16c-66.28,33.9-113.11,48.71-113.11,48.71,0,0-88.69,34.53-195.54,34.53s-195.54-34.53-195.54-34.53c0,0-46.83-14.8-113.16-48.71-72.01-36.81-106.32-71.16-106.32-71.16-57.38-57.21,94.76,73.2,415.02,73.2s472.4-130.4,415.02-73.2Z"/>
      <path class="cls-19" d="M1428.79,1817.36c-81.89,32.78-187.27,52.51-302.17,52.51s-220.68-19.77-302.62-52.69c41.37-75.54,163.3-274.08,302.35-274.08s261.2,198.85,302.44,274.26Z"/>
      <path class="cls-4" d="M1321.89,2707.51c-103.89,58.2-234.6,63.89-345.29,21.75-15.74-6.21-31.32-12.88-45.8-21.75,65.36,10.84,129.88,19.43,195.54,19.67,65.67-.24,130.17-8.83,195.55-19.67h0Z"/>
      <path class="cls-4" d="M1443.91,1845.87c74.29,109.96,130.04,233.16,159.29,362.87,23.4,97.13,42.11,204.31,1.25,299.71-13.82,31.47-35.08,60.22-62.82,79.17,38.43-54.92,51.77-117.29,53.7-180.68,3.06-96.68-16.76-193.46-49.1-284.52-30.24-90.54-65.65-188.4-102.32-276.56h0Z"/>
      <path class="cls-4" d="M809.02,1845.87c-36.62,88.01-72.11,186.09-102.32,276.56-32.35,91.05-52.17,187.84-49.1,284.52,1.93,63.38,15.27,125.75,53.7,180.68-27.74-18.95-49-47.7-62.82-79.17-40.86-95.42-22.14-202.58,1.25-299.71,29.25-129.71,85-252.92,159.29-362.87h0Z"/>
      <path class="cls-4" d="M1329.6,2872.54c-85.05,0-156.67-14.05-162.17-15.16l4.39-21.85c2.44.49,245.89,48.19,365.51-32.82l12.5,18.45c-59.71,40.43-145.2,51.38-220.23,51.38Z"/>
      <path class="cls-6" d="M879.1,2403.79s-173.73,4.05-237.95-44.16c-41.11-38.91-18.07-99.22,16.24-117.71,59.5,21.29,160.3,24.66,239.43,24.66h459.32c79.12,0,179.93-3.36,239.42-24.66,34.31,18.49,57.35,78.8,16.24,117.71-64.22,48.22-237.95,44.16-237.95,44.16h-494.75Z"/>
      <path class="cls-19" d="M1611.78,2359.61c-64.21,48.23-237.94,44.19-237.94,44.19h-494.75s-173.73,4.04-237.94-44.19c-22.95-21.72-25.91-50.13-18.12-74.18,3.44,9.69,9.3,19.03,18.12,27.38,64.21,48.23,237.94,44.15,237.94,44.15h494.75s173.73,4.08,237.94-44.15c8.82-8.35,14.68-17.69,18.12-27.38,7.79,24.06,4.87,52.46-18.12,74.18Z"/>
      <path class="cls-4" d="M1384.84,2418.75c-6.35,0-10.36-.08-11.34-.11l.69-29.71c1.67.03,168.05,3.34,228-40.68,16.37-15.89,17.86-34.08,16.2-46.6-2.27-17.12-12.13-34.09-24.76-43.39-64.47,20.71-165.82,23.18-237.5,23.18v-29.72c113.01,0,189.69-7.78,234.42-23.79,3.96-1.42,8.34-1.09,12.05.91,23.63,12.73,41.39,39.78,45.25,68.91,3.66,27.62-5.51,53.43-25.84,72.67-.41.39-.84.75-1.29,1.09-58.43,43.87-195.23,47.24-235.87,47.24Z"/>
      <path class="cls-4" d="M868.1,2418.75c-40.63,0-177.44-3.37-235.87-47.24-.45-.34-.88-.7-1.29-1.09-20.33-19.24-29.5-45.05-25.84-72.68,3.86-29.13,21.63-56.17,45.25-68.9,3.71-2,8.1-2.32,12.05-.91,44.73,16.01,121.41,23.79,234.42,23.79v29.72c-71.69,0-173.04-2.46-237.5-23.18-12.63,9.3-22.49,26.27-24.76,43.39-1.66,12.52-.17,30.71,16.2,46.61,59.96,44.02,226.32,40.72,228,40.68l.69,29.71c-.99.02-5,.11-11.34.11Z"/>
      <g>
        <path class="cls-6" d="M1368.18,2509.65c-161.77,14.19-321.66,14.18-483.43,0-29.68-2.94-53.9-30.65-53.9-60.84v-247.23c0-30.19,24.22-57.9,53.9-60.84,161.76-14.19,321.66-14.19,483.43,0,29.68,2.94,53.9,30.65,53.9,60.84v247.23c0,30.19-24.22,57.9-53.9,60.84Z"/>
        <path class="cls-6" d="M1126.48,2488.64c-78.96,0-159.36-3.54-238.96-10.52-12.92-1.28-25.01-15.27-25.01-29.31v-247.23c0-14.04,12.09-28.02,25.37-29.34,79.23-6.95,159.63-10.49,238.59-10.49s159.36,3.54,238.95,10.52c12.92,1.28,25.01,15.27,25.01,29.3v247.23c0,14.04-12.09,28.02-25.37,29.34-79.22,6.95-159.61,10.49-238.58,10.49Z"/>
      </g>
      <path class="cls-4" d="M1126.47,2535.2c-80.62,0-161.25-3.59-243.02-10.76-37.27-3.69-67.46-37.61-67.46-75.63v-247.23c0-38.02,30.19-71.94,67.3-75.62,163.69-14.35,322.68-14.35,486.19-.01,37.27,3.69,67.46,37.62,67.46,75.64v247.23c0,38.02-30.19,71.95-67.29,75.62-.05,0-.11,0-.17.01-81.76,7.17-162.38,10.76-243.01,10.76ZM1126.51,2144.9c-79.77,0-159.54,3.54-240.45,10.64-21.79,2.16-40.34,23.25-40.34,46.04v247.23c0,22.79,18.55,43.87,40.51,46.05,161.6,14.17,318.84,14.17,480.58,0,21.92-2.22,40.42-23.28,40.42-46.04v-247.23c0-22.79-18.55-43.87-40.5-46.05-80.78-7.08-160.49-10.62-240.21-10.62Z"/>
      <path class="cls-4" d="M1126.64,1837.19c-337.46,0-595.39-76.02-766.63-225.94-166.88-146.1-251.49-361.82-251.49-641.18S214.56,452.84,407.1,273.24C595.99,97.04,851.54,0,1126.64,0c561.4,0,1018.12,435.17,1018.12,970.07,0,273.33-84.59,486.99-251.41,635.07-173.47,153.97-431.43,232.05-766.71,232.05ZM1126.64,29.72c-563.48,0-988.4,404.27-988.4,940.36,0,270.42,81.2,478.62,241.35,618.83,165.66,145.04,417.01,218.58,747.06,218.58,646.62,0,988.41-289.57,988.41-837.4,0-518.52-443.4-940.36-988.41-940.36Z"/>
      <path class="cls-19" d="M1390.42,2365.55v83.28c0,14.01-12.07,28.01-25.36,29.32-79.21,6.96-159.6,10.48-238.57,10.48s-159.36-3.52-238.97-10.52c-12.94-1.27-25-15.27-25-29.28v-83.28c0,14.01,12.07,28.01,25,29.28,79.6,7,160,10.52,238.97,10.52,24.04,0,48.22-.33,72.45-.99,12.03-.33,21.59-10.24,21.59-22.27v-53.6c0-32.33,24.83-60.16,57.12-61.7,34.49-1.65,63,25.86,63,60.03v45.88c0,13.05,11.17,23.34,24.17,22.2.08,0,.16-.01.24-.02,13.29-1.31,25.36-15.31,25.36-29.32Z"/>
      <circle class="cls-7" cx="1280.57" cy="2326.8" r="60.06" transform="translate(-1270.22 1587) rotate(-45)"/>
      <path class="cls-7" d="M1280.57,2371.03c-24.4,0-44.24-19.84-44.24-44.24s19.84-44.24,44.24-44.24,44.24,19.84,44.24,44.24-19.84,44.24-44.24,44.24Z"/>
      <path class="cls-16" d="M1324.82,2326.81c0,24.37-19.86,44.23-44.23,44.23s-44.23-19.86-44.23-44.23c0-3.92.51-7.72,1.46-11.35,5.06,18.87,22.31,32.84,42.77,32.84s37.7-13.97,42.73-32.84c.99,3.64,1.5,7.44,1.5,11.35Z"/>
      <path class="cls-4" d="M1280.57,2398c-39.26,0-71.21-31.94-71.21-71.21s31.94-71.21,71.21-71.21,71.21,31.94,71.21,71.21-31.94,71.21-71.21,71.21ZM1280.57,2277.87c-26.97,0-48.92,21.95-48.92,48.92s21.95,48.92,48.92,48.92,48.92-21.95,48.92-48.92-21.95-48.92-48.92-48.92Z"/>
      <path class="cls-4" d="M1132.02,2520.29h-29.72v-116.97c0-27.67-18.64-52.08-45.33-59.37l-32.37-8.84c-39.58-10.81-67.23-47.01-67.23-88.03v-112.63h29.72v112.63c0,27.67,18.64,52.08,45.33,59.37l32.37,8.84c39.58,10.81,67.22,47.01,67.22,88.03v116.97Z"/>
      <g>
        <g>
          <path class="cls-1" d="M483.47,1108.71s-41.83-121.76-176.51-99.91c-129.36,20.99-167.11,156.03-136.97,248.09,31.67,96.73,92.28,141.1,173.88,152.77,85.24,12.19,166.6-20.82,166.6-20.82l-27.01-280.14Z"/>
          <path class="cls-1" d="M510.49,1388.84s-81.38,33.02-166.59,20.84c-61.32-8.75-110.81-36.02-144.99-90.05-11.38-17.88-21.05-38.69-28.89-62.74-30.18-92.05,7.59-227.08,136.95-248.09,134.7-21.84,176.51,99.89,176.51,99.89l7.92,82.29,19.09,197.85Z"/>
          <path class="cls-10" d="M510.49,1388.84s-81.38,33.02-166.59,20.84c-61.32-8.75-110.81-36.02-144.99-90.05,17.18,3,37.6,1.75,45.94-17.51,7.88-18.13-11.2-49.92-7.84-110.89,3.59-64.92,125.06-145.45,254.38-.25l19.09,197.85Z"/>
          <path class="cls-17" d="M383.4,1427.25c-13.54,0-27.5-.85-41.62-2.87-93.58-13.38-154.39-66.66-185.9-162.86-19.56-59.75-11.77-129.63,20.33-182.38,28.35-46.57,72.74-75.97,128.38-85,145.4-23.6,192.48,108.41,192.94,109.74l.57,1.66.17,1.75,28.07,291.16-10.27,4.16c-2.92,1.18-61.68,24.63-132.67,24.63ZM338.21,1021.06c-9.05,0-18.65.76-28.86,2.41-46.8,7.6-84.06,32.19-107.75,71.11-27.29,44.85-34.16,106.74-17.48,157.68,28.02,85.56,79.45,130.9,161.87,142.69,62.94,9,124.73-8.27,148.6-16.2l-25.71-266.72c-4.82-12.53-38.69-90.99-130.66-90.99Z"/>
          <path class="cls-4" d="M383.4,1427.25c-13.54,0-27.5-.85-41.62-2.87-93.58-13.38-154.39-66.66-185.9-162.86-19.56-59.75-11.77-129.63,20.33-182.38,28.35-46.57,72.74-75.97,128.38-85,145.4-23.6,192.48,108.41,192.94,109.74l.57,1.66.17,1.75,28.07,291.16-10.27,4.16c-2.92,1.18-61.68,24.63-132.67,24.63ZM338.21,1021.06c-9.05,0-18.65.76-28.86,2.41-46.8,7.6-84.06,32.19-107.75,71.11-27.29,44.85-34.16,106.74-17.48,157.68,28.02,85.56,79.45,130.9,161.87,142.69,62.94,9,124.73-8.27,148.6-16.2l-25.71-266.72c-4.82-12.53-38.69-90.99-130.66-90.99Z"/>
          <path class="cls-8" d="M239.65,1246.82c32.3,103.87,219.9,129.41,238.16,13.19v-37.1c-43.28-164.9-231.92-167.16-240.78-31.68,0,0-.52,12.16,0,27.1.47,13.37,2.62,28.49,2.62,28.49Z"/>
          <path class="cls-8" d="M477.8,1222.92v37.1c-18.26,116.19-205.86,90.67-238.16-13.22,0,0-2.13-15.09-2.63-28.47-.5-14.92,0-27.1,0-27.1.33-4.92.88-9.67,1.71-14.22,1-6.17,2.46-12.01,4.34-17.51,34.02-102.18,195.18-87.42,234.75,63.41Z"/>
          <path class="cls-5" d="M477.8,1222.92v37.1c-18.26,116.19-205.86,90.67-238.16-13.22,0,0-2.13-15.09-2.63-28.47-.5-14.92,0-27.1,0-27.1.33-4.92.88-9.67,1.71-14.22,0,0-.21,84.63,68.37,79.62,67.7-4.96,77.71-88.59,44.77-115.1-61.78-49.65-108.76,17.97-108.76,17.97h-.04c34.02-102.18,195.18-87.42,234.75,63.41Z"/>
          <path class="cls-4" d="M239.65,1246.82c35.21,88.53,205.41,114.04,223.48,13.19,0,0-.15-37.09-.15-37.09l.49,3.76c-7.14-27.21-19.26-52.92-37.01-73.91-33.94-41.88-97.92-64.77-146.22-33.78-11.66,7.44-21.51,18.03-28.69,30.56-7.26,12.51-11.83,26.84-14.51,41.69-3.32-49.17,28.56-95.48,78.18-105.27,85.85-18.15,161.88,57.12,177.44,136.95,0,0-.15,37.09-.15,37.09-19.65,135.03-229.26,101.78-252.84-13.19h0Z"/>
          <g>
            <path class="cls-1" d="M472.31,1304.06c-25.27-6.51-70.05-30.98-70.2-67.86-.19-50.17,67.16-50.17,67.16-50.17"/>
            <path class="cls-4" d="M469.52,1314.85c-30.28-7.81-78.39-36.05-78.55-78.6-.06-15.4,5.1-28.41,15.32-38.68,22.34-22.43,61.33-22.69,62.98-22.69v22.29c-2.27,0-56.16.67-56.02,38.99.11,28.11,36.96,50.69,61.84,57.1l-5.57,21.58Z"/>
          </g>
        </g>
        <g>
          <path class="cls-1" d="M1769.22,1108.71s41.83-121.76,176.51-99.91c129.36,20.99,167.11,156.03,136.97,248.09-31.67,96.73-92.28,141.1-173.88,152.77-85.24,12.19-166.6-20.82-166.6-20.82l27.01-280.14Z"/>
          <path class="cls-1" d="M1742.21,1388.84s81.38,33.02,166.59,20.84c61.32-8.75,110.81-36.02,144.99-90.05,11.38-17.88,21.05-38.69,28.89-62.74,30.18-92.05-7.59-227.08-136.95-248.09-134.7-21.84-176.51,99.89-176.51,99.89l-7.92,82.29-19.09,197.85Z"/>
          <path class="cls-10" d="M1742.21,1388.84s81.38,33.02,166.59,20.84c61.32-8.75,110.81-36.02,144.99-90.05-17.18,3-37.6,1.75-45.94-17.51-7.88-18.13,11.2-49.92,7.84-110.89-3.59-64.92-125.06-145.45-254.38-.25l-19.09,197.85Z"/>
          <path class="cls-17" d="M1869.29,1427.25c-71,0-129.75-23.44-132.67-24.63l-10.27-4.16,28.24-292.91.57-1.66c.46-1.33,47.66-133.34,192.94-109.74,55.64,9.03,100.03,38.42,128.38,85,32.1,52.75,39.89,122.63,20.33,182.38-31.5,96.2-92.31,149.47-185.9,162.86-14.12,2.02-28.09,2.87-41.62,2.87ZM1758.11,1378.76c23.86,7.93,85.64,25.21,148.6,16.2,82.41-11.79,133.85-57.13,161.87-142.69,16.68-50.94,9.82-112.84-17.48-157.68-23.69-38.93-60.95-63.52-107.75-71.11-113.97-18.5-154.23,74.8-159.53,88.57l-25.71,266.72Z"/>
          <path class="cls-4" d="M1869.29,1427.25c-71,0-129.75-23.44-132.67-24.63-6.09-2.47-9.83-8.65-9.2-15.19l27.01-280.14c.11-1.16.36-2.3.74-3.4.46-1.33,47.66-133.34,192.94-109.74,55.64,9.03,100.03,38.42,128.38,85,32.1,52.75,39.89,122.63,20.33,182.38-31.5,96.2-92.31,149.47-185.9,162.86-14.12,2.02-28.09,2.87-41.62,2.87ZM1758.11,1378.76c23.86,7.93,85.64,25.21,148.6,16.2,82.41-11.79,133.85-57.13,161.87-142.69,16.68-50.94,9.82-112.84-17.48-157.68-23.69-38.93-60.95-63.52-107.75-71.11-113.97-18.5-154.23,74.8-159.53,88.57l-25.71,266.72Z"/>
          <path class="cls-8" d="M2013.05,1246.82c-32.3,103.87-219.9,129.41-238.16,13.19v-37.1c43.28-164.9,231.92-167.16,240.78-31.68,0,0,.52,12.16,0,27.1-.47,13.37-2.62,28.49-2.62,28.49Z"/>
          <path class="cls-8" d="M1774.89,1222.92v37.1c18.26,116.19,205.86,90.67,238.16-13.22,0,0,2.13-15.09,2.63-28.47.5-14.92,0-27.1,0-27.1-.33-4.92-.88-9.67-1.71-14.22-1-6.17-2.46-12.01-4.34-17.51-34.02-102.18-195.19-87.42-234.75,63.41Z"/>
          <path class="cls-5" d="M1774.89,1222.92v37.1c18.26,116.19,205.86,90.67,238.16-13.22,0,0,2.13-15.09,2.63-28.47.5-14.92,0-27.1,0-27.1-.33-4.92-.88-9.67-1.71-14.22,0,0,.21,84.63-68.37,79.62-67.7-4.96-77.71-88.59-44.77-115.1,61.78-49.65,108.76,17.97,108.76,17.97h.04c-34.02-102.18-195.19-87.42-234.75,63.41Z"/>
          <path class="cls-4" d="M2013.05,1246.82c-23.59,114.97-233.2,148.21-252.85,13.19,0,0-.15-37.09-.15-37.09,15.55-79.82,91.6-155.11,177.44-136.95,49.59,9.81,81.51,56.09,78.17,105.27-2.68-14.85-7.24-29.18-14.5-41.69-7.18-12.53-17.03-23.12-28.69-30.56-48.31-30.98-112.27-8.1-146.22,33.78-17.76,20.99-29.88,46.7-37.01,73.91l.49-3.76-.15,37.09c18.08,100.86,188.27,75.34,223.48-13.19h0Z"/>
          <g>
            <path class="cls-1" d="M1780.38,1304.06c25.27-6.51,70.05-30.98,70.2-67.86.19-50.17-67.16-50.17-67.16-50.17"/>
            <path class="cls-4" d="M1783.17,1314.85l-5.57-21.58c24.87-6.41,61.73-28.99,61.84-57.11.15-38.32-53.75-38.98-56.04-38.99l.02-22.29c1.65,0,40.63.26,62.98,22.69,10.22,10.26,15.38,23.28,15.32,38.67-.16,42.56-48.27,70.8-78.55,78.6Z"/>
          </g>
        </g>
        <g class="cls-13">
          <path class="cls-6" d="M1779.55,1307.8c-2.07-1.03-4.14-2.02-6.29-2.97,20.03-30.23,36.18-65.92,48.52-104.58-10.4,38.91-24.43,75.59-42.23,107.55Z"/>
        </g>
        <path class="cls-2" d="M1126.18,1779.39c546.58-32.36,716.18-225.55,736.84-350.89,13.45-81.58-15.83-147.13-73.97-187.08,213.03-494.82-117.3-895.66-662.93-895.66S250.16,746.6,463.19,1241.42c-58.14,39.94-87.42,105.5-73.97,187.08,20.66,125.34,190.26,318.53,736.84,350.89h.12Z"/>
        <path class="cls-20" d="M1863.04,1428.49c-20.67,125.35-190.27,318.53-736.86,350.89h-.12c-546.58-32.36-716.18-225.54-736.85-350.89-4.93-30.05-4.09-57.92,1.86-83.16,10.19-43.24,35.39-78.67,72.12-103.91-213.04-494.81,117.3-895.66,662.91-895.66s875.96,400.85,662.96,895.66c36.61,25.2,61.81,60.47,72.04,103.55,6.03,25.32,6.92,53.35,1.94,83.53Z"/>
        <g class="cls-13">
          <path class="cls-6" d="M1854.02,967.41c-12.05-338.19-305.43-578.5-727.92-578.5s-715.86,240.31-727.87,578.46c-12.42-360.68,287.67-621.62,727.87-621.62s740.33,260.93,727.92,621.66Z"/>
        </g>
        <path class="cls-9" d="M1863.04,1428.49c-20.67,125.35-190.27,318.53-736.86,350.89h-.12c-546.58-32.36-716.18-225.54-736.85-350.89-4.93-30.05-4.09-57.92,1.86-83.16,64.68,66.46,198,82.92,734.83-74.75,537.85,157.95,670.64,141.13,735.2,74.39,6.03,25.32,6.92,53.35,1.94,83.53Z"/>
        <path class="cls-4" d="M1126.18,1794.25h-.12c-.29,0-.59,0-.88-.03-514.29-30.45-724.96-207.64-750.62-363.31-13.08-79.34,12.5-149.53,70.37-194.53-91.87-221.01-81.31-435.29,30.08-604.52,125.89-191.26,363.22-300.96,651.12-300.96s525.22,109.69,651.11,300.96c111.39,169.23,121.95,383.51,30.08,604.52,57.86,45,83.45,115.2,70.37,194.53-25.66,155.67-236.33,332.86-750.62,363.31-.29.02-.59.03-.88.03ZM1126.12,360.62c-277.72,0-506,104.82-626.3,287.58-107.54,163.39-115.7,371.98-22.98,587.35,2.8,6.51.61,14.1-5.23,18.12-55.69,38.26-79.75,99.49-67.73,172.41,6.93,42.05,37.48,123.94,164.19,200,129.13,77.5,316.86,124.08,558.06,138.44,241.19-14.36,428.93-60.93,558.05-138.44,126.71-76.06,157.26-157.95,164.19-200,12.02-72.92-12.04-134.15-67.73-172.41-5.84-4.02-8.04-11.61-5.23-18.12,92.72-215.38,84.56-423.97-22.98-587.35-120.3-182.76-348.57-287.58-626.29-287.58Z"/>
        <path class="cls-2" d="M1363.51,415.52c26.97-38.43,108.03-33.54,89.32-64.38-37.54-61.9-185.58-27.43-183.37-37.24,17.53-78.03-11.79-136.68-47.18-128.93-10.49,2.3-106.26,101.81-246.48,153.04-55.8,20.39-107.86,31.68-224.55,83.07l612.27-5.55Z"/>
        <path class="cls-20" d="M1363.5,415.53l-483.77,4.37-128.51,1.17c116.69-51.37,168.79-62.65,224.57-83.04,140.24-51.25,235.98-150.75,246.49-153.06,12.26-2.71,23.78,2.59,32.89,13.91,17.19,21.28,25.77,63.99,14.28,115-2.18,9.83,145.86-24.63,183.39,37.25,18.69,30.86-62.37,25.97-89.35,64.39Z"/>
        <g class="cls-13">
          <path class="cls-6" d="M1255.18,198.88c-33.09-32.6-53.88,57.84-146.91,117.5-93.03,59.66-231.88,103.54-231.88,103.54l-125.16,1.14c116.69-51.37,168.79-62.65,224.57-83.04,140.24-51.25,235.98-150.75,246.49-153.06,12.26-2.71,23.78,2.59,32.89,13.91Z"/>
        </g>
        <path class="cls-4" d="M1363.51,415.52c12.25-30.7,49.29-40.35,74.96-56.03,1.48-1.07,2.59-2.16,2.78-2.58.32-.58-.85.34-1.17,1.94-.35,1.6.05,2-.42,1.29-20.81-31.47-69.83-32.64-106.11-32.21-20.5-.03-42.13,3.37-62.8,2.42-9.33-.54-18.3-9.13-15.78-19.74.19-1.11.9-4.23,1.12-5.38,4.95-25.41,5.77-53.03-2.39-77.62-4.95-13.05-12.27-29.11-27.17-28.28,0,0-.98.14-.98.14,0,0-.23.04.02-.01.68-.15,2.25-.7,2.34-.81-4.67,3.02-14.75,11.74-19.36,15.42-79.97,68.33-174.33,124.99-276.77,154.5-19.91,6.44-39.58,12.9-59.09,19.86-39.02,13.83-77.41,29.54-115.47,46.25l-11.98-27.2c38.55-16.93,77.65-32.93,117.49-47.05,39.75-14.41,80.45-25.76,118.38-40.32,37.98-14.76,74.41-33.76,109.1-55.63,39.18-24.5,75.88-53.51,111.66-83.39,5.23-3.96,10.4-9.06,17.51-10.69,30.76-7.05,54.72,22,62.43,47.62,10.42,31.56,9.31,65.07,2.56,97.06,0,0-.43,2.04-.43,2.04.34-1.1.64-4.56-.33-7.29-.88-2.87-2.67-4.97-3.83-6.02-3.09-2.56-4.11-2.55-5.51-2.96,3.6.25,7.3-.02,11.14-.19,53.44-2.95,140-11.15,177.21,36.28,13.75,17.26,10.92,38.52-10.04,47.9-29.48,13.07-63.11,9.78-89.1,30.69h0Z"/>
        <path class="cls-1" d="M1125.94,1779.19c311.01,0,667.2-168.02,660.53-378.48-2.59-82.11-65.89-130.2-88.78-143.11,30.5-66.74,65.89-250.7-26.17-405.34-144.4-242.61-452.54-211.51-545.57,15.98h.17c-93.03-227.48-401.17-258.59-545.57-15.98-92.06,154.64-56.67,338.6-26.17,405.34-22.89,12.9-86.2,61-88.78,143.11-6.67,210.45,349.52,378.48,660.53,378.48h-.17Z"/>
        <path class="cls-10" d="M1126.1,1779.18h-.16c-310.97-.04-667.04-168.06-660.37-378.48.32-10.31,1.62-20.06,3.64-29.29,38.14,190.07,366.99,335.93,656.73,335.97h.16c289.73-.04,618.58-145.9,656.73-335.97,2.02,9.22,3.32,18.97,3.64,29.29,6.67,210.41-349.4,378.44-660.37,378.48Z"/>
        <path class="cls-4" d="M1126.11,1794.05h-.19c-228.64-.04-473.26-87.78-594.95-213.39-55.23-57.01-82.23-117.71-80.24-180.41,2.59-82.34,59.52-130.78,85.04-148.41-34.42-86.9-53.88-262.91,32-407.16,70.79-118.93,187.23-184.44,311.49-175.15,104.92,7.81,196.9,69.54,246.77,163.55,49.87-94.01,141.85-155.73,246.76-163.55,124.25-9.26,240.7,56.22,311.49,175.15,85.88,144.26,66.41,320.26,32,407.16,25.51,17.64,82.45,66.08,85.04,148.42,1.99,62.7-25,123.4-80.24,180.41-121.69,125.61-366.31,213.35-594.95,213.39h-.02ZM856.2,698.37c-104.9,0-202.02,59.2-262.9,161.5-94.38,158.52-48.82,340.36-25.42,391.56,3.21,7.02.5,15.33-6.22,19.12-3.21,1.81-78.54,45.22-81.23,130.63-1.72,54.36,22.46,107.79,71.88,158.8,116.55,120.31,352.46,204.33,573.71,204.35,221.25-.02,457.16-84.05,573.71-204.35,49.42-51.01,73.61-104.44,71.88-158.8-2.7-85.4-78.03-128.83-81.23-130.64-6.72-3.79-9.43-12.1-6.22-19.12,23.4-51.2,68.95-233.04-25.42-391.56-64.9-109.04-171.07-169.12-283.75-160.72-105.13,7.83-192.63,72.35-234.48,172.74-.41,1.63-1.1,3.2-2.07,4.64-2.76,4.11-7.38,6.58-12.33,6.58s-9.66-2.47-12.42-6.58c-.88-1.31-1.54-2.73-1.98-4.21-41.78-100.63-129.38-165.33-234.66-173.17-6.97-.52-13.93-.78-20.84-.78Z"/>
        <path class="cls-4" d="M1154.71,1309.5c-3.43,1.1-6.82-1.7-6.42-5.29,1.19-10.75,5.5-29.31,20.99-32.23,20.52-3.86,23.29,13.96,21.6,19.36-1.97,6.28-7.08,10.34-17.3,12.8-6.27,1.51-13.57,3.66-18.87,5.35Z"/>
        <path class="cls-4" d="M1098.23,1308.97c3.49.89,6.71-2.11,6.09-5.66-1.84-10.66-7.25-28.93-22.89-30.91-20.71-2.63-22.41,15.34-20.4,20.62,2.34,6.16,7.68,9.9,18.03,11.74,6.35,1.13,13.77,2.84,19.16,4.21Z"/>
        <ellipse class="cls-8" cx="635.34" cy="1314.87" rx="81.34" ry="44.31"/>
        <ellipse class="cls-8" cx="1616.9" cy="1314.87" rx="81.34" ry="44.31"/>
        <g>
          <ellipse class="cls-4" cx="874.27" cy="1185.83" rx="107.93" ry="124.64"/>
          <ellipse class="cls-6" cx="903.59" cy="1149.78" rx="35.19" ry="44.55"/>
          <g class="cls-14">
            <ellipse class="cls-6" cx="834.02" cy="1227.83" rx="19.49" ry="30.15"/>
          </g>
        </g>
        <g>
          <ellipse class="cls-4" cx="1380.07" cy="1185.83" rx="107.93" ry="124.64"/>
          <ellipse class="cls-6" cx="1350.75" cy="1149.78" rx="35.19" ry="44.55"/>
          <g class="cls-14">
            <ellipse class="cls-6" cx="1420.32" cy="1227.83" rx="19.49" ry="30.15"/>
          </g>
        </g>
        <g>
          <path class="cls-4" d="M1126.04,1586.25c203.42,0,224.84-218.29,224.84-218.29,0,0-68.9,69.98-224.84,69.98s-224.84-69.98-224.84-69.98c0,0,21.42,218.29,224.84,218.29Z"/>
          <path class="cls-8" d="M1266.71,1537.04c-32.81,28.6-78.13,49.22-140.67,49.22s-107.9-20.65-140.71-49.25c18.86-24.47,48.48-40.25,81.79-40.25,21.9,0,42.2,6.82,58.92,18.51,16.72-11.69,37.02-18.51,58.88-18.51,33.32,0,62.97,15.78,81.79,40.29Z"/>
          <path class="cls-4" d="M1126.04,1601.11c-214.41,0-239.4-229.38-239.63-231.7-.62-6.26,2.78-12.24,8.49-14.91,5.7-2.67,12.47-1.46,16.88,3.03.62.61,67.31,65.54,214.26,65.54s213.61-64.89,214.26-65.54c4.41-4.49,11.18-5.7,16.88-3.03,5.7,2.67,9.1,8.64,8.49,14.91-.22,2.32-25.21,231.7-239.63,231.7ZM922.95,1402.53c15.44,58.92,63.01,168.85,203.09,168.85,78.6,0,137.74-34.18,175.77-101.59,13.57-24.07,21.95-48.21,27.03-67.09-35.75,21.73-101.75,50.07-202.79,50.07s-167.41-28.51-203.09-50.25Z"/>
          <path class="cls-4" d="M1177.67,1497.02c-9.7,1.01-44.66,9.35-51.63,40.84-6.98-31.49-41.93-39.82-51.63-40.84l10.56-31.56,41.07,11.65,41.07-11.65,10.56,31.56Z"/>
          <path class="cls-4" d="M1322.13,1343.44c29.9-19.01,72.42,16.17,52.28,48.08-5.88-7.99-10.22-15.4-16.84-22.04-10.85-10.45-22.27-16.43-35.44-26.04h0Z"/>
          <path class="cls-4" d="M929.91,1343.44c-13.16,9.61-24.59,15.6-35.44,26.04-6.63,6.65-10.95,14.05-16.84,22.04-20.14-31.93,22.39-67.09,52.28-48.08h0Z"/>
        </g>
      </g>
      <g>
        <path class="cls-19" d="M1495.03,1783.73c-108.52,25.47-231.39,38.74-368.86,38.74s-260.34-13.27-368.86-38.74c-10.69-5.54-28.52-37.88-4.98-57.38,24.09,3.91,219.28,32.98,373.84,32.98s349.75-29.07,373.84-32.98c23.53,19.5,5.71,51.84-4.98,57.38Z"/>
        <path class="cls-4" d="M1126.17,1837.32c-136.37,0-261.62-13.17-372.25-39.13-1.2-.28-2.35-.71-3.44-1.27-12.03-6.23-22.48-23.77-24.31-40.8-1.74-16.22,4.18-30.85,16.68-41.21,3.3-2.73,7.63-3.92,11.86-3.23,2.02.33,209.39,32.79,371.46,32.79s369.44-32.46,371.46-32.79c4.23-.7,8.56.49,11.86,3.23,12.5,10.35,18.42,24.99,16.68,41.2-1.83,17.03-12.28,34.57-24.31,40.81-1.09.56-2.25.99-3.44,1.27-110.63,25.96-235.88,39.13-372.25,39.13ZM763.48,1769.91c107.74,25.02,229.74,37.7,362.7,37.7s254.96-12.68,362.7-37.7c2.72-2.67,7.45-10.21,7.86-18.21.19-3.63-.53-6.74-2.23-9.48-39.8,5.96-222.06,31.97-368.33,31.97s-328.52-26.01-368.32-31.97c-1.7,2.74-2.42,5.84-2.23,9.48.42,8,5.14,15.53,7.86,18.21ZM1495.03,1783.73h.05-.05Z"/>
      </g>
      <g class="cls-11">
        <path class="cls-6" d="M1364.24,318.25c-25.69-12.04-323.52-155.36-207.57-195.44,102.34-35.38,329.58,27.74,410.85,73.72,75.11,42.51,249.55,181.28,225.21,260.01-24.34,78.73-358.34-105.41-428.49-138.29Z"/>
      </g>
      <g class="cls-11">
        <path class="cls-6" d="M1824.58,661.39c-22.25-33.61-65.33-144.85,7.26-147.06,45.73-1.39,125.82,50.15,148.01,119.61,21.78,68.17-.32,132.23-28.4,139.65-57.9,15.29-94.93-63.95-126.87-112.19Z"/>
      </g>
      <g>
        <path class="cls-3" d="M1344.52,2085.93c-40.23,3.14-76.43-3.69-108.57-27.5-17.09-12.66-28.43-29.51-34.17-50.13-2.18-7.83-.89-13.87,5.13-19.8,6.38-6.28,12.07-3.7,18.33-1.12,36.03,14.88,72.53,25.48,110.14,22.73,41.19-3.01,75.41-34.37,82.94-71.86,1.8-8.99-1.8-17.99-2.83-26.79-.49-4.2-1.54-8.47-1.47-12.51.11-6.96,3.98-11.06,10.96-10.24,7.22.85,10.17,7.03,10.27,12.97.36,20.61,5.31,41.03,15.2,62.73,9.69,21.27,5.17,42.02-6.02,59.94-22.78,36.51-58.58,55.01-99.91,61.55Z"/>
        <path class="cls-3" d="M1410.18,1939.88c-9.75,40.55-47.53,66.26-96.04,62.35-36.87-2.98-70.65-34.29-76.18-70.17-.66-4.28-.34-8.68-.3-12.98.05-5.77,1.63-10.47,8.15-12.66,6.35-2.14,9.79,1.55,13.58,5.14,15.44,14.65,32.4,27.54,51.54,37.63,35.86,18.91,67.57,15.94,94.11-7.08,1-.87,2.05-1.68,3.12-2.44.2-.14.66.05,2.02.21Z"/>
      </g>
    </g>
  </g>
</svg>