<svg xmlns="http://www.w3.org/2000/svg" viewBox="0 0 24 24"><title>instagram</title><g fill="none" fill-rule="evenodd"><path d="M0 24h24V0H0z" /><path d="M11.5 20c-2.632 0-2.941-.01-3.971-.059-1.022-.045-1.588-.22-1.969-.368a3.53 3.53 0 0 1-1.293-.84 3.54 3.54 0 0 1-.84-1.292c-.148-.382-.323-.948-.37-1.97C3.01 14.44 3 14.13 3 11.5c0-2.633.01-2.941.058-3.972.046-1.022.22-1.588.368-1.968.2-.518.453-.904.84-1.294a3.55 3.55 0 0 1 1.293-.84c.382-.147.948-.322 1.97-.368C8.56 3.01 8.87 3 11.5 3c2.632 0 2.941.01 3.971.058 1.022.046 1.588.22 1.969.368.517.2.904.453 1.293.84.388.39.64.776.84 1.293.148.38.323.947.37 1.97.047 1.03.057 1.338.057 3.971 0 2.632-.01 2.941-.058 3.971-.046 1.022-.22 1.588-.368 1.969a3.54 3.54 0 0 1-.84 1.293c-.39.388-.777.64-1.293.84-.382.148-.948.323-1.97.368-1.03.048-1.34.059-3.971.059" /><path d="M12 2c-2.716 0-3.057.012-4.123.061-1.064.047-1.791.216-2.428.464a4.875 4.875 0 0 0-1.77 1.154 4.875 4.875 0 0 0-1.154 1.77c-.248.637-.417 1.363-.464 2.428C2.012 8.943 2 9.284 2 12s.012 3.057.061 4.123c.047 1.065.216 1.791.464 2.428a4.875 4.875 0 0 0 1.154 1.77 4.875 4.875 0 0 0 1.77 1.154c.637.248 1.364.417 2.428.464C8.943 21.988 9.284 22 12 22s3.057-.012 4.123-.061c1.064-.047 1.791-.216 2.428-.464a4.875 4.875 0 0 0 1.77-1.154 4.875 4.875 0 0 0 1.154-1.77c.248-.637.417-1.363.464-2.428.049-1.066.061-1.407.061-4.123s-.012-3.057-.061-4.123c-.047-1.065-.216-1.791-.464-2.428a4.875 4.875 0 0 0-1.154-1.77 4.875 4.875 0 0 0-1.77-1.154c-.637-.248-1.364-.417-2.428-.464C15.057 2.012 14.716 2 12 2m0 1.802c2.67 0 2.986.01 4.041.058.975.044 1.504.207 1.856.344.467.182.8.399 1.151.748.349.351.566.684.748 1.151.137.352.3.881.344 1.856.048 1.055.058 1.371.058 4.041 0 2.67-.01 2.986-.058 4.041-.044.975-.207 1.504-.344 1.856-.182.467-.399.8-.748 1.151a3.129 3.129 0 0 1-1.151.748c-.352.137-.881.3-1.856.344-1.055.048-1.371.058-4.041.058-2.67 0-2.986-.01-4.041-.058-.975-.044-1.504-.207-1.856-.344a3.129 3.129 0 0 1-1.151-.748 3.129 3.129 0 0 1-.748-1.151c-.137-.352-.3-.881-.344-1.856-.048-1.055-.058-1.371-.058-4.041 0-2.67.01-2.986.058-4.041.044-.975.207-1.504.344-1.856.182-.467.399-.8.748-1.151a3.129 3.129 0 0 1 1.151-.748c.352-.137.881-.3 1.856-.344C9.014 3.812 9.33 3.802 12 3.802" fill="currentColor" /><path d="M12 15.245a3.245 3.245 0 1 1 0-6.49 3.245 3.245 0 0 1 0 6.49M12 7a5 5 0 1 0 0 10 5 5 0 0 0 0-10m6-1a1 1 0 1 1-2 0 1 1 0 0 1 2 0" fill="currentColor" /></g></svg>