<?xml version="1.0" encoding="UTF-8"?>
<svg id="Livello_1" xmlns="http://www.w3.org/2000/svg" version="1.1" viewBox="0 0 24 24">
  <!-- Generator: Adobe Illustrator 29.4.0, SVG Export Plug-In . SVG Version: 2.1.0 Build 152)  -->
  <defs>
    <style>
      .st0 {
        fill: none;
      }

      .st1 {
        fill: #fff;
      }

      .st1, .st2 {
        fill-rule: evenodd;
      }
    </style>
  </defs>
  <path class="st0" d="M0,24h24V0H0v24Z"/>
  <path class="st2" d="M23,12c0,6.1-4.9,11-11,11S1,18.1,1,12,5.9,1,12,1s11,4.9,11,11"/>
  <path class="st1" d="M10.1,18c4.9,0,7.6-4.2,7.6-7.9s0-.2,0-.4c.5-.4,1-.9,1.3-1.4-.5.2-1,.4-1.5.4.6-.4,1-.9,1.2-1.5-.5.3-1.1.6-1.7.7-.5-.6-1.2-.9-1.9-.9-1.5,0-2.7,1.2-2.7,2.8s0,.4,0,.6c-2.2-.1-4.2-1.2-5.5-2.9-.2.4-.4.9-.4,1.4,0,1,.5,1.8,1.2,2.3-.4,0-.8-.1-1.2-.3h0c0,1.4.9,2.5,2.1,2.8-.4.1-.8.1-1.2,0,.3,1.1,1.3,1.9,2.5,1.9-1.1.9-2.5,1.3-3.9,1.1,1.2.8,2.6,1.2,4.1,1.2"/>
</svg>